<svg width="127" height="58" viewBox="0 0 127 58" fill="none" xmlns="http://www.w3.org/2000/svg">
<circle cx="61.2436" cy="25.7963" r="25.7963" fill="#D9D9D9"/>
<path d="M122.744 19.7838C122.828 20.1966 122.75 20.7759 122.244 21.5876C121.732 22.4074 120.847 23.3511 119.54 24.3914C116.931 26.4689 112.902 28.725 107.695 31.0064C97.3021 35.5592 82.5143 40.0836 65.8038 43.4735C49.0933 46.8633 33.7114 48.459 22.3662 48.3158C16.6811 48.2441 12.0921 47.7361 8.87916 46.8397C7.27038 46.3909 6.08787 45.8665 5.29704 45.311C4.51392 44.7609 4.21714 44.2575 4.13341 43.8447C4.04968 43.4319 4.12682 42.8526 4.63367 42.0409C5.14552 41.2211 6.03021 40.2774 7.33692 39.2371C9.94657 37.1596 13.9749 34.9035 19.1826 32.6221C29.5752 28.0693 44.363 23.5449 61.0735 20.1551C77.784 16.7652 93.1659 15.1695 104.511 15.3127C110.196 15.3844 114.785 15.8924 117.998 16.7888C119.607 17.2376 120.789 17.762 121.58 18.3175C122.363 18.8676 122.66 19.371 122.744 19.7838Z" stroke="#D9D9D9" stroke-width="3"/>
</svg>
