<svg width="384" height="388" viewBox="0 0 384 388" fill="none" xmlns="http://www.w3.org/2000/svg">
<mask id="mask0_259_2399" style="mask-type:alpha" maskUnits="userSpaceOnUse" x="0" y="0" width="384" height="388">
<rect x="0.224609" width="383.551" height="387.709" fill="#D9D9D9"/>
</mask>
<g mask="url(#mask0_259_2399)">
<path d="M1020.24 -26.6084H0.224609V1744.14H1020.24V-26.6084Z" stroke="#311414" stroke-miterlimit="10"/>
<path d="M0.224609 387.447H1020.24" stroke="#311414" stroke-miterlimit="10"/>
<path d="M0.224609 378.636H1020.24" stroke="#311414" stroke-miterlimit="10"/>
<path d="M0.224609 369.829H1020.24" stroke="#311414" stroke-miterlimit="10"/>
<path d="M0.224609 361.018H1020.24" stroke="#311414" stroke-miterlimit="10"/>
<path d="M0.224609 352.208H1020.24" stroke="#311414" stroke-miterlimit="10"/>
<path d="M0.224609 343.397H1020.24" stroke="#311414" stroke-miterlimit="10"/>
<path d="M0.224609 334.587H1020.24" stroke="#311414" stroke-miterlimit="10"/>
<path d="M0.224609 325.778H1020.24" stroke="#311414" stroke-miterlimit="10"/>
<path d="M0.224609 316.971H1020.24" stroke="#311414" stroke-miterlimit="10"/>
<path d="M0.224609 308.161H1020.24" stroke="#311414" stroke-miterlimit="10"/>
<path d="M0.224609 299.35H1020.24" stroke="#311414" stroke-miterlimit="10"/>
<path d="M0.224609 290.54H1020.24" stroke="#311414" stroke-miterlimit="10"/>
<path d="M0.224609 281.73H1020.24" stroke="#311414" stroke-miterlimit="10"/>
<path d="M0.224609 272.92H1020.24" stroke="#311414" stroke-miterlimit="10"/>
<path d="M0.224609 264.113H1020.24" stroke="#311414" stroke-miterlimit="10"/>
<path d="M0.224609 255.303H1020.24" stroke="#311414" stroke-miterlimit="10"/>
<path d="M0.224609 246.493H1020.24" stroke="#311414" stroke-miterlimit="10"/>
<path d="M0.224609 237.682H1020.24" stroke="#311414" stroke-miterlimit="10"/>
<path d="M0.224609 228.872H1020.24" stroke="#311414" stroke-miterlimit="10"/>
<path d="M0.224609 220.061H1020.24" stroke="#311414" stroke-miterlimit="10"/>
<path d="M0.224609 211.254H1020.24" stroke="#311414" stroke-miterlimit="10"/>
<path d="M0.224609 202.445H1020.24" stroke="#311414" stroke-miterlimit="10"/>
<path d="M0.224609 193.635H1020.24" stroke="#311414" stroke-miterlimit="10"/>
<path d="M0.224609 184.824H1020.24" stroke="#311414" stroke-miterlimit="10"/>
<path d="M0.224609 176.014H1020.24" stroke="#311414" stroke-miterlimit="10"/>
<path d="M0.224609 167.203H1020.24" stroke="#311414" stroke-miterlimit="10"/>
<path d="M0.224609 158.397H1020.24" stroke="#311414" stroke-miterlimit="10"/>
<path d="M0.224609 149.586H1020.24" stroke="#311414" stroke-miterlimit="10"/>
<path d="M0.224609 140.777H1020.24" stroke="#311414" stroke-miterlimit="10"/>
<path d="M0.224609 131.965H1020.24" stroke="#311414" stroke-miterlimit="10"/>
<path d="M0.224609 123.156H1020.24" stroke="#311414" stroke-miterlimit="10"/>
<path d="M0.224609 114.346H1020.24" stroke="#311414" stroke-miterlimit="10"/>
<path d="M0.224609 105.539H1020.24" stroke="#311414" stroke-miterlimit="10"/>
<path d="M0.224609 96.728H1020.24" stroke="#311414" stroke-miterlimit="10"/>
<path d="M0.224609 87.918H1020.24" stroke="#311414" stroke-miterlimit="10"/>
<path d="M0.224609 79.1074H1020.24" stroke="#311414" stroke-miterlimit="10"/>
<path d="M0.224609 70.2974H1020.24" stroke="#311414" stroke-miterlimit="10"/>
<path d="M0.224609 61.4873H1020.24" stroke="#311414" stroke-miterlimit="10"/>
<path d="M0.224609 52.6812H1020.24" stroke="#311414" stroke-miterlimit="10"/>
<path d="M0.224609 43.8706H1020.24" stroke="#311414" stroke-miterlimit="10"/>
<path d="M0.224609 35.0605H1020.24" stroke="#311414" stroke-miterlimit="10"/>
<path d="M0.224609 26.249H1020.24" stroke="#311414" stroke-miterlimit="10"/>
<path d="M0.224609 17.4395H1020.24" stroke="#311414" stroke-miterlimit="10"/>
<path d="M0.224609 8.62939H1020.24" stroke="#311414" stroke-miterlimit="10"/>
<path d="M0.224609 -0.177246H1020.24" stroke="#311414" stroke-miterlimit="10"/>
<path d="M383.991 -26.6084V1744.14" stroke="#311414" stroke-miterlimit="10"/>
<path d="M373.89 -26.6084V1744.14" stroke="#311414" stroke-miterlimit="10"/>
<path d="M363.796 -26.6084V1744.14" stroke="#311414" stroke-miterlimit="10"/>
<path d="M353.695 -26.6084V1744.14" stroke="#311414" stroke-miterlimit="10"/>
<path d="M343.595 -26.6084V1744.14" stroke="#311414" stroke-miterlimit="10"/>
<path d="M333.5 -26.6084V1744.14" stroke="#311414" stroke-miterlimit="10"/>
<path d="M323.399 -26.6084V1744.14" stroke="#311414" stroke-miterlimit="10"/>
<path d="M313.298 -26.6084V1744.14" stroke="#311414" stroke-miterlimit="10"/>
<path d="M303.197 -26.6084V1744.14" stroke="#311414" stroke-miterlimit="10"/>
<path d="M293.104 -26.6084V1744.14" stroke="#311414" stroke-miterlimit="10"/>
<path d="M283.003 -26.6084V1744.14" stroke="#311414" stroke-miterlimit="10"/>
<path d="M272.902 -26.6084V1744.14" stroke="#311414" stroke-miterlimit="10"/>
<path d="M262.801 -26.6084V1744.14" stroke="#311414" stroke-miterlimit="10"/>
<path d="M252.707 -26.6084V1744.14" stroke="#311414" stroke-miterlimit="10"/>
<path d="M242.606 -26.6084V1744.14" stroke="#311414" stroke-miterlimit="10"/>
<path d="M232.506 -26.6084V1744.14" stroke="#311414" stroke-miterlimit="10"/>
<path d="M222.403 -26.6084V1744.14" stroke="#311414" stroke-miterlimit="10"/>
<path d="M212.31 -26.6084V1744.14" stroke="#311414" stroke-miterlimit="10"/>
<path d="M202.208 -26.6084V1744.14" stroke="#311414" stroke-miterlimit="10"/>
<path d="M192.108 -26.6084V1744.14" stroke="#311414" stroke-miterlimit="10"/>
<path d="M182.007 -26.6084V1744.14" stroke="#311414" stroke-miterlimit="10"/>
<path d="M171.913 -26.6084V1744.14" stroke="#311414" stroke-miterlimit="10"/>
<path d="M161.812 -26.6084V1744.14" stroke="#311414" stroke-miterlimit="10"/>
<path d="M151.711 -26.6084V1744.14" stroke="#311414" stroke-miterlimit="10"/>
<path d="M141.61 -26.6084V1744.14" stroke="#311414" stroke-miterlimit="10"/>
<path d="M131.517 -26.6084V1744.14" stroke="#311414" stroke-miterlimit="10"/>
<path d="M121.415 -26.6084V1744.14" stroke="#311414" stroke-miterlimit="10"/>
<path d="M111.314 -26.6084V1744.14" stroke="#311414" stroke-miterlimit="10"/>
<path d="M101.213 -26.6084V1744.14" stroke="#311414" stroke-miterlimit="10"/>
<path d="M91.1191 -26.6084V1744.14" stroke="#311414" stroke-miterlimit="10"/>
<path d="M81.019 -26.6084V1744.14" stroke="#311414" stroke-miterlimit="10"/>
<path d="M70.918 -26.6084V1744.14" stroke="#311414" stroke-miterlimit="10"/>
<path d="M60.8154 -26.6084V1744.14" stroke="#311414" stroke-miterlimit="10"/>
<path d="M50.7227 -26.6084V1744.14" stroke="#311414" stroke-miterlimit="10"/>
<path d="M40.6211 -26.6084V1744.14" stroke="#311414" stroke-miterlimit="10"/>
<path d="M30.5205 -26.6084V1744.14" stroke="#311414" stroke-miterlimit="10"/>
<path d="M20.4194 -26.6084V1744.14" stroke="#311414" stroke-miterlimit="10"/>
<path d="M10.3257 -26.6084V1744.14" stroke="#311414" stroke-miterlimit="10"/>
</g>
</svg>
