<svg width="668" height="119" viewBox="0 0 668 119" fill="none" xmlns="http://www.w3.org/2000/svg">
<path d="M112.683 38.1923V55.6912C112.683 49.2761 110.724 44.1546 106.806 40.3265C102.888 36.4985 97.6703 34.5845 91.1521 34.5845C84.5586 34.5845 79.3049 36.4828 75.391 40.2794C71.477 44.0759 69.5163 49.2132 69.5088 55.6912V38.1923C69.5088 31.7108 71.4695 26.5683 75.391 22.7647C79.3125 18.9611 84.5662 17.0681 91.1521 17.0856C97.6741 17.0856 102.892 18.9996 106.806 22.8276C110.72 26.6557 112.679 31.7772 112.683 38.1923Z" fill="#507E2C"/>
<mask id="mask0_259_1773" style="mask-type:luminance" maskUnits="userSpaceOnUse" x="69" y="17" width="44" height="39">
<path d="M112.683 38.1923V55.6912C112.683 49.2761 110.724 44.1546 106.806 40.3265C102.888 36.4985 97.6703 34.5845 91.1521 34.5845C84.5586 34.5845 79.3049 36.4828 75.391 40.2794C71.477 44.0759 69.5163 49.2132 69.5088 55.6912V38.1923C69.5088 31.7108 71.4695 26.5683 75.391 22.7647C79.3125 18.9611 84.5662 17.0681 91.1521 17.0856C97.6741 17.0856 102.892 18.9996 106.806 22.8276C110.72 26.6557 112.679 31.7772 112.683 38.1923Z" fill="white"/>
</mask>
<g mask="url(#mask0_259_1773)">
<path d="M112.682 38.1917V55.6906C112.682 49.2755 110.724 44.154 106.806 40.3259C102.888 36.4979 97.6703 34.5839 91.1521 34.5839C85.5371 34.5839 80.8949 35.9578 77.2256 38.7056V21.1909C80.8949 18.4536 85.5371 17.085 91.1521 17.085C97.674 17.085 102.892 18.999 106.806 22.827C110.72 26.6551 112.679 31.7766 112.682 38.1917Z" fill="#507E2C" stroke="#507E2C" stroke-linecap="round" stroke-linejoin="round"/>
<path d="M77.2259 21.1909V38.7056C76.5777 39.1936 75.963 39.7191 75.3856 40.2787C74.7763 40.8706 74.2123 41.5014 73.6978 42.1665V24.6676C74.2149 23.998 74.7807 23.362 75.3913 22.7641C75.9671 22.2029 76.5818 21.6774 77.2316 21.1909" fill="#507E2C"/>
<path d="M77.2259 21.1909V38.7056C76.5777 39.1936 75.963 39.7191 75.3856 40.2787C74.7763 40.8706 74.2123 41.5014 73.6978 42.1665V24.6676C74.2149 23.998 74.7807 23.362 75.3913 22.7641C75.9671 22.2029 76.5818 21.6774 77.2316 21.1909" stroke="#507E2C" stroke-linecap="round" stroke-linejoin="round"/>
<path d="M73.6979 24.668V42.1669C72.6346 43.534 71.7744 45.028 71.1406 46.6085V29.1148C71.7744 27.5327 72.6346 26.037 73.6979 24.668Z" fill="#507E2C" stroke="#507E2C" stroke-linecap="round" stroke-linejoin="round"/>
<path d="M71.1233 29.1143V46.6079C70 49.5202 69.4531 52.5972 69.5088 55.6904V38.1915C69.4525 35.1 69.9995 32.0246 71.1233 29.1143Z" fill="#507E2C" stroke="#507E2C" stroke-linecap="round" stroke-linejoin="round"/>
</g>
<path d="M112.683 38.1923V55.6912C112.683 49.2761 110.724 44.1546 106.806 40.3265C102.888 36.4985 97.6703 34.5845 91.1521 34.5845C84.5586 34.5845 79.3049 36.4828 75.391 40.2794C71.477 44.0759 69.5163 49.2132 69.5088 55.6912V38.1923C69.5088 31.7108 71.4695 26.5683 75.391 22.7647C79.3125 18.9611 84.5662 17.0681 91.1521 17.0856C97.6741 17.0856 102.892 18.9996 106.806 22.8276C110.72 26.6557 112.679 31.7772 112.683 38.1923Z" stroke="#507E2C" stroke-linecap="round" stroke-linejoin="round"/>
<path d="M132.937 38.1924V55.6913C133.041 62.3535 131.16 68.9126 127.503 74.6444C123.846 80.3763 118.555 85.0578 112.214 88.172C105.735 91.3761 98.4916 93.0136 91.1521 92.9335C83.7953 93.0078 76.5353 91.3709 70.0338 88.172C63.7526 85.1052 58.4848 80.5127 54.792 74.884C51.0024 69.1078 49.0457 62.455 49.1469 55.6913V38.1924C49.0447 44.9562 51.0016 51.6092 54.792 57.3851C58.4848 63.0138 63.7526 67.6063 70.0338 70.6731C76.5353 73.872 83.7953 75.5089 91.1521 75.4346C98.4916 75.5147 105.735 73.8772 112.214 70.6731C118.555 67.5589 123.846 62.8774 127.503 57.1455C131.16 51.4137 133.041 44.8546 132.937 38.1924Z" fill="#507E2C"/>
<mask id="mask1_259_1773" style="mask-type:luminance" maskUnits="userSpaceOnUse" x="49" y="38" width="84" height="55">
<path d="M132.937 38.1924V55.6913C133.041 62.3535 131.16 68.9126 127.503 74.6444C123.846 80.3763 118.555 85.0578 112.214 88.172C105.735 91.3761 98.4916 93.0136 91.1521 92.9335C83.7953 93.0078 76.5353 91.3709 70.0338 88.172C63.7526 85.1052 58.4848 80.5127 54.792 74.884C51.0024 69.1078 49.0457 62.455 49.1469 55.6913V38.1924C49.0447 44.9562 51.0016 51.6092 54.792 57.3851C58.4848 63.0138 63.7526 67.6063 70.0338 70.6731C76.5353 73.872 83.7953 75.5089 91.1521 75.4346C98.4916 75.5147 105.735 73.8772 112.214 70.6731C118.555 67.5589 123.846 62.8774 127.503 57.1455C131.16 51.4137 133.041 44.8546 132.937 38.1924Z" fill="white"/>
</mask>
<g mask="url(#mask1_259_1773)">
<path d="M132.937 38.1924V55.6913C132.976 60.2299 132.129 64.7375 130.436 68.9951V51.4962C132.129 47.2386 132.976 42.731 132.937 38.1924Z" fill="#507E2C" stroke="#507E2C" stroke-linecap="round" stroke-linejoin="round"/>
<path d="M130.436 51.4963V68.9952C129.596 71.0427 128.555 73.014 127.326 74.8841C126.761 75.7861 126.106 76.6618 125.446 77.5061V59.9967C126.106 59.1577 126.733 58.2819 127.326 57.3747C128.547 55.5038 129.581 53.5325 130.413 51.4858" fill="#507E2C"/>
<path d="M130.436 51.4963V68.9952C129.596 71.0427 128.555 73.014 127.326 74.8841C126.761 75.7861 126.106 76.6618 125.446 77.5061V59.9967C126.106 59.1577 126.733 58.2819 127.326 57.3747C128.547 55.5038 129.581 53.5325 130.413 51.4858" stroke="#507E2C" stroke-linecap="round" stroke-linejoin="round"/>
<path d="M125.468 59.9966V77.4955C123.474 80.0435 121.126 82.3357 118.485 84.3126V66.8137C121.126 64.8368 123.474 62.5446 125.468 59.9966Z" fill="#507E2C" stroke="#507E2C" stroke-linecap="round" stroke-linejoin="round"/>
<path d="M118.486 66.8136V84.3282C116.529 85.7891 114.43 87.076 112.214 88.172C105.735 91.3761 98.4916 93.0136 91.1521 92.9335C83.7953 93.0078 76.5353 91.3709 70.0338 88.172C63.7526 85.1052 58.4848 80.5127 54.792 74.884C51.0024 69.1078 49.0457 62.455 49.1469 55.6913V38.1924C49.0447 44.9562 51.0016 51.6092 54.792 57.3851C58.4848 63.0138 63.7526 67.6063 70.0338 70.6731C76.5353 73.872 83.7953 75.5089 91.1521 75.4346C98.4916 75.5147 105.735 73.8772 112.214 70.6731C114.43 69.5721 116.53 68.2799 118.486 66.8136Z" fill="#507E2C" stroke="#507E2C" stroke-linecap="round" stroke-linejoin="round"/>
</g>
<path d="M132.937 38.1924V55.6913C133.041 62.3535 131.16 68.9126 127.503 74.6444C123.846 80.3763 118.555 85.0578 112.214 88.172C105.735 91.3761 98.4916 93.0136 91.1521 92.9335C83.7953 93.0078 76.5353 91.3709 70.0338 88.172C63.7526 85.1052 58.4848 80.5127 54.792 74.884C51.0024 69.1078 49.0457 62.455 49.1469 55.6913V38.1924C49.0447 44.9562 51.0016 51.6092 54.792 57.3851C58.4848 63.0138 63.7526 67.6063 70.0338 70.6731C76.5353 73.872 83.7953 75.5089 91.1521 75.4346C98.4916 75.5147 105.735 73.8772 112.214 70.6731C118.555 67.5589 123.846 62.8774 127.503 57.1455C131.16 51.4137 133.041 44.8546 132.937 38.1924Z" stroke="#507E2C" stroke-linecap="round" stroke-linejoin="round"/>
<path d="M127.405 18.9995C131.127 24.7782 133.043 31.4061 132.937 38.1397C133.043 44.8065 131.164 51.3709 127.507 57.1081C123.85 62.8454 118.557 67.5324 112.214 70.6519C105.733 73.8519 98.4906 75.4874 91.1519 75.4081C83.7958 75.4819 76.5365 73.8469 70.0335 70.6519C63.7531 67.5817 58.4858 62.9878 54.7918 57.3586C51.0014 51.5828 49.0445 44.9298 49.1467 38.1659C49.0407 31.4182 50.9982 24.781 54.7918 19.0257C58.4996 13.4203 63.7647 8.84643 70.0335 5.78485C76.5339 2.58073 83.7934 0.936765 91.1519 1.00241C98.5098 0.928263 105.771 2.56319 112.276 5.75863C118.529 8.80247 123.762 13.3825 127.405 18.9995ZM106.806 53.4519C110.723 49.6064 112.682 44.5023 112.682 38.1397C112.682 31.7282 110.723 26.6066 106.806 22.7751C102.888 18.9436 97.6701 17.0313 91.1519 17.0383C84.5584 17.0383 79.3047 18.9348 75.3908 22.7279C71.4768 26.521 69.5161 31.6583 69.5086 38.1397C69.5086 44.5548 71.4674 49.6746 75.3851 53.4991C79.3028 57.3237 84.5584 59.2464 91.1519 59.2674C97.6739 59.2674 102.892 57.3446 106.806 53.4991" fill="white"/>
<path d="M106.806 53.4519C110.723 49.6064 112.682 44.5023 112.682 38.1397C112.682 31.7282 110.723 26.6066 106.806 22.7751C102.888 18.9436 97.6701 17.0313 91.1519 17.0383C84.5584 17.0383 79.3047 18.9348 75.3908 22.7279C71.4768 26.521 69.5161 31.6583 69.5086 38.1397C69.5086 44.5548 71.4674 49.6746 75.3851 53.4991C79.3028 57.3237 84.5584 59.2464 91.1519 59.2674C97.6739 59.2674 102.892 57.3446 106.806 53.4991M127.405 18.9995C131.127 24.7782 133.043 31.4061 132.937 38.1397C133.043 44.8065 131.164 51.3709 127.507 57.1081C123.85 62.8454 118.557 67.5324 112.214 70.6519C105.733 73.8519 98.4906 75.4874 91.1519 75.4081C83.7958 75.4819 76.5365 73.8469 70.0335 70.6519C63.7531 67.5817 58.4858 62.9878 54.7918 57.3586C51.0014 51.5828 49.0445 44.9298 49.1467 38.1659C49.0407 31.4182 50.9982 24.781 54.7918 19.0257C58.4996 13.4203 63.7647 8.84643 70.0335 5.78485C76.5339 2.58073 83.7934 0.936765 91.1519 1.00241C98.5098 0.928263 105.771 2.56319 112.276 5.75863C118.529 8.80247 123.762 13.3825 127.405 18.9995Z" stroke="#507E2C" stroke-linecap="round" stroke-linejoin="round"/>
<path d="M212.064 45.4346V62.9335C212.064 69.4219 210.514 74.9036 207.413 79.3783C204.38 83.8068 200.037 87.3282 194.903 89.5201C189.413 91.8448 183.436 93.0106 177.403 92.9338C170.96 92.9338 165.2 91.8134 160.124 89.5725C155.109 87.3863 150.913 83.856 148.077 79.436C145.13 74.9228 143.657 69.4219 143.657 62.9335V45.4346C143.657 51.9195 145.13 57.4204 148.077 61.9371C150.914 66.3471 155.102 69.8708 160.107 72.0579C165.187 74.2988 170.947 75.4174 177.386 75.414C183.419 75.4908 189.396 74.3249 194.886 72.0002C200.019 69.8098 204.362 66.2902 207.396 61.8637C210.512 57.3959 212.068 51.9195 212.064 45.4346Z" fill="#507E2C"/>
<mask id="mask2_259_1773" style="mask-type:luminance" maskUnits="userSpaceOnUse" x="143" y="45" width="70" height="48">
<path d="M212.064 45.4346V62.9335C212.064 69.4219 210.514 74.9036 207.413 79.3783C204.38 83.8068 200.037 87.3282 194.903 89.5201C189.413 91.8448 183.436 93.0106 177.403 92.9338C170.96 92.9338 165.2 91.8134 160.124 89.5725C155.109 87.3863 150.913 83.856 148.077 79.436C145.13 74.9228 143.657 69.4219 143.657 62.9335V45.4346C143.657 51.9195 145.13 57.4204 148.077 61.9371C150.914 66.3471 155.102 69.8708 160.107 72.0579C165.187 74.2988 170.947 75.4174 177.386 75.414C183.419 75.4908 189.396 74.3249 194.886 72.0002C200.019 69.8098 204.362 66.2902 207.396 61.8637C210.512 57.3959 212.068 51.9195 212.064 45.4346Z" fill="white"/>
</mask>
<g mask="url(#mask2_259_1773)">
<path d="M212.064 45.4346V62.9335C212.132 66.9148 211.424 70.8747 209.975 74.6221V57.1285C211.423 53.3791 212.131 49.4176 212.064 45.4346Z" fill="#507E2C" stroke="#507E2C" stroke-linecap="round" stroke-linejoin="round"/>
<path d="M209.976 57.1279V74.6216C209.305 76.287 208.446 77.8814 207.413 79.3778C207.08 79.855 206.741 80.3217 206.385 80.7727V63.2738C206.741 62.8228 207.08 62.3561 207.413 61.8841C208.444 60.3866 209.303 58.7924 209.976 57.1279Z" fill="#507E2C" stroke="#507E2C" stroke-linecap="round" stroke-linejoin="round"/>
<path d="M206.385 63.2739V80.7728C204.873 82.709 203.093 84.451 201.09 85.9538V68.4549C203.093 66.9521 204.873 65.2101 206.385 63.2739Z" fill="#507E2C" stroke="#507E2C" stroke-linecap="round" stroke-linejoin="round"/>
<path d="M201.09 68.4553V85.9542C199.184 87.3729 197.099 88.5703 194.881 89.5201C189.39 91.8448 183.414 93.0106 177.381 92.9338C170.938 92.9338 165.178 91.8134 160.101 89.5725C155.086 87.3863 150.891 83.856 148.054 79.436C145.108 74.9228 143.634 69.4219 143.634 62.9335V45.4346C143.634 51.9195 145.108 57.4204 148.054 61.9371C150.897 66.3502 155.094 69.8743 160.107 72.0579C165.187 74.2988 170.947 75.4174 177.386 75.414C183.419 75.4908 189.396 74.3249 194.886 72.0002C197.104 71.0505 199.19 69.853 201.096 68.4343" fill="#507E2C"/>
<path d="M201.09 68.4553V85.9542C199.184 87.3729 197.099 88.5703 194.881 89.5201C189.39 91.8448 183.414 93.0106 177.381 92.9338C170.938 92.9338 165.178 91.8134 160.101 89.5725C155.086 87.3863 150.891 83.856 148.054 79.436C145.108 74.9228 143.634 69.4219 143.634 62.9335V45.4346C143.634 51.9195 145.108 57.4204 148.054 61.9371C150.897 66.3502 155.094 69.8743 160.107 72.0579C165.187 74.2988 170.947 75.4175 177.386 75.414C183.419 75.4908 189.396 74.3249 194.886 72.0002C197.104 71.0505 199.19 69.853 201.096 68.4343" stroke="#507E2C" stroke-linecap="round" stroke-linejoin="round"/>
</g>
<path d="M212.064 45.4346V62.9335C212.064 69.4219 210.514 74.9036 207.413 79.3784C204.38 83.8068 200.037 87.3282 194.903 89.5201C189.413 91.8448 183.436 93.0106 177.403 92.9338C170.96 92.9338 165.2 91.8134 160.124 89.5725C155.109 87.3863 150.913 83.856 148.077 79.436C145.13 74.9228 143.657 69.4219 143.657 62.9335V45.4346C143.657 51.9195 145.13 57.4204 148.077 61.9371C150.914 66.3471 155.102 69.8708 160.107 72.0579C165.187 74.2988 170.947 75.4175 177.386 75.414C183.419 75.4908 189.396 74.3249 194.886 72.0002C200.019 69.8098 204.362 66.2902 207.396 61.8637C210.512 57.3959 212.068 51.9195 212.064 45.4346Z" stroke="#507E2C" stroke-linecap="round" stroke-linejoin="round"/>
<path d="M212.064 2.03516V45.3813C212.064 51.8697 210.514 57.3531 207.413 61.8314C204.379 66.2579 200.036 69.7774 194.903 71.9678C189.413 74.2926 183.436 75.4584 177.403 75.3816C170.96 75.3816 165.2 74.2629 160.124 72.0255C155.109 69.8371 150.913 66.3051 148.077 61.8838C145.13 57.3706 143.657 51.8697 143.657 45.3813V2.03516H163.556V45.4861C163.556 49.8281 164.758 53.1719 167.163 55.5177C169.568 57.8635 173.098 59.0364 177.753 59.0364C182.405 59.0364 185.98 57.8635 188.479 55.5177C190.978 53.1719 192.22 49.8281 192.205 45.4861V2.03516H212.064Z" fill="white" stroke="#507E2C" stroke-linecap="round" stroke-linejoin="round"/>
<path d="M258.269 16.7759H245.935V34.2748H258.269V16.7759Z" fill="#507E2C" stroke="#507E2C" stroke-linecap="round" stroke-linejoin="round"/>
<path d="M269.204 25.6748V43.1737C269.204 40.4154 268.293 38.2427 266.472 36.6555C264.65 35.0684 261.924 34.2835 258.292 34.301V16.7759C261.935 16.7759 264.669 17.5695 266.494 19.1566C268.32 20.7438 269.223 22.9165 269.204 25.6748Z" fill="#507E2C"/>
<mask id="mask3_259_1773" style="mask-type:luminance" maskUnits="userSpaceOnUse" x="258" y="16" width="12" height="28">
<path d="M269.204 25.6748V43.1737C269.204 40.4154 268.293 38.2427 266.472 36.6555C264.65 35.0684 261.924 34.2835 258.292 34.301V16.7759C261.935 16.7759 264.669 17.5695 266.494 19.1566C268.32 20.7438 269.223 22.9165 269.204 25.6748Z" fill="white"/>
</mask>
<g mask="url(#mask3_259_1773)">
<path d="M269.204 25.6748V43.1737C269.204 40.4154 268.293 38.2427 266.472 36.6555C264.65 35.0684 261.924 34.2835 258.292 34.301V16.7759C261.935 16.7759 264.669 17.5695 266.494 19.1566C268.32 20.7438 269.23 22.9165 269.227 25.6748" fill="#507E2C"/>
<path d="M269.204 25.6748V43.1737C269.204 40.4154 268.293 38.2427 266.472 36.6555C264.65 35.0684 261.924 34.2835 258.292 34.301V16.7759C261.935 16.7759 264.669 17.5695 266.494 19.1566C268.32 20.7438 269.23 22.9165 269.227 25.6748" stroke="#507E2C" stroke-linecap="round" stroke-linejoin="round"/>
</g>
<path d="M269.204 25.6748V43.1737C269.204 40.4154 268.293 38.2427 266.472 36.6555C264.65 35.0684 261.924 34.2835 258.292 34.301V16.7759C261.935 16.7759 264.669 17.5695 266.494 19.1566C268.32 20.7438 269.223 22.9165 269.204 25.6748Z" stroke="#507E2C" stroke-linecap="round" stroke-linejoin="round"/>
<path d="M289.459 24.9512V42.4501C289.516 47.1159 287.897 51.6664 284.858 55.3815C281.791 59.1746 277.275 61.8647 271.31 63.4519V45.953C277.286 44.3693 281.802 41.6792 284.858 37.8826C287.897 34.1675 289.516 29.617 289.459 24.9512Z" fill="#507E2C"/>
<mask id="mask4_259_1773" style="mask-type:luminance" maskUnits="userSpaceOnUse" x="271" y="24" width="19" height="40">
<path d="M289.459 24.9512V42.4501C289.516 47.1159 287.897 51.6664 284.858 55.3815C281.791 59.1746 277.275 61.8647 271.31 63.4519V45.953C277.286 44.3693 281.802 41.6792 284.858 37.8826C287.897 34.1675 289.516 29.617 289.459 24.9512Z" fill="white"/>
</mask>
<g mask="url(#mask4_259_1773)">
<path d="M289.459 24.9512V42.4501C289.476 45.0535 288.987 47.6384 288.014 50.08V32.5811C288.987 30.1395 289.476 27.5546 289.459 24.9512Z" fill="#507E2C" stroke="#507E2C" stroke-linecap="round" stroke-linejoin="round"/>
<path d="M288.014 32.5806V50.0795C287.283 51.8734 286.294 53.5669 285.073 55.1136V37.6147C286.294 36.068 287.283 34.3745 288.014 32.5806Z" fill="#507E2C" stroke="#507E2C" stroke-linecap="round" stroke-linejoin="round"/>
<path d="M285.072 37.6147V55.1137L284.858 55.3811C283.802 56.685 282.575 57.8617 281.206 58.884V41.3851C282.575 40.3628 283.802 39.1861 284.858 37.8822L285.072 37.6147Z" fill="#507E2C" stroke="#507E2C" stroke-linecap="round" stroke-linejoin="round"/>
<path d="M281.206 41.3853V58.8842C278.261 61.0132 274.884 62.5668 271.276 63.4516V45.9527C274.876 45.0653 278.245 43.5118 281.183 41.3853" fill="#507E2C"/>
<path d="M281.206 41.3853V58.8842C278.261 61.0132 274.884 62.5668 271.276 63.4516V45.9527C274.876 45.0653 278.245 43.5118 281.183 41.3853" stroke="#507E2C" stroke-linecap="round" stroke-linejoin="round"/>
</g>
<path d="M289.459 24.9512V42.4501C289.516 47.1159 287.897 51.6664 284.858 55.3815C281.791 59.1746 277.275 61.8648 271.31 63.4519V45.953C277.286 44.3693 281.802 41.6792 284.858 37.8826C287.897 34.1675 289.516 29.617 289.459 24.9512Z" stroke="#507E2C" stroke-linecap="round" stroke-linejoin="round"/>
<path d="M250.705 47.3008H245.935V64.7997H250.705V47.3008Z" fill="#507E2C" stroke="#507E2C" stroke-linecap="round" stroke-linejoin="round"/>
<path d="M245.929 74.7104H226.03V92.2093H245.929V74.7104Z" fill="#507E2C" stroke="#507E2C" stroke-linecap="round" stroke-linejoin="round"/>
<path d="M267.691 74.7105V92.2094L250.705 64.7943V47.2954L267.691 74.7105Z" fill="#507E2C" stroke="#507E2C" stroke-linecap="round" stroke-linejoin="round"/>
<path d="M290.153 74.7104H267.691V92.2093H290.153V74.7104Z" fill="#507E2C" stroke="#507E2C" stroke-linecap="round" stroke-linejoin="round"/>
<path d="M271.276 45.9004L290.153 74.6789H267.691L250.705 47.2481H245.935V74.6789H226.03V2.03516H259.421C265.856 2.03516 271.345 3.03499 275.888 5.03467C280.43 7.03434 283.817 9.7769 286.049 13.2624C288.314 16.7757 289.487 20.8036 289.436 24.8986C289.494 29.5644 287.875 34.1149 284.835 37.83C281.787 41.6196 277.267 44.3097 271.276 45.9004ZM266.449 32.3449C268.274 30.7613 269.185 28.5204 269.181 25.6222C269.181 22.8639 268.271 20.6912 266.449 19.1041C264.628 17.5169 261.909 16.7233 258.292 16.7233H245.935V34.7256H258.292C261.935 34.7256 264.669 33.9321 266.494 32.3449" fill="white"/>
<path d="M266.449 32.3449C268.274 30.7613 269.185 28.5204 269.181 25.6222C269.181 22.8639 268.271 20.6912 266.449 19.1041C264.628 17.5169 261.909 16.7233 258.292 16.7233H245.935V34.7256H258.292C261.935 34.7256 264.669 33.9321 266.494 32.3449M271.276 45.9004L290.153 74.6789H267.691L250.705 47.2481H245.935V74.6789H226.03V2.03516H259.421C265.856 2.03516 271.345 3.03499 275.888 5.03467C280.43 7.03434 283.817 9.7769 286.049 13.2624C288.314 16.7757 289.487 20.8036 289.436 24.8986C289.494 29.5644 287.875 34.1149 284.835 37.83C281.787 41.6196 277.267 44.3097 271.276 45.9004Z" stroke="#507E2C" stroke-linecap="round" stroke-linejoin="round"/>
<path d="M385.352 16.2617H363.703V33.7606H385.352V16.2617Z" fill="#507E2C" stroke="#507E2C" stroke-linecap="round" stroke-linejoin="round"/>
<path d="M343.798 16.2617H322.155V33.7606H343.798V16.2617Z" fill="#507E2C" stroke="#507E2C" stroke-linecap="round" stroke-linejoin="round"/>
<path d="M363.697 74.7158H343.798V92.2147H363.697V74.7158Z" fill="#507E2C" stroke="#507E2C" stroke-linecap="round" stroke-linejoin="round"/>
<path d="M385.352 2.03516V16.2094H363.703V74.6632H343.798V16.2094H322.155V2.03516H385.352Z" fill="white" stroke="#507E2C" stroke-linecap="round" stroke-linejoin="round"/>
<path d="M445.399 16.2617H415.254V33.7606H445.399V16.2617Z" fill="#507E2C" stroke="#507E2C" stroke-linecap="round" stroke-linejoin="round"/>
<path d="M441.904 44.6055H415.254V62.1044H441.904V44.6055Z" fill="#507E2C" stroke="#507E2C" stroke-linecap="round" stroke-linejoin="round"/>
<path d="M445.399 74.7158H395.355V92.2147H445.399V74.7158Z" fill="#507E2C" stroke="#507E2C" stroke-linecap="round" stroke-linejoin="round"/>
<path d="M445.399 2.03516V16.2094H415.254V30.8976H441.905V44.5527H415.254V60.4837H445.399V74.6632H395.355V2.03516H445.399Z" fill="white" stroke="#507E2C" stroke-linecap="round" stroke-linejoin="round"/>
<path d="M504.046 48.2292V65.7281L493.918 39.1362V21.6426L504.046 48.2292Z" fill="#507E2C" stroke="#507E2C" stroke-linecap="round" stroke-linejoin="round"/>
<path d="M493.919 21.6426V39.1362L483.91 65.7281V48.2292L493.919 21.6426Z" fill="#507E2C" stroke="#507E2C" stroke-linecap="round" stroke-linejoin="round"/>
<path d="M509.172 61.8843H478.683V79.3832H509.172V61.8843Z" fill="#507E2C" stroke="#507E2C" stroke-linecap="round" stroke-linejoin="round"/>
<path d="M478.677 61.8843V79.3832L473.794 92.2098V74.7109L478.677 61.8843Z" fill="#507E2C" stroke="#507E2C" stroke-linecap="round" stroke-linejoin="round"/>
<path d="M473.794 74.7104H452.958V92.2093H473.794V74.7104Z" fill="#507E2C" stroke="#507E2C" stroke-linecap="round" stroke-linejoin="round"/>
<path d="M514.055 74.7109V92.2098L509.166 79.3832V61.8843L514.055 74.7109Z" fill="#507E2C" stroke="#507E2C" stroke-linecap="round" stroke-linejoin="round"/>
<path d="M535.117 74.7104H514.055V92.2093H535.117V74.7104Z" fill="#507E2C" stroke="#507E2C" stroke-linecap="round" stroke-linejoin="round"/>
<path d="M505.548 2.03516L535.122 74.6789H514.055L509.166 61.8471H478.683L473.794 74.6789H452.958L482.516 2.03516H505.548ZM483.904 48.1815H504.035L493.913 21.5949L483.904 48.1815Z" fill="white" stroke="#507E2C" stroke-linecap="round" stroke-linejoin="round"/>
<path d="M636.599 74.7158H616.7V92.2147H636.599V74.7158Z" fill="#507E2C" stroke="#507E2C" stroke-linecap="round" stroke-linejoin="round"/>
<path d="M616.7 31.1548V48.6537L598.427 92.2095V74.7106L616.7 31.1548Z" fill="#507E2C" stroke="#507E2C" stroke-linecap="round" stroke-linejoin="round"/>
<path d="M598.432 74.7158H582.372V92.2147H598.432V74.7158Z" fill="#507E2C" stroke="#507E2C" stroke-linecap="round" stroke-linejoin="round"/>
<path d="M582.372 74.7105V92.2094L563.98 48.5487V31.0498L582.372 74.7105Z" fill="#507E2C" stroke="#507E2C" stroke-linecap="round" stroke-linejoin="round"/>
<path d="M563.98 74.7158H544.081V92.2147H563.98V74.7158Z" fill="#507E2C" stroke="#507E2C" stroke-linecap="round" stroke-linejoin="round"/>
<path d="M636.599 2.03516V74.6632H616.7V31.1021L598.426 74.6632H582.372L563.98 31.0025V74.6632H544.081V2.03516H567.587L590.512 52.3137L613.211 2.03516H636.599Z" fill="white" stroke="#507E2C" stroke-linecap="round" stroke-linejoin="round"/>
<mask id="mask5_259_1773" style="mask-type:alpha" maskUnits="userSpaceOnUse" x="0" y="2" width="668" height="117">
<path d="M289.834 63.0061C132.495 45.6161 31.0536 93.0246 0 118.903H667.653V2.96924C607.271 30.2274 447.172 80.3962 289.834 63.0061Z" fill="#D9D9D9"/>
</mask>
<g mask="url(#mask5_259_1773)">
<path d="M112.683 38.1308V55.6297C112.683 49.2146 110.724 44.0931 106.806 40.265C102.888 36.437 97.6703 34.5229 91.1521 34.5229C84.5586 34.5229 79.3049 36.4212 75.391 40.2178C71.477 44.0144 69.5163 49.1517 69.5088 55.6297V38.1308C69.5088 31.6493 71.4695 26.5068 75.391 22.7032C79.3125 18.8996 84.5662 17.0066 91.1521 17.024C97.6741 17.024 102.892 18.9381 106.806 22.7661C110.72 26.5942 112.679 31.7157 112.683 38.1308Z" fill="#507E2C"/>
<mask id="mask6_259_1773" style="mask-type:luminance" maskUnits="userSpaceOnUse" x="69" y="17" width="44" height="39">
<path d="M112.683 38.1308V55.6297C112.683 49.2146 110.724 44.0931 106.806 40.265C102.888 36.437 97.6703 34.5229 91.1521 34.5229C84.5586 34.5229 79.3049 36.4212 75.391 40.2178C71.477 44.0144 69.5163 49.1517 69.5088 55.6297V38.1308C69.5088 31.6493 71.4695 26.5068 75.391 22.7032C79.3125 18.8996 84.5662 17.0066 91.1521 17.024C97.6741 17.024 102.892 18.9381 106.806 22.7661C110.72 26.5942 112.679 31.7157 112.683 38.1308Z" fill="white"/>
</mask>
<g mask="url(#mask6_259_1773)">
<path d="M112.682 38.1306V55.6295C112.682 49.2145 110.724 44.093 106.806 40.2649C102.888 36.4369 97.6703 34.5228 91.1521 34.5228C85.5371 34.5228 80.8949 35.8967 77.2256 38.6445V21.1299C80.8949 18.3926 85.5371 17.0239 91.1521 17.0239C97.674 17.0239 102.892 18.9379 106.806 22.766C110.72 26.594 112.679 31.7156 112.682 38.1306Z" fill="#507E2C" stroke="#507E2C" stroke-linecap="round" stroke-linejoin="round"/>
<path d="M77.2259 21.1304V38.645C76.5777 39.1331 75.963 39.6585 75.3856 40.2182C74.7763 40.8101 74.2123 41.4409 73.6978 42.106V24.6071C74.2149 23.9374 74.7807 23.3014 75.3913 22.7035C75.9671 22.1424 76.5818 21.6169 77.2316 21.1304" fill="#507E2C"/>
<path d="M77.2259 21.1304V38.645C76.5777 39.1331 75.963 39.6585 75.3856 40.2182C74.7763 40.8101 74.2123 41.4409 73.6978 42.106V24.6071C74.2149 23.9374 74.7807 23.3014 75.3913 22.7035C75.9671 22.1424 76.5818 21.6169 77.2316 21.1304" stroke="#507E2C" stroke-linecap="round" stroke-linejoin="round"/>
<path d="M73.6974 24.6069V42.1058C72.6341 43.473 71.774 44.9669 71.1401 46.5474V29.0538C71.7739 27.4716 72.6341 25.9759 73.6974 24.6069Z" fill="#507E2C" stroke="#507E2C" stroke-linecap="round" stroke-linejoin="round"/>
<path d="M71.1233 29.0532V46.5469C70 49.4592 69.4531 52.5362 69.5088 55.6293V38.1304C69.4525 35.0389 69.9995 31.9636 71.1233 29.0532Z" fill="#507E2C" stroke="#507E2C" stroke-linecap="round" stroke-linejoin="round"/>
</g>
<path d="M112.683 38.1308V55.6297C112.683 49.2146 110.724 44.0931 106.806 40.265C102.888 36.437 97.6703 34.5229 91.1521 34.5229C84.5586 34.5229 79.3049 36.4212 75.391 40.2178C71.477 44.0144 69.5163 49.1517 69.5088 55.6297V38.1308C69.5088 31.6493 71.4695 26.5068 75.391 22.7032C79.3125 18.8996 84.5662 17.0066 91.1521 17.024C97.6741 17.024 102.892 18.9381 106.806 22.7661C110.72 26.5942 112.679 31.7157 112.683 38.1308Z" stroke="#507E2C" stroke-linecap="round" stroke-linejoin="round"/>
<path d="M132.937 38.1313V55.6303C133.041 62.2924 131.16 68.8516 127.503 74.5834C123.846 80.3152 118.555 84.9967 112.214 88.111C105.735 91.3151 98.4916 92.9526 91.1521 92.8724C83.7953 92.9468 76.5353 91.3099 70.0338 88.111C63.7526 85.0442 58.4848 80.4517 54.792 74.8229C51.0024 69.0467 49.0457 62.3939 49.1469 55.6303V38.1313C49.0447 44.8952 51.0016 51.5482 54.792 57.324C58.4848 62.9528 63.7526 67.5453 70.0338 70.6121C76.5353 73.811 83.7953 75.4479 91.1521 75.3735C98.4916 75.4537 105.735 73.8162 112.214 70.6121C118.555 67.4978 123.846 62.8163 127.503 57.0845C131.16 51.3527 133.041 44.7935 132.937 38.1313Z" fill="#507E2C"/>
<mask id="mask7_259_1773" style="mask-type:luminance" maskUnits="userSpaceOnUse" x="49" y="38" width="84" height="55">
<path d="M132.937 38.1313V55.6303C133.041 62.2924 131.16 68.8516 127.503 74.5834C123.846 80.3152 118.555 84.9967 112.214 88.111C105.735 91.3151 98.4916 92.9526 91.1521 92.8724C83.7953 92.9468 76.5353 91.3099 70.0338 88.111C63.7526 85.0442 58.4848 80.4517 54.792 74.8229C51.0024 69.0467 49.0457 62.3939 49.1469 55.6303V38.1313C49.0447 44.8952 51.0016 51.5482 54.792 57.324C58.4848 62.9528 63.7526 67.5453 70.0338 70.6121C76.5353 73.811 83.7953 75.4479 91.1521 75.3735C98.4916 75.4537 105.735 73.8162 112.214 70.6121C118.555 67.4978 123.846 62.8163 127.503 57.0845C131.16 51.3527 133.041 44.7935 132.937 38.1313Z" fill="white"/>
</mask>
<g mask="url(#mask7_259_1773)">
<path d="M132.937 38.1313V55.6303C132.976 60.1689 132.129 64.6765 130.436 68.934V51.4351C132.129 47.1775 132.976 42.6699 132.937 38.1313Z" fill="#507E2C" stroke="#507E2C" stroke-linecap="round" stroke-linejoin="round"/>
<path d="M130.436 51.4353V68.9342C129.596 70.9816 128.555 72.9529 127.326 74.8231C126.761 75.7251 126.106 76.6008 125.446 77.4451V59.9357C126.106 59.0966 126.733 58.2209 127.326 57.3137C128.547 55.4427 129.581 53.4715 130.413 51.4248" fill="#507E2C"/>
<path d="M130.436 51.4353V68.9342C129.596 70.9816 128.555 72.9529 127.326 74.8231C126.761 75.7251 126.106 76.6008 125.446 77.4451V59.9357C126.106 59.0966 126.733 58.2209 127.326 57.3137C128.547 55.4427 129.581 53.4715 130.413 51.4248" stroke="#507E2C" stroke-linecap="round" stroke-linejoin="round"/>
<path d="M125.468 59.9355V77.4344C123.474 79.9825 121.126 82.2747 118.485 84.2515V66.7526C121.126 64.7758 123.474 62.4836 125.468 59.9355Z" fill="#507E2C" stroke="#507E2C" stroke-linecap="round" stroke-linejoin="round"/>
<path d="M118.486 66.7526V84.2672C116.529 85.7281 114.43 87.015 112.214 88.111C105.735 91.3151 98.4916 92.9526 91.1521 92.8724C83.7953 92.9468 76.5353 91.3099 70.0338 88.111C63.7526 85.0442 58.4848 80.4517 54.792 74.8229C51.0024 69.0467 49.0457 62.3939 49.1469 55.6303V38.1313C49.0447 44.8952 51.0016 51.5482 54.792 57.324C58.4848 62.9528 63.7526 67.5453 70.0338 70.6121C76.5353 73.811 83.7953 75.4479 91.1521 75.3735C98.4916 75.4537 105.735 73.8162 112.214 70.6121C114.43 69.5111 116.53 68.2189 118.486 66.7526Z" fill="#507E2C" stroke="#507E2C" stroke-linecap="round" stroke-linejoin="round"/>
</g>
<path d="M132.937 38.1313V55.6303C133.041 62.2924 131.16 68.8516 127.503 74.5834C123.846 80.3152 118.555 84.9967 112.214 88.111C105.735 91.3151 98.4916 92.9526 91.1521 92.8724C83.7953 92.9468 76.5353 91.3099 70.0338 88.111C63.7526 85.0442 58.4848 80.4517 54.792 74.8229C51.0024 69.0467 49.0457 62.3939 49.1469 55.6303V38.1313C49.0447 44.8952 51.0016 51.5482 54.792 57.324C58.4848 62.9528 63.7526 67.5453 70.0338 70.6121C76.5353 73.811 83.7953 75.4479 91.1521 75.3735C98.4916 75.4537 105.735 73.8162 112.214 70.6121C118.555 67.4978 123.846 62.8163 127.503 57.0845C131.16 51.3527 133.041 44.7935 132.937 38.1313Z" stroke="#507E2C" stroke-linecap="round" stroke-linejoin="round"/>
<path d="M127.405 18.9385C131.127 24.7171 133.043 31.3451 132.937 38.0787C133.043 44.7455 131.164 51.3098 127.507 57.0471C123.85 62.7843 118.557 67.4714 112.214 70.5909C105.733 73.7908 98.4906 75.4264 91.1519 75.3471C83.7958 75.4208 76.5365 73.7859 70.0335 70.5909C63.7531 67.5207 58.4858 62.9268 54.7918 57.2976C51.0014 51.5217 49.0445 44.8687 49.1467 38.1049C49.0407 31.3572 50.9982 24.72 54.7918 18.9647C58.4996 13.3593 63.7647 8.78539 70.0335 5.72382C76.5339 2.5197 83.7934 0.87573 91.1519 0.941379C98.5098 0.867228 105.771 2.50215 112.276 5.6976C118.529 8.74143 123.762 13.3215 127.405 18.9385ZM106.806 53.3909C110.723 49.5454 112.682 44.4413 112.682 38.0787C112.682 31.6671 110.723 26.5456 106.806 22.7141C102.888 18.8825 97.6701 16.9702 91.1519 16.9772C84.5584 16.9772 79.3047 18.8738 75.3908 22.6669C71.4768 26.46 69.5161 31.5972 69.5086 38.0787C69.5086 44.4937 71.4674 49.6135 75.3851 53.4381C79.3028 57.2626 84.5584 59.1854 91.1519 59.2064C97.6739 59.2064 102.892 57.2836 106.806 53.4381" fill="#F3E6E6"/>
<path d="M106.806 53.3909C110.723 49.5454 112.682 44.4413 112.682 38.0787C112.682 31.6671 110.723 26.5456 106.806 22.7141C102.888 18.8825 97.6701 16.9702 91.1519 16.9772C84.5584 16.9772 79.3047 18.8738 75.3908 22.6669C71.4768 26.46 69.5161 31.5972 69.5086 38.0787C69.5086 44.4937 71.4674 49.6135 75.3851 53.4381C79.3028 57.2626 84.5584 59.1854 91.1519 59.2064C97.6739 59.2064 102.892 57.2836 106.806 53.4381M127.405 18.9385C131.127 24.7171 133.043 31.3451 132.937 38.0787C133.043 44.7455 131.164 51.3098 127.507 57.0471C123.85 62.7843 118.557 67.4714 112.214 70.5909C105.733 73.7908 98.4906 75.4264 91.1519 75.3471C83.7958 75.4208 76.5365 73.7859 70.0335 70.5909C63.7531 67.5207 58.4858 62.9268 54.7918 57.2976C51.0014 51.5217 49.0445 44.8687 49.1467 38.1049C49.0407 31.3572 50.9982 24.72 54.7918 18.9647C58.4996 13.3593 63.7647 8.78539 70.0335 5.72382C76.5339 2.5197 83.7934 0.87573 91.1519 0.941379C98.5098 0.867228 105.771 2.50215 112.276 5.6976C118.529 8.74143 123.762 13.3215 127.405 18.9385Z" stroke="#507E2C" stroke-linecap="round" stroke-linejoin="round"/>
<path d="M212.064 45.373V62.8719C212.064 69.3604 210.514 74.842 207.413 79.3168C204.38 83.7453 200.037 87.2667 194.903 89.4585C189.413 91.7833 183.436 92.9491 177.403 92.8723C170.96 92.8723 165.2 91.7519 160.124 89.511C155.109 87.3247 150.913 83.7945 148.077 79.3745C145.13 74.8613 143.657 69.3604 143.657 62.8719V45.373C143.657 51.858 145.13 57.3589 148.077 61.8756C150.914 66.2855 155.102 69.8093 160.107 71.9963C165.187 74.2372 170.947 75.3559 177.386 75.3524C183.419 75.4292 189.396 74.2634 194.886 71.9387C200.019 69.7483 204.362 66.2287 207.396 61.8022C210.512 57.3344 212.068 51.858 212.064 45.373Z" fill="#507E2C"/>
<mask id="mask8_259_1773" style="mask-type:luminance" maskUnits="userSpaceOnUse" x="143" y="45" width="70" height="48">
<path d="M212.064 45.373V62.8719C212.064 69.3604 210.514 74.842 207.413 79.3168C204.38 83.7453 200.037 87.2667 194.903 89.4585C189.413 91.7833 183.436 92.9491 177.403 92.8723C170.96 92.8723 165.2 91.7519 160.124 89.511C155.109 87.3247 150.913 83.7945 148.077 79.3745C145.13 74.8613 143.657 69.3604 143.657 62.8719V45.373C143.657 51.858 145.13 57.3589 148.077 61.8756C150.914 66.2855 155.102 69.8093 160.107 71.9963C165.187 74.2372 170.947 75.3559 177.386 75.3524C183.419 75.4292 189.396 74.2634 194.886 71.9387C200.019 69.7483 204.362 66.2287 207.396 61.8022C210.512 57.3344 212.068 51.858 212.064 45.373Z" fill="white"/>
</mask>
<g mask="url(#mask8_259_1773)">
<path d="M212.064 45.373V62.8719C212.132 66.8533 211.424 70.8131 209.975 74.5606V57.0669C211.423 53.3175 212.131 49.356 212.064 45.373Z" fill="#507E2C" stroke="#507E2C" stroke-linecap="round" stroke-linejoin="round"/>
<path d="M209.976 57.0669V74.5606C209.305 76.226 208.446 77.8204 207.413 79.3168C207.08 79.794 206.741 80.2607 206.385 80.7117V63.2127C206.741 62.7618 207.08 62.2951 207.413 61.8231C208.444 60.3256 209.303 58.7314 209.976 57.0669Z" fill="#507E2C" stroke="#507E2C" stroke-linecap="round" stroke-linejoin="round"/>
<path d="M206.385 63.2129V80.7118C204.873 82.6479 203.093 84.39 201.09 85.8928V68.3939C203.093 66.8911 204.873 65.149 206.385 63.2129Z" fill="#507E2C" stroke="#507E2C" stroke-linecap="round" stroke-linejoin="round"/>
<path d="M201.09 68.3938V85.8927C199.184 87.3114 197.099 88.5088 194.881 89.4585C189.39 91.7833 183.414 92.9491 177.381 92.8723C170.938 92.8723 165.178 91.7519 160.101 89.511C155.086 87.3247 150.891 83.7945 148.054 79.3745C145.108 74.8613 143.634 69.3604 143.634 62.8719V45.373C143.634 51.858 145.108 57.3589 148.054 61.8756C150.897 66.2887 155.094 69.8127 160.107 71.9963C165.187 74.2372 170.947 75.3559 177.386 75.3524C183.419 75.4292 189.396 74.2634 194.886 71.9387C197.104 70.9889 199.19 69.7915 201.096 68.3728" fill="#507E2C"/>
<path d="M201.09 68.3938V85.8927C199.184 87.3114 197.099 88.5088 194.881 89.4585C189.39 91.7833 183.414 92.9491 177.381 92.8723C170.938 92.8723 165.178 91.7519 160.101 89.511C155.086 87.3247 150.891 83.7945 148.054 79.3745C145.108 74.8613 143.634 69.3604 143.634 62.8719V45.373C143.634 51.858 145.108 57.3589 148.054 61.8756C150.897 66.2887 155.094 69.8127 160.107 71.9963C165.187 74.2372 170.947 75.3559 177.386 75.3524C183.419 75.4292 189.396 74.2634 194.886 71.9387C197.104 70.9889 199.19 69.7915 201.096 68.3728" stroke="#507E2C" stroke-linecap="round" stroke-linejoin="round"/>
</g>
<path d="M212.064 45.373V62.8719C212.064 69.3604 210.514 74.842 207.413 79.3168C204.38 83.7453 200.037 87.2667 194.903 89.4585C189.413 91.7833 183.436 92.9491 177.403 92.8723C170.96 92.8723 165.2 91.7519 160.124 89.511C155.109 87.3247 150.913 83.7945 148.077 79.3745C145.13 74.8613 143.657 69.3604 143.657 62.8719V45.373C143.657 51.858 145.13 57.3589 148.077 61.8756C150.914 66.2855 155.102 69.8093 160.107 71.9963C165.187 74.2372 170.947 75.3559 177.386 75.3524C183.419 75.4292 189.396 74.2634 194.886 71.9387C200.019 69.7483 204.362 66.2287 207.396 61.8022C210.512 57.3344 212.068 51.858 212.064 45.373Z" stroke="#507E2C" stroke-linecap="round" stroke-linejoin="round"/>
<path d="M212.064 1.97412V45.3202C212.064 51.8087 210.514 57.292 207.413 61.7703C204.379 66.1968 200.036 69.7164 194.903 71.9068C189.413 74.2315 183.436 75.3974 177.403 75.3206C170.96 75.3206 165.2 74.2019 160.124 71.9645C155.109 69.7761 150.913 66.2441 148.077 61.8228C145.13 57.3095 143.657 51.8087 143.657 45.3202V1.97412H163.556V45.4251C163.556 49.7671 164.758 53.1109 167.163 55.4567C169.568 57.8025 173.098 58.9753 177.753 58.9753C182.405 58.9753 185.98 57.8025 188.479 55.4567C190.978 53.1109 192.22 49.7671 192.205 45.4251V1.97412H212.064Z" fill="#F3E6E6" stroke="#507E2C" stroke-linecap="round" stroke-linejoin="round"/>
<path d="M258.269 16.7148H245.935V34.2137H258.269V16.7148Z" fill="#507E2C" stroke="#507E2C" stroke-linecap="round" stroke-linejoin="round"/>
<path d="M269.204 25.6137V43.1126C269.204 40.3544 268.293 38.1816 266.472 36.5945C264.65 35.0073 261.924 34.2225 258.292 34.24V16.7148C261.935 16.7148 264.669 17.5084 266.494 19.0956C268.32 20.6827 269.223 22.8555 269.204 25.6137Z" fill="#507E2C"/>
<mask id="mask9_259_1773" style="mask-type:luminance" maskUnits="userSpaceOnUse" x="258" y="16" width="12" height="28">
<path d="M269.204 25.6137V43.1126C269.204 40.3544 268.293 38.1816 266.472 36.5945C264.65 35.0073 261.924 34.2225 258.292 34.24V16.7148C261.935 16.7148 264.669 17.5084 266.494 19.0956C268.32 20.6827 269.223 22.8555 269.204 25.6137Z" fill="white"/>
</mask>
<g mask="url(#mask9_259_1773)">
<path d="M269.204 25.6137V43.1126C269.204 40.3544 268.293 38.1816 266.472 36.5945C264.65 35.0073 261.924 34.2225 258.292 34.24V16.7148C261.935 16.7148 264.669 17.5084 266.494 19.0956C268.32 20.6827 269.23 22.8555 269.227 25.6137" fill="#507E2C"/>
<path d="M269.204 25.6137V43.1126C269.204 40.3544 268.293 38.1816 266.472 36.5945C264.65 35.0073 261.924 34.2225 258.292 34.24V16.7148C261.935 16.7148 264.669 17.5084 266.494 19.0956C268.32 20.6827 269.23 22.8555 269.227 25.6137" stroke="#507E2C" stroke-linecap="round" stroke-linejoin="round"/>
</g>
<path d="M269.204 25.6137V43.1126C269.204 40.3544 268.293 38.1816 266.472 36.5945C264.65 35.0073 261.924 34.2225 258.292 34.24V16.7148C261.935 16.7148 264.669 17.5084 266.494 19.0956C268.32 20.6827 269.223 22.8555 269.204 25.6137Z" stroke="#507E2C" stroke-linecap="round" stroke-linejoin="round"/>
<path d="M289.459 24.8901V42.389C289.516 47.0549 287.897 51.6054 284.858 55.3205C281.791 59.1136 277.275 61.8037 271.31 63.3909V45.892C277.286 44.3083 281.802 41.6182 284.858 37.8216C287.897 34.1065 289.516 29.556 289.459 24.8901Z" fill="#507E2C"/>
<mask id="mask10_259_1773" style="mask-type:luminance" maskUnits="userSpaceOnUse" x="271" y="24" width="19" height="40">
<path d="M289.459 24.8901V42.389C289.516 47.0549 287.897 51.6054 284.858 55.3205C281.791 59.1136 277.275 61.8037 271.31 63.3909V45.892C277.286 44.3083 281.802 41.6182 284.858 37.8216C287.897 34.1065 289.516 29.556 289.459 24.8901Z" fill="white"/>
</mask>
<g mask="url(#mask10_259_1773)">
<path d="M289.459 24.8901V42.389C289.476 44.9925 288.987 47.5774 288.014 50.0189V32.52C288.987 30.0785 289.476 27.4936 289.459 24.8901Z" fill="#507E2C" stroke="#507E2C" stroke-linecap="round" stroke-linejoin="round"/>
<path d="M288.014 32.5195V50.0184C287.283 51.8124 286.294 53.5059 285.073 55.0526V37.5537C286.294 36.007 287.283 34.3135 288.014 32.5195Z" fill="#507E2C" stroke="#507E2C" stroke-linecap="round" stroke-linejoin="round"/>
<path d="M285.072 37.5537V55.0526L284.858 55.3201C283.802 56.624 282.575 57.8007 281.206 58.823V41.3241C282.575 40.3018 283.802 39.1251 284.858 37.8212L285.072 37.5537Z" fill="#507E2C" stroke="#507E2C" stroke-linecap="round" stroke-linejoin="round"/>
<path d="M281.206 41.3242V58.8231C278.261 60.9521 274.884 62.5058 271.276 63.3906V45.8917C274.876 45.0043 278.245 43.4507 281.183 41.3242" fill="#507E2C"/>
<path d="M281.206 41.3242V58.8231C278.261 60.9521 274.884 62.5058 271.276 63.3906V45.8917C274.876 45.0043 278.245 43.4507 281.183 41.3242" stroke="#507E2C" stroke-linecap="round" stroke-linejoin="round"/>
</g>
<path d="M289.459 24.8901V42.389C289.516 47.0549 287.897 51.6054 284.858 55.3205C281.791 59.1136 277.275 61.8037 271.31 63.3909V45.892C277.286 44.3083 281.802 41.6182 284.858 37.8216C287.897 34.1065 289.516 29.556 289.459 24.8901Z" stroke="#507E2C" stroke-linecap="round" stroke-linejoin="round"/>
<path d="M250.705 47.2397H245.935V64.7386H250.705V47.2397Z" fill="#507E2C" stroke="#507E2C" stroke-linecap="round" stroke-linejoin="round"/>
<path d="M245.929 74.6494H226.03V92.1483H245.929V74.6494Z" fill="#507E2C" stroke="#507E2C" stroke-linecap="round" stroke-linejoin="round"/>
<path d="M267.691 74.6495V92.1484L250.705 64.7333V47.2344L267.691 74.6495Z" fill="#507E2C" stroke="#507E2C" stroke-linecap="round" stroke-linejoin="round"/>
<path d="M290.153 74.6494H267.691V92.1483H290.153V74.6494Z" fill="#507E2C" stroke="#507E2C" stroke-linecap="round" stroke-linejoin="round"/>
<path d="M271.276 45.8394L290.153 74.6179H267.691L250.705 47.187H245.935V74.6179H226.03V1.97412H259.421C265.856 1.97412 271.345 2.97396 275.888 4.97363C280.43 6.97331 283.817 9.71587 286.049 13.2013C288.314 16.7146 289.487 20.7425 289.436 24.8375C289.494 29.5034 287.875 34.0539 284.835 37.769C281.787 41.5586 277.267 44.2487 271.276 45.8394ZM266.449 32.2839C268.274 30.7002 269.185 28.4593 269.181 25.5612C269.181 22.8029 268.271 20.6302 266.449 19.043C264.628 17.4559 261.909 16.6623 258.292 16.6623H245.935V34.6646H258.292C261.935 34.6646 264.669 33.871 266.494 32.2839" fill="#F3E6E6"/>
<path d="M266.449 32.2839C268.274 30.7002 269.185 28.4593 269.181 25.5612C269.181 22.8029 268.271 20.6302 266.449 19.043C264.628 17.4559 261.909 16.6623 258.292 16.6623H245.935V34.6646H258.292C261.935 34.6646 264.669 33.871 266.494 32.2839M271.276 45.8394L290.153 74.6179H267.691L250.705 47.187H245.935V74.6179H226.03V1.97412H259.421C265.856 1.97412 271.345 2.97396 275.888 4.97363C280.43 6.97331 283.817 9.71587 286.049 13.2013C288.314 16.7146 289.487 20.7425 289.436 24.8375C289.494 29.5034 287.875 34.0539 284.835 37.769C281.787 41.5586 277.267 44.2487 271.276 45.8394Z" stroke="#507E2C" stroke-linecap="round" stroke-linejoin="round"/>
<path d="M385.352 16.2007H363.703V33.6996H385.352V16.2007Z" fill="#507E2C" stroke="#507E2C" stroke-linecap="round" stroke-linejoin="round"/>
<path d="M343.798 16.2007H322.155V33.6996H343.798V16.2007Z" fill="#507E2C" stroke="#507E2C" stroke-linecap="round" stroke-linejoin="round"/>
<path d="M363.697 74.6548H343.798V92.1537H363.697V74.6548Z" fill="#507E2C" stroke="#507E2C" stroke-linecap="round" stroke-linejoin="round"/>
<path d="M385.352 1.97412V16.1484H363.703V74.6022H343.798V16.1484H322.155V1.97412H385.352Z" fill="#F3E6E6" stroke="#507E2C" stroke-linecap="round" stroke-linejoin="round"/>
<path d="M445.399 16.2007H415.254V33.6996H445.399V16.2007Z" fill="#507E2C" stroke="#507E2C" stroke-linecap="round" stroke-linejoin="round"/>
<path d="M441.904 44.5444H415.254V62.0433H441.904V44.5444Z" fill="#507E2C" stroke="#507E2C" stroke-linecap="round" stroke-linejoin="round"/>
<path d="M445.399 74.6548H395.355V92.1537H445.399V74.6548Z" fill="#507E2C" stroke="#507E2C" stroke-linecap="round" stroke-linejoin="round"/>
<path d="M445.399 1.97412V16.1484H415.254V30.8366H441.905V44.4917H415.254V60.4227H445.399V74.6022H395.355V1.97412H445.399Z" fill="#F3E6E6" stroke="#507E2C" stroke-linecap="round" stroke-linejoin="round"/>
<path d="M504.046 48.1681V65.667L493.918 39.0752V21.5815L504.046 48.1681Z" fill="#507E2C" stroke="#507E2C" stroke-linecap="round" stroke-linejoin="round"/>
<path d="M493.919 21.5815V39.0752L483.91 65.667V48.1681L493.919 21.5815Z" fill="#507E2C" stroke="#507E2C" stroke-linecap="round" stroke-linejoin="round"/>
<path d="M509.172 61.8228H478.683V79.3217H509.172V61.8228Z" fill="#507E2C" stroke="#507E2C" stroke-linecap="round" stroke-linejoin="round"/>
<path d="M478.677 61.8228V79.3217L473.794 92.1482V74.6493L478.677 61.8228Z" fill="#507E2C" stroke="#507E2C" stroke-linecap="round" stroke-linejoin="round"/>
<path d="M473.794 74.6494H452.958V92.1483H473.794V74.6494Z" fill="#507E2C" stroke="#507E2C" stroke-linecap="round" stroke-linejoin="round"/>
<path d="M514.055 74.6493V92.1482L509.166 79.3217V61.8228L514.055 74.6493Z" fill="#507E2C" stroke="#507E2C" stroke-linecap="round" stroke-linejoin="round"/>
<path d="M535.117 74.6494H514.055V92.1483H535.117V74.6494Z" fill="#507E2C" stroke="#507E2C" stroke-linecap="round" stroke-linejoin="round"/>
<path d="M505.548 1.97412L535.122 74.6179H514.055L509.166 61.7861H478.683L473.794 74.6179H452.958L482.516 1.97412H505.548ZM483.904 48.1205H504.035L493.913 21.5339L483.904 48.1205Z" fill="#F3E6E6" stroke="#507E2C" stroke-linecap="round" stroke-linejoin="round"/>
<path d="M636.599 74.6548H616.7V92.1537H636.599V74.6548Z" fill="#507E2C" stroke="#507E2C" stroke-linecap="round" stroke-linejoin="round"/>
<path d="M616.7 31.0938V48.5927L598.427 92.1485V74.6496L616.7 31.0938Z" fill="#507E2C" stroke="#507E2C" stroke-linecap="round" stroke-linejoin="round"/>
<path d="M598.432 74.6548H582.372V92.1537H598.432V74.6548Z" fill="#507E2C" stroke="#507E2C" stroke-linecap="round" stroke-linejoin="round"/>
<path d="M582.372 74.6495V92.1484L563.98 48.4877V30.9888L582.372 74.6495Z" fill="#507E2C" stroke="#507E2C" stroke-linecap="round" stroke-linejoin="round"/>
<path d="M563.98 74.6548H544.081V92.1537H563.98V74.6548Z" fill="#507E2C" stroke="#507E2C" stroke-linecap="round" stroke-linejoin="round"/>
<path d="M636.599 1.97412V74.6022H616.7V31.0411L598.426 74.6022H582.372L563.98 30.9414V74.6022H544.081V1.97412H567.587L590.512 52.2527L613.211 1.97412H636.599Z" fill="#F3E6E6" stroke="#507E2C" stroke-linecap="round" stroke-linejoin="round"/>
</g>
</svg>
