<svg width="325" height="314" viewBox="0 0 325 314" fill="none" xmlns="http://www.w3.org/2000/svg">
<path style="mix-blend-mode:screen" opacity="0.3" fill-rule="evenodd" clip-rule="evenodd" d="M124.375 233.765C96.771 211.255 97.5525 215.349 84.3613 194.037C71.17 172.723 52.5 167.077 52.5 143.293C52.5 115.588 103.796 97.1263 117.129 84.3582C130.462 71.5902 166.427 38.8283 196.356 44.9446C226.284 51.0608 235.571 93.7125 246.174 108.002C256.777 122.292 272.258 121.654 280.008 143.156C287.756 164.658 255.184 184.3 243.886 204.042C232.587 223.782 166.506 268.118 124.375 233.765Z" fill="url(#paint0_radial_1108_1825)"/>
<path style="mix-blend-mode:screen" d="M243.523 234.963C288.087 191.893 288.087 122.066 243.523 78.9969C198.959 35.9281 126.709 35.9281 82.1452 78.9969C37.5818 122.066 37.5818 191.893 82.1452 234.963C126.709 278.032 198.959 278.032 243.523 234.963Z" fill="url(#paint1_radial_1108_1825)"/>
<path style="mix-blend-mode:screen" opacity="0.3" fill-rule="evenodd" clip-rule="evenodd" d="M94.4782 218.38C60.0679 193.291 93.9241 171.562 80.5282 128.394C57.4195 53.966 122.412 69.5819 159.645 70.6971C196.876 71.8121 241.283 72.1555 256.501 102.05C271.718 131.945 270.749 188.677 248.345 212.211C225.942 235.745 161.818 267.473 94.4782 218.38Z" fill="url(#paint2_radial_1108_1825)"/>
<path style="mix-blend-mode:screen" opacity="0.3" fill-rule="evenodd" clip-rule="evenodd" d="M66.8279 150.386C64.4325 108.791 103.46 119.749 128.914 81.9999C172.824 16.8881 202.428 74.9335 225.585 103.125C248.743 131.317 277.14 164.326 263.343 194.855C249.547 225.385 204.082 261.302 171.034 259.962C137.984 258.621 71.5026 231.78 66.8279 150.386Z" fill="url(#paint3_radial_1108_1825)"/>
<path style="mix-blend-mode:screen" d="M238.391 232.688C280.12 192.359 280.12 126.971 238.391 86.6417C196.663 46.3122 129.006 46.3121 87.2772 86.6417C45.5482 126.971 45.5482 192.359 87.2772 232.688C129.006 273.017 196.663 273.017 238.391 232.688Z" fill="url(#paint4_radial_1108_1825)"/>
<path fill-rule="evenodd" clip-rule="evenodd" d="M259.779 159.927C259.795 183.063 250.948 205.384 234.944 222.59C218.941 239.794 196.911 250.664 173.107 253.102L173.088 253.12C170.958 253.337 168.824 253.477 166.661 253.554C165.392 253.616 164.104 253.634 162.814 253.634C143.974 253.636 125.544 248.315 109.791 238.325C108.654 237.635 107.54 236.904 106.435 236.113C104.431 234.739 102.456 233.284 100.584 231.74C90.4947 223.596 82.2294 213.549 76.2928 202.214C72.48 194.983 69.6791 187.295 67.9637 179.35C67.9438 179.33 67.9438 179.312 67.9438 179.27C67.0499 175.149 66.4478 170.972 66.1422 166.772C65.9575 164.517 65.875 162.223 65.875 159.927C65.8841 135.079 76.1012 111.251 94.2809 93.6797C112.46 76.1087 137.115 66.2328 162.826 66.2227C164.954 66.2227 167.039 66.2994 169.129 66.4203C177.348 66.9324 185.466 68.4609 193.283 70.9683C193.323 70.9683 193.342 70.9683 193.363 70.9876C195.738 71.7209 198.029 72.5696 200.321 73.5197C202.027 74.1927 203.677 74.9232 205.335 75.7169C219.814 82.5554 232.305 92.7691 241.682 105.437C251.057 118.105 257.024 132.83 259.044 148.283V148.302C259.538 152.158 259.783 156.042 259.779 159.927Z" fill="url(#paint5_radial_1108_1825)"/>
<path fill-rule="evenodd" clip-rule="evenodd" d="M205.35 75.7056C205.028 75.7334 204.707 75.7774 204.39 75.8374C203.379 76.0158 202.34 75.9489 201.363 75.6425C200.59 75.431 200.035 75.1207 199.212 74.9915C198.032 74.8129 196.938 74.3241 195.765 74.1677C194.521 74.0055 193.443 73.5333 192.266 73.1268C191.34 72.8026 190.846 72.9152 189.962 73.1268C189.078 73.3381 188.447 72.9976 187.657 72.6736C186.768 72.2972 185.875 72.2341 184.932 72.0556C182.477 71.5668 180.038 70.8033 177.6 70.2019C176.088 69.8283 174.691 69.8283 173.144 69.8118C171.934 69.7954 170.84 70.1359 169.629 70.1359C168.856 70.1109 168.085 70.0302 167.325 69.8941C166.5 69.7458 165.662 69.8941 164.838 69.7954C163.61 69.6168 162.954 69.4383 161.712 69.8118C160.785 70.1029 160.065 70.0864 159.138 70.1194C158.059 70.2141 156.99 70.3978 155.944 70.6687C154.091 71.1196 152.188 71.3538 150.278 71.3662C149.141 71.3662 147.453 71.0586 146.359 71.4322C145.651 71.6767 145.299 72.4071 144.81 72.8933C143.869 73.838 142.71 74.6812 141.92 75.7385C141.13 76.7959 140.238 77.8834 140.303 79.2182C140.371 80.3717 140.925 81.7202 141.44 82.7748C141.977 83.8981 142.162 84.9225 140.968 85.6695C139.449 86.6739 137.782 87.4516 136.023 87.9765C134.887 88.3034 133.855 88.4983 132.898 87.7019C132.542 87.4081 132.329 86.8396 131.886 86.6034C131.443 86.3671 130.962 86.6034 130.465 86.7489C129.281 87.1293 128.074 87.4393 126.85 87.6771C126.094 87.7897 125.429 88.1798 124.699 88.3115C123.807 88.4737 123.168 87.8392 122.244 88.0369C120.948 88.3281 119.652 88.8609 118.308 88.9131C117.348 88.9625 116.137 88.556 115.33 88.0891C114.861 87.8282 114.742 87.5673 114.193 87.7129C113.667 87.901 113.206 88.2285 112.863 88.6576C112.545 89.0971 112.426 89.6656 112.108 90.1187C111.772 90.6241 111.451 91.1101 111.15 91.6485C110.6 92.6835 109.968 93.6754 109.257 94.6146C108.754 95.2628 108.405 96.1415 107.837 96.743C107.552 97.0671 106.927 97.2923 106.558 97.5396C105.549 98.2206 104.489 98.8385 103.514 99.5718C101.63 101 99.8484 102.576 97.9303 103.966C96.4696 105.021 94.418 105.639 92.7527 106.306C91.7098 106.712 90.6328 107.004 89.5899 107.427C89.2546 107.556 88.6323 107.701 88.3452 107.946C87.9758 108.256 87.777 108.824 87.4387 109.247C86.5293 110.318 85.5717 111.392 84.8812 112.628C84.4908 113.337 84.1756 114.083 83.9406 114.853C83.5683 115.91 82.98 116.885 82.6106 117.943C81.8547 120.153 81.7042 122.46 80.863 124.655C80.3743 125.937 79.6695 127.11 79.0642 128.28C78.0214 130.263 77.8678 132.619 77.5667 134.814C77.4087 136.15 77.4537 137.502 77.7002 138.826C77.9531 140.177 77.8849 141.573 77.8678 142.946C77.8508 144.41 76.8931 145.84 75.9355 146.945C75.0602 147.969 73.7331 148.36 72.7556 149.267C71.9315 150.051 70.9398 150.943 70.5874 152.048C70.4368 152.536 70.5703 153.088 70.485 153.611C70.2692 154.764 69.965 155.851 69.7974 157.022C69.632 158.44 69.5589 159.869 69.5786 161.298C69.5786 162.027 69.5274 162.775 69.5615 163.494C69.5956 164.214 69.8627 164.843 69.9139 165.541C69.948 166.029 69.8486 166.516 69.9139 167.004C70.0162 167.554 70.235 168.124 70.3686 168.653C70.7039 169.954 70.9568 171.22 71.2211 172.522C71.457 173.725 71.9428 174.911 72.3293 176.092C72.8443 177.696 73.2496 179.329 73.5428 180.984C73.7928 182.219 73.7758 183.502 73.9633 184.754C74.114 185.763 74.3497 186.786 74.3981 187.795C74.4493 189.321 74.0628 190.848 74.0458 192.392C74.0287 194.993 75.1058 197.593 75.728 200.098C75.9127 200.796 76.0974 201.51 76.2964 202.211C68.8284 187.924 65.2712 172.025 65.9637 156.033C66.6562 140.04 71.5753 124.485 80.2523 110.851C88.9292 97.217 101.075 85.9578 115.531 78.1468C129.987 70.3357 146.273 66.2333 162.835 66.2305C164.954 66.2305 167.041 66.2964 169.127 66.4254C181.715 67.1909 194.022 70.3443 205.35 75.7056Z" fill="url(#paint6_linear_1108_1825)"/>
<path style="mix-blend-mode:screen" fill-rule="evenodd" clip-rule="evenodd" d="M105.344 233.11C95.2606 224.954 86.9914 214.908 81.0358 203.578C77.2372 196.34 74.4379 188.652 72.7097 180.709C72.6941 180.686 72.6881 180.657 72.6926 180.629C71.3201 174.267 70.6278 167.785 70.6266 161.286C70.627 148.982 73.1351 136.797 78.0079 125.429C82.8807 114.061 90.0226 103.731 99.0258 95.0308C108.029 86.3303 118.717 79.4289 130.48 74.7206C142.243 70.0122 154.851 67.5892 167.583 67.59C169.702 67.59 171.786 67.6559 173.872 67.7849C180.332 68.1857 186.735 69.2143 192.982 70.8554C185.251 68.4103 177.23 66.9218 169.111 66.4254C167.026 66.2964 164.941 66.2305 162.82 66.2305C150.088 66.2265 137.48 68.6476 125.717 73.3551C113.953 78.0627 103.265 84.9647 94.2626 93.6665C85.2606 102.368 78.121 112.699 73.252 124.069C68.3831 135.439 65.8803 147.625 65.8867 159.929C65.8903 166.427 66.5864 172.909 67.9639 179.27C67.9639 179.303 67.9639 179.336 67.981 179.35C69.707 187.291 72.5054 194.981 76.3044 202.219C82.4591 213.934 91.086 224.273 101.629 232.57C112.172 240.867 124.396 246.936 137.515 250.385C125.746 246.67 114.825 240.805 105.344 233.11Z" fill="url(#paint7_radial_1108_1825)"/>
<path style="mix-blend-mode:screen" d="M148.675 143.923C174.974 128.789 188.155 103.312 178.116 87.0171C168.077 70.7224 138.62 69.7806 112.321 84.9139C86.023 100.047 72.8419 125.524 82.8808 141.819C92.9196 158.114 122.377 159.056 148.675 143.923Z" fill="url(#paint8_radial_1108_1825)"/>
<g opacity="0.5">
<g style="mix-blend-mode:multiply" opacity="0.4">
<path fill-rule="evenodd" clip-rule="evenodd" d="M151.649 185.998C151.627 185.928 151.614 185.855 151.609 185.781C152.177 186.394 152.774 187.006 152.896 187.68C152.359 187.68 151.771 186.512 151.649 185.998Z" fill="url(#paint9_linear_1108_1825)"/>
<path fill-rule="evenodd" clip-rule="evenodd" d="M259.047 148.3V148.282C258.657 147.555 258.199 146.866 257.676 146.224C256.57 144.919 255.261 144.286 253.667 143.772C252.498 143.395 251.149 142.863 250.145 143.753C249.142 144.642 248.344 146.065 247.691 147.174C247.261 147.944 246.605 149.528 245.542 149.703C244.479 149.88 243.21 148.437 242.533 147.807C241.51 146.818 240.998 145.156 239.83 144.365C238.902 143.78 237.916 143.289 236.883 142.901C235.002 142.149 232.997 141.932 231.013 141.803C229.538 141.704 228.557 140.992 227.319 140.399C226.079 139.806 224.494 139.685 223.144 139.43C221.916 139.171 220.751 138.935 219.544 138.677C218.336 138.419 217.191 138.183 216.329 137.274C215.192 136.087 214.405 134.582 213.204 133.495C210.995 131.537 208.416 132.803 205.692 132.803C203.442 132.803 201.644 131.429 199.33 130.924C196.67 130.35 194.42 129.974 192.72 127.722C191.226 125.722 191.655 123.349 190.797 121.155C189.117 116.843 183.019 115.517 178.804 115.281C175.429 115.102 172.336 116.25 169.023 116.33C166.117 116.387 163.641 115.676 161.777 118.167C159.797 120.79 157.761 123.558 156.057 126.307C154.747 128.425 152.845 130.718 152.047 133.151C151.619 134.456 151.698 135.939 151.33 137.271C150.773 139.087 149.901 140.798 148.751 142.333C147.614 143.706 145.642 144.607 144.065 145.397C142.593 146.131 141.652 147.257 140.464 148.366C139.02 149.726 137.704 151.209 136.534 152.796C136.023 153.527 135.656 154.318 134.94 154.892C134.224 155.465 133.445 155.717 132.789 156.265C132.257 156.721 131.848 157.334 131.297 157.789C130.376 158.52 128.984 159.253 127.756 159.31C125.668 159.39 123.724 157.809 121.965 159.824C120.899 161.052 119.652 163.167 119.899 164.79C120.103 166.213 121.351 167.38 122.252 168.489C123.744 170.326 126.733 173.333 126.057 176.004C125.793 177.053 124.92 177.627 125.156 178.75C125.428 179.778 125.573 180.834 125.588 181.894C125.565 182.606 125.258 184.111 125.648 184.762C126.179 185.632 128.145 186.267 129.058 186.64C131.163 187.492 132.883 188.738 134.909 189.747C136.281 190.439 137.139 191.427 138.603 191.884C139.973 192.318 141.223 192.101 142.613 192.359C143.465 192.515 144.477 192.614 145.335 192.831C145.969 193.01 146.543 193.504 147.176 193.655C149.592 194.204 152.576 193.735 155.057 193.735C156.611 193.735 158.37 194.03 159.68 193.24C161.336 192.229 161.726 191.123 161.747 189.245C161.769 187.643 160.824 186.297 160.324 184.734C160.019 183.845 159.833 182.856 159.302 182.104C158.849 181.51 158.276 181.51 157.724 181.133C156.926 180.601 156.722 179.909 155.533 179.712C154.652 179.603 153.761 179.839 153.058 180.366C152.016 181.095 150.132 182.795 150.461 184.122C150.604 184.696 151.095 185.221 151.598 185.769C151.516 185.076 151.905 184.542 152.007 183.79C154.033 184.265 157.06 184.8 158.574 186.363C158.248 187.786 156.367 188.695 155.057 188.737C152.558 188.835 150.245 189.091 148.282 187.362C146.685 185.959 146.543 184.039 145.602 182.241C145.091 181.29 144.701 180.48 143.965 179.728C143.411 179.15 142.917 178.52 142.49 177.849C141.712 176.682 140.873 174.784 142.019 173.636C143.164 172.488 145.579 171.579 146.992 170.807C149.305 169.523 151.72 168.396 154.033 167.111C157.288 165.331 159.904 162.991 163.814 162.716C166.801 162.519 170.669 163.191 173.085 165.032C174.761 166.317 175.11 167.998 175.948 169.778C176.724 171.294 177.861 172.613 179.266 173.623C181.004 174.869 182.845 176.055 184.627 177.281C186.98 178.904 188.739 179.379 190.336 181.851C192.851 185.786 193.917 190.255 195.349 194.608C196.085 196.805 196.536 199.001 197.029 201.271C197.395 202.992 198.358 204.495 198.992 206.136C199.523 207.561 200.21 208.925 201.038 210.21C201.467 210.864 201.939 211.437 202.101 212.228C202.695 215.035 199.87 217.054 198.407 219.112C196.789 221.404 194.997 223.522 194.144 226.23C193.47 228.348 194.289 229.415 194.713 231.332C195.429 234.698 193.832 236.754 191.586 239.066C190.399 240.294 189.132 241.322 187.577 241.975C183.277 243.794 179.473 247.018 176.21 250.201C175.719 251.268 173.917 252.497 173.085 253.089C181.358 252.264 189.486 250.4 197.261 247.544C217.564 240.068 234.686 226.228 245.888 208.235C257.089 190.242 261.722 169.139 259.047 148.3ZM150.897 149.487C150.404 150.693 147.395 151.346 146.25 151.685C145.821 151.804 145.164 152.003 144.775 151.706C143.712 150.882 147.313 148.243 147.294 148.285L146.25 147.79C147.17 147.79 147.438 146.691 148.336 146.722C148.541 146.722 149.382 147.216 149.544 147.334C150.239 147.787 151.283 148.499 150.897 149.487ZM183.454 127.733C182.655 131.984 177.804 134.992 173.897 136.335C171.988 137.011 169.963 137.333 167.929 137.285C166.108 137.266 164.022 137.62 162.26 137.205C159.026 136.433 158.129 134.239 159.191 132.794C158.577 131.273 157.697 129.889 158.435 128.326C159.03 127.17 159.714 126.059 160.482 125.003C161.832 123.025 163.96 122.984 166.127 122.314C170.735 120.87 175.48 119.326 180.004 121.765C182.183 122.965 183.945 125.239 183.454 127.733ZM226.96 215.618C225.158 220.979 220.33 223.431 215.31 225.249C212.61 226.238 210.154 227.584 207.535 228.69C205.795 229.444 204.545 229.918 202.786 229.24C200.433 228.351 199.819 226.218 201.007 224.117C202.357 221.745 205.139 219.745 204.567 216.741C204.166 214.914 204.063 213.039 204.261 211.182C204.57 208.206 204.707 205.214 204.67 202.223C202.68 206.022 202.458 202.837 202.561 200.721C202.644 198.999 203.257 198.071 204.729 197.082C209.766 193.741 216.701 196.983 221.266 199.691C224.13 201.394 226.195 204.361 227.364 207.345C228.432 210.147 227.88 212.875 226.96 215.624V215.618ZM225.363 159.824C223.869 159.923 221.699 158.106 220.697 157.295C219.654 156.443 218.898 155.355 217.974 154.386C217.157 153.536 216.133 152.668 215.499 151.657C214.804 150.511 214.436 149.007 213.966 147.762C213.285 145.863 212.422 144.029 211.388 142.283C210.979 143.508 210.876 142.303 211.876 141.846C212.616 141.512 213.883 141.77 214.641 141.888C216.81 142.283 218.179 143.174 219.654 144.755C221.229 146.436 223.064 147.938 224.607 149.641C225.855 151.044 228.455 153.714 228.514 155.652C228.557 157.043 226.941 159.706 225.363 159.83V159.824Z" fill="url(#paint10_linear_1108_1825)"/>
<path fill-rule="evenodd" clip-rule="evenodd" d="M240.873 104.355C240.021 105.127 238.884 105.621 237.748 106.313C236.909 106.827 236.042 107.895 235.19 108.236C234.021 108.711 232.365 108.255 231.302 107.84C228.642 106.794 226.962 105.824 224.158 106.813C223.28 107.129 222.564 107.088 221.683 107.288C220.967 107.445 220.783 107.821 219.904 107.821C218.245 107.821 216.709 106.297 215.642 105.171C214.352 103.847 213.777 103.825 211.896 103.825C210.137 103.806 208.089 104.3 207.702 106.319C207.23 108.749 210.299 110.609 211.917 111.836C214.27 113.635 211.649 114.11 210.689 115.791C209.729 117.472 211.589 118.362 210.217 119.806C207.557 122.594 201.296 124.651 197.776 122.693C195.321 121.32 194.152 118.738 192.229 116.799C191.146 115.7 189.817 114.822 188.73 113.715C187.114 112.067 185.907 109.87 185.005 107.821C185.858 110.018 184.414 106.912 183.942 104.319C183.737 103.152 184.289 102.383 184.511 101.315C184.736 100.186 184.079 99.7329 183.567 98.843C182.627 97.121 181.092 95.6984 182.524 93.8583C183.415 92.7271 184.408 91.6748 185.492 90.7137C186.577 89.7058 187.702 88.36 189.095 87.6926C189.276 86.8825 186.636 84.4298 186.065 83.7186C184.715 82.0707 183.426 80.1784 181.768 78.7943C181.112 78.245 179.845 77.6656 179.436 76.9349C178.534 75.2733 181.214 73.1971 182.383 72.4062C184.408 71.0329 186.249 70.8242 188.634 70.8242C190.129 70.8435 191.704 70.8626 193.28 70.9615C193.32 70.9615 193.34 70.9615 193.359 70.9808C195.736 71.714 198.026 72.5626 200.32 73.5129C202.024 74.1859 203.676 74.9164 205.332 75.7101C219.382 82.3584 231.567 92.1825 240.854 104.35L240.873 104.355Z" fill="url(#paint11_linear_1108_1825)"/>
<path fill-rule="evenodd" clip-rule="evenodd" d="M212.942 124.297C214.954 124.773 216.936 125.339 218.887 125.994C218.586 126.398 218.809 126.884 219.068 127.17C218.308 127.925 217.353 128.472 216.303 128.757C215.008 129.045 214.471 128.719 213.487 128.169C212.505 127.62 211.317 127.587 211.356 126.31C211.402 124.937 212.795 124.464 213.976 124.297H212.942Z" fill="url(#paint12_linear_1108_1825)"/>
<path fill-rule="evenodd" clip-rule="evenodd" d="M102.742 235.562C103.418 235.939 104.112 236.295 104.808 236.661C103.47 237.003 102.098 237.209 100.716 237.276C100.409 236.01 99.7553 234.625 95.5781 232.23C98.0346 233.198 100.427 234.31 102.742 235.562Z" fill="url(#paint13_linear_1108_1825)"/>
<path fill-rule="evenodd" clip-rule="evenodd" d="M190.183 221.518C189.449 222.805 189.096 224.263 189.159 225.731C189.159 227.134 189.199 228.56 189.159 229.963C189.12 231.903 187.767 233.169 186.581 234.613C185.161 236.332 183.408 237.519 181.711 238.944C180.859 239.674 180.381 240.682 179.603 241.474C178.824 242.265 177.897 242.899 177.25 243.709C176.492 244.678 176.267 245.192 175.224 245.944C174.036 246.769 173.158 247.763 172.097 248.732C170.359 250.315 168.599 252.027 166.675 253.557C165.406 253.619 164.118 253.637 162.828 253.637C143.988 253.639 125.557 248.318 109.805 238.328C110.941 238.604 112.055 238.904 113.184 239.101C114.491 239.34 115.576 239.793 116.804 240.111C118.975 240.705 121.879 240.23 124.13 240.211C127.631 240.211 130.95 240.803 134.383 241.257C136.838 241.594 138.702 241.949 141.137 241.219C143.15 240.648 145.086 239.851 146.906 238.845C150.714 236.69 155.236 236.768 159.205 234.726C160.911 233.855 162.255 232.452 163.914 231.463C164.767 230.968 166.02 230.09 166.94 229.815C167.739 229.556 168.455 229.541 169.272 229.241C171.262 228.507 173.346 228.112 175.312 227.363C177.017 226.728 179.692 225.603 181.04 224.374C182.8 222.793 185.303 220.184 186.053 218.006C186.587 216.504 186.587 215.138 186.587 213.537C186.587 212.864 186.565 212.164 186.587 211.5C186.587 210.629 186.383 210.313 186.178 209.64C185.687 207.959 186.608 207.328 187.031 205.944C187.44 204.678 187.912 203.57 188.239 202.244C188.687 200.483 188.586 199.537 187.995 197.754C187.79 197.08 187.337 196.232 187.215 195.639C187.05 194.966 187.114 194.293 187.071 193.582C187.093 194.433 188.074 196.29 188.361 197.003C188.975 198.446 190.12 199.674 190.202 201.255C190.284 202.758 189.774 204.084 189.427 205.507C189.018 207.111 189.711 208.137 189.671 209.739C189.608 210.408 189.649 211.082 189.793 211.738C189.997 212.529 190.061 213.221 190.222 213.993C190.53 215.278 191.453 216.504 191.759 217.712C192.143 219.206 190.859 220.373 190.183 221.518Z" fill="url(#paint14_linear_1108_1825)"/>
</g>
<path style="mix-blend-mode:multiply" opacity="0.4" fill-rule="evenodd" clip-rule="evenodd" d="M115.49 223.022C115.774 227.848 112.747 231.94 108.923 234.769C108.168 235.329 107.333 235.783 106.445 236.114C104.441 234.741 102.466 233.286 100.593 231.741C90.5044 223.597 82.2393 213.551 76.3025 202.215C72.4858 194.985 69.6811 187.296 67.9621 179.352C67.9422 179.332 67.9422 179.313 67.9422 179.272C67.0483 175.15 66.4462 170.974 66.1406 166.773C66.4674 166.458 66.7942 166.141 67.1437 165.766C67.1011 168.83 68.2803 171.362 69.1897 174.348C69.8661 176.564 70.6618 178.72 71.2358 180.953C71.7075 182.773 72.1167 184.374 73.3244 185.896C74.1002 186.885 74.7964 187.269 75.9417 187.756C76.8225 188.132 77.4989 188.855 78.3769 189.159C80.4147 189.887 82.57 190.259 84.7424 190.258C85.828 190.238 86.3992 190.258 87.3199 190.751C87.9564 191.108 88.5077 191.604 89.1215 191.999C90.5356 192.925 91.8336 194.007 92.989 195.223C94.7481 197.146 94.694 199.809 96.1008 201.927C97.2658 203.707 99.0049 204.262 101.153 204.262C105.416 204.281 109.136 209.106 111.347 212.25C113.404 215.184 115.285 219.482 115.49 223.022Z" fill="url(#paint15_linear_1108_1825)"/>
</g>
<path style="mix-blend-mode:screen" opacity="0.5" fill-rule="evenodd" clip-rule="evenodd" d="M38.0033 115.25C38.0033 115.25 26.7871 160.327 37.3668 171.759C52.6012 188.239 115.355 134.746 183.536 112.034C251.717 89.321 282.024 123.569 287.593 121.352C293.162 119.136 266.392 53.063 173.334 46.694C80.2765 40.3251 52.678 80.2743 38.0033 115.25Z" fill="url(#paint16_linear_1108_1825)"/>
<path style="mix-blend-mode:screen" opacity="0.5" fill-rule="evenodd" clip-rule="evenodd" d="M297.034 149.908C297.034 227.371 222.045 296.452 146.14 289.55C66.3509 282.291 28.6328 228.796 28.6328 151.331C28.6328 73.8664 72.9322 41.5 153.086 41.5C233.239 41.5 297.034 72.4437 297.034 149.908Z" fill="url(#paint17_radial_1108_1825)"/>
<g style="mix-blend-mode:screen" opacity="0.5">
<path d="M156.58 291.008C153.059 291.008 149.553 290.85 146.066 290.533C69.6667 283.588 27.6094 234.15 27.6094 151.333C27.6094 76.7643 68.6522 40.5117 153.086 40.5117C245.217 40.5117 298.058 80.384 298.058 149.91C298.058 188.436 279.78 226.614 247.911 254.651C221.289 278.076 188.527 291.008 156.58 291.008ZM153.086 42.4892C70.0304 42.4892 29.6554 78.0908 29.6554 151.333C29.6554 232.988 71.062 281.725 146.248 288.565C180.852 291.709 217.402 278.817 246.531 253.19C277.978 225.527 296.012 187.881 296.012 149.91C296.012 81.6419 243.918 42.4892 153.086 42.4892Z" fill="url(#paint18_radial_1108_1825)"/>
</g>
<path style="mix-blend-mode:screen" opacity="0.5" fill-rule="evenodd" clip-rule="evenodd" d="M36.2344 128.397C36.2344 128.397 61.662 167.671 111.918 191.727L157.277 160.462C157.277 160.462 126.871 87.6819 123.259 47.8398C123.259 47.8398 40.5254 56.3949 36.2344 128.397Z" fill="url(#paint19_linear_1108_1825)"/>
<path fill-rule="evenodd" clip-rule="evenodd" d="M37.9972 134.255C42.9759 141.121 58.3184 124.574 71.2083 107.272C84.0983 89.9697 91.2366 79.8574 89.4293 69.9868C87.6221 60.1162 58.8299 77.9073 48.5428 91.5158C38.2559 105.124 33.3455 127.845 37.9972 134.255Z" fill="white"/>
<path fill-rule="evenodd" clip-rule="evenodd" d="M38.7153 136.965C38.7153 136.965 32.0117 143.817 35.8509 149.282C39.69 154.747 44.6602 151.024 43.8928 147.101C43.1256 143.179 41.6536 137.646 38.7153 136.965Z" fill="white"/>
<path fill-rule="evenodd" clip-rule="evenodd" d="M227.224 257.793C227.224 257.793 219.141 258.803 213.118 265.507C207.093 272.211 215.91 271.117 220.86 267.156C225.812 263.195 227.258 259.674 227.224 257.793Z" fill="#BFFFFF"/>
<path style="mix-blend-mode:screen" fill-rule="evenodd" clip-rule="evenodd" d="M222.297 266.375C222.297 266.375 163.229 291.496 109.453 268.066C109.453 268.066 147.84 308.686 222.297 266.375Z" fill="url(#paint20_radial_1108_1825)"/>
<path style="mix-blend-mode:screen" fill-rule="evenodd" clip-rule="evenodd" d="M52.5 86.3534C52.5 86.3534 68.6323 56.6593 135.617 46.6953C202.602 36.7314 250.203 66.9611 267.49 82.6732C267.49 82.6732 222.074 47.4561 147.78 53.7124C73.486 59.9687 52.5 86.3534 52.5 86.3534Z" fill="url(#paint21_radial_1108_1825)"/>
<path style="mix-blend-mode:screen" opacity="0.5" fill-rule="evenodd" clip-rule="evenodd" d="M267.5 135.839C269.566 122.154 292.547 116.933 292.547 116.933C290.871 110.503 286.182 101.031 286.182 101.031C286.182 101.031 277.834 102.317 249.981 118.883C222.129 135.449 149.721 197.799 93.2556 203.73C36.7909 209.662 32.8125 194.066 32.8125 194.066L34.6597 200.627C34.6597 200.627 96.7566 218.059 87.9501 230.754C77.2824 246.135 45.7509 229.046 45.7509 229.046L47.5041 232.21C47.5041 232.21 92.8721 251.831 164.884 246.313C236.896 240.795 280.882 211.804 280.882 211.804C293.61 192.108 296.969 152.947 296.969 152.947C296.969 152.947 265.412 149.527 267.5 135.839ZM135.617 223.604C113.614 229.261 89.2518 219.281 88.2287 214.199C86.8788 207.374 148.385 189.458 155.072 189.97C161.757 190.484 166.856 215.575 135.617 223.604ZM259.868 142.859C267.237 143.354 277.304 155.493 273.949 160.007C270.593 164.523 258.171 170.832 253.668 166.297C249.163 161.763 251.703 142.332 259.868 142.864V142.859ZM267.49 215.57C254.312 227.061 208.706 236.959 200.425 232.21C190.09 226.297 265.699 161.353 281.193 163.237C296.685 165.121 280.69 204.104 267.49 215.575V215.57Z" fill="url(#paint22_linear_1108_1825)"/>
<path style="mix-blend-mode:screen" opacity="0.5" fill-rule="evenodd" clip-rule="evenodd" d="M70.2344 260C70.2344 260 91.8598 274.476 165.875 267.225C239.89 259.975 269.685 229.43 269.685 229.43L261.498 239.608C261.498 239.608 243.675 251.654 219.066 260.735C194.457 269.819 145.79 269.286 135.613 288.282C135.613 288.282 95.2926 282.41 70.2344 260Z" fill="url(#paint23_linear_1108_1825)"/>
<defs>
<radialGradient id="paint0_radial_1108_1825" cx="0" cy="0" r="1" gradientUnits="userSpaceOnUse" gradientTransform="translate(167.725 181.028) scale(168.476 162.826)">
<stop stop-color="#31D1F9"/>
<stop offset="1"/>
</radialGradient>
<radialGradient id="paint1_radial_1108_1825" cx="0" cy="0" r="1" gradientUnits="userSpaceOnUse" gradientTransform="translate(162.833 156.979) scale(114.112 110.285)">
<stop stop-color="#31D1F9"/>
<stop offset="1"/>
</radialGradient>
<radialGradient id="paint2_radial_1108_1825" cx="0" cy="0" r="1" gradientUnits="userSpaceOnUse" gradientTransform="translate(171.949 187.433) scale(142.239 137.468)">
<stop stop-color="#31D1F9"/>
<stop offset="1"/>
</radialGradient>
<radialGradient id="paint3_radial_1108_1825" cx="0" cy="0" r="1" gradientTransform="matrix(91.8262 104.98 -108.241 89.1833 132.934 217.328)" gradientUnits="userSpaceOnUse">
<stop stop-color="#31D1F9"/>
<stop offset="1"/>
</radialGradient>
<radialGradient id="paint4_radial_1108_1825" cx="0" cy="0" r="1" gradientUnits="userSpaceOnUse" gradientTransform="translate(162.833 159.665) scale(106.854 103.27)">
<stop stop-color="#FFFFF9"/>
<stop offset="0.09" stop-color="#F9F9F3"/>
<stop offset="0.22" stop-color="#E8E8E3"/>
<stop offset="0.36" stop-color="#CCCCC7"/>
<stop offset="0.52" stop-color="#A5A5A1"/>
<stop offset="0.68" stop-color="#737370"/>
<stop offset="0.86" stop-color="#373736"/>
<stop offset="1"/>
</radialGradient>
<radialGradient id="paint5_radial_1108_1825" cx="0" cy="0" r="1" gradientUnits="userSpaceOnUse" gradientTransform="translate(115.611 102.423) scale(162.526 157.076)">
<stop offset="0.01" stop-color="#B1FFFF"/>
<stop offset="0.29" stop-color="#B1FDFF"/>
<stop offset="0.44" stop-color="#AFF5FF"/>
<stop offset="0.55" stop-color="#ACE8FF"/>
<stop offset="0.62" stop-color="#A9DBFF"/>
<stop offset="0.65" stop-color="#A2D7FE"/>
<stop offset="0.7" stop-color="#8FCAFC"/>
<stop offset="0.76" stop-color="#6FB5F9"/>
<stop offset="0.82" stop-color="#4399F4"/>
<stop offset="0.89" stop-color="#0C75EE"/>
<stop offset="0.91" stop-color="#006DED"/>
</radialGradient>
<linearGradient id="paint6_linear_1108_1825" x1="65.8873" y1="134.226" x2="205.35" y2="134.226" gradientUnits="userSpaceOnUse">
<stop offset="0.01" stop-color="#B0E1FF"/>
<stop offset="0.29" stop-color="#ADDEFF"/>
<stop offset="0.5" stop-color="#A5D5FF"/>
<stop offset="0.68" stop-color="#98C5FF"/>
<stop offset="0.85" stop-color="#85AEFF"/>
<stop offset="1" stop-color="#6D93FF"/>
</linearGradient>
<radialGradient id="paint7_radial_1108_1825" cx="0" cy="0" r="1" gradientUnits="userSpaceOnUse" gradientTransform="translate(91.9878 96.1525) scale(127.607 123.327)">
<stop stop-color="#FFFFD9"/>
<stop offset="1"/>
</radialGradient>
<radialGradient id="paint8_radial_1108_1825" cx="0" cy="0" r="1" gradientTransform="matrix(47.7038 -27.4507 18.0855 29.6047 130.03 114.509)" gradientUnits="userSpaceOnUse">
<stop stop-color="white"/>
<stop offset="0.17" stop-color="#C5C5C5"/>
<stop offset="0.4" stop-color="#808080"/>
<stop offset="0.6" stop-color="#494949"/>
<stop offset="0.78" stop-color="#212121"/>
<stop offset="0.92" stop-color="#090909"/>
<stop offset="1"/>
</radialGradient>
<linearGradient id="paint9_linear_1108_1825" x1="151.609" y1="186.729" x2="152.896" y2="186.729" gradientUnits="userSpaceOnUse">
<stop stop-color="#E8DDFF"/>
<stop offset="1" stop-color="#AA8AD8"/>
</linearGradient>
<linearGradient id="paint10_linear_1108_1825" x1="119.862" y1="184.176" x2="259.785" y2="184.176" gradientUnits="userSpaceOnUse">
<stop stop-color="#E8DDFF"/>
<stop offset="1" stop-color="#AA8AD8"/>
</linearGradient>
<linearGradient id="paint11_linear_1108_1825" x1="179.279" y1="97.1457" x2="240.873" y2="97.1457" gradientUnits="userSpaceOnUse">
<stop stop-color="#E8DDFF"/>
<stop offset="1" stop-color="#AA8AD8"/>
</linearGradient>
<linearGradient id="paint12_linear_1108_1825" x1="211.356" y1="126.579" x2="219.068" y2="126.579" gradientUnits="userSpaceOnUse">
<stop stop-color="#E8DDFF"/>
<stop offset="1" stop-color="#AA8AD8"/>
</linearGradient>
<linearGradient id="paint13_linear_1108_1825" x1="95.5781" y1="234.741" x2="104.808" y2="234.741" gradientUnits="userSpaceOnUse">
<stop stop-color="#E8DDFF"/>
<stop offset="1" stop-color="#AA8AD8"/>
</linearGradient>
<linearGradient id="paint14_linear_1108_1825" x1="109.799" y1="223.606" x2="191.831" y2="223.606" gradientUnits="userSpaceOnUse">
<stop stop-color="#E8DDFF"/>
<stop offset="1" stop-color="#AA8AD8"/>
</linearGradient>
<linearGradient id="paint15_linear_1108_1825" x1="66.1519" y1="200.938" x2="115.51" y2="200.938" gradientUnits="userSpaceOnUse">
<stop stop-color="#E8DDFF"/>
<stop offset="1" stop-color="#AA8AD8"/>
</linearGradient>
<linearGradient id="paint16_linear_1108_1825" x1="32.8228" y1="110.438" x2="288.292" y2="110.438" gradientUnits="userSpaceOnUse">
<stop stop-color="#A4FFE8"/>
<stop offset="0.2" stop-color="#78BBAA"/>
<stop offset="0.42" stop-color="#4E796E"/>
<stop offset="0.61" stop-color="#2C453F"/>
<stop offset="0.78" stop-color="#141F1D"/>
<stop offset="0.91" stop-color="#050808"/>
<stop offset="1"/>
</linearGradient>
<radialGradient id="paint17_radial_1108_1825" cx="0" cy="0" r="1" gradientUnits="userSpaceOnUse" gradientTransform="translate(162.836 165.764) scale(131.418 127.01)">
<stop offset="0.89"/>
<stop offset="0.9" stop-color="#000506"/>
<stop offset="0.92" stop-color="#001217"/>
<stop offset="0.94" stop-color="#002932"/>
<stop offset="0.96" stop-color="#004858"/>
<stop offset="0.99" stop-color="#006F89"/>
<stop offset="1" stop-color="#008BAB"/>
</radialGradient>
<radialGradient id="paint18_radial_1108_1825" cx="0" cy="0" r="1" gradientUnits="userSpaceOnUse" gradientTransform="translate(162.834 165.761) scale(132.441 127.999)">
<stop offset="0.89"/>
<stop offset="0.9" stop-color="#000506"/>
<stop offset="0.92" stop-color="#001217"/>
<stop offset="0.94" stop-color="#002932"/>
<stop offset="0.96" stop-color="#004858"/>
<stop offset="0.99" stop-color="#006F89"/>
<stop offset="1" stop-color="#008BAB"/>
</radialGradient>
<linearGradient id="paint19_linear_1108_1825" x1="55.9928" y1="79.3877" x2="160.932" y2="155.417" gradientUnits="userSpaceOnUse">
<stop stop-color="#BDFFE8"/>
<stop offset="0.2" stop-color="#8BBBAA"/>
<stop offset="0.42" stop-color="#5A796E"/>
<stop offset="0.61" stop-color="#33453F"/>
<stop offset="0.78" stop-color="#171F1D"/>
<stop offset="0.91" stop-color="#060808"/>
<stop offset="1"/>
</linearGradient>
<radialGradient id="paint20_radial_1108_1825" cx="0" cy="0" r="1" gradientTransform="matrix(39.7456 -8.23131 8.44856 38.4269 165.475 271.275)" gradientUnits="userSpaceOnUse">
<stop stop-color="#2C63D9"/>
<stop offset="1"/>
</radialGradient>
<radialGradient id="paint21_radial_1108_1825" cx="0" cy="0" r="1" gradientUnits="userSpaceOnUse" gradientTransform="translate(159.996 65.5385) scale(77.5218 74.922)">
<stop stop-color="#2C63D9"/>
<stop offset="1"/>
</radialGradient>
<linearGradient id="paint22_linear_1108_1825" x1="164.893" y1="247.296" x2="164.893" y2="101.031" gradientUnits="userSpaceOnUse">
<stop stop-color="#BDFFE8"/>
<stop offset="0.2" stop-color="#8BBBAA"/>
<stop offset="0.42" stop-color="#5A796E"/>
<stop offset="0.61" stop-color="#33453F"/>
<stop offset="0.78" stop-color="#171F1D"/>
<stop offset="0.91" stop-color="#060808"/>
<stop offset="1"/>
</linearGradient>
<linearGradient id="paint23_linear_1108_1825" x1="70.2344" y1="258.857" x2="269.685" y2="258.857" gradientUnits="userSpaceOnUse">
<stop stop-color="#BDFFE8"/>
<stop offset="0.2" stop-color="#8BBBAA"/>
<stop offset="0.42" stop-color="#5A796E"/>
<stop offset="0.61" stop-color="#33453F"/>
<stop offset="0.78" stop-color="#171F1D"/>
<stop offset="0.91" stop-color="#060808"/>
<stop offset="1"/>
</linearGradient>
</defs>
</svg>
