<svg width="537" height="334" viewBox="0 0 537 334" fill="none" xmlns="http://www.w3.org/2000/svg">
<path d="M386.788 278.501H145.355V72.3273L155.43 53.2891L386.788 72.3273L396.993 259.461L386.788 278.501Z" fill="#7B66AD" stroke="black" stroke-width="3" stroke-miterlimit="10"/>
<path d="M396.994 53.2891H155.562V259.463H396.994V53.2891Z" fill="#7B66AD" stroke="black" stroke-width="3" stroke-miterlimit="10"/>
<path d="M387.516 93.5013H163.633V66.8435L166.352 61.4766L390.433 63.8576V91.239L387.516 93.5013Z" fill="white" stroke="black" stroke-width="3" stroke-miterlimit="10"/>
<path d="M390.43 61.4766H166.547V90.8966H390.43V61.4766Z" fill="white" stroke="black" stroke-width="3" stroke-miterlimit="10"/>
<path d="M419.81 170.593C426.888 170.593 432.627 165.57 432.627 159.375C432.627 153.179 426.888 148.156 419.81 148.156C412.731 148.156 406.992 153.179 406.992 159.375C406.992 165.57 412.731 170.593 419.81 170.593Z" fill="#CECAA5" stroke="black" stroke-width="3" stroke-miterlimit="10"/>
<path d="M386.454 249.275H163.633V102.345L166.296 98.4141L389.117 102.238V245.522L386.454 249.275Z" fill="white" stroke="black" stroke-miterlimit="10"/>
<path d="M389.13 98.4141H166.309V245.341H389.13V98.4141Z" fill="#7B66AD" stroke="black" stroke-miterlimit="10"/>
<path d="M420.345 168.585C427.424 168.585 433.162 163.562 433.162 157.367C433.162 151.171 427.424 146.148 420.345 146.148C413.266 146.148 407.527 151.171 407.527 157.367C407.527 163.562 413.266 168.585 420.345 168.585Z" fill="white" stroke="black" stroke-width="3" stroke-miterlimit="10"/>
<path d="M381.946 182.725C391.383 182.725 399.033 174.016 399.033 163.273C399.033 152.53 391.383 143.82 381.946 143.82C372.509 143.82 364.859 152.53 364.859 163.273C364.859 174.016 372.509 182.725 381.946 182.725Z" fill="#44B97C" stroke="black" stroke-width="3" stroke-miterlimit="10"/>
<path d="M382.38 148.742L398.668 142.591C399.775 142.173 400.851 141.513 401.877 140.624L422.72 122.553C423.727 121.899 425.013 122.677 425.013 123.94V192.248C425.013 193.345 424.019 194.125 423.044 193.792L401.054 182.255C400.498 181.963 399.926 181.786 399.349 181.728L382.702 180.022C382.074 179.808 381.648 179.183 381.648 178.477V150.129C381.652 149.561 381.928 149.036 382.38 148.742Z" fill="#44B97C" stroke="black" stroke-width="3" stroke-miterlimit="10"/>
<path d="M383.713 221.114C378.887 221.114 374.938 216.697 374.938 211.295V170.343C374.938 164.943 378.885 160.523 383.713 160.523C388.539 160.523 392.489 164.941 392.489 170.343V211.295C392.487 216.697 388.539 221.114 383.713 221.114Z" fill="#FCB136" stroke="black" stroke-width="3" stroke-miterlimit="10"/>
<path d="M384.69 220.323C380.524 220.323 377.117 216.511 377.117 211.85V168.208C377.117 163.547 380.524 159.734 384.69 159.734C388.855 159.734 392.262 163.547 392.262 168.208V211.85C392.262 216.511 388.855 220.323 384.69 220.323Z" fill="#EEEA59" stroke="black" stroke-width="3" stroke-miterlimit="10"/>
<path d="M383.353 144.898L399.64 138.747C400.748 138.329 401.824 137.67 402.849 136.781L423.693 118.709C424.699 118.056 425.986 118.834 425.986 120.096V188.404C425.986 189.501 424.992 190.281 424.016 189.948L402.027 178.411C401.471 178.119 400.899 177.942 400.322 177.884L383.675 176.178C383.047 175.964 382.621 175.34 382.621 174.633V146.285C382.625 145.719 382.901 145.192 383.353 144.898Z" fill="#81C343" stroke="black" stroke-width="3" stroke-miterlimit="10"/>
<path d="M382.962 177.823C392.399 177.823 400.049 169.114 400.049 158.371C400.049 147.627 392.399 138.918 382.962 138.918C373.525 138.918 365.875 147.627 365.875 158.371C365.875 169.114 373.525 177.823 382.962 177.823Z" fill="white" stroke="black" stroke-width="3" stroke-miterlimit="10"/>
<path d="M438.776 131.336L441.778 134.291L441.917 136.291L434.36 149.701L431.52 146.525L431.172 144.465L438.776 131.336Z" fill="#FEF168" stroke="black" stroke-width="3" stroke-miterlimit="10"/>
<path d="M438.721 131.336L441.657 134.028L434.101 147.441L431.262 144.262L438.721 131.336Z" fill="#FEF168" stroke="black" stroke-width="3" stroke-miterlimit="10"/>
<path d="M446.95 179.061L446.404 180.922L444.746 182.811L443.924 183.747L432.664 174.126V172.546L435.99 169.469L446.95 179.061Z" fill="#FEF168" stroke="black" stroke-width="3" stroke-miterlimit="10"/>
<path d="M446.857 178.911L444.197 181.942L432.938 172.318L436.02 169.438L446.857 178.911Z" fill="#FEF168" stroke="black" stroke-width="3" stroke-miterlimit="10"/>
<path d="M453.188 156.258L453.164 160.677L452.13 161.821L438.25 162.181L438.391 157.793L439.29 156.476L453.188 156.258Z" fill="#FEF168" stroke="black" stroke-width="3" stroke-miterlimit="10"/>
<path d="M453.22 156.258L453.208 160.475L439.328 160.833L439.471 156.446L453.22 156.258Z" fill="#FEF168" stroke="black" stroke-width="3" stroke-miterlimit="10"/>
<path d="M218.104 85.3704H186.938C186.331 85.3704 185.836 84.816 185.836 84.1371V68.077C185.836 67.3982 186.331 66.8438 186.938 66.8438H218.106C218.713 66.8438 219.208 67.3982 219.208 68.077V84.1371C219.207 84.816 218.711 85.3704 218.104 85.3704Z" fill="#81C343" stroke="black" stroke-width="3" stroke-miterlimit="10"/>
<path d="M219.712 83.8587H188.544C187.937 83.8587 187.441 83.3043 187.441 82.6254V66.5653C187.441 65.8864 187.937 65.332 188.544 65.332H219.712C220.318 65.332 220.814 65.8864 220.814 66.5653V82.6254C220.814 83.3043 220.318 83.8587 219.712 83.8587Z" fill="#81C343" stroke="black" stroke-width="3" stroke-miterlimit="10"/>
<path d="M273.88 84.6165H242.712C242.105 84.6165 241.609 84.0621 241.609 83.3832V67.3231C241.609 66.6442 242.105 66.0898 242.712 66.0898H273.88C274.486 66.0898 274.982 66.6442 274.982 67.3231V83.3832C274.982 84.0601 274.485 84.6165 273.88 84.6165Z" fill="#44B97B" stroke="black" stroke-width="3" stroke-miterlimit="10"/>
<path d="M275.485 83.1087H244.317C243.71 83.1087 243.215 82.5543 243.215 81.8754V65.8153C243.215 65.1364 243.71 64.582 244.317 64.582H275.485C276.092 64.582 276.587 65.1364 276.587 65.8153V81.8754C276.587 82.5543 276.09 83.1087 275.485 83.1087Z" fill="#44B97B" stroke="black" stroke-width="3" stroke-miterlimit="10"/>
<path d="M193.961 174.47H125.447C125.078 174.47 124.777 174.133 124.777 173.721V125.725C124.777 125.313 125.078 124.977 125.447 124.977H193.961C194.33 124.977 194.63 125.313 194.63 125.725V173.721C194.63 174.133 194.33 174.47 193.961 174.47Z" fill="#44B97B" stroke="black" stroke-width="3" stroke-miterlimit="10"/>
<path d="M197.641 171.337H129.126C128.758 171.337 128.457 171 128.457 170.588V122.593C128.457 122.18 128.758 121.844 129.126 121.844H197.641C198.009 121.844 198.31 122.18 198.31 122.593V170.588C198.31 171 198.009 171.337 197.641 171.337Z" fill="#44B97B" stroke="black" stroke-width="3" stroke-miterlimit="10"/>
<path d="M179.482 141.242L180.934 144.421L164.203 154.17L159.657 145.693L138.85 157.067L137.496 154.1L160.099 142.09L164.582 150.144L179.482 141.242Z" fill="white" stroke="black" stroke-width="3" stroke-miterlimit="10"/>
<path d="M185.422 138.602L175.913 139.273C175.753 139.285 175.694 139.516 175.828 139.619L179.972 142.817C180.005 142.843 180.03 142.881 180.04 142.926L181.292 148.406C181.332 148.579 181.542 148.6 181.61 148.439L185.589 138.872C185.641 138.742 185.551 138.594 185.422 138.602Z" fill="white" stroke="black" stroke-width="3" stroke-miterlimit="10"/>
<path d="M178.448 142.024L178.915 141.609L180.777 142.197L181.104 143.702L180.842 144.455L180.426 144.617L179.637 144.759L178.168 142.959L178.448 142.024Z" fill="white"/>
<path d="M194.521 232.427H126.005C125.637 232.427 125.336 232.09 125.336 231.678V183.683C125.336 183.27 125.637 182.934 126.005 182.934H194.52C194.888 182.934 195.189 183.27 195.189 183.683V231.678C195.191 232.088 194.888 232.427 194.521 232.427Z" fill="#FEF168" stroke="black" stroke-width="3" stroke-miterlimit="10"/>
<path d="M198.201 229.294H129.685C129.316 229.294 129.016 228.957 129.016 228.545V180.55C129.016 180.137 129.316 179.801 129.685 179.801H198.199C198.568 179.801 198.869 180.137 198.869 180.55V228.545C198.87 228.957 198.568 229.294 198.201 229.294Z" fill="#FEF168" stroke="black" stroke-width="3" stroke-miterlimit="10"/>
<path d="M155.012 191.144V213.344C155.012 214.188 155.85 214.694 156.479 214.231L173.076 202.052C173.675 201.612 173.637 200.612 173.006 200.231L156.409 190.211C155.777 189.829 155.012 190.341 155.012 191.144Z" fill="white" stroke="black" stroke-width="3" stroke-miterlimit="10"/>
<path d="M136.613 220.043H191.905" stroke="black" stroke-width="3" stroke-miterlimit="10"/>
<path d="M183.153 223.472C184.846 223.472 186.219 221.936 186.219 220.041C186.219 218.146 184.846 216.609 183.153 216.609C181.459 216.609 180.086 218.146 180.086 220.041C180.086 221.936 181.459 223.472 183.153 223.472Z" fill="white" stroke="black" stroke-width="3" stroke-miterlimit="10"/>
<path d="M410.091 71.2792H374.857C374.332 71.2792 373.902 70.7987 373.902 70.2112V44.314C373.902 43.7266 374.332 43.2461 374.857 43.2461H410.091C410.616 43.2461 411.045 43.7266 411.045 44.314V70.2112C411.045 70.7987 410.616 71.2792 410.091 71.2792Z" fill="#44B97B" stroke="black" stroke-width="3" stroke-miterlimit="10"/>
<path d="M260.635 115.309C258.781 117.003 257.214 119.059 256.013 121.378L216.372 197.877C210.865 208.578 214.114 222.247 223.644 228.474C233.207 234.637 245.423 231.001 250.987 220.337L285.06 154.587C277.543 142.511 266.576 124.897 260.635 115.309Z" fill="#0F442B" stroke="black" stroke-width="3" stroke-miterlimit="10"/>
<path d="M325.094 225.451C315.526 231.773 303.289 228.021 297.764 217.071L258.25 138.755C252.725 127.805 256.004 113.803 265.572 107.481C275.141 101.159 287.377 104.911 292.902 115.861L332.416 194.177C337.943 205.127 334.664 219.129 325.094 225.451Z" fill="#FEF168" stroke="black" stroke-width="3" stroke-miterlimit="10"/>
<path d="M263.444 115.309C261.589 117.003 260.023 119.059 258.822 121.378L219.18 197.877C213.673 208.578 216.922 222.247 226.452 228.474C236.015 234.637 248.231 231.001 253.796 220.337L287.869 154.587C280.35 142.511 269.384 124.897 263.444 115.309Z" fill="#0F442B" stroke="black" stroke-width="3" stroke-miterlimit="10"/>
<path d="M236.492 231.491C247.542 231.491 256.499 221.467 256.499 209.103C256.499 196.738 247.542 186.715 236.492 186.715C225.442 186.715 216.484 196.738 216.484 209.103C216.484 221.467 225.442 231.491 236.492 231.491Z" fill="#44B97B" stroke="black" stroke-width="3" stroke-miterlimit="10"/>
<path d="M327.332 224.144C317.764 230.326 305.527 226.657 300.003 215.95L260.488 139.37C254.964 128.663 258.242 114.97 267.811 108.788C277.379 102.606 289.616 106.275 295.14 116.982L334.654 193.563C340.179 204.271 336.9 217.962 327.332 224.144Z" fill="#FEF168" stroke="black" stroke-width="3" stroke-miterlimit="10"/>
<path d="M411.712 69.5331H376.478C375.953 69.5331 375.523 69.0526 375.523 68.4652V42.5679C375.523 41.9805 375.953 41.5 376.478 41.5H411.712C412.237 41.5 412.666 41.9805 412.666 42.5679V68.4652C412.666 69.0526 412.237 69.5331 411.712 69.5331Z" fill="#44B97B" stroke="black" stroke-width="3" stroke-miterlimit="10"/>
<path d="M389.571 57.2617H384.945V63.8289H389.571V57.2617Z" fill="white"/>
<path d="M396.251 47.2617H391.625V64.2497H396.251V47.2617Z" fill="white"/>
<path d="M402.884 52.4727H398.258V63.9516H402.884V52.4727Z" fill="white"/>
<path d="M408.989 62.9141H378.883V64.6356H408.989V62.9141Z" fill="white"/>
<path d="M380.27 60.5494C380.381 60.5338 383.826 56.6452 384.284 56.1297C384.317 56.0928 384.36 56.0733 384.407 56.0733H387.748C387.783 56.0733 387.814 56.048 387.826 56.0111L390.441 47.6445" stroke="white" stroke-miterlimit="10"/>
</svg>
