<svg width="349" height="241" viewBox="0 0 349 241" fill="none" xmlns="http://www.w3.org/2000/svg">
<path d="M277.219 239.001H23.6172V32.8273L34.1991 13.7891L277.219 32.8273L287.938 219.961L277.219 239.001Z" fill="#7B66AD" stroke="black" stroke-width="3" stroke-miterlimit="10"/>
<path d="M287.936 13.7891H34.3359V219.963H287.936V13.7891Z" fill="#7B66AD" stroke="black" stroke-width="3" stroke-miterlimit="10"/>
<path d="M277.981 54.0013H42.8125V27.3435L45.6684 21.9766L281.045 24.3576V51.739L277.981 54.0013Z" fill="white" stroke="black" stroke-width="3" stroke-miterlimit="10"/>
<path d="M281.043 21.9766H45.875V51.3966H281.043V21.9766Z" fill="white" stroke="black" stroke-width="3" stroke-miterlimit="10"/>
<path d="M311.905 131.093C319.34 131.093 325.368 126.07 325.368 119.875C325.368 113.679 319.34 108.656 311.905 108.656C304.469 108.656 298.441 113.679 298.441 119.875C298.441 126.07 304.469 131.093 311.905 131.093Z" fill="#CECAA5" stroke="black" stroke-width="3" stroke-miterlimit="10"/>
<path d="M276.865 209.775H42.8125V62.8454L45.61 58.9141L279.662 62.7384V206.022L276.865 209.775Z" fill="white" stroke="black" stroke-miterlimit="10"/>
<path d="M279.677 58.9141H45.625V205.841H279.677V58.9141Z" fill="#7B66AD" stroke="black" stroke-miterlimit="10"/>
<path d="M312.463 129.085C319.899 129.085 325.927 124.062 325.927 117.867C325.927 111.671 319.899 106.648 312.463 106.648C305.028 106.648 299 111.671 299 117.867C299 124.062 305.028 129.085 312.463 129.085Z" fill="white" stroke="black" stroke-width="3" stroke-miterlimit="10"/>
<path d="M272.132 143.225C282.044 143.225 290.08 134.516 290.08 123.773C290.08 113.03 282.044 104.32 272.132 104.32C262.219 104.32 254.184 113.03 254.184 123.773C254.184 134.516 262.219 143.225 272.132 143.225Z" fill="#44B97C" stroke="black" stroke-width="3" stroke-miterlimit="10"/>
<path d="M272.585 109.242L289.693 103.091C290.857 102.673 291.987 102.013 293.064 101.124L314.958 83.053C316.016 82.3994 317.367 83.1775 317.367 84.4399V152.748C317.367 153.845 316.322 154.625 315.298 154.292L292.2 142.755C291.616 142.463 291.015 142.286 290.409 142.228L272.923 140.522C272.264 140.308 271.816 139.683 271.816 138.977V110.629C271.82 110.061 272.11 109.536 272.585 109.242Z" fill="#44B97C" stroke="black" stroke-width="3" stroke-miterlimit="10"/>
<path d="M273.987 181.614C268.918 181.614 264.77 177.197 264.77 171.795V130.843C264.77 125.443 268.916 121.023 273.987 121.023C279.056 121.023 283.205 125.441 283.205 130.843V171.795C283.203 177.197 279.056 181.614 273.987 181.614Z" fill="#FCB136" stroke="black" stroke-width="3" stroke-miterlimit="10"/>
<path d="M275.013 180.823C270.638 180.823 267.059 177.011 267.059 172.35V128.708C267.059 124.047 270.638 120.234 275.013 120.234C279.388 120.234 282.967 124.047 282.967 128.708V172.35C282.967 177.011 279.388 180.823 275.013 180.823Z" fill="#EEEA59" stroke="black" stroke-width="3" stroke-miterlimit="10"/>
<path d="M273.609 105.398L290.717 99.2473C291.88 98.8291 293.01 98.1696 294.088 97.2806L315.982 79.2092C317.039 78.5556 318.39 79.3337 318.39 80.5962V148.904C318.39 150.001 317.346 150.781 316.321 150.448L293.224 138.911C292.64 138.619 292.039 138.442 291.433 138.384L273.946 136.678C273.287 136.464 272.84 135.84 272.84 135.133V106.785C272.843 106.219 273.134 105.692 273.609 105.398Z" fill="#81C343" stroke="black" stroke-width="3" stroke-miterlimit="10"/>
<path d="M273.198 138.323C283.111 138.323 291.146 129.614 291.146 118.871C291.146 108.127 283.111 99.418 273.198 99.418C263.286 99.418 255.25 108.127 255.25 118.871C255.25 129.614 263.286 138.323 273.198 138.323Z" fill="white" stroke="black" stroke-width="3" stroke-miterlimit="10"/>
<path d="M331.823 91.8359L334.977 94.7908L335.123 96.7905L327.185 110.201L324.201 107.025L323.836 104.965L331.823 91.8359Z" fill="#FEF168" stroke="black" stroke-width="3" stroke-miterlimit="10"/>
<path d="M331.769 91.8359L334.853 94.5282L326.916 107.941L323.934 104.762L331.769 91.8359Z" fill="#FEF168" stroke="black" stroke-width="3" stroke-miterlimit="10"/>
<path d="M340.413 139.561L339.839 141.422L338.097 143.311L337.233 144.247L325.406 134.626V133.046L328.899 129.969L340.413 139.561Z" fill="#FEF168" stroke="black" stroke-width="3" stroke-miterlimit="10"/>
<path d="M340.312 139.411L337.519 142.442L325.691 132.818L328.929 129.938L340.312 139.411Z" fill="#FEF168" stroke="black" stroke-width="3" stroke-miterlimit="10"/>
<path d="M346.965 116.758L346.939 121.177L345.853 122.321L331.273 122.681L331.421 118.293L332.365 116.976L346.965 116.758Z" fill="#FEF168" stroke="black" stroke-width="3" stroke-miterlimit="10"/>
<path d="M346.998 116.758L346.985 120.975L332.406 121.333L332.556 116.946L346.998 116.758Z" fill="#FEF168" stroke="black" stroke-width="3" stroke-miterlimit="10"/>
<path d="M100.032 45.8704H67.2944C66.6571 45.8704 66.1367 45.316 66.1367 44.6371V28.577C66.1367 27.8982 66.6571 27.3438 67.2944 27.3438H100.033C100.671 27.3438 101.191 27.8982 101.191 28.577V44.6371C101.189 45.316 100.669 45.8704 100.032 45.8704Z" fill="#81C343" stroke="black" stroke-width="3" stroke-miterlimit="10"/>
<path d="M101.721 44.3587H68.9819C68.3446 44.3587 67.8242 43.8043 67.8242 43.1254V27.0653C67.8242 26.3864 68.3446 25.832 68.9819 25.832H101.721C102.358 25.832 102.879 26.3864 102.879 27.0653V43.1254C102.879 43.8043 102.358 44.3587 101.721 44.3587Z" fill="#81C343" stroke="black" stroke-width="3" stroke-miterlimit="10"/>
<path d="M158.615 45.1165H125.876C125.239 45.1165 124.719 44.5621 124.719 43.8832V27.8231C124.719 27.1442 125.239 26.5898 125.876 26.5898H158.615C159.253 26.5898 159.773 27.1442 159.773 27.8231V43.8832C159.773 44.5601 159.251 45.1165 158.615 45.1165Z" fill="#44B97B" stroke="black" stroke-width="3" stroke-miterlimit="10"/>
<path d="M160.303 43.6087H127.564C126.927 43.6087 126.406 43.0543 126.406 42.3754V26.3153C126.406 25.6364 126.927 25.082 127.564 25.082H160.303C160.94 25.082 161.461 25.6364 161.461 26.3153V42.3754C161.461 43.0543 160.938 43.6087 160.303 43.6087Z" fill="#44B97B" stroke="black" stroke-width="3" stroke-miterlimit="10"/>
<path d="M74.6708 134.97H2.70303C2.31591 134.97 2 134.633 2 134.221V86.2255C2 85.8131 2.31591 85.4766 2.70303 85.4766H74.6708C75.0579 85.4766 75.3738 85.8131 75.3738 86.2255V134.221C75.3738 134.633 75.0579 134.97 74.6708 134.97Z" fill="#44B97B" stroke="black" stroke-width="3" stroke-miterlimit="10"/>
<path d="M78.538 131.837H6.57021C6.18309 131.837 5.86719 131.5 5.86719 131.088V83.0927C5.86719 82.6803 6.18309 82.3438 6.57021 82.3438H78.538C78.9251 82.3438 79.241 82.6803 79.241 83.0927V131.088C79.241 131.5 78.9251 131.837 78.538 131.837Z" fill="#44B97B" stroke="black" stroke-width="3" stroke-miterlimit="10"/>
<path d="M59.4618 101.742L60.9866 104.921L43.4128 114.67L38.6377 106.193L16.7819 117.567L15.3594 114.6L39.1015 102.59L43.8109 110.644L59.4618 101.742Z" fill="white" stroke="black" stroke-width="3" stroke-miterlimit="10"/>
<path d="M65.7026 99.1019L55.7141 99.773C55.5462 99.7846 55.4841 100.016 55.6247 100.119L59.9779 103.317C60.0126 103.343 60.0382 103.381 60.0492 103.426L61.3639 108.906C61.4059 109.079 61.6269 109.1 61.6981 108.939L65.8779 99.3722C65.9327 99.2419 65.8377 99.0941 65.7026 99.1019Z" fill="white" stroke="black" stroke-width="3" stroke-miterlimit="10"/>
<path d="M58.376 102.524L58.8672 102.109L60.8229 102.697L61.1662 104.202L60.8905 104.955L60.4541 105.117L59.625 105.259L58.082 103.459L58.376 102.524Z" fill="white"/>
<path d="M75.2586 192.927H3.28896C2.90184 192.927 2.58594 192.59 2.58594 192.178V144.183C2.58594 143.77 2.90184 143.434 3.28896 143.434H75.2567C75.6439 143.434 75.9598 143.77 75.9598 144.183V192.178C75.9616 192.588 75.6439 192.927 75.2586 192.927Z" fill="#FEF168" stroke="black" stroke-width="3" stroke-miterlimit="10"/>
<path d="M79.1219 189.794H7.15224C6.76512 189.794 6.44922 189.457 6.44922 189.045V141.05C6.44922 140.637 6.76512 140.301 7.15224 140.301H79.12C79.5071 140.301 79.823 140.637 79.823 141.05V189.045C79.8249 189.457 79.5071 189.794 79.1219 189.794Z" fill="#FEF168" stroke="black" stroke-width="3" stroke-miterlimit="10"/>
<path d="M33.7578 151.644V173.844C33.7578 174.688 34.638 175.194 35.299 174.731L52.7322 162.552C53.3621 162.112 53.322 161.112 52.6591 160.731L35.2259 150.711C34.5613 150.329 33.7578 150.841 33.7578 151.644Z" fill="white" stroke="black" stroke-width="3" stroke-miterlimit="10"/>
<path d="M14.4297 180.543H72.5086" stroke="black" stroke-width="3" stroke-miterlimit="10"/>
<path d="M63.3149 183.972C65.0939 183.972 66.536 182.436 66.536 180.541C66.536 178.646 65.0939 177.109 63.3149 177.109C61.5359 177.109 60.0938 178.646 60.0938 180.541C60.0938 182.436 61.5359 183.972 63.3149 183.972Z" fill="white" stroke="black" stroke-width="3" stroke-miterlimit="10"/>
<path d="M301.696 31.7792H264.686C264.135 31.7792 263.684 31.2987 263.684 30.7112V4.81404C263.684 4.22657 264.135 3.74609 264.686 3.74609H301.696C302.248 3.74609 302.699 4.22657 302.699 4.81404V30.7112C302.699 31.2987 302.248 31.7792 301.696 31.7792Z" fill="#44B97B" stroke="black" stroke-width="3" stroke-miterlimit="10"/>
<path d="M144.705 75.8086C142.756 77.5029 141.111 79.559 139.849 81.8778L98.2101 158.377C92.4252 169.078 95.8381 182.747 105.848 188.974C115.893 195.137 128.725 191.501 134.57 180.837L170.36 115.087C162.465 103.011 150.944 85.3968 144.705 75.8086Z" fill="#0F442B" stroke="black" stroke-width="3" stroke-miterlimit="10"/>
<path d="M212.415 185.951C202.364 192.273 189.511 188.521 183.708 177.571L142.202 99.255C136.399 88.3051 139.843 74.3032 149.893 67.9811C159.944 61.659 172.797 65.4114 178.6 76.3613L220.106 154.677C225.911 165.627 222.467 179.629 212.415 185.951Z" fill="#FEF168" stroke="black" stroke-width="3" stroke-miterlimit="10"/>
<path d="M147.658 75.8086C145.709 77.5029 144.064 79.559 142.802 81.8778L101.163 158.377C95.3783 169.078 98.7912 182.747 108.802 188.974C118.847 195.137 131.678 191.501 137.523 180.837L173.314 115.087C165.416 103.011 153.897 85.3968 147.658 75.8086Z" fill="#0F442B" stroke="black" stroke-width="3" stroke-miterlimit="10"/>
<path d="M119.344 191.991C130.951 191.991 140.36 181.967 140.36 169.603C140.36 157.238 130.951 147.215 119.344 147.215C107.737 147.215 98.3281 157.238 98.3281 169.603C98.3281 181.967 107.737 191.991 119.344 191.991Z" fill="#44B97B" stroke="black" stroke-width="3" stroke-miterlimit="10"/>
<path d="M214.762 184.644C204.712 190.826 191.858 187.157 186.055 176.45L144.549 99.8696C138.746 89.1629 142.19 75.4702 152.241 69.2882C162.291 63.1062 175.145 66.7749 180.948 77.4816L222.454 154.063C228.257 164.771 224.813 178.462 214.762 184.644Z" fill="#FEF168" stroke="black" stroke-width="3" stroke-miterlimit="10"/>
<path d="M303.395 30.0331H266.385C265.834 30.0331 265.383 29.5526 265.383 28.9652V3.06794C265.383 2.48048 265.834 2 266.385 2H303.395C303.947 2 304.398 2.48048 304.398 3.06794V28.9652C304.398 29.5526 303.947 30.0331 303.395 30.0331Z" fill="#44B97B" stroke="black" stroke-width="3" stroke-miterlimit="10"/>
<path d="M280.14 17.7617H275.281V24.3289H280.14V17.7617Z" fill="white"/>
<path d="M287.156 7.76172H282.297V24.7497H287.156V7.76172Z" fill="white"/>
<path d="M294.125 12.9727H289.266V24.4516H294.125V12.9727Z" fill="white"/>
<path d="M300.537 23.4141H268.914V25.1356H300.537V23.4141Z" fill="white"/>
<path d="M270.371 21.0494C270.488 21.0338 274.107 17.1452 274.587 16.6297C274.622 16.5928 274.668 16.5733 274.717 16.5733H278.227C278.263 16.5733 278.296 16.548 278.309 16.5111L281.055 8.14453" stroke="white" stroke-miterlimit="10"/>
</svg>
