<svg width="45" height="45" viewBox="0 0 45 45" fill="none" xmlns="http://www.w3.org/2000/svg">
<g id="Group 438">
<circle id="Ellipse 14" cx="22.5" cy="22.5" r="22.5" fill="white"/>
<path id="Vector" d="M25.1492 17.4403C25.9909 17.6043 26.7644 18.0151 27.3708 18.6203C27.9772 19.2256 28.3888 19.9976 28.5531 20.8377M25.1492 14C26.8979 14.1939 28.5286 14.9755 29.7735 16.2165C31.0184 17.4574 31.8035 19.084 32 20.8291M31.1383 27.6926V30.2728C31.1392 30.5124 31.0901 30.7495 30.9939 30.969C30.8978 31.1884 30.7568 31.3854 30.5799 31.5474C30.4031 31.7093 30.1943 31.8326 29.967 31.9093C29.7396 31.9861 29.4987 32.0146 29.2597 31.993C26.608 31.7054 24.0608 30.8011 21.8229 29.3526C19.7408 28.032 17.9756 26.2701 16.6525 24.192C15.1962 21.9482 14.2899 19.3936 14.007 16.7351C13.9855 16.4972 14.0138 16.2575 14.0902 16.0312C14.1665 15.8049 14.2893 15.5969 14.4506 15.4205C14.6119 15.2442 14.8082 15.1032 15.0271 15.0068C15.246 14.9103 15.4826 14.8603 15.7218 14.8601H18.307C18.7253 14.856 19.1307 15.0038 19.4478 15.276C19.7649 15.5481 19.972 15.9261 20.0305 16.3394C20.1396 17.1652 20.342 17.9759 20.6337 18.7563C20.7497 19.0641 20.7748 19.3987 20.706 19.7203C20.6373 20.042 20.4776 20.3372 20.2459 20.5711L19.1515 21.6634C20.3783 23.8166 22.1646 25.5995 24.322 26.8239L25.4164 25.7316C25.6506 25.5003 25.9465 25.341 26.2687 25.2724C26.591 25.2038 26.9262 25.2288 27.2346 25.3445C28.0164 25.6357 28.8288 25.8377 29.6561 25.9466C30.0747 26.0055 30.457 26.216 30.7303 26.5379C31.0035 26.8598 31.1488 27.2708 31.1383 27.6926Z" stroke="#E52EC7" stroke-linecap="round" stroke-linejoin="round"/>
</g>
</svg>
