<svg width="123" height="123" viewBox="0 0 123 123" fill="none" xmlns="http://www.w3.org/2000/svg">
<g clip-path="url(#clip0_233_13401)">
<path fill-rule="evenodd" clip-rule="evenodd" d="M-2.28882e-05 61.5072C-0.00761414 69.5859 1.5782 77.5868 4.66663 85.0518C7.75505 92.5168 12.2854 99.2994 17.9984 105.011C23.7114 110.723 30.4949 115.252 37.9604 118.339C45.4259 121.426 53.4269 123.009 61.5054 123C62.596 123 63.6992 122.975 64.7771 122.91H64.7898C66.3995 122.832 67.9948 122.676 69.5667 122.481C81.1451 120.965 92.0467 116.163 100.981 108.644C106.744 103.793 111.585 97.9446 115.274 91.3775C115.649 90.7033 116.013 90.0147 116.377 89.3261C116.377 89.3008 116.39 89.2882 116.402 89.2612C116.779 88.5221 117.123 87.7812 117.468 87.0295H117.48C118.556 84.6688 119.475 82.2402 120.233 79.7593C120.807 77.9499 121.289 76.1124 121.675 74.2539C121.685 74.2391 121.69 74.2212 121.688 74.2034C121.96 72.8911 122.194 71.5679 122.376 70.2376C122.794 67.3463 123.003 64.4286 123 61.5072C123 59.8055 122.935 58.1056 122.78 56.4435C122.703 55.3799 122.585 54.3272 122.443 53.2762C121.664 47.339 120.006 41.5508 117.522 36.1021C112.636 25.3418 104.756 16.2155 94.8223 9.8136C84.889 3.41169 73.3228 0.00483007 61.5054 0C60.8564 0 60.2075 0.0126187 59.5712 0.0252374C58.8826 0.0522775 58.194 0.077515 57.5072 0.129792C54.0292 0.355162 50.5767 0.876213 47.1872 1.6873C45.2403 2.16321 43.3242 2.70401 41.4621 3.34937C40.1894 3.7784 38.9384 4.2507 37.7108 4.77708C36.7897 5.16646 35.8938 5.56846 34.9978 5.99749C34.841 6.07501 34.686 6.1399 34.531 6.21742C28.5949 9.12166 23.1646 12.9617 18.448 17.5905C17.7738 18.2394 17.1249 18.9136 16.4651 19.6023C16.0379 20.0692 15.6089 20.5505 15.2033 21.03C14.4822 21.8358 13.8008 22.6794 13.1267 23.5231C7.75261 30.3549 3.89313 38.2517 1.80441 46.6892C0.602119 51.5367 -0.00384521 56.5129 -2.28882e-05 61.5072Z" fill="url(#paint0_radial_233_13401)"/>
<path fill-rule="evenodd" clip-rule="evenodd" d="M34.5327 6.22283C34.7372 6.23955 34.9406 6.26784 35.142 6.30755C35.7826 6.42471 36.4423 6.38073 37.0618 6.17956C37.5521 6.04076 37.9036 5.83886 38.4263 5.75233C39.1726 5.63516 39.8684 5.31608 40.6129 5.21153C41.4025 5.10517 42.0857 4.79511 42.8319 4.52832C43.4196 4.3156 43.7333 4.39131 44.2939 4.52832C44.8545 4.66532 45.2547 4.44359 45.7558 4.23087C46.32 3.98571 46.886 3.94245 47.4827 3.82527C49.042 3.5044 50.5886 3.00325 52.1353 2.60847C53.0943 2.3633 53.9812 2.3633 54.9618 2.35249C55.7297 2.34167 56.4237 2.56701 57.1916 2.56701C57.6822 2.55002 58.1709 2.49639 58.6535 2.40657C59.1745 2.31103 59.7081 2.41738 60.2308 2.34167C61.0096 2.2245 61.426 2.10733 62.2137 2.35249C62.8014 2.54537 63.2592 2.52374 63.8469 2.55619C64.5314 2.61744 65.2094 2.73807 65.873 2.91673C67.0469 3.21164 68.2518 3.36476 69.4621 3.3728C70.1831 3.3728 71.2539 3.1709 71.9479 3.41607C72.3967 3.5765 72.6202 4.05602 72.9303 4.37689C73.527 4.99521 74.2624 5.55043 74.7636 6.24266C75.2647 6.93488 75.8307 7.65235 75.7875 8.52664C75.746 9.28377 75.3945 10.1689 75.0664 10.8701C74.7257 11.6056 74.6085 12.278 75.3656 12.7683C76.3293 13.4275 77.3867 13.938 78.5022 14.2826C79.2232 14.4971 79.8776 14.6251 80.4851 14.1023C80.7104 13.9094 80.8456 13.5363 81.125 13.3812C81.4044 13.2262 81.7127 13.3812 82.0263 13.4786C82.7778 13.7269 83.5435 13.9297 84.3193 14.0861C84.7987 14.16 85.2206 14.416 85.6838 14.5025C86.2499 14.6089 86.6554 14.1924 87.2413 14.3222C88.0633 14.5151 88.8853 14.863 89.7379 14.8991C90.3454 14.9297 91.1151 14.6629 91.6271 14.3583C91.9245 14.178 92.0002 14.0158 92.3481 14.1131C92.6818 14.236 92.9741 14.4503 93.1918 14.7314C93.3936 15.0199 93.4676 15.393 93.6712 15.6923C93.884 16.0222 94.0877 16.343 94.2787 16.6946C94.6324 17.3694 95.0393 18.015 95.4955 18.6252C95.8146 19.0525 96.0363 19.6275 96.3968 20.0223C96.5771 20.2368 96.9736 20.3828 97.208 20.5451C97.8479 20.9939 98.5203 21.3995 99.1386 21.879C100.334 22.8182 101.464 23.862 102.681 24.7633C103.607 25.4555 104.909 25.8611 105.965 26.2992C106.627 26.566 107.31 26.7571 107.971 27.0347C108.184 27.1212 108.579 27.215 108.761 27.3772C108.995 27.5791 109.122 27.9523 109.336 28.2299C109.913 28.9347 110.52 29.6378 110.958 30.449C111.201 30.9143 111.397 31.4028 111.542 31.9073C111.777 32.5995 112.152 33.2395 112.386 33.9335C112.866 35.3847 112.961 36.8989 113.495 38.3393C113.805 39.1829 114.252 39.9508 114.636 40.7188C115.297 42.0203 115.395 43.567 115.586 45.0073C115.686 45.8853 115.657 46.7731 115.501 47.6429C115.341 48.528 115.384 49.4455 115.395 50.3469C115.405 51.3059 116.013 52.2451 116.62 52.9716C117.176 53.6421 118.017 53.8981 118.638 54.4966C119.16 55.0086 119.789 55.5944 120.013 56.3209C120.108 56.64 120.024 57.0023 120.076 57.3448C120.215 58.102 120.408 58.8176 120.514 59.5856C120.621 60.5196 120.668 61.4595 120.656 62.3995C120.656 62.879 120.689 63.3694 120.667 63.8507C120.646 64.332 120.474 64.7358 120.444 65.1937C120.422 65.5145 120.485 65.8336 120.444 66.1545C120.379 66.515 120.24 66.89 120.155 67.2361C119.943 68.0888 119.782 68.9216 119.615 69.7743C119.465 70.5638 119.157 71.3426 118.91 72.1177C118.585 73.1702 118.328 74.2426 118.142 75.3283C117.983 76.1395 117.994 76.9832 117.875 77.8034C117.779 78.465 117.63 79.1374 117.599 79.7989C117.567 80.8012 117.812 81.8053 117.823 82.8184C117.834 84.5255 117.15 86.2309 116.756 87.8749C116.638 88.3328 116.521 88.8033 116.395 89.2612C121.133 79.8832 123.391 69.4479 122.952 58.95C122.514 48.4521 119.394 38.2415 113.89 29.2915C108.386 20.3415 100.681 12.9504 91.5103 7.82282C82.3396 2.69524 72.0084 0.00205958 61.5017 0C60.1569 0 58.8338 0.0432642 57.5107 0.12799C49.5254 0.630667 41.7174 2.70172 34.5327 6.22283Z" fill="url(#paint1_linear_233_13401)"/>
<g style="mix-blend-mode:soft-light">
<path fill-rule="evenodd" clip-rule="evenodd" d="M86.6082 83.3842C87.4608 80.2908 88.5334 76.6188 89.6582 72.9287C88.7605 76.5773 87.7348 80.1034 86.6082 83.3842Z" fill="url(#paint2_linear_233_13401)"/>
<path fill-rule="evenodd" clip-rule="evenodd" d="M88.4435 116.943C88.4435 116.943 86.0045 98.1411 84.1497 98.1411C82.7076 98.1411 80.247 100.979 75.2717 104.759C73.8819 105.815 72.3064 106.94 70.4876 108.103C68.6525 109.236 66.7516 110.26 64.7949 111.167C61.132 112.909 56.8922 114.63 53.0779 116.085C47.0391 118.385 42.0477 120.022 42.0477 120.022L41.0796 119.326C44.4809 118.557 47.837 117.601 51.1329 116.462C51.1329 116.462 45.1265 106.697 37.4546 97.8851C29.7826 89.0737 0.320595 68.3501 0.320595 68.3501L0.0700226 65.4226C0.0700226 65.4226 8.47925 72.3773 17.8006 79.7701C17.8006 79.7538 11.5653 36.9259 9.59327 30.0866L11.5653 29.2736C11.5653 29.2736 16.1945 71.5156 21.359 82.5624C30.2513 89.5369 39.1148 96.1708 41.6691 97.0036C47.2753 98.8315 67.8233 82.3263 67.8504 82.3046C68.3821 65.3144 67.9892 46.3773 66.5885 41.4362C45.6331 21.6032 25.5645 11.7174 25.5645 11.7174L26.5145 10.7655C26.5145 10.7655 46.5236 24.8264 47.104 22.1386C47.6844 19.4508 34.4857 5.87669 34.4857 5.87669L35.98 5.66037C35.98 5.66037 50.6606 24.4857 70.922 44.3998C85.1808 58.4066 89.9541 62.6519 91.535 63.9408C94.1091 49.2184 94.2822 33.7767 89.9559 23.8079C81.8495 5.13038 70.621 0.856245 70.621 0.856245C72.4561 0.794954 76.3804 1.78642 76.3804 1.78642C76.3804 1.78642 82.0045 8.45631 84.3822 12.3375C86.7598 16.2186 89.9559 23.8079 91.8595 22.6001C93.763 21.3923 99.6107 13.2875 99.6107 13.2875L100.317 13.9941C100.317 13.9941 94.6752 19.2669 93.718 23.3536C92.7608 27.4403 93.599 52.5155 96.1407 51.5871C98.6824 50.6587 116.943 35.1034 116.943 35.1034L117.558 36.4302C117.558 36.4302 98.5274 49.4419 96.1407 54.0261C94.9582 56.2902 92.1749 64.6619 89.6657 72.9217C89.9523 71.7518 90.8806 67.6471 90.475 65.8498C84.0631 56.3606 76.8743 51.5745 69.6728 44.4323C68.1081 53.2239 68.1676 84.2353 68.3028 99.6481L75.3799 103.169C77.4583 101.227 79.2808 99.0965 80.6778 96.7494C82.8049 93.182 84.8238 88.5851 86.6156 83.3844C85.516 87.3719 84.7806 90.4004 84.7661 91.2711C84.7139 94.3357 89.4385 116.447 89.4385 116.447L88.4435 116.943ZM17.952 79.8818C19.0336 80.7387 20.1218 81.5968 21.2166 82.456L17.952 79.8818ZM67.8269 83.0221L67.7873 84.2569C67.8017 83.8477 67.8143 83.4349 67.8269 83.0221ZM67.7819 84.3939C67.7638 84.4047 48.0738 96.6521 44.8075 98.873C41.7809 100.933 51.4357 113.929 52.8778 115.845C57.1012 114.344 61.2023 112.518 65.1446 110.385C66.4641 106.799 67.3528 96.2627 67.7819 84.3939ZM68.2974 99.8284V99.7112C68.2956 99.7509 68.2956 99.7888 68.2974 99.8284ZM68.2974 100.847C68.3425 105.494 68.3893 108.461 68.3893 108.472C70.5072 107.15 72.5196 105.667 74.4083 104.034C73.1212 102.979 70.5615 101.13 68.3064 100.847H68.2974Z" fill="url(#paint3_linear_233_13401)"/>
<path fill-rule="evenodd" clip-rule="evenodd" d="M103.629 78.4309C106.455 74.2505 122.909 59.4434 122.909 59.4434L122.924 63.3534C122.924 63.3534 108.02 72.1648 103.976 79.4729C99.9332 86.7809 104.191 105.902 104.191 105.902L102.594 107.497C102.594 107.497 99.5114 84.5167 103.629 78.4309Z" fill="url(#paint4_linear_233_13401)"/>
</g>
<path style="mix-blend-mode:screen" fill-rule="evenodd" clip-rule="evenodd" d="M97.9706 109.538C104.366 104.184 109.609 97.5901 113.385 90.1535C115.797 85.4033 117.575 80.3573 118.674 75.1444C118.684 75.1282 118.687 75.1091 118.685 75.0904C119.555 70.915 119.994 66.6611 119.995 62.3959C119.993 46.085 113.512 30.4428 101.978 18.9103C90.4432 7.37792 74.8001 0.899909 58.4896 0.901343C57.1449 0.901343 55.8235 0.944608 54.5004 1.02933C50.4023 1.2941 46.3411 1.96928 42.3778 3.04472C47.2788 1.43809 52.3636 0.458659 57.5108 0.129799C58.8267 0.0450736 60.157 6.77128e-06 61.5018 6.77128e-06C69.5792 -0.00378446 77.5782 1.58449 85.0415 4.67404C92.5047 7.76359 99.2859 12.2938 104.997 18.0058C110.709 23.7177 115.238 30.4993 118.327 37.963C121.416 45.4266 123.004 53.4259 123 61.5036C123 65.7689 122.56 70.0228 121.688 74.198C121.691 74.2168 121.687 74.2359 121.677 74.2521C120.582 79.4647 118.807 84.5109 116.397 89.2612C112.492 96.9518 107.019 103.739 100.33 109.184C93.6415 114.63 85.8857 118.613 77.5631 120.876C85.0285 118.438 91.9564 114.588 97.9706 109.538Z" fill="url(#paint5_radial_233_13401)"/>
<path style="mix-blend-mode:screen" opacity="0.3" fill-rule="evenodd" clip-rule="evenodd" d="M75.0503 1.47287C75.0503 1.47287 69.8407 57.2638 68.3085 62.0066C66.7763 66.7495 52.8781 75.451 47.1962 76.5164C41.5143 77.5817 27.1024 82.8257 23.3439 82.6743C19.5855 82.5229 3.22308 81.1673 3.22308 81.1673L0.962601 72.4045C0.962601 72.4045 31.4882 48.8111 42.2985 27.2295C53.1088 5.64787 52.8636 0.59317 52.8636 0.59317L57.5108 0.129883C57.5108 0.129883 45.7938 22.6921 42.3778 33.6758C38.9618 44.6595 24.4309 55.5008 17.9523 61.812C11.4737 68.1231 13.3466 79.2312 21.2168 78.6886C29.0871 78.146 56.0074 79.6855 62.6573 59.3711C65.5523 50.529 68.112 41.9303 70.0805 27.2205C72.0489 12.5106 75.0503 1.47287 75.0503 1.47287Z" fill="url(#paint6_radial_233_13401)"/>
<path style="mix-blend-mode:screen" opacity="0.3" fill-rule="evenodd" clip-rule="evenodd" d="M120.547 44.2738C120.547 44.2738 99.5136 52.3552 91.4793 57.7939C83.445 63.2326 61.7992 69.4968 57.2043 74.2361C52.6094 78.9753 44.896 87.8805 45.563 92.0933C46.2299 96.3062 73.5036 93.3174 84.3752 89.2614C95.2468 85.2053 113.446 76.8734 115.91 72.9219C118.374 68.9705 122.794 66.5423 122.794 66.5423L122.09 72.0711C122.09 72.0711 94.9223 89.9338 91.3153 91.4228C87.7082 92.9118 50.5364 99.8052 40.1209 97.9124C40.1209 97.9124 35.2412 93.7356 53.28 75.8729C60.5247 68.6983 73.5306 62.8684 85.5469 57.3829C103.441 49.2132 120.116 42.9038 120.116 42.9038L120.547 44.2738Z" fill="url(#paint7_radial_233_13401)"/>
<path style="mix-blend-mode:screen" opacity="0.3" fill-rule="evenodd" clip-rule="evenodd" d="M45.8691 2.01918C45.8691 2.01918 44.4523 17.953 39.2247 31.0729C33.9971 44.1927 23.9673 46.419 19.5761 51.2628C15.1849 56.1066 3.70762 62.5529 -0.000370026 59.9859L0.322308 70.1242C0.322308 70.1242 41.4239 53.7379 52.8633 0.593262L45.8691 2.01918Z" fill="url(#paint8_radial_233_13401)"/>
<path style="mix-blend-mode:screen" opacity="0.3" fill-rule="evenodd" clip-rule="evenodd" d="M110.818 98.2456C110.818 98.2456 93.3449 93.4955 71.9623 96.6989C44.2776 100.845 38.5146 102.918 36.0559 105.869C33.5971 108.82 32.6886 115.845 32.6886 115.845L29.6692 114.115C29.6692 114.115 31.2104 100.457 34.5362 98.251C37.8621 96.0445 63.9352 100.594 91.3188 91.4297L114.261 93.1206L110.818 98.2456Z" fill="url(#paint9_radial_233_13401)"/>
<path style="mix-blend-mode:screen" opacity="0.3" fill-rule="evenodd" clip-rule="evenodd" d="M28.9717 81.6376C30.1524 78.4829 47.3278 74.2881 50.1633 76.572C52.5067 78.4594 37.1844 96.2212 33.4314 96.6845C29.6783 97.1478 27.791 84.7904 28.9717 81.6376ZM35.2358 91.4225C39.663 90.5896 49.7649 80.2549 47.5333 78.153C45.6856 76.4116 31.9568 80.9435 30.9726 83.5051C29.9884 86.0667 30.8086 92.2571 35.2358 91.4225Z" fill="url(#paint10_radial_233_13401)"/>
<path fill-rule="evenodd" clip-rule="evenodd" d="M66.6356 62.9023C67.9858 58.1902 75.0502 1.47266 75.0502 1.47266L76.3842 1.78452C76.3842 1.78452 65.2386 57.3411 74.5816 58.9166C81.9381 60.1569 119.703 41.5875 119.703 41.5875L120.547 44.2735C120.547 44.2735 73.5288 58.8914 56.0038 74.2358C50.0335 79.4635 44.905 85.4646 40.8041 91.2025C40.3694 91.807 40.1095 92.5195 40.0527 93.2619C39.996 94.0042 40.1445 94.7479 40.4822 95.4115C40.8198 96.0751 41.3335 96.633 41.967 97.0241C42.6006 97.4153 43.3295 97.6245 44.074 97.6291C92.3121 98.004 122.099 72.0671 122.099 72.0671L121.697 74.1961C121.697 74.1961 92.2292 89.7622 95.1765 91.4224C98.1238 93.0827 115.283 91.3702 115.283 91.3702L114.272 93.1242C114.272 93.1242 100.46 91.9687 82.7006 94.4347C67.7082 96.4988 42.3687 99.6408 34.814 100.575C30.8806 107.533 29.0239 112.909 29.6729 114.115L26.7382 112.233C31.5945 98.68 30.4895 83.4781 23.3511 82.6687C16.2127 81.8593 4.41096 84.3938 4.41096 84.3938L3.23025 81.1616C42.6211 83.0364 65.2854 67.6272 66.6356 62.9023ZM68.5175 64.705C69.673 64.7447 74.048 61.4981 73.5288 60.9789C73.0746 60.5246 70.2499 54.3649 69.3413 55.1959C68.4328 56.027 67.3765 64.6672 68.5175 64.7158V64.705ZM93.5325 91.4224C93.5325 91.4224 93.2856 90.5409 92.8709 90.3715C92.4563 90.202 84.4329 92.9944 84.9142 93.3188C85.3955 93.6433 93.5325 92.4229 93.5325 91.4224ZM32.4435 94.9286C35.4034 94.6943 53.253 77.9835 50.1633 76.572C47.9298 75.5463 31.8721 79.3626 30.4823 82.4523C29.0924 85.5421 29.4962 95.1486 32.4435 94.9286Z" fill="url(#paint11_linear_233_13401)"/>
<path fill-rule="evenodd" clip-rule="evenodd" d="M54.5 1.02214C54.5 1.02214 50.2548 19.2976 33.4742 42.0131C16.6936 64.7286 0.962173 72.4044 0.962173 72.4044L0.318638 68.343C0.318638 68.343 14.7396 66.0211 31.6446 43.576C51.4157 17.3399 51.2553 0.854492 51.2553 0.854492L54.5 1.02214Z" fill="url(#paint12_linear_233_13401)"/>
<path style="mix-blend-mode:screen" fill-rule="evenodd" clip-rule="evenodd" d="M121.296 55.6485C120.465 68.1698 92.094 47.7167 64.7176 38.5519C32.5696 27.7864 8.37487 50.7524 4.81289 49.4725C-0.760811 47.4697 21.8296 1.75756 58.4066 2.55975C99.6145 3.46109 122.639 35.4387 121.296 55.6485Z" fill="url(#paint13_linear_233_13401)"/>
<path fill-rule="evenodd" clip-rule="evenodd" d="M116.33 45.2885C116.379 47.632 110.62 45.5102 105.232 38.6186C99.8435 31.727 95.8903 16.0635 97.6046 14.2825C99.3189 12.5015 115.991 29.0356 116.33 45.2885Z" fill="white"/>
<path fill-rule="evenodd" clip-rule="evenodd" d="M116.658 48.656C119.416 48.6128 120.402 53.8009 119.158 56.3679C117.914 58.9349 115.553 58.3148 114.489 53.8045C113.839 51.0265 114.381 48.6921 116.658 48.656Z" fill="white"/>
<path style="mix-blend-mode:screen" fill-rule="evenodd" clip-rule="evenodd" d="M89.792 113.476C89.792 113.476 60.6058 123.642 32.73 108.229C4.85432 92.8159 0.263046 58.0459 0.263046 58.0459C0.263046 58.0459 3.68802 98.9359 30.5993 111.984C57.5107 125.031 77.6586 121.019 89.792 113.476Z" fill="url(#paint14_radial_233_13401)"/>
</g>
<defs>
<radialGradient id="paint0_radial_233_13401" cx="0" cy="0" r="1" gradientUnits="userSpaceOnUse" gradientTransform="translate(99.5875 32.7384) rotate(180) scale(108.703 108.707)">
<stop offset="0.01" stop-color="#FF7263"/>
<stop offset="0.21" stop-color="#FC6F63"/>
<stop offset="0.37" stop-color="#F46562"/>
<stop offset="0.51" stop-color="#E55560"/>
<stop offset="0.64" stop-color="#D03D5D"/>
<stop offset="0.77" stop-color="#B6205A"/>
<stop offset="0.88" stop-color="#9A0057"/>
<stop offset="0.99" stop-color="#9A00AE"/>
</radialGradient>
<linearGradient id="paint1_linear_233_13401" x1="123" y1="44.6324" x2="34.5327" y2="44.6324" gradientUnits="userSpaceOnUse">
<stop offset="0.01" stop-color="#FF9D85"/>
<stop offset="0.29" stop-color="#FF9A84"/>
<stop offset="0.49" stop-color="#FF917F"/>
<stop offset="0.67" stop-color="#FF8178"/>
<stop offset="0.84" stop-color="#FF6A6E"/>
<stop offset="1" stop-color="#FF4D61"/>
</linearGradient>
<linearGradient id="paint2_linear_233_13401" x1="86.2882" y1="76.3105" x2="89.995" y2="80.0172" gradientUnits="userSpaceOnUse">
<stop offset="0.01" stop-color="#FF9D85"/>
<stop offset="0.29" stop-color="#FF9A84"/>
<stop offset="0.49" stop-color="#FF917F"/>
<stop offset="0.67" stop-color="#FF8178"/>
<stop offset="0.84" stop-color="#FF6A6E"/>
<stop offset="1" stop-color="#FF4D61"/>
</linearGradient>
<linearGradient id="paint3_linear_233_13401" x1="20.6634" y1="16.6339" x2="104.965" y2="100.933" gradientUnits="userSpaceOnUse">
<stop offset="0.01" stop-color="#FF9D85"/>
<stop offset="0.29" stop-color="#FF9A84"/>
<stop offset="0.49" stop-color="#FF917F"/>
<stop offset="0.67" stop-color="#FF8178"/>
<stop offset="0.84" stop-color="#FF6A6E"/>
<stop offset="1" stop-color="#FF4D61"/>
</linearGradient>
<linearGradient id="paint4_linear_233_13401" x1="105.412" y1="76.1312" x2="119.696" y2="90.4149" gradientUnits="userSpaceOnUse">
<stop offset="0.01" stop-color="#FF9D85"/>
<stop offset="0.29" stop-color="#FF9A84"/>
<stop offset="0.49" stop-color="#FF917F"/>
<stop offset="0.67" stop-color="#FF8178"/>
<stop offset="0.84" stop-color="#FF6A6E"/>
<stop offset="1" stop-color="#FF4D61"/>
</linearGradient>
<radialGradient id="paint5_radial_233_13401" cx="0" cy="0" r="1" gradientUnits="userSpaceOnUse" gradientTransform="translate(106.443 19.6437) rotate(180) scale(80.9467 80.949)">
<stop stop-color="#FFFF4A"/>
<stop offset="1"/>
</radialGradient>
<radialGradient id="paint6_radial_233_13401" cx="0" cy="0" r="1" gradientUnits="userSpaceOnUse" gradientTransform="translate(34.2354 62.3924) rotate(180) scale(44.5031 44.5044)">
<stop stop-color="white"/>
<stop offset="1" stop-color="#623964"/>
</radialGradient>
<radialGradient id="paint7_radial_233_13401" cx="0" cy="0" r="1" gradientUnits="userSpaceOnUse" gradientTransform="translate(59.6973 87.7615) rotate(180) scale(45.4513 45.4526)">
<stop stop-color="white"/>
<stop offset="1" stop-color="#623964"/>
</radialGradient>
<radialGradient id="paint8_radial_233_13401" cx="0" cy="0" r="1" gradientUnits="userSpaceOnUse" gradientTransform="translate(23.7401 53.0366) rotate(180) scale(33.4044 33.4053)">
<stop stop-color="white"/>
<stop offset="1" stop-color="#623964"/>
</radialGradient>
<radialGradient id="paint9_radial_233_13401" cx="0" cy="0" r="1" gradientUnits="userSpaceOnUse" gradientTransform="translate(67.6558 109.844) rotate(180) scale(43.9281 43.9293)">
<stop stop-color="white"/>
<stop offset="1" stop-color="#623964"/>
</radialGradient>
<radialGradient id="paint10_radial_233_13401" cx="0" cy="0" r="1" gradientUnits="userSpaceOnUse" gradientTransform="translate(33.9001 92.7619) rotate(180) scale(13.1591 13.1595)">
<stop stop-color="white"/>
<stop offset="1" stop-color="#623964"/>
</radialGradient>
<linearGradient id="paint11_linear_233_13401" x1="122.091" y1="57.7936" x2="3.22304" y2="57.7936" gradientUnits="userSpaceOnUse">
<stop offset="0.01" stop-color="#FFBB85"/>
<stop offset="0.21" stop-color="#FEB887"/>
<stop offset="0.36" stop-color="#F9AF8C"/>
<stop offset="0.49" stop-color="#F19F95"/>
<stop offset="0.61" stop-color="#E588A2"/>
<stop offset="0.72" stop-color="#D76BB2"/>
<stop offset="0.83" stop-color="#C547C7"/>
<stop offset="0.94" stop-color="#B01EDE"/>
<stop offset="1" stop-color="#A100EF"/>
</linearGradient>
<linearGradient id="paint12_linear_233_13401" x1="54.5" y1="36.6285" x2="0.322242" y2="36.6285" gradientUnits="userSpaceOnUse">
<stop offset="0.01" stop-color="#FF9D85"/>
<stop offset="0.23" stop-color="#FD9A87"/>
<stop offset="0.38" stop-color="#F8918D"/>
<stop offset="0.52" stop-color="#EE8198"/>
<stop offset="0.65" stop-color="#E16AA7"/>
<stop offset="0.77" stop-color="#CF4DBB"/>
<stop offset="0.89" stop-color="#BA2AD3"/>
<stop offset="1" stop-color="#A100EF"/>
</linearGradient>
<linearGradient id="paint13_linear_233_13401" x1="97.7344" y1="12.552" x2="28.9666" y2="75.3975" gradientUnits="userSpaceOnUse">
<stop offset="0.02" stop-color="#FF9346"/>
<stop offset="0.21" stop-color="#BB6C33"/>
<stop offset="0.43" stop-color="#794621"/>
<stop offset="0.62" stop-color="#452813"/>
<stop offset="0.78" stop-color="#1F1209"/>
<stop offset="0.92" stop-color="#080502"/>
<stop offset="1"/>
</linearGradient>
<radialGradient id="paint14_radial_233_13401" cx="0" cy="0" r="1" gradientUnits="userSpaceOnUse" gradientTransform="translate(33.5502 108.798) rotate(180) scale(38.7924 38.7935)">
<stop stop-color="#5E5ED9"/>
<stop offset="1"/>
</radialGradient>
<clipPath id="clip0_233_13401">
<rect width="123" height="123" fill="white" transform="matrix(-1 0 0 1 123 0)"/>
</clipPath>
</defs>
</svg>
