<svg width="1153" height="1831" viewBox="0 0 1153 1831" fill="none" xmlns="http://www.w3.org/2000/svg">
<path d="M1152 1H1.17725V1830H1152V1Z" stroke="#311414" stroke-miterlimit="10"/>
<path d="M1.17725 1820.9H1152" stroke="#311414" stroke-miterlimit="10"/>
<path d="M1.17725 1811.8H1152" stroke="#311414" stroke-miterlimit="10"/>
<path d="M1.17725 1802.7H1152" stroke="#311414" stroke-miterlimit="10"/>
<path d="M1.17725 1793.6H1152" stroke="#311414" stroke-miterlimit="10"/>
<path d="M1.17725 1784.5H1152" stroke="#311414" stroke-miterlimit="10"/>
<path d="M1.17725 1775.4H1152" stroke="#311414" stroke-miterlimit="10"/>
<path d="M1.17725 1766.3H1152" stroke="#311414" stroke-miterlimit="10"/>
<path d="M1.17725 1757.2H1152" stroke="#311414" stroke-miterlimit="10"/>
<path d="M1.17725 1748.11H1152" stroke="#311414" stroke-miterlimit="10"/>
<path d="M1.17725 1739.01H1152" stroke="#311414" stroke-miterlimit="10"/>
<path d="M1.17725 1729.91H1152" stroke="#311414" stroke-miterlimit="10"/>
<path d="M1.17725 1720.81H1152" stroke="#311414" stroke-miterlimit="10"/>
<path d="M1.17725 1711.71H1152" stroke="#311414" stroke-miterlimit="10"/>
<path d="M1.17725 1702.61H1152" stroke="#311414" stroke-miterlimit="10"/>
<path d="M1.17725 1693.51H1152" stroke="#311414" stroke-miterlimit="10"/>
<path d="M1.17725 1684.41H1152" stroke="#311414" stroke-miterlimit="10"/>
<path d="M1.17725 1675.31H1152" stroke="#311414" stroke-miterlimit="10"/>
<path d="M1.17725 1666.21H1152" stroke="#311414" stroke-miterlimit="10"/>
<path d="M1.17725 1657.11H1152" stroke="#311414" stroke-miterlimit="10"/>
<path d="M1.17725 1648.01H1152" stroke="#311414" stroke-miterlimit="10"/>
<path d="M1.17725 1638.91H1152" stroke="#311414" stroke-miterlimit="10"/>
<path d="M1.17725 1629.81H1152" stroke="#311414" stroke-miterlimit="10"/>
<path d="M1.17725 1620.71H1152" stroke="#311414" stroke-miterlimit="10"/>
<path d="M1.17725 1611.61H1152" stroke="#311414" stroke-miterlimit="10"/>
<path d="M1.17725 1602.51H1152" stroke="#311414" stroke-miterlimit="10"/>
<path d="M1.17725 1593.41H1152" stroke="#311414" stroke-miterlimit="10"/>
<path d="M1.17725 1584.31H1152" stroke="#311414" stroke-miterlimit="10"/>
<path d="M1.17725 1575.22H1152" stroke="#311414" stroke-miterlimit="10"/>
<path d="M1.17725 1566.12H1152" stroke="#311414" stroke-miterlimit="10"/>
<path d="M1.17725 1557.02H1152" stroke="#311414" stroke-miterlimit="10"/>
<path d="M1.17725 1547.92H1152" stroke="#311414" stroke-miterlimit="10"/>
<path d="M1.17725 1538.82H1152" stroke="#311414" stroke-miterlimit="10"/>
<path d="M1.17725 1529.71H1152" stroke="#311414" stroke-miterlimit="10"/>
<path d="M1.17725 1520.62H1152" stroke="#311414" stroke-miterlimit="10"/>
<path d="M1.17725 1511.52H1152" stroke="#311414" stroke-miterlimit="10"/>
<path d="M1.17725 1502.42H1152" stroke="#311414" stroke-miterlimit="10"/>
<path d="M1.17725 1493.32H1152" stroke="#311414" stroke-miterlimit="10"/>
<path d="M1.17725 1484.22H1152" stroke="#311414" stroke-miterlimit="10"/>
<path d="M1.17725 1475.12H1152" stroke="#311414" stroke-miterlimit="10"/>
<path d="M1.17725 1466.02H1152" stroke="#311414" stroke-miterlimit="10"/>
<path d="M1.17725 1456.92H1152" stroke="#311414" stroke-miterlimit="10"/>
<path d="M1.17725 1447.82H1152" stroke="#311414" stroke-miterlimit="10"/>
<path d="M1.17725 1438.72H1152" stroke="#311414" stroke-miterlimit="10"/>
<path d="M1.17725 1429.62H1152" stroke="#311414" stroke-miterlimit="10"/>
<path d="M1.17725 1420.52H1152" stroke="#311414" stroke-miterlimit="10"/>
<path d="M1.17725 1411.42H1152" stroke="#311414" stroke-miterlimit="10"/>
<path d="M1.17725 1402.32H1152" stroke="#311414" stroke-miterlimit="10"/>
<path d="M1.17725 1393.23H1152" stroke="#311414" stroke-miterlimit="10"/>
<path d="M1.17725 1384.12H1152" stroke="#311414" stroke-miterlimit="10"/>
<path d="M1.17725 1375.02H1152" stroke="#311414" stroke-miterlimit="10"/>
<path d="M1.17725 1365.92H1152" stroke="#311414" stroke-miterlimit="10"/>
<path d="M1.17725 1356.83H1152" stroke="#311414" stroke-miterlimit="10"/>
<path d="M1.17725 1347.73H1152" stroke="#311414" stroke-miterlimit="10"/>
<path d="M1.17725 1338.63H1152" stroke="#311414" stroke-miterlimit="10"/>
<path d="M1.17725 1329.53H1152" stroke="#311414" stroke-miterlimit="10"/>
<path d="M1.17725 1320.43H1152" stroke="#311414" stroke-miterlimit="10"/>
<path d="M1.17725 1311.33H1152" stroke="#311414" stroke-miterlimit="10"/>
<path d="M1.17725 1302.23H1152" stroke="#311414" stroke-miterlimit="10"/>
<path d="M1.17725 1293.13H1152" stroke="#311414" stroke-miterlimit="10"/>
<path d="M1.17725 1284.03H1152" stroke="#311414" stroke-miterlimit="10"/>
<path d="M1.17725 1274.93H1152" stroke="#311414" stroke-miterlimit="10"/>
<path d="M1.17725 1265.83H1152" stroke="#311414" stroke-miterlimit="10"/>
<path d="M1.17725 1256.73H1152" stroke="#311414" stroke-miterlimit="10"/>
<path d="M1.17725 1247.63H1152" stroke="#311414" stroke-miterlimit="10"/>
<path d="M1.17725 1238.53H1152" stroke="#311414" stroke-miterlimit="10"/>
<path d="M1.17725 1229.43H1152" stroke="#311414" stroke-miterlimit="10"/>
<path d="M1.17725 1220.33H1152" stroke="#311414" stroke-miterlimit="10"/>
<path d="M1.17725 1211.23H1152" stroke="#311414" stroke-miterlimit="10"/>
<path d="M1.17725 1202.13H1152" stroke="#311414" stroke-miterlimit="10"/>
<path d="M1.17725 1193.03H1152" stroke="#311414" stroke-miterlimit="10"/>
<path d="M1.17725 1183.94H1152" stroke="#311414" stroke-miterlimit="10"/>
<path d="M1.17725 1174.84H1152" stroke="#311414" stroke-miterlimit="10"/>
<path d="M1.17725 1165.74H1152" stroke="#311414" stroke-miterlimit="10"/>
<path d="M1.17725 1156.64H1152" stroke="#311414" stroke-miterlimit="10"/>
<path d="M1.17725 1147.54H1152" stroke="#311414" stroke-miterlimit="10"/>
<path d="M1.17725 1138.44H1152" stroke="#311414" stroke-miterlimit="10"/>
<path d="M1.17725 1129.34H1152" stroke="#311414" stroke-miterlimit="10"/>
<path d="M1.17725 1120.24H1152" stroke="#311414" stroke-miterlimit="10"/>
<path d="M1.17725 1111.14H1152" stroke="#311414" stroke-miterlimit="10"/>
<path d="M1.17725 1102.04H1152" stroke="#311414" stroke-miterlimit="10"/>
<path d="M1.17725 1092.94H1152" stroke="#311414" stroke-miterlimit="10"/>
<path d="M1.17725 1083.84H1152" stroke="#311414" stroke-miterlimit="10"/>
<path d="M1.17725 1074.74H1152" stroke="#311414" stroke-miterlimit="10"/>
<path d="M1.17725 1065.64H1152" stroke="#311414" stroke-miterlimit="10"/>
<path d="M1.17725 1056.54H1152" stroke="#311414" stroke-miterlimit="10"/>
<path d="M1.17725 1047.44H1152" stroke="#311414" stroke-miterlimit="10"/>
<path d="M1.17725 1038.34H1152" stroke="#311414" stroke-miterlimit="10"/>
<path d="M1.17725 1029.24H1152" stroke="#311414" stroke-miterlimit="10"/>
<path d="M1.17725 1020.15H1152" stroke="#311414" stroke-miterlimit="10"/>
<path d="M1.17725 1011.05H1152" stroke="#311414" stroke-miterlimit="10"/>
<path d="M1.17725 1001.95H1152" stroke="#311414" stroke-miterlimit="10"/>
<path d="M1.17725 992.845H1152" stroke="#311414" stroke-miterlimit="10"/>
<path d="M1.17725 983.745H1152" stroke="#311414" stroke-miterlimit="10"/>
<path d="M1.17725 974.645H1152" stroke="#311414" stroke-miterlimit="10"/>
<path d="M1.17725 965.549H1152" stroke="#311414" stroke-miterlimit="10"/>
<path d="M1.17725 956.449H1152" stroke="#311414" stroke-miterlimit="10"/>
<path d="M1.17725 947.348H1152" stroke="#311414" stroke-miterlimit="10"/>
<path d="M1.17725 938.248H1152" stroke="#311414" stroke-miterlimit="10"/>
<path d="M1.17725 929.148H1152" stroke="#311414" stroke-miterlimit="10"/>
<path d="M1.17725 920.048H1152" stroke="#311414" stroke-miterlimit="10"/>
<path d="M1.17725 910.952H1152" stroke="#311414" stroke-miterlimit="10"/>
<path d="M1.17725 901.852H1152" stroke="#311414" stroke-miterlimit="10"/>
<path d="M1.17725 892.752H1152" stroke="#311414" stroke-miterlimit="10"/>
<path d="M1.17725 883.652H1152" stroke="#311414" stroke-miterlimit="10"/>
<path d="M1.17725 874.553H1152" stroke="#311414" stroke-miterlimit="10"/>
<path d="M1.17725 865.451H1152" stroke="#311414" stroke-miterlimit="10"/>
<path d="M1.17725 856.355H1152" stroke="#311414" stroke-miterlimit="10"/>
<path d="M1.17725 847.255H1152" stroke="#311414" stroke-miterlimit="10"/>
<path d="M1.17725 838.155H1152" stroke="#311414" stroke-miterlimit="10"/>
<path d="M1.17725 829.055H1152" stroke="#311414" stroke-miterlimit="10"/>
<path d="M1.17725 819.955H1152" stroke="#311414" stroke-miterlimit="10"/>
<path d="M1.17725 810.854H1152" stroke="#311414" stroke-miterlimit="10"/>
<path d="M1.17725 801.758H1152" stroke="#311414" stroke-miterlimit="10"/>
<path d="M1.17725 792.657H1152" stroke="#311414" stroke-miterlimit="10"/>
<path d="M1.17725 783.558H1152" stroke="#311414" stroke-miterlimit="10"/>
<path d="M1.17725 774.457H1152" stroke="#311414" stroke-miterlimit="10"/>
<path d="M1.17725 765.357H1152" stroke="#311414" stroke-miterlimit="10"/>
<path d="M1.17725 756.257H1152" stroke="#311414" stroke-miterlimit="10"/>
<path d="M1.17725 747.161H1152" stroke="#311414" stroke-miterlimit="10"/>
<path d="M1.17725 738.061H1152" stroke="#311414" stroke-miterlimit="10"/>
<path d="M1.17725 728.961H1152" stroke="#311414" stroke-miterlimit="10"/>
<path d="M1.17725 719.86H1152" stroke="#311414" stroke-miterlimit="10"/>
<path d="M1.17725 710.761H1152" stroke="#311414" stroke-miterlimit="10"/>
<path d="M1.17725 701.661H1152" stroke="#311414" stroke-miterlimit="10"/>
<path d="M1.17725 692.564H1152" stroke="#311414" stroke-miterlimit="10"/>
<path d="M1.17725 683.464H1152" stroke="#311414" stroke-miterlimit="10"/>
<path d="M1.17725 674.363H1152" stroke="#311414" stroke-miterlimit="10"/>
<path d="M1.17725 665.263H1152" stroke="#311414" stroke-miterlimit="10"/>
<path d="M1.17725 656.164H1152" stroke="#311414" stroke-miterlimit="10"/>
<path d="M1.17725 647.063H1152" stroke="#311414" stroke-miterlimit="10"/>
<path d="M1.17725 637.968H1152" stroke="#311414" stroke-miterlimit="10"/>
<path d="M1.17725 628.867H1152" stroke="#311414" stroke-miterlimit="10"/>
<path d="M1.17725 619.767H1152" stroke="#311414" stroke-miterlimit="10"/>
<path d="M1.17725 610.667H1152" stroke="#311414" stroke-miterlimit="10"/>
<path d="M1.17725 601.566H1152" stroke="#311414" stroke-miterlimit="10"/>
<path d="M1.17725 592.467H1152" stroke="#311414" stroke-miterlimit="10"/>
<path d="M1.17725 583.366H1152" stroke="#311414" stroke-miterlimit="10"/>
<path d="M1.17725 574.27H1152" stroke="#311414" stroke-miterlimit="10"/>
<path d="M1.17725 565.17H1152" stroke="#311414" stroke-miterlimit="10"/>
<path d="M1.17725 556.07H1152" stroke="#311414" stroke-miterlimit="10"/>
<path d="M1.17725 546.97H1152" stroke="#311414" stroke-miterlimit="10"/>
<path d="M1.17725 537.869H1152" stroke="#311414" stroke-miterlimit="10"/>
<path d="M1.17725 528.769H1152" stroke="#311414" stroke-miterlimit="10"/>
<path d="M1.17725 519.672H1152" stroke="#311414" stroke-miterlimit="10"/>
<path d="M1.17725 510.573H1152" stroke="#311414" stroke-miterlimit="10"/>
<path d="M1.17725 501.473H1152" stroke="#311414" stroke-miterlimit="10"/>
<path d="M1.17725 492.373H1152" stroke="#311414" stroke-miterlimit="10"/>
<path d="M1.17725 483.272H1152" stroke="#311414" stroke-miterlimit="10"/>
<path d="M1.17725 474.172H1152" stroke="#311414" stroke-miterlimit="10"/>
<path d="M1.17725 465.076H1152" stroke="#311414" stroke-miterlimit="10"/>
<path d="M1.17725 455.976H1152" stroke="#311414" stroke-miterlimit="10"/>
<path d="M1.17725 446.876H1152" stroke="#311414" stroke-miterlimit="10"/>
<path d="M1.17725 437.775H1152" stroke="#311414" stroke-miterlimit="10"/>
<path d="M1.17725 428.676H1152" stroke="#311414" stroke-miterlimit="10"/>
<path d="M1.17725 419.575H1152" stroke="#311414" stroke-miterlimit="10"/>
<path d="M1.17725 410.479H1152" stroke="#311414" stroke-miterlimit="10"/>
<path d="M1.17725 401.378H1152" stroke="#311414" stroke-miterlimit="10"/>
<path d="M1.17725 392.278H1152" stroke="#311414" stroke-miterlimit="10"/>
<path d="M1.17725 383.178H1152" stroke="#311414" stroke-miterlimit="10"/>
<path d="M1.17725 374.078H1152" stroke="#311414" stroke-miterlimit="10"/>
<path d="M1.17725 364.979H1152" stroke="#311414" stroke-miterlimit="10"/>
<path d="M1.17725 355.882H1152" stroke="#311414" stroke-miterlimit="10"/>
<path d="M1.17725 346.782H1152" stroke="#311414" stroke-miterlimit="10"/>
<path d="M1.17725 337.682H1152" stroke="#311414" stroke-miterlimit="10"/>
<path d="M1.17725 328.582H1152" stroke="#311414" stroke-miterlimit="10"/>
<path d="M1.17725 319.482H1152" stroke="#311414" stroke-miterlimit="10"/>
<path d="M1.17725 310.382H1152" stroke="#311414" stroke-miterlimit="10"/>
<path d="M1.17725 301.285H1152" stroke="#311414" stroke-miterlimit="10"/>
<path d="M1.17725 292.185H1152" stroke="#311414" stroke-miterlimit="10"/>
<path d="M1.17725 283.085H1152" stroke="#311414" stroke-miterlimit="10"/>
<path d="M1.17725 273.985H1152" stroke="#311414" stroke-miterlimit="10"/>
<path d="M1.17725 264.885H1152" stroke="#311414" stroke-miterlimit="10"/>
<path d="M1.17725 255.784H1152" stroke="#311414" stroke-miterlimit="10"/>
<path d="M1.17725 246.688H1152" stroke="#311414" stroke-miterlimit="10"/>
<path d="M1.17725 237.588H1152" stroke="#311414" stroke-miterlimit="10"/>
<path d="M1.17725 228.488H1152" stroke="#311414" stroke-miterlimit="10"/>
<path d="M1.17725 219.388H1152" stroke="#311414" stroke-miterlimit="10"/>
<path d="M1.17725 210.288H1152" stroke="#311414" stroke-miterlimit="10"/>
<path d="M1.17725 201.187H1152" stroke="#311414" stroke-miterlimit="10"/>
<path d="M1.17725 192.092H1152" stroke="#311414" stroke-miterlimit="10"/>
<path d="M1.17725 182.991H1152" stroke="#311414" stroke-miterlimit="10"/>
<path d="M1.17725 173.892H1152" stroke="#311414" stroke-miterlimit="10"/>
<path d="M1.17725 164.791H1152" stroke="#311414" stroke-miterlimit="10"/>
<path d="M1.17725 155.691H1152" stroke="#311414" stroke-miterlimit="10"/>
<path d="M1.17725 146.591H1152" stroke="#311414" stroke-miterlimit="10"/>
<path d="M1.17725 137.495H1152" stroke="#311414" stroke-miterlimit="10"/>
<path d="M1.17725 128.394H1152" stroke="#311414" stroke-miterlimit="10"/>
<path d="M1.17725 119.294H1152" stroke="#311414" stroke-miterlimit="10"/>
<path d="M1.17725 110.194H1152" stroke="#311414" stroke-miterlimit="10"/>
<path d="M1.17725 101.094H1152" stroke="#311414" stroke-miterlimit="10"/>
<path d="M1.17725 91.9937H1152" stroke="#311414" stroke-miterlimit="10"/>
<path d="M1.17725 82.8979H1152" stroke="#311414" stroke-miterlimit="10"/>
<path d="M1.17725 73.7979H1152" stroke="#311414" stroke-miterlimit="10"/>
<path d="M1.17725 64.6978H1152" stroke="#311414" stroke-miterlimit="10"/>
<path d="M1.17725 55.5967H1152" stroke="#311414" stroke-miterlimit="10"/>
<path d="M1.17725 46.4971H1152" stroke="#311414" stroke-miterlimit="10"/>
<path d="M1.17725 37.397H1152" stroke="#311414" stroke-miterlimit="10"/>
<path d="M1.17725 28.3008H1152" stroke="#311414" stroke-miterlimit="10"/>
<path d="M1.17725 19.2002H1152" stroke="#311414" stroke-miterlimit="10"/>
<path d="M1.17725 10.1001H1152" stroke="#311414" stroke-miterlimit="10"/>
<path d="M1140.6 1V1830" stroke="#311414" stroke-miterlimit="10"/>
<path d="M1129.22 1V1830" stroke="#311414" stroke-miterlimit="10"/>
<path d="M1117.82 1V1830" stroke="#311414" stroke-miterlimit="10"/>
<path d="M1106.42 1V1830" stroke="#311414" stroke-miterlimit="10"/>
<path d="M1095.03 1V1830" stroke="#311414" stroke-miterlimit="10"/>
<path d="M1083.64 1V1830" stroke="#311414" stroke-miterlimit="10"/>
<path d="M1072.24 1V1830" stroke="#311414" stroke-miterlimit="10"/>
<path d="M1060.85 1V1830" stroke="#311414" stroke-miterlimit="10"/>
<path d="M1049.45 1V1830" stroke="#311414" stroke-miterlimit="10"/>
<path d="M1038.06 1V1830" stroke="#311414" stroke-miterlimit="10"/>
<path d="M1026.66 1V1830" stroke="#311414" stroke-miterlimit="10"/>
<path d="M1015.27 1V1830" stroke="#311414" stroke-miterlimit="10"/>
<path d="M1003.87 1V1830" stroke="#311414" stroke-miterlimit="10"/>
<path d="M992.483 1V1830" stroke="#311414" stroke-miterlimit="10"/>
<path d="M981.087 1V1830" stroke="#311414" stroke-miterlimit="10"/>
<path d="M969.691 1V1830" stroke="#311414" stroke-miterlimit="10"/>
<path d="M958.294 1V1830" stroke="#311414" stroke-miterlimit="10"/>
<path d="M946.906 1V1830" stroke="#311414" stroke-miterlimit="10"/>
<path d="M935.509 1V1830" stroke="#311414" stroke-miterlimit="10"/>
<path d="M924.113 1V1830" stroke="#311414" stroke-miterlimit="10"/>
<path d="M912.717 1V1830" stroke="#311414" stroke-miterlimit="10"/>
<path d="M901.329 1V1830" stroke="#311414" stroke-miterlimit="10"/>
<path d="M889.932 1V1830" stroke="#311414" stroke-miterlimit="10"/>
<path d="M878.536 1V1830" stroke="#311414" stroke-miterlimit="10"/>
<path d="M867.139 1V1830" stroke="#311414" stroke-miterlimit="10"/>
<path d="M855.751 1V1830" stroke="#311414" stroke-miterlimit="10"/>
<path d="M844.354 1V1830" stroke="#311414" stroke-miterlimit="10"/>
<path d="M832.958 1V1830" stroke="#311414" stroke-miterlimit="10"/>
<path d="M821.562 1V1830" stroke="#311414" stroke-miterlimit="10"/>
<path d="M810.174 1V1830" stroke="#311414" stroke-miterlimit="10"/>
<path d="M798.778 1V1830" stroke="#311414" stroke-miterlimit="10"/>
<path d="M787.381 1V1830" stroke="#311414" stroke-miterlimit="10"/>
<path d="M775.985 1V1830" stroke="#311414" stroke-miterlimit="10"/>
<path d="M764.596 1V1830" stroke="#311414" stroke-miterlimit="10"/>
<path d="M753.2 1V1830" stroke="#311414" stroke-miterlimit="10"/>
<path d="M741.804 1V1830" stroke="#311414" stroke-miterlimit="10"/>
<path d="M730.416 1V1830" stroke="#311414" stroke-miterlimit="10"/>
<path d="M719.019 1V1830" stroke="#311414" stroke-miterlimit="10"/>
<path d="M707.623 1V1830" stroke="#311414" stroke-miterlimit="10"/>
<path d="M696.226 1V1830" stroke="#311414" stroke-miterlimit="10"/>
<path d="M684.838 1V1830" stroke="#311414" stroke-miterlimit="10"/>
<path d="M673.441 1V1830" stroke="#311414" stroke-miterlimit="10"/>
<path d="M662.045 1V1830" stroke="#311414" stroke-miterlimit="10"/>
<path d="M650.649 1V1830" stroke="#311414" stroke-miterlimit="10"/>
<path d="M639.261 1V1830" stroke="#311414" stroke-miterlimit="10"/>
<path d="M627.864 1V1830" stroke="#311414" stroke-miterlimit="10"/>
<path d="M616.468 1V1830" stroke="#311414" stroke-miterlimit="10"/>
<path d="M605.072 1V1830" stroke="#311414" stroke-miterlimit="10"/>
<path d="M593.683 1V1830" stroke="#311414" stroke-miterlimit="10"/>
<path d="M582.287 1V1830" stroke="#311414" stroke-miterlimit="10"/>
<path d="M570.891 1V1830" stroke="#311414" stroke-miterlimit="10"/>
<path d="M559.494 1V1830" stroke="#311414" stroke-miterlimit="10"/>
<path d="M548.106 1V1830" stroke="#311414" stroke-miterlimit="10"/>
<path d="M536.709 1V1830" stroke="#311414" stroke-miterlimit="10"/>
<path d="M525.313 1V1830" stroke="#311414" stroke-miterlimit="10"/>
<path d="M513.917 1V1830" stroke="#311414" stroke-miterlimit="10"/>
<path d="M502.528 1V1830" stroke="#311414" stroke-miterlimit="10"/>
<path d="M491.132 1V1830" stroke="#311414" stroke-miterlimit="10"/>
<path d="M479.736 1V1830" stroke="#311414" stroke-miterlimit="10"/>
<path d="M468.339 1V1830" stroke="#311414" stroke-miterlimit="10"/>
<path d="M456.951 1V1830" stroke="#311414" stroke-miterlimit="10"/>
<path d="M445.555 1V1830" stroke="#311414" stroke-miterlimit="10"/>
<path d="M434.158 1V1830" stroke="#311414" stroke-miterlimit="10"/>
<path d="M422.762 1V1830" stroke="#311414" stroke-miterlimit="10"/>
<path d="M411.374 1V1830" stroke="#311414" stroke-miterlimit="10"/>
<path d="M399.978 1V1830" stroke="#311414" stroke-miterlimit="10"/>
<path d="M388.581 1V1830" stroke="#311414" stroke-miterlimit="10"/>
<path d="M377.193 1V1830" stroke="#311414" stroke-miterlimit="10"/>
<path d="M365.796 1V1830" stroke="#311414" stroke-miterlimit="10"/>
<path d="M354.4 1V1830" stroke="#311414" stroke-miterlimit="10"/>
<path d="M343.003 1V1830" stroke="#311414" stroke-miterlimit="10"/>
<path d="M331.615 1V1830" stroke="#311414" stroke-miterlimit="10"/>
<path d="M320.219 1V1830" stroke="#311414" stroke-miterlimit="10"/>
<path d="M308.823 1V1830" stroke="#311414" stroke-miterlimit="10"/>
<path d="M297.426 1V1830" stroke="#311414" stroke-miterlimit="10"/>
<path d="M286.038 1V1830" stroke="#311414" stroke-miterlimit="10"/>
<path d="M274.641 1V1830" stroke="#311414" stroke-miterlimit="10"/>
<path d="M263.245 1V1830" stroke="#311414" stroke-miterlimit="10"/>
<path d="M251.849 1V1830" stroke="#311414" stroke-miterlimit="10"/>
<path d="M240.46 1V1830" stroke="#311414" stroke-miterlimit="10"/>
<path d="M229.064 1V1830" stroke="#311414" stroke-miterlimit="10"/>
<path d="M217.668 1V1830" stroke="#311414" stroke-miterlimit="10"/>
<path d="M206.271 1V1830" stroke="#311414" stroke-miterlimit="10"/>
<path d="M194.883 1V1830" stroke="#311414" stroke-miterlimit="10"/>
<path d="M183.487 1V1830" stroke="#311414" stroke-miterlimit="10"/>
<path d="M172.09 1V1830" stroke="#311414" stroke-miterlimit="10"/>
<path d="M160.694 1V1830" stroke="#311414" stroke-miterlimit="10"/>
<path d="M149.306 1V1830" stroke="#311414" stroke-miterlimit="10"/>
<path d="M137.91 1V1830" stroke="#311414" stroke-miterlimit="10"/>
<path d="M126.513 1V1830" stroke="#311414" stroke-miterlimit="10"/>
<path d="M115.117 1V1830" stroke="#311414" stroke-miterlimit="10"/>
<path d="M103.728 1V1830" stroke="#311414" stroke-miterlimit="10"/>
<path d="M92.332 1V1830" stroke="#311414" stroke-miterlimit="10"/>
<path d="M80.9355 1V1830" stroke="#311414" stroke-miterlimit="10"/>
<path d="M69.5396 1V1830" stroke="#311414" stroke-miterlimit="10"/>
<path d="M58.1509 1V1830" stroke="#311414" stroke-miterlimit="10"/>
<path d="M46.7549 1V1830" stroke="#311414" stroke-miterlimit="10"/>
<path d="M35.3579 1V1830" stroke="#311414" stroke-miterlimit="10"/>
<path d="M23.9619 1V1830" stroke="#311414" stroke-miterlimit="10"/>
<path d="M12.5732 1V1830" stroke="#311414" stroke-miterlimit="10"/>
</svg>
