<svg width="848" height="180" viewBox="0 0 848 180" fill="none" xmlns="http://www.w3.org/2000/svg">
<g clip-path="url(#clip0_254_1445)">
<path d="M100.85 62.5301C98.51 60.3901 94.9467 59.3167 90.16 59.3101H76.54V76.1801H90.16C94.9534 76.1801 98.5167 77.2534 100.85 79.4001C102.321 80.7627 103.364 82.5245 103.85 84.4701C104.19 85.7759 104.359 87.1206 104.35 88.4701V71.6401C104.363 67.7201 103.197 64.6834 100.85 62.5301Z" fill="#BE0045" stroke="black" stroke-miterlimit="10"/>
<path d="M92.07 103.03H76.54V119.9H92.07V103.03Z" fill="#BE0045" stroke="black" stroke-miterlimit="10"/>
<path d="M129.85 71.6401V88.5101C129.907 93.99 128.491 99.3845 125.75 104.13C122.76 109.088 118.383 113.062 113.16 115.56C107.493 118.46 100.463 119.907 92.0698 119.9V103C100.463 103 107.493 101.553 113.16 98.6601C118.378 96.1738 122.755 92.2143 125.75 87.2701C128.49 82.5205 129.905 77.123 129.85 71.6401Z" fill="#BE0045"/>
<mask id="mask0_254_1445" style="mask-type:luminance" maskUnits="userSpaceOnUse" x="92" y="71" width="38" height="49">
<path d="M129.85 71.6401V88.5101C129.907 93.99 128.491 99.3845 125.75 104.13C122.76 109.088 118.383 113.062 113.16 115.56C107.493 118.46 100.463 119.907 92.0698 119.9V103C100.463 103 107.493 101.553 113.16 98.6601C118.378 96.1738 122.755 92.2143 125.75 87.2701C128.49 82.5205 129.905 77.123 129.85 71.6401Z" fill="white"/>
</mask>
<g mask="url(#mask0_254_1445)">
<path d="M119.23 94.7903V111.66C117.343 113.161 115.309 114.467 113.16 115.56C107.493 118.46 100.463 119.907 92.0698 119.9V103C100.463 103 107.493 101.554 113.16 98.6603C115.313 97.5746 117.347 96.2676 119.23 94.7603" fill="#BE0045"/>
<path d="M119.23 94.7903V111.66C117.343 113.161 115.309 114.467 113.16 115.56C107.493 118.46 100.463 119.907 92.0698 119.9V103C100.463 103 107.493 101.554 113.16 98.6603C115.313 97.5746 117.347 96.2676 119.23 94.7603" stroke="black" stroke-miterlimit="10"/>
</g>
<path d="M129.85 71.6401V88.5101C129.907 93.99 128.491 99.3845 125.75 104.13C122.76 109.088 118.383 113.062 113.16 115.56C107.493 118.46 100.463 119.907 92.0698 119.9V103C100.463 103 107.493 101.553 113.16 98.6601C118.378 96.1738 122.755 92.2143 125.75 87.2701C128.49 82.5205 129.905 77.123 129.85 71.6401Z" stroke="black" stroke-miterlimit="10"/>
<path d="M76.54 138.35H51.5V155.22H76.54V138.35Z" fill="#BE0045" stroke="black" stroke-miterlimit="10"/>
<path d="M193.77 63.0901C191.477 60.9501 188.037 59.8768 183.45 59.8701H167.93V76.7301H183.45C188.037 76.7301 191.477 77.8068 193.77 79.9601C194.94 81.1018 195.853 82.48 196.448 84.0027C197.043 85.5254 197.306 87.1576 197.22 88.7901V71.9201C197.305 70.2877 197.041 68.656 196.446 67.1334C195.852 65.6109 194.939 64.2326 193.77 63.0901Z" fill="#BE0045" stroke="black" stroke-miterlimit="10"/>
<path d="M222.7 70.9399V87.8099C222.772 94.1314 220.735 100.296 216.91 105.33C213.063 110.443 207.377 114.087 199.85 116.26V99.3899C207.37 97.2433 213.057 93.5999 216.91 88.4599C220.735 83.4265 222.772 77.2614 222.7 70.9399Z" fill="#BE0045"/>
<mask id="mask1_254_1445" style="mask-type:luminance" maskUnits="userSpaceOnUse" x="199" y="70" width="24" height="47">
<path d="M222.7 70.9399V87.8099C222.772 94.1314 220.735 100.296 216.91 105.33C213.063 110.443 207.377 114.087 199.85 116.26V99.3899C207.37 97.2433 213.057 93.5999 216.91 88.4599C220.735 83.4265 222.772 77.2614 222.7 70.9399Z" fill="white"/>
</mask>
<g mask="url(#mask1_254_1445)">
<path d="M217.18 88.1001V105L216.91 105.37C215.579 107.137 214.033 108.733 212.31 110.12V93.2101C214.036 91.8251 215.581 90.2293 216.91 88.4601L217.18 88.1001Z" fill="#BE0045" stroke="black" stroke-miterlimit="10"/>
<path d="M212.31 93.21V110.08C208.611 112.951 204.374 115.052 199.85 116.26V99.39C204.378 98.1909 208.616 96.0888 212.31 93.21Z" fill="#BE0045" stroke="black" stroke-miterlimit="10"/>
</g>
<path d="M222.7 70.9399V87.8099C222.772 94.1314 220.735 100.296 216.91 105.33C213.063 110.443 207.377 114.087 199.85 116.26V99.3899C207.37 97.2433 213.057 93.5999 216.91 88.4599C220.735 83.4265 222.772 77.2614 222.7 70.9399Z" stroke="black" stroke-miterlimit="10"/>
<path d="M173.93 101.22H167.93V118.09H173.93V101.22Z" fill="#BE0045" stroke="black" stroke-miterlimit="10"/>
<path d="M167.92 138.35H142.88V155.22H167.92V138.35Z" fill="#BE0045" stroke="black" stroke-miterlimit="10"/>
<path d="M195.31 138.35V155.22L173.93 118.08V101.22L195.31 138.35Z" fill="#BE0045" stroke="black" stroke-miterlimit="10"/>
<path d="M223.58 138.35H195.31V155.22H223.58V138.35Z" fill="#BE0045" stroke="black" stroke-miterlimit="10"/>
<path d="M306.69 68.0701C301.75 62.8767 295.183 60.2834 286.99 60.2901C286.5 60.2901 285.99 60.2901 285.55 60.2901H285.1L284.15 60.3501H283.63L282.77 60.4401L282.25 60.5101L281.4 60.6301L280.92 60.7101L280 61.0001L279.63 61.0801C279.21 61.1701 278.8 61.2801 278.38 61.3901L278.18 61.4501L277.18 61.7501L276.77 61.8901L276 62.1701L275.55 62.3501C275.31 62.4401 275.07 62.5401 274.84 62.6501L274.4 62.8401L273.69 63.1901L273.3 63.3901C273.02 63.5301 272.76 63.6801 272.49 63.8301L272.23 63.9801L271.23 64.6201L270.99 64.7901L270.24 65.3301L269.89 65.5901L269.49 65.9001L269.33 66.0401C269.07 66.2501 268.82 66.4701 268.58 66.6901C268.34 66.9101 268.34 66.8901 268.23 67.0001C267.87 67.3267 267.52 67.6601 267.18 68.0001C266.84 68.3401 266.507 68.72 266.18 69.14L265.88 69.5001C265.66 69.7801 265.44 70.06 265.23 70.35L265.06 70.5601L264.92 70.7701C264.7 71.0701 264.49 71.3801 264.29 71.7001L264.05 72.0601C263.78 72.5001 263.52 72.9401 263.28 73.4001L263.17 73.62C262.96 74 262.77 74.4001 262.59 74.8C262.51 74.95 262.45 75.1101 262.38 75.2701C262.23 75.6001 262.09 75.9501 261.95 76.2701C261.95 76.3701 261.87 76.4601 261.84 76.5601L261.75 76.8001C261.67 77.0401 261.58 77.2801 261.5 77.5301C261.42 77.7801 261.36 77.9401 261.3 78.1501C261.24 78.3601 261.15 78.6501 261.08 78.9101L260.9 79.5501C260.84 79.8101 260.78 80.0701 260.71 80.3401C260.64 80.6101 260.61 80.7701 260.57 80.9901C260.53 81.2101 260.46 81.5401 260.41 81.8201L260.29 82.4701L260.17 83.35L260 84.0001L259.91 84.9501L259.85 85.5801C259.85 85.9301 259.85 86.2901 259.79 86.6501C259.79 86.8401 259.79 87.0101 259.79 87.2001C259.79 87.7501 259.79 88.3001 259.79 88.8601V105.75C259.79 105.19 259.79 104.63 259.79 104.08C259.79 103.9 259.79 103.72 259.79 103.54C259.79 103.18 259.79 102.82 259.85 102.46L259.91 101.84L260 100.84L260.09 100.18L260.21 99.3101L260.33 98.6501C260.38 98.3701 260.43 98.1 260.49 97.82C260.55 97.5401 260.59 97.39 260.63 97.17C260.67 96.95 260.76 96.64 260.82 96.3801L261 95.7401C261.07 95.4901 261.14 95.2401 261.22 94.9901C261.3 94.7401 261.35 94.57 261.42 94.3601L261.67 93.64C261.74 93.46 261.81 93.28 261.87 93.1101C262.01 92.7601 262.15 92.4201 262.3 92.1101C262.37 91.9601 262.43 91.8001 262.51 91.6401C262.69 91.2401 262.88 90.85 263.09 90.4601L263.2 90.2401C263.44 89.7901 263.7 89.3401 263.97 88.9101L264.21 88.5401C264.41 88.2267 264.62 87.9167 264.84 87.6101L265.15 87.1901L265.8 86.35L266.1 85.9801C266.43 85.5901 266.77 85.2101 267.1 84.85C267.43 84.49 267.79 84.15 268.15 83.85L268.5 83.5401C268.74 83.3201 268.99 83.1101 269.25 82.9001L269.81 82.4501L270.16 82.1801L270.91 81.6501L271.16 81.4801C271.49 81.2601 271.83 81.0401 272.16 80.8301L272.42 80.6901L273.23 80.2401L273.62 80.0401L274.33 79.7001L274.77 79.5001L275.48 79.2001L276 79.0001L276.77 78.7201L277.18 78.5801C277.51 78.4701 277.85 78.3701 278.18 78.2801L278.38 78.2201C278.8 78.1001 279.21 78.0001 279.63 77.9101L280.01 77.8301C280.31 77.7701 280.61 77.7001 280.92 77.6501L281.41 77.5701L282.25 77.4401L282.77 77.3801L283.63 77.2901L284.15 77.2401H285.1H285.55H286.99C295.19 77.2401 301.757 79.8334 306.69 85.0201C311.623 90.2067 314.087 97.1434 314.08 105.83V88.8801C314.08 80.1934 311.617 73.2567 306.69 68.0701Z" fill="#BE0045" stroke="black" stroke-miterlimit="10"/>
<path d="M339.56 88.8799V105.75C339.607 111.891 338.54 117.99 336.41 123.75V106.92C338.538 101.159 339.605 95.0608 339.56 88.9199" fill="#BE0045"/>
<path d="M339.56 88.8799V105.75C339.607 111.891 338.54 117.99 336.41 123.75V106.92C338.538 101.159 339.605 95.0608 339.56 88.9199" stroke="black" stroke-miterlimit="10"/>
<path d="M339.56 88.8801C339.614 95.0996 338.523 101.276 336.34 107.1C336.1 107.72 335.86 108.34 335.6 108.95L335.53 109.09C335.29 109.65 335.03 110.21 334.77 110.76L334.5 111.31C334.28 111.75 334.05 112.18 333.82 112.61L333.54 113.14C333.22 113.72 332.88 114.31 332.54 114.88C332.2 115.45 331.86 115.98 331.54 116.52L331.2 117.02C330.95 117.4 330.69 117.77 330.42 118.14L329.99 118.74C329.83 118.95 329.68 119.16 329.52 119.36C329.36 119.56 329.17 119.81 329 120.03C328.83 120.25 328.67 120.44 328.51 120.64L327.97 121.29L327.46 121.88L326.9 122.51L326.37 123.09L325.79 123.69C325.61 123.88 325.43 124.07 325.24 124.25C325.05 124.43 324.84 124.64 324.64 124.84L324.08 125.37L323.46 125.94L322.88 126.46L322.24 127L321.64 127.5L321.16 127.89L319.84 128.89L319.44 129.19C318.88 129.59 318.31 129.99 317.73 130.37L317.38 130.6C316.89 130.92 316.38 131.22 315.91 131.52L315.4 131.83C314.787 132.19 314.167 132.523 313.54 132.83C305.333 137.062 296.234 139.27 287 139.27C277.767 139.27 268.667 137.062 260.46 132.83C252.554 128.675 245.922 122.454 241.27 114.83C238.026 109.551 235.848 103.687 234.86 97.5701C234.394 94.6802 234.164 91.7573 234.17 88.8301V105.75C234.045 114.912 236.506 123.923 241.27 131.75C245.925 139.372 252.556 145.592 260.46 149.75C268.667 153.982 277.767 156.19 287 156.19C296.234 156.19 305.333 153.982 313.54 149.75C314.17 149.41 314.79 149.05 315.4 148.69L315.91 148.39L317.38 147.47L317.73 147.24C318.31 146.85 318.88 146.46 319.44 146.05L319.84 145.75C320.28 145.42 320.72 145.09 321.16 144.75L321.42 144.55L321.64 144.37L322.24 143.87L322.88 143.32L323.46 142.81L324.08 142.24L324.64 141.7L325.24 141.11C325.43 140.93 325.61 140.75 325.79 140.56C325.97 140.37 326.18 140.16 326.37 139.95L326.9 139.38L327.46 138.75L327.97 138.16L328.51 137.51L329 136.9L329.52 136.23L329.99 135.6C330.072 135.501 330.149 135.398 330.22 135.29L330.42 135.01C330.69 134.64 330.95 134.26 331.21 133.88L331.54 133.39C331.9 132.85 332.25 132.3 332.54 131.75C332.83 131.2 333.23 130.59 333.54 130C333.64 129.83 333.73 129.65 333.82 129.48C334.05 129.05 334.28 128.61 334.5 128.17L334.77 127.63C335.03 127.07 335.29 126.52 335.53 125.96L335.6 125.81C335.86 125.2 336.1 124.59 336.34 123.97C336.34 123.91 336.39 123.85 336.41 123.78C338.54 118.02 339.608 111.921 339.56 105.78V88.8801Z" fill="#BE0045" stroke="black" stroke-miterlimit="10"/>
<path d="M416.43 135.16C416.5 134.91 416.58 134.67 416.64 134.43C416.7 134.19 416.78 133.84 416.85 133.54C416.92 133.24 416.98 133.05 417.03 132.8C417.08 132.55 417.15 132.18 417.21 131.86C417.27 131.54 417.31 131.37 417.35 131.11C417.39 130.85 417.44 130.46 417.49 130.11C417.54 129.76 417.57 129.61 417.6 129.35C417.63 129.09 417.67 128.64 417.7 128.28C417.73 127.92 417.75 127.81 417.77 127.56C417.79 127.31 417.82 126.74 417.84 126.33C417.84 126.12 417.84 125.92 417.84 125.71C417.84 125.09 417.84 124.45 417.84 123.81V107C417.84 107.65 417.84 108.28 417.84 108.91C417.84 109.12 417.84 109.32 417.84 109.53C417.84 109.94 417.84 110.35 417.77 110.75C417.7 111.15 417.77 111.24 417.7 111.48C417.63 111.72 417.64 112.2 417.6 112.55C417.56 112.9 417.52 113.05 417.49 113.3C417.46 113.55 417.4 113.96 417.35 114.3C417.3 114.64 417.25 114.8 417.21 115.05C417.17 115.3 417.1 115.68 417.03 115.98C416.96 116.28 416.91 116.48 416.85 116.72C416.79 116.96 416.72 117.32 416.64 117.61C416.56 117.9 416.5 118.1 416.43 118.34C416.36 118.58 416.27 118.91 416.18 119.18C416.09 119.45 416.02 119.66 415.94 119.9C415.86 120.14 415.75 120.43 415.65 120.69C415.45 121.24 415.22 121.78 414.99 122.31C414.93 122.43 414.87 122.54 414.82 122.66C414.63 123.07 414.44 123.47 414.23 123.86C414.14 124.04 414.04 124.21 413.94 124.39C413.84 124.57 413.57 125.03 413.38 125.39C413.19 125.75 413.15 125.75 413.03 125.93C412.91 126.11 412.64 126.53 412.44 126.82L412.02 127.41C411.91 127.55 411.8 127.7 411.68 127.84C411.56 127.98 411.31 128.31 411.11 128.55L410.76 128.96C410.55 129.2 410.33 129.44 410.11 129.67L409.79 130.01C409.45 130.35 409.11 130.69 408.79 131.01C408.47 131.33 407.91 131.78 407.46 132.14C407.24 132.327 407.01 132.507 406.77 132.68L406.31 133.04C406.04 133.24 405.76 133.43 405.48 133.62L405.09 133.89C404.67 134.17 404.25 134.43 403.82 134.68H403.75C403.34 134.92 402.92 135.15 402.5 135.37L402.04 135.6L401.13 136.04L400.58 136.28C400.29 136.4 400.01 136.53 399.72 136.64C399.43 136.75 399.32 136.8 399.11 136.88L398.26 137.19L397.62 137.41L396.76 137.68L396.08 137.87L395.2 138.1L394.5 138.27L393.6 138.46L392.88 138.6L391.95 138.77L391.22 138.88L390.22 139.01L389.5 139.09L388.44 139.19L387.75 139.25C387.35 139.25 386.95 139.25 386.55 139.31H385.95C385.34 139.31 384.73 139.31 384.1 139.31C373.26 139.31 364.57 136.367 358.03 130.48C351.49 124.593 348.214 116.24 348.2 105.42V122.29C348.2 133.13 351.47 141.49 358.01 147.37C364.55 153.25 373.24 156.193 384.08 156.2C384.71 156.2 385.32 156.2 385.93 156.2H386.53L387.73 156.13H388.42L389.48 156.03C389.72 156.03 389.96 155.97 390.2 155.94L391.2 155.82L391.93 155.7L392.86 155.54L393.58 155.4L394.48 155.2L395.18 155.04L396.06 154.8L396.74 154.61C397.03 154.53 397.31 154.43 397.6 154.34L398.24 154.13L399.09 153.81L399.7 153.58L400.55 153.22L401.11 152.97L402.02 152.53L402.48 152.31C402.9 152.09 403.31 151.86 403.72 151.62H403.8C404.23 151.37 404.65 151.1 405.07 150.83L405.46 150.55L406.29 149.98L406.75 149.62L407.33 149.18L407.44 149.08C407.89 148.71 408.34 148.34 408.77 147.94C409.2 147.54 409.46 147.28 409.77 146.94L410.09 146.6L410.74 145.88C410.86 145.75 410.98 145.61 411.09 145.47C411.2 145.33 411.48 145 411.66 144.77L412 144.33C412.06 144.24 412.14 144.16 412.2 144.06C412.26 143.96 412.34 143.85 412.42 143.75C412.62 143.46 412.82 143.16 413.01 142.86C413.2 142.56 413.25 142.5 413.36 142.31C413.47 142.12 413.74 141.68 413.92 141.31C414.02 141.14 414.12 140.96 414.21 140.78C414.42 140.39 414.61 139.99 414.8 139.59C414.85 139.47 414.91 139.36 414.97 139.24C415.2 138.71 415.43 138.17 415.63 137.62V137.55C415.72 137.31 415.8 137.07 415.89 136.82L416.13 136.11C416.27 135.72 416.35 135.44 416.43 135.16Z" fill="#BE0045" stroke="black" stroke-miterlimit="10"/>
<path d="M411.84 127.58V144.23C410.816 145.615 409.657 146.894 408.38 148.05C407.91 148.48 407.43 148.88 406.94 149.28V132.63C407.43 132.24 407.94 131.83 408.38 131.41C409.657 130.251 410.816 128.968 411.84 127.58Z" fill="#BE0045" stroke="black" stroke-miterlimit="10"/>
<path d="M354.33 126.43V143.29C355.35 144.696 356.51 145.996 357.79 147.17C358.26 147.6 358.74 148.01 359.23 148.41V131.54C358.74 131.15 358.23 130.73 357.79 130.3C356.507 129.132 355.348 127.835 354.33 126.43Z" fill="#BE0045" stroke="black" stroke-miterlimit="10"/>
<path d="M501.09 59.1699H463.16V76.0399H501.09V59.1699Z" fill="#BE0045" stroke="black" stroke-miterlimit="10"/>
<path d="M496.7 97.5698H463.16V114.44H496.7V97.5698Z" fill="#BE0045" stroke="black" stroke-miterlimit="10"/>
<path d="M501.09 138.35H438.12V155.22H501.09V138.35Z" fill="#BE0045" stroke="black" stroke-miterlimit="10"/>
<path d="M613.56 70.6299H586.03V86.1799H613.56V70.6299Z" fill="#BE0045" stroke="black" stroke-miterlimit="10"/>
<path d="M577.32 61.9999C573.358 59.9608 568.955 58.9304 564.5 58.9999H563.18H562.77L561.88 59.0599H561.42L560.59 59.1499L560.14 59.1999L559.28 59.3299L558.91 59.3899C558.51 59.4599 558.11 59.5299 557.72 59.6199H557.58L556.58 59.8699L556.2 59.9699L555.44 60.1999L555.03 60.3299L554.31 60.5899L553.92 60.7299L553.14 61.0499L552.85 61.1699L551.85 61.6599L551.67 61.7599C551.39 61.8999 551.12 62.0399 550.85 62.1999L550.51 62.3899L549.86 62.7899L549.51 63.0199C549.3 63.1499 549.09 63.2899 548.89 63.4399L548.56 63.6699L548.41 63.7799C548.34 63.8299 548.28 63.8899 548.2 63.9399L547.29 64.6699L546.96 64.9599C546.57 65.2899 546.19 65.6399 545.83 65.9599C545.47 66.2799 545.2 66.6099 544.9 66.9599L544.61 67.2899C544.41 67.5199 544.22 67.7499 544.03 67.9899L543.92 68.1099C543.86 68.1899 543.81 68.2699 543.75 68.3399C543.54 68.6199 543.33 68.9099 543.13 69.1999L542.86 69.5799C542.64 69.9099 542.43 70.2499 542.23 70.5799C542.18 70.6599 542.13 70.7299 542.08 70.8199C541.84 71.2399 541.61 71.6699 541.39 72.0999C541.34 72.2199 541.28 72.3399 541.23 72.4499C541.07 72.7899 540.92 73.1199 540.78 73.4499C540.741 73.5203 540.707 73.5939 540.68 73.6699C540.68 73.7599 540.61 73.8499 540.57 73.9499C540.53 74.0499 540.4 74.3899 540.32 74.6199C540.24 74.8499 540.19 74.9899 540.12 75.1799L539.9 75.8799C539.85 76.0699 539.79 76.2599 539.73 76.4599L539.55 77.1799L539.4 77.7799L539.25 78.5299C539.25 78.7299 539.17 78.9299 539.14 79.1299C539.11 79.3299 539.05 79.6599 539.01 79.9299C538.97 80.1999 538.95 80.3299 538.93 80.5299C538.91 80.7299 538.86 81.0999 538.83 81.3899C538.8 81.6799 538.83 81.7699 538.78 81.9599C538.73 82.1499 538.78 82.6199 538.71 82.9599C538.71 83.1199 538.71 83.2799 538.71 83.4399C538.71 83.9399 538.71 84.4399 538.71 84.9599V100.66C538.71 100.15 538.71 99.6599 538.71 99.1399C538.71 98.9799 538.71 98.8199 538.71 98.6599C538.71 98.3299 538.71 97.9899 538.78 97.6599C538.85 97.3299 538.78 97.2799 538.83 97.0899C538.88 96.8999 538.89 96.5099 538.93 96.2299C538.97 95.9499 538.98 95.8299 539.01 95.6299C539.04 95.4299 539.09 95.0899 539.14 94.8299C539.19 94.5699 539.21 94.4299 539.25 94.2299L539.4 93.4799L539.55 92.8799L539.73 92.1599C539.79 91.9599 539.85 91.7699 539.9 91.5799L540.12 90.8799C540.19 90.6899 540.25 90.4999 540.32 90.3199C540.39 90.1399 540.49 89.8699 540.57 89.6499L540.78 89.1499C540.92 88.7999 541.07 88.4699 541.23 88.1499C541.23 88.0399 541.34 87.9199 541.39 87.7999C541.61 87.3699 541.84 86.9399 542.08 86.5199L542.23 86.2799C542.43 85.9399 542.64 85.5999 542.86 85.2799L543.13 84.8999C543.33 84.6099 543.54 84.3199 543.75 84.0399C543.84 83.9199 543.93 83.7999 544.03 83.6899C544.13 83.5799 544.41 83.2199 544.61 82.9899L544.9 82.6599C545.2 82.3299 545.51 81.9999 545.83 81.6599C546.15 81.3199 546.57 80.9499 546.96 80.6599L547.29 80.3699L548.2 79.6399L548.56 79.3699L548.89 79.1399C549.09 78.9899 549.3 78.8499 549.51 78.7199L549.86 78.4899L550.51 78.0899L550.85 77.8999L551.66 77.4599L551.85 77.3599L552.85 76.8699L553.14 76.7499L553.92 76.4299L554.31 76.2899L555 75.9999L555.41 75.8699L556.17 75.6499L556.55 75.5399L557.55 75.2899H557.69C558.08 75.1999 558.48 75.1299 558.88 75.0599L559.25 74.9999L560.11 74.8699H560.56L561.39 74.7799H561.85L562.74 74.7199H563.15H564.47C568.925 74.6504 573.328 75.6808 577.29 77.7199C580.974 79.6058 584.008 82.5526 586 86.1799V70.6299C584.043 66.944 581.017 63.9358 577.32 61.9999Z" fill="#BE0045" stroke="black" stroke-miterlimit="10"/>
<path d="M613.57 99.5799V115.13C610.801 124.736 604.597 132.989 596.14 138.32C587.473 143.96 577.027 146.783 564.8 146.79C555.553 146.949 546.397 144.935 538.07 140.91C530.537 137.283 524.17 131.619 519.69 124.56C515.244 117.391 512.957 109.094 513.1 100.66V85.1099C512.959 93.5406 515.246 101.834 519.69 109C524.17 116.059 530.537 121.723 538.07 125.35C546.397 129.375 555.553 131.389 564.8 131.23C577 131.23 587.447 128.407 596.14 122.76C604.595 117.431 610.798 109.182 613.57 99.5799Z" fill="#BE0045"/>
<mask id="mask2_254_1445" style="mask-type:luminance" maskUnits="userSpaceOnUse" x="513" y="85" width="101" height="62">
<path d="M613.57 99.5799V115.13C610.801 124.736 604.597 132.989 596.14 138.32C587.473 143.96 577.027 146.783 564.8 146.79C555.553 146.949 546.397 144.935 538.07 140.91C530.537 137.283 524.17 131.619 519.69 124.56C515.244 117.391 512.957 109.094 513.1 100.66V85.1099C512.959 93.5406 515.246 101.834 519.69 109C524.17 116.059 530.537 121.723 538.07 125.35C546.397 129.375 555.553 131.389 564.8 131.23C577 131.23 587.447 128.407 596.14 122.76C604.595 117.431 610.798 109.182 613.57 99.5799Z" fill="white"/>
</mask>
<g mask="url(#mask2_254_1445)">
<path d="M606.44 113.49V129C604.164 131.866 601.517 134.419 598.57 136.59V121.08C601.517 118.909 604.164 116.356 606.44 113.49Z" fill="#BE0045" stroke="black" stroke-miterlimit="10"/>
<path d="M598.57 121.08V136.63C597.79 137.21 596.98 137.78 596.14 138.32C587.473 143.96 577.027 146.783 564.8 146.79C555.553 146.949 546.397 144.935 538.07 140.91C530.537 137.283 524.17 131.619 519.69 124.56C515.244 117.391 512.957 109.094 513.1 100.66V85.1099C512.959 93.5406 515.246 101.834 519.69 109C524.17 116.059 530.537 121.723 538.07 125.35C546.397 129.375 555.553 131.389 564.8 131.23C577 131.23 587.447 128.407 596.14 122.76C596.98 122.22 597.79 121.65 598.57 121.07" fill="#BE0045"/>
<path d="M598.57 121.08V136.63C597.79 137.21 596.98 137.78 596.14 138.32C587.473 143.96 577.027 146.783 564.8 146.79C555.553 146.949 546.397 144.935 538.07 140.91C530.537 137.283 524.17 131.619 519.69 124.56C515.244 117.391 512.957 109.094 513.1 100.66V85.1099C512.959 93.5406 515.246 101.834 519.69 109C524.17 116.059 530.537 121.723 538.07 125.35C546.397 129.375 555.553 131.389 564.8 131.23C577 131.23 587.447 128.407 596.14 122.76C596.98 122.22 597.79 121.65 598.57 121.07" stroke="black" stroke-miterlimit="10"/>
</g>
<path d="M613.57 99.5799V115.13C610.801 124.736 604.597 132.989 596.14 138.32C587.473 143.96 577.027 146.783 564.8 146.79C555.553 146.949 546.397 144.935 538.07 140.91C530.537 137.283 524.17 131.619 519.69 124.56C515.244 117.391 512.957 109.094 513.1 100.66V85.1099C512.959 93.5406 515.246 101.834 519.69 109C524.17 116.059 530.537 121.723 538.07 125.35C546.397 129.375 555.553 131.389 564.8 131.23C577 131.23 587.447 128.407 596.14 122.76C604.595 117.431 610.798 109.182 613.57 99.5799Z" stroke="black" stroke-miterlimit="10"/>
<path d="M702.9 59.1699H675.66V76.0399H702.9V59.1699Z" fill="#BE0045" stroke="black" stroke-miterlimit="10"/>
<path d="M650.62 59.1699H623.38V76.0399H650.62V59.1699Z" fill="#BE0045" stroke="black" stroke-miterlimit="10"/>
<path d="M675.66 138.35H650.62V155.22H675.66V138.35Z" fill="#BE0045" stroke="black" stroke-miterlimit="10"/>
<path d="M788.86 68H761.77V84.87H788.86V68Z" fill="#BE0045" stroke="black" stroke-miterlimit="10"/>
<path d="M758.11 60.4998C755.638 58.6066 752.581 57.6405 749.47 57.7698C749.09 57.7698 748.73 57.7698 748.37 57.7698C748.25 57.7698 748.14 57.7698 748.02 57.7698L747.33 57.8398L746.93 57.9098L746.34 58.0198L745.94 58.1198L745.4 58.2698L745.01 58.4098C744.85 58.4698 744.68 58.5198 744.52 58.5898L744.14 58.7598L743.69 58.9798C743.57 59.0398 743.46 59.1198 743.34 59.1898L742.92 59.4398C742.81 59.5098 742.7 59.5998 742.59 59.6798L742.26 59.9198L742.15 60.0098C741.915 60.2034 741.691 60.4104 741.48 60.6298C741.422 60.7108 741.359 60.7877 741.29 60.8598C741.16 61.0098 741.03 61.1598 740.91 61.3198L740.8 61.4998C740.67 61.6898 740.54 61.8898 740.43 62.0898C740.32 62.2898 740.33 62.2998 740.28 62.4098C740.187 62.5884 740.103 62.772 740.03 62.9598L739.97 63.0798C739.97 63.1898 739.9 63.3098 739.86 63.4198C739.82 63.5298 739.78 63.6598 739.75 63.7798C739.72 63.8998 739.66 64.1398 739.62 64.3198C739.58 64.4998 739.57 64.5598 739.55 64.6798C739.53 64.7998 739.49 65.0998 739.46 65.3198C739.43 65.5398 739.46 65.5198 739.46 65.6298C739.46 65.9598 739.46 66.2998 739.46 66.6298V83.5998C739.46 83.2598 739.46 82.9198 739.46 82.5998C739.46 82.4898 739.46 82.3898 739.46 82.2798C739.46 82.1698 739.46 81.8498 739.55 81.6398C739.64 81.4298 739.6 81.4098 739.62 81.2898C739.64 81.1698 739.7 80.9198 739.75 80.7498C739.8 80.5798 739.82 80.5098 739.86 80.3898C739.9 80.2698 739.97 80.0798 740.03 79.9298C740.103 79.7387 740.187 79.5518 740.28 79.3698C740.28 79.2698 740.37 79.1598 740.43 79.0598C740.49 78.9598 740.67 78.6598 740.8 78.4598C740.847 78.3988 740.89 78.3354 740.93 78.2698C741.049 78.11 741.176 77.9565 741.31 77.8098L741.5 77.5798C741.709 77.3578 741.933 77.1506 742.17 76.9598C742.31 76.8398 742.46 76.7398 742.6 76.6298L742.94 76.3798L743.36 76.1298L743.71 75.9198L744.16 75.7098L744.54 75.5298L745.03 75.3498L745.42 75.2098L745.96 75.0698L746.36 74.9698C746.555 74.9226 746.752 74.8859 746.95 74.8598L747.35 74.7898L748.04 74.7198H748.39C748.75 74.7198 749.11 74.7198 749.49 74.7198C752.601 74.5905 755.658 75.5566 758.13 77.4498C759.244 78.3626 760.148 79.5053 760.78 80.7997C761.412 82.0942 761.756 83.5098 761.79 84.9498V67.9998C761.754 66.5583 761.406 65.1416 760.771 63.8471C760.136 62.5525 759.228 61.4107 758.11 60.4998Z" fill="#BE0045" stroke="black" stroke-miterlimit="10"/>
<path d="M764 110.88V127.75C764.026 126.625 763.811 125.507 763.37 124.473C762.928 123.438 762.27 122.509 761.44 121.75C759.591 120.082 757.462 118.755 755.15 117.83C751.675 116.473 748.13 115.305 744.53 114.33C738.976 112.759 733.542 110.791 728.27 108.44C724.023 106.441 720.311 103.463 717.44 99.7499C714.413 95.9232 712.9 90.9232 712.9 84.7499V67.8599C712.9 74.0199 714.41 79.0299 717.44 82.8599C720.309 86.5753 724.021 89.5542 728.27 91.5499C733.538 93.9096 738.973 95.8782 744.53 97.4399C748.129 98.4193 751.674 99.5875 755.15 100.94C757.464 101.865 759.594 103.196 761.44 104.87C762.273 105.629 762.933 106.559 763.375 107.596C763.817 108.633 764.03 109.753 764 110.88Z" fill="#BE0045"/>
<mask id="mask3_254_1445" style="mask-type:luminance" maskUnits="userSpaceOnUse" x="712" y="67" width="53" height="61">
<path d="M764 110.88V127.75C764.026 126.625 763.811 125.507 763.37 124.473C762.928 123.438 762.27 122.509 761.44 121.75C759.591 120.082 757.462 118.755 755.15 117.83C751.675 116.473 748.13 115.305 744.53 114.33C738.976 112.759 733.542 110.791 728.27 108.44C724.023 106.441 720.311 103.463 717.44 99.7499C714.413 95.9232 712.9 90.9232 712.9 84.7499V67.8599C712.9 74.0199 714.41 79.0299 717.44 82.8599C720.309 86.5753 724.021 89.5542 728.27 91.5499C733.538 93.9096 738.973 95.8782 744.53 97.4399C748.129 98.4193 751.674 99.5875 755.15 100.94C757.464 101.865 759.594 103.196 761.44 104.87C762.273 105.629 762.933 106.559 763.375 107.596C763.817 108.633 764.03 109.753 764 110.88Z" fill="white"/>
</mask>
<g mask="url(#mask3_254_1445)">
<path d="M764 110.88V127.75C764.026 126.625 763.811 125.507 763.37 124.473C762.928 123.438 762.27 122.509 761.44 121.75C759.591 120.082 757.462 118.755 755.15 117.83C751.675 116.473 748.13 115.305 744.53 114.33C738.976 112.759 733.542 110.791 728.27 108.44C724.023 106.441 720.311 103.463 717.44 99.7499C714.413 95.9232 712.9 90.9232 712.9 84.7499V67.8599C712.9 74.0199 714.41 79.0299 717.44 82.8599C720.309 86.5753 724.021 89.5542 728.27 91.5499C733.538 93.9096 738.973 95.8782 744.53 97.4399C748.129 98.4193 751.674 99.5875 755.15 100.94C757.464 101.865 759.594 103.196 761.44 104.87C762.272 105.628 762.931 106.556 763.373 107.591C763.814 108.627 764.028 109.745 764 110.87" fill="#BE0045"/>
<path d="M764 110.88V127.75C764.026 126.625 763.811 125.507 763.37 124.473C762.928 123.438 762.27 122.509 761.44 121.75C759.591 120.082 757.462 118.755 755.15 117.83C751.675 116.473 748.13 115.305 744.53 114.33C738.976 112.759 733.542 110.791 728.27 108.44C724.023 106.441 720.311 103.463 717.44 99.7499C714.413 95.9232 712.9 90.9232 712.9 84.7499V67.8599C712.9 74.0199 714.41 79.0299 717.44 82.8599C720.309 86.5753 724.021 89.5542 728.27 91.5499C733.538 93.9096 738.973 95.8782 744.53 97.4399C748.129 98.4193 751.674 99.5875 755.15 100.94C757.464 101.865 759.594 103.196 761.44 104.87C762.272 105.628 762.931 106.556 763.373 107.591C763.814 108.627 764.028 109.745 764 110.87" stroke="black" stroke-miterlimit="10"/>
</g>
<path d="M764 110.88V127.75C764.026 126.625 763.811 125.507 763.37 124.473C762.928 123.438 762.27 122.509 761.44 121.75C759.591 120.082 757.462 118.755 755.15 117.83C751.675 116.473 748.13 115.305 744.53 114.33C738.976 112.759 733.542 110.791 728.27 108.44C724.023 106.441 720.311 103.463 717.44 99.7499C714.413 95.9232 712.9 90.9232 712.9 84.7499V67.8599C712.9 74.0199 714.41 79.0299 717.44 82.8599C720.309 86.5753 724.021 89.5542 728.27 91.5499C733.538 93.9096 738.973 95.8782 744.53 97.4399C748.129 98.4193 751.674 99.5875 755.15 100.94C757.464 101.865 759.594 103.196 761.44 104.87C762.273 105.629 762.933 106.559 763.375 107.596C763.817 108.633 764.03 109.753 764 110.88Z" stroke="black" stroke-miterlimit="10"/>
<path d="M790.18 109.06V125.93C790.233 131.353 788.677 136.67 785.71 141.21C782.483 145.996 777.979 149.782 772.71 152.14C767.05 154.847 760.363 156.2 752.65 156.2C745.754 156.309 738.898 155.122 732.44 152.7C726.821 150.609 721.883 147.019 718.16 142.32C714.534 137.569 712.554 131.766 712.52 125.79V108.92C712.554 114.899 714.534 120.705 718.16 125.46C721.883 130.156 726.822 133.743 732.44 135.83C738.897 138.256 745.753 139.444 752.65 139.33C760.357 139.33 767.043 137.977 772.71 135.27C777.979 132.912 782.483 129.126 785.71 124.34C788.678 119.801 790.234 114.483 790.18 109.06Z" fill="#BE0045"/>
<mask id="mask4_254_1445" style="mask-type:luminance" maskUnits="userSpaceOnUse" x="712" y="108" width="79" height="49">
<path d="M790.18 109.06V125.93C790.233 131.353 788.677 136.67 785.71 141.21C782.483 145.996 777.979 149.782 772.71 152.14C767.05 154.847 760.363 156.2 752.65 156.2C745.754 156.309 738.898 155.122 732.44 152.7C726.821 150.609 721.883 147.019 718.16 142.32C714.534 137.569 712.554 131.766 712.52 125.79V108.92C712.554 114.899 714.534 120.705 718.16 125.46C721.883 130.156 726.822 133.743 732.44 135.83C738.897 138.256 745.753 139.444 752.65 139.33C760.357 139.33 767.043 137.977 772.71 135.27C777.979 132.912 782.483 129.126 785.71 124.34C788.678 119.801 790.234 114.483 790.18 109.06Z" fill="white"/>
</mask>
<g mask="url(#mask4_254_1445)">
<path d="M784.9 125.52V142.38C783.413 144.408 781.669 146.233 779.71 147.81V130.94C781.671 129.369 783.416 127.547 784.9 125.52Z" fill="#BE0045" stroke="black" stroke-miterlimit="10"/>
<path d="M779.71 130.94V147.81C777.551 149.517 775.202 150.97 772.71 152.14C767.05 154.847 760.363 156.2 752.65 156.2C745.754 156.309 738.898 155.122 732.44 152.7C726.821 150.609 721.883 147.019 718.16 142.32C714.534 137.569 712.554 131.766 712.52 125.79V108.92C712.554 114.899 714.534 120.705 718.16 125.46C721.883 130.156 726.822 133.743 732.44 135.83C738.897 138.256 745.753 139.444 752.65 139.33C760.357 139.33 767.043 137.977 772.71 135.27C775.204 134.104 777.553 132.651 779.71 130.94Z" fill="#BE0045" stroke="black" stroke-miterlimit="10"/>
</g>
<path d="M790.18 109.06V125.93C790.233 131.353 788.677 136.67 785.71 141.21C782.483 145.996 777.979 149.782 772.71 152.14C767.05 154.847 760.363 156.2 752.65 156.2C745.754 156.309 738.898 155.122 732.44 152.7C726.821 150.609 721.883 147.019 718.16 142.32C714.534 137.569 712.554 131.766 712.52 125.79V108.92C712.554 114.899 714.534 120.705 718.16 125.46C721.883 130.156 726.822 133.743 732.44 135.83C738.897 138.256 745.753 139.444 752.65 139.33C760.357 139.33 767.043 137.977 772.71 135.27C777.979 132.912 782.483 129.126 785.71 124.34C788.678 119.801 790.234 114.483 790.18 109.06Z" stroke="black" stroke-miterlimit="10"/>
<path d="M125.6 55.1799C128.488 60.1557 129.958 65.8276 129.85 71.5799C129.906 77.0597 128.49 82.4539 125.75 87.1999C122.76 92.1552 118.383 96.1255 113.16 98.6199C107.493 101.54 100.463 103 92.07 103H76.54V138.32H51.5V39.8999H92.07C100.27 39.8999 107.2 41.2666 112.86 43.9999C118.135 46.3595 122.575 50.256 125.6 55.1799ZM100.85 80.6799C103.19 78.5399 104.363 75.5066 104.37 71.5799C104.37 67.6499 103.19 64.5799 100.85 62.4599C98.51 60.3399 95 59.2399 90.16 59.2399H76.54V83.9099H90.16C94.9533 83.9099 98.5167 82.8332 100.85 80.6799Z" fill="#BCFF87" stroke="black" stroke-miterlimit="10"/>
<path d="M199.85 99.3199L223.58 138.32H195.31L173.93 101.15H167.93V138.29H142.88V39.8999H184.88C192.993 39.8999 199.903 41.2566 205.61 43.9699C210.902 46.3118 215.366 50.1938 218.42 55.1099C221.264 59.8738 222.735 65.3318 222.67 70.8799C222.742 77.1983 220.705 83.3602 216.88 88.3899C213.053 93.5299 207.377 97.1732 199.85 99.3199ZM193.77 80.9999C196.07 78.8532 197.22 75.8132 197.22 71.8799C197.313 70.2391 197.054 68.5974 196.459 67.0655C195.863 65.5336 194.947 64.1472 193.77 62.9999C191.477 60.8466 188.037 59.7699 183.45 59.7699H167.93V84.1899H183.45C188.037 84.1899 191.477 83.1166 193.77 80.9699" fill="#BCFF87"/>
<path d="M193.77 80.9999C196.07 78.8532 197.22 75.8132 197.22 71.8799C197.313 70.2391 197.054 68.5974 196.459 67.0655C195.863 65.5336 194.947 64.1472 193.77 62.9999C191.477 60.8466 188.037 59.7699 183.45 59.7699H167.93V84.1899H183.45C188.037 84.1899 191.477 83.1166 193.77 80.9699M199.85 99.3199L223.58 138.32H195.31L173.93 101.15H167.93V138.29H142.88V39.8999H184.88C192.993 39.8999 199.903 41.2566 205.61 43.9699C210.902 46.3118 215.366 50.1938 218.42 55.1099C221.264 59.8738 222.735 65.3318 222.67 70.8799C222.742 77.1983 220.705 83.3602 216.88 88.3899C213.053 93.5299 207.377 97.1732 199.85 99.3199Z" stroke="black" stroke-miterlimit="10"/>
<path d="M332.61 62.8898C337.288 70.7172 339.694 79.6922 339.56 88.8098C339.688 97.8333 337.321 106.717 332.721 114.481C328.121 122.245 321.466 128.588 313.49 132.81C305.283 137.042 296.184 139.249 286.95 139.249C277.717 139.249 268.617 137.042 260.41 132.81C252.502 128.657 245.87 122.436 241.22 114.81C236.455 106.983 233.994 97.9718 234.12 88.8098C233.989 79.6723 236.451 70.6848 241.22 62.8898C245.893 55.3099 252.522 49.1298 260.41 44.9998C268.629 40.7619 277.743 38.5508 286.99 38.5508C296.238 38.5508 305.351 40.7619 313.57 44.9998C321.434 49.1097 328.019 55.2975 332.61 62.8898ZM306.69 109.55C311.61 104.33 314.074 97.4165 314.08 88.8098C314.087 80.2031 311.624 73.2665 306.69 67.9998C301.75 62.8198 295.184 60.2265 286.99 60.2198C278.69 60.2198 272.074 62.7898 267.14 67.9298C262.207 73.0698 259.744 80.0298 259.75 88.8098C259.75 97.4765 262.214 104.413 267.14 109.62C272.067 114.826 278.687 117.42 287 117.4C295.2 117.4 301.767 114.783 306.7 109.55" fill="#BCFF87"/>
<path d="M306.69 109.55C311.61 104.33 314.074 97.4165 314.08 88.8098C314.087 80.2031 311.624 73.2665 306.69 67.9998C301.75 62.8198 295.184 60.2265 286.99 60.2198C278.69 60.2198 272.074 62.7898 267.14 67.9298C262.207 73.0698 259.744 80.0298 259.75 88.8098C259.75 97.4765 262.214 104.413 267.14 109.62C272.067 114.826 278.687 117.42 287 117.4C295.2 117.4 301.767 114.783 306.7 109.55M332.61 62.8898C337.288 70.7172 339.694 79.6922 339.56 88.8098C339.688 97.8333 337.321 106.717 332.721 114.481C328.121 122.245 321.466 128.588 313.49 132.81C305.283 137.042 296.184 139.249 286.95 139.249C277.717 139.249 268.617 137.042 260.41 132.81C252.502 128.657 245.87 122.436 241.22 114.81C236.455 106.983 233.994 97.9718 234.12 88.8098C233.989 79.6723 236.451 70.6848 241.22 62.8898C245.893 55.3099 252.522 49.1298 260.41 44.9998C268.629 40.7619 277.743 38.5508 286.99 38.5508C296.238 38.5508 305.351 40.7619 313.57 44.9998C321.434 49.1097 328.019 55.2975 332.61 62.8898Z" stroke="black" stroke-miterlimit="10"/>
<path d="M384.08 138.77C373.42 138.77 364.76 135.84 358.35 130.06C351.94 124.28 348.8 116.25 348.7 105.85H372.6C372.67 109.85 373.6 112.9 375.35 114.99C377.1 117.08 379.89 118.32 383.35 118.32C384.728 118.392 386.105 118.161 387.384 117.643C388.663 117.124 389.812 116.331 390.75 115.32C392.49 113.37 393.37 110.53 393.37 106.86V40.3999H417.37V106.89C417.37 117.07 414.37 125.01 408.37 130.49C402.37 135.97 394.26 138.77 384.08 138.77Z" fill="#BCFF87"/>
<path d="M416.91 40.8999V106.9C416.91 116.9 413.91 124.75 408.08 130.13C402.25 135.51 394.13 138.27 384.08 138.27C373.55 138.27 365 135.39 358.68 129.7C352.59 124.22 349.41 116.38 349.21 106.36H372.12C372.25 110.22 373.21 113.23 374.97 115.36C376.92 117.69 379.74 118.88 383.35 118.88C384.798 118.957 386.244 118.715 387.588 118.173C388.933 117.63 390.142 116.8 391.13 115.74C392.95 113.74 393.87 110.74 393.87 106.94V40.8999H416.87M417.87 39.8999H392.87V106.9C392.87 110.46 392.04 113.16 390.38 115.03C389.49 115.982 388.402 116.727 387.192 117.212C385.983 117.698 384.681 117.912 383.38 117.84C380.06 117.84 377.52 116.78 375.77 114.68C374.02 112.58 373.13 109.47 373.13 105.36H348.2C348.2 116.2 351.47 124.563 358.01 130.45C364.55 136.337 373.24 139.277 384.08 139.27C394.434 139.27 402.66 136.47 408.76 130.87C414.86 125.27 417.91 117.27 417.91 106.87V39.8999H417.87Z" fill="black"/>
<path d="M438.62 137.79V40.3999H500.59V58.5999H462.66V79.4999H496.2V96.9999H462.66V119.59H500.59V137.79H438.62Z" fill="#BCFF87"/>
<path d="M500.09 40.8999V58.0999H462.16V79.9999H495.7V96.4999H462.16V120.09H500.09V137.29H439.09V40.8999H500.09ZM501.09 39.8999H438.09V138.29H501.09V119.09H463.16V97.4999H496.7V78.9999H463.16V59.0999H501.09V39.8999Z" fill="black"/>
<path d="M564.8 130.67C555.63 130.821 546.551 128.824 538.29 124.84C530.848 121.248 524.556 115.652 520.12 108.68C515.721 101.575 513.458 93.3553 513.6 85.0001C513.47 76.6402 515.732 68.4172 520.12 61.3001C524.547 54.313 530.841 48.7047 538.29 45.1101C546.552 41.1284 555.63 39.132 564.8 39.2801C576.8 39.2801 587.29 42.1201 595.87 47.7301C604.006 52.9263 610.031 60.8438 612.87 70.0701H586.33C584.316 66.3998 581.261 63.4075 577.55 61.4701C573.526 59.4267 569.063 58.3969 564.55 58.4701C556.74 58.4701 550.31 60.9101 545.46 65.7201C540.61 70.5301 538.08 77.0001 538.08 85.0001C538.08 93.0001 540.55 99.5401 545.41 104.35C550.27 109.16 556.69 111.6 564.5 111.6C569.013 111.676 573.476 110.646 577.5 108.6C581.211 106.663 584.266 103.671 586.28 100H612.84C610.008 109.212 603.979 117.11 595.84 122.27C587.29 127.85 576.84 130.67 564.8 130.67Z" fill="#BCFF87"/>
<path d="M564.8 39.7802C576.74 39.7802 587.1 42.5902 595.59 48.1402C603.441 53.1446 609.312 60.719 612.2 69.5702H586.62C584.562 65.9207 581.492 62.9445 577.78 61.0002C573.671 58.9068 569.112 57.8495 564.5 57.9202C556.55 57.9202 550.01 60.4102 545.05 65.3102C540.09 70.2102 537.58 76.8702 537.58 85.0002C537.58 93.1302 540.1 99.8002 545.05 104.7C550 109.6 556.55 112.1 564.5 112.1C569.116 112.174 573.68 111.113 577.79 109.01C581.496 107.075 584.562 104.109 586.62 100.47H612.2C609.319 109.304 603.444 116.855 595.59 121.82C587.11 127.33 576.74 130.13 564.8 130.13C555.709 130.283 546.708 128.303 538.52 124.35C531.146 120.8 524.911 115.258 520.52 108.35C516.195 101.34 513.967 93.2369 514.1 85.0002C513.974 76.7335 516.208 68.6022 520.54 61.5602C524.928 54.6508 531.164 49.1082 538.54 45.5602C546.724 41.6159 555.716 39.6367 564.8 39.7802ZM564.8 38.7802C555.553 38.621 546.397 40.635 538.07 44.6602C530.525 48.2971 524.156 53.9839 519.69 61.0702C515.243 68.2752 512.956 76.6046 513.1 85.0702C512.957 93.5044 515.244 101.802 519.69 108.97C524.17 116.03 530.537 121.693 538.07 125.32C546.397 129.345 555.553 131.36 564.8 131.2C577 131.2 587.447 128.377 596.14 122.73C604.598 117.402 610.798 109.147 613.56 99.5402H586C584.041 103.243 581.004 106.263 577.29 108.2C573.329 110.239 568.925 111.27 564.47 111.2C556.763 111.2 550.517 108.83 545.73 104.09C540.944 99.3502 538.55 93.0169 538.55 85.0902C538.55 77.1569 540.944 70.8236 545.73 66.0902C550.517 61.3569 556.763 58.9902 564.47 58.9902C568.925 58.9208 573.329 59.9512 577.29 61.9902C580.992 63.9065 584.028 66.8974 586 70.5702H613.53C610.766 60.9548 604.581 52.6821 596.14 47.3102C587.44 41.6236 576.993 38.7802 564.8 38.7802Z" fill="black"/>
<path d="M651.12 137.79V58.5999H623.88V40.3999H702.4V58.5999H675.16V137.79H651.12Z" fill="#BCFF87"/>
<path d="M701.9 40.8999V58.0999H674.66V137.29H651.66V58.0999H624.38V40.8999H701.9ZM702.9 39.8999H623.38V59.0999H650.62V138.29H675.62V59.0999H702.9V39.8999Z" fill="black"/>
<path d="M752.69 138.77C745.865 138.869 739.082 137.692 732.69 135.3C727.158 133.236 722.293 129.703 718.62 125.08C715.17 120.549 713.242 115.043 713.11 109.35H738.8C739.063 112.51 740.522 115.45 742.88 117.57C745.447 119.644 748.683 120.711 751.98 120.57C755.79 120.57 758.85 119.71 761.07 118.01C762.179 117.177 763.069 116.088 763.664 114.836C764.26 113.584 764.543 112.206 764.49 110.82C764.52 109.622 764.293 108.432 763.824 107.33C763.355 106.227 762.654 105.238 761.77 104.43C759.878 102.725 757.697 101.371 755.33 100.43C751.837 99.0723 748.275 97.8974 744.66 96.91C739.116 95.3383 733.695 93.363 728.44 91C724.268 89.0306 720.619 86.1047 717.79 82.46C714.85 78.74 713.36 73.8 713.36 67.77C713.36 58.82 716.78 51.77 723.55 46.66C730.32 41.55 739.38 39 750.34 39C761.5 39 770.62 41.58 777.43 46.68C784.08 51.68 787.74 58.68 788.33 67.43H762.23C762.144 65.9952 761.761 64.594 761.105 63.315C760.449 62.036 759.535 60.9072 758.42 60C755.859 58.0393 752.693 57.0348 749.47 57.16C746.715 57.0354 744.006 57.8969 741.83 59.59C740.829 60.451 740.039 61.5293 739.519 62.7425C738.999 63.9557 738.763 65.2717 738.83 66.59C738.83 69.95 740.49 72.59 743.77 74.45C747.05 76.31 751.87 78.19 758.51 80.24C764.004 81.9534 769.388 84.0039 774.63 86.38C778.752 88.3488 782.373 91.2278 785.22 94.8C788.16 98.42 789.65 103.17 789.65 108.92C789.697 114.243 788.17 119.462 785.26 123.92C782.093 128.62 777.678 132.343 772.51 134.67C767 137.42 760.3 138.77 752.69 138.77Z" fill="#BCFF87"/>
<path d="M750.34 39.5C761.34 39.5 770.4 42.05 777.13 47.08C783.52 51.86 787.13 58.53 787.79 66.93H762.68C762.379 64.0784 760.963 61.4614 758.74 59.65C756.087 57.6196 752.809 56.5766 749.47 56.7C746.586 56.565 743.748 57.4659 741.47 59.24C740.413 60.1562 739.58 61.302 739.034 62.5899C738.488 63.8777 738.244 65.2733 738.32 66.67C738.32 70.22 740.07 73.01 743.51 74.97C748.248 77.3964 753.216 79.3459 758.34 80.79C763.818 82.4995 769.185 84.5468 774.41 86.92C778.463 88.8498 782.024 91.6781 784.82 95.19C787.69 98.73 789.14 103.37 789.14 109C789.185 114.227 787.686 119.352 784.83 123.73C781.721 128.345 777.39 132.005 772.32 134.3C766.83 136.93 760.22 138.3 752.69 138.3C745.917 138.406 739.185 137.243 732.84 134.87C727.403 132.853 722.615 129.397 718.99 124.87C715.704 120.565 713.825 115.352 713.61 109.94H738.34C738.689 113.063 740.177 115.947 742.52 118.04C745.205 120.172 748.576 121.25 752 121.07C755.92 121.07 759.08 120.17 761.4 118.41C762.572 117.533 763.513 116.383 764.14 115.061C764.767 113.738 765.062 112.283 765 110.82C765.03 109.553 764.789 108.294 764.292 107.128C763.795 105.962 763.055 104.916 762.12 104.06C760.188 102.303 757.956 100.908 755.53 99.94C752.023 98.5704 748.445 97.392 744.81 96.41C739.304 94.8528 733.916 92.9011 728.69 90.57C724.59 88.6299 721.003 85.7524 718.22 82.17C715.35 78.54 713.9 73.71 713.9 67.79C713.9 59.01 717.26 52.04 723.9 47.08C730.54 42.12 739.49 39.5 750.34 39.5ZM750.34 38.5C739.22 38.5 730.19 41.0933 723.25 46.28C716.31 51.4667 712.847 58.6367 712.86 67.79C712.86 73.9633 714.373 78.9633 717.4 82.79C720.269 86.5027 723.982 89.4782 728.23 91.47C733.498 93.8297 738.933 95.7984 744.49 97.36C748.088 98.344 751.632 99.5123 755.11 100.86C757.422 101.789 759.552 103.119 761.4 104.79C762.23 105.549 762.889 106.478 763.33 107.513C763.772 108.548 763.986 109.665 763.96 110.79C764.017 112.1 763.753 113.404 763.192 114.589C762.631 115.774 761.789 116.804 760.74 117.59C758.6 119.217 755.67 120.033 751.95 120.04C748.769 120.188 745.645 119.163 743.17 117.16C740.923 115.253 739.607 112.473 739.22 108.82H712.56C712.592 114.8 714.572 120.607 718.2 125.36C721.92 130.059 726.86 133.647 732.48 135.73C738.937 138.156 745.793 139.344 752.69 139.23C760.397 139.23 767.083 137.877 772.75 135.17C778.021 132.816 782.526 129.029 785.75 124.24C788.697 119.708 790.239 114.406 790.18 109C790.18 103.107 788.667 98.2933 785.64 94.56C782.749 90.9271 779.07 87.9999 774.88 86C769.616 83.6121 764.209 81.5515 758.69 79.83C752.023 77.7767 747.143 75.8633 744.05 74.09C740.957 72.3167 739.393 69.84 739.36 66.66C739.284 65.4103 739.496 64.1598 739.979 63.0051C740.463 61.8503 741.206 60.8221 742.15 60C744.236 58.3816 746.833 57.5624 749.47 57.69C752.581 57.5607 755.638 58.5268 758.11 60.42C759.224 61.3328 760.128 62.4755 760.76 63.77C761.392 65.0644 761.736 66.4801 761.77 67.92H788.86C788.367 58.6733 784.657 51.4567 777.73 46.27C770.803 41.0833 761.673 38.4933 750.34 38.5Z" fill="black"/>
<path d="M243.51 118.26V135.12C246.02 138.583 248.98 141.697 252.31 144.38V127.51C248.98 124.83 246.021 121.72 243.51 118.26Z" fill="#BE0045" stroke="black" stroke-miterlimit="10"/>
<path d="M330.22 118.26V135.12C327.707 138.58 324.748 141.694 321.42 144.38V127.51C324.747 124.827 327.706 121.717 330.22 118.26Z" fill="#BE0045" stroke="black" stroke-miterlimit="10"/>
<path d="M718.51 125.86V142.38C719.997 144.41 721.746 146.236 723.71 147.81V130.94C721.753 129.492 720.003 127.783 718.51 125.86Z" fill="#BE0045" stroke="black" stroke-miterlimit="10"/>
<path d="M522.54 113V128.53C524.815 131.397 527.458 133.952 530.4 136.13V120.58C527.458 118.402 524.815 115.847 522.54 112.98" fill="#BE0045"/>
<path d="M522.54 113V128.53C524.815 131.397 527.458 133.952 530.4 136.13V120.58C527.458 118.402 524.815 115.847 522.54 112.98" stroke="black" stroke-miterlimit="10"/>
</g>
<mask id="mask5_254_1445" style="mask-type:alpha" maskUnits="userSpaceOnUse" x="-1" y="-1" width="850" height="182">
<path d="M0 180V0H848V76C364.8 52 81.3333 135.333 0 180Z" fill="#7CCC3D" stroke="black"/>
</mask>
<g mask="url(#mask5_254_1445)">
<path d="M100.85 62.5301C98.51 60.3901 94.9467 59.3167 90.16 59.3101H76.54V76.1801H90.16C94.9534 76.1801 98.5167 77.2534 100.85 79.4001C102.321 80.7627 103.364 82.5245 103.85 84.4701C104.19 85.7759 104.359 87.1206 104.35 88.4701V71.6401C104.363 67.7201 103.197 64.6834 100.85 62.5301Z" fill="#BE0045" stroke="black" stroke-miterlimit="10"/>
<path d="M92.07 103.03H76.54V119.9H92.07V103.03Z" fill="#BE0045" stroke="black" stroke-miterlimit="10"/>
<path d="M129.85 71.6401V88.5101C129.907 93.99 128.491 99.3845 125.75 104.13C122.76 109.088 118.383 113.062 113.16 115.56C107.493 118.46 100.463 119.907 92.0698 119.9V103C100.463 103 107.493 101.553 113.16 98.6601C118.378 96.1738 122.755 92.2143 125.75 87.2701C128.49 82.5205 129.905 77.123 129.85 71.6401Z" fill="#BE0045"/>
<mask id="mask6_254_1445" style="mask-type:luminance" maskUnits="userSpaceOnUse" x="92" y="71" width="38" height="49">
<path d="M129.85 71.6401V88.5101C129.907 93.99 128.491 99.3845 125.75 104.13C122.76 109.088 118.383 113.062 113.16 115.56C107.493 118.46 100.463 119.907 92.0698 119.9V103C100.463 103 107.493 101.553 113.16 98.6601C118.378 96.1738 122.755 92.2143 125.75 87.2701C128.49 82.5205 129.905 77.123 129.85 71.6401Z" fill="white"/>
</mask>
<g mask="url(#mask6_254_1445)">
<path d="M119.23 94.7903V111.66C117.343 113.161 115.309 114.467 113.16 115.56C107.493 118.46 100.463 119.907 92.0698 119.9V103C100.463 103 107.493 101.554 113.16 98.6603C115.313 97.5746 117.347 96.2676 119.23 94.7603" fill="#BE0045"/>
<path d="M119.23 94.7903V111.66C117.343 113.161 115.309 114.467 113.16 115.56C107.493 118.46 100.463 119.907 92.0698 119.9V103C100.463 103 107.493 101.554 113.16 98.6603C115.313 97.5746 117.347 96.2676 119.23 94.7603" stroke="black" stroke-miterlimit="10"/>
</g>
<path d="M129.85 71.6401V88.5101C129.907 93.99 128.491 99.3845 125.75 104.13C122.76 109.088 118.383 113.062 113.16 115.56C107.493 118.46 100.463 119.907 92.0698 119.9V103C100.463 103 107.493 101.553 113.16 98.6601C118.378 96.1738 122.755 92.2143 125.75 87.2701C128.49 82.5205 129.905 77.123 129.85 71.6401Z" stroke="black" stroke-miterlimit="10"/>
<path d="M76.54 138.35H51.5V155.22H76.54V138.35Z" fill="#BE0045" stroke="black" stroke-miterlimit="10"/>
<path d="M193.77 63.0901C191.477 60.9501 188.037 59.8768 183.45 59.8701H167.93V76.7301H183.45C188.037 76.7301 191.477 77.8068 193.77 79.9601C194.94 81.1018 195.853 82.48 196.448 84.0027C197.043 85.5254 197.306 87.1576 197.22 88.7901V71.9201C197.305 70.2877 197.041 68.656 196.446 67.1334C195.852 65.6109 194.939 64.2326 193.77 63.0901Z" fill="#BE0045" stroke="black" stroke-miterlimit="10"/>
<path d="M222.7 70.9399V87.8099C222.772 94.1314 220.735 100.296 216.91 105.33C213.063 110.443 207.377 114.087 199.85 116.26V99.3899C207.37 97.2433 213.057 93.5999 216.91 88.4599C220.735 83.4265 222.772 77.2614 222.7 70.9399Z" fill="#BE0045"/>
<mask id="mask7_254_1445" style="mask-type:luminance" maskUnits="userSpaceOnUse" x="199" y="70" width="24" height="47">
<path d="M222.7 70.9399V87.8099C222.772 94.1314 220.735 100.296 216.91 105.33C213.063 110.443 207.377 114.087 199.85 116.26V99.3899C207.37 97.2433 213.057 93.5999 216.91 88.4599C220.735 83.4265 222.772 77.2614 222.7 70.9399Z" fill="white"/>
</mask>
<g mask="url(#mask7_254_1445)">
<path d="M217.18 88.1001V105L216.91 105.37C215.579 107.137 214.033 108.733 212.31 110.12V93.2101C214.036 91.8251 215.581 90.2293 216.91 88.4601L217.18 88.1001Z" fill="#BE0045" stroke="black" stroke-miterlimit="10"/>
<path d="M212.31 93.21V110.08C208.611 112.951 204.374 115.052 199.85 116.26V99.39C204.378 98.1909 208.616 96.0888 212.31 93.21Z" fill="#BE0045" stroke="black" stroke-miterlimit="10"/>
</g>
<path d="M222.7 70.9399V87.8099C222.772 94.1314 220.735 100.296 216.91 105.33C213.063 110.443 207.377 114.087 199.85 116.26V99.3899C207.37 97.2433 213.057 93.5999 216.91 88.4599C220.735 83.4265 222.772 77.2614 222.7 70.9399Z" stroke="black" stroke-miterlimit="10"/>
<path d="M173.93 101.22H167.93V118.09H173.93V101.22Z" fill="#BE0045" stroke="black" stroke-miterlimit="10"/>
<path d="M167.92 138.35H142.88V155.22H167.92V138.35Z" fill="#BE0045" stroke="black" stroke-miterlimit="10"/>
<path d="M195.31 138.35V155.22L173.93 118.08V101.22L195.31 138.35Z" fill="#BE0045" stroke="black" stroke-miterlimit="10"/>
<path d="M223.58 138.35H195.31V155.22H223.58V138.35Z" fill="#BE0045" stroke="black" stroke-miterlimit="10"/>
<path d="M306.69 68.0701C301.75 62.8767 295.183 60.2834 286.99 60.2901C286.5 60.2901 285.99 60.2901 285.55 60.2901H285.1L284.15 60.3501H283.63L282.77 60.4401L282.25 60.5101L281.4 60.6301L280.92 60.7101L280 61.0001L279.63 61.0801C279.21 61.1701 278.8 61.2801 278.38 61.3901L278.18 61.4501L277.18 61.7501L276.77 61.8901L276 62.1701L275.55 62.3501C275.31 62.4401 275.07 62.5401 274.84 62.6501L274.4 62.8401L273.69 63.1901L273.3 63.3901C273.02 63.5301 272.76 63.6801 272.49 63.8301L272.23 63.9801L271.23 64.6201L270.99 64.7901L270.24 65.3301L269.89 65.5901L269.49 65.9001L269.33 66.0401C269.07 66.2501 268.82 66.4701 268.58 66.6901C268.34 66.9101 268.34 66.8901 268.23 67.0001C267.87 67.3267 267.52 67.6601 267.18 68.0001C266.84 68.3401 266.507 68.72 266.18 69.14L265.88 69.5001C265.66 69.7801 265.44 70.06 265.23 70.35L265.06 70.5601L264.92 70.7701C264.7 71.0701 264.49 71.3801 264.29 71.7001L264.05 72.0601C263.78 72.5001 263.52 72.9401 263.28 73.4001L263.17 73.62C262.96 74 262.77 74.4001 262.59 74.8C262.51 74.95 262.45 75.1101 262.38 75.2701C262.23 75.6001 262.09 75.9501 261.95 76.2701C261.95 76.3701 261.87 76.4601 261.84 76.5601L261.75 76.8001C261.67 77.0401 261.58 77.2801 261.5 77.5301C261.42 77.7801 261.36 77.9401 261.3 78.1501C261.24 78.3601 261.15 78.6501 261.08 78.9101L260.9 79.5501C260.84 79.8101 260.78 80.0701 260.71 80.3401C260.64 80.6101 260.61 80.7701 260.57 80.9901C260.53 81.2101 260.46 81.5401 260.41 81.8201L260.29 82.4701L260.17 83.35L260 84.0001L259.91 84.9501L259.85 85.5801C259.85 85.9301 259.85 86.2901 259.79 86.6501C259.79 86.8401 259.79 87.0101 259.79 87.2001C259.79 87.7501 259.79 88.3001 259.79 88.8601V105.75C259.79 105.19 259.79 104.63 259.79 104.08C259.79 103.9 259.79 103.72 259.79 103.54C259.79 103.18 259.79 102.82 259.85 102.46L259.91 101.84L260 100.84L260.09 100.18L260.21 99.3101L260.33 98.6501C260.38 98.3701 260.43 98.1 260.49 97.82C260.55 97.5401 260.59 97.39 260.63 97.17C260.67 96.95 260.76 96.64 260.82 96.3801L261 95.7401C261.07 95.4901 261.14 95.2401 261.22 94.9901C261.3 94.7401 261.35 94.57 261.42 94.3601L261.67 93.64C261.74 93.46 261.81 93.28 261.87 93.1101C262.01 92.7601 262.15 92.4201 262.3 92.1101C262.37 91.9601 262.43 91.8001 262.51 91.6401C262.69 91.2401 262.88 90.85 263.09 90.4601L263.2 90.2401C263.44 89.7901 263.7 89.3401 263.97 88.9101L264.21 88.5401C264.41 88.2267 264.62 87.9167 264.84 87.6101L265.15 87.1901L265.8 86.35L266.1 85.9801C266.43 85.5901 266.77 85.2101 267.1 84.85C267.43 84.49 267.79 84.15 268.15 83.85L268.5 83.5401C268.74 83.3201 268.99 83.1101 269.25 82.9001L269.81 82.4501L270.16 82.1801L270.91 81.6501L271.16 81.4801C271.49 81.2601 271.83 81.0401 272.16 80.8301L272.42 80.6901L273.23 80.2401L273.62 80.0401L274.33 79.7001L274.77 79.5001L275.48 79.2001L276 79.0001L276.77 78.7201L277.18 78.5801C277.51 78.4701 277.85 78.3701 278.18 78.2801L278.38 78.2201C278.8 78.1001 279.21 78.0001 279.63 77.9101L280.01 77.8301C280.31 77.7701 280.61 77.7001 280.92 77.6501L281.41 77.5701L282.25 77.4401L282.77 77.3801L283.63 77.2901L284.15 77.2401H285.1H285.55H286.99C295.19 77.2401 301.757 79.8334 306.69 85.0201C311.623 90.2067 314.087 97.1434 314.08 105.83V88.8801C314.08 80.1934 311.617 73.2567 306.69 68.0701Z" fill="#BE0045" stroke="black" stroke-miterlimit="10"/>
<path d="M339.56 88.8799V105.75C339.607 111.891 338.54 117.99 336.41 123.75V106.92C338.538 101.159 339.605 95.0608 339.56 88.9199" fill="#BE0045"/>
<path d="M339.56 88.8799V105.75C339.607 111.891 338.54 117.99 336.41 123.75V106.92C338.538 101.159 339.605 95.0608 339.56 88.9199" stroke="black" stroke-miterlimit="10"/>
<path d="M339.56 88.8801C339.614 95.0996 338.523 101.276 336.34 107.1C336.1 107.72 335.86 108.34 335.6 108.95L335.53 109.09C335.29 109.65 335.03 110.21 334.77 110.76L334.5 111.31C334.28 111.75 334.05 112.18 333.82 112.61L333.54 113.14C333.22 113.72 332.88 114.31 332.54 114.88C332.2 115.45 331.86 115.98 331.54 116.52L331.2 117.02C330.95 117.4 330.69 117.77 330.42 118.14L329.99 118.74C329.83 118.95 329.68 119.16 329.52 119.36C329.36 119.56 329.17 119.81 329 120.03C328.83 120.25 328.67 120.44 328.51 120.64L327.97 121.29L327.46 121.88L326.9 122.51L326.37 123.09L325.79 123.69C325.61 123.88 325.43 124.07 325.24 124.25C325.05 124.43 324.84 124.64 324.64 124.84L324.08 125.37L323.46 125.94L322.88 126.46L322.24 127L321.64 127.5L321.16 127.89L319.84 128.89L319.44 129.19C318.88 129.59 318.31 129.99 317.73 130.37L317.38 130.6C316.89 130.92 316.38 131.22 315.91 131.52L315.4 131.83C314.787 132.19 314.167 132.523 313.54 132.83C305.333 137.062 296.234 139.27 287 139.27C277.767 139.27 268.667 137.062 260.46 132.83C252.554 128.675 245.922 122.454 241.27 114.83C238.026 109.551 235.848 103.687 234.86 97.5701C234.394 94.6802 234.164 91.7573 234.17 88.8301V105.75C234.045 114.912 236.506 123.923 241.27 131.75C245.925 139.372 252.556 145.592 260.46 149.75C268.667 153.982 277.767 156.19 287 156.19C296.234 156.19 305.333 153.982 313.54 149.75C314.17 149.41 314.79 149.05 315.4 148.69L315.91 148.39L317.38 147.47L317.73 147.24C318.31 146.85 318.88 146.46 319.44 146.05L319.84 145.75C320.28 145.42 320.72 145.09 321.16 144.75L321.42 144.55L321.64 144.37L322.24 143.87L322.88 143.32L323.46 142.81L324.08 142.24L324.64 141.7L325.24 141.11C325.43 140.93 325.61 140.75 325.79 140.56C325.97 140.37 326.18 140.16 326.37 139.95L326.9 139.38L327.46 138.75L327.97 138.16L328.51 137.51L329 136.9L329.52 136.23L329.99 135.6C330.072 135.501 330.149 135.398 330.22 135.29L330.42 135.01C330.69 134.64 330.95 134.26 331.21 133.88L331.54 133.39C331.9 132.85 332.25 132.3 332.54 131.75C332.83 131.2 333.23 130.59 333.54 130C333.64 129.83 333.73 129.65 333.82 129.48C334.05 129.05 334.28 128.61 334.5 128.17L334.77 127.63C335.03 127.07 335.29 126.52 335.53 125.96L335.6 125.81C335.86 125.2 336.1 124.59 336.34 123.97C336.34 123.91 336.39 123.85 336.41 123.78C338.54 118.02 339.608 111.921 339.56 105.78V88.8801Z" fill="#BE0045" stroke="black" stroke-miterlimit="10"/>
<path d="M416.43 135.16C416.5 134.91 416.58 134.67 416.64 134.43C416.7 134.19 416.78 133.84 416.85 133.54C416.92 133.24 416.98 133.05 417.03 132.8C417.08 132.55 417.15 132.18 417.21 131.86C417.27 131.54 417.31 131.37 417.35 131.11C417.39 130.85 417.44 130.46 417.49 130.11C417.54 129.76 417.57 129.61 417.6 129.35C417.63 129.09 417.67 128.64 417.7 128.28C417.73 127.92 417.75 127.81 417.77 127.56C417.79 127.31 417.82 126.74 417.84 126.33C417.84 126.12 417.84 125.92 417.84 125.71C417.84 125.09 417.84 124.45 417.84 123.81V107C417.84 107.65 417.84 108.28 417.84 108.91C417.84 109.12 417.84 109.32 417.84 109.53C417.84 109.94 417.84 110.35 417.77 110.75C417.7 111.15 417.77 111.24 417.7 111.48C417.63 111.72 417.64 112.2 417.6 112.55C417.56 112.9 417.52 113.05 417.49 113.3C417.46 113.55 417.4 113.96 417.35 114.3C417.3 114.64 417.25 114.8 417.21 115.05C417.17 115.3 417.1 115.68 417.03 115.98C416.96 116.28 416.91 116.48 416.85 116.72C416.79 116.96 416.72 117.32 416.64 117.61C416.56 117.9 416.5 118.1 416.43 118.34C416.36 118.58 416.27 118.91 416.18 119.18C416.09 119.45 416.02 119.66 415.94 119.9C415.86 120.14 415.75 120.43 415.65 120.69C415.45 121.24 415.22 121.78 414.99 122.31C414.93 122.43 414.87 122.54 414.82 122.66C414.63 123.07 414.44 123.47 414.23 123.86C414.14 124.04 414.04 124.21 413.94 124.39C413.84 124.57 413.57 125.03 413.38 125.39C413.19 125.75 413.15 125.75 413.03 125.93C412.91 126.11 412.64 126.53 412.44 126.82L412.02 127.41C411.91 127.55 411.8 127.7 411.68 127.84C411.56 127.98 411.31 128.31 411.11 128.55L410.76 128.96C410.55 129.2 410.33 129.44 410.11 129.67L409.79 130.01C409.45 130.35 409.11 130.69 408.79 131.01C408.47 131.33 407.91 131.78 407.46 132.14C407.24 132.327 407.01 132.507 406.77 132.68L406.31 133.04C406.04 133.24 405.76 133.43 405.48 133.62L405.09 133.89C404.67 134.17 404.25 134.43 403.82 134.68H403.75C403.34 134.92 402.92 135.15 402.5 135.37L402.04 135.6L401.13 136.04L400.58 136.28C400.29 136.4 400.01 136.53 399.72 136.64C399.43 136.75 399.32 136.8 399.11 136.88L398.26 137.19L397.62 137.41L396.76 137.68L396.08 137.87L395.2 138.1L394.5 138.27L393.6 138.46L392.88 138.6L391.95 138.77L391.22 138.88L390.22 139.01L389.5 139.09L388.44 139.19L387.75 139.25C387.35 139.25 386.95 139.25 386.55 139.31H385.95C385.34 139.31 384.73 139.31 384.1 139.31C373.26 139.31 364.57 136.367 358.03 130.48C351.49 124.593 348.214 116.24 348.2 105.42V122.29C348.2 133.13 351.47 141.49 358.01 147.37C364.55 153.25 373.24 156.193 384.08 156.2C384.71 156.2 385.32 156.2 385.93 156.2H386.53L387.73 156.13H388.42L389.48 156.03C389.72 156.03 389.96 155.97 390.2 155.94L391.2 155.82L391.93 155.7L392.86 155.54L393.58 155.4L394.48 155.2L395.18 155.04L396.06 154.8L396.74 154.61C397.03 154.53 397.31 154.43 397.6 154.34L398.24 154.13L399.09 153.81L399.7 153.58L400.55 153.22L401.11 152.97L402.02 152.53L402.48 152.31C402.9 152.09 403.31 151.86 403.72 151.62H403.8C404.23 151.37 404.65 151.1 405.07 150.83L405.46 150.55L406.29 149.98L406.75 149.62L407.33 149.18L407.44 149.08C407.89 148.71 408.34 148.34 408.77 147.94C409.2 147.54 409.46 147.28 409.77 146.94L410.09 146.6L410.74 145.88C410.86 145.75 410.98 145.61 411.09 145.47C411.2 145.33 411.48 145 411.66 144.77L412 144.33C412.06 144.24 412.14 144.16 412.2 144.06C412.26 143.96 412.34 143.85 412.42 143.75C412.62 143.46 412.82 143.16 413.01 142.86C413.2 142.56 413.25 142.5 413.36 142.31C413.47 142.12 413.74 141.68 413.92 141.31C414.02 141.14 414.12 140.96 414.21 140.78C414.42 140.39 414.61 139.99 414.8 139.59C414.85 139.47 414.91 139.36 414.97 139.24C415.2 138.71 415.43 138.17 415.63 137.62V137.55C415.72 137.31 415.8 137.07 415.89 136.82L416.13 136.11C416.27 135.72 416.35 135.44 416.43 135.16Z" fill="#BE0045" stroke="black" stroke-miterlimit="10"/>
<path d="M411.84 127.58V144.23C410.816 145.615 409.657 146.894 408.38 148.05C407.91 148.48 407.43 148.88 406.94 149.28V132.63C407.43 132.24 407.94 131.83 408.38 131.41C409.657 130.251 410.816 128.968 411.84 127.58Z" fill="#BE0045" stroke="black" stroke-miterlimit="10"/>
<path d="M354.33 126.43V143.29C355.35 144.696 356.51 145.996 357.79 147.17C358.26 147.6 358.74 148.01 359.23 148.41V131.54C358.74 131.15 358.23 130.73 357.79 130.3C356.507 129.132 355.348 127.835 354.33 126.43Z" fill="#BE0045" stroke="black" stroke-miterlimit="10"/>
<path d="M501.09 59.1699H463.16V76.0399H501.09V59.1699Z" fill="#BE0045" stroke="black" stroke-miterlimit="10"/>
<path d="M496.7 97.5698H463.16V114.44H496.7V97.5698Z" fill="#BE0045" stroke="black" stroke-miterlimit="10"/>
<path d="M501.09 138.35H438.12V155.22H501.09V138.35Z" fill="#BE0045" stroke="black" stroke-miterlimit="10"/>
<path d="M613.56 70.6299H586.03V86.1799H613.56V70.6299Z" fill="#BE0045" stroke="black" stroke-miterlimit="10"/>
<path d="M577.32 61.9999C573.358 59.9608 568.955 58.9304 564.5 58.9999H563.18H562.77L561.88 59.0599H561.42L560.59 59.1499L560.14 59.1999L559.28 59.3299L558.91 59.3899C558.51 59.4599 558.11 59.5299 557.72 59.6199H557.58L556.58 59.8699L556.2 59.9699L555.44 60.1999L555.03 60.3299L554.31 60.5899L553.92 60.7299L553.14 61.0499L552.85 61.1699L551.85 61.6599L551.67 61.7599C551.39 61.8999 551.12 62.0399 550.85 62.1999L550.51 62.3899L549.86 62.7899L549.51 63.0199C549.3 63.1499 549.09 63.2899 548.89 63.4399L548.56 63.6699L548.41 63.7799C548.34 63.8299 548.28 63.8899 548.2 63.9399L547.29 64.6699L546.96 64.9599C546.57 65.2899 546.19 65.6399 545.83 65.9599C545.47 66.2799 545.2 66.6099 544.9 66.9599L544.61 67.2899C544.41 67.5199 544.22 67.7499 544.03 67.9899L543.92 68.1099C543.86 68.1899 543.81 68.2699 543.75 68.3399C543.54 68.6199 543.33 68.9099 543.13 69.1999L542.86 69.5799C542.64 69.9099 542.43 70.2499 542.23 70.5799C542.18 70.6599 542.13 70.7299 542.08 70.8199C541.84 71.2399 541.61 71.6699 541.39 72.0999C541.34 72.2199 541.28 72.3399 541.23 72.4499C541.07 72.7899 540.92 73.1199 540.78 73.4499C540.741 73.5203 540.707 73.5939 540.68 73.6699C540.68 73.7599 540.61 73.8499 540.57 73.9499C540.53 74.0499 540.4 74.3899 540.32 74.6199C540.24 74.8499 540.19 74.9899 540.12 75.1799L539.9 75.8799C539.85 76.0699 539.79 76.2599 539.73 76.4599L539.55 77.1799L539.4 77.7799L539.25 78.5299C539.25 78.7299 539.17 78.9299 539.14 79.1299C539.11 79.3299 539.05 79.6599 539.01 79.9299C538.97 80.1999 538.95 80.3299 538.93 80.5299C538.91 80.7299 538.86 81.0999 538.83 81.3899C538.8 81.6799 538.83 81.7699 538.78 81.9599C538.73 82.1499 538.78 82.6199 538.71 82.9599C538.71 83.1199 538.71 83.2799 538.71 83.4399C538.71 83.9399 538.71 84.4399 538.71 84.9599V100.66C538.71 100.15 538.71 99.6599 538.71 99.1399C538.71 98.9799 538.71 98.8199 538.71 98.6599C538.71 98.3299 538.71 97.9899 538.78 97.6599C538.85 97.3299 538.78 97.2799 538.83 97.0899C538.88 96.8999 538.89 96.5099 538.93 96.2299C538.97 95.9499 538.98 95.8299 539.01 95.6299C539.04 95.4299 539.09 95.0899 539.14 94.8299C539.19 94.5699 539.21 94.4299 539.25 94.2299L539.4 93.4799L539.55 92.8799L539.73 92.1599C539.79 91.9599 539.85 91.7699 539.9 91.5799L540.12 90.8799C540.19 90.6899 540.25 90.4999 540.32 90.3199C540.39 90.1399 540.49 89.8699 540.57 89.6499L540.78 89.1499C540.92 88.7999 541.07 88.4699 541.23 88.1499C541.23 88.0399 541.34 87.9199 541.39 87.7999C541.61 87.3699 541.84 86.9399 542.08 86.5199L542.23 86.2799C542.43 85.9399 542.64 85.5999 542.86 85.2799L543.13 84.8999C543.33 84.6099 543.54 84.3199 543.75 84.0399C543.84 83.9199 543.93 83.7999 544.03 83.6899C544.13 83.5799 544.41 83.2199 544.61 82.9899L544.9 82.6599C545.2 82.3299 545.51 81.9999 545.83 81.6599C546.15 81.3199 546.57 80.9499 546.96 80.6599L547.29 80.3699L548.2 79.6399L548.56 79.3699L548.89 79.1399C549.09 78.9899 549.3 78.8499 549.51 78.7199L549.86 78.4899L550.51 78.0899L550.85 77.8999L551.66 77.4599L551.85 77.3599L552.85 76.8699L553.14 76.7499L553.92 76.4299L554.31 76.2899L555 75.9999L555.41 75.8699L556.17 75.6499L556.55 75.5399L557.55 75.2899H557.69C558.08 75.1999 558.48 75.1299 558.88 75.0599L559.25 74.9999L560.11 74.8699H560.56L561.39 74.7799H561.85L562.74 74.7199H563.15H564.47C568.925 74.6504 573.328 75.6808 577.29 77.7199C580.974 79.6058 584.008 82.5526 586 86.1799V70.6299C584.043 66.944 581.017 63.9358 577.32 61.9999Z" fill="#BE0045" stroke="black" stroke-miterlimit="10"/>
<path d="M613.57 99.5799V115.13C610.801 124.736 604.597 132.989 596.14 138.32C587.473 143.96 577.027 146.783 564.8 146.79C555.553 146.949 546.397 144.935 538.07 140.91C530.537 137.283 524.17 131.619 519.69 124.56C515.244 117.391 512.957 109.094 513.1 100.66V85.1099C512.959 93.5406 515.246 101.834 519.69 109C524.17 116.059 530.537 121.723 538.07 125.35C546.397 129.375 555.553 131.389 564.8 131.23C577 131.23 587.447 128.407 596.14 122.76C604.595 117.431 610.798 109.182 613.57 99.5799Z" fill="#BE0045"/>
<mask id="mask8_254_1445" style="mask-type:luminance" maskUnits="userSpaceOnUse" x="513" y="85" width="101" height="62">
<path d="M613.57 99.5799V115.13C610.801 124.736 604.597 132.989 596.14 138.32C587.473 143.96 577.027 146.783 564.8 146.79C555.553 146.949 546.397 144.935 538.07 140.91C530.537 137.283 524.17 131.619 519.69 124.56C515.244 117.391 512.957 109.094 513.1 100.66V85.1099C512.959 93.5406 515.246 101.834 519.69 109C524.17 116.059 530.537 121.723 538.07 125.35C546.397 129.375 555.553 131.389 564.8 131.23C577 131.23 587.447 128.407 596.14 122.76C604.595 117.431 610.798 109.182 613.57 99.5799Z" fill="white"/>
</mask>
<g mask="url(#mask8_254_1445)">
<path d="M606.44 113.49V129C604.164 131.866 601.517 134.419 598.57 136.59V121.08C601.517 118.909 604.164 116.356 606.44 113.49Z" fill="#BE0045" stroke="black" stroke-miterlimit="10"/>
<path d="M598.57 121.08V136.63C597.79 137.21 596.98 137.78 596.14 138.32C587.473 143.96 577.027 146.783 564.8 146.79C555.553 146.949 546.397 144.935 538.07 140.91C530.537 137.283 524.17 131.619 519.69 124.56C515.244 117.391 512.957 109.094 513.1 100.66V85.1099C512.959 93.5406 515.246 101.834 519.69 109C524.17 116.059 530.537 121.723 538.07 125.35C546.397 129.375 555.553 131.389 564.8 131.23C577 131.23 587.447 128.407 596.14 122.76C596.98 122.22 597.79 121.65 598.57 121.07" fill="#BE0045"/>
<path d="M598.57 121.08V136.63C597.79 137.21 596.98 137.78 596.14 138.32C587.473 143.96 577.027 146.783 564.8 146.79C555.553 146.949 546.397 144.935 538.07 140.91C530.537 137.283 524.17 131.619 519.69 124.56C515.244 117.391 512.957 109.094 513.1 100.66V85.1099C512.959 93.5406 515.246 101.834 519.69 109C524.17 116.059 530.537 121.723 538.07 125.35C546.397 129.375 555.553 131.389 564.8 131.23C577 131.23 587.447 128.407 596.14 122.76C596.98 122.22 597.79 121.65 598.57 121.07" stroke="black" stroke-miterlimit="10"/>
</g>
<path d="M613.57 99.5799V115.13C610.801 124.736 604.597 132.989 596.14 138.32C587.473 143.96 577.027 146.783 564.8 146.79C555.553 146.949 546.397 144.935 538.07 140.91C530.537 137.283 524.17 131.619 519.69 124.56C515.244 117.391 512.957 109.094 513.1 100.66V85.1099C512.959 93.5406 515.246 101.834 519.69 109C524.17 116.059 530.537 121.723 538.07 125.35C546.397 129.375 555.553 131.389 564.8 131.23C577 131.23 587.447 128.407 596.14 122.76C604.595 117.431 610.798 109.182 613.57 99.5799Z" stroke="black" stroke-miterlimit="10"/>
<path d="M702.9 59.1699H675.66V76.0399H702.9V59.1699Z" fill="#BE0045" stroke="black" stroke-miterlimit="10"/>
<path d="M650.62 59.1699H623.38V76.0399H650.62V59.1699Z" fill="#BE0045" stroke="black" stroke-miterlimit="10"/>
<path d="M675.66 138.35H650.62V155.22H675.66V138.35Z" fill="#BE0045" stroke="black" stroke-miterlimit="10"/>
<path d="M788.86 68H761.77V84.87H788.86V68Z" fill="#BE0045" stroke="black" stroke-miterlimit="10"/>
<path d="M758.11 60.4998C755.638 58.6066 752.581 57.6405 749.47 57.7698C749.09 57.7698 748.73 57.7698 748.37 57.7698C748.25 57.7698 748.14 57.7698 748.02 57.7698L747.33 57.8398L746.93 57.9098L746.34 58.0198L745.94 58.1198L745.4 58.2698L745.01 58.4098C744.85 58.4698 744.68 58.5198 744.52 58.5898L744.14 58.7598L743.69 58.9798C743.57 59.0398 743.46 59.1198 743.34 59.1898L742.92 59.4398C742.81 59.5098 742.7 59.5998 742.59 59.6798L742.26 59.9198L742.15 60.0098C741.915 60.2034 741.691 60.4104 741.48 60.6298C741.422 60.7108 741.359 60.7877 741.29 60.8598C741.16 61.0098 741.03 61.1598 740.91 61.3198L740.8 61.4998C740.67 61.6898 740.54 61.8898 740.43 62.0898C740.32 62.2898 740.33 62.2998 740.28 62.4098C740.187 62.5884 740.103 62.772 740.03 62.9598L739.97 63.0798C739.97 63.1898 739.9 63.3098 739.86 63.4198C739.82 63.5298 739.78 63.6598 739.75 63.7798C739.72 63.8998 739.66 64.1398 739.62 64.3198C739.58 64.4998 739.57 64.5598 739.55 64.6798C739.53 64.7998 739.49 65.0998 739.46 65.3198C739.43 65.5398 739.46 65.5198 739.46 65.6298C739.46 65.9598 739.46 66.2998 739.46 66.6298V83.5998C739.46 83.2598 739.46 82.9198 739.46 82.5998C739.46 82.4898 739.46 82.3898 739.46 82.2798C739.46 82.1698 739.46 81.8498 739.55 81.6398C739.64 81.4298 739.6 81.4098 739.62 81.2898C739.64 81.1698 739.7 80.9198 739.75 80.7498C739.8 80.5798 739.82 80.5098 739.86 80.3898C739.9 80.2698 739.97 80.0798 740.03 79.9298C740.103 79.7387 740.187 79.5518 740.28 79.3698C740.28 79.2698 740.37 79.1598 740.43 79.0598C740.49 78.9598 740.67 78.6598 740.8 78.4598C740.847 78.3988 740.89 78.3354 740.93 78.2698C741.049 78.11 741.176 77.9565 741.31 77.8098L741.5 77.5798C741.709 77.3578 741.933 77.1506 742.17 76.9598C742.31 76.8398 742.46 76.7398 742.6 76.6298L742.94 76.3798L743.36 76.1298L743.71 75.9198L744.16 75.7098L744.54 75.5298L745.03 75.3498L745.42 75.2098L745.96 75.0698L746.36 74.9698C746.555 74.9226 746.752 74.8859 746.95 74.8598L747.35 74.7898L748.04 74.7198H748.39C748.75 74.7198 749.11 74.7198 749.49 74.7198C752.601 74.5905 755.658 75.5566 758.13 77.4498C759.244 78.3626 760.148 79.5053 760.78 80.7997C761.412 82.0942 761.756 83.5098 761.79 84.9498V67.9998C761.754 66.5583 761.406 65.1416 760.771 63.8471C760.136 62.5525 759.228 61.4107 758.11 60.4998Z" fill="#BE0045" stroke="black" stroke-miterlimit="10"/>
<path d="M764 110.88V127.75C764.026 126.625 763.811 125.507 763.37 124.473C762.928 123.438 762.27 122.509 761.44 121.75C759.591 120.082 757.462 118.755 755.15 117.83C751.675 116.473 748.13 115.305 744.53 114.33C738.976 112.759 733.542 110.791 728.27 108.44C724.023 106.441 720.311 103.463 717.44 99.7499C714.413 95.9232 712.9 90.9232 712.9 84.7499V67.8599C712.9 74.0199 714.41 79.0299 717.44 82.8599C720.309 86.5753 724.021 89.5542 728.27 91.5499C733.538 93.9096 738.973 95.8782 744.53 97.4399C748.129 98.4193 751.674 99.5875 755.15 100.94C757.464 101.865 759.594 103.196 761.44 104.87C762.273 105.629 762.933 106.559 763.375 107.596C763.817 108.633 764.03 109.753 764 110.88Z" fill="#BE0045"/>
<mask id="mask9_254_1445" style="mask-type:luminance" maskUnits="userSpaceOnUse" x="712" y="67" width="53" height="61">
<path d="M764 110.88V127.75C764.026 126.625 763.811 125.507 763.37 124.473C762.928 123.438 762.27 122.509 761.44 121.75C759.591 120.082 757.462 118.755 755.15 117.83C751.675 116.473 748.13 115.305 744.53 114.33C738.976 112.759 733.542 110.791 728.27 108.44C724.023 106.441 720.311 103.463 717.44 99.7499C714.413 95.9232 712.9 90.9232 712.9 84.7499V67.8599C712.9 74.0199 714.41 79.0299 717.44 82.8599C720.309 86.5753 724.021 89.5542 728.27 91.5499C733.538 93.9096 738.973 95.8782 744.53 97.4399C748.129 98.4193 751.674 99.5875 755.15 100.94C757.464 101.865 759.594 103.196 761.44 104.87C762.273 105.629 762.933 106.559 763.375 107.596C763.817 108.633 764.03 109.753 764 110.88Z" fill="white"/>
</mask>
<g mask="url(#mask9_254_1445)">
<path d="M764 110.88V127.75C764.026 126.625 763.811 125.507 763.37 124.473C762.928 123.438 762.27 122.509 761.44 121.75C759.591 120.082 757.462 118.755 755.15 117.83C751.675 116.473 748.13 115.305 744.53 114.33C738.976 112.759 733.542 110.791 728.27 108.44C724.023 106.441 720.311 103.463 717.44 99.7499C714.413 95.9232 712.9 90.9232 712.9 84.7499V67.8599C712.9 74.0199 714.41 79.0299 717.44 82.8599C720.309 86.5753 724.021 89.5542 728.27 91.5499C733.538 93.9096 738.973 95.8782 744.53 97.4399C748.129 98.4193 751.674 99.5875 755.15 100.94C757.464 101.865 759.594 103.196 761.44 104.87C762.272 105.628 762.931 106.556 763.373 107.591C763.814 108.627 764.028 109.745 764 110.87" fill="#BE0045"/>
<path d="M764 110.88V127.75C764.026 126.625 763.811 125.507 763.37 124.473C762.928 123.438 762.27 122.509 761.44 121.75C759.591 120.082 757.462 118.755 755.15 117.83C751.675 116.473 748.13 115.305 744.53 114.33C738.976 112.759 733.542 110.791 728.27 108.44C724.023 106.441 720.311 103.463 717.44 99.7499C714.413 95.9232 712.9 90.9232 712.9 84.7499V67.8599C712.9 74.0199 714.41 79.0299 717.44 82.8599C720.309 86.5753 724.021 89.5542 728.27 91.5499C733.538 93.9096 738.973 95.8782 744.53 97.4399C748.129 98.4193 751.674 99.5875 755.15 100.94C757.464 101.865 759.594 103.196 761.44 104.87C762.272 105.628 762.931 106.556 763.373 107.591C763.814 108.627 764.028 109.745 764 110.87" stroke="black" stroke-miterlimit="10"/>
</g>
<path d="M764 110.88V127.75C764.026 126.625 763.811 125.507 763.37 124.473C762.928 123.438 762.27 122.509 761.44 121.75C759.591 120.082 757.462 118.755 755.15 117.83C751.675 116.473 748.13 115.305 744.53 114.33C738.976 112.759 733.542 110.791 728.27 108.44C724.023 106.441 720.311 103.463 717.44 99.7499C714.413 95.9232 712.9 90.9232 712.9 84.7499V67.8599C712.9 74.0199 714.41 79.0299 717.44 82.8599C720.309 86.5753 724.021 89.5542 728.27 91.5499C733.538 93.9096 738.973 95.8782 744.53 97.4399C748.129 98.4193 751.674 99.5875 755.15 100.94C757.464 101.865 759.594 103.196 761.44 104.87C762.273 105.629 762.933 106.559 763.375 107.596C763.817 108.633 764.03 109.753 764 110.88Z" stroke="black" stroke-miterlimit="10"/>
<path d="M790.18 109.06V125.93C790.233 131.353 788.677 136.67 785.71 141.21C782.483 145.996 777.979 149.782 772.71 152.14C767.05 154.847 760.363 156.2 752.65 156.2C745.754 156.309 738.898 155.122 732.44 152.7C726.821 150.609 721.883 147.019 718.16 142.32C714.534 137.569 712.554 131.766 712.52 125.79V108.92C712.554 114.899 714.534 120.705 718.16 125.46C721.883 130.156 726.822 133.743 732.44 135.83C738.897 138.256 745.753 139.444 752.65 139.33C760.357 139.33 767.043 137.977 772.71 135.27C777.979 132.912 782.483 129.126 785.71 124.34C788.678 119.801 790.234 114.483 790.18 109.06Z" fill="#BE0045"/>
<mask id="mask10_254_1445" style="mask-type:luminance" maskUnits="userSpaceOnUse" x="712" y="108" width="79" height="49">
<path d="M790.18 109.06V125.93C790.233 131.353 788.677 136.67 785.71 141.21C782.483 145.996 777.979 149.782 772.71 152.14C767.05 154.847 760.363 156.2 752.65 156.2C745.754 156.309 738.898 155.122 732.44 152.7C726.821 150.609 721.883 147.019 718.16 142.32C714.534 137.569 712.554 131.766 712.52 125.79V108.92C712.554 114.899 714.534 120.705 718.16 125.46C721.883 130.156 726.822 133.743 732.44 135.83C738.897 138.256 745.753 139.444 752.65 139.33C760.357 139.33 767.043 137.977 772.71 135.27C777.979 132.912 782.483 129.126 785.71 124.34C788.678 119.801 790.234 114.483 790.18 109.06Z" fill="white"/>
</mask>
<g mask="url(#mask10_254_1445)">
<path d="M784.9 125.52V142.38C783.413 144.408 781.669 146.233 779.71 147.81V130.94C781.671 129.369 783.416 127.547 784.9 125.52Z" fill="#BE0045" stroke="black" stroke-miterlimit="10"/>
<path d="M779.71 130.94V147.81C777.551 149.517 775.202 150.97 772.71 152.14C767.05 154.847 760.363 156.2 752.65 156.2C745.754 156.309 738.898 155.122 732.44 152.7C726.821 150.609 721.883 147.019 718.16 142.32C714.534 137.569 712.554 131.766 712.52 125.79V108.92C712.554 114.899 714.534 120.705 718.16 125.46C721.883 130.156 726.822 133.743 732.44 135.83C738.897 138.256 745.753 139.444 752.65 139.33C760.357 139.33 767.043 137.977 772.71 135.27C775.204 134.104 777.553 132.651 779.71 130.94Z" fill="#BE0045" stroke="black" stroke-miterlimit="10"/>
</g>
<path d="M790.18 109.06V125.93C790.233 131.353 788.677 136.67 785.71 141.21C782.483 145.996 777.979 149.782 772.71 152.14C767.05 154.847 760.363 156.2 752.65 156.2C745.754 156.309 738.898 155.122 732.44 152.7C726.821 150.609 721.883 147.019 718.16 142.32C714.534 137.569 712.554 131.766 712.52 125.79V108.92C712.554 114.899 714.534 120.705 718.16 125.46C721.883 130.156 726.822 133.743 732.44 135.83C738.897 138.256 745.753 139.444 752.65 139.33C760.357 139.33 767.043 137.977 772.71 135.27C777.979 132.912 782.483 129.126 785.71 124.34C788.678 119.801 790.234 114.483 790.18 109.06Z" stroke="black" stroke-miterlimit="10"/>
<path d="M125.6 55.1799C128.488 60.1557 129.958 65.8276 129.85 71.5799C129.906 77.0597 128.49 82.4539 125.75 87.1999C122.76 92.1552 118.383 96.1255 113.16 98.6199C107.493 101.54 100.463 103 92.07 103H76.54V138.32H51.5V39.8999H92.07C100.27 39.8999 107.2 41.2666 112.86 43.9999C118.135 46.3595 122.575 50.256 125.6 55.1799ZM100.85 80.6799C103.19 78.5399 104.363 75.5066 104.37 71.5799C104.37 67.6499 103.19 64.5799 100.85 62.4599C98.51 60.3399 95 59.2399 90.16 59.2399H76.54V83.9099H90.16C94.9533 83.9099 98.5167 82.8332 100.85 80.6799Z" fill="#7CCC3D" stroke="black" stroke-miterlimit="10"/>
<path d="M199.85 99.3199L223.58 138.32H195.31L173.93 101.15H167.93V138.29H142.88V39.8999H184.88C192.993 39.8999 199.903 41.2566 205.61 43.9699C210.902 46.3118 215.366 50.1938 218.42 55.1099C221.264 59.8738 222.735 65.3318 222.67 70.8799C222.742 77.1983 220.705 83.3602 216.88 88.3899C213.053 93.5299 207.377 97.1732 199.85 99.3199ZM193.77 80.9999C196.07 78.8532 197.22 75.8132 197.22 71.8799C197.313 70.2391 197.054 68.5974 196.459 67.0655C195.863 65.5336 194.947 64.1472 193.77 62.9999C191.477 60.8466 188.037 59.7699 183.45 59.7699H167.93V84.1899H183.45C188.037 84.1899 191.477 83.1166 193.77 80.9699" fill="#7CCC3D"/>
<path d="M193.77 80.9999C196.07 78.8532 197.22 75.8132 197.22 71.8799C197.313 70.2391 197.054 68.5974 196.459 67.0655C195.863 65.5336 194.947 64.1472 193.77 62.9999C191.477 60.8466 188.037 59.7699 183.45 59.7699H167.93V84.1899H183.45C188.037 84.1899 191.477 83.1166 193.77 80.9699M199.85 99.3199L223.58 138.32H195.31L173.93 101.15H167.93V138.29H142.88V39.8999H184.88C192.993 39.8999 199.903 41.2566 205.61 43.9699C210.902 46.3118 215.366 50.1938 218.42 55.1099C221.264 59.8738 222.735 65.3318 222.67 70.8799C222.742 77.1983 220.705 83.3602 216.88 88.3899C213.053 93.5299 207.377 97.1732 199.85 99.3199Z" stroke="black" stroke-miterlimit="10"/>
<path d="M332.61 62.8898C337.288 70.7172 339.694 79.6922 339.56 88.8098C339.688 97.8333 337.321 106.717 332.721 114.481C328.121 122.245 321.466 128.588 313.49 132.81C305.283 137.042 296.184 139.249 286.95 139.249C277.717 139.249 268.617 137.042 260.41 132.81C252.502 128.657 245.87 122.436 241.22 114.81C236.455 106.983 233.994 97.9718 234.12 88.8098C233.989 79.6723 236.451 70.6848 241.22 62.8898C245.893 55.3099 252.522 49.1298 260.41 44.9998C268.629 40.7619 277.743 38.5508 286.99 38.5508C296.238 38.5508 305.351 40.7619 313.57 44.9998C321.434 49.1097 328.019 55.2975 332.61 62.8898ZM306.69 109.55C311.61 104.33 314.074 97.4165 314.08 88.8098C314.087 80.2031 311.624 73.2665 306.69 67.9998C301.75 62.8198 295.184 60.2265 286.99 60.2198C278.69 60.2198 272.074 62.7898 267.14 67.9298C262.207 73.0698 259.744 80.0298 259.75 88.8098C259.75 97.4765 262.214 104.413 267.14 109.62C272.067 114.826 278.687 117.42 287 117.4C295.2 117.4 301.767 114.783 306.7 109.55" fill="#7CCC3D"/>
<path d="M306.69 109.55C311.61 104.33 314.074 97.4165 314.08 88.8098C314.087 80.2031 311.624 73.2665 306.69 67.9998C301.75 62.8198 295.184 60.2265 286.99 60.2198C278.69 60.2198 272.074 62.7898 267.14 67.9298C262.207 73.0698 259.744 80.0298 259.75 88.8098C259.75 97.4765 262.214 104.413 267.14 109.62C272.067 114.826 278.687 117.42 287 117.4C295.2 117.4 301.767 114.783 306.7 109.55M332.61 62.8898C337.288 70.7172 339.694 79.6922 339.56 88.8098C339.688 97.8333 337.321 106.717 332.721 114.481C328.121 122.245 321.466 128.588 313.49 132.81C305.283 137.042 296.184 139.249 286.95 139.249C277.717 139.249 268.617 137.042 260.41 132.81C252.502 128.657 245.87 122.436 241.22 114.81C236.455 106.983 233.994 97.9718 234.12 88.8098C233.989 79.6723 236.451 70.6848 241.22 62.8898C245.893 55.3099 252.522 49.1298 260.41 44.9998C268.629 40.7619 277.743 38.5508 286.99 38.5508C296.238 38.5508 305.351 40.7619 313.57 44.9998C321.434 49.1097 328.019 55.2975 332.61 62.8898Z" stroke="black" stroke-miterlimit="10"/>
<path d="M384.08 138.77C373.42 138.77 364.76 135.84 358.35 130.06C351.94 124.28 348.8 116.25 348.7 105.85H372.6C372.67 109.85 373.6 112.9 375.35 114.99C377.1 117.08 379.89 118.32 383.35 118.32C384.728 118.392 386.105 118.161 387.384 117.643C388.663 117.124 389.812 116.331 390.75 115.32C392.49 113.37 393.37 110.53 393.37 106.86V40.3999H417.37V106.89C417.37 117.07 414.37 125.01 408.37 130.49C402.37 135.97 394.26 138.77 384.08 138.77Z" fill="#7CCC3D"/>
<path d="M416.91 40.8999V106.9C416.91 116.9 413.91 124.75 408.08 130.13C402.25 135.51 394.13 138.27 384.08 138.27C373.55 138.27 365 135.39 358.68 129.7C352.59 124.22 349.41 116.38 349.21 106.36H372.12C372.25 110.22 373.21 113.23 374.97 115.36C376.92 117.69 379.74 118.88 383.35 118.88C384.798 118.957 386.244 118.715 387.588 118.173C388.933 117.63 390.142 116.8 391.13 115.74C392.95 113.74 393.87 110.74 393.87 106.94V40.8999H416.87M417.87 39.8999H392.87V106.9C392.87 110.46 392.04 113.16 390.38 115.03C389.49 115.982 388.402 116.727 387.192 117.212C385.983 117.698 384.681 117.912 383.38 117.84C380.06 117.84 377.52 116.78 375.77 114.68C374.02 112.58 373.13 109.47 373.13 105.36H348.2C348.2 116.2 351.47 124.563 358.01 130.45C364.55 136.337 373.24 139.277 384.08 139.27C394.434 139.27 402.66 136.47 408.76 130.87C414.86 125.27 417.91 117.27 417.91 106.87V39.8999H417.87Z" fill="black"/>
<path d="M438.62 137.79V40.3999H500.59V58.5999H462.66V79.4999H496.2V96.9999H462.66V119.59H500.59V137.79H438.62Z" fill="#7CCC3D"/>
<path d="M500.09 40.8999V58.0999H462.16V79.9999H495.7V96.4999H462.16V120.09H500.09V137.29H439.09V40.8999H500.09ZM501.09 39.8999H438.09V138.29H501.09V119.09H463.16V97.4999H496.7V78.9999H463.16V59.0999H501.09V39.8999Z" fill="black"/>
<path d="M564.8 130.67C555.63 130.821 546.551 128.824 538.29 124.84C530.848 121.248 524.556 115.652 520.12 108.68C515.721 101.575 513.458 93.3553 513.6 85.0001C513.47 76.6402 515.732 68.4172 520.12 61.3001C524.547 54.313 530.841 48.7047 538.29 45.1101C546.552 41.1284 555.63 39.132 564.8 39.2801C576.8 39.2801 587.29 42.1201 595.87 47.7301C604.006 52.9263 610.031 60.8438 612.87 70.0701H586.33C584.316 66.3998 581.261 63.4075 577.55 61.4701C573.526 59.4267 569.063 58.3969 564.55 58.4701C556.74 58.4701 550.31 60.9101 545.46 65.7201C540.61 70.5301 538.08 77.0001 538.08 85.0001C538.08 93.0001 540.55 99.5401 545.41 104.35C550.27 109.16 556.69 111.6 564.5 111.6C569.013 111.676 573.476 110.646 577.5 108.6C581.211 106.663 584.266 103.671 586.28 100H612.84C610.008 109.212 603.979 117.11 595.84 122.27C587.29 127.85 576.84 130.67 564.8 130.67Z" fill="#7CCC3D"/>
<path d="M564.8 39.7802C576.74 39.7802 587.1 42.5902 595.59 48.1402C603.441 53.1446 609.312 60.719 612.2 69.5702H586.62C584.562 65.9207 581.492 62.9445 577.78 61.0002C573.671 58.9068 569.112 57.8495 564.5 57.9202C556.55 57.9202 550.01 60.4102 545.05 65.3102C540.09 70.2102 537.58 76.8702 537.58 85.0002C537.58 93.1302 540.1 99.8002 545.05 104.7C550 109.6 556.55 112.1 564.5 112.1C569.116 112.174 573.68 111.113 577.79 109.01C581.496 107.075 584.562 104.109 586.62 100.47H612.2C609.319 109.304 603.444 116.855 595.59 121.82C587.11 127.33 576.74 130.13 564.8 130.13C555.709 130.283 546.708 128.303 538.52 124.35C531.146 120.8 524.911 115.258 520.52 108.35C516.195 101.34 513.967 93.2369 514.1 85.0002C513.974 76.7335 516.208 68.6022 520.54 61.5602C524.928 54.6508 531.164 49.1082 538.54 45.5602C546.724 41.6159 555.716 39.6367 564.8 39.7802ZM564.8 38.7802C555.553 38.621 546.397 40.635 538.07 44.6602C530.525 48.2971 524.156 53.9839 519.69 61.0702C515.243 68.2752 512.956 76.6046 513.1 85.0702C512.957 93.5044 515.244 101.802 519.69 108.97C524.17 116.03 530.537 121.693 538.07 125.32C546.397 129.345 555.553 131.36 564.8 131.2C577 131.2 587.447 128.377 596.14 122.73C604.598 117.402 610.798 109.147 613.56 99.5402H586C584.041 103.243 581.004 106.263 577.29 108.2C573.329 110.239 568.925 111.27 564.47 111.2C556.763 111.2 550.517 108.83 545.73 104.09C540.944 99.3502 538.55 93.0169 538.55 85.0902C538.55 77.1569 540.944 70.8236 545.73 66.0902C550.517 61.3569 556.763 58.9902 564.47 58.9902C568.925 58.9208 573.329 59.9512 577.29 61.9902C580.992 63.9065 584.028 66.8974 586 70.5702H613.53C610.766 60.9548 604.581 52.6821 596.14 47.3102C587.44 41.6236 576.993 38.7802 564.8 38.7802Z" fill="black"/>
<path d="M651.12 137.79V58.5999H623.88V40.3999H702.4V58.5999H675.16V137.79H651.12Z" fill="#7CCC3D"/>
<path d="M701.9 40.8999V58.0999H674.66V137.29H651.66V58.0999H624.38V40.8999H701.9ZM702.9 39.8999H623.38V59.0999H650.62V138.29H675.62V59.0999H702.9V39.8999Z" fill="black"/>
<path d="M752.69 138.77C745.865 138.869 739.082 137.692 732.69 135.3C727.158 133.236 722.293 129.703 718.62 125.08C715.17 120.549 713.242 115.043 713.11 109.35H738.8C739.063 112.51 740.522 115.45 742.88 117.57C745.447 119.644 748.683 120.711 751.98 120.57C755.79 120.57 758.85 119.71 761.07 118.01C762.179 117.177 763.069 116.088 763.664 114.836C764.26 113.584 764.543 112.206 764.49 110.82C764.52 109.622 764.293 108.432 763.824 107.33C763.355 106.227 762.654 105.238 761.77 104.43C759.878 102.725 757.697 101.371 755.33 100.43C751.837 99.0723 748.275 97.8974 744.66 96.91C739.116 95.3383 733.695 93.363 728.44 91C724.268 89.0306 720.619 86.1047 717.79 82.46C714.85 78.74 713.36 73.8 713.36 67.77C713.36 58.82 716.78 51.77 723.55 46.66C730.32 41.55 739.38 39 750.34 39C761.5 39 770.62 41.58 777.43 46.68C784.08 51.68 787.74 58.68 788.33 67.43H762.23C762.144 65.9952 761.761 64.594 761.105 63.315C760.449 62.036 759.535 60.9072 758.42 60C755.859 58.0393 752.693 57.0348 749.47 57.16C746.715 57.0354 744.006 57.8969 741.83 59.59C740.829 60.451 740.039 61.5293 739.519 62.7425C738.999 63.9557 738.763 65.2717 738.83 66.59C738.83 69.95 740.49 72.59 743.77 74.45C747.05 76.31 751.87 78.19 758.51 80.24C764.004 81.9534 769.388 84.0039 774.63 86.38C778.752 88.3488 782.373 91.2278 785.22 94.8C788.16 98.42 789.65 103.17 789.65 108.92C789.697 114.243 788.17 119.462 785.26 123.92C782.093 128.62 777.678 132.343 772.51 134.67C767 137.42 760.3 138.77 752.69 138.77Z" fill="#7CCC3D"/>
<path d="M750.34 39.5C761.34 39.5 770.4 42.05 777.13 47.08C783.52 51.86 787.13 58.53 787.79 66.93H762.68C762.379 64.0784 760.963 61.4614 758.74 59.65C756.087 57.6196 752.809 56.5766 749.47 56.7C746.586 56.565 743.748 57.4659 741.47 59.24C740.413 60.1562 739.58 61.302 739.034 62.5899C738.488 63.8777 738.244 65.2733 738.32 66.67C738.32 70.22 740.07 73.01 743.51 74.97C748.248 77.3964 753.216 79.3459 758.34 80.79C763.818 82.4995 769.185 84.5468 774.41 86.92C778.463 88.8498 782.024 91.6781 784.82 95.19C787.69 98.73 789.14 103.37 789.14 109C789.185 114.227 787.686 119.352 784.83 123.73C781.721 128.345 777.39 132.005 772.32 134.3C766.83 136.93 760.22 138.3 752.69 138.3C745.917 138.406 739.185 137.243 732.84 134.87C727.403 132.853 722.615 129.397 718.99 124.87C715.704 120.565 713.825 115.352 713.61 109.94H738.34C738.689 113.063 740.177 115.947 742.52 118.04C745.205 120.172 748.576 121.25 752 121.07C755.92 121.07 759.08 120.17 761.4 118.41C762.572 117.533 763.513 116.383 764.14 115.061C764.767 113.738 765.062 112.283 765 110.82C765.03 109.553 764.789 108.294 764.292 107.128C763.795 105.962 763.055 104.916 762.12 104.06C760.188 102.303 757.956 100.908 755.53 99.94C752.023 98.5704 748.445 97.392 744.81 96.41C739.304 94.8528 733.916 92.9011 728.69 90.57C724.59 88.6299 721.003 85.7524 718.22 82.17C715.35 78.54 713.9 73.71 713.9 67.79C713.9 59.01 717.26 52.04 723.9 47.08C730.54 42.12 739.49 39.5 750.34 39.5ZM750.34 38.5C739.22 38.5 730.19 41.0933 723.25 46.28C716.31 51.4667 712.847 58.6367 712.86 67.79C712.86 73.9633 714.373 78.9633 717.4 82.79C720.269 86.5027 723.982 89.4782 728.23 91.47C733.498 93.8297 738.933 95.7984 744.49 97.36C748.088 98.344 751.632 99.5123 755.11 100.86C757.422 101.789 759.552 103.119 761.4 104.79C762.23 105.549 762.889 106.478 763.33 107.513C763.772 108.548 763.986 109.665 763.96 110.79C764.017 112.1 763.753 113.404 763.192 114.589C762.631 115.774 761.789 116.804 760.74 117.59C758.6 119.217 755.67 120.033 751.95 120.04C748.769 120.188 745.645 119.163 743.17 117.16C740.923 115.253 739.607 112.473 739.22 108.82H712.56C712.592 114.8 714.572 120.607 718.2 125.36C721.92 130.059 726.86 133.647 732.48 135.73C738.937 138.156 745.793 139.344 752.69 139.23C760.397 139.23 767.083 137.877 772.75 135.17C778.021 132.816 782.526 129.029 785.75 124.24C788.697 119.708 790.239 114.406 790.18 109C790.18 103.107 788.667 98.2933 785.64 94.56C782.749 90.9271 779.07 87.9999 774.88 86C769.616 83.6121 764.209 81.5515 758.69 79.83C752.023 77.7767 747.143 75.8633 744.05 74.09C740.957 72.3167 739.393 69.84 739.36 66.66C739.284 65.4103 739.496 64.1598 739.979 63.0051C740.463 61.8503 741.206 60.8221 742.15 60C744.236 58.3816 746.833 57.5624 749.47 57.69C752.581 57.5607 755.638 58.5268 758.11 60.42C759.224 61.3328 760.128 62.4755 760.76 63.77C761.392 65.0644 761.736 66.4801 761.77 67.92H788.86C788.367 58.6733 784.657 51.4567 777.73 46.27C770.803 41.0833 761.673 38.4933 750.34 38.5Z" fill="black"/>
<path d="M243.51 118.26V135.12C246.02 138.583 248.98 141.697 252.31 144.38V127.51C248.98 124.83 246.021 121.72 243.51 118.26Z" fill="#BE0045" stroke="black" stroke-miterlimit="10"/>
<path d="M330.22 118.26V135.12C327.707 138.58 324.748 141.694 321.42 144.38V127.51C324.747 124.827 327.706 121.717 330.22 118.26Z" fill="#BE0045" stroke="black" stroke-miterlimit="10"/>
<path d="M718.51 125.86V142.38C719.997 144.41 721.746 146.236 723.71 147.81V130.94C721.753 129.492 720.003 127.783 718.51 125.86Z" fill="#BE0045" stroke="black" stroke-miterlimit="10"/>
<path d="M522.54 113V128.53C524.815 131.397 527.458 133.952 530.4 136.13V120.58C527.458 118.402 524.815 115.847 522.54 112.98" fill="#BE0045"/>
<path d="M522.54 113V128.53C524.815 131.397 527.458 133.952 530.4 136.13V120.58C527.458 118.402 524.815 115.847 522.54 112.98" stroke="black" stroke-miterlimit="10"/>
</g>
<defs>
<clipPath id="clip0_254_1445">
<rect width="739.68" height="119.09" fill="white" transform="translate(51 38)"/>
</clipPath>
</defs>
</svg>
