<svg width="423" height="103" viewBox="0 0 423 103" fill="none" xmlns="http://www.w3.org/2000/svg">
<g clip-path="url(#clip0_274_409)">
<path d="M423 91.1278H0L23.5432 0H399.457L423 91.1278Z" fill="#E0E673"/>
<path d="M0 91.1279L11.7716 103H411.228L423 91.1279H0Z" fill="#60662F"/>
<path d="M169.272 61.294C167.116 61.294 165.184 60.944 163.476 60.244C161.768 59.544 160.396 58.508 159.36 57.136C158.352 55.764 157.82 54.112 157.764 52.18H165.408C165.52 53.272 165.898 54.112 166.542 54.7C167.186 55.26 168.026 55.54 169.062 55.54C170.126 55.54 170.966 55.302 171.582 54.826C172.198 54.322 172.506 53.636 172.506 52.768C172.506 52.04 172.254 51.438 171.75 50.962C171.274 50.486 170.672 50.094 169.944 49.786C169.244 49.478 168.236 49.128 166.92 48.736C165.016 48.148 163.462 47.56 162.258 46.972C161.054 46.384 160.018 45.516 159.15 44.368C158.282 43.22 157.848 41.722 157.848 39.874C157.848 37.13 158.842 34.988 160.83 33.448C162.818 31.88 165.408 31.096 168.6 31.096C171.848 31.096 174.466 31.88 176.454 33.448C178.442 34.988 179.506 37.144 179.646 39.916H171.876C171.82 38.964 171.47 38.222 170.826 37.69C170.182 37.13 169.356 36.85 168.348 36.85C167.48 36.85 166.78 37.088 166.248 37.564C165.716 38.012 165.45 38.67 165.45 39.538C165.45 40.49 165.898 41.232 166.794 41.764C167.69 42.296 169.09 42.87 170.994 43.486C172.898 44.13 174.438 44.746 175.614 45.334C176.818 45.922 177.854 46.776 178.722 47.896C179.59 49.016 180.024 50.458 180.024 52.222C180.024 53.902 179.59 55.428 178.722 56.8C177.882 58.172 176.65 59.264 175.026 60.076C173.402 60.888 171.484 61.294 169.272 61.294ZM191.626 37.27V43.234H201.244V48.778H191.626V55.246H202.504V61H184.444V31.516H202.504V37.27H191.626ZM233.543 61H226.361L214.349 42.814V61H207.167V31.516H214.349L226.361 49.786V31.516H233.543V61ZM249.795 31.516C252.903 31.516 255.619 32.132 257.943 33.364C260.267 34.596 262.059 36.332 263.319 38.572C264.607 40.784 265.251 43.346 265.251 46.258C265.251 49.142 264.607 51.704 263.319 53.944C262.059 56.184 260.253 57.92 257.901 59.152C255.577 60.384 252.875 61 249.795 61H238.749V31.516H249.795ZM249.333 54.784C252.049 54.784 254.163 54.042 255.675 52.558C257.187 51.074 257.943 48.974 257.943 46.258C257.943 43.542 257.187 41.428 255.675 39.916C254.163 38.404 252.049 37.648 249.333 37.648H245.931V54.784H249.333Z" fill="black"/>
</g>
<defs>
<clipPath id="clip0_274_409">
<rect width="423" height="103" fill="white"/>
</clipPath>
</defs>
</svg>
