<svg width="171" height="179" viewBox="0 0 171 179" fill="none" xmlns="http://www.w3.org/2000/svg">
<path d="M153.261 42.8728C125.419 5.47239 72.5964 -2.22158 35.2835 25.686C-2.02934 53.5935 -9.7053 106.54 18.1369 143.944C45.9791 181.348 98.8152 189.038 136.115 161.131C144.988 154.495 152.469 146.171 158.133 136.637C163.797 127.102 167.531 116.543 169.123 105.561C170.716 94.5801 170.134 83.392 167.413 72.6358C164.691 61.8797 159.883 51.7662 153.261 42.8728Z" fill="#7CCC3D" stroke="black" stroke-linecap="round" stroke-linejoin="round"/>
<path d="M85.7654 168.832C72.8783 168.824 60.1621 165.876 48.5809 160.21C32.6167 152.335 19.552 139.593 11.2622 123.812C2.97244 108.032 -0.116229 90.0244 2.43956 72.3748C5.34574 52.3314 15.3509 34.0057 30.6263 20.7471C45.9017 7.48856 65.4271 0.18275 85.6336 0.165039C98.518 0.17758 111.231 3.12924 122.808 8.79641C138.776 16.6672 151.844 29.4077 160.137 45.1883C168.429 60.9689 171.519 78.9777 168.963 96.6285C166.054 116.67 156.048 134.993 140.773 148.25C125.498 161.507 105.974 168.813 85.7686 168.832H85.7654Z" fill="#BCFF87"/>
<path d="M85.6333 0.330095C98.4916 0.341968 111.179 3.28804 122.732 8.94496C138.669 16.8001 151.712 29.5156 159.989 45.2654C168.265 61.0152 171.349 78.989 168.798 96.6054C165.917 116.619 155.937 134.921 140.687 148.158C125.437 161.394 105.938 168.679 85.765 168.676C72.9071 168.664 60.2206 165.719 48.6662 160.065C32.7175 152.222 19.6639 139.508 11.3854 123.753C3.10696 107.999 0.0310076 90.0169 2.60059 72.3979C5.48305 52.3856 15.4637 34.0846 30.7134 20.8487C45.9632 7.61267 65.4608 0.328188 85.6333 0.330095ZM85.6333 2.30514e-05C67.4812 -0.0111681 49.8147 5.87681 35.2835 16.7809C-2.03264 44.6917 -9.70531 97.6352 18.1369 135.039C26.7383 146.591 38.1449 155.745 51.2719 161.631C64.3988 167.517 78.8098 169.939 93.1343 168.667C107.459 167.395 121.221 162.471 133.111 154.364C145.001 146.257 154.625 135.235 161.066 122.348C167.508 109.46 170.553 95.1354 169.912 80.7354C169.272 66.3354 164.967 52.339 157.407 40.0772C149.847 27.8154 139.284 17.6959 126.721 10.6811C114.158 3.66629 100.014 -0.0106227 85.6333 2.30514e-05Z" fill="black"/>
<path d="M58.2029 164.659V173.211C40.8396 167.301 25.8719 155.878 15.5685 140.673C5.26508 125.468 0.187664 107.311 1.1058 88.9541C1.97172 105.851 7.87623 122.099 18.0555 135.596C28.2347 149.092 42.2203 159.217 58.2029 164.659Z" fill="#6DA739" stroke="black" stroke-linecap="round" stroke-linejoin="round"/>
<path d="M168.729 105.622C166.484 121.04 160.037 135.538 150.097 147.517C140.157 159.497 127.111 168.493 112.396 173.515V164.963C127.111 159.941 140.157 150.944 150.097 138.965C160.037 126.986 166.484 112.488 168.729 97.0701C169.107 94.4295 169.361 91.8055 169.493 89.1748C169.772 94.6692 169.516 100.178 168.729 105.622Z" fill="#6DA739" stroke="black" stroke-linecap="round" stroke-linejoin="round"/>
<path d="M107.753 138.363C104.651 138.364 101.578 137.773 98.6972 136.62C90.6777 133.167 83.2631 128.447 76.7362 122.639C70.6495 117.36 65.1601 111.427 60.3668 104.947C55.9463 99.0512 52.1229 92.7288 48.9533 86.0732C45.4739 78.905 43.0015 71.2883 41.6066 63.4402C40.8278 58.946 41.32 54.3231 43.0276 50.0949C44.7351 45.8667 47.5898 42.2022 51.2683 39.5166L57.4887 34.8659C57.8827 34.5691 58.3312 34.3531 58.8085 34.2303C59.2859 34.1074 59.7827 34.0802 60.2706 34.1501C60.7585 34.22 61.2278 34.3857 61.6517 34.6377C62.0757 34.8896 62.4458 35.2229 62.741 35.6185L77.3981 55.3139C77.9907 56.1122 78.2436 57.1132 78.1017 58.098C77.9598 59.0827 77.4345 59.9711 76.6407 60.5686L65.0988 69.2C63.4601 70.3977 62.309 72.1493 61.8581 74.1313C61.4072 76.1133 61.6869 78.192 62.6455 79.9834C65.5645 85.5287 68.9127 90.836 72.6595 95.8566C76.8352 101.489 81.4998 106.74 86.5988 111.548C88.0537 112.916 89.9412 113.728 91.9324 113.844C93.9236 113.96 95.8923 113.372 97.4953 112.182L108.665 103.696C109.464 103.101 110.465 102.849 111.449 102.993C112.433 103.138 113.32 103.669 113.914 104.468L128.601 124.216C129.173 124.982 129.432 125.936 129.327 126.887C129.222 127.837 128.76 128.711 128.034 129.332L127.84 129.458L122.535 133.396C118.274 136.611 113.087 138.354 107.753 138.363Z" fill="#7CCC3D"/>
<path d="M59.7341 34.2778C60.2917 34.2757 60.842 34.4049 61.3407 34.6548C61.8395 34.9048 62.2727 35.2686 62.6056 35.7169L62.869 35.5189L62.6155 35.7301L77.2627 55.4123C77.8318 56.1752 78.0758 57.1332 77.9412 58.0762C77.8067 59.0192 77.3045 59.8702 76.5448 60.4426L65.0194 69.0607C63.3478 70.2813 62.1734 72.0672 61.7134 74.0882C61.2534 76.1092 61.5387 78.2289 62.5167 80.0554C65.4381 85.6085 68.7908 90.9225 72.5438 95.9484C76.7252 101.59 81.3964 106.85 86.5028 111.666C87.9847 113.063 89.9084 113.894 91.9388 114.014C93.9691 114.135 95.9773 113.538 97.6134 112.327L108.78 103.84C109.54 103.275 110.493 103.034 111.43 103.17C112.367 103.306 113.213 103.808 113.782 104.567L128.452 124.315C128.984 125.024 129.234 125.906 129.156 126.789C129.078 127.673 128.676 128.497 128.027 129.101L127.728 129.322L122.416 133.266C118.187 136.457 113.039 138.187 107.746 138.198C104.672 138.203 101.626 137.621 98.7692 136.484C90.7628 133.038 83.3604 128.325 76.8445 122.526C70.7653 117.256 65.2824 111.331 60.4948 104.86C56.0825 98.9724 52.2658 92.6589 49.101 86.0132C45.6276 78.8602 43.1607 71.2588 41.7709 63.4264C41.0102 58.9627 41.505 54.3748 43.1999 50.1772C44.8948 45.9796 47.7227 42.3382 51.3666 39.6613L57.5871 35.0106C58.2056 34.5429 58.9594 34.2903 59.7341 34.291M59.7341 33.9609C58.8882 33.9609 58.0653 34.2367 57.3895 34.7465L51.169 39.3972C47.475 42.1115 44.6084 45.8037 42.8907 50.0597C41.1731 54.3157 40.6725 58.9672 41.4448 63.4924C42.8411 71.3556 45.318 78.9869 48.8047 86.1684C51.9787 92.8327 55.8064 99.1638 60.2314 105.068C65.0335 111.558 70.5317 117.499 76.6271 122.787C83.172 128.595 90.6015 133.318 98.6342 136.775C102.575 138.346 106.853 138.871 111.056 138.3C115.258 137.729 119.243 136.08 122.624 133.514L127.942 129.589V129.619C128.772 128.995 129.321 128.065 129.468 127.035C129.615 126.006 129.348 124.959 128.726 124.127L114.059 104.382C113.435 103.55 112.508 103.001 111.481 102.853C110.454 102.706 109.41 102.973 108.579 103.596L97.3993 112.059C95.8272 113.225 93.8969 113.802 91.9443 113.689C89.9918 113.575 88.1408 112.779 86.7136 111.439C81.6201 106.637 76.961 101.393 72.7908 95.7668C69.048 90.7566 65.7041 85.4592 62.79 79.9234C61.8648 78.1652 61.5989 76.1329 62.0406 74.1951C62.4822 72.2572 63.6021 70.5422 65.1972 69.3611L76.7226 60.7396C77.5534 60.1158 78.103 59.1867 78.2506 58.1568C78.3982 57.1268 78.1317 56.0803 77.5097 55.2473L62.8624 35.5651C62.4974 35.0773 62.0241 34.6813 61.48 34.4086C60.9359 34.1359 60.3359 33.9939 59.7275 33.9939L59.7341 33.9609Z" fill="black"/>
<path d="M128.736 119.833H128.719V119.8L123.411 123.741C120.029 126.303 116.046 127.948 111.844 128.517C107.643 129.085 103.367 128.558 99.4282 126.985C91.3917 123.523 83.9606 118.793 77.4179 112.974C71.3209 107.688 65.8225 101.746 61.0221 95.2554C56.5946 89.3528 52.7667 83.0213 49.5954 76.3555C46.1077 69.1744 43.6308 61.5431 42.2356 53.6796C41.4636 49.1544 41.9644 44.503 43.682 40.2471C45.3996 35.9911 48.266 32.2989 51.9598 29.5844L58.1769 24.9337C58.59 24.6252 59.0599 24.4014 59.5594 24.2752C60.059 24.149 60.5785 24.1229 61.0881 24.1983C61.5978 24.2738 62.0876 24.4493 62.5294 24.7148C62.9713 24.9803 63.3565 25.3306 63.663 25.7457L78.307 45.4245C78.6156 45.8367 78.8401 46.3057 78.9677 46.8048C79.0953 47.304 79.1235 47.8235 79.0508 48.3336C78.978 48.8436 78.8056 49.3343 78.5435 49.7776C78.2814 50.2209 77.9347 50.608 77.5232 50.9169L65.9978 59.5384C64.4027 60.7195 63.2828 62.4345 62.8412 64.3724C62.3995 66.3102 62.6654 68.3425 63.5906 70.1007C66.5039 75.6369 69.8479 80.9344 73.5914 85.9441C77.7597 91.5704 82.4178 96.8149 87.5109 101.616C88.9374 102.957 90.7883 103.754 92.741 103.868C94.6937 103.982 96.6244 103.406 98.1966 102.24L109.363 93.7536C109.774 93.4443 110.242 93.2193 110.74 93.0913C111.238 92.9634 111.756 92.9351 112.265 93.0081C112.774 93.081 113.264 93.2538 113.706 93.5165C114.148 93.7793 114.535 94.1268 114.843 94.5392L129.513 114.284C129.831 114.697 130.063 115.17 130.196 115.675C130.329 116.179 130.36 116.705 130.288 117.222C130.215 117.739 130.041 118.236 129.774 118.684C129.508 119.132 129.155 119.523 128.736 119.833Z" fill="#FEFFFF" stroke="black" stroke-linecap="round" stroke-linejoin="round"/>
<path d="M63.8401 70.6092C64.2426 70.1352 64.6978 69.7088 65.1968 69.3384L75.6257 61.5388C78.1712 59.9908 78.1811 58.5451 78.1811 58.5451C78.2831 58.1308 78.3197 57.7032 78.2898 57.2776L79.0702 48.2402C78.8529 50.2702 76.8441 51.3528 76.8441 51.3528L72.9617 54.3565L65.9937 59.5782C64.3987 60.7593 63.2788 62.4743 62.8372 64.4122C62.3955 66.35 62.6614 68.3823 63.5866 70.1405C63.6689 70.2956 63.7545 70.4508 63.8401 70.6092Z" fill="#6DA739" stroke="black" stroke-linecap="round" stroke-linejoin="round"/>
<path d="M130.171 117.687C129.951 118.885 126.664 121.344 126.664 121.344L123.417 123.754C120.036 126.317 116.052 127.962 111.851 128.53C107.649 129.099 103.373 128.571 99.4344 126.999C91.3979 123.537 83.9669 118.806 77.4241 112.987C71.3271 107.702 65.8288 101.76 61.0283 95.2688C56.6008 89.3661 52.7729 83.0347 49.6016 76.3689C46.114 69.1878 43.6371 61.5564 42.2418 53.693C42.1694 53.2771 42.1134 52.8612 42.064 52.4453C41.0299 56.0261 40.8183 59.7952 41.4449 63.4697C42.8412 71.3329 45.318 78.9641 48.8047 86.1456C51.9787 92.8099 55.8065 99.1411 60.2314 105.046C65.0336 111.535 70.5318 117.477 76.6272 122.764C83.1704 128.581 90.6 133.311 98.6342 136.775C102.575 138.345 106.853 138.87 111.056 138.298C115.258 137.727 119.242 136.079 122.624 133.514C122.624 133.514 126.5 130.808 127.925 129.606C128.202 129.402 128.451 129.162 128.666 128.893C129.325 128.108 129.325 127.616 129.325 127.616C129.49 127.084 130.198 117.539 130.171 117.687Z" fill="#6DA739" stroke="black" stroke-linecap="round" stroke-linejoin="round"/>
<path d="M115.1 127.863V137.297" stroke="black" stroke-linecap="round" stroke-linejoin="round"/>
<path d="M102.01 127.863V137.614" stroke="black" stroke-linecap="round" stroke-linejoin="round"/>
</svg>
