<svg width="648" height="101" viewBox="0 0 648 101" fill="none" xmlns="http://www.w3.org/2000/svg">
<g clip-path="url(#clip0_261_6654)">
<path d="M6.24017 30.3203C9.99559 23.4361 15.6312 17.7534 22.494 13.9309C29.7164 9.93768 37.8645 7.90586 46.1225 8.03885C56.9201 8.03885 66.1583 10.8797 73.8371 16.5614C81.516 22.243 86.6544 29.9871 89.2524 39.7934H64.9004C63.2645 36.202 60.5797 33.1861 57.1969 31.1398C53.7646 29.1347 49.8455 28.1085 45.8677 28.1733C39.0438 28.1733 33.519 30.5388 29.2932 35.2699C25.0673 40.001 22.9517 46.3301 22.9462 54.2571C22.9462 62.1732 25.0619 68.4968 29.2932 73.2279C33.5245 77.959 39.0493 80.3191 45.8677 80.3081C49.8444 80.3821 53.7646 79.3613 57.1969 77.358C60.5804 75.3163 63.2657 72.3026 64.9004 68.7126H89.2524C86.6599 78.5463 81.5215 86.2684 73.8371 91.8791C66.1528 97.4898 56.9146 100.309 46.1225 100.336C37.866 100.474 29.718 98.4479 22.494 94.4604C15.643 90.652 10.0091 84.9939 6.24017 78.1365C2.34867 71.1656 0.405663 63.2057 0.411144 54.2571C0.416625 45.3085 2.35963 37.3295 6.24017 30.3203Z" fill="#FE00FF" stroke="black" stroke-linecap="round" stroke-linejoin="round"/>
<path d="M122.336 94.6576C115.279 90.7619 109.417 85.0291 105.375 78.0714C101.14 70.8056 98.9689 62.5283 99.0935 54.1264C98.9626 45.7445 101.135 37.4867 105.375 30.247C109.431 23.3172 115.292 17.6091 122.336 13.7264C129.553 9.8276 137.632 7.78564 145.841 7.78564C154.05 7.78564 162.129 9.8276 169.346 13.7264C176.372 17.5908 182.196 23.3059 186.184 30.247C190.337 37.5162 192.461 45.7619 192.333 54.1264C192.458 62.5198 190.311 70.7914 186.118 78.0714C182.122 85.0225 176.301 90.7567 169.28 94.6576C162.073 98.5514 154.005 100.591 145.808 100.591C137.61 100.591 129.542 98.5514 122.336 94.6576ZM163.262 73.2283C167.619 68.4099 169.798 62.0425 169.798 54.1264C169.798 46.1229 167.619 39.7338 163.262 34.959C158.905 30.1842 153.098 27.7968 145.841 27.7968C138.502 27.7968 132.654 30.1623 128.296 34.8934C123.939 39.6245 121.746 46.0355 121.719 54.1264C121.719 62.1245 123.911 68.5137 128.296 73.2939C132.681 78.0742 138.529 80.4616 145.841 80.4561C153.092 80.4561 158.899 78.0469 163.262 73.2283Z" fill="#FE00FF" stroke="black" stroke-linecap="round" stroke-linejoin="round"/>
<path d="M285.968 99.6887H263.819L226.781 43.8006V99.6887H204.633V9.07959H226.781L263.819 65.2217V9.07959H285.968V99.6887Z" fill="#FE00FF" stroke="black" stroke-linecap="round" stroke-linejoin="round"/>
<path d="M367.418 9.07959V26.7638H343.337V99.6969H321.189V26.7638H297.1V9.07959H367.418Z" fill="#FE00FF" stroke="black" stroke-linecap="round" stroke-linejoin="round"/>
<path d="M435.147 83.6844H401.208L395.774 99.6887H372.598L405.484 9.07959H431.135L464.02 99.6887H440.589L435.147 83.6844ZM429.449 66.6475L418.186 33.4753L407.046 66.6475H429.449Z" fill="#FE00FF" stroke="black" stroke-linecap="round" stroke-linejoin="round"/>
<path d="M476.073 30.3205C479.828 23.4363 485.464 17.7536 492.327 13.9311C499.551 9.94359 507.699 7.91744 515.955 8.05543C526.753 8.05543 535.991 10.8963 543.67 16.5779C551.349 22.2596 556.479 29.9982 559.06 39.7936H534.733C533.088 36.1977 530.392 33.1812 526.997 31.14C523.564 29.1349 519.645 28.1087 515.668 28.1735C508.844 28.1735 503.319 30.539 499.093 35.2701C494.867 40.0012 492.752 46.3275 492.746 54.2491C492.746 62.1652 494.862 68.4888 499.093 73.2199C503.324 77.951 508.86 80.3138 515.7 80.3083C519.666 80.3763 523.574 79.3557 526.997 77.3582C530.38 75.3164 533.066 72.3028 534.7 68.7128H559.06C556.473 78.5465 551.335 86.2686 543.645 91.8793C535.955 97.4899 526.717 100.309 515.931 100.336C507.674 100.474 499.526 98.4481 492.302 94.4606C485.451 90.6522 479.817 84.9941 476.048 78.1367C472.195 71.1658 470.269 63.2059 470.269 54.2573C470.269 45.3087 472.203 37.3297 476.073 30.3205Z" fill="#FE00FF" stroke="black" stroke-linecap="round" stroke-linejoin="round"/>
<path d="M638.077 9.07959V26.7638H613.988V99.6969H591.848V26.7638H567.759V9.07959H638.077Z" fill="#FE00FF" stroke="black" stroke-linecap="round" stroke-linejoin="round"/>
<path d="M15.7529 22.9453C19.5083 16.0611 25.1439 10.3784 32.0067 6.55586C39.2291 2.56268 47.3772 0.530864 55.6352 0.663848C66.4273 0.663848 75.6655 3.50469 83.3498 9.18636C91.0341 14.868 96.1726 22.6121 98.7651 32.4184H74.4131C72.7772 28.827 70.0924 25.8111 66.7096 23.7648C63.2773 21.7597 59.3582 20.7335 55.3804 20.7983C48.5565 20.7983 43.0317 23.1638 38.8059 27.8949C34.58 32.626 32.4644 38.9551 32.4589 46.8821C32.4589 54.7982 34.5746 61.1218 38.8059 65.8529C43.0372 70.584 48.562 72.9441 55.3804 72.9331C59.3571 73.0071 63.2773 71.9863 66.7096 69.983C70.0931 67.9413 72.7784 64.9276 74.4131 61.3376H98.7651C96.178 71.1713 91.0396 78.8934 83.3498 84.5041C75.66 90.1148 66.4218 92.9337 55.6352 92.9611C47.3787 93.099 39.2307 91.0729 32.0067 87.0854C25.1557 83.277 19.5218 77.6189 15.7529 70.7615C11.8614 63.7906 9.91836 55.8307 9.92384 46.8821C9.92932 37.9335 11.8723 29.9545 15.7529 22.9453Z" fill="#FEFFFF" stroke="black" stroke-linecap="round" stroke-linejoin="round"/>
<path d="M131.848 87.2821C124.792 83.3864 118.93 77.6536 114.887 70.6959C110.653 63.4301 108.482 55.1528 108.606 46.7509C108.475 38.3691 110.647 30.1112 114.887 22.8715C118.944 15.9417 124.804 10.2336 131.848 6.35095C139.065 2.45212 147.145 0.410156 155.353 0.410156C163.562 0.410156 171.642 2.45212 178.859 6.35095C185.877 10.2165 191.694 15.9319 195.672 22.8715C199.83 30.1388 201.954 38.3858 201.821 46.7509C201.966 55.1382 199.841 63.4095 195.672 70.6959C191.675 77.6471 185.854 83.3812 178.834 87.2821C171.627 91.1759 163.559 93.2152 155.362 93.2152C147.164 93.2152 139.096 91.1759 131.889 87.2821H131.848ZM172.775 65.8529C177.132 61.0344 179.311 54.6671 179.311 46.7509C179.311 38.7474 177.132 32.3583 172.775 27.5835C168.417 22.8087 162.621 20.4213 155.386 20.4213C148.053 20.4213 142.205 22.7868 137.842 27.5179C133.479 32.249 131.286 38.66 131.265 46.7509C131.265 54.749 133.457 61.1382 137.842 65.9184C142.227 70.6987 148.075 73.0861 155.386 73.0806C162.616 73.0806 168.412 70.6714 172.775 65.8529Z" fill="#FEFFFF" stroke="black" stroke-linecap="round" stroke-linejoin="round"/>
<path d="M295.48 92.3137H273.331L236.334 36.4256V92.3137H214.145V1.70459H236.293L273.29 57.8467V1.70459H295.48V92.3137Z" fill="#FEFFFF" stroke="black" stroke-linecap="round" stroke-linejoin="round"/>
<path d="M376.93 1.70459V19.3888H352.849V92.3219H330.7V19.3888H306.611V1.70459H376.93Z" fill="#FEFFFF" stroke="black" stroke-linecap="round" stroke-linejoin="round"/>
<path d="M444.658 76.3094H410.728L405.318 92.3137H382.134L415.02 1.70459H440.671L473.557 92.3137H450.101L444.658 76.3094ZM438.961 59.2725L427.697 26.1003L416.557 59.2725H438.961Z" fill="#FEFFFF" stroke="black" stroke-linecap="round" stroke-linejoin="round"/>
<path d="M485.585 22.9454C489.343 16.0631 494.978 10.381 501.839 6.55595C509.064 2.56175 517.215 0.529903 525.476 0.663942C536.262 0.663942 545.498 3.50478 553.182 9.18646C560.866 14.8681 566.005 22.6122 568.597 32.4185H544.262C542.618 28.8271 539.928 25.8118 536.542 23.7649C533.109 21.7598 529.19 20.7336 525.212 20.7984C518.389 20.7984 512.864 23.1639 508.638 27.895C504.412 32.6261 502.31 38.9552 502.332 46.8822C502.332 54.7983 504.448 61.1219 508.679 65.853C512.91 70.5841 518.421 72.9442 525.212 72.9332C529.191 73.0022 533.111 71.9757 536.542 69.9667C539.926 67.9287 542.616 64.9217 544.262 61.3377H568.597C566.005 71.1714 560.866 78.8935 553.182 84.5042C545.498 90.1148 536.262 92.9338 525.476 92.9611C517.216 93.1002 509.065 91.074 501.839 87.0855C494.989 83.275 489.356 77.6174 485.585 70.7616C481.693 63.7906 479.75 55.8308 479.756 46.8822C479.761 37.9336 481.704 29.9546 485.585 22.9454Z" fill="#FEFFFF" stroke="black" stroke-linecap="round" stroke-linejoin="round"/>
<path d="M647.589 1.70459V19.3888H623.508V92.3219H601.359V19.3888H577.271V1.70459H647.589Z" fill="#FEFFFF" stroke="black" stroke-linecap="round" stroke-linejoin="round"/>
</g>
<defs>
<clipPath id="clip0_261_6654">
<rect width="648" height="101" fill="white"/>
</clipPath>
</defs>
</svg>
