<svg width="549" height="550" viewBox="0 0 549 550" fill="none" xmlns="http://www.w3.org/2000/svg">
<g opacity="0.5">
<path d="M29.63 29.63H0V0H29.63V29.63ZM0.760629 28.8693H28.8693V0.760629H0.760629V28.8693Z" fill="white"/>
<path d="M58.4635 29.63H28.8682V0H58.4635V29.63ZM29.6288 28.8693H57.7029V0.760629H29.6288V28.8693Z" fill="white"/>
<path d="M87.336 29.63H57.7061V0H87.336V29.63ZM58.4667 28.8693H86.4371V0.760629H58.4667V28.8693Z" fill="white"/>
<path d="M116.204 29.63H86.4355V0H116.066L116.204 29.63ZM87.3345 28.8693H115.409V0.760629H87.3345V28.8693Z" fill="white"/>
<path d="M145.21 29.63H115.407V0H145.21V29.63ZM116.375 28.8693H144.449V0.760629H116.202L116.375 28.8693Z" fill="white"/>
<path d="M173.909 29.63H144.279V0H173.909V29.63ZM145.213 28.8693H173.287V0.760629H145.213V28.8693Z" fill="white"/>
<path d="M202.743 29.63H173.113V0H202.743V29.63ZM173.908 28.8693H201.983V0.760629H173.908V28.8693Z" fill="white"/>
<path d="M231.646 29.63H201.981V0H231.646V29.63ZM202.777 28.8693H230.885V0.760629H202.742L202.777 28.8693Z" fill="white"/>
<path d="M260.48 29.63H230.85V0H260.48V29.63ZM231.645 28.8693H259.719V0.760629H231.645V28.8693Z" fill="white"/>
<path d="M289.317 29.63H259.688V0H289.317V29.63ZM260.483 28.8693H288.557V0.760629H260.483V28.8693Z" fill="white"/>
<path d="M318.081 29.63H288.555V0H318.081V29.63ZM289.212 28.8693H317.389V0.760629H289.315L289.212 28.8693Z" fill="white"/>
<path d="M347.019 29.63H317.389V0H347.019V29.63ZM318.08 28.8693H346.154V0.760629H318.08V28.8693Z" fill="white"/>
<path d="M375.891 29.63H346.261V0H375.891V29.63ZM347.021 28.8693H375.13V0.760629H347.021V28.8693Z" fill="white"/>
<path d="M404.723 29.63H375.128V0H404.723V29.63ZM375.889 28.8693H403.963V0.760629H375.889V28.8693Z" fill="white"/>
<path d="M433.593 29.63H403.963V0H433.593V29.63ZM404.724 28.8693H432.832V0.760629H404.724V28.8693Z" fill="white"/>
<path d="M462.464 29.63H432.834V0H462.464V29.63ZM433.595 28.8693H461.669V0.760629H433.595V28.8693Z" fill="white"/>
<path d="M491.299 29.63H461.669V0H491.299V29.63ZM462.464 28.8693H490.538V0.760629H462.464V28.8693Z" fill="white"/>
<path d="M520.166 29.63H490.536V0H520.166V29.63ZM491.297 28.8693H519.371V0.760629H491.297V28.8693Z" fill="white"/>
<path d="M549 29.63H519.37V0H549V29.63ZM520.165 28.8693H548.239V0.760629H520.165V28.8693Z" fill="white"/>
<path d="M29.63 58.4655H0V28.8701H29.63V58.4655ZM0.760629 57.7049H28.8693V29.6307H0.760629V57.7049Z" fill="white"/>
<path d="M58.4635 58.4655H28.8682V28.8701H58.4635V58.4655ZM29.6288 57.7049H57.7029V29.6307H29.6288V57.7049Z" fill="white"/>
<path d="M87.336 58.4655H57.7061V28.8701H87.336V58.4655ZM58.4667 57.7049H86.4371V29.6307H58.4667V57.7049Z" fill="white"/>
<path d="M116.204 58.4655H86.4355V28.8701H116.066L116.204 58.4655ZM87.3345 57.7049H115.409V29.6307H87.3345V57.7049Z" fill="white"/>
<path d="M145.21 58.4655H115.407V28.8701H145.21V58.4655ZM116.375 57.7049H144.449V29.6307H116.202L116.375 57.7049Z" fill="white"/>
<path d="M173.909 58.4655H144.279V28.8701H173.909V58.4655ZM145.213 57.7049H173.287V29.6307H145.213V57.7049Z" fill="white"/>
<path d="M202.743 58.4655H173.113V28.8701H202.743V58.4655ZM173.908 57.7049H201.983V29.6307H173.908V57.7049Z" fill="white"/>
<path d="M231.646 58.4655H201.981V28.8701H231.646V58.4655ZM202.777 57.7049H230.885V29.6307H202.742L202.777 57.7049Z" fill="white"/>
<path d="M260.48 58.4655H230.85V28.8701H260.48V58.4655ZM231.645 57.7049H259.719V29.6307H231.645V57.7049Z" fill="white"/>
<path d="M289.317 58.4655H259.688V28.8701H289.317V58.4655ZM260.483 57.7049H288.557V29.6307H260.483V57.7049Z" fill="white"/>
<path d="M318.081 58.4655H288.555V28.8701H318.081V58.4655ZM289.212 57.7049H317.389V29.6307H289.315L289.212 57.7049Z" fill="white"/>
<path d="M347.019 58.4655H317.389V28.8701H347.019V58.4655ZM318.08 57.7049H346.154V29.6307H318.08V57.7049Z" fill="white"/>
<path d="M375.891 58.4655H346.261V28.8701H375.891V58.4655ZM347.021 57.7049H375.13V29.6307H347.021V57.7049Z" fill="white"/>
<path d="M404.723 58.4655H375.128V28.8701H404.723V58.4655ZM375.889 57.7049H403.963V29.6307H375.889V57.7049Z" fill="white"/>
<path d="M433.593 58.4655H403.963V28.8701H433.593V58.4655ZM404.724 57.7049H432.832V29.6307H404.724V57.7049Z" fill="white"/>
<path d="M462.464 58.4655H432.834V28.8701H462.464V58.4655ZM433.595 57.7049H461.669V29.6307H433.595V57.7049Z" fill="white"/>
<path d="M491.299 58.4655H461.669V28.8701H491.299V58.4655ZM462.464 57.7049H490.538V29.6307H462.464V57.7049Z" fill="white"/>
<path d="M520.166 58.4655H490.536V28.8701H520.166V58.4655ZM491.297 57.7049H519.371V29.6307H491.297V57.7049Z" fill="white"/>
<path d="M549 58.4655H519.37V28.8701H549V58.4655ZM520.165 57.7049H548.239V29.6307H520.165V57.7049Z" fill="white"/>
<path d="M29.63 87.3341H0V57.7041H29.63V87.3341ZM0.760629 86.4351H28.8693V58.4647H0.760629V86.4351Z" fill="white"/>
<path d="M58.4635 87.3341H28.8682V57.7041H58.4635V87.3341ZM29.6288 86.4351H57.7029V58.4647H29.6288V86.4351Z" fill="white"/>
<path d="M87.336 87.3341H57.7061V57.7041H87.336V87.3341ZM58.4667 86.4351H86.4371V58.4647H58.4667V86.4351Z" fill="white"/>
<path d="M116.204 87.3341H86.4355V57.7041H116.066L116.204 87.3341ZM87.3345 86.4351H115.409V58.4647H87.3345V86.4351Z" fill="white"/>
<path d="M145.21 87.3341H115.407V57.7041H145.21V87.3341ZM116.202 86.4351H144.277V58.4647H116.202V86.4351Z" fill="white"/>
<path d="M173.909 87.3341H144.279V57.7041H173.909V87.3341ZM145.213 86.4351H173.287V58.4647H145.213V86.4351Z" fill="white"/>
<path d="M202.743 87.3341H173.113V57.7041H202.743V87.3341ZM173.908 86.4351H201.983V58.4647H173.908V86.4351Z" fill="white"/>
<path d="M231.646 87.3341H201.981V57.7041H231.646V87.3341ZM202.742 86.4351H230.851V58.4647H202.742V86.4351Z" fill="white"/>
<path d="M260.48 87.3341H230.85V57.7041H260.48V87.3341ZM231.645 86.4351H259.719V58.4647H231.645V86.4351Z" fill="white"/>
<path d="M289.317 87.3341H259.688V57.7041H289.317V87.3341ZM260.483 86.4351H288.557V58.4647H260.483V86.4351Z" fill="white"/>
<path d="M318.081 87.3341H288.555V57.7041H318.081V87.3341ZM289.315 86.4351H317.389V58.4647H289.315V86.4351Z" fill="white"/>
<path d="M347.019 87.3341H317.389V57.7041H347.019V87.3341ZM318.08 86.4351H346.154V58.4647H318.08V86.4351Z" fill="white"/>
<path d="M375.891 87.3341H346.261V57.7041H375.891V87.3341ZM347.021 86.4351H375.13V58.4647H347.021V86.4351Z" fill="white"/>
<path d="M404.723 87.3341H375.128V57.7041H404.723V87.3341ZM375.889 86.4351H403.963V58.4647H375.889V86.4351Z" fill="white"/>
<path d="M433.593 87.3341H403.963V57.7041H433.593V87.3341ZM404.724 86.4351H432.832V58.4647H404.724V86.4351Z" fill="white"/>
<path d="M462.464 87.3341H432.834V57.7041H462.464V87.3341ZM433.595 86.4351H461.669V58.4647H433.595V86.4351Z" fill="white"/>
<path d="M491.299 87.3341H461.669V57.7041H491.299V87.3341ZM462.464 86.4351H490.538V58.4647H462.464V86.4351Z" fill="white"/>
<path d="M520.166 87.3341H490.536V57.7041H520.166V87.3341ZM491.297 86.4351H519.371V58.4647H491.297V86.4351Z" fill="white"/>
<path d="M549 87.3341H519.37V57.7041H549V87.3341ZM520.165 86.4351H548.239V58.4647H520.165V86.4351Z" fill="white"/>
<path d="M29.63 116.203H0V86.4351H29.63V116.203ZM0.760629 115.408H28.8693V87.334H0.760629V115.408Z" fill="white"/>
<path d="M58.4635 116.203H28.8682V86.4351H58.4635V116.203ZM29.6288 115.408H57.7029V87.334H29.6288V115.408Z" fill="white"/>
<path d="M87.336 116.203H57.7061V86.4351H87.336V116.203ZM58.4667 115.408H86.4371V87.334H58.4667V115.408Z" fill="white"/>
<path d="M116.204 116.203H86.4355V86.4351H116.066L116.204 116.203ZM87.3345 115.408H115.409V87.334H87.3345V115.408Z" fill="white"/>
<path d="M145.21 116.203H115.407V86.4351H145.21V116.203ZM116.375 115.408H144.449V87.334H116.202L116.375 115.408Z" fill="white"/>
<path d="M173.909 116.203H144.279V86.4351H173.909V116.203ZM145.213 115.408H173.287V87.334H145.213V115.408Z" fill="white"/>
<path d="M202.743 116.203H173.113V86.4351H202.743V116.203ZM173.908 115.408H201.983V87.334H173.908V115.408Z" fill="white"/>
<path d="M231.646 116.203H201.981V86.4351H231.646V116.203ZM202.777 115.408H230.885V87.334H202.742L202.777 115.408Z" fill="white"/>
<path d="M260.48 116.203H230.85V86.4351H260.48V116.203ZM231.645 115.408H259.719V87.334H231.645V115.408Z" fill="white"/>
<path d="M289.317 116.203H259.688V86.4351H289.317V116.203ZM260.483 115.408H288.557V87.334H260.483V115.408Z" fill="white"/>
<path d="M318.081 116.203H288.555V86.4351H318.081V116.203ZM289.212 115.408H317.389V87.334H289.315L289.212 115.408Z" fill="white"/>
<path d="M347.019 116.203H317.389V86.4351H347.019V116.203ZM318.08 115.408H346.154V87.334H318.08V115.408Z" fill="white"/>
<path d="M375.891 116.203H346.261V86.4351H375.891V116.203ZM347.021 115.408H375.13V87.334H347.021V115.408Z" fill="white"/>
<path d="M404.723 116.203H375.128V86.4351H404.723V116.203ZM375.889 115.408H403.963V87.334H375.889V115.408Z" fill="white"/>
<path d="M433.593 116.203H403.963V86.4351H433.593V116.203ZM404.724 115.408H432.832V87.334H404.724V115.408Z" fill="white"/>
<path d="M462.464 116.203H432.834V86.4351H462.464V116.203ZM433.595 115.408H461.669V87.334H433.595V115.408Z" fill="white"/>
<path d="M491.299 116.203H461.669V86.4351H491.299V116.203ZM462.464 115.408H490.538V87.334H462.464V115.408Z" fill="white"/>
<path d="M520.166 116.203H490.536V86.4351H520.166V116.203ZM491.297 115.408H519.371V87.334H491.297V115.408Z" fill="white"/>
<path d="M549 116.203H519.37V86.4351H549V116.203ZM520.165 115.408H548.239V87.334H520.165V115.408Z" fill="white"/>
<path d="M29.63 145.211H0V115.408H29.63V145.211ZM0.760629 144.278H28.8693V116.203H0.760629V144.278Z" fill="white"/>
<path d="M58.4635 145.211H28.8682V115.408H58.4635V145.211ZM29.6288 144.45H57.7029V116.203H29.6288V144.45Z" fill="white"/>
<path d="M87.336 145.211H57.7061V115.408H87.336V145.211ZM58.4667 144.45H86.4371V116.203H58.4667V144.45Z" fill="white"/>
<path d="M116.204 145.211H86.4355V115.408H116.066L116.204 145.211ZM87.3345 144.45H115.409V116.203H87.3345V144.45Z" fill="white"/>
<path d="M145.21 145.211H115.407V115.408H145.21V145.211ZM116.375 144.45H144.449V116.203H116.202L116.375 144.45Z" fill="white"/>
<path d="M173.909 145.211H144.279V115.408H173.909V145.211ZM145.213 144.278H173.287V116.203H145.213V144.278Z" fill="white"/>
<path d="M202.743 145.211H173.113V115.408H202.743V145.211ZM173.908 144.45H201.983V116.203H173.908V144.45Z" fill="white"/>
<path d="M231.646 145.211H201.981V115.408H231.646V145.211ZM202.777 144.45H230.885V116.203H202.742L202.777 144.45Z" fill="white"/>
<path d="M260.48 145.211H230.85V115.408H260.48V145.211ZM231.645 144.278H259.719V116.203H231.645V144.278Z" fill="white"/>
<path d="M289.317 145.211H259.688V115.408H289.317V145.211ZM260.483 144.45H288.557V116.203H260.483V144.45Z" fill="white"/>
<path d="M318.081 145.211H288.555V115.408H318.081V145.211ZM289.212 144.45H317.389V116.203H289.315L289.212 144.45Z" fill="white"/>
<path d="M347.019 145.211H317.389V115.408H347.019V145.211ZM318.08 144.278H346.154V116.203H318.08V144.278Z" fill="white"/>
<path d="M375.891 145.211H346.261V115.408H375.891V145.211ZM347.021 144.45H375.13V116.203H347.021V144.45Z" fill="white"/>
<path d="M404.723 145.211H375.128V115.408H404.723V145.211ZM375.889 144.45H403.963V116.203H375.889V144.45Z" fill="white"/>
<path d="M433.593 145.211H403.963V115.408H433.593V145.211ZM404.724 144.45H432.832V116.203H404.724V144.45Z" fill="white"/>
<path d="M462.464 145.211H432.834V115.408H462.464V145.211ZM433.595 144.45H461.669V116.203H433.595V144.45Z" fill="white"/>
<path d="M491.299 145.211H461.669V115.408H491.299V145.211ZM462.464 144.45H490.538V116.203H462.464V144.45Z" fill="white"/>
<path d="M520.166 145.211H490.536V115.408H520.166V145.211ZM491.297 144.45H519.371V116.203H491.297V144.45Z" fill="white"/>
<path d="M549 145.211H519.37V115.408H549V145.211ZM520.165 144.45H548.239V116.203H520.165V144.45Z" fill="white"/>
<path d="M29.63 173.907H0V144.277H29.63V173.907ZM0.760629 173.147H28.8693V145.211H0.760629V173.147Z" fill="white"/>
<path d="M58.4635 173.907H28.8682V144.277H58.4635V173.907ZM29.6288 173.147H57.7029V145.211H29.6288V173.147Z" fill="white"/>
<path d="M87.336 173.907H57.7061V144.277H87.336V173.907ZM58.4667 173.147H86.4371V145.211H58.4667V173.147Z" fill="white"/>
<path d="M116.204 173.907H86.4355V144.277H116.066L116.204 173.907ZM87.3345 173.147H115.409V145.211H87.3345V173.147Z" fill="white"/>
<path d="M145.21 173.907H115.407V144.277H145.21V173.907ZM116.375 173.147H144.449V145.211H116.202L116.375 173.147Z" fill="white"/>
<path d="M173.909 173.907H144.279V144.277H173.909V173.907ZM145.213 173.147H173.287V145.211H145.213V173.147Z" fill="white"/>
<path d="M202.743 173.907H173.113V144.277H202.743V173.907ZM173.908 173.147H201.983V145.211H173.908V173.147Z" fill="white"/>
<path d="M231.646 173.907H201.981V144.277H231.646V173.907ZM202.777 173.147H230.885V145.211H202.742L202.777 173.147Z" fill="white"/>
<path d="M260.48 173.907H230.85V144.277H260.48V173.907ZM231.645 173.147H259.719V145.211H231.645V173.147Z" fill="white"/>
<path d="M289.317 173.907H259.688V144.277H289.317V173.907ZM260.483 173.147H288.557V145.211H260.483V173.147Z" fill="white"/>
<path d="M318.081 173.907H288.555V144.277H318.081V173.907ZM289.212 173.147H317.389V145.211H289.315L289.212 173.147Z" fill="white"/>
<path d="M347.019 173.907H317.389V144.277H347.019V173.907ZM318.08 173.147H346.154V145.211H318.08V173.147Z" fill="white"/>
<path d="M375.891 173.907H346.261V144.277H375.891V173.907ZM347.021 173.147H375.13V145.211H347.021V173.147Z" fill="white"/>
<path d="M404.723 173.907H375.128V144.277H404.723V173.907ZM375.889 173.147H403.963V145.211H375.889V173.147Z" fill="white"/>
<path d="M433.593 173.907H403.963V144.277H433.593V173.907ZM404.724 173.147H432.832V145.211H404.724V173.147Z" fill="white"/>
<path d="M462.464 173.907H432.834V144.277H462.464V173.907ZM433.595 173.147H461.669V145.211H433.595V173.147Z" fill="white"/>
<path d="M491.299 173.907H461.669V144.277H491.299V173.907ZM462.464 173.147H490.538V145.211H462.464V173.147Z" fill="white"/>
<path d="M520.166 173.907H490.536V144.277H520.166V173.907ZM491.297 173.147H519.371V145.211H491.297V173.147Z" fill="white"/>
<path d="M549 173.907H519.37V144.277H549V173.907ZM520.165 173.147H548.239V145.211H520.165V173.147Z" fill="white"/>
<path d="M29.63 202.743H0V173.147H29.63V202.743ZM0.760629 201.982H28.8693V173.908H0.760629V201.982Z" fill="white"/>
<path d="M58.4635 202.743H28.8682V173.147H58.4635V202.743ZM29.6288 201.982H57.7029V173.908H29.6288V201.982Z" fill="white"/>
<path d="M87.336 202.743H57.7061V173.147H87.336V202.743ZM58.4667 201.982H86.4371V173.908H58.4667V201.982Z" fill="white"/>
<path d="M116.204 202.743H86.4355V173.147H116.066L116.204 202.743ZM87.3345 201.982H115.409V173.908H87.3345V201.982Z" fill="white"/>
<path d="M145.21 202.743H115.407V173.147H145.21V202.743ZM116.375 201.982H144.449V173.908H116.202L116.375 201.982Z" fill="white"/>
<path d="M173.909 202.743H144.279V173.147H173.909V202.743ZM145.213 201.982H173.287V173.908H145.213V201.982Z" fill="white"/>
<path d="M202.743 202.743H173.113V173.147H202.743V202.743ZM173.908 201.982H201.983V173.908H173.908V201.982Z" fill="white"/>
<path d="M231.646 202.743H201.981V173.147H231.646V202.743ZM202.777 201.982H230.885V173.908H202.742L202.777 201.982Z" fill="white"/>
<path d="M260.48 202.743H230.85V173.147H260.48V202.743ZM231.645 201.982H259.719V173.908H231.645V201.982Z" fill="white"/>
<path d="M289.317 202.743H259.688V173.147H289.317V202.743ZM260.483 201.982H288.557V173.908H260.483V201.982Z" fill="white"/>
<path d="M318.081 202.743H288.555V173.147H318.081V202.743ZM289.212 201.982H317.389V173.908H289.315L289.212 201.982Z" fill="white"/>
<path d="M347.019 202.743H317.389V173.147H347.019V202.743ZM318.08 201.982H346.154V173.908H318.08V201.982Z" fill="white"/>
<path d="M375.891 202.743H346.261V173.147H375.891V202.743ZM347.021 201.982H375.13V173.908H347.021V201.982Z" fill="white"/>
<path d="M404.723 202.743H375.128V173.147H404.723V202.743ZM375.889 201.982H403.963V173.908H375.889V201.982Z" fill="white"/>
<path d="M433.593 202.743H403.963V173.147H433.593V202.743ZM404.724 201.982H432.832V173.908H404.724V201.982Z" fill="white"/>
<path d="M462.464 202.743H432.834V173.147H462.464V202.743ZM433.595 201.982H461.669V173.908H433.595V201.982Z" fill="white"/>
<path d="M491.299 202.743H461.669V173.147H491.299V202.743ZM462.464 201.982H490.538V173.908H462.464V201.982Z" fill="white"/>
<path d="M520.166 202.743H490.536V173.147H520.166V202.743ZM491.297 201.982H519.371V173.908H491.297V201.982Z" fill="white"/>
<path d="M549 202.743H519.37V173.147H549V202.743ZM520.165 201.982H548.239V173.908H520.165V201.982Z" fill="white"/>
<path d="M29.63 231.646H0V201.981H29.63V231.646ZM0.760629 230.851H28.8693V202.742H0.760629V230.851Z" fill="white"/>
<path d="M58.4635 231.646H28.8682V201.981H58.4635V231.646ZM29.6288 230.885H57.7029V202.742H29.6288V230.885Z" fill="white"/>
<path d="M87.336 231.646H57.7061V201.981H87.336V231.646ZM58.4667 230.885H86.4371V202.742H58.4667V230.885Z" fill="white"/>
<path d="M116.204 231.646H86.4355V201.981H116.066L116.204 231.646ZM87.3345 230.885H115.409V202.742H87.3345V230.885Z" fill="white"/>
<path d="M145.21 231.646H115.407V201.981H145.21V231.646ZM116.375 230.885H144.449V202.742H116.202L116.375 230.885Z" fill="white"/>
<path d="M173.909 231.646H144.279V201.981H173.909V231.646ZM145.213 230.851H173.287V202.742H145.213V230.851Z" fill="white"/>
<path d="M202.743 231.646H173.113V201.981H202.743V231.646ZM173.908 230.885H201.983V202.742H173.908V230.885Z" fill="white"/>
<path d="M231.646 231.646H201.981V201.981H231.646V231.646ZM202.777 230.885H230.885V202.742H202.742L202.777 230.885Z" fill="white"/>
<path d="M260.48 231.646H230.85V201.981H260.48V231.646ZM231.645 230.851H259.719V202.742H231.645V230.851Z" fill="white"/>
<path d="M289.317 231.646H259.688V201.981H289.317V231.646ZM260.483 230.885H288.557V202.742H260.483V230.885Z" fill="white"/>
<path d="M318.081 231.646H288.555V201.981H318.081V231.646ZM289.212 230.885H317.389V202.742H289.315L289.212 230.885Z" fill="white"/>
<path d="M347.019 231.646H317.389V201.981H347.019V231.646ZM318.08 230.851H346.154V202.742H318.08V230.851Z" fill="white"/>
<path d="M375.891 231.646H346.261V201.981H375.891V231.646ZM347.021 230.885H375.13V202.742H347.021V230.885Z" fill="white"/>
<path d="M404.723 231.646H375.128V201.981H404.723V231.646ZM375.889 230.885H403.963V202.742H375.889V230.885Z" fill="white"/>
<path d="M433.593 231.646H403.963V201.981H433.593V231.646ZM404.724 230.885H432.832V202.742H404.724V230.885Z" fill="white"/>
<path d="M462.464 231.646H432.834V201.981H462.464V231.646ZM433.595 230.885H461.669V202.742H433.595V230.885Z" fill="white"/>
<path d="M491.299 231.646H461.669V201.981H491.299V231.646ZM462.464 230.885H490.538V202.742H462.464V230.885Z" fill="white"/>
<path d="M520.166 231.646H490.536V201.981H520.166V231.646ZM491.297 230.885H519.371V202.742H491.297V230.885Z" fill="white"/>
<path d="M549 231.646H519.37V201.981H549V231.646ZM520.165 230.885H548.239V202.742H520.165V230.885Z" fill="white"/>
<path d="M29.63 260.482H0V230.852H29.63V260.482ZM0.760629 259.686H28.8693V231.647H0.760629V259.686Z" fill="white"/>
<path d="M58.4635 260.482H28.8682V230.852H58.4635V260.482ZM29.6288 259.686H57.7029V231.647H29.6288V259.686Z" fill="white"/>
<path d="M87.336 260.482H57.7061V230.852H87.336V260.482ZM58.4667 259.686H86.4371V231.647H58.4667V259.686Z" fill="white"/>
<path d="M116.204 260.482H86.4355V230.852H116.066L116.204 260.482ZM87.3345 259.686H115.409V231.647H87.3345V259.686Z" fill="white"/>
<path d="M145.21 260.482H115.407V230.852H145.21V260.482ZM116.375 259.686H144.449V231.647H116.202L116.375 259.686Z" fill="white"/>
<path d="M173.909 260.482H144.279V230.852H173.909V260.482ZM145.213 259.686H173.287V231.647H145.213V259.686Z" fill="white"/>
<path d="M202.743 260.482H173.113V230.852H202.743V260.482ZM173.908 259.686H201.983V231.647H173.908V259.686Z" fill="white"/>
<path d="M231.646 260.482H201.981V230.852H231.646V260.482ZM202.777 259.686H230.885V231.647H202.742L202.777 259.686Z" fill="white"/>
<path d="M260.48 260.482H230.85V230.852H260.48V260.482ZM231.645 259.686H259.719V231.647H231.645V259.686Z" fill="white"/>
<path d="M289.317 260.482H259.688V230.852H289.317V260.482ZM260.483 259.686H288.557V231.647H260.483V259.686Z" fill="white"/>
<path d="M318.081 260.482H288.555V230.852H318.081V260.482ZM289.212 259.686H317.389V231.647H289.315L289.212 259.686Z" fill="white"/>
<path d="M347.019 260.482H317.389V230.852H347.019V260.482ZM318.08 259.686H346.154V231.647H318.08V259.686Z" fill="white"/>
<path d="M375.891 260.482H346.261V230.852H375.891V260.482ZM347.021 259.686H375.13V231.647H347.021V259.686Z" fill="white"/>
<path d="M404.723 260.482H375.128V230.852H404.723V260.482ZM375.889 259.686H403.963V231.647H375.889V259.686Z" fill="white"/>
<path d="M433.593 260.482H403.963V230.852H433.593V260.482ZM404.724 259.686H432.832V231.647H404.724V259.686Z" fill="white"/>
<path d="M462.464 260.482H432.834V230.852H462.464V260.482ZM433.595 259.686H461.669V231.647H433.595V259.686Z" fill="white"/>
<path d="M491.299 260.482H461.669V230.852H491.299V260.482ZM462.464 259.686H490.538V231.647H462.464V259.686Z" fill="white"/>
<path d="M520.166 260.482H490.536V230.852H520.166V260.482ZM491.297 259.686H519.371V231.647H491.297V259.686Z" fill="white"/>
<path d="M549 260.482H519.37V230.852H549V260.482ZM520.165 259.686H548.239V231.647H520.165V259.686Z" fill="white"/>
<path d="M29.63 289.316H0V259.686H29.63V289.316ZM0.760629 288.555H28.8693V260.481H0.760629V288.555Z" fill="white"/>
<path d="M58.4635 289.316H28.8682V259.686H58.4635V289.316ZM29.6288 288.555H57.7029V260.481H29.6288V288.555Z" fill="white"/>
<path d="M87.336 289.316H57.7061V259.686H87.336V289.316ZM58.4667 288.555H86.4371V260.481H58.4667V288.555Z" fill="white"/>
<path d="M116.204 289.316H86.4355V259.686H116.066L116.204 289.316ZM87.3345 288.555H115.409V260.481H87.3345V288.555Z" fill="white"/>
<path d="M145.21 289.316H115.407V259.686H145.21V289.316ZM116.375 288.555H144.449V260.481H116.202L116.375 288.555Z" fill="white"/>
<path d="M173.909 289.316H144.279V259.686H173.909V289.316ZM145.213 288.555H173.287V260.481H145.213V288.555Z" fill="white"/>
<path d="M202.743 289.316H173.113V259.686H202.743V289.316ZM173.908 288.555H201.983V260.481H173.908V288.555Z" fill="white"/>
<path d="M231.646 289.316H201.981V259.686H231.646V289.316ZM202.777 288.555H230.885V260.481H202.742L202.777 288.555Z" fill="white"/>
<path d="M260.48 289.316H230.85V259.686H260.48V289.316ZM231.645 288.555H259.719V260.481H231.645V288.555Z" fill="white"/>
<path d="M289.317 289.316H259.688V259.686H289.317V289.316ZM260.483 288.555H288.557V260.481H260.483V288.555Z" fill="white"/>
<path d="M318.081 289.316H288.555V259.686H318.081V289.316ZM289.212 288.555H317.389V260.481H289.315L289.212 288.555Z" fill="white"/>
<path d="M347.019 289.316H317.389V259.686H347.019V289.316ZM318.08 288.555H346.154V260.481H318.08V288.555Z" fill="white"/>
<path d="M375.891 289.316H346.261V259.686H375.891V289.316ZM347.021 288.555H375.13V260.481H347.021V288.555Z" fill="white"/>
<path d="M404.723 289.316H375.128V259.686H404.723V289.316ZM375.889 288.555H403.963V260.481H375.889V288.555Z" fill="white"/>
<path d="M433.593 289.316H403.963V259.686H433.593V289.316ZM404.724 288.555H432.832V260.481H404.724V288.555Z" fill="white"/>
<path d="M462.464 289.316H432.834V259.686H462.464V289.316ZM433.595 288.555H461.669V260.481H433.595V288.555Z" fill="white"/>
<path d="M491.299 289.316H461.669V259.686H491.299V289.316ZM462.464 288.555H490.538V260.481H462.464V288.555Z" fill="white"/>
<path d="M520.166 289.316H490.536V259.686H520.166V289.316ZM491.297 288.555H519.371V260.481H491.297V288.555Z" fill="white"/>
<path d="M549 289.316H519.37V259.686H549V289.316ZM520.165 288.555H548.239V260.481H520.165V288.555Z" fill="white"/>
<path d="M29.63 318.081H0V288.555H29.63V318.081ZM0.760629 317.389H28.8693V289.315H0.760629V317.389Z" fill="white"/>
<path d="M58.4635 318.081H28.8682V288.555H58.4635V318.081ZM29.6288 317.389H57.7029V289.315H29.6288V317.389Z" fill="white"/>
<path d="M87.336 318.081H57.7061V288.555H87.336V318.081ZM58.4667 317.286H86.4371V289.315H58.4667V317.286Z" fill="white"/>
<path d="M116.204 318.081H86.4355V288.555H116.066L116.204 318.081ZM87.3345 317.286H115.409V289.315H87.3345V317.286Z" fill="white"/>
<path d="M145.21 318.081H115.407V288.555H145.21V318.081ZM116.375 317.286H144.449V289.315H116.202L116.375 317.286Z" fill="white"/>
<path d="M173.909 318.081H144.279V288.555H173.909V318.081ZM145.213 317.389H173.287V289.315H145.213V317.389Z" fill="white"/>
<path d="M202.743 318.081H173.113V288.555H202.743V318.081ZM173.908 317.389H201.983V289.315H173.908V317.389Z" fill="white"/>
<path d="M231.646 318.081H201.981V288.555H231.646V318.081ZM202.777 317.286H230.885V289.315H202.742L202.777 317.286Z" fill="white"/>
<path d="M260.48 318.081H230.85V288.555H260.48V318.081ZM231.645 317.389H259.719V289.315H231.645V317.389Z" fill="white"/>
<path d="M289.317 318.081H259.688V288.555H289.317V318.081ZM260.483 317.286H288.557V289.315H260.483V317.286Z" fill="white"/>
<path d="M318.081 318.081H288.555V288.555H318.081V318.081ZM289.212 317.286H317.389V289.315H289.315L289.212 317.286Z" fill="white"/>
<path d="M347.019 318.081H317.389V288.555H347.019V318.081ZM318.08 317.389H346.154V289.315H318.08V317.389Z" fill="white"/>
<path d="M375.891 318.081H346.261V288.555H375.891V318.081ZM347.021 317.286H375.13V289.315H347.021V317.286Z" fill="white"/>
<path d="M404.723 318.081H375.128V288.555H404.723V318.081ZM375.889 317.286H403.963V289.315H375.889V317.286Z" fill="white"/>
<path d="M433.593 318.081H403.963V288.555H433.593V318.081ZM404.724 317.286H432.832V289.315H404.724V317.286Z" fill="white"/>
<path d="M462.464 318.081H432.834V288.555H462.464V318.081ZM433.595 317.286H461.669V289.315H433.595V317.286Z" fill="white"/>
<path d="M491.299 318.081H461.669V288.555H491.299V318.081ZM462.464 317.286H490.538V289.315H462.464V317.286Z" fill="white"/>
<path d="M520.166 318.081H490.536V288.555H520.166V318.081ZM491.297 317.286H519.371V289.315H491.297V317.286Z" fill="white"/>
<path d="M549 318.081H519.37V288.555H549V318.081ZM520.165 317.286H548.239V289.315H520.165V317.286Z" fill="white"/>
<path d="M29.63 347.02H0V317.39H29.63V347.02ZM0.760629 346.259H28.8693V318.081H0.760629V346.259Z" fill="white"/>
<path d="M58.4635 347.02H28.8682V317.39H58.4635V347.02ZM29.6288 346.259H57.7029V318.081H29.6288V346.259Z" fill="white"/>
<path d="M87.336 347.02H57.7061V317.39H87.336V347.02ZM58.4667 346.259H86.4371V318.081H58.4667V346.259Z" fill="white"/>
<path d="M116.204 347.02H86.4355V317.39H116.066L116.204 347.02ZM87.3345 346.259H115.409V318.081H87.3345V346.259Z" fill="white"/>
<path d="M145.21 347.02H115.407V317.39H145.21V347.02ZM116.375 346.259H144.449V318.081H116.202L116.375 346.259Z" fill="white"/>
<path d="M173.909 347.02H144.279V317.39H173.909V347.02ZM145.213 346.259H173.287V318.081H145.213V346.259Z" fill="white"/>
<path d="M202.743 347.02H173.113V317.39H202.743V347.02ZM173.908 346.259H201.983V318.081H173.908V346.259Z" fill="white"/>
<path d="M231.646 347.02H201.981V317.39H231.646V347.02ZM202.777 346.259H230.885V318.081H202.742L202.777 346.259Z" fill="white"/>
<path d="M260.48 347.02H230.85V317.39H260.48V347.02ZM231.645 346.259H259.719V318.081H231.645V346.259Z" fill="white"/>
<path d="M289.317 347.02H259.688V317.39H289.317V347.02ZM260.483 346.259H288.557V318.081H260.483V346.259Z" fill="white"/>
<path d="M318.081 347.02H288.555V317.39H318.081V347.02ZM289.212 346.259H317.389V318.081H289.315L289.212 346.259Z" fill="white"/>
<path d="M347.019 347.02H317.389V317.39H347.019V347.02ZM318.08 346.259H346.154V318.081H318.08V346.259Z" fill="white"/>
<path d="M375.891 347.02H346.261V317.39H375.891V347.02ZM347.021 346.259H375.13V318.081H347.021V346.259Z" fill="white"/>
<path d="M404.723 347.02H375.128V317.39H404.723V347.02ZM375.889 346.259H403.963V318.081H375.889V346.259Z" fill="white"/>
<path d="M433.593 347.02H403.963V317.39H433.593V347.02ZM404.724 346.259H432.832V318.081H404.724V346.259Z" fill="white"/>
<path d="M462.464 347.02H432.834V317.39H462.464V347.02ZM433.595 346.259H461.669V318.081H433.595V346.259Z" fill="white"/>
<path d="M491.299 347.02H461.669V317.39H491.299V347.02ZM462.464 346.259H490.538V318.081H462.464V346.259Z" fill="white"/>
<path d="M520.166 347.02H490.536V317.39H520.166V347.02ZM491.297 346.259H519.371V318.081H491.297V346.259Z" fill="white"/>
<path d="M549 347.02H519.37V317.39H549V347.02ZM520.165 346.259H548.239V318.081H520.165V346.259Z" fill="white"/>
<path d="M29.63 375.889H0V346.259H29.63V375.889ZM0.760629 375.128H28.8693V347.019H0.760629V375.128Z" fill="white"/>
<path d="M58.4635 375.889H28.8682V346.259H58.4635V375.889ZM29.6288 375.128H57.7029V347.019H29.6288V375.128Z" fill="white"/>
<path d="M87.336 375.889H57.7061V346.259H87.336V375.889ZM58.4667 375.128H86.4371V347.019H58.4667V375.128Z" fill="white"/>
<path d="M116.204 375.889H86.4355V346.259H116.066L116.204 375.889ZM87.3345 375.128H115.409V347.019H87.3345V375.128Z" fill="white"/>
<path d="M145.21 375.889H115.407V346.259H145.21V375.889ZM116.375 375.128H144.449V347.019H116.202L116.375 375.128Z" fill="white"/>
<path d="M173.909 375.889H144.279V346.259H173.909V375.889ZM145.213 375.128H173.287V347.019H145.213V375.128Z" fill="white"/>
<path d="M202.743 375.889H173.113V346.259H202.743V375.889ZM173.908 375.128H201.983V347.019H173.908V375.128Z" fill="white"/>
<path d="M231.646 375.889H201.981V346.259H231.646V375.889ZM202.777 375.128H230.885V347.019H202.742L202.777 375.128Z" fill="white"/>
<path d="M260.48 375.889H230.85V346.259H260.48V375.889ZM231.645 375.128H259.719V347.019H231.645V375.128Z" fill="white"/>
<path d="M289.317 375.889H259.688V346.259H289.317V375.889ZM260.483 375.128H288.557V347.019H260.483V375.128Z" fill="white"/>
<path d="M318.081 375.889H288.555V346.259H318.081V375.889ZM289.212 375.128H317.389V347.019H289.315L289.212 375.128Z" fill="white"/>
<path d="M347.019 375.889H317.389V346.259H347.019V375.889ZM318.08 375.128H346.154V347.019H318.08V375.128Z" fill="white"/>
<path d="M375.891 375.889H346.261V346.259H375.891V375.889ZM347.021 375.128H375.13V347.019H347.021V375.128Z" fill="white"/>
<path d="M404.723 375.889H375.128V346.259H404.723V375.889ZM375.889 375.128H403.963V347.019H375.889V375.128Z" fill="white"/>
<path d="M433.593 375.889H403.963V346.259H433.593V375.889ZM404.724 375.128H432.832V347.019H404.724V375.128Z" fill="white"/>
<path d="M462.464 375.889H432.834V346.259H462.464V375.889ZM433.595 375.128H461.669V347.019H433.595V375.128Z" fill="white"/>
<path d="M491.299 375.889H461.669V346.259H491.299V375.889ZM462.464 375.128H490.538V347.019H462.464V375.128Z" fill="white"/>
<path d="M520.166 375.889H490.536V346.259H520.166V375.889ZM491.297 375.128H519.371V347.019H491.297V375.128Z" fill="white"/>
<path d="M549 375.889H519.37V346.259H549V375.889ZM520.165 375.128H548.239V347.019H520.165V375.128Z" fill="white"/>
<path d="M29.63 404.724H0V375.128H29.63V404.724ZM0.760629 403.963H28.8693V375.889H0.760629V403.963Z" fill="white"/>
<path d="M58.4635 404.724H28.8682V375.128H58.4635V404.724ZM29.6288 403.963H57.7029V375.889H29.6288V403.963Z" fill="white"/>
<path d="M87.336 404.724H57.7061V375.128H87.336V404.724ZM58.4667 403.963H86.4371V375.889H58.4667V403.963Z" fill="white"/>
<path d="M116.204 404.724H86.4355V375.128H116.066L116.204 404.724ZM87.3345 403.963H115.409V375.889H87.3345V403.963Z" fill="white"/>
<path d="M145.21 404.724H115.407V375.128H145.21V404.724ZM116.375 403.963H144.449V375.889H116.202L116.375 403.963Z" fill="white"/>
<path d="M173.909 404.724H144.279V375.128H173.909V404.724ZM145.213 403.963H173.287V375.889H145.213V403.963Z" fill="white"/>
<path d="M202.743 404.724H173.113V375.128H202.743V404.724ZM173.908 403.963H201.983V375.889H173.908V403.963Z" fill="white"/>
<path d="M231.646 404.724H201.981V375.128H231.646V404.724ZM202.777 403.963H230.885V375.889H202.742L202.777 403.963Z" fill="white"/>
<path d="M260.48 404.724H230.85V375.128H260.48V404.724ZM231.645 403.963H259.719V375.889H231.645V403.963Z" fill="white"/>
<path d="M289.317 404.724H259.688V375.128H289.317V404.724ZM260.483 403.963H288.557V375.889H260.483V403.963Z" fill="white"/>
<path d="M318.081 404.724H288.555V375.128H318.081V404.724ZM289.212 403.963H317.389V375.889H289.315L289.212 403.963Z" fill="white"/>
<path d="M347.019 404.724H317.389V375.128H347.019V404.724ZM318.08 403.963H346.154V375.889H318.08V403.963Z" fill="white"/>
<path d="M375.891 404.724H346.261V375.128H375.891V404.724ZM347.021 403.963H375.13V375.889H347.021V403.963Z" fill="white"/>
<path d="M404.723 404.724H375.128V375.128H404.723V404.724ZM375.889 403.963H403.963V375.889H375.889V403.963Z" fill="white"/>
<path d="M433.593 404.724H403.963V375.128H433.593V404.724ZM404.724 403.963H432.832V375.889H404.724V403.963Z" fill="white"/>
<path d="M462.464 404.724H432.834V375.128H462.464V404.724ZM433.595 403.963H461.669V375.889H433.595V403.963Z" fill="white"/>
<path d="M491.299 404.724H461.669V375.128H491.299V404.724ZM462.464 403.963H490.538V375.889H462.464V403.963Z" fill="white"/>
<path d="M520.166 404.724H490.536V375.128H520.166V404.724ZM491.297 403.963H519.371V375.889H491.297V403.963Z" fill="white"/>
<path d="M549 404.724H519.37V375.128H549V404.724ZM520.165 403.963H548.239V375.889H520.165V403.963Z" fill="white"/>
<path d="M29.63 433.593H0V403.963H29.63V433.593ZM0.760629 432.832H28.8693V404.724H0.760629V432.832Z" fill="white"/>
<path d="M58.4635 433.593H28.8682V403.963H58.4635V433.593ZM29.6288 432.832H57.7029V404.724H29.6288V432.832Z" fill="white"/>
<path d="M87.336 433.593H57.7061V403.963H87.336V433.593ZM58.4667 432.832H86.4371V404.724H58.4667V432.832Z" fill="white"/>
<path d="M116.204 433.593H86.4355V403.963H116.066L116.204 433.593ZM87.3345 432.832H115.409V404.724H87.3345V432.832Z" fill="white"/>
<path d="M145.21 433.593H115.407V403.963H145.21V433.593ZM116.375 432.832H144.449V404.724H116.202L116.375 432.832Z" fill="white"/>
<path d="M173.909 433.593H144.279V403.963H173.909V433.593ZM145.213 432.832H173.287V404.724H145.213V432.832Z" fill="white"/>
<path d="M202.743 433.593H173.113V403.963H202.743V433.593ZM173.908 432.832H201.983V404.724H173.908V432.832Z" fill="white"/>
<path d="M231.646 433.593H201.981V403.963H231.646V433.593ZM202.777 432.832H230.885V404.724H202.742L202.777 432.832Z" fill="white"/>
<path d="M260.48 433.593H230.85V403.963H260.48V433.593ZM231.645 432.832H259.719V404.724H231.645V432.832Z" fill="white"/>
<path d="M289.317 433.593H259.688V403.963H289.317V433.593ZM260.483 432.832H288.557V404.724H260.483V432.832Z" fill="white"/>
<path d="M318.081 433.593H288.555V403.963H318.081V433.593ZM289.212 432.832H317.389V404.724H289.315L289.212 432.832Z" fill="white"/>
<path d="M347.019 433.593H317.389V403.963H347.019V433.593ZM318.08 432.832H346.154V404.724H318.08V432.832Z" fill="white"/>
<path d="M375.891 433.593H346.261V403.963H375.891V433.593ZM347.021 432.832H375.13V404.724H347.021V432.832Z" fill="white"/>
<path d="M404.723 433.593H375.128V403.963H404.723V433.593ZM375.889 432.832H403.963V404.724H375.889V432.832Z" fill="white"/>
<path d="M433.593 433.593H403.963V403.963H433.593V433.593ZM404.724 432.832H432.832V404.724H404.724V432.832Z" fill="white"/>
<path d="M462.464 433.593H432.834V403.963H462.464V433.593ZM433.595 432.832H461.669V404.724H433.595V432.832Z" fill="white"/>
<path d="M491.299 433.593H461.669V403.963H491.299V433.593ZM462.464 432.832H490.538V404.724H462.464V432.832Z" fill="white"/>
<path d="M520.166 433.593H490.536V403.963H520.166V433.593ZM491.297 432.832H519.371V404.724H491.297V432.832Z" fill="white"/>
<path d="M549 433.593H519.37V403.963H549V433.593ZM520.165 432.832H548.239V404.724H520.165V432.832Z" fill="white"/>
<path d="M29.63 462.462H0V432.833H29.63V462.462ZM0.760629 461.667H28.8693V433.593H0.760629V461.667Z" fill="white"/>
<path d="M58.4635 462.462H28.8682V432.833H58.4635V462.462ZM29.6288 461.667H57.7029V433.593H29.6288V461.667Z" fill="white"/>
<path d="M87.336 462.462H57.7061V432.833H87.336V462.462ZM58.4667 461.667H86.4371V433.593H58.4667V461.667Z" fill="white"/>
<path d="M116.204 462.462H86.4355V432.833H116.066L116.204 462.462ZM87.3345 461.667H115.409V433.593H87.3345V461.667Z" fill="white"/>
<path d="M145.21 462.462H115.407V432.833H145.21V462.462ZM116.375 461.667H144.449V433.593H116.202L116.375 461.667Z" fill="white"/>
<path d="M173.909 462.462H144.279V432.833H173.909V462.462ZM145.213 461.667H173.287V433.593H145.213V461.667Z" fill="white"/>
<path d="M202.743 462.462H173.113V432.833H202.743V462.462ZM173.908 461.667H201.983V433.593H173.908V461.667Z" fill="white"/>
<path d="M231.646 462.462H201.981V432.833H231.646V462.462ZM202.777 461.667H230.885V433.593H202.742L202.777 461.667Z" fill="white"/>
<path d="M260.48 462.462H230.85V432.833H260.48V462.462ZM231.645 461.667H259.719V433.593H231.645V461.667Z" fill="white"/>
<path d="M289.317 462.462H259.688V432.833H289.317V462.462ZM260.483 461.667H288.557V433.593H260.483V461.667Z" fill="white"/>
<path d="M318.081 462.462H288.555V432.833H318.081V462.462ZM289.212 461.667H317.389V433.593H289.315L289.212 461.667Z" fill="white"/>
<path d="M347.019 462.462H317.389V432.833H347.019V462.462ZM318.08 461.667H346.154V433.593H318.08V461.667Z" fill="white"/>
<path d="M375.891 462.462H346.261V432.833H375.891V462.462ZM347.021 461.667H375.13V433.593H347.021V461.667Z" fill="white"/>
<path d="M404.723 462.462H375.128V432.833H404.723V462.462ZM375.889 461.667H403.963V433.593H375.889V461.667Z" fill="white"/>
<path d="M433.593 462.462H403.963V432.833H433.593V462.462ZM404.724 461.667H432.832V433.593H404.724V461.667Z" fill="white"/>
<path d="M462.464 462.462H432.834V432.833H462.464V462.462ZM433.595 461.667H461.669V433.593H433.595V461.667Z" fill="white"/>
<path d="M491.299 462.462H461.669V432.833H491.299V462.462ZM462.464 461.667H490.538V433.593H462.464V461.667Z" fill="white"/>
<path d="M520.166 462.462H490.536V432.833H520.166V462.462ZM491.297 461.667H519.371V433.593H491.297V461.667Z" fill="white"/>
<path d="M549 462.462H519.37V432.833H549V462.462ZM520.165 461.667H548.239V433.593H520.165V461.667Z" fill="white"/>
<path d="M29.63 491.296H0V461.667H29.63V491.296ZM0.760629 490.536H28.8693V462.462H0.760629V490.536Z" fill="white"/>
<path d="M58.4635 491.296H28.8682V461.667H58.4635V491.296ZM29.6288 490.536H57.7029V462.462H29.6288V490.536Z" fill="white"/>
<path d="M87.336 491.296H57.7061V461.667H87.336V491.296ZM58.4667 490.536H86.4371V462.462H58.4667V490.536Z" fill="white"/>
<path d="M116.204 491.296H86.4355V461.667H116.066L116.204 491.296ZM87.3345 490.536H115.409V462.462H87.3345V490.536Z" fill="white"/>
<path d="M145.21 491.296H115.407V461.667H145.21V491.296ZM116.375 490.536H144.449V462.462H116.202L116.375 490.536Z" fill="white"/>
<path d="M173.909 491.296H144.279V461.667H173.909V491.296ZM145.213 490.536H173.287V462.462H145.213V490.536Z" fill="white"/>
<path d="M202.743 491.296H173.113V461.667H202.743V491.296ZM173.908 490.536H201.983V462.462H173.908V490.536Z" fill="white"/>
<path d="M231.646 491.296H201.981V461.667H231.646V491.296ZM202.777 490.536H230.885V462.462H202.742L202.777 490.536Z" fill="white"/>
<path d="M260.48 491.296H230.85V461.667H260.48V491.296ZM231.645 490.536H259.719V462.462H231.645V490.536Z" fill="white"/>
<path d="M289.317 491.296H259.688V461.667H289.317V491.296ZM260.483 490.536H288.557V462.462H260.483V490.536Z" fill="white"/>
<path d="M318.081 491.296H288.555V461.667H318.081V491.296ZM289.212 490.536H317.389V462.462H289.315L289.212 490.536Z" fill="white"/>
<path d="M347.019 491.296H317.389V461.667H347.019V491.296ZM318.08 490.536H346.154V462.462H318.08V490.536Z" fill="white"/>
<path d="M375.891 491.296H346.261V461.667H375.891V491.296ZM347.021 490.536H375.13V462.462H347.021V490.536Z" fill="white"/>
<path d="M404.723 491.296H375.128V461.667H404.723V491.296ZM375.889 490.536H403.963V462.462H375.889V490.536Z" fill="white"/>
<path d="M433.593 491.296H403.963V461.667H433.593V491.296ZM404.724 490.536H432.832V462.462H404.724V490.536Z" fill="white"/>
<path d="M462.464 491.296H432.834V461.667H462.464V491.296ZM433.595 490.536H461.669V462.462H433.595V490.536Z" fill="white"/>
<path d="M491.299 491.296H461.669V461.667H491.299V491.296ZM462.464 490.536H490.538V462.462H462.464V490.536Z" fill="white"/>
<path d="M520.166 491.296H490.536V461.667H520.166V491.296ZM491.297 490.536H519.371V462.462H491.297V490.536Z" fill="white"/>
<path d="M549 491.296H519.37V461.667H549V491.296ZM520.165 490.536H548.239V462.462H520.165V490.536Z" fill="white"/>
<path d="M29.63 520.167H0V490.537H29.63V520.167ZM0.760629 519.406H28.8693V491.297H0.760629V519.406Z" fill="white"/>
<path d="M58.4635 520.167H28.8682V490.537H58.4635V520.167ZM29.6288 519.406H57.7029V491.297H29.6288V519.406Z" fill="white"/>
<path d="M87.336 520.167H57.7061V490.537H87.336V520.167ZM58.4667 519.406H86.4371V491.297H58.4667V519.406Z" fill="white"/>
<path d="M116.204 520.167H86.4355V490.537H116.066L116.204 520.167ZM87.3345 519.406H115.409V491.297H87.3345V519.406Z" fill="white"/>
<path d="M145.21 520.167H115.407V490.537H145.21V520.167ZM116.375 519.406H144.449V491.297H116.202L116.375 519.406Z" fill="white"/>
<path d="M173.909 520.167H144.279V490.537H173.909V520.167ZM145.213 519.406H173.287V491.297H145.213V519.406Z" fill="white"/>
<path d="M202.743 520.167H173.113V490.537H202.743V520.167ZM173.908 519.406H201.983V491.297H173.908V519.406Z" fill="white"/>
<path d="M231.646 520.167H201.981V490.537H231.646V520.167ZM202.777 519.406H230.885V491.297H202.742L202.777 519.406Z" fill="white"/>
<path d="M260.48 520.167H230.85V490.537H260.48V520.167ZM231.645 519.406H259.719V491.297H231.645V519.406Z" fill="white"/>
<path d="M289.317 520.167H259.688V490.537H289.317V520.167ZM260.483 519.406H288.557V491.297H260.483V519.406Z" fill="white"/>
<path d="M318.081 520.167H288.555V490.537H318.081V520.167ZM289.212 519.406H317.389V491.297H289.315L289.212 519.406Z" fill="white"/>
<path d="M347.019 520.167H317.389V490.537H347.019V520.167ZM318.08 519.406H346.154V491.297H318.08V519.406Z" fill="white"/>
<path d="M375.891 520.167H346.261V490.537H375.891V520.167ZM347.021 519.406H375.13V491.297H347.021V519.406Z" fill="white"/>
<path d="M404.723 520.167H375.128V490.537H404.723V520.167ZM375.889 519.406H403.963V491.297H375.889V519.406Z" fill="white"/>
<path d="M433.593 520.167H403.963V490.537H433.593V520.167ZM404.724 519.406H432.832V491.297H404.724V519.406Z" fill="white"/>
<path d="M462.464 520.167H432.834V490.537H462.464V520.167ZM433.595 519.406H461.669V491.297H433.595V519.406Z" fill="white"/>
<path d="M491.299 520.167H461.669V490.537H491.299V520.167ZM462.464 519.406H490.538V491.297H462.464V519.406Z" fill="white"/>
<path d="M520.166 520.167H490.536V490.537H520.166V520.167ZM491.297 519.406H519.371V491.297H491.297V519.406Z" fill="white"/>
<path d="M549 520.167H519.37V490.537H549V520.167ZM520.165 519.406H548.239V491.297H520.165V519.406Z" fill="white"/>
<path d="M29.63 549.002H0V519.406H29.63V549.002ZM0.760629 548.241H28.8693V520.167H0.760629V548.241Z" fill="white"/>
<path d="M58.4635 549.002H28.8682V519.406H58.4635V549.002ZM29.6288 548.241H57.7029V520.167H29.6288V548.241Z" fill="white"/>
<path d="M87.336 549.002H57.7061V519.406H87.336V549.002ZM58.4667 548.241H86.4371V520.167H58.4667V548.241Z" fill="white"/>
<path d="M116.204 549.002H86.4355V519.406H116.066L116.204 549.002ZM87.3345 548.241H115.409V520.167H87.3345V548.241Z" fill="white"/>
<path d="M145.21 549.002H115.407V519.406H145.21V549.002ZM116.375 548.241H144.449V520.167H116.202L116.375 548.241Z" fill="white"/>
<path d="M173.909 549.002H144.279V519.406H173.909V549.002ZM145.213 548.241H173.287V520.167H145.213V548.241Z" fill="white"/>
<path d="M202.743 549.002H173.113V519.406H202.743V549.002ZM173.908 548.241H201.983V520.167H173.908V548.241Z" fill="white"/>
<path d="M231.646 549.002H201.981V519.406H231.646V549.002ZM202.777 548.241H230.885V520.167H202.742L202.777 548.241Z" fill="white"/>
<path d="M260.48 549.002H230.85V519.406H260.48V549.002ZM231.645 548.241H259.719V520.167H231.645V548.241Z" fill="white"/>
<path d="M289.317 549.002H259.688V519.406H289.317V549.002ZM260.483 548.241H288.557V520.167H260.483V548.241Z" fill="white"/>
<path d="M318.081 549.002H288.555V519.406H318.081V549.002ZM289.212 548.241H317.389V520.167H289.315L289.212 548.241Z" fill="white"/>
<path d="M347.019 549.002H317.389V519.406H347.019V549.002ZM318.08 548.241H346.154V520.167H318.08V548.241Z" fill="white"/>
<path d="M375.891 549.002H346.261V519.406H375.891V549.002ZM347.021 548.241H375.13V520.167H347.021V548.241Z" fill="white"/>
<path d="M404.723 549.002H375.128V519.406H404.723V549.002ZM375.889 548.241H403.963V520.167H375.889V548.241Z" fill="white"/>
<path d="M433.593 549.002H403.963V519.406H433.593V549.002ZM404.724 548.241H432.832V520.167H404.724V548.241Z" fill="white"/>
<path d="M462.464 549.002H432.834V519.406H462.464V549.002ZM433.595 548.241H461.669V520.167H433.595V548.241Z" fill="white"/>
<path d="M491.299 549.002H461.669V519.406H491.299V549.002ZM462.464 548.241H490.538V520.167H462.464V548.241Z" fill="white"/>
<path d="M520.166 549.002H490.536V519.406H520.166V549.002ZM491.297 548.241H519.371V520.167H491.297V548.241Z" fill="white"/>
<path d="M549 549.002H519.37V519.406H549V549.002ZM520.165 548.241H548.239V520.167H520.165V548.241Z" fill="white"/>
</g>
</svg>
