<svg width="133" height="190" viewBox="0 0 133 190" fill="none" xmlns="http://www.w3.org/2000/svg">
<g clip-path="url(#clip0_277_4099)">
<path d="M66.5041 189.262C65.2457 189.247 64.0366 188.771 63.1072 187.925C60.5674 185.671 0.779297 132.141 0.779297 80.1585C0.779297 43.7441 30.2604 14.0918 66.5041 14.0918C102.748 14.0918 132.221 43.7208 132.221 80.1585C132.221 131.994 72.4564 185.671 69.8932 187.933C68.9642 188.774 67.7586 189.247 66.5041 189.262ZM66.5041 42.687C59.159 42.6855 51.9785 44.8577 45.8713 48.9288C39.7641 52.9998 35.0046 58.7868 32.1952 65.5573C29.3858 72.3278 28.6527 79.7776 30.0886 86.9639C31.5246 94.1502 35.0652 100.75 40.2622 105.928C45.4592 111.106 52.0792 114.63 59.2844 116.054C66.4895 117.477 73.9561 116.737 80.7391 113.925C87.5221 111.114 93.3168 106.359 97.3898 100.261C101.463 94.1627 103.631 86.9965 103.62 79.6688C103.604 69.854 99.6879 60.446 92.7306 53.5067C85.7733 46.5673 76.3422 42.6625 66.5041 42.6481V42.687Z" fill="#BCFF87"/>
<path d="M66.504 14.5037C102.53 14.5037 131.831 43.9539 131.831 80.1585C131.831 131.807 72.1914 185.391 69.6516 187.637C68.7852 188.408 67.6649 188.834 66.504 188.834C65.3431 188.834 64.2228 188.408 63.3564 187.637C60.8166 185.375 1.16875 131.978 1.16875 80.1585C1.16875 43.9539 30.4785 14.5037 66.504 14.5037ZM66.504 117.101C73.9232 117.101 81.1757 114.907 87.3446 110.795C93.5135 106.683 98.3218 100.838 101.161 94.0002C104.001 87.1622 104.744 79.6377 103.297 72.3782C101.851 65.1187 98.2785 58.4502 93.0329 53.216C87.7873 47.9817 81.1037 44.4167 73.8273 42.9718C66.5509 41.5269 59.0084 42.2669 52.1535 45.0983C45.2987 47.9297 39.4393 52.7253 35.3163 58.8788C31.1934 65.0323 28.9919 72.2672 28.9904 79.6688C29.0027 89.59 32.9593 99.1012 39.992 106.116C47.0247 113.13 56.5593 117.076 66.504 117.086M66.504 13.7109C30.0499 13.7265 0.389648 43.5264 0.389648 80.1585C0.389648 132.235 60.2868 185.958 62.8344 188.197C63.8427 189.096 65.1477 189.593 66.5001 189.593C67.8525 189.593 69.1575 189.096 70.1658 188.197C72.7134 185.935 132.611 132.188 132.611 80.1585C132.611 43.5264 102.95 13.7265 66.504 13.7265V13.7109ZM66.504 116.309C59.2379 116.31 52.1346 114.162 46.0925 110.136C40.0503 106.109 35.3407 100.386 32.5594 93.689C29.7781 86.9923 29.05 79.623 30.4671 72.5134C31.8843 65.4037 35.3831 58.873 40.521 53.7473C45.6589 48.6216 52.205 45.1311 59.3316 43.7172C66.4581 42.3034 73.8448 43.0298 80.5575 45.8046C87.2702 48.5793 93.0072 53.2777 97.0431 59.3056C101.079 65.3334 103.232 72.4199 103.231 79.6688C103.218 89.3825 99.345 98.6948 92.4601 105.563C85.5751 112.432 76.2407 116.296 66.504 116.309Z" fill="black"/>
<path d="M66.5041 175.496C65.2515 175.489 64.0443 175.028 63.1072 174.198C60.5518 171.944 0.779297 118.43 0.779297 66.4554C0.779297 30.0176 30.2604 0.388672 66.5041 0.388672C102.748 0.388672 132.221 30.0176 132.221 66.4554C132.221 118.29 72.4564 171.968 69.8932 174.23C68.9551 175.048 67.7505 175.499 66.5041 175.496ZM66.5041 28.9217C59.1613 28.9202 51.983 31.091 45.8769 35.1597C39.7709 39.2283 35.0114 45.012 32.2004 51.7794C29.3893 58.5467 28.653 65.9937 30.0846 73.1786C31.5162 80.3634 35.0513 86.9633 40.2429 92.1437C45.4344 97.3241 52.0493 100.852 59.2509 102.282C66.4525 103.712 73.9173 102.979 80.7013 100.176C87.4853 97.3727 93.2837 92.6257 97.3633 86.5349C101.443 80.4442 103.62 73.2833 103.62 65.9579C103.608 56.1404 99.6938 46.7285 92.7361 39.7857C85.7783 32.843 76.3449 28.9361 66.5041 28.9217Z" fill="#BCFF87"/>
<path d="M66.504 0.777255C102.53 0.777255 131.831 30.2274 131.831 66.432C131.831 118.081 72.1914 171.657 69.6516 173.911C68.7852 174.682 67.6649 175.108 66.504 175.108C65.3431 175.108 64.2228 174.682 63.3564 173.911C60.8166 171.657 1.16875 118.244 1.16875 66.4553C1.16875 30.2274 30.4785 0.777255 66.504 0.777255ZM66.504 103.375C73.9238 103.375 81.177 101.18 87.3463 97.0672C93.5155 92.9545 98.3237 87.1091 101.163 80.2702C104.002 73.4312 104.744 65.9059 103.296 58.646C101.848 51.3861 98.2745 44.7176 93.0274 39.484C87.7802 34.2503 81.0952 30.6866 73.8178 29.2434C66.5403 27.8003 58.9973 28.5425 52.1428 31.3763C45.2882 34.2101 39.4299 39.0081 35.3088 45.1636C31.1877 51.3191 28.9888 58.5556 28.9904 65.9579C29.0027 75.879 32.9593 85.3902 39.992 92.4048C47.0247 99.4194 56.5593 103.365 66.504 103.375ZM66.504 0C30.0499 0 0.389648 29.8 0.389648 66.4553C0.389648 118.531 60.2868 172.255 62.8344 174.494C63.8427 175.393 65.1477 175.89 66.5001 175.89C67.8525 175.89 69.1575 175.393 70.1658 174.494C72.7134 172.232 132.611 118.485 132.611 66.4553C132.611 29.8 102.95 0 66.504 0ZM66.504 102.598C59.2379 102.599 52.1346 100.451 46.0925 96.4247C40.0503 92.3984 35.3407 86.6749 32.5594 79.9781C29.7781 73.2813 29.05 65.9121 30.4671 58.8024C31.8843 51.6928 35.3831 45.1621 40.521 40.0363C45.6589 34.9106 52.205 31.4201 59.3316 30.0063C66.4581 28.5925 73.8448 29.3189 80.5575 32.0936C87.2702 34.8684 93.0072 39.5668 97.0431 45.5946C101.079 51.6225 103.232 58.709 103.231 65.9579C103.218 75.6716 99.345 84.9839 92.4601 91.8525C85.5751 98.7211 76.2407 102.585 66.504 102.598Z" fill="black"/>
<path d="M70.1658 174.494C69.1575 175.393 67.8525 175.89 66.5001 175.89C65.1477 175.89 63.8427 175.393 62.8344 174.494C60.4036 172.333 5.57845 123.133 0.732452 73.3418C0.504006 75.6068 0.389595 77.8819 0.389648 80.1583C0.389648 132.234 60.2868 185.958 62.8344 188.197C63.8427 189.096 65.1477 189.593 66.5001 189.593C67.8525 189.593 69.1575 189.096 70.1658 188.197C72.7134 185.935 132.611 132.188 132.611 80.1583C132.611 77.8819 132.496 75.6068 132.268 73.3418C127.43 123.133 72.6043 172.333 70.1658 174.494Z" fill="#7CCC3D" stroke="black" stroke-miterlimit="10"/>
<path d="M66.5039 29.3101C61.0928 29.3004 55.7466 30.4854 50.8487 32.7802C45.9508 35.075 41.6226 38.4227 38.1747 42.5832C34.7267 46.7437 32.2443 51.6138 30.9056 56.8443C29.5669 62.0749 29.4051 67.5361 30.4317 72.8364C32.0288 64.4587 36.5058 56.8995 43.0907 51.4619C49.6756 46.0242 57.9559 43.0489 66.5039 43.0489C75.052 43.0489 83.3322 46.0242 89.9172 51.4619C96.5021 56.8995 100.979 64.4587 102.576 72.8364C103.596 67.537 103.428 62.0783 102.087 56.8508C100.745 51.6233 98.2626 46.7561 94.816 42.5973C91.3695 38.4386 87.0443 35.091 82.1499 32.794C77.2556 30.497 71.9128 29.3073 66.5039 29.3101Z" fill="#7CCC3D" stroke="black" stroke-miterlimit="10"/>
<path d="M62.834 174.486V188.212" stroke="black" stroke-linecap="round" stroke-linejoin="round"/>
<path d="M70.166 174.494V188.22" stroke="black" stroke-linecap="round" stroke-linejoin="round"/>
</g>
<defs>
<clipPath id="clip0_277_4099">
<rect width="133" height="190" fill="white"/>
</clipPath>
</defs>
</svg>
