<svg width="357" height="448" viewBox="0 0 357 448" fill="none" xmlns="http://www.w3.org/2000/svg">
<circle cx="315" cy="200.072" r="83.9748" stroke="#E9E9E9"/>
<circle cx="315" cy="200.071" r="52.8525" stroke="#0C0C0C"/>
<circle cx="314.259" cy="202.296" r="120.284" stroke="#9F9F9F"/>
<circle cx="315" cy="203.036" r="166.968" stroke="#535353"/>
<circle cx="315" cy="206" r="205.5" stroke="#292929"/>
<path d="M255.422 237.98C255.422 237.98 253.793 232.757 251.083 225.937C250.544 224.608 249.969 223.211 249.355 221.779C249.265 221.553 249.164 221.326 249.063 221.099C248.768 220.422 248.461 219.727 248.148 219.034C243.637 209.055 237.433 198.293 230.759 195.335C219.844 190.52 178.217 202.7 164.074 214.778C160.345 217.962 159.398 224.861 159.663 232.358L159.669 232.507C159.95 237.957 160.635 243.379 161.717 248.729L161.97 250.009C162.139 250.851 162.311 251.649 162.474 252.412C162.607 253.006 162.733 253.573 162.859 254.117C163.745 258.002 164.479 260.521 164.479 260.521L173.309 258.331L177.81 257.217L186.161 255.151L188.686 254.527L255.422 237.98Z" fill="white"/>
<g opacity="0.35">
<path d="M173.299 258.35L177.801 257.236L239.426 241.962L255.423 237.981L255.32 237.666L255.259 237.462L255.193 237.273C255.175 237.223 255.16 237.171 255.149 237.119L255.125 237.059L255.025 236.751L255.002 236.679L254.907 236.392L254.766 235.973C254.729 235.864 254.696 235.752 254.655 235.641L254.535 235.287C254.483 235.135 254.427 234.98 254.376 234.817C254.259 234.487 254.143 234.135 254.012 233.769C253.881 233.402 253.78 233.105 253.648 232.75C253.517 232.394 253.35 231.909 253.188 231.466C252.591 229.824 251.883 227.954 251.081 225.943L250.606 224.755L250.257 223.902C249.97 223.212 249.673 222.5 249.365 221.786C244.792 211.12 238.067 198.568 230.783 195.327C221.798 191.356 191.98 198.904 173.836 208.449C190.359 202.436 208.957 198.886 215.721 201.89C219.07 203.37 222.365 207.11 225.402 211.77C225.697 212.223 225.865 212.747 225.888 213.288C225.911 213.828 225.788 214.364 225.533 214.841C225.278 215.317 224.899 215.717 224.437 215.997C223.974 216.277 223.445 216.428 222.904 216.434L222.85 216.438C217.92 216.618 213.039 217.482 208.346 219.004C196.819 222.649 180.772 229.507 171.346 246.236C171.119 246.628 172.08 251.929 173.299 258.35Z" fill="black"/>
</g>
<path d="M257.565 239.221L163.284 262.585L162.835 261.01C161.026 254.501 159.654 247.879 158.726 241.188C156.816 226.849 158.236 217.537 162.961 213.506C177.726 200.886 219.964 188.735 231.444 193.801C245.27 199.907 256.565 235.967 257.039 237.498L257.565 239.221ZM165.659 258.494L253.229 236.785C250.807 229.568 240.908 201.695 230.063 196.909C225.432 194.861 213.287 196.229 199.095 200.365C184.542 204.613 171.543 210.638 165.166 216.085C157.825 222.375 162.69 247.461 165.659 258.494Z" fill="black"/>
<path d="M200.288 205.556L205.891 220.249C206.134 220.886 206.582 221.424 207.164 221.778C207.747 222.132 208.431 222.282 209.108 222.205C214.221 221.642 225.942 219.744 228.279 213.899C230.212 209.065 227.958 202.823 223.697 200.036C218.932 196.916 207.726 199.804 202.257 201.504C201.853 201.628 201.479 201.834 201.158 202.109C200.837 202.383 200.576 202.721 200.391 203.102C200.206 203.482 200.102 203.896 200.084 204.318C200.067 204.74 200.136 205.162 200.288 205.556Z" fill="white"/>
<g opacity="0.35">
<path d="M209.109 222.206C214.222 221.643 225.942 219.745 228.28 213.9C230.213 209.066 227.959 202.824 223.694 200.034C220.767 198.118 215.396 198.473 210.428 199.428C213.04 199.388 215.315 199.869 216.994 200.806C226.607 206.193 219.611 214.427 219.611 214.427C219.611 214.427 222.011 214.782 222.365 215.527C223.838 218.648 213.399 221.016 207.969 222.116C208.34 222.218 208.727 222.249 209.109 222.206Z" fill="black"/>
</g>
<path d="M229.367 215.535C226.071 221.226 215.516 223.212 209.292 223.905C208.24 224.02 207.179 223.783 206.275 223.23C205.372 222.678 204.678 221.841 204.301 220.852L198.699 206.159C198.466 205.549 198.36 204.897 198.389 204.244C198.418 203.592 198.58 202.952 198.866 202.364C199.151 201.777 199.555 201.254 200.05 200.828C200.546 200.403 201.124 200.083 201.748 199.89C209.421 197.507 219.622 195.35 224.63 198.605C229.69 201.92 232.042 209.067 229.861 214.531C229.72 214.877 229.555 215.212 229.367 215.535ZM201.876 204.952L207.474 219.642C207.583 219.928 207.784 220.17 208.045 220.33C208.306 220.489 208.613 220.558 208.917 220.525C218.666 219.449 225.306 216.742 226.695 213.279C228.284 209.309 226.48 203.898 222.763 201.466C219.81 199.535 212.335 200.16 202.758 203.138C202.576 203.19 202.407 203.281 202.263 203.404C202.118 203.527 202.002 203.679 201.921 203.85C201.838 204.02 201.79 204.205 201.781 204.393C201.772 204.582 201.801 204.77 201.867 204.947L201.876 204.952Z" fill="black"/>
<path d="M229.504 206.067C229.445 206.329 229.366 206.587 229.268 206.837C229.18 207.06 229.088 207.279 228.987 207.483C228.784 207.894 228.554 208.291 228.299 208.671C227.812 209.421 227.243 210.113 226.603 210.736C225.362 211.942 223.923 212.926 222.348 213.644C221.582 213.993 220.796 214.297 219.994 214.555C219.197 214.837 218.414 215.023 217.615 215.229C216.815 215.435 216.011 215.597 215.194 215.723C214.358 215.871 213.51 215.933 212.662 215.907C212.556 215.901 212.457 215.853 212.386 215.774C212.315 215.695 212.278 215.591 212.284 215.485C212.291 215.389 212.332 215.3 212.4 215.232C212.468 215.165 212.558 215.124 212.653 215.118L212.708 215.114C213.475 215.054 214.235 214.92 214.976 214.713C215.737 214.514 216.496 214.279 217.242 214.013C217.989 213.748 218.75 213.479 219.447 213.15C220.158 212.846 220.85 212.497 221.517 212.105C222.824 211.355 223.989 210.383 224.961 209.233C225.431 208.682 225.836 208.08 226.169 207.438C226.331 207.128 226.472 206.807 226.591 206.479C226.652 206.318 226.704 206.154 226.747 205.988C226.785 205.858 226.815 205.726 226.837 205.592C226.844 205.414 226.886 205.238 226.961 205.076C227.035 204.914 227.141 204.768 227.273 204.647C227.404 204.526 227.557 204.432 227.725 204.37C227.893 204.309 228.071 204.281 228.249 204.288C228.428 204.295 228.603 204.337 228.765 204.412C228.927 204.487 229.073 204.593 229.194 204.724C229.315 204.855 229.409 205.009 229.471 205.177C229.533 205.344 229.561 205.522 229.554 205.701C229.551 205.784 229.54 205.867 229.521 205.949L229.504 206.067Z" fill="black"/>
<path d="M168.858 238.195C168.052 236.414 167.301 234.636 166.564 232.837C165.826 231.038 165.132 229.223 164.487 227.384C163.841 225.545 163.211 223.691 162.684 221.788C162.127 219.858 161.712 217.89 161.441 215.899C161.386 215.451 161.511 215 161.788 214.644C162.066 214.289 162.473 214.058 162.921 214.003C163.368 213.947 163.82 214.072 164.176 214.35C164.531 214.627 164.763 215.034 164.818 215.482L164.831 215.6C164.959 217.441 165.219 219.271 165.61 221.075C165.977 222.921 166.453 224.761 166.959 226.6C167.464 228.44 168.029 230.267 168.618 232.091C169.208 233.915 169.832 235.73 170.496 237.516C170.585 237.731 170.585 237.972 170.495 238.186C170.406 238.4 170.235 238.57 170.021 238.659C169.806 238.747 169.565 238.747 169.35 238.658C169.136 238.568 168.966 238.397 168.877 238.183L168.858 238.195Z" fill="black"/>
<path d="M164.754 264.243L171.971 279.382L184.052 304.723L184.728 306.137C183.653 309.581 182.446 312.884 181.106 316.047C169.598 343.291 148.406 360.671 118.469 371.236C111.721 378.027 105.672 382.547 99.9309 383.24C94.5785 383.885 89.4896 381.182 84.3792 373.856C77.3861 363.835 84.6286 354.744 90.4772 349.194C93.6322 346.207 101.132 339.242 106.648 335.785C109.162 334.199 111.58 332.466 113.889 330.594C132.11 315.993 148.577 291.475 157.585 276.674C162.107 269.216 164.754 264.243 164.754 264.243Z" fill="white"/>
<g opacity="0.25">
<path d="M104.324 350.685C104.569 350.747 104.803 350.849 105.015 350.987C104.437 350.791 104.189 350.665 104.324 350.685Z" fill="black"/>
</g>
<g opacity="0.25">
<path d="M171.97 279.383L184.051 304.723L184.727 306.138C183.651 309.581 182.444 312.884 181.105 316.047C169.597 343.291 148.405 360.671 118.468 371.237C111.72 378.028 105.671 382.548 99.9296 383.241C105.024 379.737 110.574 374.532 111.485 368.088C112.517 360.843 104.856 354.365 102.246 352.906C106.882 354.463 132.269 360.182 155.045 331.98C168.928 314.798 171.493 288.503 171.97 279.383Z" fill="black"/>
</g>
<path d="M177.206 327.673C165.222 348.368 146.134 363.199 119.406 372.693C110.251 381.863 103.608 385.539 97.2351 384.983C92.103 384.534 87.4396 381.217 82.9844 374.829C77.1667 366.494 79.2936 357.458 89.3095 347.967C94.0115 343.504 100.68 337.522 105.748 334.346C135.319 315.795 162.966 263.988 163.251 263.455C163.35 263.249 163.49 263.065 163.662 262.914C163.834 262.763 164.034 262.648 164.252 262.577C164.469 262.505 164.699 262.478 164.927 262.497C165.155 262.517 165.377 262.582 165.579 262.689C165.781 262.796 165.96 262.942 166.104 263.12C166.249 263.298 166.356 263.503 166.419 263.723C166.482 263.943 166.5 264.173 166.473 264.4C166.445 264.627 166.371 264.847 166.256 265.045C165.112 267.202 137.902 318.186 107.554 337.223C103.788 339.589 98.1405 344.278 91.6461 350.431C82.9398 358.715 81.0134 366.059 85.782 372.891C89.6235 378.4 93.4699 381.25 97.5369 381.599C102.793 382.055 108.876 378.491 117.27 370.043L117.539 369.769L117.91 369.641C152.098 357.571 173.424 336.635 183.1 305.644C183.16 305.422 183.263 305.215 183.405 305.035C183.547 304.854 183.723 304.704 183.924 304.594C184.125 304.484 184.346 304.415 184.575 304.393C184.803 304.37 185.033 304.394 185.252 304.462C185.471 304.531 185.674 304.643 185.848 304.792C186.023 304.941 186.165 305.124 186.267 305.329C186.369 305.535 186.428 305.759 186.442 305.988C186.455 306.217 186.422 306.446 186.344 306.662C184.088 313.983 181.023 321.031 177.206 327.673Z" fill="black"/>
<path d="M157.137 351.623C156.938 351.966 156.626 352.228 156.253 352.365C155.881 352.501 155.473 352.504 155.099 352.371C154.725 352.239 154.41 351.98 154.206 351.64C154.003 351.3 153.925 350.899 153.985 350.507C154.002 350.429 154.813 344.87 152.161 338.02C148.597 328.816 140.786 321.734 128.943 316.975C128.735 316.893 128.546 316.771 128.385 316.615C128.225 316.46 128.097 316.275 128.008 316.07C127.919 315.865 127.871 315.645 127.868 315.422C127.864 315.199 127.904 314.977 127.986 314.77C128.152 314.35 128.477 314.014 128.891 313.835C129.304 313.656 129.772 313.648 130.192 313.814C146.184 320.238 152.72 329.953 155.387 336.969C158.306 344.654 157.368 350.774 157.327 351.035C157.3 351.241 157.236 351.441 157.137 351.623Z" fill="black"/>
<path d="M111.819 332.209C110.467 333.589 107.41 334.569 106.365 334.656C104.219 334.837 101.504 335.266 98.0889 335.619C92.2335 336.229 82.9464 340.223 83.6541 344.947C84.7603 352.518 95.3018 347.041 96.6846 347.696C98.0675 348.352 103.012 354.849 111.549 354.56L111.819 332.209Z" fill="white"/>
<path d="M113.032 333.396C112.414 333.991 111.711 334.491 110.946 334.88C110.268 335.23 109.565 335.531 108.843 335.778C108.486 335.903 108.125 336.014 107.747 336.115C107.322 336.228 106.888 336.306 106.45 336.346C105.806 336.403 105.148 336.476 104.484 336.556L100.449 337.057L98.4028 337.285C97.7756 337.364 97.1534 337.434 96.5409 337.567C94.0555 338.064 91.6563 338.921 89.4193 340.112C88.3622 340.666 87.3886 341.367 86.5273 342.193C85.735 342.979 85.2789 343.837 85.3307 344.5C85.3541 344.72 85.3936 344.937 85.4488 345.15C85.509 345.375 85.586 345.594 85.6792 345.807C85.8343 346.158 86.0794 346.463 86.3897 346.689C86.9654 347.121 88.0169 347.294 89.1748 347.203C90.4152 347.087 91.6426 346.86 92.8425 346.525C93.51 346.376 94.1285 346.182 94.8754 346.028C95.2978 345.921 95.7283 345.849 96.1626 345.814C96.3526 345.805 96.543 345.812 96.7318 345.835C96.8862 345.852 97.0383 345.886 97.1857 345.935C97.2641 345.981 97.3627 345.991 97.4417 346.025C97.4875 346.047 97.5313 346.072 97.5724 346.101C97.7162 346.184 97.8599 346.267 98.008 346.353C98.1561 346.439 98.1256 346.421 98.1735 346.449L98.3085 346.527C98.9711 347.051 99.4106 347.497 99.9138 347.934C100.417 348.37 100.89 348.778 101.38 349.178C102.357 349.958 103.395 350.658 104.483 351.272C106.685 352.489 109.091 353.291 111.582 353.638L111.634 353.669C111.833 353.703 112.014 353.806 112.144 353.96C112.274 354.115 112.346 354.31 112.346 354.512C112.346 354.714 112.275 354.909 112.145 355.064C112.014 355.218 111.834 355.321 111.635 355.355C111.277 355.41 110.917 355.469 110.556 355.51L110.013 355.573C109.828 355.582 109.648 355.582 109.467 355.583C109.097 355.589 108.732 355.587 108.36 355.575C107.989 355.564 107.627 355.505 107.265 355.458C105.779 355.277 104.327 354.881 102.955 354.282C101.628 353.661 100.368 352.906 99.1941 352.029C98.6135 351.605 98.0529 351.147 97.5236 350.695C96.9942 350.243 96.4488 349.759 96.0467 349.439L95.964 349.391C95.9378 349.376 95.903 349.355 95.9117 349.36C95.9117 349.36 95.9117 349.36 95.9335 349.373C95.9715 349.401 96.0124 349.424 96.0555 349.444C96.1244 349.466 96.1951 349.481 96.2668 349.49C96.2973 349.508 96.3661 349.49 96.306 349.513C96.0699 349.536 95.8359 349.578 95.6061 349.637C95.0142 349.765 94.3428 349.94 93.672 350.104C92.2504 350.468 90.7982 350.699 89.3339 350.796C88.5168 350.84 87.6972 350.789 86.8919 350.643C85.9705 350.482 85.0972 350.116 84.3372 349.571C83.5497 348.99 82.9285 348.214 82.5357 347.318C82.3548 346.91 82.2109 346.486 82.1058 346.052C82.0053 345.612 81.9392 345.166 81.9079 344.716C81.8759 343.739 82.1032 342.771 82.5666 341.911C82.9678 341.163 83.4794 340.479 84.0843 339.883C85.1761 338.823 86.4133 337.925 87.7587 337.214C90.3078 335.85 93.0449 334.87 95.8812 334.307C96.5843 334.168 97.3352 334.056 98.0411 333.982L100.037 333.76L104.112 333.201C104.798 333.122 105.491 333.04 106.193 332.982C106.439 332.947 106.682 332.894 106.92 332.822C107.195 332.748 107.481 332.658 107.764 332.56C108.325 332.369 108.871 332.138 109.398 331.867C109.846 331.642 110.261 331.355 110.63 331.016L110.658 330.968C110.814 330.802 111.003 330.669 111.212 330.577C111.421 330.486 111.646 330.437 111.874 330.434C112.103 330.431 112.329 330.474 112.54 330.561C112.752 330.647 112.944 330.776 113.104 330.938C113.265 331.1 113.391 331.293 113.476 331.505C113.561 331.717 113.602 331.944 113.597 332.172C113.592 332.4 113.541 332.625 113.447 332.833C113.354 333.042 113.219 333.229 113.051 333.384L113.032 333.396Z" fill="black"/>
<path d="M311.447 244.36C313.55 251.264 311.275 260.314 305.224 265.641C296.549 273.269 279.683 268.746 279.683 268.746C260.342 300.536 240.704 299.304 240.704 299.304L232.18 280.878L222.953 260.924C231.575 259.585 238.607 255.989 244.654 251.734C255.479 244.09 263.041 234.247 270.585 231.284C275.555 229.319 281.236 229.092 287.08 230.08C293.131 231.102 299.356 233.428 305.183 236.494C308.354 238.139 310.408 240.991 311.447 244.36Z" fill="white"/>
<g opacity="0.25">
<path d="M287.08 230.067C282.589 232.188 279.564 236.668 276.497 242.829C269.955 255.983 258.579 260.36 258.579 260.36L244.657 251.717C255.483 244.072 263.044 234.23 270.588 231.267C275.564 229.293 281.232 229.087 287.08 230.067Z" fill="black"/>
</g>
<g opacity="0.25">
<path d="M311.448 244.359C313.551 251.263 311.277 260.313 305.225 265.64C296.55 273.268 279.684 268.745 279.684 268.745C260.343 300.535 240.705 299.303 240.705 299.303L232.181 280.877C240.042 278.452 258.79 272.594 258.79 272.594C258.79 272.594 263.885 276.16 270.083 272.296C278.272 267.195 281.937 249.619 282.017 249.229C282.061 249.755 283.767 269.429 298.692 262.619C308.244 258.248 310.866 247.464 311.448 244.359Z" fill="black"/>
</g>
<path d="M310.714 261.523C309.557 263.536 308.082 265.348 306.345 266.888C298.413 273.865 284.698 271.574 280.483 270.657C261.047 301.88 241.426 301.029 240.594 300.978C240.187 300.902 239.821 300.679 239.566 300.352C239.311 300.025 239.184 299.616 239.209 299.202C239.235 298.788 239.41 298.398 239.703 298.104C239.996 297.811 240.387 297.635 240.801 297.609C241.066 297.623 259.792 298.171 278.23 267.858C278.423 267.546 278.71 267.304 279.051 267.168C279.392 267.032 279.767 267.01 280.121 267.104C280.283 267.146 296.218 271.298 304.102 264.363C308.657 260.355 311.128 253.768 310.39 247.579C309.859 243.143 307.738 239.735 304.415 237.99C291.826 231.374 279.727 229.508 271.221 232.855C267.203 234.441 263.035 238.243 258.206 242.645C249.625 250.432 238.993 260.153 223.222 262.608C223.001 262.642 222.777 262.633 222.56 262.58C222.343 262.527 222.139 262.432 221.959 262.301C221.779 262.169 221.626 262.004 221.51 261.813C221.394 261.623 221.317 261.411 221.282 261.191C221.248 260.971 221.257 260.746 221.31 260.529C221.363 260.312 221.457 260.108 221.589 259.928C221.72 259.748 221.886 259.596 222.077 259.48C222.267 259.364 222.478 259.287 222.699 259.252C237.457 256.95 247.69 247.625 255.923 240.119C260.995 235.498 265.385 231.493 269.981 229.684C282.885 224.597 298.087 230.808 306.002 234.968C310.346 237.25 313.103 241.58 313.771 247.165C314.313 252.155 313.242 257.187 310.714 261.523Z" fill="black"/>
<path d="M269.585 285.056C269.359 285.446 268.988 285.731 268.552 285.847C268.116 285.963 267.651 285.901 267.261 285.675C266.871 285.449 266.586 285.077 266.47 284.641C266.353 284.205 266.415 283.741 266.641 283.351C270.383 276.889 273.691 265.874 270.69 256.101C268.725 249.731 264.365 244.845 257.726 241.616C257.525 241.519 257.345 241.383 257.197 241.217C257.048 241.05 256.934 240.856 256.861 240.645C256.788 240.435 256.757 240.212 256.77 239.989C256.783 239.767 256.839 239.549 256.936 239.348C257.033 239.147 257.169 238.968 257.336 238.82C257.502 238.671 257.696 238.557 257.907 238.484C258.118 238.411 258.341 238.38 258.563 238.393C258.786 238.406 259.004 238.463 259.205 238.56C266.741 242.209 271.693 247.78 273.944 255.102C277.262 265.925 273.67 278.003 269.585 285.056Z" fill="black"/>
<path d="M282.791 248.874C282.891 249.1 282.978 249.331 283.053 249.567C283.125 249.783 283.187 249.999 283.256 250.219C283.365 250.654 283.463 251.089 283.528 251.539C283.592 251.99 283.652 252.408 283.714 252.845C283.775 253.281 283.794 253.711 283.814 254.147C283.892 255.88 283.82 257.617 283.601 259.338C283.395 261.05 283.089 262.748 282.685 264.424L282.023 266.913L281.25 269.372C281.098 269.783 280.793 270.118 280.4 270.31C280.007 270.502 279.555 270.536 279.137 270.404C278.72 270.272 278.369 269.985 278.157 269.601C277.946 269.218 277.89 268.769 278 268.345L278.047 268.215L278.082 268.154L279.007 265.905L279.83 263.619C280.338 262.087 280.758 260.527 281.088 258.946C281.429 257.379 281.632 255.785 281.695 254.182C281.71 253.783 281.701 253.388 281.707 252.985C281.714 252.582 281.681 252.197 281.645 251.786C281.609 251.376 281.56 251.01 281.498 250.625C281.459 250.44 281.426 250.247 281.385 250.066L281.246 249.573L281.222 249.495C281.141 249.285 281.147 249.052 281.238 248.847C281.329 248.642 281.497 248.481 281.707 248.4C281.916 248.32 282.149 248.326 282.355 248.417C282.56 248.508 282.721 248.677 282.801 248.886L282.791 248.874Z" fill="black"/>
<path d="M260.023 253.185C264.334 298.573 221.044 318.034 181.636 315.162C179.879 315.034 178.114 314.866 176.378 314.64C169.508 313.808 162.753 312.209 156.239 309.873L158.784 276.903L160.586 253.603L161.172 245.982C168.065 244.515 174.803 242.4 181.297 239.665C190.251 235.926 197.417 231.726 204.679 228.478C212.191 225.118 219.825 222.783 229.597 222.983C247.158 223.373 258.381 235.844 260.023 253.185Z" fill="white"/>
<g opacity="0.25">
<path d="M260.022 253.186C262.846 282.951 245.195 301.579 221.623 310.022C241.696 300.57 255.772 282.802 253.228 255.979C251.581 238.634 240.359 226.164 222.798 225.774C216.272 225.615 209.774 226.687 203.646 228.934C203.997 228.77 204.34 228.609 204.69 228.457C212.189 225.119 219.824 222.784 229.596 222.984C247.157 223.374 258.38 235.844 260.022 253.186Z" fill="black"/>
</g>
<path d="M261.495 254.039C261.317 254.354 261.043 254.604 260.713 254.753C260.383 254.901 260.015 254.941 259.661 254.865C259.307 254.79 258.986 254.604 258.745 254.334C258.504 254.064 258.355 253.724 258.321 253.364C256.679 236.04 245.637 225.046 229.55 224.702C216.176 224.393 206.884 229.059 196.149 234.54C186.945 239.193 176.508 244.47 161.557 247.649C161.129 247.713 160.692 247.612 160.336 247.365C159.98 247.119 159.732 246.746 159.641 246.323C159.55 245.9 159.624 245.458 159.847 245.088C160.071 244.717 160.428 244.446 160.844 244.329C175.372 241.23 185.601 236.06 194.623 231.5C205.783 225.858 215.425 220.981 229.657 221.293C247.368 221.665 259.951 234.138 261.742 253.031C261.768 253.385 261.682 253.738 261.495 254.039Z" fill="black"/>
<path d="M177.259 313.894C183.916 314.065 190.578 313.898 197.219 313.395C200.519 313.1 203.803 312.64 207.057 312.016C210.304 311.412 213.516 310.628 216.676 309.668C219.831 308.719 222.928 307.589 225.953 306.284C228.959 304.966 231.876 303.454 234.686 301.759C236.075 300.889 237.45 299.999 238.766 299.023C239.429 298.552 240.076 298.037 240.725 297.529C241.374 297.021 241.969 296.505 242.577 295.968C243.792 294.875 245.011 293.773 246.208 292.64C247.405 291.508 248.621 290.392 249.898 289.282C250.049 289.149 250.242 289.074 250.443 289.068C250.645 289.063 250.842 289.128 251 289.253C251.158 289.378 251.267 289.554 251.309 289.751C251.351 289.948 251.322 290.154 251.227 290.331C248.001 296.545 242.338 301.051 236.595 304.841C233.677 306.704 230.621 308.342 227.453 309.74C224.31 311.137 221.075 312.317 217.77 313.272C211.165 315.198 204.368 316.39 197.501 316.825C190.666 317.368 183.789 316.942 177.073 315.56C176.861 315.521 176.672 315.403 176.544 315.23C176.415 315.057 176.357 314.842 176.382 314.628C176.406 314.414 176.51 314.217 176.674 314.077C176.838 313.937 177.049 313.865 177.264 313.874L177.259 313.894Z" fill="black"/>
<path d="M309.447 195.485C313.788 202.563 312.231 212.603 305.973 219.381C297.879 228.125 280.108 225.275 280.108 225.275C273.621 246.159 260.14 254.493 260.14 254.493C260.14 254.493 262.148 261.551 258.534 273.436L253.353 266.494L221.104 223.288C242.733 218.08 250.146 195.115 263.114 187.497C269.589 183.688 292.372 184.09 302.953 189.543C305.628 190.881 307.877 192.939 309.447 195.485Z" fill="white"/>
<g opacity="0.25">
<path d="M309.449 195.485C313.79 202.563 312.233 212.603 305.975 219.381C297.881 228.125 280.11 225.275 280.11 225.275C273.623 246.159 260.142 254.493 260.142 254.493C260.142 254.493 262.15 261.551 258.536 273.436L253.355 266.494C254.086 253.178 248.186 245.197 248.683 244.339C249.18 243.481 256.435 245.276 264.659 237.311C284.907 217.716 274.215 200.954 275.303 199.508C276.39 198.062 284.373 223.82 296.779 218.759C305.031 215.398 308.913 204.023 309.449 195.485Z" fill="black"/>
</g>
<path d="M220.706 221.636C223.775 220.874 226.728 219.703 229.486 218.156C232.25 216.56 234.826 214.658 237.166 212.487C241.932 208.154 245.901 202.917 250.095 197.735C251.146 196.442 252.218 195.144 253.341 193.876C254.465 192.608 255.62 191.358 256.879 190.169C258.144 188.961 259.501 187.853 260.938 186.856L262.068 186.139C262.243 186.019 262.484 185.903 262.699 185.783C262.912 185.667 263.131 185.563 263.356 185.472C264.201 185.107 265.074 184.809 265.966 184.582C269.324 183.793 272.757 183.37 276.206 183.32C279.594 183.23 282.984 183.35 286.357 183.68C289.749 184.001 293.112 184.571 296.421 185.386C298.1 185.807 299.751 186.334 301.364 186.964C301.769 187.129 302.173 187.305 302.58 187.476L303.784 188.058C304.176 188.285 304.581 188.49 304.96 188.739C305.34 188.987 305.734 189.221 306.101 189.492C307.597 190.561 308.92 191.855 310.022 193.327C311.117 194.802 311.974 196.44 312.562 198.182C313.696 201.632 313.909 205.319 313.179 208.877C312.469 212.391 310.991 215.704 308.851 218.58C308.581 218.936 308.298 219.284 308.022 219.63C307.746 219.976 307.44 220.304 307.131 220.637C306.495 221.305 305.808 221.921 305.074 222.481C303.625 223.568 302.039 224.46 300.357 225.133C297.091 226.372 293.653 227.098 290.165 227.283C288.452 227.402 286.734 227.432 285.018 227.373C284.167 227.349 283.313 227.302 282.454 227.231C281.588 227.159 280.763 227.077 279.854 226.94L281.746 225.762L280.999 227.946L280.623 229.037C280.507 229.404 280.372 229.764 280.219 230.117L279.346 232.257C279.193 232.61 279.058 232.974 278.897 233.322L278.398 234.365L277.4 236.45L276.291 238.476L275.737 239.493L275.126 240.477C274.712 241.132 274.322 241.796 273.893 242.436C272.175 245.012 270.256 247.447 268.152 249.717L267.358 250.566L266.53 251.383C265.982 251.938 265.391 252.467 264.825 252.982C264.259 253.498 263.65 254.006 263.023 254.486C262.713 254.731 262.407 254.978 262.079 255.212C261.751 255.447 261.445 255.665 261.046 255.922L261.78 254.022C261.852 254.319 261.881 254.51 261.938 254.753C261.995 254.995 261.999 255.19 262.039 255.393C262.087 255.822 262.124 256.25 262.152 256.673C262.232 257.54 262.217 258.368 262.205 259.204C262.168 260.864 262.027 262.52 261.782 264.163C261.527 265.787 261.191 267.397 260.774 268.986C260.581 269.782 260.335 270.558 260.118 271.345L259.356 273.665C259.282 273.866 259.136 274.032 258.946 274.129C258.756 274.227 258.536 274.25 258.33 274.193C258.124 274.136 257.947 274.003 257.834 273.822C257.722 273.64 257.681 273.423 257.721 273.213L257.744 273.174L258.279 270.873C258.419 270.1 258.6 269.315 258.708 268.557C258.958 267.01 259.136 265.457 259.231 263.907C259.319 262.365 259.315 260.819 259.219 259.277C259.16 258.516 259.086 257.759 258.969 257.016C258.918 256.644 258.821 256.268 258.773 255.92C258.734 255.746 258.7 255.564 258.651 255.396C258.603 255.229 258.559 255.034 258.528 254.947C258.408 254.62 258.402 254.262 258.511 253.932C258.62 253.601 258.838 253.317 259.129 253.126L259.267 253.037C259.5 252.887 259.81 252.672 260.087 252.466C260.363 252.259 260.652 252.043 260.929 251.825C261.49 251.389 262.038 250.915 262.573 250.452C263.109 249.989 263.645 249.485 264.155 248.966L264.928 248.205L265.666 247.411C267.646 245.278 269.451 242.988 271.062 240.565C271.469 239.963 271.839 239.334 272.226 238.715L272.804 237.788L273.329 236.831L274.382 234.912L275.324 232.934L275.797 231.946C275.948 231.615 276.078 231.271 276.22 230.935L277.05 228.909C277.196 228.576 277.321 228.229 277.435 227.882L277.792 226.845L278.505 224.769L278.523 224.739C278.654 224.36 278.914 224.038 279.257 223.831C279.601 223.623 280.006 223.542 280.403 223.601C281.127 223.706 281.956 223.791 282.744 223.858C283.531 223.924 284.343 223.97 285.144 223.992C286.743 224.047 288.343 224.019 289.939 223.908C293.079 223.737 296.174 223.079 299.112 221.958C300.513 221.401 301.834 220.66 303.04 219.756C303.626 219.311 304.174 218.82 304.681 218.288C304.939 218.013 305.188 217.715 305.44 217.43L306.153 216.53C307.985 214.063 309.252 211.224 309.864 208.213C310.478 205.24 310.306 202.159 309.365 199.272C308.409 196.434 306.575 193.973 304.128 192.245C302.885 191.375 301.539 190.664 300.12 190.127C298.644 189.545 297.133 189.058 295.595 188.67C292.461 187.895 289.272 187.357 286.058 187.06C282.821 186.737 279.568 186.618 276.317 186.704C273.128 186.749 269.953 187.134 266.846 187.853C266.129 188.035 265.428 188.272 264.748 188.563C264.589 188.625 264.436 188.7 264.288 188.785C264.141 188.868 264.004 188.923 263.833 189.038L262.867 189.642C261.582 190.538 260.368 191.532 259.237 192.616C258.084 193.692 256.98 194.885 255.909 196.102C254.838 197.319 253.791 198.573 252.757 199.858C248.63 204.974 244.544 210.364 239.476 214.976C236.947 217.317 234.163 219.368 231.178 221.09C228.139 222.805 224.881 224.096 221.492 224.929C221.062 225.015 220.615 224.933 220.244 224.697C219.873 224.462 219.608 224.093 219.503 223.666C219.398 223.24 219.463 222.79 219.682 222.41C219.902 222.03 220.26 221.75 220.682 221.628L220.706 221.636Z" fill="black"/>
<path d="M275.919 198.939C276.778 199.786 277.568 200.7 278.28 201.672C278.995 202.634 279.646 203.642 280.227 204.689C281.424 206.801 282.327 209.067 282.911 211.424C283.196 212.621 283.396 213.836 283.509 215.061C283.614 216.296 283.617 217.536 283.519 218.771C283.315 221.239 282.692 223.655 281.679 225.915C281.494 226.304 281.168 226.609 280.767 226.767C280.365 226.925 279.919 226.925 279.518 226.766C279.117 226.608 278.791 226.303 278.606 225.914C278.421 225.524 278.391 225.079 278.521 224.668L278.539 224.638C279.257 222.637 279.74 220.559 279.978 218.447C280.082 217.393 280.123 216.333 280.1 215.273C280.062 214.203 279.957 213.137 279.786 212.08C279.413 209.934 278.789 207.84 277.926 205.84C277.487 204.826 276.996 203.836 276.457 202.872C275.922 201.913 275.33 200.988 274.683 200.101L274.639 200.075C274.518 199.903 274.466 199.693 274.491 199.484C274.517 199.275 274.619 199.084 274.777 198.946C274.936 198.808 275.14 198.733 275.35 198.737C275.56 198.741 275.762 198.822 275.916 198.966L275.919 198.939Z" fill="black"/>
<path d="M202.773 132.927C208.353 137.263 208.953 145.89 207.432 157.505C216.828 185.895 212.24 210.873 204.61 227.664C203.887 229.275 203.129 230.813 202.353 232.265C201.927 233.07 201.496 233.844 201.06 234.597L182.583 242.98L158.758 253.788L152.897 256.447C157.69 245.473 161.838 234.23 165.319 222.772C170.428 205.916 174.846 185.711 173.237 169.477C172.618 163.193 173.504 153.317 173.926 149.124C174.701 141.346 177.372 130.398 189.184 129.808C195.427 129.522 199.807 130.617 202.773 132.927Z" fill="white"/>
<g opacity="0.25">
<path d="M202.772 132.929C208.352 137.265 208.952 145.891 207.431 157.506C217.726 188.614 211.24 215.622 202.369 232.276C204.921 220.788 209.919 192.995 202.421 178.361C196.145 166.098 192.034 161.555 179.444 155.444C175.272 153.418 199.079 162.518 202.33 146.499C203.507 140.709 203.821 136.35 202.772 132.929Z" fill="black"/>
</g>
<path d="M151.371 255.755C152.847 252.424 154.25 248.986 155.601 245.559C156.952 242.132 158.237 238.666 159.467 235.187C161.916 228.226 164.153 221.19 166.059 214.072C167.022 210.52 167.869 206.928 168.644 203.36C169.42 199.791 170.076 196.148 170.611 192.521C171.146 188.895 171.529 185.251 171.73 181.61C171.848 179.789 171.855 177.968 171.883 176.153L171.806 173.433C171.792 172.524 171.691 171.623 171.631 170.722L171.53 169.349C171.49 168.866 171.445 168.381 171.425 167.904C171.371 166.943 171.363 166.002 171.339 165.04C171.324 163.148 171.373 161.264 171.459 159.389C171.63 155.627 171.929 151.928 172.325 148.18C172.721 144.433 173.568 140.51 175.425 136.911C176.356 135.069 177.615 133.412 179.141 132.022C180.707 130.619 182.555 129.568 184.561 128.94C185.543 128.632 186.552 128.414 187.573 128.288C188.079 128.209 188.58 128.197 189.09 128.149L190.536 128.103C192.502 128.059 194.467 128.2 196.405 128.525C198.436 128.847 200.394 129.526 202.189 130.531C203.112 131.052 203.969 131.683 204.741 132.41C205.513 133.13 206.2 133.936 206.789 134.811C207.883 136.555 208.666 138.476 209.102 140.489C209.515 142.405 209.748 144.357 209.799 146.317C209.871 150.121 209.639 153.926 209.102 157.693L209.031 156.942L210.547 161.768L210.917 162.977C211.03 163.385 211.124 163.794 211.223 164.206L211.828 166.667L212.428 169.125L212.887 171.618C213.173 173.283 213.522 174.94 213.681 176.624C214.599 183.335 214.787 190.125 214.244 196.876C213.709 203.628 212.44 210.301 210.46 216.778L209.652 219.177C209.375 219.976 209.123 220.784 208.788 221.584C208.148 223.15 207.549 224.727 206.802 226.248L205.707 228.521L204.49 230.723L203.847 231.833C203.635 232.199 203.397 232.55 203.168 232.905C202.712 233.612 202.244 234.319 201.772 235.004C201.653 235.177 201.474 235.3 201.269 235.349C201.065 235.397 200.85 235.369 200.665 235.268C200.481 235.168 200.34 235.003 200.27 234.805C200.2 234.607 200.205 234.39 200.286 234.196L200.308 234.157C200.628 233.394 200.958 232.643 201.297 231.898L201.805 230.779L202.267 229.64L203.217 227.376L204.083 225.087C205.264 222.043 206.235 218.931 207.162 215.823C208.95 209.554 210.085 203.117 210.55 196.615L210.774 191.738L210.764 186.854C210.699 185.229 210.586 183.606 210.498 181.979C210.469 181.166 210.354 180.361 210.266 179.548L209.984 177.123C209.844 175.496 209.502 173.937 209.237 172.295L208.837 169.883L208.3 167.496L207.756 165.111C207.665 164.716 207.583 164.314 207.481 163.917L207.138 162.742L205.799 158.024L205.678 157.611L205.723 157.271C206.245 153.696 206.483 150.085 206.434 146.473C206.386 144.725 206.176 142.986 205.807 141.278C205.456 139.66 204.827 138.116 203.948 136.713C202.22 134.003 199.211 132.429 195.826 131.876C194.101 131.591 192.353 131.468 190.605 131.51L189.277 131.554C188.857 131.596 188.431 131.599 188.018 131.668C187.199 131.77 186.39 131.943 185.601 132.187C184.053 132.67 182.628 133.481 181.421 134.563C180.202 135.682 179.195 137.011 178.45 138.488C176.89 141.504 176.127 145.021 175.715 148.574C175.304 152.126 175.035 155.895 174.865 159.553C174.785 161.379 174.736 163.211 174.752 165.022C174.757 165.927 174.781 166.83 174.834 167.722C174.852 168.174 174.899 168.614 174.931 169.051L175.033 170.453C175.072 171.389 175.203 172.348 175.217 173.298L175.311 176.149C175.288 178.037 175.278 179.933 175.154 181.814C174.948 185.571 174.566 189.311 174.007 193.035C173.458 196.746 172.799 200.434 172.001 204.083C171.202 207.731 170.341 211.378 169.363 214.986C167.435 222.201 165.171 229.315 162.695 236.352C161.44 239.858 160.138 243.353 158.788 246.835C157.421 250.311 156.02 253.744 154.49 257.189C154.403 257.398 154.274 257.587 154.113 257.746C153.951 257.904 153.76 258.029 153.549 258.113C153.339 258.196 153.114 258.237 152.887 258.232C152.661 258.228 152.438 258.178 152.231 258.086C152.024 257.994 151.837 257.862 151.682 257.697C151.527 257.532 151.406 257.337 151.327 257.125C151.248 256.913 151.212 256.687 151.222 256.461C151.231 256.235 151.285 256.013 151.382 255.808L151.371 255.755Z" fill="black"/>
<g opacity="0.25">
<path d="M166.901 223.78C172.061 227.983 176.608 232.887 180.41 238.348C180.733 238.796 181.017 239.229 181.308 239.67C182.085 240.841 182.817 242.023 183.506 243.217C194.498 262.153 194.969 283.787 186.23 301.018C185.707 302.041 185.154 303.046 184.579 304.039L184.511 304.156C182.91 306.849 181.075 309.395 179.028 311.766C178.189 312.746 177.309 313.699 176.388 314.627C169.518 313.795 162.763 312.196 156.249 309.86L158.794 276.891L160.596 253.59L154.961 256.14C159.568 245.596 163.555 234.79 166.901 223.78Z" fill="black"/>
</g>
<path d="M105.256 342.73C116.823 343.919 128.5 342.094 139.151 337.433C141.396 336.445 143.588 335.341 145.719 334.126C146.768 333.53 147.81 332.895 148.85 332.235C151.919 330.272 154.827 328.067 157.547 325.643C159.864 323.607 162.039 321.414 164.058 319.082C166.441 316.312 168.6 313.357 170.513 310.244C171.204 309.121 171.863 307.973 172.495 306.822C183.925 285.608 184.05 259.069 170.525 237.375C150.607 205.409 108.63 196.077 76.7494 216.506C70.7621 220.341 65.4015 225.075 60.8562 230.542C60.3333 231.164 59.8228 231.804 59.3279 232.448C57.9979 234.172 56.7264 235.936 55.5949 237.769C50.2999 246.164 46.8436 255.587 45.4536 265.415C45.2293 266.968 45.0618 268.526 44.9511 270.089C44.78 272.44 44.7291 274.797 44.7986 277.153C45.1283 289.281 48.6897 301.102 55.1151 311.396C60.5166 320.108 67.8466 327.463 76.5399 332.896C85.2333 338.328 95.0577 341.693 105.256 342.73Z" fill="white"/>
<path d="M171.573 308.763C171.271 309.286 170.966 309.813 170.663 310.335C165.184 319.224 157.776 326.767 148.988 332.407C147.848 333.13 146.82 333.75 145.848 334.304C143.708 335.52 141.505 336.624 139.25 337.611C128.565 342.277 116.854 344.107 105.253 342.924C95.0243 341.897 85.1697 338.527 76.4535 333.076C67.7374 327.625 60.3941 320.24 54.9938 311.493C47.3079 299.104 43.7318 284.606 44.7763 270.068C44.8904 268.535 45.059 266.959 45.2795 265.383C46.6718 255.532 50.1364 246.088 55.4448 237.675C56.5981 235.854 57.8579 234.06 59.1897 232.343C59.7193 231.65 60.2197 231.027 60.7231 230.429C65.2757 224.945 70.6481 220.198 76.6502 216.355C84.2124 211.449 92.6809 208.107 101.556 206.525C110.432 204.944 119.535 205.155 128.329 207.147C137.035 209.09 145.265 212.755 152.532 217.928C159.8 223.101 165.959 229.675 170.647 237.264C183.725 258.211 184.471 284.905 172.62 306.887C172.286 307.513 171.934 308.141 171.573 308.763ZM105.275 342.553C116.814 343.73 128.461 341.912 139.09 337.274C141.335 336.295 143.525 335.195 145.651 333.98C146.625 333.434 147.648 332.811 148.777 332.098C157.525 326.492 164.896 318.986 170.341 310.137C171.028 309.023 171.689 307.871 172.318 306.724C184.107 284.851 183.356 258.305 170.354 237.449C165.69 229.9 159.563 223.361 152.333 218.217C145.103 213.072 136.916 209.426 128.256 207.494C119.505 205.513 110.446 205.304 101.614 206.88C92.7827 208.456 84.3567 211.785 76.8339 216.67C70.8621 220.495 65.5171 225.219 60.9876 230.675C60.4867 231.269 59.9889 231.887 59.4619 232.576C58.1394 234.287 56.8629 236.06 55.7365 237.884C50.4603 246.254 47.0174 255.646 45.6343 265.443C45.4146 267.007 45.2441 268.577 45.1325 270.106C44.9592 272.452 44.9047 274.805 44.9694 277.157C45.3153 289.248 48.8676 301.03 55.2627 311.3C60.6395 319.999 67.948 327.343 76.6212 332.763C85.2945 338.183 95.0993 341.533 105.275 342.553Z" fill="black"/>
<g opacity="0.25">
<path d="M170.495 237.357C184.023 259.053 183.903 285.595 172.465 306.804C171.839 307.965 171.178 309.105 170.483 310.226C166.951 315.962 162.601 321.153 157.57 325.633C154.849 328.065 151.939 330.278 148.869 332.252C147.832 332.907 146.79 333.542 145.741 334.138C143.611 335.355 141.418 336.459 139.172 337.445C130.992 341.021 122.182 342.936 113.253 343.081C104.325 343.225 95.4567 341.595 87.1622 338.286C100.719 339.331 114.277 336.288 126.084 329.552C127.133 328.956 128.176 328.321 129.215 327.661C137.988 322.046 145.378 314.521 150.833 305.649C151.534 304.505 152.196 303.363 152.817 302.222C164.256 281.014 164.376 254.472 150.85 232.771C143.319 220.616 132.087 211.195 118.806 205.894C129.287 206.71 139.429 209.984 148.409 215.451C157.39 220.917 164.956 228.422 170.495 237.357Z" fill="black"/>
</g>
<path d="M172.597 309.358C172.289 309.889 171.979 310.425 171.671 310.956C166.1 319.996 158.566 327.667 149.628 333.402C148.469 334.138 147.425 334.766 146.434 335.331C144.26 336.568 142.022 337.69 139.73 338.693C128.858 343.437 116.945 345.296 105.143 344.089C94.7354 343.05 84.7065 339.627 75.8348 334.086C66.963 328.545 59.487 321.035 53.9869 312.139C46.1582 299.529 42.521 284.768 43.5962 269.968C43.7099 268.406 43.8799 266.807 44.1086 265.207C45.526 255.195 49.0516 245.598 54.4525 237.05C55.6234 235.199 56.9034 233.37 58.2598 231.621C58.7918 230.923 59.3092 230.28 59.8245 229.672C64.4513 224.098 69.9123 219.272 76.0139 215.366C83.7073 210.376 92.3223 206.977 101.351 205.369C110.38 203.761 119.64 203.975 128.586 206.001C137.448 207.977 145.824 211.707 153.222 216.971C160.62 222.235 166.89 228.926 171.661 236.65C184.949 257.968 185.719 285.101 173.691 307.469C173.328 308.096 172.962 308.727 172.597 309.358ZM105.408 341.382C116.749 342.547 128.198 340.766 138.648 336.212C140.855 335.247 143.009 334.165 145.102 332.972C146.062 332.429 147.064 331.824 148.178 331.114C153.729 327.552 158.735 323.205 163.04 318.208C165.373 315.492 167.49 312.596 169.37 309.548C170.041 308.448 170.692 307.313 171.314 306.191C182.906 284.687 182.164 258.599 169.385 238.099C164.802 230.67 158.776 224.235 151.664 219.174C144.552 214.112 136.497 210.527 127.977 208.631C119.38 206.683 110.481 206.477 101.805 208.023C93.1286 209.569 84.8503 212.836 77.4583 217.633C71.5923 221.395 66.3432 226.041 61.8967 231.407C61.4009 231.992 60.9225 232.587 60.4049 233.27C59.0951 234.959 57.8623 236.716 56.7386 238.496C51.5404 246.725 48.1503 255.965 46.7926 265.604C46.5742 267.146 46.4102 268.685 46.3025 270.187C46.1317 272.491 46.0821 274.803 46.1538 277.112C46.4892 288.998 49.9783 300.582 56.2637 310.678C61.5436 319.221 68.7205 326.434 77.2377 331.758C85.7548 337.082 95.3834 340.373 105.377 341.376L105.408 341.382Z" fill="black"/>
<path d="M172.928 309.549C172.618 310.084 172.308 310.62 171.998 311.155C166.394 320.245 158.818 327.959 149.83 333.726C148.661 334.468 147.615 335.1 146.62 335.664C144.434 336.908 142.184 338.037 139.88 339.046C128.945 343.82 116.962 345.692 105.09 344.481C94.6221 343.439 84.5345 339.999 75.6105 334.428C66.6864 328.856 59.1662 321.304 53.6336 312.357C47.0493 301.786 43.3965 289.655 43.0499 277.209C42.9788 274.795 43.0303 272.38 43.2041 269.972C43.3184 268.399 43.4917 266.784 43.7185 265.177C45.1425 255.101 48.688 245.442 54.1209 236.839C55.2994 234.974 56.5888 233.14 57.9502 231.381C58.4872 230.675 59.0046 230.033 59.5225 229.42C64.1783 223.809 69.6722 218.95 75.8104 215.014C83.5477 210 92.2111 206.586 101.29 204.973C110.369 203.359 119.679 203.579 128.673 205.619C137.583 207.606 146.005 211.356 153.444 216.648C160.882 221.941 167.186 228.668 171.983 236.434C185.35 257.867 186.12 285.152 174.004 307.631C173.656 308.272 173.297 308.913 172.928 309.549ZM105.421 340.987C116.692 342.136 128.069 340.359 138.451 335.829C140.642 334.87 142.781 333.798 144.86 332.616C145.813 332.075 146.813 331.473 147.921 330.766C150.912 328.845 153.748 326.693 156.401 324.328C158.642 322.337 160.746 320.196 162.699 317.922C165.021 315.222 167.126 312.343 168.994 309.311C169.661 308.22 170.288 307.078 170.928 305.972C182.452 284.597 181.719 258.654 169.013 238.278C164.461 230.905 158.477 224.517 151.416 219.492C144.355 214.468 136.36 210.907 127.901 209.021C119.356 207.085 110.511 206.879 101.886 208.415C93.2615 209.951 85.0324 213.198 77.6842 217.965C71.8444 221.708 66.6175 226.33 62.188 231.667C61.6922 232.252 61.2181 232.849 60.7037 233.517C59.4033 235.2 58.1781 236.944 57.0595 238.715C51.9012 246.894 48.5358 256.074 47.1849 265.649C46.9672 267.18 46.8057 268.715 46.6987 270.205C45.6633 284.334 49.1292 298.429 56.5994 310.469C61.8481 318.962 68.9824 326.133 77.4491 331.425C85.9157 336.717 95.4871 339.989 105.421 340.987Z" fill="black"/>
<path d="M122.709 342.268C168.347 324.841 183.046 268.303 145.231 238.584C119.483 218.353 79.7509 228.386 61.8432 254.779C48.8157 273.98 44.3483 298.418 68.1413 326.686C68.1413 326.686 80.5996 337.534 92.1295 340.043C99.7716 341.618 107.523 342.608 115.315 343.004L122.709 342.268Z" fill="black"/>
<path d="M145.208 238.575C183.007 268.28 168.322 324.825 122.71 342.268L121.215 342.419C152.688 310.259 156.122 258.861 118.451 228.092C128.197 228.918 137.494 232.56 145.208 238.575Z" fill="black"/>
<path d="M165.888 316.694C163.836 320.224 161.503 323.582 158.91 326.735L158.722 326.929C155.93 329.421 152.945 331.687 149.794 333.707C148.626 334.449 147.579 335.081 146.584 335.645C144.398 336.889 142.148 338.018 139.844 339.027C128.909 343.801 116.927 345.673 105.054 344.462C94.5865 343.42 84.4988 339.98 75.5748 334.408C66.6508 328.837 59.1305 321.285 53.5979 312.338C47.0294 301.769 43.3888 289.646 43.0491 277.21L43.0464 277.034L43.073 276.857C44.6763 267.902 48.5097 258.912 54.4972 250.099C65.2592 234.238 83.4225 222.941 103.082 219.889C120.788 217.136 137.705 221.259 150.725 231.491C164.905 242.61 173.37 257.512 175.239 274.532C176.814 288.787 173.445 303.645 165.888 316.694ZM156.309 324.427C168.016 310.066 173.653 292.027 171.769 274.9C170.019 258.839 161.977 244.763 148.562 234.221C136.315 224.594 120.356 220.724 103.623 223.313C84.9018 226.222 67.6162 236.957 57.3867 252.04C51.7208 260.387 48.0781 268.877 46.5497 277.272C46.9127 289.029 50.3796 300.483 56.5986 310.47C61.8473 318.963 68.9816 326.134 77.4482 331.426C85.9149 336.718 95.4863 339.99 105.42 340.988C116.692 342.136 128.068 340.36 138.45 335.83C140.641 334.871 142.78 333.799 144.859 332.617C145.812 332.075 146.812 331.474 147.92 330.767C150.876 328.873 153.68 326.753 156.309 324.427Z" fill="black"/>
<path d="M159.906 313.194C152.009 326.831 139.173 337.817 123.314 343.889L123.099 343.969L115.251 344.755C107.357 344.359 99.505 343.354 91.7656 341.748C79.9351 339.176 67.5228 328.459 67.0079 327.992L66.8193 327.796C46.0153 303.085 43.8562 278.188 60.4106 253.79C70.0175 239.632 86.2257 229.552 103.77 226.828C119.585 224.358 134.679 228.052 146.302 237.19C163.144 250.432 171.007 269.94 167.855 290.72C166.638 298.644 163.941 306.268 159.906 313.194ZM122.283 340.537C144.875 331.828 161.007 312.558 164.391 290.203C167.35 270.7 159.96 252.385 144.153 239.958C133.303 231.424 119.152 227.997 104.317 230.302C87.6971 232.887 72.3804 242.402 63.3111 255.772C47.7633 278.683 49.8368 302.141 69.4062 325.468C70.5742 326.464 82.0999 336.081 92.5263 338.346C100.023 339.885 107.624 340.86 115.266 341.264L122.283 340.537Z" fill="black"/>
<path d="M159.999 211.691C171.461 218.626 176.947 231.309 172.246 240.029C167.545 248.749 154.452 250.196 142.99 243.262C142.92 243.222 142.842 243.176 142.768 243.133C131.458 236.177 126.077 223.583 130.737 214.933C134.37 208.199 143.007 205.799 152.05 208.263C154.845 209.032 157.521 210.186 159.999 211.691Z" fill="white"/>
<g opacity="0.25">
<path d="M159.997 211.691C171.459 218.625 176.945 231.309 172.244 240.029C167.543 248.749 154.45 250.196 142.988 243.261C142.918 243.221 142.84 243.176 142.766 243.133C144.456 242.885 146.422 242.093 147.117 239.838C148.337 235.893 144.394 225.075 144.394 225.075C144.394 225.075 147.658 217.761 152.032 208.259C154.834 209.028 157.514 210.183 159.997 211.691Z" fill="black"/>
</g>
<path d="M173.55 241.272C171.457 244.885 168.025 247.427 163.592 248.634C156.983 250.434 149.141 249.021 142.084 244.754C129.859 237.36 124.084 223.608 129.208 214.098C131.275 210.266 134.796 207.572 139.394 206.322C146.005 204.517 153.848 205.93 160.904 210.197C173.13 217.591 178.905 231.343 173.781 240.853L173.55 241.272ZM132.456 215.439L132.275 215.752C128.021 223.65 133.226 235.322 143.888 241.769C150.036 245.487 157.062 246.793 162.671 245.263C166.324 244.268 169.113 242.173 170.705 239.194C174.959 231.296 169.751 219.629 159.093 213.183C152.941 209.464 145.918 208.153 140.309 209.683C136.791 210.646 134.083 212.63 132.456 215.439Z" fill="black"/>
<path d="M164.899 211.893C156.358 205.536 145.54 205.613 140.736 212.066C135.932 218.519 138.961 228.903 147.502 235.26C156.042 241.618 166.86 241.541 171.664 235.088C176.468 228.635 173.44 218.251 164.899 211.893Z" fill="white"/>
<path d="M172.52 234.159C171.565 235.793 170.216 237.163 168.596 238.142C161.47 242.533 150.109 239.594 143.261 231.611C139.446 227.151 137.684 221.898 138.43 217.184C138.664 215.515 139.267 213.919 140.195 212.513C141.123 211.106 142.353 209.924 143.796 209.053C150.92 204.666 162.281 207.606 169.118 215.606C172.934 220.066 174.696 225.319 173.95 230.033C173.732 231.485 173.247 232.883 172.52 234.159ZM140.188 213.225C139.477 214.466 139.004 215.828 138.792 217.242C138.071 221.831 139.806 226.981 143.548 231.358C150.276 239.225 161.429 242.132 168.403 237.833C169.801 236.99 170.993 235.845 171.892 234.484C172.792 233.122 173.376 231.576 173.603 229.96C174.319 225.368 172.589 220.221 168.842 215.842C162.114 207.975 150.965 205.07 143.987 209.367C142.419 210.31 141.111 211.629 140.182 213.204L140.188 213.225Z" fill="black"/>
<g opacity="0.25">
<path d="M156.095 239.613C152.577 238.503 149.382 236.553 146.786 233.932C154.961 235.665 161.472 231.081 161.63 223.155C161.733 218.034 159.16 212.695 155.13 208.686C155.649 208.795 156.155 208.925 156.704 209.092C165.608 211.795 172.676 220.813 172.508 229.239C172.34 237.665 164.986 242.308 156.095 239.613Z" fill="black"/>
</g>
<path d="M174.013 234.75C172.47 237.414 169.929 239.292 166.624 240.198C161.288 241.666 154.536 240.36 148.562 236.715C138.481 230.569 133.488 219.555 137.381 212.14C138.9 209.276 141.52 207.263 144.978 206.313C150.311 204.848 157.066 206.15 163.04 209.795C173.118 215.946 178.136 226.968 174.221 234.37L174.013 234.75ZM140.607 213.52L140.461 213.772C137.4 219.559 141.844 228.528 150.374 233.735C155.531 236.884 161.26 238.039 165.695 236.829C168.198 236.144 170.091 234.723 171.133 232.733C174.193 226.946 169.753 217.98 161.219 212.77C156.06 209.625 150.333 208.466 145.898 209.677C144.805 209.936 143.775 210.409 142.867 211.069C141.959 211.728 141.191 212.561 140.607 213.52Z" fill="black"/>
<g opacity="0.5">
<path d="M80.9062 247.967C80.9062 247.967 65.0062 274.901 69.9889 299.13L70.0047 299.203C71.0525 304.289 73.4416 309.003 76.9244 312.856C80.4505 316.791 84.4935 320.229 88.943 323.078C99.6844 330.183 106.057 331.472 106.057 331.472C96.3073 333.925 87.5749 333.165 78.5663 327.337C77.6793 326.759 76.7889 326.127 75.8918 325.457C75.6848 325.302 75.489 325.148 75.2827 324.982C73.1059 323.084 71.046 321.057 69.1146 318.91C62.2672 311.299 54.6215 299.412 56.5163 285.584C60.0447 259.724 80.3653 246.34 80.9062 247.967Z" fill="white"/>
</g>
<g opacity="0.5">
<path d="M130.13 249.285C131.684 244.446 128.436 239.075 122.876 237.288C117.315 235.502 111.548 237.977 109.994 242.816C108.44 247.655 111.688 253.026 117.249 254.813C122.809 256.599 128.577 254.124 130.13 249.285Z" fill="white"/>
</g>
<g opacity="0.5">
<path d="M142.572 253.031C143.025 250.982 141.483 248.899 139.127 248.377C136.771 247.856 134.494 249.094 134.041 251.142C133.588 253.191 135.13 255.274 137.486 255.796C139.842 256.317 142.119 255.079 142.572 253.031Z" fill="white"/>
</g>
<path d="M173.583 175.567C173.843 173.712 172.773 170.789 172.225 169.937C171.09 168.181 169.805 165.85 168.053 163.02C165.043 158.173 162.587 148.704 166.617 146.415C173.078 142.772 175.127 154.099 176.455 154.769C177.782 155.439 185.711 155.368 190.542 162.072L173.583 175.567Z" fill="white"/>
<path d="M171.9 175.33C171.939 174.851 171.911 174.369 171.817 173.898C171.713 173.336 171.569 172.782 171.386 172.241C171.294 171.967 171.192 171.693 171.085 171.445C170.999 171.227 170.895 171.017 170.774 170.817C170.399 170.239 170.051 169.666 169.707 169.094L167.697 165.704L166.683 164.041C166.32 163.453 165.96 162.808 165.646 162.185C165.023 160.934 164.492 159.639 164.057 158.31C163.608 156.98 163.267 155.615 163.035 154.23C162.774 152.772 162.723 151.283 162.883 149.811C162.98 148.982 163.2 148.173 163.536 147.409C163.921 146.527 164.535 145.762 165.313 145.194C165.68 144.942 166.069 144.721 166.474 144.535C166.876 144.35 167.294 144.203 167.723 144.096C168.67 143.86 169.663 143.877 170.602 144.146C171.487 144.412 172.302 144.873 172.984 145.497C173.578 146.035 174.105 146.643 174.553 147.307C175.344 148.498 176.021 149.76 176.575 151.077L177.345 152.842C177.434 153.052 177.537 153.256 177.654 153.452C177.681 153.496 177.654 153.452 177.611 153.427C177.56 153.373 177.504 153.325 177.444 153.283C177.404 153.258 177.364 153.234 177.322 153.213C177.278 153.187 177.322 153.213 177.3 153.2C177.3 153.2 177.322 153.213 177.348 153.228L177.422 153.271C177.926 153.405 178.602 153.524 179.258 153.665C179.915 153.807 180.599 153.971 181.293 154.169C182.665 154.542 183.992 155.061 185.253 155.718C187.812 157.036 189.909 159.104 191.261 161.645C191.35 161.823 191.376 162.027 191.332 162.222C191.288 162.416 191.178 162.589 191.021 162.712C190.863 162.834 190.668 162.898 190.469 162.892C190.27 162.887 190.078 162.812 189.928 162.682L189.875 162.651C188.987 161.801 188.028 161.027 187.011 160.336C186.765 160.162 186.511 160.001 186.249 159.854C185.998 159.691 185.74 159.541 185.474 159.405L184.68 158.927L183.856 158.572C182.737 158.111 181.585 157.734 180.409 157.443C179.814 157.296 179.213 157.168 178.586 157.056C177.96 156.943 177.353 156.865 176.555 156.676L176.402 156.639C176.358 156.614 176.311 156.616 176.222 156.588C176.134 156.56 175.916 156.474 175.746 156.405C175.704 156.385 175.663 156.361 175.624 156.335C175.545 156.294 175.468 156.25 175.394 156.201C175.264 156.114 175.145 156.014 175.038 155.902C174.914 155.772 174.8 155.634 174.695 155.488C174.456 155.131 174.246 154.754 174.067 154.363C173.76 153.708 173.499 153.115 173.239 152.529C172.781 151.416 172.219 150.349 171.56 149.341C171.103 148.552 170.404 147.931 169.567 147.57C169.229 147.472 168.872 147.465 168.531 147.552C168.316 147.606 168.106 147.679 167.904 147.77C167.71 147.856 167.522 147.955 167.342 148.067C166.838 148.386 166.436 149.211 166.303 150.274C166.178 151.416 166.215 152.57 166.411 153.703C166.808 156.129 167.57 158.481 168.67 160.68C168.937 161.224 169.224 161.733 169.561 162.265L170.597 163.97L172.623 167.353C172.955 167.905 173.289 168.453 173.628 168.982C173.855 169.34 174.048 169.719 174.206 170.113C174.359 170.463 174.484 170.809 174.603 171.156C174.842 171.86 175.03 172.581 175.163 173.312C175.322 174.133 175.357 174.972 175.268 175.803C175.248 176.031 175.183 176.252 175.077 176.454C174.97 176.656 174.824 176.835 174.646 176.979C174.469 177.123 174.265 177.23 174.045 177.293C173.826 177.357 173.596 177.375 173.369 177.348C173.142 177.32 172.923 177.247 172.725 177.134C172.527 177.02 172.354 176.867 172.216 176.685C172.078 176.502 171.978 176.294 171.923 176.073C171.867 175.851 171.856 175.621 171.892 175.395L171.9 175.33Z" fill="black"/>
<path d="M198.073 324.494L233.713 310.83L242.398 289.114L246.993 277.623C246.993 277.623 246.147 267.493 245.91 265.03C245.591 261.694 241.619 261.854 239.204 262.659C235.346 263.933 231.388 264.885 227.372 265.504C221.356 266.451 215.954 266.649 211.491 266.983C209.707 267.112 208.017 267.831 206.688 269.026C205.358 270.222 204.465 271.826 204.148 273.586C200.3 295.196 194.199 315.786 194.199 315.786L198.073 324.494Z" fill="white"/>
<path d="M235.004 311.595C234.832 311.89 234.564 312.119 234.245 312.242L198.6 325.904C198.242 326.038 197.846 326.032 197.492 325.885C197.139 325.739 196.854 325.463 196.696 325.115L192.825 316.402C192.682 316.077 192.659 315.711 192.759 315.37C192.819 315.166 198.876 294.603 202.67 273.328C203.044 271.238 204.104 269.333 205.682 267.913C207.259 266.493 209.265 265.638 211.383 265.484C212.361 265.411 213.389 265.343 214.46 265.272C221.194 264.833 229.573 264.285 238.735 261.23C240.731 260.566 243.546 260.295 245.466 261.54C246.027 261.909 246.495 262.403 246.832 262.984C247.169 263.564 247.366 264.216 247.408 264.886C247.644 267.319 248.481 277.095 248.492 277.497C248.51 277.728 248.475 277.96 248.39 278.176L235.099 311.4C235.072 311.467 235.04 311.532 235.004 311.595ZM198.864 322.586L232.56 309.679L245.477 277.39C245.332 275.562 244.635 267.333 244.422 265.151C244.422 264.929 244.368 264.712 244.264 264.516C244.159 264.321 244.009 264.155 243.825 264.032C242.916 263.442 241.051 263.588 239.679 264.05C230.143 267.248 221.559 267.789 214.653 268.244C213.596 268.312 212.575 268.377 211.618 268.463C210.166 268.565 208.789 269.149 207.707 270.122C206.624 271.094 205.897 272.4 205.64 273.833C202.161 293.36 196.774 312.305 195.806 315.663L198.864 322.586Z" fill="black"/>
<g opacity="0.3">
<path d="M242.4 289.11L246.995 277.62C246.995 277.62 246.147 267.494 245.91 265.031C245.672 262.568 243.289 261.973 241.118 262.256C240.471 262.333 239.832 262.476 239.214 262.682C235.355 263.957 231.397 264.908 227.381 265.528C228.741 266.444 229.101 269.588 226.785 272.695C225.724 274.104 217.466 275.88 215.823 278.214C211.033 284.999 233.395 288.559 242.4 289.11Z" fill="black"/>
</g>
<path d="M213.101 220.331C215.565 219.311 218.495 219.635 220.413 221.124C244.57 239.945 241.512 269.873 233.373 272.608C225.906 275.116 222.905 269.32 222.905 269.32C222.905 269.32 228.546 247.998 209.762 228.538C207.325 226.016 208.474 222.234 212.132 220.718L213.101 220.331Z" fill="white"/>
<g opacity="0.3">
<path d="M233.353 272.602C241.494 269.863 244.553 239.935 220.393 221.118C218.478 219.625 215.548 219.3 213.081 220.325L212.135 220.714C210.934 221.18 209.909 222.009 209.203 223.085C210.822 223.011 212.418 223.498 213.721 224.464C234.426 240.588 235.143 264.871 229.8 273.213C231.01 273.205 232.21 272.998 233.353 272.602Z" fill="black"/>
</g>
<path d="M238.213 270.288C237.056 272.286 235.591 273.641 233.906 274.189C226.916 276.537 222.656 272.523 221.388 270.074L221.085 269.491L221.255 268.857C221.308 268.655 226.395 248.199 208.549 229.701C207.849 229.002 207.333 228.14 207.047 227.193C206.761 226.247 206.714 225.244 206.91 224.274C207.198 223.114 207.763 222.041 208.556 221.147C209.349 220.252 210.348 219.564 211.466 219.139L212.417 218.742C215.418 217.498 219.029 217.92 221.422 219.765C237.587 232.359 242.656 250.743 240.506 263.376C240.154 265.797 239.378 268.137 238.213 270.288ZM224.695 269.023C225.516 270.156 227.941 272.648 232.805 270.999C234.716 270.361 236.43 267.15 237.163 262.83C239.147 251.188 234.403 234.201 219.344 222.469C217.917 221.358 215.609 221.126 213.732 221.905L212.781 222.302C211.411 222.869 210.462 223.866 210.221 224.994C210.135 225.422 210.159 225.864 210.29 226.28C210.422 226.696 210.657 227.072 210.973 227.372C228.469 245.481 225.555 264.946 224.695 269.023Z" fill="black"/>
<path d="M228.244 312.704C231.302 312.184 235.123 311.873 235.123 311.873C235.123 311.873 234.662 305.589 234.575 305.085C234.291 303.426 230.514 302.687 226.139 303.432C221.763 304.178 218.446 306.129 218.73 307.788C218.936 309 219.253 314.056 219.253 314.056C219.253 314.056 227.061 312.897 228.244 312.704Z" fill="white"/>
<path d="M235.086 311.519C234.708 309.308 230.854 308.12 226.479 308.866C222.103 309.612 218.862 312.009 219.24 314.22C219.618 316.43 223.471 317.618 227.847 316.872C232.222 316.126 235.463 313.73 235.086 311.519Z" fill="white"/>
<path d="M199.833 324.397C203.144 323.64 208.413 322.447 213.891 321.032C221.728 319 229.987 316.51 233.511 314.161C239.64 310.076 245.048 290.503 247.011 277.593C247.525 274.204 244.645 271.333 241.373 272.362C236.022 274.049 230.82 275.327 226.311 276.274C222.043 277.175 218.4 277.781 215.824 278.161C214.669 278.332 213.602 278.876 212.785 279.709C211.968 280.543 211.447 281.622 211.3 282.78C208.561 303.288 201.673 316.538 198.183 322.163C198.033 322.418 197.962 322.711 197.977 323.007C197.993 323.302 198.095 323.586 198.27 323.824C198.446 324.062 198.688 324.243 198.966 324.345C199.243 324.447 199.545 324.465 199.833 324.397Z" fill="white"/>
<g opacity="0.3">
<path d="M224.479 317.194C227.335 316.345 230.118 315.265 232.799 313.965C233.25 313.734 233.687 313.479 234.109 313.2C240.04 309.245 245.282 290.291 247.181 277.791C247.679 274.51 244.88 271.72 241.723 272.723C236.534 274.37 231.503 275.596 227.15 276.494C230.382 278.104 236.955 282.975 235.999 295.794C235.741 299.133 234.392 302.265 232.367 305.179C231.039 304.288 228.331 303.802 225.263 304.019C220.971 304.318 217.592 305.885 217.709 307.511C217.779 308.505 217.666 312.085 217.631 313.239C217.598 313.413 217.587 313.591 217.599 313.767C217.677 314.917 218.737 315.88 220.346 316.486C221.671 316.963 223.071 317.202 224.479 317.194Z" fill="black"/>
</g>
<g opacity="0.3">
<path d="M230.85 314.761C229.402 314.918 227.938 314.822 226.524 314.477C224.83 315.915 223.12 317.25 221.489 318.439C224.668 317.269 227.911 316.018 230.85 314.761Z" fill="black"/>
</g>
<path d="M238.74 310.167C237.361 312.549 235.886 314.393 234.325 315.431C228.309 319.441 209.836 323.669 200.958 325.702L200.153 325.887C199.573 326.017 198.969 325.973 198.414 325.762C197.859 325.55 197.379 325.179 197.034 324.696C196.688 324.214 196.493 323.64 196.472 323.046C196.451 322.453 196.606 321.867 196.916 321.361C200.591 315.448 207.139 302.553 209.823 282.572C210.024 281.102 210.695 279.737 211.736 278.68C212.777 277.623 214.132 276.931 215.598 276.707C224.171 275.436 232.633 273.514 240.914 270.959C241.845 270.65 242.841 270.588 243.804 270.779C244.767 270.971 245.663 271.41 246.405 272.052C247.217 272.759 247.834 273.663 248.197 274.676C248.561 275.69 248.658 276.779 248.48 277.841C246.999 287.589 243.473 301.995 238.74 310.167ZM199.462 322.94L200.289 322.779C208.327 320.952 227.107 316.646 232.665 312.934C237.795 309.509 243.324 291.827 245.517 277.393C245.616 276.834 245.57 276.259 245.384 275.722C245.198 275.186 244.877 274.706 244.453 274.329C244.097 274.018 243.665 273.807 243.201 273.717C242.738 273.627 242.258 273.661 241.812 273.817C233.382 276.418 224.766 278.376 216.039 279.672C215.215 279.797 214.453 280.186 213.869 280.78C213.284 281.375 212.909 282.143 212.798 282.969C210.037 303.505 203.253 316.827 199.462 322.94Z" fill="black"/>
<path d="M228.244 312.704C231.302 312.184 235.123 311.873 235.123 311.873C235.123 311.873 234.662 305.589 234.575 305.085C234.291 303.426 230.514 302.687 226.139 303.432C221.763 304.178 218.446 306.129 218.73 307.788C218.936 309 219.253 314.056 219.253 314.056C219.253 314.056 227.061 312.897 228.244 312.704Z" fill="#22A7F0"/>
<g opacity="0.8">
<path d="M219.252 314.051C219.252 314.051 227.062 312.899 228.24 312.703C231.289 312.178 235.119 311.873 235.119 311.873C235.119 311.873 235.104 311.748 235.092 311.537C233.845 311.681 232.321 311.863 230.969 312.098C229.789 312.298 221.976 313.454 221.976 313.454C221.976 313.454 221.659 308.398 221.456 307.181C221.223 305.837 223.367 304.294 226.532 303.359L226.133 303.424C221.755 304.174 218.44 306.121 218.722 307.784C218.929 309.003 219.252 314.051 219.252 314.051Z" fill="white"/>
</g>
<g opacity="0.3">
<path d="M229.694 312.48C232.386 312.091 235.123 311.874 235.123 311.874C235.123 311.874 234.658 305.587 234.571 305.083C234.287 303.424 230.51 302.685 226.137 303.426C224.777 303.651 223.445 304.024 222.166 304.539C225.919 304.154 228.936 304.901 229.201 306.38C229.265 306.783 229.584 310.812 229.694 312.48Z" fill="black"/>
</g>
<path d="M236.199 312.496C236.097 312.667 235.956 312.811 235.787 312.915C235.618 313.02 235.427 313.082 235.228 313.097C235.202 313.082 231.419 313.409 228.459 313.91C227.283 314.112 219.764 315.224 219.441 315.269C219.271 315.295 219.097 315.285 218.931 315.24C218.765 315.195 218.61 315.115 218.476 315.007C218.341 314.897 218.23 314.761 218.151 314.607C218.071 314.453 218.024 314.284 218.012 314.11C217.926 312.723 217.667 308.922 217.485 307.991C216.988 305.081 221.505 302.946 225.915 302.192C227.963 301.808 230.064 301.784 232.12 302.123C235.008 302.69 235.643 304.075 235.793 304.871C235.883 305.389 236.246 310.285 236.356 311.773C236.377 312.025 236.322 312.277 236.199 312.496ZM220.419 312.626C222.704 312.286 227.189 311.622 228.059 311.486C230.087 311.137 232.418 310.889 233.818 310.751C233.62 308.16 233.422 305.62 233.374 305.302C233.156 304.804 230.51 303.969 226.378 304.676C222.247 305.382 220.007 307.009 219.969 307.568C220.106 308.456 220.295 311.002 220.406 312.618L220.419 312.626Z" fill="black"/>
<path d="M235.086 311.519C234.708 309.308 230.854 308.12 226.479 308.866C222.103 309.612 218.862 312.009 219.24 314.22C219.618 316.43 223.471 317.618 227.847 316.872C232.222 316.126 235.463 313.73 235.086 311.519Z" fill="#22A7F0"/>
<g opacity="0.8">
<path d="M227.852 316.872C228.137 316.822 228.417 316.769 228.687 316.705C225.297 316.794 222.613 315.664 222.298 313.836C221.947 311.772 224.758 309.539 228.704 308.65C227.961 308.672 227.22 308.746 226.488 308.873C222.112 309.618 218.854 312.01 219.246 314.226C219.638 316.441 223.474 317.622 227.852 316.872Z" fill="white"/>
</g>
<g opacity="0.3">
<path d="M228.224 316.804C232.409 315.995 235.453 313.67 235.091 311.524C234.728 309.378 230.863 308.128 226.49 308.869C224.476 309.164 222.562 309.937 220.909 311.125L221.273 311.058C225.651 310.319 229.502 311.503 229.879 313.715C230.06 314.768 229.413 315.864 228.224 316.804Z" fill="black"/>
</g>
<path d="M235.823 313.808C234.67 315.798 231.792 317.474 228.064 318.106C222.843 318.996 218.527 317.42 218.014 314.438C217.502 311.455 221.057 308.531 226.278 307.641C231.499 306.752 235.813 308.331 236.325 311.314C236.461 312.179 236.282 313.064 235.823 313.808ZM220.674 313.21C220.516 313.449 220.445 313.734 220.473 314.019C220.668 315.149 223.555 316.35 227.641 315.652C231.727 314.954 234.051 312.87 233.857 311.739C233.662 310.609 230.779 309.411 226.693 310.108C223.462 310.656 221.332 312.074 220.674 313.21Z" fill="black"/>
<path d="M244.83 292.971C244.754 293.102 244.652 293.216 244.53 293.307C244.409 293.397 244.27 293.462 244.123 293.498L231.715 296.504C230.601 296.765 229.432 296.639 228.4 296.147C227.368 295.655 226.534 294.826 226.035 293.797C225.787 293.275 225.38 292.845 224.873 292.568C224.366 292.291 223.784 292.182 223.211 292.254L209.672 293.949C209.526 293.967 209.378 293.957 209.235 293.918C209.093 293.879 208.96 293.812 208.844 293.722C208.727 293.632 208.63 293.519 208.557 293.391C208.484 293.263 208.437 293.122 208.418 292.976C208.4 292.83 208.41 292.681 208.449 292.539C208.488 292.397 208.555 292.264 208.645 292.147C208.735 292.031 208.848 291.934 208.976 291.861C209.104 291.788 209.245 291.741 209.391 291.722L222.928 290.032C223.969 289.9 225.025 290.1 225.946 290.603C226.867 291.106 227.606 291.887 228.058 292.834C228.332 293.402 228.792 293.858 229.361 294.129C229.93 294.399 230.575 294.467 231.187 294.321L243.596 291.315C243.81 291.26 244.036 291.271 244.244 291.345C244.453 291.419 244.635 291.553 244.767 291.73C244.899 291.908 244.975 292.12 244.986 292.341C244.998 292.562 244.943 292.781 244.83 292.971Z" fill="black"/>
<path d="M274.083 242.144C273.863 242.514 273.512 242.787 273.099 242.907C272.687 243.028 272.244 242.989 271.859 242.796C271.475 242.604 271.177 242.273 271.027 241.87C270.876 241.467 270.884 241.023 271.048 240.625C272.136 238.063 272.534 231.601 268.978 225.117C265.95 219.608 259.056 212.499 243.392 209.899C242.963 209.808 242.586 209.555 242.339 209.193C242.093 208.831 241.995 208.388 242.067 207.956C242.138 207.524 242.374 207.137 242.725 206.874C243.075 206.611 243.514 206.494 243.948 206.547C260.957 209.367 268.569 217.316 271.951 223.478C276.113 231.046 275.549 238.668 274.158 241.944C274.138 242.012 274.113 242.079 274.083 242.144Z" fill="black"/>
<path d="M213.461 201.992C213.353 202.178 213.211 202.342 213.042 202.476C204.954 208.839 194.978 210.266 184.203 206.584C179.229 204.869 174.568 202.351 170.407 199.13C170.059 198.844 169.838 198.432 169.794 197.984C169.75 197.536 169.886 197.088 170.171 196.74C170.457 196.392 170.869 196.172 171.317 196.128C171.766 196.084 172.213 196.22 172.561 196.505C176.444 199.473 180.777 201.801 185.394 203.402C195.115 206.705 203.718 205.49 210.937 199.803C211.247 199.559 211.634 199.43 212.029 199.44C212.424 199.449 212.804 199.596 213.103 199.855C213.402 200.114 213.601 200.47 213.667 200.86C213.732 201.25 213.659 201.65 213.461 201.992Z" fill="black"/>
<path d="M208.487 273.871C208.12 273.931 210.259 278.514 210.334 281.458C210.366 282.989 215.456 279.192 213.658 278.732C211.458 278.19 208.856 273.805 208.487 273.871Z" fill="black"/>
</svg>
