<svg width="983" height="239" viewBox="0 0 983 239" fill="none" xmlns="http://www.w3.org/2000/svg">
<path d="M-513 237L-512.986 238L-513 237ZM645.5 193.5L645.333 192.514L645.5 193.5ZM982.509 43.8606C982.985 43.5793 983.142 42.966 982.861 42.4907C982.579 42.0154 981.966 41.8581 981.491 42.1394L982.509 43.8606ZM-1217 1L-1217.97 1.24016C-1217.3 3.97048 -1215.83 6.83215 -1213.68 9.80184L-1212.87 9.21498L-1212.06 8.62813C-1214.11 5.78963 -1215.43 3.16225 -1216.03 0.759844L-1217 1ZM-1199.56 22.6466L-1200.2 23.4191C-1195.85 26.9925 -1190.78 30.7115 -1185.04 34.5536L-1184.49 33.7227L-1183.93 32.8919C-1189.62 29.0772 -1194.64 25.397 -1198.93 21.8742L-1199.56 22.6466ZM-1168.49 43.7567L-1169 44.6173C-1163.85 47.662 -1158.36 50.7679 -1152.54 53.9255L-1152.06 53.0465L-1151.58 52.1676C-1157.38 49.0204 -1162.86 45.9267 -1167.98 42.8962L-1168.49 43.7567ZM-1135.37 61.7958L-1135.82 62.6875C-1130.39 65.4426 -1124.75 68.229 -1118.9 71.0406L-1118.47 70.1393L-1118.03 69.2381C-1123.87 66.4322 -1129.5 63.6522 -1134.92 60.9041L-1135.37 61.7958ZM-1101.38 78.1655L-1101.79 79.0742C-1096.18 81.6504 -1090.42 84.2428 -1084.51 86.8469L-1084.11 85.9319L-1083.71 85.017C-1089.6 82.4167 -1095.36 79.8285 -1100.96 77.2567L-1101.38 78.1655ZM-1066.81 93.425L-1067.2 94.3452C-1061.53 96.7578 -1055.75 99.177 -1049.86 101.599L-1049.48 100.675L-1049.1 99.7498C-1054.98 97.3305 -1060.75 94.9143 -1066.42 92.5048L-1066.81 93.425ZM-1031.99 107.765L-1032.36 108.694C-1026.57 111.009 -1020.68 113.324 -1014.73 115.636L-1014.36 114.704L-1014 113.772C-1019.96 111.462 -1025.83 109.149 -1031.62 106.837L-1031.99 107.765ZM-996.835 121.413L-997.188 122.349C-991.356 124.55 -985.462 126.747 -979.51 128.935L-979.165 127.996L-978.82 127.058C-984.766 124.871 -990.655 122.677 -996.481 120.478L-996.835 121.413ZM-961.379 134.452L-961.717 135.393C-955.853 137.494 -949.943 139.585 -943.992 141.664L-943.662 140.719L-943.332 139.775C-949.278 137.698 -955.183 135.609 -961.042 133.51L-961.379 134.452ZM-925.828 146.871L-926.15 147.818C-920.216 149.839 -914.248 151.846 -908.252 153.837L-907.937 152.888L-907.622 151.939C-913.612 149.949 -919.576 147.944 -925.506 145.924L-925.828 146.871ZM-890.043 158.754L-890.35 159.705C-884.376 161.639 -878.381 163.554 -872.37 165.449L-872.069 164.496L-871.769 163.542C-877.775 161.648 -883.765 159.734 -889.735 157.803L-890.043 158.754ZM-854.07 170.095L-854.364 171.051C-848.352 172.896 -842.331 174.718 -836.305 176.516L-836.019 175.558L-835.733 174.6C-841.754 172.803 -847.77 170.982 -853.777 169.139L-854.07 170.095ZM-817.94 180.876L-818.218 181.837C-812.165 183.591 -806.114 185.319 -800.069 187.018L-799.799 186.055L-799.528 185.093C-805.567 183.395 -811.614 181.669 -817.662 179.916L-817.94 180.876ZM-781.621 191.083L-781.883 192.048C-775.804 193.701 -769.738 195.323 -763.691 196.911L-763.437 195.944L-763.183 194.976C-769.224 193.39 -775.285 191.77 -781.358 190.118L-781.621 191.083ZM-745.138 200.659L-745.383 201.629C-739.255 203.178 -733.154 204.689 -727.084 206.16L-726.849 205.188L-726.613 204.216C-732.676 202.747 -738.771 201.237 -744.893 199.69L-745.138 200.659ZM-708.527 209.528L-708.753 210.502C-702.557 211.936 -696.403 213.324 -690.296 214.664L-690.082 213.687L-689.868 212.71C-695.966 211.372 -702.114 209.985 -708.302 208.554L-708.527 209.528ZM-671.666 217.612L-671.869 218.591C-665.655 219.875 -659.5 221.105 -653.412 222.278L-653.223 221.296L-653.034 220.314C-659.113 219.143 -665.259 217.915 -671.464 216.632L-671.666 217.612ZM-634.605 224.739L-634.78 225.724C-628.489 226.837 -622.281 227.883 -616.166 228.859L-616.009 227.871L-615.851 226.883C-621.955 225.91 -628.151 224.866 -634.431 223.754L-634.605 224.739ZM-597.441 230.653L-597.579 231.643C-591.218 232.531 -584.975 233.334 -578.86 234.046L-578.744 233.053L-578.628 232.06C-584.727 231.349 -590.956 230.549 -597.303 229.662L-597.441 230.653ZM-559.915 234.993L-560.003 235.99C-553.535 236.564 -547.238 237.022 -541.13 237.358L-541.075 236.359L-541.02 235.361C-547.104 235.026 -553.378 234.57 -559.826 233.997L-559.915 234.993ZM-522.221 237.007L-522.233 238.007C-519.087 238.044 -516.004 238.042 -512.986 238L-513 237L-513.014 236C-516.014 236.042 -519.08 236.044 -522.209 236.007L-522.221 237.007ZM-513 237L-512.986 238C-509.858 237.956 -506.748 237.906 -503.655 237.849L-503.674 236.85L-503.692 235.85C-506.781 235.906 -509.889 235.956 -513.014 236L-513 237ZM-485.284 236.436L-485.257 237.436C-479.017 237.268 -472.851 237.076 -466.757 236.859L-466.793 235.86L-466.828 234.861C-472.916 235.077 -479.076 235.269 -485.311 235.436L-485.284 236.436ZM-448.311 235.121L-448.267 236.12C-442.044 235.843 -435.898 235.541 -429.829 235.216L-429.882 234.217L-429.936 233.219C-435.999 233.544 -442.139 233.845 -448.355 234.122L-448.311 235.121ZM-411.495 233.148L-411.433 234.146C-405.212 233.755 -399.074 233.34 -393.014 232.903L-393.086 231.905L-393.158 230.908C-399.211 231.345 -405.344 231.759 -411.558 232.15L-411.495 233.148ZM-374.638 230.487L-374.557 231.484C-368.332 230.975 -362.193 230.444 -356.136 229.892L-356.227 228.896L-356.318 227.9C-362.368 228.452 -368.501 228.983 -374.719 229.49L-374.638 230.487ZM-337.847 227.133L-337.747 228.128C-331.538 227.502 -325.418 226.856 -319.383 226.191L-319.492 225.197L-319.602 224.203C-325.631 224.868 -331.745 225.513 -337.947 226.138L-337.847 227.133ZM-301.159 223.092L-301.04 224.085C-294.842 223.344 -288.735 222.585 -282.716 221.811L-282.844 220.819L-282.972 219.828C-288.984 220.601 -295.085 221.359 -301.277 222.099L-301.159 223.092ZM-264.547 218.386L-264.411 219.376C-258.222 218.526 -252.127 217.662 -246.122 216.788L-246.266 215.798L-246.411 214.809C-252.41 215.682 -258.499 216.546 -264.683 217.395L-264.547 218.386ZM-228.004 213.068L-227.852 214.056C-221.674 213.109 -215.593 212.155 -209.602 211.196L-209.76 210.209L-209.918 209.221C-215.905 210.179 -221.982 211.133 -228.155 212.079L-228.004 213.068ZM-191.535 207.239L-191.371 208.226C-185.208 207.205 -179.141 206.184 -173.163 205.168L-173.33 204.182L-173.498 203.196C-179.474 204.212 -185.538 205.232 -191.698 206.253L-191.535 207.239ZM-155.146 201.066L-154.976 202.052C-148.831 200.992 -142.777 199.943 -136.81 198.911L-136.981 197.926L-137.151 196.941C-143.119 197.973 -149.171 199.021 -155.316 200.081L-155.146 201.066ZM-118.766 194.79L-118.597 195.776C-112.442 194.724 -106.374 193.697 -100.384 192.703L-100.548 191.717L-100.712 190.73C-106.705 191.725 -112.777 192.752 -118.934 193.804L-118.766 194.79ZM-82.3365 188.764L-82.1808 189.752C-76.0303 188.782 -69.9565 187.855 -63.9486 186.981L-64.0927 185.991L-64.2367 185.002C-70.2537 185.878 -76.3353 186.805 -82.4923 187.776L-82.3365 188.764ZM-45.7894 183.469L-45.6613 184.46C-39.5068 183.665 -33.4127 182.934 -27.3665 182.278L-27.4744 181.284L-27.5823 180.29C-33.6434 180.948 -39.7512 181.68 -45.9177 182.477L-45.7894 183.469ZM-9.08887 179.515L-9.0061 180.512C-2.84473 180 3.27869 179.577 9.37756 179.253L9.32458 178.255L9.27161 177.256C3.15137 177.581 -2.99194 178.005 -9.17175 178.519L-9.08887 179.515ZM27.7714 177.587L27.79 178.587C30.8622 178.529 33.9316 178.5 37 178.5V177.5V176.5C33.9188 176.5 30.837 176.529 27.7527 176.587L27.7714 177.587ZM37 177.5V178.5C40.1652 178.5 43.3374 178.522 46.5171 178.563L46.5303 177.564L46.5435 176.564C43.3553 176.522 40.1743 176.5 37 176.5V177.5ZM65.6177 178.048L65.5807 179.047C71.9004 179.281 78.2515 179.585 84.6366 179.952L84.6938 178.953L84.7512 177.955C78.3535 177.588 71.9889 177.283 65.6545 177.049L65.6177 178.048ZM103.729 180.213L103.655 181.21C109.954 181.679 116.288 182.199 122.66 182.762L122.748 181.765L122.836 180.769C116.456 180.206 110.113 179.685 103.804 179.216L103.729 180.213ZM141.751 183.553L141.652 184.548C147.941 185.172 154.267 185.83 160.634 186.514L160.741 185.52L160.848 184.526C154.476 183.841 148.145 183.183 141.85 182.558L141.751 183.553ZM179.72 187.616L179.608 188.609C185.89 189.319 192.212 190.047 198.578 190.785L198.693 189.792L198.808 188.799C192.442 188.06 186.117 187.332 179.832 186.622L179.72 187.616ZM217.661 192.005L217.545 192.998C223.82 193.731 230.138 194.469 236.5 195.204L236.615 194.211L236.729 193.217C230.369 192.482 224.052 191.745 217.777 191.011L217.661 192.005ZM255.575 196.375L255.463 197.369C261.743 198.075 268.068 198.773 274.438 199.457L274.545 198.463L274.652 197.469C268.285 196.785 261.964 196.087 255.686 195.382L255.575 196.375ZM293.528 200.443L293.428 201.438C299.718 202.072 306.052 202.688 312.434 203.281L312.526 202.285L312.619 201.289C306.243 200.697 299.913 200.082 293.629 199.448L293.528 200.443ZM331.54 203.963L331.457 204.959C337.758 205.485 344.104 205.984 350.498 206.45L350.571 205.452L350.643 204.455C344.257 203.989 337.917 203.492 331.623 202.966L331.54 203.963ZM369.617 206.732L369.556 207.73C375.867 208.117 382.225 208.468 388.63 208.78L388.679 207.781L388.728 206.782C382.331 206.471 375.982 206.12 369.678 205.734L369.617 206.732ZM407.754 208.583L407.719 209.583C414.039 209.805 420.406 209.986 426.82 210.122L426.841 209.122L426.862 208.122C420.458 207.987 414.1 207.806 407.79 207.584L407.754 208.583ZM445.938 209.384L445.932 210.384C452.255 210.423 458.624 210.416 465.041 210.357L465.031 209.357L465.022 208.357C458.616 208.416 452.257 208.423 445.944 208.384L445.938 209.384ZM484.103 209.033L484.128 210.032C490.442 209.875 496.802 209.666 503.209 209.402L503.168 208.402L503.127 207.403C496.731 207.667 490.382 207.876 484.078 208.033L484.103 209.033ZM522.223 207.46L522.281 208.458C528.588 208.094 534.94 207.674 541.339 207.197L541.265 206.2L541.19 205.202C534.803 205.679 528.461 206.098 522.165 206.461L522.223 207.46ZM560.291 204.618L560.383 205.614C566.68 205.037 573.022 204.402 579.409 203.707L579.301 202.712L579.192 201.718C572.817 202.412 566.486 203.046 560.2 203.622L560.291 204.618ZM598.292 200.481L598.417 201.473C604.673 200.683 610.973 199.835 617.316 198.924L617.174 197.934L617.032 196.944C610.7 197.853 604.412 198.7 598.167 199.488L598.292 200.481ZM636.024 195.066L636.182 196.053C639.333 195.546 642.495 195.024 645.667 194.486L645.5 193.5L645.333 192.514C642.166 193.051 639.01 193.572 635.865 194.078L636.024 195.066ZM645.5 193.5L645.667 194.486C648.483 194.008 651.503 193.387 654.71 192.632L654.481 191.658L654.252 190.685C651.078 191.432 648.1 192.045 645.333 192.514L645.5 193.5ZM672.29 186.729L672.587 187.684C678.128 185.964 684.01 183.998 690.179 181.817L689.845 180.874L689.512 179.931C683.364 182.105 677.506 184.063 671.994 185.774L672.29 186.729ZM707.135 174.493L707.492 175.427C713.085 173.286 718.848 171.012 724.746 168.626L724.371 167.699L723.996 166.772C718.108 169.154 712.357 171.423 706.777 173.559L707.135 174.493ZM741.425 160.649L741.814 161.57C747.399 159.216 753.072 156.783 758.808 154.285L758.408 153.369L758.009 152.452C752.28 154.946 746.614 157.376 741.037 159.727L741.425 160.649ZM775.332 145.898L775.741 146.811C781.326 144.314 786.947 141.771 792.583 139.194L792.167 138.285L791.752 137.375C786.12 139.95 780.504 142.491 774.924 144.985L775.332 145.898ZM808.945 130.538L809.367 131.444C814.958 128.838 820.542 126.212 826.099 123.577L825.67 122.674L825.242 121.77C819.689 124.403 814.109 127.028 808.522 129.632L808.945 130.538ZM842.335 114.71L842.769 115.611C848.376 112.911 853.933 110.215 859.415 107.538L858.976 106.639L858.537 105.74C853.058 108.417 847.505 111.111 841.901 113.809L842.335 114.71ZM875.572 98.4781L876.015 99.3743C881.638 96.5907 887.152 93.8424 892.531 91.145L892.082 90.2511L891.634 89.3572C886.259 92.0531 880.748 94.7999 875.128 97.5819L875.572 98.4781ZM908.616 81.9043L909.07 82.7958C914.764 79.902 920.252 77.0937 925.494 74.3932L925.036 73.5043L924.578 72.6153C919.339 75.314 913.855 78.1207 908.164 81.0128L908.616 81.9043ZM941.489 64.9639L941.952 65.85C947.902 62.7362 953.382 59.8394 958.311 57.2065L957.84 56.3245L957.369 55.4424C952.445 58.0723 946.971 60.9665 941.025 64.0779L941.489 64.9639ZM974.002 47.55L974.487 48.4244C977.821 46.5735 980.522 45.0367 982.509 43.8606L982 43L981.491 42.1394C979.526 43.3022 976.843 44.829 973.517 46.6757L974.002 47.55Z" fill="white"/>
</svg>
