<svg width="306" height="299" viewBox="0 0 306 299" fill="none" xmlns="http://www.w3.org/2000/svg">
<g clip-path="url(#clip0_4436_10364)">
<path fill-rule="evenodd" clip-rule="evenodd" d="M159.419 232.094L189.396 245.698C189.396 245.698 217.73 247.828 236.661 236.56L255.645 205.194L257.727 170.597L190.991 184.225C190.991 184.225 162.956 220.679 159.419 232.094Z" fill="url(#paint0_linear_4436_10364)"/>
<path fill-rule="evenodd" clip-rule="evenodd" d="M251.332 194.204C246.271 207.315 238.682 219.303 228.999 229.482C219.317 239.662 207.731 247.833 194.905 253.528C182.078 259.223 168.264 262.33 154.251 262.672C140.239 263.013 126.304 260.582 113.244 255.518C111.48 254.836 109.711 254.106 108.012 253.328L107.991 253.32C105.438 252.185 102.952 250.935 100.532 249.636C82.7576 239.938 68.1415 225.331 58.4138 207.547C52.137 196.078 47.9793 183.564 46.1404 170.605C45.9556 169.273 45.8037 167.933 45.653 166.591C45.6633 166.551 45.6632 166.509 45.653 166.469C45.5089 165.032 45.4161 163.618 45.3353 162.181L45.312 162.172C45.0535 157.672 45.0919 153.158 45.4269 148.661C45.6327 145.367 46.0081 142.085 46.5514 138.828C46.5443 138.797 46.5487 138.764 46.5638 138.735C46.9465 136.439 47.3983 134.146 47.9403 131.871C49.0802 126.923 50.575 122.062 52.4129 117.328C53.4803 114.57 54.6527 111.853 55.947 109.253C56.7402 107.576 57.5908 105.942 58.481 104.326C63.4686 95.1804 69.7855 86.827 77.224 79.5403C91.8807 65.1395 110.353 55.2598 130.435 51.081C150.518 46.9021 171.361 48.6007 190.477 55.9739C191.526 56.3796 192.571 56.8069 193.589 57.224C194.686 57.6983 195.784 58.1698 196.862 58.6839C202.348 61.2213 207.605 64.2254 212.578 67.6632C215.433 69.6377 218.175 71.7161 220.79 73.9375C222.581 75.4261 224.306 76.9774 225.961 78.5987C227.209 79.8074 228.406 81.0196 229.568 82.2689C229.773 82.4927 229.983 82.6949 230.188 82.9187C237.965 91.3407 244.337 100.965 249.058 111.423C249.744 112.899 250.37 114.398 250.988 115.921C251.385 116.946 251.778 117.992 252.146 119.032C252.808 120.787 253.38 122.581 253.944 124.373C258.34 138.813 259.623 154.032 257.707 169.022C256.614 177.643 254.473 186.099 251.332 194.204Z" fill="url(#paint1_radial_4436_10364)"/>
<path style="mix-blend-mode:multiply" opacity="0.71" fill-rule="evenodd" clip-rule="evenodd" d="M97.2617 125.784C97.2617 125.784 108.748 148.359 110.606 156.547C112.464 164.736 110.025 214.768 106.799 224.279C103.574 233.791 89.8841 242.983 89.8841 242.983C89.8841 242.983 76.5944 232.991 70.1731 224.764L88.7082 191.856L97.2617 125.784Z" fill="url(#paint2_linear_4436_10364)"/>
<path style="mix-blend-mode:multiply" opacity="0.71" fill-rule="evenodd" clip-rule="evenodd" d="M189.759 195.244L211.984 219.548C211.984 219.548 216.016 225.343 225.183 220.952C225.183 220.952 229.561 211.58 229.174 200.759L189.759 195.244Z" fill="url(#paint3_linear_4436_10364)"/>
<g style="mix-blend-mode:multiply" opacity="0.3">
<path fill-rule="evenodd" clip-rule="evenodd" d="M98.1153 132.099C92.1536 140.826 89.685 151.447 89.5898 161.92C89.5721 164.182 89.3925 167.028 89.9259 169.278C90.3458 171.051 91.6524 172.524 92.5826 174.043C93.8135 176.059 94.8196 178.196 96.01 180.23C97.3612 182.54 98.9729 184.256 101.004 186.006C104.861 189.332 108.894 192.266 114.17 192.688C119.041 192.998 123.881 191.676 127.929 188.929C129.712 187.682 131.598 186.696 133.423 185.532C135.248 184.368 136.743 182.643 138.187 181.087C141.055 178.006 143.293 173.566 144.545 169.569C145.168 167.657 145.619 165.693 145.894 163.702C146.151 161.626 145.967 159.538 146.352 157.471C146.99 154.09 146.66 150.742 146.545 147.298C146.255 138.758 139.823 131.232 132.75 127.244C129.429 125.372 125.64 124.832 121.964 124.04C118.095 123.197 114.778 123.868 110.908 124.211C108.628 124.412 106.347 124.738 104.329 125.881C99.5751 128.579 96.9521 133.953 98.1153 132.099Z" fill="#7D72B3"/>
<path fill-rule="evenodd" clip-rule="evenodd" d="M107.572 196.808C109.85 195.937 112.82 195.088 115.288 195.161C116.982 195.211 118.152 196.319 119.029 197.663C120.802 200.365 118.748 204.278 116.006 205.602C110.995 208.036 105.507 202.421 107.404 197.597L107.572 196.808Z" fill="#7D72B3"/>
<path fill-rule="evenodd" clip-rule="evenodd" d="M154.209 178.235C153.746 176.53 153.238 175.826 153.802 174.524C154.225 173.545 156.086 172.086 156.963 171.328C159.578 169.088 162.963 167.962 166.392 168.192C168.745 168.325 171.062 168.824 173.26 169.67C175.307 170.444 176.757 171.694 178.435 173.055C181.476 175.528 184.6 178.871 186.104 182.589C187.519 186.084 185.375 190.584 182.252 192.386C179.865 193.763 177.047 194.072 174.389 194.612C171.476 195.21 168.177 196.138 165.198 195.843C163.262 195.65 161.909 195.412 160.385 194.242C158.989 193.202 157.699 192.028 156.533 190.736C155.418 189.488 154.474 188.79 153.77 187.234C153.142 185.905 152.709 184.492 152.484 183.038C152.16 180.913 153.334 178.919 154.209 178.235Z" fill="#7D72B3"/>
<path fill-rule="evenodd" clip-rule="evenodd" d="M153.633 157.226C152.728 158.369 150.837 160.64 153.224 161.399C154.312 161.742 156.243 161.453 157.061 161.012C160.446 159.194 155.59 155.209 154.163 157.431L153.633 157.226Z" fill="#7D72B3"/>
<path fill-rule="evenodd" clip-rule="evenodd" d="M163.085 235.871C162.876 233.101 162.977 232.105 164.699 229.899C167.445 226.464 170.563 223.344 173.996 220.599C176.075 218.935 178.747 216.613 181.503 216.498C183.778 216.423 186.049 216.732 188.22 217.413C192.809 218.867 195.451 222.329 197.489 226.526C198.747 229.114 199.796 231.271 199.972 234.21C200.122 236.759 199.599 239.849 198.45 242.134C195.177 248.642 187.451 251.163 181.32 254.102C176.481 256.42 168.986 258.785 164.399 254.773C161.226 252 160.539 247.229 160.352 243.217C160.231 240.578 161.618 238.085 163.085 235.871Z" fill="#7D72B3"/>
<path fill-rule="evenodd" clip-rule="evenodd" d="M164.106 215.914C162.387 216.476 161.438 217.612 160.475 219.173C159.771 220.307 158.222 222.821 159.031 224.273C159.735 225.554 162.228 224.837 163.28 224.604C164.132 224.427 164.951 224.114 165.704 223.675C166.129 223.443 166.627 223.289 166.961 222.931C167.494 222.357 167.762 221.371 168.006 220.645C168.314 219.736 168.088 218.814 167.697 217.981C167.365 217.271 166.974 216.972 166.321 216.548C165.622 216.076 164.791 215.392 164.106 215.914Z" fill="#7D72B3"/>
<path fill-rule="evenodd" clip-rule="evenodd" d="M109.249 245.123C108.951 245.459 108.711 245.648 108.774 246.106C108.838 246.565 109.29 247.371 109.468 247.736C110.116 249.066 111.092 249.766 112.307 250.558C113.522 251.35 114.784 252.03 116.202 252.272C117.107 252.427 118.246 252.652 119.078 252.15C120.616 251.215 120.542 248.886 120.356 247.349C120.211 246.173 119.814 245.018 119.576 243.857C119.268 242.606 118.774 241.409 118.112 240.305C117.354 238.93 116.113 236.974 114.255 237.47C112.507 237.927 111.062 239.409 110.087 240.861C109.52 241.714 109.196 242.705 109.152 243.727C109.138 244.421 109.421 245.015 109.249 245.123Z" fill="#7D72B3"/>
<path fill-rule="evenodd" clip-rule="evenodd" d="M204.926 237.605C204.392 236.638 204.108 236.488 204.545 235.619C204.952 234.683 205.492 233.812 206.147 233.03C207.681 231.371 209.927 230.373 212.006 229.6C213.202 229.199 214.466 229.044 215.722 229.143C216.381 229.173 216.941 229.12 217.515 229.439C217.968 229.679 218.34 230.049 218.583 230.502C218.825 230.955 218.927 231.471 218.876 231.983C218.785 233.709 217.373 235.123 216.055 236.06C214.372 237.255 212.838 238.75 210.748 239.156C209.777 239.342 208.778 239.507 207.795 239.598C207.2 239.654 206.545 239.7 205.998 239.408C205.607 239.206 204.485 238.399 204.926 237.605Z" fill="#7D72B3"/>
<path fill-rule="evenodd" clip-rule="evenodd" d="M69.3184 105.678C69.1858 106.635 68.8701 107.572 68.8201 108.542C68.7241 110.522 69.4008 112.531 70.2082 114.316C71.7486 117.705 74.8933 120.067 77.953 122.016C79.5537 123.079 81.2494 123.991 83.0185 124.741C84.4432 125.312 85.8415 126.202 87.3102 126.642C89.7399 127.39 92.3107 127.564 94.8217 127.151C98.551 126.522 102.119 124.68 102.552 120.591C102.792 118.354 102.128 116.104 101.224 114.1C100.236 111.906 99.5885 109.77 97.8817 108.014C97.1281 107.242 96.3604 106.455 95.5712 105.723C94.6201 104.837 93.7977 103.81 92.6769 103.138C91.7478 102.577 90.8698 101.797 89.8832 101.359C88.8936 100.915 87.8767 100.534 86.8387 100.219C83.1424 99.1266 78.623 99.7971 75.1574 101.399C73.7803 102.03 72.5003 102.843 71.1325 103.468C69.8308 104.034 69.5063 105.193 69.3184 105.678Z" fill="#7D72B3"/>
<path fill-rule="evenodd" clip-rule="evenodd" d="M152.709 109.068C151.113 110.239 150.612 110.449 149.762 112.212C148.689 114.404 147.99 116.76 147.695 119.182C147.001 124.845 149.42 130.564 151.356 135.78C154.534 144.341 158.651 152.609 164.997 159.265C167.495 161.885 170.097 164.773 173.772 165.662C177.333 166.524 180.898 166.44 184.528 166.656C187.714 166.849 191.09 167.175 194.188 167.919C195.643 168.263 197.094 168.612 198.542 168.993C200.642 169.549 202.658 169.397 204.798 169.576C207.897 169.829 210.987 170.455 214.086 170.631C215.503 170.709 216.924 170.666 218.334 170.504C220.649 170.249 222.944 170.45 225.269 170.132C233.88 168.952 241.758 162.973 245.298 154.945C247.104 150.849 247.275 145.905 246.558 141.557C246.149 139.089 245.344 136.717 244.79 134.27C244.03 131.133 242.946 128.085 241.553 125.176C239.021 119.749 235.452 115.498 230.776 111.802C228.305 109.831 225.539 108.263 222.579 107.157C217.888 105.344 212.849 104.16 207.889 103.312C202.928 102.463 197.881 101.649 192.863 101.182C187.578 100.689 181.987 100.871 176.696 101.24C171.236 101.621 166.095 102.939 161.511 106.001C160.48 106.689 159.36 107.298 158.357 108.01C157.567 108.569 157.069 109.052 156.126 109.313C154.437 109.799 153.101 109.535 152.709 109.068Z" fill="#7D72B3"/>
</g>
<path style="mix-blend-mode:multiply" opacity="0.71" fill-rule="evenodd" clip-rule="evenodd" d="M245.641 165.784L251.331 194.207C251.331 194.207 257.693 179.137 256.745 175.24C255.796 171.343 245.641 165.784 245.641 165.784Z" fill="url(#paint4_linear_4436_10364)"/>
<path style="mix-blend-mode:multiply" opacity="0.71" fill-rule="evenodd" clip-rule="evenodd" d="M79.2232 81.6756C79.2232 81.6756 100.509 111.05 179.544 137.598L209.888 152.107C209.888 152.107 243.552 153.456 257.189 138.235C257.189 138.235 253.325 122.144 252.163 119.032C251.001 115.921 211.361 109.706 211.361 109.706L79.2232 81.6756Z" fill="url(#paint5_linear_4436_10364)"/>
<path fill-rule="evenodd" clip-rule="evenodd" d="M90.8687 64.0189L93.1099 58.2284C93.1099 58.2284 116.695 43.9316 151.208 31.5554C151.208 31.5554 220.742 51.5801 237.531 64.9213L238.373 85.1833L257.367 102.275L252.151 119.042C252.151 119.042 228.486 136.707 198.692 134.554L186.456 126.127C186.456 126.127 169.315 126.561 130.332 111.494C90.4986 96.0972 79.2228 81.6731 79.2228 81.6731L84.4104 68.2701L90.8687 64.0189Z" fill="url(#paint6_linear_4436_10364)"/>
<path fill-rule="evenodd" clip-rule="evenodd" d="M98.2035 212.215L85.0534 226.793L63.0605 223.796L43.0537 215.001C43.0537 215.001 26.7702 192.905 24.8332 167.16L34.735 148.254L29.8376 138.228C29.8376 138.228 35.1383 119.043 56.9938 108.098C56.9938 108.098 75.7292 109.917 97.2678 125.769L105.72 148.018C105.72 148.018 108.877 175.97 98.2035 212.215Z" fill="url(#paint7_linear_4436_10364)"/>
<path style="mix-blend-mode:multiply" opacity="0.71" fill-rule="evenodd" clip-rule="evenodd" d="M120.148 234.122C120.148 234.122 122.371 241.947 124.692 244.22C127.013 246.492 141.14 256.08 143.007 256.573C144.874 257.066 151.234 240.634 151.273 237.579C151.259 235.595 150.942 233.626 150.333 231.739L120.148 234.122Z" fill="url(#paint8_linear_4436_10364)"/>
<path fill-rule="evenodd" clip-rule="evenodd" d="M280.19 153.718L276.897 159.916L257.398 176.686C250.991 174.405 246.195 166.715 245.644 165.775C245.629 165.746 245.596 165.71 245.583 165.681C243.916 156.514 248.639 139.6 248.639 139.6L256.466 135.095L265.748 136.867L267.434 138.998L275.959 139.798L280.49 145.981L281.822 147.84L280.19 153.718Z" fill="url(#paint9_linear_4436_10364)"/>
<path fill-rule="evenodd" clip-rule="evenodd" d="M244.231 176.31C244.231 176.31 234.276 164.484 228.013 162.332L208.046 167.074C208.046 167.074 194.88 182.04 189.768 195.247C189.768 195.247 202.843 206.624 214.122 209.246C214.122 209.246 228.448 208.516 236.136 201.193C236.127 201.19 243.747 186.471 244.231 176.31Z" fill="url(#paint10_linear_4436_10364)"/>
<path fill-rule="evenodd" clip-rule="evenodd" d="M93.1099 58.2284C93.1099 58.2284 121.966 70.4846 157.398 74.6451C157.398 74.6451 194.462 75.7752 202.526 73.8426C210.591 71.91 237.534 64.9225 237.534 64.9225C237.534 64.9225 207.351 43.6508 151.208 31.5554C151.208 31.5554 115.312 41.652 93.1099 58.2284Z" fill="url(#paint11_linear_4436_10364)"/>
<path fill-rule="evenodd" clip-rule="evenodd" d="M238.374 85.1824C238.374 85.1824 209.004 100.804 205.871 101.815C202.738 102.826 164.507 103.403 164.507 103.403L143.989 100.996C143.989 100.996 167.403 109.821 171.304 111.554L181.538 107.169L206.852 118.177C206.852 118.177 235.983 113.01 257.375 102.276L238.374 85.1824Z" fill="url(#paint12_linear_4436_10364)"/>
<path fill-rule="evenodd" clip-rule="evenodd" d="M84.4118 68.2689L104.346 78.2467C104.346 78.2467 117.91 84.1618 126.904 84.5553C126.904 84.5553 99.7328 72.4929 90.8848 64.0233L84.4118 68.2689Z" fill="url(#paint13_linear_4436_10364)"/>
<path fill-rule="evenodd" clip-rule="evenodd" d="M208.045 167.074C208.045 167.074 215.768 173.966 221.859 175.86C227.95 177.753 244.231 176.31 244.231 176.31C244.231 176.31 240.089 168.393 228.013 162.333L208.045 167.074Z" fill="url(#paint14_linear_4436_10364)"/>
<path fill-rule="evenodd" clip-rule="evenodd" d="M29.8166 138.23C29.8166 138.23 59.4468 142.797 68.1158 142.671C76.7847 142.546 97.2563 125.781 97.2563 125.781C97.2563 125.781 84.9563 112.999 56.9926 108.101C56.9949 108.095 34.9648 116.944 29.8166 138.23Z" fill="url(#paint15_linear_4436_10364)"/>
<path fill-rule="evenodd" clip-rule="evenodd" d="M34.7442 148.265C34.7442 148.265 54.8453 153.136 62.3197 153.88C69.794 154.624 82.8994 152.172 82.8994 152.172C82.8994 152.172 67.6386 167.545 63.0906 170.601C63.0906 170.601 37.0256 170.401 24.8349 167.182C24.8395 167.17 28.2208 156.633 34.7442 148.265Z" fill="url(#paint16_linear_4436_10364)"/>
<path fill-rule="evenodd" clip-rule="evenodd" d="M120.914 229.17C120.914 229.17 129.008 221.247 134.978 221.194C134.978 221.194 147.263 226.074 150.331 231.752L140.297 248.808L123.645 241.027C123.645 241.027 118.539 235.308 120.914 229.17Z" fill="url(#paint17_linear_4436_10364)"/>
<path fill-rule="evenodd" clip-rule="evenodd" d="M120.914 229.17C120.914 229.17 125.686 232.792 131.259 233.168C136.831 233.543 146.111 227.874 146.111 227.874C146.111 227.874 143.142 223.732 134.978 221.194C134.978 221.194 125.489 221.481 120.914 229.17Z" fill="url(#paint18_linear_4436_10364)"/>
<path style="mix-blend-mode:multiply" opacity="0.5" fill-rule="evenodd" clip-rule="evenodd" d="M98.2032 212.215L85.0532 226.794L63.0602 223.797L43.0535 215.001C43.0535 215.001 63.7095 221.556 65.4768 218.8C67.244 216.044 71.925 208.002 71.925 208.002C72.7562 191.134 63.0899 170.594 63.0899 170.594C73.0128 164.007 82.8974 152.151 82.8974 152.151L72.324 153.655L70.1653 142.399C82.8329 137.622 97.2619 125.784 97.2619 125.784L105.714 148.033C105.714 148.033 108.877 175.97 98.2032 212.215Z" fill="url(#paint19_linear_4436_10364)"/>
<path style="mix-blend-mode:multiply" opacity="0.5" fill-rule="evenodd" clip-rule="evenodd" d="M135.551 232.599L140.294 248.808L150.329 231.748L146.11 227.875L135.551 232.599Z" fill="url(#paint20_linear_4436_10364)"/>
<path style="mix-blend-mode:multiply" opacity="0.71" fill-rule="evenodd" clip-rule="evenodd" d="M221.86 175.86C221.86 175.86 220.731 188.684 219.275 193.621C217.82 198.559 214.114 209.243 214.114 209.243C214.114 209.243 224.499 209.68 236.127 201.191C236.127 201.191 243.136 188.771 244.231 176.311C244.231 176.311 229.834 177.85 221.86 175.86Z" fill="url(#paint21_linear_4436_10364)"/>
<path style="mix-blend-mode:multiply" opacity="0.5" fill-rule="evenodd" clip-rule="evenodd" d="M255.805 144.528L257.488 147.367C257.488 147.367 263.605 147.254 264.838 144.587C266.071 141.92 267.416 139.001 267.416 139.001L265.745 136.875L255.805 144.528Z" fill="url(#paint22_linear_4436_10364)"/>
<path style="mix-blend-mode:multiply" opacity="0.71" fill-rule="evenodd" clip-rule="evenodd" d="M280.191 153.719L276.897 159.916L257.399 176.687C250.992 174.405 246.196 166.715 245.644 165.776C248.264 169.37 251.862 172.131 256.009 173.729C256.009 173.729 258.993 167.207 260.216 162.862C261.438 158.516 261.681 148.971 261.681 148.971L280.483 145.975L281.815 147.834L280.191 153.719Z" fill="url(#paint23_linear_4436_10364)"/>
<path fill-rule="evenodd" clip-rule="evenodd" d="M265.745 136.876L255.805 144.528C255.805 144.528 251.783 144.08 248.624 139.614L256.451 135.102L265.745 136.876Z" fill="url(#paint24_linear_4436_10364)"/>
<path fill-rule="evenodd" clip-rule="evenodd" d="M267.416 139.001L264.838 144.587C264.838 144.587 260.165 147.437 255.385 147.604C255.385 147.604 263.59 149.786 267.852 149.598C267.852 149.598 278.787 149.454 281.829 147.829L275.955 139.8L267.416 139.001Z" fill="url(#paint25_linear_4436_10364)"/>
<path style="mix-blend-mode:multiply" opacity="0.5" fill-rule="evenodd" clip-rule="evenodd" d="M160.353 74.4168L172.187 103.261L205.874 101.825C205.874 101.825 235.936 86.7709 238.374 85.1818L237.536 64.9209C237.536 64.9209 211.284 71.2647 202.528 73.841C193.771 76.4174 160.353 74.4168 160.353 74.4168Z" fill="url(#paint26_linear_4436_10364)"/>
<path style="mix-blend-mode:multiply" opacity="0.5" fill-rule="evenodd" clip-rule="evenodd" d="M181.548 107.169L186.453 126.137C186.453 126.137 177.271 125.735 168.232 123.465L171.31 111.563L181.548 107.169Z" fill="url(#paint27_linear_4436_10364)"/>
<path style="mix-blend-mode:multiply" opacity="0.5" fill-rule="evenodd" clip-rule="evenodd" d="M206.861 118.177L198.693 134.553C198.693 134.553 230.522 135.31 252.16 119.037L257.374 102.276C257.374 102.276 228.288 114.15 206.861 118.177Z" fill="url(#paint28_linear_4436_10364)"/>
<path style="mix-blend-mode:multiply" opacity="0.2" fill-rule="evenodd" clip-rule="evenodd" d="M91.7842 71.959L103.189 99.7498L112.772 103.454L122.318 83.9861C122.318 83.9861 99.9098 77.6448 91.7842 71.959Z" fill="url(#paint29_linear_4436_10364)"/>
<g style="mix-blend-mode:soft-light">
<path fill-rule="evenodd" clip-rule="evenodd" d="M103.397 54.635C103.424 53.3711 103.85 53.0682 104.856 52.2773C106.437 51.0326 108.28 50.185 110.004 49.1701C113.362 47.1968 116.796 45.4751 120.62 44.6028C124.575 43.7009 128.538 42.597 132.562 42.0475C135.31 41.6743 138.095 41.278 140.882 41.3333C142.836 41.3689 144.814 41.5655 146.769 41.7094C150.592 41.9901 155.425 43.3335 158.04 46.3616C159.637 48.2095 159.655 50.4925 159.618 52.8245C159.601 53.9748 159.587 54.9644 158.967 55.9856C158.425 56.8754 157.557 57.6798 156.805 58.3773C154.329 60.6682 150.764 62.2688 147.6 63.3154C141.13 65.4506 134.444 66.2115 127.684 65.9321C125.873 65.8574 124.033 65.8418 122.235 65.6011C121.07 65.4431 119.928 65.1363 118.762 64.9882C116.034 64.687 113.329 64.203 110.666 63.5397C109.943 63.3476 109.064 63.2872 108.38 63.0194C107.756 62.7783 107.3 62.148 106.728 61.806C105.771 61.231 104.298 60.7085 103.579 59.8458C101.658 57.5532 102.401 54.7745 103.397 54.635Z" fill="#FFA989"/>
<path fill-rule="evenodd" clip-rule="evenodd" d="M145.376 67.4985C145.998 66.5489 145.958 66.4796 146.835 66.146C147.407 65.7561 148.019 65.4291 148.66 65.1706C149.459 64.8804 150.288 64.6797 151.131 64.5722C153.572 64.2315 156.508 63.9275 158.59 65.5289C159.992 66.6087 160.59 67.7209 159.551 69.316C158.964 70.2157 157.768 70.8898 156.77 71.1999C154.982 71.7593 153.165 71.8034 151.302 71.8632C149.891 71.9062 147.998 71.5241 146.79 70.7212C145.684 70.0014 144.916 68.1947 145.376 67.4985Z" fill="#FFA989"/>
<path fill-rule="evenodd" clip-rule="evenodd" d="M191.24 52.1981C189.182 52.0753 188.073 52.0498 186.149 52.4998C183.285 53.1713 180.255 53.7855 177.488 54.7869C175.681 55.4124 173.981 56.3161 172.45 57.4655C171.289 58.3783 170.516 59.7 169.883 61.0223C169.251 62.3445 168.706 65.059 169.979 66.2737C170.469 66.7389 171.601 66.9311 172.177 67.1572C173.463 67.6434 174.809 67.9532 176.178 68.0782C177.587 68.2563 178.912 68.6707 180.333 68.783C181.754 68.8953 183.209 69.0409 184.648 69.2204C187.746 69.6076 190.746 69.9872 193.879 69.7459C196.837 69.5174 199.811 69.5307 202.762 69.1817C204.892 68.9328 206.991 68.6448 209.13 68.5232C212.091 68.3534 215.046 68.211 217.984 67.8138C219.143 67.6349 220.267 67.2753 221.316 66.7482C222.427 66.2429 223.646 65.9241 224.614 65.1551C225.05 64.8161 225.982 64.2181 226.196 63.6654C226.446 62.9516 225.774 61.7001 225.379 61.1708C224.599 60.215 223.633 59.4279 222.541 58.8568C221.033 57.9979 219.452 57.2745 217.817 56.6948C215.813 56.0777 213.774 55.5803 211.71 55.2053C210.38 54.9632 209.169 54.8448 207.887 54.3728C205.627 53.5244 203.308 52.8449 200.948 52.3398C199.582 52.0505 198.17 52.019 196.781 51.8923C195.518 51.7775 194.214 51.5456 192.947 51.6409C192.303 51.6846 190.178 51.3642 191.24 52.1981Z" fill="#FFA989"/>
<path fill-rule="evenodd" clip-rule="evenodd" d="M187.376 46.4214C185.934 46.5364 183.887 46.4577 182.652 47.4466C181.846 48.093 182.456 48.5171 183.191 48.808C184.492 49.3106 186.053 49.2081 187.448 49.3539C188.556 49.46 189.675 49.3712 190.753 49.0917C191.243 48.9615 192.115 48.976 192.082 48.3007C192.061 47.9029 191.409 47.2407 191.12 47.011C190.558 46.5789 189.9 46.2902 189.202 46.1696C188.503 46.0491 187.786 46.1003 187.111 46.3189L187.376 46.4214Z" fill="#FFA989"/>
<path fill-rule="evenodd" clip-rule="evenodd" d="M215.938 101.806C214.697 101.74 213.523 101.508 212.316 101.414C211.109 101.321 209.814 101.634 208.625 101.935C206.567 102.474 204.263 103.264 202.613 104.644C201.234 105.792 199.326 108.107 200.574 109.964C202.285 112.522 206.602 112.264 209.251 112.39C213.407 112.588 218.011 112.73 222.062 111.539C223.804 110.985 225.517 110.342 227.194 109.613C228.636 109.014 230.03 108.307 231.365 107.497C232.302 106.921 232.831 105.831 233.101 104.805C233.37 103.78 232.726 102.674 231.988 101.991C230.506 100.625 228.712 100.877 226.895 100.497C224.998 100.1 222.719 99.8141 220.77 100.103C217.819 100.516 214.796 100.705 215.938 101.806Z" fill="#FFA989"/>
<path fill-rule="evenodd" clip-rule="evenodd" d="M225.85 94.32C225.706 93.8255 225.694 93.3016 225.815 92.8003C226.406 92.8672 226.949 92.3644 227.447 92.1602C227.883 92.0097 228.339 91.9231 228.8 91.9032C229.556 91.8359 230.916 91.736 231.528 92.2851C232.693 93.3441 232.507 94.812 231.301 95.8319C230.699 96.3277 229.99 96.6762 229.23 96.8495C228.471 97.0229 227.682 97.0164 226.926 96.8305C225.82 96.5612 224.117 94.1815 225.894 93.436L225.85 94.32Z" fill="#FFA989"/>
<path fill-rule="evenodd" clip-rule="evenodd" d="M242.939 96.6462C241.961 96.4631 240.713 95.9907 239.699 96.0898C239.483 96.1105 239.136 96.3059 238.901 96.3595C237.748 96.6268 236.519 96.7199 235.41 97.1251C234.204 97.5665 232.646 98.6118 232.637 100.037C232.605 104.98 239.518 104.889 242.836 104.42C243.951 104.259 244.841 103.752 245.913 103.467C246.719 103.255 247.365 103.111 248.082 102.625C249.12 101.927 249.509 101.337 249.464 100.059C249.433 99.1092 248.783 98.2695 248.013 97.7468C247.356 97.2518 246.637 96.8431 245.876 96.5308C244.026 95.9066 242.01 96.4922 240.148 96.7813L242.939 96.6462Z" fill="#FFA989"/>
<path fill-rule="evenodd" clip-rule="evenodd" d="M56.5078 113.579C51.6262 113.921 46.7668 115.66 42.9153 118.727C41.2071 120.084 39.6268 121.596 38.1945 123.243C37.4378 124.107 36.8793 125.108 36.1027 125.955C35.4041 126.645 34.7783 127.406 34.2352 128.225C33.0409 130.211 30.4064 134.108 33.668 135.691C35.1365 136.4 37.0518 136.717 38.6488 136.981C41.7985 137.502 45.2937 137.495 48.473 137.265C52.0139 137.01 55.6496 136.596 59.0229 135.51C62.2128 134.49 65.5509 133.945 68.6209 132.559C72.2806 130.898 77.7878 127.987 76.2896 123.034C74.8772 118.352 68.5066 116.835 64.3972 115.788C62.457 115.293 60.3809 114.518 58.3657 114.364C57.8607 114.325 57.353 114.338 56.8501 114.4C56.5219 114.452 56.1629 114.669 56.5078 113.579Z" fill="#FFA989"/>
<path fill-rule="evenodd" clip-rule="evenodd" d="M64.1953 137.041C64.8208 136.23 65.0685 135.858 65.966 135.479C66.8636 135.1 67.7965 134.603 68.7146 134.188C70.1558 133.521 72.8136 133.123 74.3735 133.622C75.0762 133.85 75.9995 134.227 76.2923 134.986C76.5852 135.744 75.9127 136.833 75.3698 137.369C74.8934 137.902 74.2926 138.309 73.6214 138.552C72.798 138.853 71.7732 139.344 70.9037 139.452C69.7062 139.552 68.5021 139.537 67.3081 139.407C66.3722 139.331 64.9073 139.262 64.3926 138.28C64.0695 137.695 63.9711 136.581 64.1953 137.041Z" fill="#FFA989"/>
<path fill-rule="evenodd" clip-rule="evenodd" d="M44.3468 154.447C43.394 154.31 42.0595 153.922 41.0451 154.179C40.1592 154.452 39.3189 154.857 38.5523 155.381C36.9795 156.353 35.5076 157.488 33.9355 158.468C32.631 159.293 31.3743 160.193 30.1713 161.161C29.3618 161.807 28.7914 162.484 28.9063 163.564C29.2009 166.266 33.0423 167.123 35.175 167.406C37.4729 167.712 39.7502 167.422 42.0532 167.317C44.128 167.222 46.2372 167.254 48.2889 167.001C51.8336 166.546 56.0355 166.297 58.8252 163.791C59.9153 162.811 60.5381 161.912 60.5042 160.406C60.4532 159.043 59.9313 157.74 59.0276 156.722C58.0923 155.614 56.75 155.263 55.456 154.753C53.5752 154.024 51.5976 153.573 49.5856 153.415C48.3458 153.319 46.9749 153.415 45.7259 153.447C43.8049 153.474 42.4313 154.503 44.3468 154.447Z" fill="#FFA989"/>
<path fill-rule="evenodd" clip-rule="evenodd" d="M33.2844 152.313C33.3902 151.845 33.5785 151.4 33.8402 150.998C34.7114 151.059 35.3869 150.318 36.247 150.997C36.8776 151.49 36.6709 152.361 36.2746 152.857C35.5006 153.852 31.8301 155.126 32.813 152.743L33.2844 152.313Z" fill="#FFA989"/>
<path fill-rule="evenodd" clip-rule="evenodd" d="M227.584 166.248C226.238 165.793 224.879 165.385 223.506 165.025C223.044 165.175 222.566 165.27 222.082 165.309C220.441 165.505 219 165.546 217.415 166.11C216.141 166.569 213.324 167.155 212.86 168.744C212.438 170.205 214.374 171.265 215.456 171.69C216.538 172.115 217.777 172.309 218.907 172.688C220.48 173.205 222.074 173.599 223.676 174.007C225.724 174.526 227.954 174.964 230.062 174.643C231.234 174.477 232.358 174.069 233.365 173.445C233.872 173.147 234.555 172.917 234.683 172.274C234.767 171.849 234.347 170.769 234.162 170.391C233.841 169.841 233.436 169.344 232.962 168.919C230.873 166.817 227.645 166.591 227.584 166.248Z" fill="#FFA989"/>
<path fill-rule="evenodd" clip-rule="evenodd" d="M129.661 226.26C128.407 226.321 127.7 226.175 126.837 226.984C126.519 227.285 125.635 227.865 125.466 228.344C125.229 229.016 125.912 229.243 126.53 229.31C127.332 229.395 128.319 229.016 129.076 228.855C129.667 228.732 130.234 228.513 130.754 228.206C131.088 228.019 131.342 227.952 131.564 227.605C131.786 227.257 131.703 226.915 132.137 226.817C132.512 225.19 128.788 226.195 128.236 226.002L129.661 226.26Z" fill="#FFA989"/>
<path fill-rule="evenodd" clip-rule="evenodd" d="M138.211 226.203C136.277 226.299 134.945 226.44 133.465 227.754C132.999 228.169 132.537 228.609 132.603 229.236C132.814 231.244 135.231 230.464 136.46 230.112C137.307 229.871 138.153 229.798 138.959 229.397C139.322 229.221 139.611 228.976 139.957 228.774C140.304 228.572 140.788 228.473 141.044 228.209C141.553 227.69 141.307 227.053 140.801 226.646C139.846 225.883 138.743 226.284 137.683 225.992L138.211 226.203Z" fill="#FFA989"/>
<path fill-rule="evenodd" clip-rule="evenodd" d="M65.6036 156.245C64.7041 157.114 61.3945 160.417 63.7476 161.3C65.7952 162.071 69.9961 161.15 70.9807 158.935C71.6377 157.454 70.7177 156.255 69.3776 155.552C67.6766 154.656 66.0886 155.676 64.764 156.838L65.6036 156.245Z" fill="#FFA989"/>
<path fill-rule="evenodd" clip-rule="evenodd" d="M84.9877 124.281C84.2866 124.732 83.43 125.023 83.8276 125.91C83.9964 126.34 84.3089 126.699 84.712 126.924C85.5612 127.397 87.2031 127.104 87.5977 126.214C87.733 125.906 87.7873 125.569 87.7553 125.235C87.7234 124.9 87.6062 124.58 87.4151 124.304C86.8981 123.493 86.2665 123.635 85.4568 123.857L84.9877 124.281Z" fill="#FFA989"/>
</g>
<path fill-rule="evenodd" clip-rule="evenodd" d="M133.84 70.9211C133.84 70.9211 147.104 71.8451 150.115 71.8324C153.126 71.8196 167.176 74.7655 167.176 74.7655C167.176 74.7655 180.411 74.2633 184.177 73.9907C187.942 73.7181 197.569 72.84 197.569 72.84L208.666 72.1498C208.666 72.1498 199.758 76.2442 193.358 76.2385C186.959 76.2327 170.57 76.4572 170.57 76.4572C170.57 76.4572 165.868 76.0049 159.158 75.6335C152.448 75.2621 133.84 70.9211 133.84 70.9211Z" fill="#FFBD4A"/>
<path fill-rule="evenodd" clip-rule="evenodd" d="M201.273 115.775L205.697 120.511C205.697 120.511 212.623 119.329 214.751 116.446C214.752 116.443 202.957 115.27 201.273 115.775Z" fill="#FFAB4A"/>
<path fill-rule="evenodd" clip-rule="evenodd" d="M168.764 110.566L170.888 113.209L174.291 110.278L168.764 110.566Z" fill="#FFAB4A"/>
<path style="mix-blend-mode:multiply" opacity="0.71" fill-rule="evenodd" clip-rule="evenodd" d="M111.281 129.207C111.281 129.207 115.217 138.141 127.66 147.94C127.66 147.94 129.055 147.289 132.604 141.661C136.153 136.033 135.785 133.44 135.785 133.44C135.785 133.44 117.599 128.939 111.281 129.207Z" fill="url(#paint30_linear_4436_10364)"/>
<path style="mix-blend-mode:multiply" opacity="0.71" fill-rule="evenodd" clip-rule="evenodd" d="M113.318 152.138C113.318 152.138 112.672 154.363 112.895 156.15C113.118 157.938 121.17 163.615 122.542 163.577C125.087 163.505 124.672 157.209 124.368 155.256C124.104 153.846 123.696 152.468 123.152 151.142L113.318 152.138Z" fill="url(#paint31_linear_4436_10364)"/>
<path fill-rule="evenodd" clip-rule="evenodd" d="M42.864 169.709C42.864 169.709 57.0188 168.971 61.8522 167.706C66.6856 166.441 76.1607 158.82 76.1607 158.82L64.2279 171.613L59.5921 171.579L54.9231 170.844L42.864 169.709Z" fill="#FFAB4A"/>
<path fill-rule="evenodd" clip-rule="evenodd" d="M62.0001 142.366L74.5105 140.524C74.5105 140.524 72.2652 143.459 70.4488 143.779C68.6324 144.099 62.0001 142.366 62.0001 142.366Z" fill="#FFAB4A"/>
<path fill-rule="evenodd" clip-rule="evenodd" d="M218.342 174.356L221.467 179.793C221.467 179.793 223.748 177.215 224.338 176.34C224.928 175.466 218.342 174.356 218.342 174.356Z" fill="#FF864A"/>
<path fill-rule="evenodd" clip-rule="evenodd" d="M258.35 148.317L265.691 148.73L271.989 149.44C271.989 149.44 264.293 150.358 262.954 150.53C261.614 150.701 258.35 148.317 258.35 148.317Z" fill="#FFAB4A"/>
<path fill-rule="evenodd" clip-rule="evenodd" d="M254.059 144.035L257.125 143.109L256.271 145.317L254.059 144.035Z" fill="#FFAB4A"/>
<path fill-rule="evenodd" clip-rule="evenodd" d="M129.334 232.908L138.854 231.477L136.325 235.247L129.334 232.908Z" fill="#FF864A"/>
<path fill-rule="evenodd" clip-rule="evenodd" d="M91.2223 71.7423C91.2223 71.7423 97.3577 73.5557 100.847 74.9046C104.337 76.2534 110.969 79.5999 110.969 79.5999L117.396 82.8408C117.396 82.8408 113.444 81.673 105.305 78.6815C100.38 76.8688 95.6601 74.543 91.2223 71.7423Z" fill="#FFB14A"/>
<path fill-rule="evenodd" clip-rule="evenodd" d="M110.124 122.351C110.124 122.351 118.856 117.906 121.882 117.953C124.907 117.999 135.149 128.514 137.025 130.17C138.901 131.827 127.602 141.993 125.46 142.688C123.317 143.383 107.621 129.607 110.124 122.351Z" fill="url(#paint32_linear_4436_10364)"/>
<path fill-rule="evenodd" clip-rule="evenodd" d="M121.952 159.644C120.759 161.046 115.529 158.056 113.827 156.504L113.714 156.362L113.407 155.908C113.37 155.868 113.347 155.816 113.343 155.762C112.48 153.747 113.721 149.591 115.495 147.829C115.495 147.829 120.925 148.21 122.47 149.516C123.481 150.368 123.467 153.798 123.01 156.479L123.002 156.5C122.737 157.937 122.353 159.171 121.952 159.644Z" fill="url(#paint33_linear_4436_10364)"/>
<path style="mix-blend-mode:multiply" opacity="0.5" fill-rule="evenodd" clip-rule="evenodd" d="M124.213 132.19L125.466 142.686C125.466 142.686 133.891 138.506 137.142 131.206L124.213 132.19Z" fill="url(#paint34_linear_4436_10364)"/>
<path fill-rule="evenodd" clip-rule="evenodd" d="M74.9313 81.8524L62.6693 80.2463C62.6693 80.2463 58.3222 86.0397 57.54 88.8573L61.6356 98.9025C61.6356 98.9025 68.9057 86.5096 74.9313 81.8524Z" fill="url(#paint35_linear_4436_10364)"/>
<path fill-rule="evenodd" clip-rule="evenodd" d="M110.124 122.35C113.306 125.65 116.904 128.519 120.828 130.885C127.1 134.597 137.142 131.209 137.142 131.209C137.142 131.209 132.442 121.997 122.566 116.791C122.576 116.791 114.304 118.045 110.124 122.35Z" fill="url(#paint36_linear_4436_10364)"/>
<path style="mix-blend-mode:multiply" opacity="0.5" fill-rule="evenodd" clip-rule="evenodd" d="M121.953 159.645C120.76 161.046 115.529 158.056 113.827 156.504L113.714 156.363L113.408 155.908L113.315 155.775L113.344 155.762L115.669 154.24L122.484 155.129L123.017 156.496L123.009 156.516C122.737 157.937 122.354 159.171 121.953 159.645Z" fill="url(#paint37_linear_4436_10364)"/>
<path fill-rule="evenodd" clip-rule="evenodd" d="M115.494 147.816C115.494 147.816 113.652 152.231 115.196 153.853C116.74 155.475 121.732 155.34 122.482 155.136C123.231 154.931 122.91 150.124 121.483 148.97C120.056 147.817 115.494 147.816 115.494 147.816Z" fill="url(#paint38_linear_4436_10364)"/>
<path style="mix-blend-mode:multiply" opacity="0.71" fill-rule="evenodd" clip-rule="evenodd" d="M189.083 244.575C189.083 244.575 187.116 243.36 185.339 243.104C183.561 242.847 177.594 250.391 177.094 251.684C175.136 256.743 181.552 257.573 183.515 257.79C185.479 258.008 187.389 254.345 187.389 254.345L189.083 244.575Z" fill="url(#paint39_linear_4436_10364)"/>
<path fill-rule="evenodd" clip-rule="evenodd" d="M179.534 250.923C178.505 249.399 182.786 245.12 184.745 243.91L184.911 243.837L185.432 243.661C185.481 243.638 185.537 243.63 185.591 243.639C187.769 243.347 191.434 245.628 192.638 247.818C192.638 247.818 190.808 252.961 189.121 254.097C188.04 254.839 184.734 253.924 182.28 252.774L182.259 252.766C180.964 252.131 179.882 251.437 179.534 250.923Z" fill="url(#paint40_linear_4436_10364)"/>
<path style="mix-blend-mode:multiply" opacity="0.5" fill-rule="evenodd" clip-rule="evenodd" d="M179.533 250.924C178.504 249.4 182.785 245.121 184.744 243.911L184.91 243.838L185.431 243.662L185.586 243.608L185.576 243.634L186.41 246.283L183.724 252.618L182.277 252.781L182.256 252.773C180.963 252.132 179.881 251.438 179.533 250.924Z" fill="url(#paint41_linear_4436_10364)"/>
<path fill-rule="evenodd" clip-rule="evenodd" d="M192.65 247.82C192.65 247.82 188.901 244.872 186.922 245.942C184.942 247.013 183.721 251.866 183.726 252.631C183.732 253.397 188.418 254.364 189.926 253.3C191.434 252.235 192.65 247.82 192.65 247.82Z" fill="url(#paint42_linear_4436_10364)"/>
<path fill-rule="evenodd" clip-rule="evenodd" d="M59.8584 185.872L69.965 190.622L86.3191 196.1L90.8052 199.932L85.5468 196.978L72.8678 197.887L71.5246 199.045L66.2581 195.177L59.8584 185.872Z" fill="url(#paint43_linear_4436_10364)"/>
<path fill-rule="evenodd" clip-rule="evenodd" d="M59.8584 185.872L66.4697 194.63L69.7527 195.345L74.5831 196.754L85.5468 196.978L72.8678 197.887L71.5246 199.045L65.3341 195.244L59.8584 185.872Z" fill="url(#paint44_linear_4436_10364)"/>
<path fill-rule="evenodd" clip-rule="evenodd" d="M127.997 69.2872L134.502 77.5842L144.224 80.488L159.147 75.6423L144.935 68.9422L135.051 67.7912L127.997 69.2872Z" fill="url(#paint45_linear_4436_10364)"/>
<path fill-rule="evenodd" clip-rule="evenodd" d="M128 69.2891L130.819 70.3788L135.546 73.5272L141.115 75.6795L148.11 75.6265L156.197 74.5026L159.147 75.643C159.147 75.643 150.729 79.5031 144.224 80.4887L134.502 77.5849L128 69.2891Z" fill="url(#paint46_linear_4436_10364)"/>
<path fill-rule="evenodd" clip-rule="evenodd" d="M29.5683 168.167L35.0274 165.944L39.1549 168.268C39.1549 168.268 38.6342 171.268 37.2307 173.24C35.8271 175.212 32.5394 172.372 32.5394 172.372L29.5683 168.167Z" fill="url(#paint47_linear_4436_10364)"/>
<path fill-rule="evenodd" clip-rule="evenodd" d="M29.5678 168.166C29.5678 168.166 33.0835 171.042 33.7483 171.298C34.413 171.555 36.0268 172.105 36.8901 171.84C37.7534 171.576 39.1359 168.281 39.1359 168.281C39.1359 168.281 38.4862 171.613 37.2117 173.252C37.2117 173.252 36.5004 174.813 33.7167 173.623L32.0821 172.339L29.5678 168.166Z" fill="url(#paint48_linear_4436_10364)"/>
<path fill-rule="evenodd" clip-rule="evenodd" d="M229.274 176.809C229.274 176.809 231.22 174.872 233.001 174.41C234.782 173.949 238.817 175.629 238.817 175.629L238.98 176.722C238.98 176.722 236.183 179.776 234.864 179.979C233.546 180.182 231.482 178.671 231.482 178.671L229.274 176.809Z" fill="url(#paint49_linear_4436_10364)"/>
<path fill-rule="evenodd" clip-rule="evenodd" d="M238.823 175.615C238.823 175.615 236.439 177.488 235.193 177.753C234.297 177.922 233.387 178.011 232.476 178.02C231.352 177.764 230.272 177.347 229.269 176.781C229.269 176.781 231.183 178.822 233.017 179.591C233.017 179.591 235.094 180.434 235.527 180.225C235.96 180.016 238.98 176.681 238.98 176.681L238.823 175.615Z" fill="url(#paint50_linear_4436_10364)"/>
</g>
<defs>
<linearGradient id="paint0_linear_4436_10364" x1="207.656" y1="244.398" x2="211.794" y2="165.63" gradientUnits="userSpaceOnUse">
<stop stop-color="#5B006F"/>
<stop offset="0.02" stop-color="#5C0270"/>
<stop offset="0.23" stop-color="#6A1A7C"/>
<stop offset="0.46" stop-color="#732C84"/>
<stop offset="0.7" stop-color="#793689"/>
<stop offset="0.99" stop-color="#7B398B"/>
</linearGradient>
<radialGradient id="paint1_radial_4436_10364" cx="0" cy="0" r="1" gradientUnits="userSpaceOnUse" gradientTransform="translate(116.466 95.7639) rotate(21.1326) scale(171.296 171.857)">
<stop offset="0.01" stop-color="#9D4863"/>
<stop offset="0.24" stop-color="#9A4563"/>
<stop offset="0.42" stop-color="#903D61"/>
<stop offset="0.58" stop-color="#802E5F"/>
<stop offset="0.73" stop-color="#68195B"/>
<stop offset="0.87" stop-color="#4C0057"/>
<stop offset="0.98" stop-color="#4C0086"/>
</radialGradient>
<linearGradient id="paint2_linear_4436_10364" x1="77.0559" y1="177.989" x2="118.521" y2="194.038" gradientUnits="userSpaceOnUse">
<stop stop-color="#CA528D"/>
<stop offset="1" stop-color="#8E7090"/>
</linearGradient>
<linearGradient id="paint3_linear_4436_10364" x1="188.555" y1="198.355" x2="228.049" y2="213.642" gradientUnits="userSpaceOnUse">
<stop stop-color="#CA528D"/>
<stop offset="1" stop-color="#8E7090"/>
</linearGradient>
<linearGradient id="paint4_linear_4436_10364" x1="241.226" y1="177.19" x2="255.786" y2="182.825" gradientUnits="userSpaceOnUse">
<stop stop-color="#CA528D"/>
<stop offset="1" stop-color="#8E7090"/>
</linearGradient>
<linearGradient id="paint5_linear_4436_10364" x1="80.9131" y1="77.3093" x2="254.731" y2="144.585" gradientUnits="userSpaceOnUse">
<stop stop-color="#CA528D"/>
<stop offset="1" stop-color="#8E7090"/>
</linearGradient>
<linearGradient id="paint6_linear_4436_10364" x1="91.1611" y1="50.8284" x2="254.144" y2="113.911" gradientUnits="userSpaceOnUse">
<stop offset="0.01" stop-color="#DE6863"/>
<stop offset="0.25" stop-color="#DB6563"/>
<stop offset="0.43" stop-color="#D35B62"/>
<stop offset="0.6" stop-color="#C54B60"/>
<stop offset="0.76" stop-color="#B1335D"/>
<stop offset="0.91" stop-color="#981659"/>
<stop offset="1" stop-color="#860057"/>
</linearGradient>
<linearGradient id="paint7_linear_4436_10364" x1="47.5065" y1="217.784" x2="86.2605" y2="117.521" gradientUnits="userSpaceOnUse">
<stop stop-color="#860057"/>
<stop offset="0.03" stop-color="#8C0757"/>
<stop offset="0.19" stop-color="#AA2456"/>
<stop offset="0.36" stop-color="#C13C55"/>
<stop offset="0.54" stop-color="#D14C54"/>
<stop offset="0.74" stop-color="#DB5654"/>
<stop offset="0.99" stop-color="#DE5954"/>
</linearGradient>
<linearGradient id="paint8_linear_4436_10364" x1="120.217" y1="233.943" x2="149.118" y2="245.13" gradientUnits="userSpaceOnUse">
<stop stop-color="#CA528D"/>
<stop offset="1" stop-color="#8E7090"/>
</linearGradient>
<linearGradient id="paint9_linear_4436_10364" x1="253.381" y1="175.15" x2="268.2" y2="136.809" gradientUnits="userSpaceOnUse">
<stop stop-color="#860057"/>
<stop offset="0.03" stop-color="#880557"/>
<stop offset="0.23" stop-color="#951C56"/>
<stop offset="0.45" stop-color="#9E2C55"/>
<stop offset="0.69" stop-color="#A33654"/>
<stop offset="0.99" stop-color="#A53954"/>
</linearGradient>
<linearGradient id="paint10_linear_4436_10364" x1="209.51" y1="207.766" x2="227.196" y2="162.01" gradientUnits="userSpaceOnUse">
<stop stop-color="#860057"/>
<stop offset="0.03" stop-color="#880557"/>
<stop offset="0.23" stop-color="#951C56"/>
<stop offset="0.45" stop-color="#9E2C55"/>
<stop offset="0.69" stop-color="#A33654"/>
<stop offset="0.99" stop-color="#A53954"/>
</linearGradient>
<linearGradient id="paint11_linear_4436_10364" x1="157.039" y1="82.9754" x2="175.009" y2="36.4853" gradientUnits="userSpaceOnUse">
<stop stop-color="#F49F57"/>
<stop offset="0.1" stop-color="#F79656"/>
<stop offset="0.35" stop-color="#FB8655"/>
<stop offset="0.63" stop-color="#FE7C54"/>
<stop offset="0.99" stop-color="#FF7954"/>
</linearGradient>
<linearGradient id="paint12_linear_4436_10364" x1="193.526" y1="120.14" x2="211.113" y2="74.6418" gradientUnits="userSpaceOnUse">
<stop stop-color="#F47D57"/>
<stop offset="0.4" stop-color="#FC7A55"/>
<stop offset="0.99" stop-color="#FF7954"/>
</linearGradient>
<linearGradient id="paint13_linear_4436_10364" x1="85.1544" y1="66.3504" x2="127.578" y2="82.7705" gradientUnits="userSpaceOnUse">
<stop stop-color="#F49F57"/>
<stop offset="0.1" stop-color="#F79656"/>
<stop offset="0.35" stop-color="#FB8655"/>
<stop offset="0.63" stop-color="#FE7C54"/>
<stop offset="0.99" stop-color="#FF7954"/>
</linearGradient>
<linearGradient id="paint14_linear_4436_10364" x1="209.556" y1="163.17" x2="244.136" y2="176.554" gradientUnits="userSpaceOnUse">
<stop offset="0.01" stop-color="#C75357"/>
<stop offset="0.13" stop-color="#D35856"/>
<stop offset="0.37" stop-color="#E35F55"/>
<stop offset="0.65" stop-color="#ED6454"/>
<stop offset="0.99" stop-color="#F06554"/>
</linearGradient>
<linearGradient id="paint15_linear_4436_10364" x1="36.732" y1="119.497" x2="91.4862" y2="140.689" gradientUnits="userSpaceOnUse">
<stop stop-color="#F49F57"/>
<stop offset="0.1" stop-color="#F79656"/>
<stop offset="0.35" stop-color="#FB8655"/>
<stop offset="0.63" stop-color="#FE7C54"/>
<stop offset="0.99" stop-color="#FF7954"/>
</linearGradient>
<linearGradient id="paint16_linear_4436_10364" x1="31.0888" y1="150.859" x2="76.5911" y2="168.471" gradientUnits="userSpaceOnUse">
<stop stop-color="#F49F57"/>
<stop offset="0.1" stop-color="#F79656"/>
<stop offset="0.35" stop-color="#FB8655"/>
<stop offset="0.63" stop-color="#FE7C54"/>
<stop offset="0.99" stop-color="#FF7954"/>
</linearGradient>
<linearGradient id="paint17_linear_4436_10364" x1="130.052" y1="244.849" x2="138.647" y2="222.613" gradientUnits="userSpaceOnUse">
<stop stop-color="#860057"/>
<stop offset="0.03" stop-color="#880557"/>
<stop offset="0.23" stop-color="#951C56"/>
<stop offset="0.45" stop-color="#9E2C55"/>
<stop offset="0.69" stop-color="#A33654"/>
<stop offset="0.99" stop-color="#A53954"/>
</linearGradient>
<linearGradient id="paint18_linear_4436_10364" x1="123.053" y1="223.645" x2="144.53" y2="231.958" gradientUnits="userSpaceOnUse">
<stop offset="0.01" stop-color="#C75357"/>
<stop offset="0.26" stop-color="#D15149"/>
<stop offset="0.58" stop-color="#D94F3F"/>
<stop offset="0.99" stop-color="#DB4F3C"/>
</linearGradient>
<linearGradient id="paint19_linear_4436_10364" x1="60.5691" y1="167.209" x2="108.45" y2="185.741" gradientUnits="userSpaceOnUse">
<stop stop-color="#CA528D"/>
<stop offset="1" stop-color="#8E7090"/>
</linearGradient>
<linearGradient id="paint20_linear_4436_10364" x1="134.613" y1="235.023" x2="147.179" y2="239.887" gradientUnits="userSpaceOnUse">
<stop stop-color="#CA528D"/>
<stop offset="1" stop-color="#8E7090"/>
</linearGradient>
<linearGradient id="paint21_linear_4436_10364" x1="217.116" y1="188.117" x2="238.613" y2="196.438" gradientUnits="userSpaceOnUse">
<stop stop-color="#CA528D"/>
<stop offset="1" stop-color="#8E7090"/>
</linearGradient>
<linearGradient id="paint22_linear_4436_10364" x1="257.371" y1="140.481" x2="265.609" y2="143.669" gradientUnits="userSpaceOnUse">
<stop stop-color="#CA528D"/>
<stop offset="1" stop-color="#8E7090"/>
</linearGradient>
<linearGradient id="paint23_linear_4436_10364" x1="250.168" y1="154.089" x2="276.154" y2="164.148" gradientUnits="userSpaceOnUse">
<stop stop-color="#CA528D"/>
<stop offset="1" stop-color="#8E7090"/>
</linearGradient>
<linearGradient id="paint24_linear_4436_10364" x1="248.849" y1="138.428" x2="264.85" y2="141.507" gradientUnits="userSpaceOnUse">
<stop stop-color="#F47D57"/>
<stop offset="0.4" stop-color="#FC7A55"/>
<stop offset="0.99" stop-color="#FF7954"/>
</linearGradient>
<linearGradient id="paint25_linear_4436_10364" x1="256.452" y1="142.033" x2="281.994" y2="146.947" gradientUnits="userSpaceOnUse">
<stop stop-color="#F47D57"/>
<stop offset="0.4" stop-color="#FC7A55"/>
<stop offset="0.99" stop-color="#FF7954"/>
</linearGradient>
<linearGradient id="paint26_linear_4436_10364" x1="162.888" y1="67.8659" x2="234.374" y2="95.5344" gradientUnits="userSpaceOnUse">
<stop stop-color="#CA528D"/>
<stop offset="1" stop-color="#8E7090"/>
</linearGradient>
<linearGradient id="paint27_linear_4436_10364" x1="170.515" y1="113.619" x2="188.59" y2="120.615" gradientUnits="userSpaceOnUse">
<stop stop-color="#CA528D"/>
<stop offset="1" stop-color="#8E7090"/>
</linearGradient>
<linearGradient id="paint28_linear_4436_10364" x1="207.945" y1="110.648" x2="249.224" y2="126.625" gradientUnits="userSpaceOnUse">
<stop stop-color="#CA528D"/>
<stop offset="1" stop-color="#8E7090"/>
</linearGradient>
<linearGradient id="paint29_linear_4436_10364" x1="87.8474" y1="82.1304" x2="118.446" y2="93.9733" gradientUnits="userSpaceOnUse">
<stop stop-color="#CA528D"/>
<stop offset="1" stop-color="#8E7090"/>
</linearGradient>
<linearGradient id="paint30_linear_4436_10364" x1="110.076" y1="132.321" x2="133.343" y2="141.327" gradientUnits="userSpaceOnUse">
<stop stop-color="#CA528D"/>
<stop offset="1" stop-color="#8E7090"/>
</linearGradient>
<linearGradient id="paint31_linear_4436_10364" x1="112.787" y1="153.51" x2="125.54" y2="158.446" gradientUnits="userSpaceOnUse">
<stop stop-color="#CA528D"/>
<stop offset="1" stop-color="#8E7090"/>
</linearGradient>
<linearGradient id="paint32_linear_4436_10364" x1="118.455" y1="140.169" x2="126.415" y2="119.574" gradientUnits="userSpaceOnUse">
<stop stop-color="#A20057"/>
<stop offset="0.28" stop-color="#BA2456"/>
<stop offset="0.57" stop-color="#CE4155"/>
<stop offset="0.82" stop-color="#DA5354"/>
<stop offset="0.99" stop-color="#DE5954"/>
</linearGradient>
<linearGradient id="paint33_linear_4436_10364" x1="116.573" y1="158.631" x2="120.46" y2="148.575" gradientUnits="userSpaceOnUse">
<stop stop-color="#A20057"/>
<stop offset="0.28" stop-color="#BA2456"/>
<stop offset="0.57" stop-color="#CE4155"/>
<stop offset="0.82" stop-color="#DA5354"/>
<stop offset="0.99" stop-color="#DE5954"/>
</linearGradient>
<linearGradient id="paint34_linear_4436_10364" x1="123.535" y1="133.942" x2="134.448" y2="138.166" gradientUnits="userSpaceOnUse">
<stop stop-color="#CA528D"/>
<stop offset="1" stop-color="#8E7090"/>
</linearGradient>
<linearGradient id="paint35_linear_4436_10364" x1="61.0601" y1="98.6834" x2="68.5287" y2="79.3608" gradientUnits="userSpaceOnUse">
<stop stop-color="#A20057"/>
<stop offset="0.28" stop-color="#BA2456"/>
<stop offset="0.57" stop-color="#CE4155"/>
<stop offset="0.82" stop-color="#DA5354"/>
<stop offset="0.99" stop-color="#DE5954"/>
</linearGradient>
<linearGradient id="paint36_linear_4436_10364" x1="121.835" y1="131.425" x2="126.852" y2="118.444" gradientUnits="userSpaceOnUse">
<stop stop-color="#F49F57"/>
<stop offset="0.1" stop-color="#F79656"/>
<stop offset="0.35" stop-color="#FB8655"/>
<stop offset="0.63" stop-color="#FE7C54"/>
<stop offset="0.99" stop-color="#FF7954"/>
</linearGradient>
<linearGradient id="paint37_linear_4436_10364" x1="113.752" y1="154.646" x2="122.672" y2="158.098" gradientUnits="userSpaceOnUse">
<stop stop-color="#CA528D"/>
<stop offset="1" stop-color="#8E7090"/>
</linearGradient>
<linearGradient id="paint38_linear_4436_10364" x1="117.646" y1="155.082" x2="120.243" y2="148.363" gradientUnits="userSpaceOnUse">
<stop stop-color="#F47D57"/>
<stop offset="0.4" stop-color="#FC7A55"/>
<stop offset="0.99" stop-color="#FF7954"/>
</linearGradient>
<linearGradient id="paint39_linear_4436_10364" x1="188.623" y1="244.267" x2="179.193" y2="256.925" gradientUnits="userSpaceOnUse">
<stop stop-color="#CA528D"/>
<stop offset="1" stop-color="#8E7090"/>
</linearGradient>
<linearGradient id="paint40_linear_4436_10364" x1="181.878" y1="245.976" x2="190.505" y2="252.385" gradientUnits="userSpaceOnUse">
<stop stop-color="#A20057"/>
<stop offset="0.28" stop-color="#BA2456"/>
<stop offset="0.57" stop-color="#CE4155"/>
<stop offset="0.82" stop-color="#DA5354"/>
<stop offset="0.99" stop-color="#DE5954"/>
</linearGradient>
<linearGradient id="paint41_linear_4436_10364" x1="186.472" y1="244.305" x2="180.74" y2="252" gradientUnits="userSpaceOnUse">
<stop stop-color="#CA528D"/>
<stop offset="1" stop-color="#8E7090"/>
</linearGradient>
<linearGradient id="paint42_linear_4436_10364" x1="185" y1="247.95" x2="190.766" y2="252.234" gradientUnits="userSpaceOnUse">
<stop stop-color="#F47D57"/>
<stop offset="0.4" stop-color="#FC7A55"/>
<stop offset="0.99" stop-color="#FF7954"/>
</linearGradient>
<linearGradient id="paint43_linear_4436_10364" x1="58.3994" y1="189.642" x2="90.0469" y2="201.891" gradientUnits="userSpaceOnUse">
<stop stop-color="#860057"/>
<stop offset="0.21" stop-color="#8A0A4D"/>
<stop offset="0.55" stop-color="#8E1343"/>
<stop offset="0.99" stop-color="#8F1640"/>
</linearGradient>
<linearGradient id="paint44_linear_4436_10364" x1="58.3994" y1="189.642" x2="84.4793" y2="199.736" gradientUnits="userSpaceOnUse">
<stop stop-color="#F49F57"/>
<stop offset="0.1" stop-color="#F79656"/>
<stop offset="0.35" stop-color="#FB8655"/>
<stop offset="0.63" stop-color="#FE7C54"/>
<stop offset="0.99" stop-color="#FF7954"/>
</linearGradient>
<linearGradient id="paint45_linear_4436_10364" x1="140.668" y1="79.9675" x2="144.93" y2="68.9402" gradientUnits="userSpaceOnUse">
<stop stop-color="#860057"/>
<stop offset="0.03" stop-color="#880557"/>
<stop offset="0.23" stop-color="#951C56"/>
<stop offset="0.45" stop-color="#9E2C55"/>
<stop offset="0.69" stop-color="#A33654"/>
<stop offset="0.99" stop-color="#A53954"/>
</linearGradient>
<linearGradient id="paint46_linear_4436_10364" x1="127.984" y1="69.33" x2="157.212" y2="80.6427" gradientUnits="userSpaceOnUse">
<stop stop-color="#F49F57"/>
<stop offset="0.1" stop-color="#F79656"/>
<stop offset="0.35" stop-color="#FB8655"/>
<stop offset="0.63" stop-color="#FE7C54"/>
<stop offset="0.99" stop-color="#FF7954"/>
</linearGradient>
<linearGradient id="paint47_linear_4436_10364" x1="32.6757" y1="172.929" x2="35.3281" y2="166.067" gradientUnits="userSpaceOnUse">
<stop stop-color="#860057"/>
<stop offset="0.03" stop-color="#880557"/>
<stop offset="0.23" stop-color="#951C56"/>
<stop offset="0.45" stop-color="#9E2C55"/>
<stop offset="0.69" stop-color="#A33654"/>
<stop offset="0.99" stop-color="#A53954"/>
</linearGradient>
<linearGradient id="paint48_linear_4436_10364" x1="29.5248" y1="168.277" x2="38.1355" y2="171.61" gradientUnits="userSpaceOnUse">
<stop stop-color="#F49F57"/>
<stop offset="0.1" stop-color="#F79656"/>
<stop offset="0.35" stop-color="#FB8655"/>
<stop offset="0.63" stop-color="#FE7C54"/>
<stop offset="0.99" stop-color="#FF7954"/>
</linearGradient>
<linearGradient id="paint49_linear_4436_10364" x1="229.87" y1="175.268" x2="238.283" y2="178.524" gradientUnits="userSpaceOnUse">
<stop stop-color="#860057"/>
<stop offset="0.21" stop-color="#8A0A4D"/>
<stop offset="0.55" stop-color="#8E1343"/>
<stop offset="0.99" stop-color="#8F1640"/>
</linearGradient>
<linearGradient id="paint50_linear_4436_10364" x1="229.87" y1="175.271" x2="238.282" y2="178.527" gradientUnits="userSpaceOnUse">
<stop offset="0.01" stop-color="#C75357"/>
<stop offset="0.13" stop-color="#D35856"/>
<stop offset="0.37" stop-color="#E35F55"/>
<stop offset="0.65" stop-color="#ED6454"/>
<stop offset="0.99" stop-color="#F06554"/>
</linearGradient>
<clipPath id="clip0_4436_10364">
<rect width="239.398" height="226.572" fill="white" transform="matrix(0.932749 0.360527 -0.360954 0.932584 82.6748 0.795898)"/>
</clipPath>
</defs>
</svg>
