<svg width="658" height="1026" viewBox="0 0 658 1026" fill="none" xmlns="http://www.w3.org/2000/svg">
<path opacity="0.4" d="M522.624 0.0839844C529.035 0.201856 535.417 0.438208 541.769 0.789062L541.715 1.78613C548.113 2.13961 554.481 2.61012 560.814 3.19629L560.906 2.20312C567.299 2.79473 573.657 3.50331 579.979 4.32715L579.851 5.31641C586.197 6.14339 592.507 7.0865 598.778 8.14355L598.943 7.16016C605.262 8.22517 611.541 9.40559 617.778 10.6992L617.576 11.6758C623.844 12.9758 630.071 14.3902 636.253 15.917L636.491 14.9482C642.716 16.4855 648.896 18.1364 655.028 19.8984L654.754 20.8574C660.899 22.6232 666.998 24.501 673.046 26.4883L673.357 25.54C679.441 27.5388 685.474 29.6486 691.454 31.8662L691.107 32.8027C697.102 35.0257 703.044 37.3574 708.931 39.7959L709.312 38.8721C715.23 41.3235 721.092 43.8828 726.896 46.5469H726.896L726.479 47.4551C732.287 50.1208 738.036 52.8925 743.724 55.7666L744.174 54.875C749.886 57.7613 755.536 60.7517 761.123 63.8428L760.641 64.7168C766.229 67.8089 771.754 71.0025 777.212 74.2949L777.727 73.4395C783.208 76.7458 788.622 80.1514 793.967 83.6543L793.42 84.4893C798.761 87.9898 804.033 91.588 809.232 95.2803L809.812 94.4648V94.4639C815.027 98.1675 820.17 101.967 825.238 105.858L824.631 106.651C829.694 110.539 834.683 114.518 839.595 118.588L840.23 117.818C845.156 121.899 850.003 126.071 854.771 130.33L854.106 131.074C858.866 135.326 863.546 139.667 868.144 144.092L868.836 143.371C873.443 147.805 877.967 152.325 882.405 156.927L881.687 157.621C886.116 162.214 890.46 166.889 894.717 171.645L895.46 170.979C899.724 175.742 903.9 180.585 907.986 185.506L907.219 186.144C911.293 191.051 915.278 196.036 919.17 201.096L919.961 200.486C923.857 205.551 927.662 210.69 931.37 215.902H931.371L930.557 216.482C934.254 221.679 937.856 226.947 941.361 232.285L942.196 231.736C945.704 237.078 949.114 242.489 952.425 247.967L951.571 248.483C954.869 253.939 958.067 259.46 961.164 265.046L962.036 264.562C965.132 270.147 968.128 275.794 971.019 281.504L970.129 281.956C973.008 287.642 975.783 293.388 978.453 299.193L979.361 298.775C982.03 304.577 984.593 310.437 987.049 316.353L986.126 316.736C988.569 322.621 990.905 328.561 993.132 334.554L994.067 334.205C996.289 340.184 998.401 346.217 1000.4 352.299L999.457 352.611C1001.45 358.659 1003.33 364.757 1005.1 370.901L1006.06 370.624C1007.82 376.756 1009.48 382.935 1011.02 389.159L1010.05 389.399C1011.58 395.581 1013 401.806 1014.3 408.073L1015.27 407.87C1016.57 414.107 1017.75 420.385 1018.82 426.703L1017.84 426.87C1018.9 433.141 1019.84 439.451 1020.67 445.797L1021.66 445.667C1022.48 451.989 1023.19 458.347 1023.79 464.739L1022.79 464.832C1023.38 471.166 1023.85 477.533 1024.21 483.932L1025.2 483.876C1025.55 490.228 1025.79 496.61 1025.91 503.021L1024.91 503.04C1024.97 506.235 1025 509.437 1025 512.646C1025 515.856 1024.97 519.058 1024.91 522.253L1025.91 522.271C1025.79 528.682 1025.55 535.064 1025.2 541.415L1024.21 541.361C1023.85 547.76 1023.38 554.127 1022.79 560.461L1023.79 560.552C1023.19 566.944 1022.48 573.303 1021.66 579.625L1020.67 579.496C1019.84 585.842 1018.9 592.152 1017.84 598.423L1018.82 598.588C1017.75 604.906 1016.57 611.185 1015.27 617.422L1014.3 617.219C1013 623.486 1011.58 629.712 1010.05 635.894L1011.02 636.133C1009.48 642.357 1007.82 648.536 1006.06 654.668L1005.1 654.392C1003.33 660.536 1001.45 666.633 999.457 672.681L1000.4 672.993C998.401 679.075 996.289 685.107 994.067 691.086L993.132 690.739C990.905 696.732 988.569 702.672 986.126 708.557L987.049 708.939C984.593 714.855 982.03 720.715 979.361 726.517L978.453 726.1C975.783 731.905 973.008 737.651 970.129 743.337L971.019 743.788C968.128 749.498 965.132 755.145 962.036 760.729L961.164 760.246C958.067 765.832 954.869 771.354 951.571 776.81L952.425 777.325C949.114 782.803 945.703 788.214 942.195 793.556L941.361 793.008C937.856 798.346 934.254 803.614 930.557 808.811L931.37 809.39C927.662 814.602 923.857 819.741 919.961 824.806L919.17 824.197C915.278 829.257 911.293 834.242 907.219 839.149L907.986 839.786C903.9 844.707 899.724 849.55 895.46 854.313L894.717 853.648C890.46 858.404 886.115 863.079 881.686 867.672L882.405 868.365C877.967 872.967 873.443 877.487 868.836 881.921L868.144 881.201C863.546 885.626 858.866 889.967 854.106 894.219L854.771 894.962C850.003 899.221 845.156 903.393 840.23 907.474L839.595 906.705C834.683 910.775 829.694 914.754 824.631 918.642L825.238 919.433C820.169 923.324 815.026 927.123 809.811 930.827L809.232 930.013C804.033 933.705 798.761 937.303 793.42 940.804L793.967 941.638C788.622 945.141 783.208 948.545 777.727 951.852L777.212 950.998C771.754 954.29 766.229 957.484 760.641 960.576L761.123 961.449C755.536 964.54 749.886 967.531 744.174 970.417L743.724 969.526C738.036 972.4 732.287 975.172 726.479 977.838L726.896 978.745C721.092 981.409 715.23 983.968 709.312 986.42L708.931 985.497C703.044 987.936 697.102 990.267 691.107 992.49L691.454 993.426C685.474 995.643 679.441 997.752 673.357 999.751L673.046 998.804C666.998 1000.79 660.899 1002.67 654.754 1004.43L655.028 1005.39C648.896 1007.16 642.716 1008.81 636.491 1010.34L636.253 1009.38C630.071 1010.9 623.845 1012.32 617.576 1013.62L617.778 1014.59C611.541 1015.89 605.262 1017.07 598.943 1018.13L598.778 1017.15C592.507 1018.21 586.197 1019.15 579.851 1019.98L579.979 1020.96C573.657 1021.79 567.299 1022.5 560.906 1023.09L560.815 1022.1C554.482 1022.68 548.114 1023.15 541.715 1023.51L541.77 1024.5C535.418 1024.85 529.035 1025.09 522.624 1025.21L522.606 1024.21C519.411 1024.27 516.209 1024.3 513 1024.3C509.791 1024.3 506.589 1024.27 503.394 1024.21L503.375 1025.21C496.964 1025.09 490.582 1024.85 484.23 1024.5L484.285 1023.51C477.887 1023.15 471.519 1022.68 465.186 1022.1L465.093 1023.09C458.7 1022.5 452.342 1021.79 446.02 1020.96L446.149 1019.98C439.803 1019.15 433.493 1018.21 427.222 1017.15L427.056 1018.13C420.737 1017.07 414.458 1015.89 408.221 1014.59L408.424 1013.62C402.156 1012.32 395.929 1010.9 389.747 1009.38L389.508 1010.34C383.283 1008.81 377.103 1007.16 370.971 1005.39L371.246 1004.43C365.101 1002.67 359.002 1000.79 352.954 998.804L352.642 999.751C346.558 997.752 340.525 995.643 334.545 993.426L334.893 992.49C328.898 990.267 322.956 987.936 317.069 985.497L316.687 986.42C310.769 983.968 304.907 981.409 299.104 978.745L299.521 977.838C293.713 975.172 287.964 972.4 282.276 969.526L281.825 970.417C276.113 967.531 270.463 964.54 264.876 961.449L265.359 960.576C259.771 957.484 254.246 954.29 248.788 950.998L248.272 951.852C242.791 948.545 237.377 945.141 232.032 941.638L232.58 940.804C227.239 937.303 221.967 933.705 216.768 930.013L216.188 930.827C210.973 927.123 205.83 923.324 200.761 919.433L201.369 918.642C196.306 914.754 191.317 910.775 186.405 906.705L185.769 907.474C180.843 903.393 175.996 899.221 171.229 894.962L171.894 894.219C167.134 889.967 162.454 885.626 157.856 881.201L157.163 881.921C152.556 877.487 148.032 872.967 143.594 868.365L144.313 867.672C139.884 863.079 135.54 858.404 131.283 853.648L130.539 854.313C126.275 849.55 122.099 844.707 118.013 839.786L118.781 839.149C114.707 834.242 110.722 829.257 106.83 824.197L106.038 824.805C102.142 819.74 98.3364 814.602 94.6279 809.39H94.6289L95.4434 808.811C91.746 803.614 88.1441 798.346 84.6387 793.008L83.8037 793.556C80.2958 788.214 76.8853 782.803 73.5742 777.325L74.4287 776.81C71.1312 771.354 67.9328 765.832 64.8359 760.246L63.9629 760.729C60.8669 755.145 57.8714 749.498 54.9805 743.788L55.8711 743.337C52.9923 737.651 50.217 731.905 47.5469 726.1L46.6377 726.517C43.9692 720.715 41.4059 714.855 38.9502 708.939L39.874 708.557C37.4313 702.672 35.095 696.732 32.8682 690.739L31.9316 691.086C29.71 685.107 27.5981 679.075 25.5957 672.993L26.543 672.681C24.552 666.633 22.6704 660.536 20.9014 654.392L19.9424 654.668C18.1769 648.536 16.5237 642.357 14.9834 636.133L15.9521 635.894C14.4225 629.712 13.0046 623.487 11.7021 617.22L10.7246 617.422C9.42849 611.185 8.24677 604.907 7.17969 598.589L8.16309 598.423C7.10392 592.152 6.15872 585.842 5.33008 579.496L4.34082 579.625C3.5153 573.303 2.80472 566.944 2.21191 560.552L3.20605 560.461C2.61869 554.127 2.14717 547.76 1.79297 541.361L0.795898 541.416C0.444296 535.064 0.206988 528.682 0.0888672 522.271L1.08887 522.253C1.04471 519.857 1.01693 517.456 1.00586 515.052L1 512.646C1 509.437 1.03 506.235 1.08887 503.04L0.0888672 503.021C0.206992 496.61 0.444315 490.228 0.795898 483.877L1.79297 483.932C2.14717 477.533 2.61869 471.166 3.20605 464.832L2.21191 464.74C2.80473 458.348 3.51528 451.989 4.34082 445.667L5.33008 445.797C6.15872 439.451 7.10392 433.141 8.16309 426.87L7.17871 426.704C8.24585 420.386 9.4284 414.107 10.7246 407.87L11.7021 408.073C13.0046 401.806 14.4225 395.581 15.9521 389.399L14.9834 389.159C16.5237 382.935 18.1769 376.756 19.9424 370.624L20.9014 370.901C22.6704 364.757 24.552 358.66 26.543 352.612L25.5957 352.299C27.5981 346.217 29.71 340.185 31.9316 334.206L32.8682 334.554C35.095 328.561 37.4313 322.621 39.874 316.736L38.9502 316.353C41.4059 310.437 43.9692 304.577 46.6377 298.775L47.5469 299.193C50.217 293.388 52.9923 287.642 55.8711 281.956L54.9805 281.504C57.8714 275.794 60.8669 270.147 63.9629 264.562L64.8359 265.046C67.9327 259.46 71.1313 253.939 74.4287 248.483L73.5742 247.967C76.8852 242.489 80.2949 237.078 83.8027 231.736L84.6387 232.285C88.1441 226.947 91.746 221.679 95.4434 216.482L94.6289 215.902C98.3374 210.69 102.142 205.551 106.038 200.486L106.83 201.096C110.722 196.036 114.707 191.051 118.781 186.144L118.013 185.506C122.099 180.585 126.275 175.742 130.539 170.979L131.283 171.645C135.54 166.889 139.885 162.213 144.314 157.62L143.594 156.927C148.032 152.325 152.556 147.805 157.163 143.371L157.856 144.092C162.454 139.667 167.134 135.326 171.894 131.074L171.229 130.33C175.996 126.071 180.843 121.899 185.769 117.818L186.405 118.588C191.317 114.518 196.306 110.539 201.369 106.651L200.761 105.858C205.829 101.967 210.972 98.1675 216.188 94.4639L216.188 94.4648L216.768 95.2803C221.967 91.588 227.239 87.9898 232.58 84.4893L232.032 83.6543C237.377 80.1514 242.791 76.7458 248.272 73.4395L248.788 74.2949C254.246 71.0025 259.771 67.8089 265.359 64.7168L264.876 63.8428C270.463 60.7517 276.113 57.7613 281.825 54.875L282.276 55.7666C287.964 52.8925 293.713 50.1208 299.521 47.4551L299.104 46.5469C304.907 43.8828 310.769 41.3235 316.687 38.8721L317.069 39.7959C322.956 37.3574 328.898 35.0257 334.893 32.8027L334.545 31.8662C340.525 29.6486 346.558 27.5388 352.642 25.54L352.954 26.4883C359.002 24.501 365.101 22.6241 371.246 20.8584L370.971 19.8984C377.103 18.1363 383.283 16.4855 389.508 14.9482L389.747 15.917C395.929 14.3902 402.156 12.9758 408.424 11.6758L408.221 10.6992C414.458 9.40558 420.737 8.22518 427.056 7.16016L427.222 8.14453C433.493 7.08748 439.803 6.14437 446.149 5.31738L446.02 4.32715C452.342 3.5033 458.7 2.79474 465.093 2.20312L465.185 3.19629C471.518 2.6101 477.886 2.13962 484.285 1.78613L484.229 0.790039C490.581 0.439142 496.964 0.201875 503.375 0.0839844L503.394 1.08301C506.589 1.02426 509.791 0.995117 513 0.995117C516.209 0.995117 519.411 1.02426 522.606 1.08301L522.624 0.0839844Z" stroke="white" stroke-width="2" stroke-dasharray="19 19"/>
</svg>
