<svg width="658" height="1887" viewBox="0 0 658 1887" fill="none" xmlns="http://www.w3.org/2000/svg">
<path opacity="0.4" d="M570.513 547.393C573.175 553.136 575.781 558.912 578.33 564.718L577.416 565.12C579.959 570.912 582.445 576.734 584.874 582.586L585.797 582.202C588.222 588.044 590.59 593.916 592.9 599.817H592.901L591.971 600.182C594.279 606.076 596.529 612 598.721 617.951L599.657 617.605C601.842 623.537 603.968 629.496 606.036 635.483H606.037L605.092 635.81C607.157 641.788 609.163 647.793 611.11 653.825L612.061 653.519C614.004 659.54 615.89 665.588 617.716 671.662L616.759 671.95C618.577 678 620.336 684.076 622.035 690.177L622.997 689.908C624.698 696.014 626.338 702.145 627.918 708.3L626.95 708.548C628.519 714.658 630.027 720.792 631.476 726.949L632.448 726.72C633.898 732.883 635.287 739.071 636.615 745.28H636.616L635.639 745.489C636.96 751.666 638.221 757.865 639.42 764.086L640.4 763.897C641.597 770.105 642.733 776.334 643.808 782.585H643.809L642.823 782.754C643.896 788.993 644.906 795.254 645.855 801.534L646.843 801.385C647.785 807.623 648.669 813.881 649.488 820.159V820.16L648.497 820.29C649.316 826.562 650.073 832.853 650.768 839.163L651.761 839.053C652.453 845.334 653.082 851.635 653.649 857.953L652.655 858.043C653.22 864.329 653.723 870.634 654.164 876.955L655.161 876.885V876.884C655.602 883.208 655.979 889.551 656.295 895.909L655.298 895.959C655.61 902.247 655.861 908.551 656.049 914.87L657.047 914.841C657.235 921.167 657.361 927.509 657.424 933.866L656.426 933.876C656.457 937.051 656.473 940.23 656.473 943.413C656.473 946.596 656.457 949.774 656.426 952.949L657.424 952.958C657.361 959.315 657.235 965.657 657.047 971.983L656.049 971.955C655.861 978.275 655.61 984.579 655.298 990.867L656.295 990.915C655.979 997.274 655.602 1003.62 655.161 1009.94L654.164 1009.87C653.723 1016.19 653.22 1022.5 652.655 1028.78L653.649 1028.87C653.082 1035.19 652.453 1041.49 651.761 1047.77L650.768 1047.66C650.073 1053.97 649.316 1060.26 648.497 1066.54L649.488 1066.67C648.669 1072.94 647.785 1079.2 646.843 1085.44L645.855 1085.29C644.906 1091.57 643.896 1097.83 642.823 1104.07L643.808 1104.24C642.733 1110.49 641.597 1116.72 640.4 1122.93L639.42 1122.74C638.221 1128.96 636.96 1135.16 635.639 1141.34L636.615 1141.54C635.287 1147.75 633.898 1153.94 632.448 1160.11L631.476 1159.88C630.027 1166.03 628.519 1172.17 626.95 1178.28L627.918 1178.53C626.338 1184.68 624.698 1190.81 622.997 1196.92L622.035 1196.65C620.336 1202.75 618.577 1208.83 616.759 1214.88L617.716 1215.16C615.89 1221.24 614.005 1227.28 612.061 1233.31L611.11 1233C609.163 1239.03 607.157 1245.04 605.092 1251.02L606.036 1251.34C603.968 1257.33 601.842 1263.29 599.657 1269.22L598.72 1268.88C596.528 1274.83 594.279 1280.75 591.971 1286.64L592.9 1287.01C590.59 1292.91 588.222 1298.78 585.797 1304.62L584.874 1304.24C582.445 1310.09 579.959 1315.91 577.416 1321.71L578.33 1322.11C575.781 1327.91 573.175 1333.69 570.513 1339.43L569.606 1339.01C566.945 1344.76 564.226 1350.47 561.453 1356.15L562.351 1356.58C559.567 1362.29 556.727 1367.95 553.833 1373.59L552.945 1373.13C550.054 1378.76 547.107 1384.36 544.106 1389.92L544.986 1390.39C541.975 1395.98 538.909 1401.53 535.789 1407.04L534.92 1406.55C531.802 1412.06 528.631 1417.53 525.406 1422.97L526.265 1423.48C523.033 1428.94 519.749 1434.35 516.412 1439.73L515.563 1439.21C512.225 1444.59 508.834 1449.93 505.391 1455.24L506.229 1455.79C502.782 1461.1 499.283 1466.38 495.732 1471.62L494.906 1471.06C491.354 1476.3 487.749 1481.51 484.095 1486.68L484.911 1487.25C481.253 1492.43 477.542 1497.56 473.783 1502.66L472.979 1502.06C469.221 1507.16 465.413 1512.21 461.555 1517.23L462.346 1517.84C458.482 1522.86 454.569 1527.84 450.607 1532.78L449.828 1532.16C445.869 1537.1 441.862 1542 437.807 1546.85L438.573 1547.49C434.511 1552.36 430.4 1557.18 426.242 1561.96L425.489 1561.3C421.336 1566.08 417.136 1570.81 412.889 1575.5L413.629 1576.17C409.376 1580.87 405.076 1585.52 400.73 1590.13L400.004 1589.45C395.663 1594.05 391.275 1598.61 386.843 1603.13L387.556 1603.83C383.119 1608.35 378.637 1612.83 374.11 1617.26L373.412 1616.55C368.89 1620.98 364.324 1625.36 359.714 1629.7L360.398 1630.42C355.784 1634.76 351.126 1639.06 346.425 1643.31L345.755 1642.57C341.061 1646.81 336.323 1651 331.544 1655.15L332.198 1655.91C327.414 1660.06 322.587 1664.17 317.719 1668.22L317.08 1667.46C312.22 1671.51 307.319 1675.51 302.377 1679.46L303 1680.24C298.054 1684.2 293.068 1688.11 288.041 1691.97L287.433 1691.17C282.414 1695.03 277.355 1698.83 272.257 1702.58L272.849 1703.39C267.75 1707.14 262.611 1710.85 257.435 1714.5L256.859 1713.69C251.688 1717.34 246.478 1720.93 241.23 1724.48L241.79 1725.31C236.546 1728.85 231.265 1732.35 225.947 1735.79L225.405 1734.95C220.093 1738.39 214.744 1741.78 209.359 1745.11L209.885 1745.96C204.501 1749.29 199.082 1752.57 193.627 1755.8L193.119 1754.94C187.676 1758.16 182.197 1761.32 176.684 1764.44L177.174 1765.31C171.658 1768.42 166.107 1771.48 160.522 1774.49L160.05 1773.61C154.485 1776.6 148.886 1779.55 143.254 1782.43L143.709 1783.32C138.071 1786.21 132.4 1789.05 126.697 1791.83L126.261 1790.93C120.579 1793.7 114.866 1796.41 109.121 1799.07L109.54 1799.97C103.794 1802.63 98.016 1805.23 92.208 1807.78L91.8076 1806.86C86.0143 1809.4 80.1904 1811.88 74.3369 1814.31L74.7188 1815.23C68.8746 1817.65 63.0013 1820.02 57.0986 1822.32L56.7354 1821.39C50.8392 1823.7 44.9142 1825.94 38.9609 1828.13L39.3047 1829.07C33.372 1831.25 27.4117 1833.37 21.4238 1835.43L21.0986 1834.49C15.1192 1836.55 9.11233 1838.55 3.0791 1840.5L3.38477 1841.45C-2.6382 1843.39 -8.68754 1845.27 -14.7627 1847.09L-15.0488 1846.13C-21.0999 1847.95 -27.1768 1849.71 -33.2783 1851.4L-33.0107 1852.36C-39.1173 1854.06 -45.2486 1855.7 -51.4043 1857.28L-51.6514 1856.31C-57.762 1857.87 -63.8968 1859.38 -70.0547 1860.82L-69.8271 1861.8C-75.9915 1863.24 -82.1794 1864.63 -88.3896 1865.96L-88.5977 1864.98C-94.7747 1866.3 -100.974 1867.56 -107.195 1868.75L-107.008 1869.73C-113.216 1870.93 -119.445 1872.06 -125.696 1873.13L-125.865 1872.15C-132.105 1873.22 -138.365 1874.23 -144.646 1875.18L-144.497 1876.16C-150.736 1877.1 -156.995 1877.98 -163.273 1878.8L-163.402 1877.81C-169.674 1878.63 -175.966 1879.38 -182.276 1880.08L-182.168 1881.07C-188.449 1881.76 -194.749 1882.39 -201.067 1882.96L-201.156 1881.96C-207.443 1882.53 -213.747 1883.03 -220.068 1883.47L-219.999 1884.46C-226.324 1884.9 -232.666 1885.28 -239.024 1885.6L-239.073 1884.6C-245.361 1884.91 -251.665 1885.16 -257.984 1885.35L-257.956 1886.35C-264.283 1886.53 -270.624 1886.66 -276.981 1886.72L-276.99 1885.72C-280.165 1885.76 -283.345 1885.77 -286.527 1885.77C-289.71 1885.77 -292.889 1885.76 -296.063 1885.72L-296.073 1886.72C-302.43 1886.66 -308.772 1886.53 -315.099 1886.35L-315.069 1885.35C-321.389 1885.16 -327.694 1884.91 -333.981 1884.6L-334.03 1885.6C-340.389 1885.28 -346.731 1884.9 -353.056 1884.46H-353.055L-352.985 1883.47C-359.307 1883.03 -365.612 1882.53 -371.898 1881.96L-371.987 1882.96C-378.306 1882.39 -384.606 1881.76 -390.888 1881.07L-390.778 1880.08C-397.088 1879.38 -403.38 1878.63 -409.651 1877.81L-409.781 1878.8C-416.06 1877.98 -422.319 1877.1 -428.559 1876.16L-428.409 1875.18C-434.69 1874.23 -440.95 1873.22 -447.189 1872.15L-447.358 1873.13C-453.61 1872.06 -459.839 1870.93 -466.048 1869.73L-465.858 1868.75C-472.08 1867.56 -478.28 1866.3 -484.457 1864.98L-484.666 1865.96C-490.876 1864.63 -497.064 1863.24 -503.229 1861.8L-503 1860.82C-509.158 1859.38 -515.293 1857.87 -521.403 1856.31L-521.651 1857.28C-527.807 1855.7 -533.938 1854.06 -540.045 1852.36L-539.776 1851.4C-545.878 1849.71 -551.955 1847.95 -558.006 1846.13L-558.294 1847.09C-564.369 1845.27 -570.418 1843.39 -576.44 1841.45L-576.134 1840.5C-582.167 1838.55 -588.174 1836.55 -594.153 1834.49L-594.479 1835.43C-600.467 1833.37 -606.428 1831.25 -612.36 1829.07L-612.016 1828.13C-617.969 1825.94 -623.895 1823.7 -629.791 1821.39L-630.154 1822.32C-636.057 1820.02 -641.93 1817.65 -647.774 1815.23L-647.392 1814.31C-653.245 1811.88 -659.069 1809.4 -664.862 1806.86L-665.264 1807.78C-671.072 1805.23 -676.85 1802.63 -682.597 1799.97L-682.176 1799.07C-687.921 1796.41 -693.634 1793.7 -699.315 1790.93L-699.754 1791.82C-705.457 1789.05 -711.127 1786.21 -716.765 1783.32L-716.309 1782.43C-721.94 1779.55 -727.539 1776.6 -733.104 1773.61L-733.579 1774.49C-739.164 1771.48 -744.714 1768.42 -750.23 1765.31L-749.738 1764.44C-755.251 1761.32 -760.73 1758.16 -766.174 1754.94L-766.684 1755.8C-772.138 1752.57 -777.557 1749.29 -782.94 1745.96L-782.414 1745.11C-787.799 1741.78 -793.148 1738.39 -798.46 1734.95L-799.004 1735.79C-804.322 1732.35 -809.603 1728.85 -814.847 1725.31L-814.286 1724.48C-819.533 1720.93 -824.743 1717.33 -829.914 1713.68L-830.491 1714.5C-835.668 1710.85 -840.806 1707.14 -845.905 1703.39L-845.312 1702.58C-850.41 1698.83 -855.469 1695.03 -860.488 1691.17L-861.097 1691.97C-866.123 1688.11 -871.111 1684.2 -876.057 1680.24L-875.432 1679.46C-880.374 1675.51 -885.275 1671.51 -890.135 1667.46L-890.775 1668.22C-895.643 1664.16 -900.471 1660.06 -905.255 1655.91L-904.6 1655.15C-909.379 1651 -914.116 1646.81 -918.811 1642.57L-919.48 1643.31C-924.182 1639.06 -928.84 1634.76 -933.454 1630.42L-932.77 1629.7C-937.379 1625.36 -941.945 1620.98 -946.467 1616.55L-947.167 1617.26C-951.693 1612.83 -956.175 1608.35 -960.611 1603.83L-959.898 1603.13C-964.331 1598.61 -968.718 1594.05 -973.059 1589.45L-973.786 1590.13H-973.787C-978.133 1585.52 -982.431 1580.87 -986.685 1576.17L-985.943 1575.5C-990.19 1570.81 -994.392 1566.08 -998.545 1561.3L-999.298 1561.96C-1003.46 1557.18 -1007.57 1552.36 -1011.63 1547.49L-1010.86 1546.85C-1014.92 1541.99 -1018.92 1537.1 -1022.88 1532.16L-1023.66 1532.78C-1027.63 1527.84 -1031.54 1522.86 -1035.4 1517.84L-1034.61 1517.23C-1038.47 1512.21 -1042.28 1507.16 -1046.04 1502.06L-1046.84 1502.66C-1050.6 1497.56 -1054.31 1492.42 -1057.97 1487.25L-1057.15 1486.68C-1060.81 1481.51 -1064.41 1476.3 -1067.96 1471.06L-1068.79 1471.62C-1072.34 1466.38 -1075.84 1461.1 -1079.29 1455.78L-1078.45 1455.24C-1081.89 1449.93 -1085.28 1444.59 -1088.62 1439.21L-1089.47 1439.73C-1092.81 1434.35 -1096.09 1428.93 -1099.32 1423.48L-1098.46 1422.97C-1101.69 1417.53 -1104.86 1412.06 -1107.98 1406.55L-1108.85 1407.04C-1111.97 1401.52 -1115.03 1395.98 -1118.04 1390.39L-1117.16 1389.92C-1120.16 1384.36 -1123.11 1378.76 -1126 1373.13L-1126.89 1373.59C-1129.78 1367.95 -1132.62 1362.28 -1135.41 1356.58L-1134.51 1356.15C-1137.28 1350.47 -1140 1344.76 -1142.66 1339.01L-1143.57 1339.43C-1146.23 1333.69 -1148.84 1327.91 -1151.39 1322.11L-1150.47 1321.71C-1153.01 1315.91 -1155.5 1310.09 -1157.93 1304.24L-1158.85 1304.62C-1161.28 1298.78 -1163.65 1292.91 -1165.96 1287.01L-1165.03 1286.64C-1167.33 1280.75 -1169.58 1274.83 -1171.78 1268.88L-1172.71 1269.22C-1174.9 1263.29 -1177.02 1257.33 -1179.09 1251.34L-1178.15 1251.02C-1180.21 1245.04 -1182.22 1239.03 -1184.17 1233L-1185.12 1233.31C-1187.06 1227.28 -1188.95 1221.24 -1190.77 1215.16L-1189.81 1214.88C-1191.63 1208.83 -1193.39 1202.75 -1195.09 1196.65L-1196.05 1196.92C-1197.75 1190.81 -1199.39 1184.68 -1200.97 1178.53L-1200 1178.28C-1201.57 1172.17 -1203.08 1166.03 -1204.53 1159.88L-1205.5 1160.11C-1206.95 1153.94 -1208.34 1147.75 -1209.67 1141.54L-1208.69 1141.34C-1210.01 1135.16 -1211.28 1128.96 -1212.47 1122.74L-1213.46 1122.93C-1214.65 1116.72 -1215.79 1110.49 -1216.86 1104.24L-1215.88 1104.07C-1216.95 1097.83 -1217.96 1091.57 -1218.91 1085.29L-1219.9 1085.44C-1220.84 1079.2 -1221.72 1072.94 -1222.54 1066.67L-1221.55 1066.54C-1222.37 1060.26 -1223.13 1053.97 -1223.82 1047.66L-1224.82 1047.77C-1225.51 1041.49 -1226.14 1035.19 -1226.71 1028.87L-1225.71 1028.78C-1226.27 1022.5 -1226.78 1016.19 -1227.22 1009.87L-1228.22 1009.94C-1228.66 1003.62 -1229.04 997.274 -1229.35 990.916L-1228.35 990.867C-1228.66 984.579 -1228.92 978.275 -1229.1 971.955L-1230.1 971.984C-1230.29 965.658 -1230.42 959.316 -1230.48 952.959L-1229.48 952.95C-1229.5 951.363 -1229.51 949.774 -1229.52 948.185L-1229.53 943.413C-1229.53 940.231 -1229.51 937.052 -1229.48 933.877L-1230.48 933.867C-1230.42 927.51 -1230.29 921.168 -1230.1 914.842L-1229.1 914.871C-1228.92 908.551 -1228.66 902.247 -1228.35 895.959L-1229.35 895.91C-1229.04 889.552 -1228.66 883.21 -1228.22 876.885L-1228.22 876.886L-1227.22 876.955C-1226.78 870.634 -1226.27 864.329 -1225.71 858.043L-1226.71 857.953C-1226.14 851.635 -1225.51 845.335 -1224.82 839.054L-1223.82 839.163C-1223.13 832.853 -1222.37 826.562 -1221.55 820.29L-1222.54 820.161L-1222.54 820.16C-1221.72 813.882 -1220.84 807.623 -1219.9 801.385L-1218.91 801.534C-1217.96 795.254 -1216.95 788.993 -1215.88 782.754L-1216.86 782.585C-1215.79 776.335 -1214.65 770.105 -1213.46 763.897L-1212.47 764.086C-1211.28 757.865 -1210.01 751.666 -1208.69 745.489L-1209.67 745.28C-1208.34 739.071 -1206.95 732.883 -1205.5 726.72L-1204.53 726.949C-1203.08 720.792 -1201.57 714.658 -1200 708.548L-1200.97 708.3C-1199.39 702.145 -1197.75 696.014 -1196.05 689.908L-1195.09 690.177C-1193.39 684.076 -1191.63 678 -1189.81 671.95L-1190.77 671.662C-1188.95 665.588 -1187.06 659.54 -1185.12 653.518L-1184.17 653.825C-1182.22 647.793 -1180.21 641.788 -1178.15 635.81L-1179.09 635.483C-1177.02 629.497 -1174.9 623.537 -1172.71 617.605L-1171.77 617.951C-1169.58 612 -1167.33 606.076 -1165.03 600.182L-1165.96 599.816C-1163.65 593.916 -1161.28 588.044 -1158.85 582.202L-1157.93 582.585C-1155.5 576.733 -1153.01 570.911 -1150.47 565.12L-1151.39 564.718C-1149.22 559.78 -1147.01 554.865 -1144.76 549.972L-1143.57 547.393L-1142.66 547.812C-1140 542.07 -1137.28 536.358 -1134.51 530.679L-1135.41 530.24C-1132.62 524.54 -1129.78 518.872 -1126.89 513.236L-1126 513.693C-1123.11 508.064 -1120.16 502.468 -1117.16 496.905L-1118.04 496.43C-1115.03 490.848 -1111.96 485.3 -1108.84 479.786L-1107.97 480.278C-1104.86 474.768 -1101.69 469.292 -1098.46 463.852L-1099.32 463.342C-1096.09 457.89 -1092.81 452.473 -1089.47 447.093L-1088.62 447.62C-1085.28 442.238 -1081.89 436.893 -1078.45 431.584L-1079.28 431.04C-1075.84 425.725 -1072.34 420.447 -1068.79 415.207L-1067.96 415.768C-1064.41 410.524 -1060.8 405.318 -1057.15 400.15L-1057.97 399.572C-1054.7 394.958 -1051.4 390.373 -1048.05 385.82L-1046.84 384.17L-1046.03 384.763C-1042.28 379.668 -1038.47 374.613 -1034.61 369.598L-1035.4 368.988C-1031.54 363.965 -1027.62 358.982 -1023.66 354.04L-1022.88 354.666C-1018.92 349.728 -1014.92 344.831 -1010.86 339.975L-1011.63 339.334C-1007.57 334.47 -1003.46 329.648 -999.299 324.867L-998.544 325.523C-994.391 320.748 -990.19 316.014 -985.943 311.324L-986.685 310.653C-983.054 306.644 -979.391 302.667 -975.693 298.722L-973.786 296.692L-973.059 297.379C-968.717 292.774 -964.33 288.212 -959.897 283.694L-960.611 282.994C-956.175 278.473 -951.692 273.995 -947.166 269.562L-946.467 270.276C-941.945 265.849 -937.378 261.466 -932.769 257.13L-933.454 256.401C-929.42 252.606 -925.353 248.847 -921.252 245.122L-919.48 243.518L-918.81 244.259C-914.115 240.017 -909.378 235.821 -904.599 231.673L-905.254 230.918C-900.47 226.765 -895.642 222.66 -890.774 218.603L-890.135 219.37C-885.275 215.32 -880.373 211.318 -875.432 207.364L-876.056 206.583C-871.11 202.626 -866.124 198.717 -861.097 194.858L-860.487 195.651C-855.468 191.798 -850.41 187.995 -845.312 184.241L-845.904 183.437C-840.868 179.728 -835.794 176.069 -830.682 172.459L-830.49 172.324L-829.914 173.141C-824.743 169.491 -819.532 165.892 -814.285 162.345L-814.846 161.517L-814.847 161.516C-809.603 157.97 -804.321 154.477 -799.003 151.035L-798.46 151.875C-793.148 148.437 -787.799 145.051 -782.414 141.718L-782.94 140.867C-777.557 137.535 -772.138 134.255 -766.683 131.028L-766.174 131.889C-760.73 128.669 -755.251 125.503 -749.738 122.39L-750.229 121.519C-744.713 118.404 -739.163 115.343 -733.578 112.337L-733.104 113.218C-727.539 110.222 -721.94 107.28 -716.309 104.394L-716.765 103.503C-711.127 100.613 -705.456 97.779 -699.753 95L-699.315 95.8984C-693.634 93.1299 -687.92 90.4169 -682.176 87.7598L-682.595 86.8516C-676.849 84.1939 -671.071 81.5928 -665.264 79.0479L-664.862 79.9629C-659.069 77.4243 -653.245 74.9424 -647.392 72.5176L-647.774 71.5947C-642.76 69.5176 -637.725 67.482 -632.668 65.4893L-630.154 64.5029L-629.79 65.4336C-623.894 63.1298 -617.969 60.8842 -612.016 58.6963L-612.36 57.7578C-606.428 55.5775 -600.467 53.4546 -594.479 51.3906L-594.153 52.3359C-588.174 50.2748 -582.167 48.2717 -576.134 46.3281L-576.44 45.377C-570.417 43.4367 -564.368 41.5553 -558.293 39.7334L-558.006 40.6914C-551.955 38.8767 -545.878 37.1207 -539.776 35.4248L-540.045 34.4619C-533.938 32.7647 -527.807 31.1268 -521.651 29.5498L-521.403 30.5186C-515.293 28.9531 -509.158 27.4474 -503 26.002L-503.229 25.0283C-497.064 23.5813 -490.876 22.1947 -484.666 20.8691L-484.457 21.8467C-478.28 20.5282 -472.081 19.2702 -465.859 18.0732L-466.048 17.0918C-459.84 15.8974 -453.61 14.7636 -447.359 13.6914L-447.189 14.6768C-440.95 13.6065 -434.69 12.5975 -428.409 11.6504L-428.559 10.6621C-422.319 9.72123 -416.06 8.84065 -409.781 8.02246L-409.652 9.01465C-403.38 8.19736 -397.088 7.44154 -390.778 6.74805L-390.888 5.75488C-384.606 5.06453 -378.306 4.43472 -371.988 3.86816L-371.898 4.86426C-365.612 4.30054 -359.308 3.79821 -352.986 3.3584L-353.056 2.36133L-353.057 2.36035C-346.732 1.92031 -340.39 1.54343 -334.031 1.22852L-333.981 2.22754C-327.694 1.91613 -321.39 1.66625 -315.07 1.47852L-315.1 0.478516C-308.773 0.29057 -302.431 0.164508 -296.074 0.101562L-296.064 1.10156C-292.889 1.07012 -289.71 1.05469 -286.527 1.05469C-283.345 1.05469 -280.166 1.07013 -276.991 1.10156L-276.982 0.101562C-270.625 0.164491 -264.283 0.290591 -257.957 0.478516L-257.985 1.47852C-251.666 1.66625 -245.361 1.91612 -239.073 2.22754L-239.025 1.22852C-232.667 1.54342 -226.325 1.92031 -220 2.36035V2.36133L-220.069 3.3584C-213.748 3.79822 -207.443 4.30052 -201.156 4.86426L-201.068 3.86816C-194.75 4.43473 -188.45 5.06451 -182.168 5.75488L-182.276 6.74805C-175.966 7.44152 -169.675 8.19738 -163.403 9.01465L-163.274 8.02246C-156.996 8.84063 -150.736 9.72126 -144.497 10.6621L-144.646 11.6504C-138.365 12.5975 -132.105 13.6065 -125.865 14.6768L-125.697 13.6914C-119.446 14.7636 -113.216 15.8973 -107.008 17.0918L-107.196 18.0732C-100.975 19.2702 -94.7748 20.5282 -88.5977 21.8467L-88.3896 20.8691C-82.1793 22.1947 -75.9916 23.5813 -69.8271 25.0283L-70.0547 26.002C-63.8969 27.4474 -57.762 28.9531 -51.6514 30.5186L-51.4043 29.5498C-45.2486 31.1268 -39.1173 32.7647 -33.0107 34.4619L-33.2783 35.4248C-27.1768 37.1207 -21.0999 38.8767 -15.0488 40.6914L-14.7617 39.7334C-8.68689 41.5552 -2.63788 43.4368 3.38477 45.377L3.0791 46.3281C9.11231 48.2717 15.1192 50.2749 21.0986 52.3359L21.4238 51.3906C27.4117 53.4546 33.372 55.5775 39.3047 57.7578L38.9609 58.6963C44.9143 60.8842 50.8401 63.1307 56.7363 65.4346L57.0986 64.5029C63.0013 66.8093 68.8746 69.1737 74.7188 71.5947L74.3369 72.5176C80.1904 74.9424 86.0143 77.4253 91.8076 79.9639L92.208 79.0479C98.0162 81.593 103.795 84.1936 109.541 86.8516V86.8525L109.121 87.7598C114.866 90.4169 120.579 93.1299 126.261 95.8984L126.698 95.001C132.401 97.7799 138.071 100.614 143.709 103.504H143.71L143.254 104.394C148.886 107.28 154.485 110.222 160.05 113.218L160.523 112.337C166.108 115.343 171.658 118.405 177.175 121.52L176.684 122.39C182.197 125.503 187.676 128.67 193.119 131.89L193.628 131.029C199.082 134.256 204.502 137.535 209.885 140.867L209.359 141.718C214.744 145.051 220.093 148.437 225.405 151.875L225.948 151.036C231.266 154.478 236.548 157.972 241.791 161.517H241.792L241.231 162.345C246.479 165.892 251.688 169.492 256.859 173.142L257.436 172.324C262.612 175.978 267.75 179.683 272.85 183.438L272.257 184.242C277.355 187.996 282.415 191.799 287.434 195.652L288.041 194.859C293.068 198.718 298.055 202.626 303.001 206.583L302.377 207.364C307.319 211.318 312.22 215.321 317.08 219.371L317.72 218.604C322.588 222.661 327.415 226.765 332.199 230.918L331.545 231.674C336.324 235.822 341.062 240.018 345.756 244.26L346.425 243.518C351.126 247.766 355.784 252.061 360.398 256.402L359.715 257.131C364.325 261.467 368.891 265.85 373.412 270.277L374.111 269.562C378.638 273.995 383.119 278.473 387.556 282.995L386.844 283.694C391.276 288.212 395.663 292.774 400.004 297.379L400.731 296.693V296.692C405.077 301.302 409.376 305.957 413.629 310.653L412.889 311.325C417.136 316.015 421.337 320.748 425.49 325.523L426.243 324.867C430.401 329.647 434.511 334.47 438.573 339.334H438.574L437.807 339.975C441.862 344.83 445.869 349.728 449.828 354.666L450.607 354.041C454.57 358.983 458.483 363.966 462.347 368.989L461.555 369.599C465.413 374.614 469.222 379.669 472.98 384.764L473.784 384.17C477.543 389.265 481.253 394.4 484.911 399.573H484.912L484.096 400.15C487.75 405.318 491.354 410.524 494.906 415.768L495.732 415.207C499.283 420.447 502.782 425.725 506.229 431.04L505.392 431.585C508.834 436.894 512.225 442.24 515.563 447.621L516.412 447.094C519.75 452.474 523.034 457.891 526.266 463.343L525.406 463.853C528.631 469.293 531.803 474.769 534.921 480.279L535.79 479.787C538.91 485.301 541.975 490.849 544.986 496.431H544.987L544.107 496.905C547.108 502.468 550.054 508.065 552.945 513.694L553.834 513.237C556.728 518.872 559.567 524.541 562.351 530.241L561.453 530.68C564.226 536.359 566.945 542.071 569.606 547.813L570.513 547.393Z" stroke="white" stroke-width="2" stroke-dasharray="19 19"/>
</svg>
