<svg width="597" height="108" viewBox="0 0 597 108" fill="none" xmlns="http://www.w3.org/2000/svg">
<path d="M100.986 34.9365V50.5761C100.986 44.8427 99.2352 40.2653 95.7338 36.844C92.2323 33.4227 87.5688 31.712 81.7431 31.712C75.8502 31.712 71.1547 33.4086 67.6566 36.8018C64.1585 40.195 62.4061 44.7864 62.3994 50.5761V34.9365C62.3994 29.1437 64.1518 24.5475 67.6566 21.1481C71.1614 17.7487 75.8569 16.0568 81.7431 16.0724C87.5721 16.0724 92.2357 17.783 95.7338 21.2043C99.2318 24.6257 100.983 29.203 100.986 34.9365Z" fill="#507E2C"/>
<mask id="mask0_423_18007" style="mask-type:luminance" maskUnits="userSpaceOnUse" x="62" y="16" width="39" height="35">
<path d="M100.986 34.9355V50.5751C100.986 44.8417 99.2352 40.2643 95.7338 36.843C92.2323 33.4217 87.5688 31.711 81.7431 31.711C75.8502 31.711 71.1547 33.4076 67.6566 36.8008C64.1585 40.194 62.4061 44.7854 62.3994 50.5751V34.9355C62.3994 29.1427 64.1518 24.5466 67.6566 21.1471C71.1614 17.7477 75.8569 16.0558 81.7431 16.0714C87.5721 16.0714 92.2357 17.7821 95.7338 21.2034C99.2318 24.6247 100.983 29.2021 100.986 34.9355Z" fill="white"/>
</mask>
<g mask="url(#mask0_423_18007)">
<path d="M100.986 34.9354V50.575C100.986 44.8416 99.2352 40.2642 95.7338 36.8429C92.2323 33.4216 87.5688 31.7109 81.7432 31.7109C76.7248 31.7109 72.5758 32.9388 69.2964 35.3947V19.741C72.5758 17.2945 76.7248 16.0713 81.7432 16.0713C87.5722 16.0713 92.2357 17.7819 95.7338 21.2033C99.2319 24.6246 100.983 29.202 100.986 34.9354Z" fill="#507E2C" stroke="#507E2C" stroke-width="2" stroke-linecap="round" stroke-linejoin="round"/>
<path d="M69.2966 19.7412V35.3949C68.7172 35.8311 68.1679 36.3007 67.6519 36.8009C67.1072 37.3299 66.6032 37.8937 66.1433 38.4881V22.8485C66.6055 22.25 67.1112 21.6816 67.6569 21.1472C68.1715 20.6457 68.721 20.176 69.3017 19.7412" fill="#507E2C"/>
<path d="M69.2966 19.7412V35.3949C68.7172 35.8311 68.1679 36.3007 67.6519 36.8009C67.1072 37.3299 66.6032 37.8937 66.1433 38.4881V22.8485C66.6055 22.25 67.1112 21.6816 67.6569 21.1472C68.1715 20.6457 68.721 20.176 69.3017 19.7412" stroke="#507E2C" stroke-width="2" stroke-linecap="round" stroke-linejoin="round"/>
<path d="M66.1432 22.8486V38.4883C65.1929 39.7101 64.4241 41.0454 63.8577 42.4579V26.823C64.4241 25.409 65.1929 24.0722 66.1432 22.8486Z" fill="#507E2C" stroke="#507E2C" stroke-width="2" stroke-linecap="round" stroke-linejoin="round"/>
<path d="M63.8425 26.8223V42.4572C62.8385 45.0601 62.3497 47.8101 62.3995 50.5746V34.935C62.3492 32.172 62.8381 29.4234 63.8425 26.8223Z" fill="#507E2C" stroke="#507E2C" stroke-width="2" stroke-linecap="round" stroke-linejoin="round"/>
</g>
<path d="M100.986 34.9365V50.5761C100.986 44.8427 99.2352 40.2653 95.7338 36.844C92.2323 33.4227 87.5688 31.712 81.7431 31.712C75.8502 31.712 71.1547 33.4086 67.6566 36.8018C64.1585 40.195 62.4061 44.7864 62.3994 50.5761V34.9365C62.3994 29.1437 64.1518 24.5475 67.6566 21.1481C71.1614 17.7487 75.8569 16.0568 81.7431 16.0724C87.5721 16.0724 92.2357 17.783 95.7338 21.2043C99.2318 24.6257 100.983 29.203 100.986 34.9365Z" stroke="#507E2C" stroke-width="2" stroke-linecap="round" stroke-linejoin="round"/>
<path d="M119.089 34.9365V50.5762C119.181 56.5305 117.5 62.3927 114.232 67.5155C110.963 72.6383 106.235 76.8224 100.567 79.6058C94.7766 82.4694 88.303 83.9329 81.7433 83.8613C75.1681 83.9278 68.6796 82.4648 62.8688 79.6058C57.255 76.8648 52.5469 72.7603 49.2465 67.7296C45.8596 62.5671 44.1107 56.6212 44.2012 50.5762V34.9365C44.1099 40.9817 45.8588 46.9278 49.2465 52.09C52.5469 57.1206 57.255 61.2252 62.8688 63.9661C68.6796 66.8252 75.1681 68.2881 81.7433 68.2217C88.303 68.2933 94.7766 66.8298 100.567 63.9661C106.235 61.1828 110.963 56.9987 114.232 51.8759C117.5 46.7531 119.181 40.8908 119.089 34.9365Z" fill="#507E2C"/>
<mask id="mask1_423_18007" style="mask-type:luminance" maskUnits="userSpaceOnUse" x="44" y="34" width="76" height="50">
<path d="M119.089 34.9355V50.5752C119.181 56.5295 117.501 62.3917 114.232 67.5145C110.964 72.6373 106.235 76.8214 100.568 79.6048C94.7768 82.4685 88.3032 83.9319 81.7435 83.8604C75.1684 83.9268 68.6798 82.4638 62.869 79.6048C57.2552 76.8638 52.5472 72.7593 49.2467 67.7286C45.8598 62.5661 44.1109 56.6202 44.2014 50.5752V34.9355C44.1101 40.9807 45.859 46.9268 49.2467 52.089C52.5472 57.1197 57.2552 61.2242 62.869 63.9652C68.6798 66.8242 75.1684 68.2872 81.7435 68.2207C88.3032 68.2923 94.7768 66.8288 100.568 63.9652C106.235 61.1818 110.964 56.9977 114.232 51.8749C117.501 46.7521 119.181 40.8899 119.089 34.9355Z" fill="white"/>
</mask>
<g mask="url(#mask1_423_18007)">
<path d="M119.089 34.9355V50.5752C119.124 54.6315 118.367 58.6602 116.854 62.4654V46.8258C118.367 43.0206 119.124 38.9919 119.089 34.9355Z" fill="#507E2C" stroke="#507E2C" stroke-width="2" stroke-linecap="round" stroke-linejoin="round"/>
<path d="M116.854 46.8258V62.4654C116.103 64.2953 115.172 66.0571 114.074 67.7286C113.569 68.5347 112.984 69.3174 112.394 70.072V54.423C112.984 53.6731 113.544 52.8904 114.074 52.0796C115.165 50.4074 116.089 48.6456 116.833 46.8164" fill="#507E2C"/>
<path d="M116.854 46.8258V62.4654C116.103 64.2953 115.172 66.0571 114.074 67.7286C113.569 68.5347 112.984 69.3174 112.394 70.072V54.423C112.984 53.6731 113.544 52.8904 114.074 52.0796C115.165 50.4074 116.089 48.6456 116.833 46.8164" stroke="#507E2C" stroke-width="2" stroke-linecap="round" stroke-linejoin="round"/>
<path d="M112.414 54.4229V70.0625C110.631 72.3398 108.533 74.3884 106.173 76.1552V60.5156C108.533 58.7488 110.631 56.7001 112.414 54.4229Z" fill="#507E2C" stroke="#507E2C" stroke-width="2" stroke-linecap="round" stroke-linejoin="round"/>
<path d="M106.173 60.5157V76.1694C104.424 77.4751 102.548 78.6252 100.568 79.6048C94.7768 82.4685 88.3032 83.9319 81.7435 83.8604C75.1684 83.9268 68.6798 82.4638 62.869 79.6048C57.2552 76.8638 52.5472 72.7593 49.2467 67.7286C45.8598 62.5661 44.1109 56.6202 44.2014 50.5752V34.9355C44.1101 40.9807 45.859 46.9268 49.2467 52.089C52.5472 57.1197 57.2552 61.2242 62.869 63.9652C68.6798 66.8242 75.1684 68.2872 81.7435 68.2207C88.3032 68.2923 94.7768 66.8288 100.568 63.9652C102.548 62.9812 104.425 61.8263 106.173 60.5157Z" fill="#507E2C" stroke="#507E2C" stroke-width="2" stroke-linecap="round" stroke-linejoin="round"/>
</g>
<path d="M119.089 34.9365V50.5762C119.181 56.5305 117.5 62.3927 114.232 67.5155C110.963 72.6383 106.235 76.8224 100.567 79.6058C94.7766 82.4694 88.303 83.9329 81.7433 83.8613C75.1681 83.9278 68.6796 82.4648 62.8688 79.6058C57.255 76.8648 52.5469 72.7603 49.2465 67.7296C45.8596 62.5671 44.1107 56.6212 44.2012 50.5762V34.9365C44.1099 40.9817 45.8588 46.9278 49.2465 52.09C52.5469 57.1206 57.255 61.2252 62.8688 63.9661C68.6796 66.8252 75.1681 68.2881 81.7433 68.2217C88.303 68.2933 94.7766 66.8298 100.567 63.9661C106.235 61.1828 110.963 56.9987 114.232 51.8759C117.5 46.7531 119.181 40.8908 119.089 34.9365Z" stroke="#507E2C" stroke-width="2" stroke-linecap="round" stroke-linejoin="round"/>
<path d="M114.144 17.7823C117.471 22.947 119.183 28.8707 119.088 34.8889C119.183 40.8474 117.503 46.7142 114.235 51.8419C110.967 56.9696 106.237 61.1586 100.567 63.9467C94.775 66.8066 88.3021 68.2683 81.743 68.1975C75.1686 68.2634 68.6805 66.8022 62.8685 63.9467C57.2554 61.2027 52.5478 57.0968 49.2462 52.0658C45.8586 46.9036 44.1096 40.9575 44.2009 34.9123C44.1062 28.8815 45.8558 22.9496 49.2462 17.8058C52.5601 12.796 57.2658 8.70805 62.8685 5.97177C68.6783 3.10809 75.1664 1.6388 81.743 1.69747C88.3192 1.6312 94.8089 3.09241 100.623 5.94834C106.211 8.66876 110.888 12.7622 114.144 17.7823ZM95.7337 48.5742C99.2351 45.1372 100.986 40.5755 100.986 34.8889C100.986 29.1586 99.2351 24.5812 95.7337 21.1568C92.2322 17.7323 87.5687 16.0232 81.743 16.0295C75.8501 16.0295 71.1546 17.7245 67.6565 21.1146C64.1585 24.5047 62.4061 29.0961 62.3993 34.8889C62.3993 40.6223 64.1501 45.1982 67.6515 48.6163C71.1529 52.0345 75.8501 53.753 81.743 53.7718C87.572 53.7718 92.2356 52.0533 95.7337 48.6163" fill="white"/>
<path d="M95.7337 48.5742C99.2351 45.1372 100.986 40.5755 100.986 34.8889C100.986 29.1586 99.2351 24.5812 95.7337 21.1568C92.2322 17.7323 87.5687 16.0232 81.743 16.0295C75.8501 16.0295 71.1546 17.7245 67.6565 21.1146C64.1585 24.5047 62.4061 29.0961 62.3993 34.8889C62.3993 40.6223 64.1501 45.1982 67.6515 48.6163C71.1529 52.0345 75.8501 53.753 81.743 53.7718C87.572 53.7718 92.2356 52.0533 95.7337 48.6163M114.144 17.7823C117.471 22.947 119.183 28.8707 119.088 34.8889C119.183 40.8474 117.503 46.7142 114.235 51.8419C110.967 56.9696 106.237 61.1586 100.567 63.9467C94.775 66.8066 88.3021 68.2683 81.743 68.1975C75.1685 68.2634 68.6805 66.8022 62.8685 63.9467C57.2554 61.2027 52.5478 57.0968 49.2462 52.0658C45.8586 46.9036 44.1096 40.9575 44.2009 34.9123C44.1062 28.8815 45.8558 22.9496 49.2462 17.8058C52.5601 12.796 57.2658 8.70805 62.8685 5.97177C68.6783 3.10809 75.1664 1.6388 81.743 1.69747C88.3192 1.6312 94.8089 3.09241 100.623 5.94834C106.211 8.66876 110.888 12.7622 114.144 17.7823Z" stroke="#507E2C" stroke-width="2" stroke-linecap="round" stroke-linejoin="round"/>
<path d="M189.808 41.4082V57.0478C189.808 62.8469 188.422 67.7461 185.651 71.7454C182.941 75.7033 179.059 78.8506 174.47 80.8096C169.564 82.8873 164.222 83.9293 158.83 83.8606C153.072 83.8606 147.924 82.8592 143.386 80.8564C138.905 78.9025 135.155 75.7473 132.62 71.797C129.986 67.7633 128.669 62.8469 128.669 57.0478V41.4082C128.669 47.2041 129.986 52.1205 132.62 56.1573C135.155 60.0987 138.899 63.2481 143.371 65.2027C147.912 67.2055 153.06 68.2054 158.815 68.2022C164.207 68.2709 169.548 67.2289 174.455 65.1512C179.043 63.1935 182.925 60.0479 185.636 56.0917C188.421 52.0986 189.812 47.2041 189.808 41.4082Z" fill="#507E2C"/>
<mask id="mask2_423_18007" style="mask-type:luminance" maskUnits="userSpaceOnUse" x="128" y="41" width="62" height="43">
<path d="M189.808 41.4072V57.0469C189.808 62.8459 188.423 67.7451 185.651 71.7444C182.941 75.7024 179.059 78.8496 174.471 80.8086C169.564 82.8863 164.222 83.9283 158.83 83.8596C153.072 83.8596 147.924 82.8582 143.387 80.8554C138.905 78.9015 135.155 75.7463 132.62 71.796C129.986 67.7623 128.669 62.8459 128.669 57.0469V41.4072C128.669 47.2032 129.986 52.1195 132.62 56.1564C135.155 60.0977 138.899 63.2471 143.371 65.2018C147.912 67.2046 153.06 68.2044 158.815 68.2013C164.207 68.2699 169.549 67.2279 174.456 65.1502C179.043 63.1925 182.925 60.0469 185.636 56.0908C188.421 52.0977 189.812 47.2032 189.808 41.4072Z" fill="white"/>
</mask>
<g mask="url(#mask2_423_18007)">
<path d="M189.808 41.4072V57.0469C189.869 60.6051 189.236 64.1443 187.941 67.4936V51.8586C189.236 48.5076 189.868 44.967 189.808 41.4072Z" fill="#507E2C" stroke="#507E2C" stroke-width="2" stroke-linecap="round" stroke-linejoin="round"/>
<path d="M187.941 51.8594V67.4943C187.343 68.9828 186.575 70.4078 185.651 71.7452C185.353 72.1717 185.051 72.5888 184.733 72.9918V57.3522C185.051 56.9492 185.353 56.532 185.651 56.1102C186.573 54.7718 187.341 53.347 187.941 51.8594Z" fill="#507E2C" stroke="#507E2C" stroke-width="2" stroke-linecap="round" stroke-linejoin="round"/>
<path d="M184.733 57.3516V72.9912C183.382 74.7216 181.79 76.2786 180 77.6217V61.9821C181.79 60.639 183.382 59.082 184.733 57.3516Z" fill="#507E2C" stroke="#507E2C" stroke-width="2" stroke-linecap="round" stroke-linejoin="round"/>
<path d="M180.001 61.982V77.6216C178.297 78.8895 176.433 79.9598 174.451 80.8086C169.544 82.8863 164.202 83.9283 158.81 83.8596C153.052 83.8596 147.904 82.8582 143.367 80.8554C138.885 78.9015 135.135 75.7463 132.6 71.796C129.966 67.7623 128.649 62.8459 128.649 57.0469V41.4072C128.649 47.2032 129.966 52.1195 132.6 56.1564C135.141 60.1005 138.892 63.2502 143.372 65.2018C147.912 67.2046 153.06 68.2044 158.815 68.2013C164.207 68.2699 169.549 67.2279 174.456 65.1502C176.438 64.3014 178.302 63.2312 180.006 61.9632" fill="#507E2C"/>
<path d="M180.001 61.982V77.6216C178.297 78.8895 176.433 79.9598 174.451 80.8086C169.544 82.8863 164.202 83.9283 158.81 83.8596C153.052 83.8596 147.904 82.8582 143.367 80.8554C138.885 78.9015 135.135 75.7463 132.6 71.796C129.966 67.7623 128.649 62.8459 128.649 57.0468V41.4072C128.649 47.2032 129.966 52.1195 132.6 56.1564C135.141 60.1005 138.892 63.2502 143.372 65.2018C147.912 67.2046 153.06 68.2044 158.815 68.2013C164.207 68.2699 169.549 67.2279 174.456 65.1502C176.438 64.3014 178.302 63.2312 180.006 61.9632" stroke="#507E2C" stroke-width="2" stroke-linecap="round" stroke-linejoin="round"/>
</g>
<path d="M189.808 41.4082V57.0478C189.808 62.8469 188.422 67.7461 185.651 71.7454C182.941 75.7033 179.059 78.8506 174.47 80.8096C169.564 82.8873 164.222 83.9293 158.83 83.8606C153.072 83.8606 147.924 82.8592 143.386 80.8564C138.905 78.9025 135.155 75.7473 132.62 71.797C129.986 67.7633 128.669 62.8469 128.669 57.0478V41.4082C128.669 47.2041 129.986 52.1205 132.62 56.1573C135.155 60.0987 138.899 63.2481 143.371 65.2027C147.912 67.2055 153.06 68.2054 158.815 68.2022C164.207 68.2709 169.548 67.2289 174.455 65.1512C179.043 63.1935 182.925 60.0479 185.636 56.0917C188.421 52.0986 189.812 47.2041 189.808 41.4082Z" stroke="#507E2C" stroke-width="2" stroke-linecap="round" stroke-linejoin="round"/>
<path d="M189.808 2.61914V41.3597C189.808 47.1587 188.422 52.0595 185.651 56.062C182.94 60.0181 179.058 63.1637 174.47 65.1214C169.564 67.1991 164.222 68.2411 158.83 68.1725C153.072 68.1725 147.924 67.1726 143.386 65.173C138.904 63.2171 135.155 60.0603 132.62 56.1088C129.986 52.0751 128.669 47.1587 128.669 41.3597V2.61914H146.454V41.4534C146.454 45.334 147.529 48.3226 149.678 50.4191C151.827 52.5157 154.982 53.5639 159.143 53.5639C163.3 53.5639 166.496 52.5157 168.729 50.4191C170.962 48.3226 172.072 45.334 172.059 41.4534V2.61914H189.808Z" fill="white" stroke="#507E2C" stroke-width="2" stroke-linecap="round" stroke-linejoin="round"/>
<path d="M231.104 15.7939H220.08V31.4336H231.104V15.7939Z" fill="#507E2C" stroke="#507E2C" stroke-width="2" stroke-linecap="round" stroke-linejoin="round"/>
<path d="M240.877 23.7473V39.387C240.877 36.9217 240.063 34.9799 238.435 33.5613C236.807 32.1428 234.37 31.4414 231.125 31.457V15.7939C234.38 15.7939 236.824 16.5032 238.455 17.9217C240.087 19.3402 240.894 21.2821 240.877 23.7473Z" fill="#507E2C"/>
<mask id="mask3_423_18007" style="mask-type:luminance" maskUnits="userSpaceOnUse" x="231" y="15" width="10" height="25">
<path d="M240.877 23.7483V39.3879C240.877 36.9227 240.063 34.9808 238.435 33.5623C236.807 32.1438 234.37 31.4424 231.124 31.458V15.7949C234.38 15.7949 236.824 16.5042 238.455 17.9227C240.086 19.3412 240.894 21.2831 240.877 23.7483Z" fill="white"/>
</mask>
<g mask="url(#mask3_423_18007)">
<path d="M240.877 23.7483V39.3879C240.877 36.9227 240.063 34.9808 238.435 33.5623C236.807 32.1438 234.37 31.4424 231.124 31.458V15.7949C234.38 15.7949 236.824 16.5042 238.455 17.9227C240.086 19.3412 240.9 21.2831 240.897 23.7483" fill="#507E2C"/>
<path d="M240.877 23.7483V39.3879C240.877 36.9227 240.063 34.9808 238.435 33.5623C236.807 32.1438 234.37 31.4424 231.124 31.458V15.7949C234.38 15.7949 236.824 16.5042 238.455 17.9227C240.086 19.3412 240.9 21.2831 240.897 23.7483" stroke="#507E2C" stroke-width="2" stroke-linecap="round" stroke-linejoin="round"/>
</g>
<path d="M240.877 23.7473V39.387C240.877 36.9217 240.063 34.9799 238.435 33.5613C236.807 32.1428 234.37 31.4414 231.125 31.457V15.7939C234.38 15.7939 236.824 16.5032 238.455 17.9217C240.087 19.3402 240.894 21.2821 240.877 23.7473Z" stroke="#507E2C" stroke-width="2" stroke-linecap="round" stroke-linejoin="round"/>
<path d="M258.979 23.1016V38.7412C259.031 42.9113 257.584 46.9783 254.867 50.2987C252.126 53.6887 248.09 56.093 242.759 57.5116V41.8719C248.1 40.4565 252.136 38.0522 254.867 34.659C257.584 31.3387 259.031 27.2717 258.979 23.1016Z" fill="#507E2C"/>
<mask id="mask4_423_18007" style="mask-type:luminance" maskUnits="userSpaceOnUse" x="242" y="23" width="17" height="35">
<path d="M258.979 23.1016V38.7412C259.031 42.9113 257.584 46.9783 254.868 50.2987C252.126 53.6887 248.09 56.093 242.759 57.5116V41.8719C248.1 40.4565 252.136 38.0522 254.868 34.659C257.584 31.3387 259.031 27.2717 258.979 23.1016Z" fill="white"/>
</mask>
<g mask="url(#mask4_423_18007)">
<path d="M258.98 23.1016V38.7412C258.995 41.068 258.558 43.3783 257.688 45.5604V29.9208C258.558 27.7387 258.995 25.4284 258.98 23.1016Z" fill="#507E2C" stroke="#507E2C" stroke-width="2" stroke-linecap="round" stroke-linejoin="round"/>
<path d="M257.688 29.9209V45.5605C257.035 47.1638 256.151 48.6774 255.06 50.0598V34.4202C256.151 33.0378 257.035 31.5242 257.688 29.9209Z" fill="#507E2C" stroke="#507E2C" stroke-width="2" stroke-linecap="round" stroke-linejoin="round"/>
<path d="M255.059 34.4199V50.0596L254.868 50.2986C253.924 51.464 252.827 52.5156 251.603 53.4293V37.7897C252.827 36.876 253.924 35.8243 254.868 34.6589L255.059 34.4199Z" fill="#507E2C" stroke="#507E2C" stroke-width="2" stroke-linecap="round" stroke-linejoin="round"/>
<path d="M251.603 37.791V53.4306C248.972 55.3335 245.953 56.722 242.729 57.5128V41.8732C245.946 41.08 248.957 39.6916 251.583 37.791" fill="#507E2C"/>
<path d="M251.603 37.791V53.4306C248.972 55.3335 245.953 56.722 242.729 57.5128V41.8732C245.946 41.08 248.957 39.6916 251.583 37.791" stroke="#507E2C" stroke-width="2" stroke-linecap="round" stroke-linejoin="round"/>
</g>
<path d="M258.979 23.1016V38.7412C259.031 42.9113 257.584 46.9783 254.867 50.2987C252.126 53.6887 248.09 56.093 242.759 57.5116V41.8719C248.1 40.4565 252.136 38.0522 254.867 34.659C257.584 31.3387 259.031 27.2717 258.979 23.1016Z" stroke="#507E2C" stroke-width="2" stroke-linecap="round" stroke-linejoin="round"/>
<path d="M224.343 43.0762H220.08V58.7158H224.343V43.0762Z" fill="#507E2C" stroke="#507E2C" stroke-width="2" stroke-linecap="round" stroke-linejoin="round"/>
<path d="M220.075 67.5742H202.291V83.2138H220.075V67.5742Z" fill="#507E2C" stroke="#507E2C" stroke-width="2" stroke-linecap="round" stroke-linejoin="round"/>
<path d="M239.525 67.5735V83.2132L224.344 58.7109V43.0713L239.525 67.5735Z" fill="#507E2C" stroke="#507E2C" stroke-width="2" stroke-linecap="round" stroke-linejoin="round"/>
<path d="M259.6 67.5742H239.524V83.2138H259.6V67.5742Z" fill="#507E2C" stroke="#507E2C" stroke-width="2" stroke-linecap="round" stroke-linejoin="round"/>
<path d="M242.729 41.8237L259.6 67.5444H239.525L224.344 43.0281H220.081V67.5444H202.291V2.61914H232.134C237.885 2.61914 242.791 3.51274 246.851 5.29995C250.911 7.08716 253.938 9.53832 255.932 12.6534C257.957 15.7934 259.005 19.3934 258.96 23.0533C259.011 27.2234 257.564 31.2904 254.848 34.6108C252.123 37.9977 248.084 40.402 242.729 41.8237ZM238.415 29.7085C240.046 28.2931 240.86 26.2903 240.857 23.7001C240.857 21.2348 240.043 19.293 238.415 17.8745C236.787 16.4559 234.357 15.7467 231.125 15.7467H220.081V31.8362H231.125C234.381 31.8362 236.824 31.127 238.456 29.7085" fill="white"/>
<path d="M238.415 29.7085C240.046 28.2931 240.86 26.2903 240.857 23.7001C240.857 21.2348 240.043 19.293 238.415 17.8745C236.787 16.4559 234.357 15.7467 231.125 15.7467H220.081V31.8362H231.125C234.381 31.8362 236.824 31.127 238.456 29.7085M242.729 41.8237L259.6 67.5444H239.525L224.344 43.0281H220.081V67.5444H202.291V2.61914H232.134C237.885 2.61914 242.791 3.51274 246.851 5.29995C250.911 7.08716 253.938 9.53832 255.932 12.6534C257.957 15.7934 259.005 19.3934 258.96 23.0533C259.011 27.2234 257.564 31.2904 254.848 34.6108C252.123 37.9977 248.084 40.402 242.729 41.8237Z" stroke="#507E2C" stroke-width="2" stroke-linecap="round" stroke-linejoin="round"/>
<path d="M344.684 15.3359H325.335V30.9756H344.684V15.3359Z" fill="#507E2C" stroke="#507E2C" stroke-width="2" stroke-linecap="round" stroke-linejoin="round"/>
<path d="M307.545 15.3359H288.202V30.9756H307.545V15.3359Z" fill="#507E2C" stroke="#507E2C" stroke-width="2" stroke-linecap="round" stroke-linejoin="round"/>
<path d="M325.33 67.5781H307.545V83.2177H325.33V67.5781Z" fill="#507E2C" stroke="#507E2C" stroke-width="2" stroke-linecap="round" stroke-linejoin="round"/>
<path d="M344.684 2.61914V15.2874H325.335V67.5304H307.545V15.2874H288.202V2.61914H344.684Z" fill="white" stroke="#507E2C" stroke-width="2" stroke-linecap="round" stroke-linejoin="round"/>
<path d="M398.351 15.3359H371.409V30.9756H398.351V15.3359Z" fill="#507E2C" stroke="#507E2C" stroke-width="2" stroke-linecap="round" stroke-linejoin="round"/>
<path d="M395.228 40.668H371.409V56.3076H395.228V40.668Z" fill="#507E2C" stroke="#507E2C" stroke-width="2" stroke-linecap="round" stroke-linejoin="round"/>
<path d="M398.351 67.5781H353.625V83.2177H398.351V67.5781Z" fill="#507E2C" stroke="#507E2C" stroke-width="2" stroke-linecap="round" stroke-linejoin="round"/>
<path d="M398.351 2.61914V15.2874H371.409V28.4149H395.228V40.6192H371.409V54.8575H398.351V67.5304H353.625V2.61914H398.351Z" fill="white" stroke="#507E2C" stroke-width="2" stroke-linecap="round" stroke-linejoin="round"/>
<path d="M450.766 43.9063V59.5459L441.715 35.7795V20.1445L450.766 43.9063Z" fill="#507E2C" stroke="#507E2C" stroke-width="2" stroke-linecap="round" stroke-linejoin="round"/>
<path d="M441.716 20.1445V35.7795L432.771 59.5459V43.9063L441.716 20.1445Z" fill="#507E2C" stroke="#507E2C" stroke-width="2" stroke-linecap="round" stroke-linejoin="round"/>
<path d="M455.348 56.1104H428.098V71.75H455.348V56.1104Z" fill="#507E2C" stroke="#507E2C" stroke-width="2" stroke-linecap="round" stroke-linejoin="round"/>
<path d="M428.093 56.1104V71.75L423.729 83.2137V67.5741L428.093 56.1104Z" fill="#507E2C" stroke="#507E2C" stroke-width="2" stroke-linecap="round" stroke-linejoin="round"/>
<path d="M423.729 67.5742H405.107V83.2138H423.729V67.5742Z" fill="#507E2C" stroke="#507E2C" stroke-width="2" stroke-linecap="round" stroke-linejoin="round"/>
<path d="M459.712 67.5741V83.2137L455.343 71.75V56.1104L459.712 67.5741Z" fill="#507E2C" stroke="#507E2C" stroke-width="2" stroke-linecap="round" stroke-linejoin="round"/>
<path d="M478.537 67.5742H459.713V83.2138H478.537V67.5742Z" fill="#507E2C" stroke="#507E2C" stroke-width="2" stroke-linecap="round" stroke-linejoin="round"/>
<path d="M452.109 2.61914L478.541 67.5444H459.712L455.343 56.076H428.098L423.729 67.5444H405.107L431.524 2.61914H452.109ZM432.765 43.8624H450.757L441.711 20.1007L432.765 43.8624Z" fill="white" stroke="#507E2C" stroke-width="2" stroke-linecap="round" stroke-linejoin="round"/>
<path d="M569.235 67.5781H551.451V83.2177H569.235V67.5781Z" fill="#507E2C" stroke="#507E2C" stroke-width="2" stroke-linecap="round" stroke-linejoin="round"/>
<path d="M551.451 28.6465V44.2861L535.119 83.2141V67.5745L551.451 28.6465Z" fill="#507E2C" stroke="#507E2C" stroke-width="2" stroke-linecap="round" stroke-linejoin="round"/>
<path d="M535.125 67.5781H520.771V83.2177H535.125V67.5781Z" fill="#507E2C" stroke="#507E2C" stroke-width="2" stroke-linecap="round" stroke-linejoin="round"/>
<path d="M520.771 67.5745V83.2141L504.333 44.1924V28.5527L520.771 67.5745Z" fill="#507E2C" stroke="#507E2C" stroke-width="2" stroke-linecap="round" stroke-linejoin="round"/>
<path d="M504.333 67.5781H486.548V83.2177H504.333V67.5781Z" fill="#507E2C" stroke="#507E2C" stroke-width="2" stroke-linecap="round" stroke-linejoin="round"/>
<path d="M569.235 2.61914V67.5304H551.451V28.5977L535.119 67.5304H520.77L504.333 28.5087V67.5304H486.548V2.61914H507.557L528.045 47.5555L548.333 2.61914H569.235Z" fill="white" stroke="#507E2C" stroke-width="2" stroke-linecap="round" stroke-linejoin="round"/>
<mask id="mask5_423_18007" style="mask-type:alpha" maskUnits="userSpaceOnUse" x="0" y="3" width="597" height="105">
<path d="M259.314 57.112C118.694 41.5697 28.03 83.941 0.275879 107.069H596.99V3.4541C543.023 27.816 399.935 72.6543 259.314 57.112Z" fill="#D9D9D9"/>
</mask>
<g mask="url(#mask5_423_18007)">
<path d="M100.986 34.8779V50.5175C100.986 44.7841 99.2357 40.2067 95.7342 36.7854C92.2328 33.3641 87.5693 31.6534 81.7436 31.6534C75.8507 31.6534 71.1552 33.35 67.6571 36.7432C64.159 40.1364 62.4066 44.7278 62.3999 50.5175V34.8779C62.3999 29.0851 64.1523 24.489 67.6571 21.0895C71.1619 17.6901 75.8574 15.9982 81.7436 16.0138C87.5726 16.0138 92.2362 17.7244 95.7342 21.1458C99.2323 24.5671 100.983 29.1444 100.986 34.8779Z" fill="#507E2C"/>
<mask id="mask6_423_18007" style="mask-type:luminance" maskUnits="userSpaceOnUse" x="62" y="16" width="39" height="35">
<path d="M100.986 34.8798V50.5195C100.986 44.786 99.2354 40.2086 95.734 36.7873C92.2326 33.366 87.569 31.6554 81.7434 31.6554C75.8504 31.6554 71.1549 33.352 67.6569 36.7452C64.1588 40.1383 62.4064 44.7298 62.3997 50.5195V34.8798C62.3997 29.087 64.1521 24.4909 67.6569 21.0915C71.1617 17.692 75.8572 16.0001 81.7434 16.0157C87.5724 16.0157 92.2359 17.7264 95.734 21.1477C99.2321 24.569 100.983 29.1464 100.986 34.8798Z" fill="white"/>
</mask>
<g mask="url(#mask6_423_18007)">
<path d="M100.986 34.8797V50.5194C100.986 44.7859 99.2352 40.2085 95.7338 36.7872C92.2323 33.3659 87.5688 31.6553 81.7432 31.6553C76.7248 31.6553 72.5758 32.8832 69.2964 35.339V19.6853C72.5758 17.2389 76.7248 16.0156 81.7432 16.0156C87.5722 16.0156 92.2357 17.7263 95.7338 21.1476C99.2319 24.5689 100.983 29.1463 100.986 34.8797Z" fill="#507E2C" stroke="#507E2C" stroke-width="2" stroke-linecap="round" stroke-linejoin="round"/>
<path d="M69.2969 19.6865V35.3402C68.7175 35.7764 68.1681 36.246 67.6521 36.7462C67.1075 37.2752 66.6034 37.839 66.1436 38.4335V22.7938C66.6057 22.1953 67.1115 21.6269 67.6571 21.0925C68.1718 20.591 68.7212 20.1213 69.3019 19.6865" fill="#507E2C"/>
<path d="M69.2969 19.6865V35.3402C68.7175 35.7764 68.1681 36.246 67.6521 36.7462C67.1075 37.2752 66.6034 37.839 66.1436 38.4335V22.7938C66.6057 22.1953 67.1115 21.6269 67.6571 21.0925C68.1718 20.591 68.7212 20.1213 69.3019 19.6865" stroke="#507E2C" stroke-width="2" stroke-linecap="round" stroke-linejoin="round"/>
<path d="M66.1429 22.793V38.4326C65.1927 39.6545 64.4239 40.9897 63.8574 42.4023V26.7673C64.4239 25.3533 65.1926 24.0165 66.1429 22.793Z" fill="#507E2C" stroke="#507E2C" stroke-width="2" stroke-linecap="round" stroke-linejoin="round"/>
<path d="M63.8425 26.7676V42.4025C62.8385 45.0054 62.3497 47.7554 62.3995 50.5199V34.8803C62.3492 32.1173 62.8381 29.3687 63.8425 26.7676Z" fill="#507E2C" stroke="#507E2C" stroke-width="2" stroke-linecap="round" stroke-linejoin="round"/>
</g>
<path d="M100.986 34.8779V50.5175C100.986 44.7841 99.2357 40.2067 95.7342 36.7854C92.2328 33.3641 87.5693 31.6534 81.7436 31.6534C75.8507 31.6534 71.1552 33.35 67.6571 36.7432C64.159 40.1364 62.4066 44.7278 62.3999 50.5175V34.8779C62.3999 29.0851 64.1523 24.489 67.6571 21.0895C71.1619 17.6901 75.8574 15.9982 81.7436 16.0138C87.5726 16.0138 92.2362 17.7244 95.7342 21.1458C99.2323 24.5671 100.983 29.1444 100.986 34.8779Z" stroke="#507E2C" stroke-width="2" stroke-linecap="round" stroke-linejoin="round"/>
<path d="M119.089 34.8799V50.5195C119.181 56.4738 117.501 62.3361 114.232 67.4589C110.964 72.5817 106.235 76.7658 100.568 79.5491C94.7768 82.4128 88.3032 83.8763 81.7435 83.8047C75.1684 83.8711 68.6798 82.4082 62.869 79.5491C57.2552 76.8082 52.5472 72.7036 49.2467 67.673C45.8598 62.5105 44.1109 56.5646 44.2014 50.5195V34.8799C44.1101 40.925 45.859 46.8712 49.2467 52.0333C52.5472 57.064 57.2552 61.1685 62.869 63.9095C68.6798 66.7685 75.1684 68.2315 81.7435 68.1651C88.3032 68.2367 94.7768 66.7732 100.568 63.9095C106.235 61.1261 110.964 56.942 114.232 51.8192C117.501 46.6964 119.181 40.8342 119.089 34.8799Z" fill="#507E2C"/>
<mask id="mask7_423_18007" style="mask-type:luminance" maskUnits="userSpaceOnUse" x="44" y="34" width="76" height="50">
<path d="M119.089 34.8789V50.5185C119.182 56.4729 117.501 62.3351 114.232 67.4579C110.964 72.5807 106.235 76.7648 100.568 79.5482C94.7771 82.4118 88.3035 83.8753 81.7438 83.8037C75.1686 83.8701 68.6801 82.4072 62.8693 79.5482C57.2555 76.8072 52.5474 72.7026 49.2469 67.672C45.86 62.5095 44.1112 56.5636 44.2016 50.5185V34.8789C44.1104 40.924 45.8593 46.8702 49.2469 52.0323C52.5474 57.063 57.2555 61.1676 62.8693 63.9085C68.6801 66.7676 75.1686 68.2305 81.7438 68.1641C88.3035 68.2357 94.7771 66.7722 100.568 63.9085C106.235 61.1252 110.964 56.9411 114.232 51.8183C117.501 46.6955 119.182 40.8332 119.089 34.8789Z" fill="white"/>
</mask>
<g mask="url(#mask7_423_18007)">
<path d="M119.089 34.8789V50.5185C119.124 54.5749 118.367 58.6036 116.854 62.4088V46.7691C118.367 42.9639 119.124 38.9353 119.089 34.8789Z" fill="#507E2C" stroke="#507E2C" stroke-width="2" stroke-linecap="round" stroke-linejoin="round"/>
<path d="M116.854 46.7691V62.4088C116.103 64.2387 115.172 66.0005 114.074 67.672C113.569 68.4781 112.984 69.2608 112.394 70.0153V54.3663C112.984 53.6165 113.544 52.8338 114.074 52.023C115.165 50.3508 116.089 48.589 116.834 46.7598" fill="#507E2C"/>
<path d="M116.854 46.7691V62.4088C116.103 64.2387 115.172 66.0005 114.074 67.672C113.569 68.4781 112.984 69.2608 112.394 70.0153V54.3663C112.984 53.6165 113.544 52.8338 114.074 52.023C115.165 50.3508 116.089 48.589 116.834 46.7598" stroke="#507E2C" stroke-width="2" stroke-linecap="round" stroke-linejoin="round"/>
<path d="M112.414 54.3662V70.0058C110.632 72.2831 108.533 74.3318 106.173 76.0986V60.459C108.533 58.6921 110.632 56.6435 112.414 54.3662Z" fill="#507E2C" stroke="#507E2C" stroke-width="2" stroke-linecap="round" stroke-linejoin="round"/>
<path d="M106.173 60.4591V76.1128C104.425 77.4184 102.548 78.5686 100.568 79.5482C94.7771 82.4118 88.3035 83.8753 81.7438 83.8037C75.1686 83.8701 68.6801 82.4072 62.8693 79.5482C57.2555 76.8072 52.5474 72.7026 49.2469 67.672C45.86 62.5095 44.1112 56.5636 44.2016 50.5185V34.8789C44.1104 40.924 45.8593 46.8702 49.2469 52.0323C52.5474 57.063 57.2555 61.1676 62.8693 63.9085C68.6801 66.7676 75.1686 68.2305 81.7438 68.1641C88.3035 68.2357 94.7771 66.7722 100.568 63.9085C102.549 62.9245 104.425 61.7696 106.173 60.4591Z" fill="#507E2C" stroke="#507E2C" stroke-width="2" stroke-linecap="round" stroke-linejoin="round"/>
</g>
<path d="M119.089 34.8799V50.5195C119.181 56.4738 117.501 62.3361 114.232 67.4589C110.964 72.5817 106.235 76.7658 100.568 79.5491C94.7768 82.4128 88.3032 83.8763 81.7435 83.8047C75.1684 83.8711 68.6798 82.4082 62.869 79.5491C57.2552 76.8082 52.5472 72.7036 49.2467 67.673C45.8598 62.5105 44.1109 56.5646 44.2014 50.5195V34.8799C44.1101 40.925 45.859 46.8712 49.2467 52.0333C52.5472 57.064 57.2552 61.1685 62.869 63.9095C68.6798 66.7685 75.1684 68.2315 81.7435 68.1651C88.3032 68.2367 94.7768 66.7732 100.568 63.9095C106.235 61.1261 110.964 56.942 114.232 51.8192C117.501 46.6964 119.181 40.8342 119.089 34.8799Z" stroke="#507E2C" stroke-width="2" stroke-linecap="round" stroke-linejoin="round"/>
<path d="M114.144 17.7257C117.471 22.8904 119.184 28.8141 119.089 34.8323C119.183 40.7907 117.504 46.6576 114.235 51.7852C110.967 56.9129 106.237 61.102 100.567 63.89C94.7753 66.75 88.3023 68.2117 81.7433 68.1409C75.1688 68.2068 68.6808 66.7456 62.8688 63.89C57.2557 61.146 52.548 57.0402 49.2465 52.0091C45.8588 46.847 44.1099 40.9008 44.2012 34.8557C44.1065 28.8249 45.856 22.893 49.2465 17.7491C52.5604 12.7393 57.266 8.65141 62.8688 5.91513C68.6785 3.05145 75.1666 1.58216 81.7433 1.64083C88.3194 1.57456 94.8092 3.03577 100.623 5.8917C106.211 8.61212 110.888 12.7056 114.144 17.7257ZM95.7339 48.5175C99.2354 45.0806 100.986 40.5188 100.986 34.8323C100.986 29.102 99.2354 24.5246 95.7339 21.1001C92.2325 17.6757 87.5689 15.9666 81.7433 15.9729C75.8504 15.9729 71.1549 17.6679 67.6568 21.058C64.1587 24.448 62.4063 29.0395 62.3996 34.8323C62.3996 40.5657 64.1503 45.1415 67.6517 48.5597C71.1532 51.9779 75.8504 53.6964 81.7433 53.7151C87.5723 53.7151 92.2358 51.9966 95.7339 48.5597" fill="#F3E6E6"/>
<path d="M95.7339 48.5175C99.2354 45.0806 100.986 40.5188 100.986 34.8323C100.986 29.102 99.2354 24.5246 95.7339 21.1001C92.2325 17.6757 87.5689 15.9666 81.7433 15.9729C75.8504 15.9729 71.1549 17.6679 67.6568 21.058C64.1587 24.448 62.4063 29.0395 62.3996 34.8323C62.3996 40.5657 64.1503 45.1415 67.6517 48.5597C71.1532 51.9779 75.8504 53.6964 81.7433 53.7151C87.5723 53.7151 92.2358 51.9966 95.7339 48.5597M114.144 17.7257C117.471 22.8904 119.184 28.8141 119.089 34.8323C119.183 40.7907 117.504 46.6576 114.235 51.7852C110.967 56.9129 106.237 61.102 100.567 63.89C94.7753 66.75 88.3023 68.2117 81.7433 68.1409C75.1688 68.2068 68.6808 66.7456 62.8688 63.89C57.2557 61.146 52.548 57.0402 49.2465 52.0091C45.8588 46.847 44.1099 40.9008 44.2012 34.8557C44.1065 28.8249 45.856 22.893 49.2465 17.7491C52.5604 12.7393 57.266 8.65141 62.8688 5.91513C68.6785 3.05145 75.1666 1.58216 81.7433 1.64083C88.3194 1.57456 94.8092 3.03577 100.623 5.8917C106.211 8.61212 110.888 12.7056 114.144 17.7257Z" stroke="#507E2C" stroke-width="2" stroke-linecap="round" stroke-linejoin="round"/>
<path d="M189.809 41.3506V56.9902C189.809 62.7893 188.423 67.6885 185.651 71.6878C182.941 75.6457 179.059 78.793 174.471 80.7519C169.564 82.8297 164.223 83.8717 158.831 83.803C153.072 83.803 147.924 82.8016 143.387 80.7988C138.905 78.8449 135.155 75.6897 132.62 71.7394C129.987 67.7056 128.67 62.7893 128.67 56.9902V41.3506C128.67 47.1465 129.987 52.0629 132.62 56.0997C135.156 60.0411 138.899 63.1905 143.372 65.1451C147.912 67.1479 153.06 68.1478 158.815 68.1446C164.207 68.2133 169.549 67.1713 174.456 65.0936C179.043 63.1359 182.925 59.9903 185.636 56.0341C188.421 52.041 189.812 47.1465 189.809 41.3506Z" fill="#507E2C"/>
<mask id="mask8_423_18007" style="mask-type:luminance" maskUnits="userSpaceOnUse" x="128" y="41" width="62" height="43">
<path d="M189.808 41.3516V56.9912C189.808 62.7902 188.422 67.6894 185.651 71.6888C182.941 75.6467 179.059 78.794 174.47 80.7529C169.564 82.8306 164.222 83.8726 158.83 83.804C153.072 83.804 147.924 82.8026 143.386 80.7998C138.905 78.8458 135.155 75.6907 132.62 71.7403C129.986 67.7066 128.669 62.7902 128.669 56.9912V41.3516C128.669 47.1475 129.986 52.0639 132.62 56.1007C135.155 60.0421 138.899 63.1914 143.371 65.1461C147.912 67.1489 153.06 68.1487 158.815 68.1456C164.207 68.2143 169.548 67.1723 174.455 65.0945C179.043 63.1369 182.925 59.9913 185.636 56.0351C188.421 52.042 189.812 47.1475 189.808 41.3516Z" fill="white"/>
</mask>
<g mask="url(#mask8_423_18007)">
<path d="M189.808 41.3516V56.9912C189.869 60.5495 189.236 64.0886 187.941 67.4379V51.803C189.236 48.452 189.868 44.9113 189.808 41.3516Z" fill="#507E2C" stroke="#507E2C" stroke-width="2" stroke-linecap="round" stroke-linejoin="round"/>
<path d="M187.941 51.8027V67.4377C187.343 68.9262 186.575 70.3512 185.651 71.6885C185.353 72.115 185.051 72.5322 184.733 72.9352V57.2956C185.051 56.8925 185.353 56.4754 185.651 56.0536C186.573 54.7152 187.341 53.2904 187.941 51.8027Z" fill="#507E2C" stroke="#507E2C" stroke-width="2" stroke-linecap="round" stroke-linejoin="round"/>
<path d="M184.733 57.2949V72.9345C183.382 74.665 181.79 76.2219 180 77.565V61.9254C181.79 60.5823 183.382 59.0253 184.733 57.2949Z" fill="#507E2C" stroke="#507E2C" stroke-width="2" stroke-linecap="round" stroke-linejoin="round"/>
<path d="M180.001 61.9263V77.5659C178.297 78.8339 176.433 79.9041 174.451 80.7529C169.544 82.8306 164.202 83.8726 158.81 83.804C153.052 83.804 147.904 82.8026 143.367 80.7998C138.885 78.8458 135.135 75.6907 132.6 71.7403C129.966 67.7066 128.649 62.7902 128.649 56.9912V41.3516C128.649 47.1475 129.966 52.0639 132.6 56.1007C135.141 60.0449 138.892 63.1945 143.372 65.1461C147.912 67.1489 153.06 68.1487 158.815 68.1456C164.207 68.2143 169.549 67.1723 174.456 65.0945C176.438 64.2457 178.302 63.1755 180.006 61.9076" fill="#507E2C"/>
<path d="M180.001 61.9263V77.5659C178.297 78.8339 176.433 79.9041 174.451 80.7529C169.544 82.8306 164.202 83.8726 158.81 83.804C153.052 83.804 147.904 82.8026 143.367 80.7998C138.885 78.8458 135.135 75.6907 132.6 71.7403C129.966 67.7066 128.649 62.7902 128.649 56.9912V41.3516C128.649 47.1475 129.966 52.0639 132.6 56.1007C135.141 60.0449 138.892 63.1945 143.372 65.1461C147.912 67.1489 153.06 68.1487 158.815 68.1456C164.207 68.2143 169.549 67.1723 174.456 65.0945C176.438 64.2457 178.302 63.1755 180.006 61.9076" stroke="#507E2C" stroke-width="2" stroke-linecap="round" stroke-linejoin="round"/>
</g>
<path d="M189.809 41.3506V56.9902C189.809 62.7893 188.423 67.6885 185.651 71.6878C182.941 75.6457 179.059 78.793 174.471 80.7519C169.564 82.8297 164.223 83.8717 158.831 83.803C153.072 83.803 147.924 82.8016 143.387 80.7988C138.905 78.8449 135.155 75.6897 132.62 71.7394C129.987 67.7056 128.67 62.7893 128.67 56.9902V41.3506C128.67 47.1465 129.987 52.0629 132.62 56.0997C135.156 60.0411 138.899 63.1905 143.372 65.1451C147.912 67.1479 153.06 68.1478 158.815 68.1446C164.207 68.2133 169.549 67.1713 174.456 65.0936C179.043 63.1359 182.925 59.9903 185.636 56.0341C188.421 52.041 189.812 47.1465 189.809 41.3506Z" stroke="#507E2C" stroke-width="2" stroke-linecap="round" stroke-linejoin="round"/>
<path d="M189.809 2.5625V41.303C189.809 47.1021 188.423 52.0028 185.651 56.0053C182.941 59.9615 179.058 63.1071 174.471 65.0648C169.564 67.1425 164.223 68.1845 158.831 68.1158C153.072 68.1158 147.924 67.116 143.387 65.1163C138.905 63.1604 135.155 60.0037 132.62 56.0522C129.987 52.0185 128.67 47.1021 128.67 41.303V2.5625H146.454V41.3968C146.454 45.2774 147.529 48.266 149.678 50.3625C151.828 52.459 154.983 53.5073 159.143 53.5073C163.301 53.5073 166.496 52.459 168.729 50.3625C170.963 48.266 172.073 45.2774 172.059 41.3968V2.5625H189.809Z" fill="#F3E6E6" stroke="#507E2C" stroke-width="2" stroke-linecap="round" stroke-linejoin="round"/>
<path d="M231.104 15.7383H220.08V31.3779H231.104V15.7383Z" fill="#507E2C" stroke="#507E2C" stroke-width="2" stroke-linecap="round" stroke-linejoin="round"/>
<path d="M240.877 23.6917V39.3313C240.877 36.8661 240.063 34.9242 238.435 33.5057C236.807 32.0872 234.371 31.3857 231.125 31.4013V15.7383C234.381 15.7383 236.824 16.4475 238.456 17.8661C240.087 19.2846 240.894 21.2264 240.877 23.6917Z" fill="#507E2C"/>
<mask id="mask9_423_18007" style="mask-type:luminance" maskUnits="userSpaceOnUse" x="231" y="15" width="10" height="25">
<path d="M240.878 23.6907V39.3303C240.878 36.8651 240.064 34.9232 238.436 33.5047C236.808 32.0862 234.371 31.3847 231.125 31.4004V15.7373C234.381 15.7373 236.825 16.4466 238.456 17.8651C240.087 19.2836 240.894 21.2255 240.878 23.6907Z" fill="white"/>
</mask>
<g mask="url(#mask9_423_18007)">
<path d="M240.878 23.6907V39.3303C240.878 36.8651 240.064 34.9232 238.436 33.5047C236.808 32.0862 234.371 31.3847 231.125 31.4004V15.7373C234.381 15.7373 236.825 16.4466 238.456 17.8651C240.087 19.2836 240.901 21.2255 240.898 23.6907" fill="#507E2C"/>
<path d="M240.878 23.6907V39.3303C240.878 36.8651 240.064 34.9232 238.436 33.5047C236.808 32.0862 234.371 31.3847 231.125 31.4004V15.7373C234.381 15.7373 236.825 16.4466 238.456 17.8651C240.087 19.2836 240.901 21.2255 240.898 23.6907" stroke="#507E2C" stroke-width="2" stroke-linecap="round" stroke-linejoin="round"/>
</g>
<path d="M240.877 23.6917V39.3313C240.877 36.8661 240.063 34.9242 238.435 33.5057C236.807 32.0872 234.371 31.3857 231.125 31.4013V15.7383C234.381 15.7383 236.824 16.4475 238.456 17.8661C240.087 19.2846 240.894 21.2264 240.877 23.6917Z" stroke="#507E2C" stroke-width="2" stroke-linecap="round" stroke-linejoin="round"/>
<path d="M258.98 23.0439V38.6836C259.031 42.8537 257.584 46.9207 254.868 50.2411C252.126 53.6311 248.09 56.0354 242.759 57.4539V41.8143C248.1 40.3989 252.137 37.9946 254.868 34.6014C257.584 31.281 259.031 27.2141 258.98 23.0439Z" fill="#507E2C"/>
<mask id="mask10_423_18007" style="mask-type:luminance" maskUnits="userSpaceOnUse" x="242" y="23" width="17" height="35">
<path d="M258.98 23.0439V38.6836C259.031 42.8537 257.584 46.9207 254.868 50.2411C252.126 53.6311 248.09 56.0354 242.759 57.4539V41.8143C248.1 40.3989 252.137 37.9946 254.868 34.6014C257.584 31.281 259.031 27.2141 258.98 23.0439Z" fill="white"/>
</mask>
<g mask="url(#mask10_423_18007)">
<path d="M258.98 23.0439V38.6836C258.996 41.0104 258.558 43.3207 257.688 45.5028V29.8631C258.558 27.681 258.996 25.3708 258.98 23.0439Z" fill="#507E2C" stroke="#507E2C" stroke-width="2" stroke-linecap="round" stroke-linejoin="round"/>
<path d="M257.689 29.8633V45.5029C257.036 47.1062 256.151 48.6198 255.06 50.0022V34.3625C256.151 32.9802 257.036 31.4666 257.689 29.8633Z" fill="#507E2C" stroke="#507E2C" stroke-width="2" stroke-linecap="round" stroke-linejoin="round"/>
<path d="M255.06 34.3623V50.0019L254.868 50.241C253.924 51.4063 252.828 52.458 251.604 53.3717V37.7321C252.828 36.8184 253.924 35.7667 254.868 34.6013L255.06 34.3623Z" fill="#507E2C" stroke="#507E2C" stroke-width="2" stroke-linecap="round" stroke-linejoin="round"/>
<path d="M251.604 37.7314V53.3711C248.972 55.2739 245.953 56.6625 242.729 57.4532V41.8136C245.946 41.0205 248.958 39.632 251.584 37.7314" fill="#507E2C"/>
<path d="M251.604 37.7314V53.3711C248.972 55.2739 245.953 56.6625 242.729 57.4532V41.8136C245.946 41.0205 248.958 39.632 251.584 37.7314" stroke="#507E2C" stroke-width="2" stroke-linecap="round" stroke-linejoin="round"/>
</g>
<path d="M258.98 23.0439V38.6836C259.031 42.8537 257.584 46.9207 254.868 50.2411C252.126 53.6311 248.09 56.0354 242.759 57.4539V41.8143C248.1 40.3989 252.137 37.9946 254.868 34.6014C257.584 31.281 259.031 27.2141 258.98 23.0439Z" stroke="#507E2C" stroke-width="2" stroke-linecap="round" stroke-linejoin="round"/>
<path d="M224.343 43.0186H220.08V58.6582H224.343V43.0186Z" fill="#507E2C" stroke="#507E2C" stroke-width="2" stroke-linecap="round" stroke-linejoin="round"/>
<path d="M220.075 67.5166H202.291V83.1562H220.075V67.5166Z" fill="#507E2C" stroke="#507E2C" stroke-width="2" stroke-linecap="round" stroke-linejoin="round"/>
<path d="M239.525 67.5169V83.1565L224.344 58.6543V43.0146L239.525 67.5169Z" fill="#507E2C" stroke="#507E2C" stroke-width="2" stroke-linecap="round" stroke-linejoin="round"/>
<path d="M259.6 67.5166H239.525V83.1562H259.6V67.5166Z" fill="#507E2C" stroke="#507E2C" stroke-width="2" stroke-linecap="round" stroke-linejoin="round"/>
<path d="M242.729 41.767L259.6 67.4878H239.525L224.344 42.9715H220.081V67.4878H202.291V2.5625H232.134C237.885 2.5625 242.791 3.4561 246.851 5.24331C250.911 7.03052 253.938 9.48168 255.932 12.5968C257.957 15.7368 259.005 19.3367 258.96 22.9967C259.011 27.1668 257.564 31.2337 254.848 34.5541C252.123 37.9411 248.084 40.3454 242.729 41.767ZM238.415 29.6518C240.046 28.2364 240.86 26.2336 240.857 23.6434C240.857 21.1782 240.043 19.2363 238.415 17.8178C236.787 16.3993 234.357 15.69 231.125 15.69H220.081V31.7796H231.125C234.381 31.7796 236.824 31.0703 238.456 29.6518" fill="#F3E6E6"/>
<path d="M238.415 29.6518C240.046 28.2364 240.86 26.2336 240.857 23.6434C240.857 21.1782 240.043 19.2363 238.415 17.8178C236.787 16.3993 234.357 15.69 231.125 15.69H220.081V31.7796H231.125C234.381 31.7796 236.824 31.0703 238.456 29.6518M242.729 41.767L259.6 67.4878H239.525L224.344 42.9715H220.081V67.4878H202.291V2.5625H232.134C237.885 2.5625 242.791 3.4561 246.851 5.24331C250.911 7.03052 253.938 9.48168 255.932 12.5968C257.957 15.7368 259.005 19.3367 258.96 22.9967C259.011 27.1668 257.564 31.2337 254.848 34.5541C252.123 37.9411 248.084 40.3454 242.729 41.767Z" stroke="#507E2C" stroke-width="2" stroke-linecap="round" stroke-linejoin="round"/>
<path d="M344.684 15.2793H325.336V30.9189H344.684V15.2793Z" fill="#507E2C" stroke="#507E2C" stroke-width="2" stroke-linecap="round" stroke-linejoin="round"/>
<path d="M307.545 15.2793H288.202V30.9189H307.545V15.2793Z" fill="#507E2C" stroke="#507E2C" stroke-width="2" stroke-linecap="round" stroke-linejoin="round"/>
<path d="M325.33 67.5225H307.546V83.1621H325.33V67.5225Z" fill="#507E2C" stroke="#507E2C" stroke-width="2" stroke-linecap="round" stroke-linejoin="round"/>
<path d="M344.684 2.5625V15.2307H325.335V67.4738H307.545V15.2307H288.202V2.5625H344.684Z" fill="#F3E6E6" stroke="#507E2C" stroke-width="2" stroke-linecap="round" stroke-linejoin="round"/>
<path d="M398.351 15.2793H371.409V30.9189H398.351V15.2793Z" fill="#507E2C" stroke="#507E2C" stroke-width="2" stroke-linecap="round" stroke-linejoin="round"/>
<path d="M395.228 40.6104H371.409V56.25H395.228V40.6104Z" fill="#507E2C" stroke="#507E2C" stroke-width="2" stroke-linecap="round" stroke-linejoin="round"/>
<path d="M398.352 67.5225H353.625V83.1621H398.352V67.5225Z" fill="#507E2C" stroke="#507E2C" stroke-width="2" stroke-linecap="round" stroke-linejoin="round"/>
<path d="M398.352 2.5625V15.2307H371.41V28.3583H395.229V40.5625H371.41V54.8008H398.352V67.4738H353.625V2.5625H398.352Z" fill="#F3E6E6" stroke="#507E2C" stroke-width="2" stroke-linecap="round" stroke-linejoin="round"/>
<path d="M450.766 43.8496V59.4893L441.715 35.7228V20.0879L450.766 43.8496Z" fill="#507E2C" stroke="#507E2C" stroke-width="2" stroke-linecap="round" stroke-linejoin="round"/>
<path d="M441.716 20.0879V35.7228L432.771 59.4893V43.8496L441.716 20.0879Z" fill="#507E2C" stroke="#507E2C" stroke-width="2" stroke-linecap="round" stroke-linejoin="round"/>
<path d="M455.348 56.0527H428.099V71.6924H455.348V56.0527Z" fill="#507E2C" stroke="#507E2C" stroke-width="2" stroke-linecap="round" stroke-linejoin="round"/>
<path d="M428.093 56.0527V71.6924L423.729 83.1561V67.5165L428.093 56.0527Z" fill="#507E2C" stroke="#507E2C" stroke-width="2" stroke-linecap="round" stroke-linejoin="round"/>
<path d="M423.729 67.5166H405.107V83.1562H423.729V67.5166Z" fill="#507E2C" stroke="#507E2C" stroke-width="2" stroke-linecap="round" stroke-linejoin="round"/>
<path d="M459.712 67.5165V83.1561L455.343 71.6924V56.0527L459.712 67.5165Z" fill="#507E2C" stroke="#507E2C" stroke-width="2" stroke-linecap="round" stroke-linejoin="round"/>
<path d="M478.537 67.5166H459.713V83.1562H478.537V67.5166Z" fill="#507E2C" stroke="#507E2C" stroke-width="2" stroke-linecap="round" stroke-linejoin="round"/>
<path d="M452.109 2.5625L478.541 67.4878H459.712L455.343 56.0194H428.098L423.729 67.4878H405.107L431.524 2.5625H452.109ZM432.765 43.8057H450.757L441.711 20.044L432.765 43.8057Z" fill="#F3E6E6" stroke="#507E2C" stroke-width="2" stroke-linecap="round" stroke-linejoin="round"/>
<path d="M569.236 67.5225H551.451V83.1621H569.236V67.5225Z" fill="#507E2C" stroke="#507E2C" stroke-width="2" stroke-linecap="round" stroke-linejoin="round"/>
<path d="M551.451 28.5898V44.2295L535.12 83.1575V67.5178L551.451 28.5898Z" fill="#507E2C" stroke="#507E2C" stroke-width="2" stroke-linecap="round" stroke-linejoin="round"/>
<path d="M535.125 67.5225H520.771V83.1621H535.125V67.5225Z" fill="#507E2C" stroke="#507E2C" stroke-width="2" stroke-linecap="round" stroke-linejoin="round"/>
<path d="M520.771 67.5168V83.1565L504.333 44.1347V28.4951L520.771 67.5168Z" fill="#507E2C" stroke="#507E2C" stroke-width="2" stroke-linecap="round" stroke-linejoin="round"/>
<path d="M504.333 67.5225H486.548V83.1621H504.333V67.5225Z" fill="#507E2C" stroke="#507E2C" stroke-width="2" stroke-linecap="round" stroke-linejoin="round"/>
<path d="M569.236 2.5625V67.4738H551.451V28.5411L535.12 67.4738H520.771L504.333 28.452V67.4738H486.548V2.5625H507.557L528.046 47.4989L548.333 2.5625H569.236Z" fill="#F3E6E6" stroke="#507E2C" stroke-width="2" stroke-linecap="round" stroke-linejoin="round"/>
</g>
</svg>
