<svg width="288" height="307" viewBox="0 0 288 307" fill="none" xmlns="http://www.w3.org/2000/svg">
<g clip-path="url(#clip0_221_457)">
<path d="M56.5801 232.42C46.9303 232.42 37.4973 229.558 29.4738 224.197C21.4503 218.836 15.1968 211.216 11.504 202.301C7.81118 193.386 6.84497 183.576 8.72755 174.111C10.6101 164.647 15.2569 155.954 22.0803 149.13C28.9037 142.307 37.5973 137.66 47.0616 135.777C56.5259 133.895 66.336 134.861 75.2512 138.554C84.1664 142.247 91.7863 148.5 97.1475 156.524C102.509 164.547 105.37 173.98 105.37 183.63C105.357 196.566 100.212 208.968 91.0652 218.115C81.9182 227.262 69.5159 232.407 56.5801 232.42Z" fill="#7CCC3D"/>
<path d="M56.5801 135.34C66.1313 135.338 75.4687 138.168 83.4113 143.473C91.3538 148.778 97.5448 156.319 101.201 165.143C104.858 173.967 105.816 183.677 103.953 193.045C102.091 202.413 97.4929 211.018 90.7398 217.772C83.9867 224.527 75.3823 229.127 66.0146 230.991C56.647 232.855 46.937 231.9 38.1126 228.245C29.2882 224.59 21.7457 218.401 16.4391 210.459C11.1325 202.518 8.30006 193.181 8.30006 183.63C8.31329 170.828 13.4039 158.555 22.455 149.502C31.5061 140.449 43.7786 135.356 56.5801 135.34ZM56.5801 134.34C46.8314 134.34 37.3017 137.231 29.196 142.647C21.0903 148.063 14.7727 155.761 11.042 164.767C7.3114 173.774 6.33529 183.685 8.23715 193.246C10.139 202.807 14.8334 211.59 21.7268 218.483C28.6201 225.376 37.4027 230.071 46.9641 231.973C56.5254 233.875 66.436 232.899 75.4425 229.168C84.4491 225.437 92.1471 219.12 97.5632 211.014C102.979 202.908 105.87 193.378 105.87 183.63C105.871 177.157 104.597 170.747 102.121 164.766C99.6442 158.785 96.0135 153.351 91.4363 148.774C86.859 144.196 81.4248 140.566 75.4441 138.089C69.4634 135.613 63.0533 134.339 56.5801 134.34Z" fill="black"/>
<path d="M274.893 267.1C298.671 228.629 286.761 178.166 248.29 154.387C209.819 130.609 159.356 142.519 135.577 180.99C111.798 219.461 123.709 269.924 162.18 293.703C200.651 317.482 251.114 305.571 274.893 267.1Z" fill="#7CCC3D"/>
<path d="M205.24 142.65C221.339 142.65 237.077 147.425 250.462 156.37C263.848 165.315 274.279 178.028 280.439 192.903C286.598 207.777 288.207 224.144 285.063 239.933C281.92 255.722 274.164 270.225 262.777 281.606C251.391 292.987 236.885 300.735 221.094 303.871C205.303 307.007 188.937 305.39 174.066 299.223C159.194 293.057 146.486 282.619 137.547 269.229C128.609 255.839 123.842 240.099 123.85 224C123.877 202.423 132.46 181.738 147.719 166.481C162.977 151.225 183.663 142.644 205.24 142.62M205.24 141.62C188.945 141.62 173.015 146.452 159.466 155.506C145.916 164.56 135.356 177.428 129.121 192.483C122.885 207.539 121.254 224.105 124.434 240.087C127.614 256.07 135.462 270.75 146.985 282.272C158.509 293.794 173.19 301.64 189.173 304.818C205.156 307.996 221.722 306.363 236.776 300.126C251.831 293.888 264.698 283.327 273.75 269.776C282.802 256.226 287.632 240.296 287.63 224C287.63 213.181 285.499 202.468 281.358 192.472C277.218 182.477 271.149 173.395 263.498 165.745C255.847 158.095 246.765 152.027 236.769 147.888C226.773 143.749 216.059 141.619 205.24 141.62Z" fill="black"/>
<path d="M49.29 233.81C39.6407 233.812 30.2074 230.953 22.1831 225.594C14.1587 220.235 7.90363 212.617 4.20871 203.703C0.513794 194.789 -0.455005 184.979 1.42482 175.515C3.30464 166.051 7.94866 157.356 14.7697 150.531C21.5907 143.706 30.2823 139.056 39.7456 137.171C49.2089 135.285 59.0188 136.248 67.935 139.937C76.8511 143.627 84.473 149.877 89.837 157.898C95.201 165.919 98.0661 175.351 98.07 185C98.0621 197.938 92.9212 210.343 83.7757 219.495C74.6303 228.646 62.2276 233.794 49.29 233.81Z" fill="#7CCC3D"/>
<path d="M49.29 136.74C58.8421 136.74 68.1797 139.573 76.1216 144.88C84.0635 150.188 90.2529 157.732 93.907 166.557C97.5611 175.383 98.5156 185.094 96.6499 194.462C94.7842 203.83 90.1821 212.434 83.4256 219.187C76.6691 225.939 68.0618 230.536 58.6925 232.396C49.3232 234.256 39.6128 233.295 30.7894 229.635C21.9661 225.976 14.4263 219.782 9.12376 211.837C3.82119 203.891 0.994078 194.552 1.00001 185C1.01325 172.197 6.10518 159.922 15.1584 150.868C24.2117 141.815 36.4868 136.723 49.29 136.71M49.29 135.71C39.5409 135.708 30.0102 138.597 21.9032 144.012C13.7962 149.427 7.47704 157.124 3.74486 166.131C0.0126841 175.137 -0.964849 185.048 0.935887 194.61C2.83662 204.172 7.53025 212.955 14.4232 219.85C21.3161 226.744 30.0987 231.439 39.6603 233.342C49.2219 235.245 59.133 234.269 68.1402 230.539C77.1473 226.809 84.846 220.491 90.2625 212.385C95.679 204.279 98.57 194.749 98.57 185C98.57 171.929 93.3783 159.394 84.1368 150.15C74.8953 140.907 62.3608 135.713 49.29 135.71Z" fill="black"/>
<path d="M139.25 135.24C125.925 135.24 112.9 131.289 101.821 123.886C90.7422 116.483 82.1072 105.962 77.0081 93.6514C71.9091 81.3412 70.5749 67.7953 73.1744 54.7268C75.7739 41.6583 82.1903 29.6541 91.6121 20.2322C101.034 10.8104 113.038 4.39401 126.107 1.79453C139.175 -0.80496 152.721 0.529191 165.031 5.62827C177.342 10.7273 187.863 19.3623 195.266 30.4413C202.669 41.5202 206.62 54.5455 206.62 67.87C206.599 85.7312 199.494 102.855 186.864 115.484C174.235 128.114 157.111 135.219 139.25 135.24Z" fill="#8E64E9"/>
<path d="M139.25 1C152.476 1 165.404 4.92186 176.401 12.2696C187.398 19.6174 195.969 30.0611 201.03 42.28C206.091 54.4989 207.415 67.9442 204.835 80.9157C202.255 93.8872 195.886 105.802 186.534 115.154C177.182 124.506 165.267 130.875 152.296 133.455C139.324 136.035 125.879 134.711 113.66 129.65C101.441 124.589 90.9973 116.018 83.6495 105.021C76.3018 94.0243 72.3799 81.0956 72.3799 67.87C72.3984 50.1407 79.4496 33.1428 91.9861 20.6062C104.523 8.06969 121.521 1.01853 139.25 1ZM139.25 0C125.826 0 112.705 3.98051 101.543 11.4382C90.3822 18.8958 81.6831 29.4957 76.5462 41.8973C71.4093 54.2989 70.0652 67.9453 72.684 81.1108C75.3028 94.2763 81.7668 106.37 91.2586 115.861C100.75 125.353 112.844 131.817 126.009 134.436C139.175 137.055 152.821 135.711 165.223 130.574C177.624 125.437 188.224 116.738 195.682 105.577C203.139 94.4154 207.12 81.2934 207.12 67.87C207.12 49.8698 199.969 32.6068 187.241 19.8787C174.513 7.15057 157.25 0 139.25 0Z" fill="black"/>
<path d="M233.977 286.375C272.448 262.596 284.358 212.133 260.579 173.662C236.801 135.191 186.337 123.28 147.866 147.059C109.395 170.838 97.485 221.301 121.264 259.772C145.042 298.243 195.506 310.154 233.977 286.375Z" fill="#BCFF87"/>
<path d="M190.92 135.34C207.017 135.34 222.753 140.113 236.138 149.057C249.522 158 259.954 170.711 266.115 185.583C272.275 200.455 273.887 216.82 270.746 232.608C267.606 248.396 259.854 262.899 248.471 274.281C237.089 285.664 222.587 293.416 206.798 296.556C191.01 299.696 174.646 298.085 159.773 291.924C144.901 285.764 132.19 275.332 123.247 261.948C114.304 248.563 109.53 232.827 109.53 216.73C109.554 195.151 118.137 174.463 133.395 159.205C148.653 143.946 169.341 135.364 190.92 135.34ZM190.92 134.34C174.625 134.34 158.696 139.172 145.147 148.225C131.598 157.278 121.038 170.146 114.802 185.201C108.566 200.255 106.934 216.821 110.113 232.803C113.292 248.785 121.139 263.466 132.662 274.988C144.184 286.511 158.864 294.358 174.847 297.537C190.829 300.716 207.395 299.084 222.449 292.848C237.504 286.612 250.372 276.052 259.425 262.503C268.478 248.954 273.31 233.025 273.31 216.73C273.31 194.879 264.63 173.922 249.179 158.471C233.727 143.02 212.771 134.34 190.92 134.34Z" fill="black"/>
<path d="M189.61 276.4C185.868 276.396 182.131 276.115 178.43 275.56V223.24H159.43V202.63H178.43V185.63C178.43 167.72 188.8 157.04 206.17 157.04C211.606 157.119 217.029 157.58 222.4 158.42V175.9H213.48C202.03 175.9 200.79 184.41 200.79 188.07V202.6H221.45L218.28 223.21H200.79V275.53C197.09 276.095 193.353 276.386 189.61 276.4Z" fill="#7CCC3D"/>
<path d="M206.17 157.57C211.437 157.64 216.694 158.077 221.9 158.88V175.43H213.48C201.58 175.43 200.29 184.29 200.29 188.1V203.1H220.86L217.86 222.71H200.29V275.1C193.206 276.113 186.014 276.113 178.93 275.1V222.74H159.93V203.13H178.93V185.66C178.93 168.07 189.11 157.57 206.17 157.57ZM206.17 156.57C189.09 156.57 177.93 166.92 177.93 185.66V202.13H158.93V223.74H177.93V276C185.67 277.2 193.549 277.2 201.29 276V223.74H218.71L222 202.13H201.29V188.13C201.29 182.22 204.19 176.46 213.48 176.46H222.9V158C217.366 157.106 211.775 156.618 206.17 156.54V156.57Z" fill="black"/>
<path d="M179.89 276.4C176.148 276.395 172.411 276.115 168.71 275.56V223.24H149.71V202.63H168.71V185.63C168.71 167.72 179.08 157.04 196.45 157.04C201.889 157.119 207.316 157.58 212.69 158.42V175.9H203.76C192.31 175.9 191.08 184.41 191.08 188.07V202.6H211.73L208.57 223.21H191.08V275.53C187.376 276.095 183.636 276.386 179.89 276.4Z" fill="white"/>
<path d="M196.45 157.57C201.721 157.64 206.98 158.077 212.19 158.88V175.43H203.76C191.86 175.43 190.58 184.29 190.58 188.1V203.1H211.15L208.15 222.71H190.58V275.1C183.493 276.113 176.297 276.113 169.21 275.1V222.74H150.21V203.13H169.21V185.66C169.21 168.07 179.4 157.57 196.45 157.57ZM196.45 156.57C179.37 156.57 168.21 166.92 168.21 185.66V202.13H149.21V223.74H168.21V276C175.954 277.2 183.836 277.2 191.58 276V223.74H209L212.31 202.13H191.58V188.13C191.58 182.22 194.47 176.46 203.76 176.46H213.19V158C207.653 157.106 202.058 156.618 196.45 156.54V156.57Z" fill="black"/>
<path d="M126.8 136.24C113.475 136.24 100.45 132.289 89.3712 124.886C78.2923 117.483 69.6573 106.962 64.5582 94.6514C59.4591 82.3412 58.125 68.7953 60.7245 55.7268C63.3239 42.6583 69.7403 30.6541 79.1622 21.2322C88.584 11.8104 100.588 5.39401 113.657 2.79453C126.725 0.19504 140.271 1.52919 152.581 6.62827C164.892 11.7273 175.413 20.3623 182.816 31.4413C190.219 42.5202 194.17 55.5455 194.17 68.87C194.151 86.732 187.048 103.857 174.417 116.487C161.787 129.118 144.662 136.222 126.8 136.24Z" fill="#8E64E9"/>
<path d="M126.8 2C140.026 2 152.954 5.92186 163.951 13.2696C174.948 20.6174 183.519 31.0611 188.58 43.28C193.641 55.4989 194.965 68.9442 192.385 81.9157C189.805 94.8872 183.436 106.802 174.084 116.154C164.732 125.506 152.817 131.875 139.846 134.455C126.874 137.035 113.429 135.711 101.21 130.65C88.991 125.589 78.5474 117.018 71.1996 106.021C63.8518 95.0243 59.93 82.0956 59.93 68.87C59.9511 51.1415 67.0031 34.1451 79.5391 21.6092C92.0751 9.07318 109.071 2.02117 126.8 2ZM126.8 1C113.377 1 100.255 4.98051 89.0934 12.4382C77.9322 19.8958 69.2332 30.4957 64.0963 42.8973C58.9593 55.2989 57.6153 68.9453 60.2341 82.1108C62.8528 95.2763 69.3168 107.37 78.8086 116.861C88.3004 126.353 100.394 132.817 113.559 135.436C126.725 138.055 140.371 136.711 152.773 131.574C165.174 126.437 175.774 117.738 183.232 106.577C190.689 95.4154 194.67 82.2934 194.67 68.87C194.67 50.8698 187.519 33.6068 174.791 20.8787C162.063 8.15057 144.8 1 126.8 1Z" fill="black"/>
<path d="M64.3401 173.25C63.7982 173.25 63.2684 173.089 62.8178 172.788C62.3672 172.487 62.0161 172.059 61.8087 171.559C61.6013 171.058 61.547 170.507 61.6527 169.975C61.7585 169.444 62.0194 168.956 62.4026 168.573C62.7858 168.189 63.274 167.928 63.8056 167.823C64.3371 167.717 64.888 167.771 65.3886 167.979C65.8893 168.186 66.3172 168.537 66.6183 168.988C66.9194 169.438 67.0801 169.968 67.0801 170.51C67.0801 171.237 66.7914 171.934 66.2776 172.447C65.7637 172.961 65.0668 173.25 64.3401 173.25Z" fill="white"/>
<path d="M64.3401 168.27C64.7831 168.27 65.2162 168.401 65.5846 168.648C65.9529 168.894 66.2401 169.243 66.4096 169.653C66.5791 170.062 66.6235 170.513 66.5371 170.947C66.4506 171.382 66.2373 171.781 65.924 172.094C65.6108 172.407 65.2116 172.621 64.7771 172.707C64.3426 172.793 63.8922 172.749 63.4829 172.579C63.0736 172.41 62.7237 172.123 62.4776 171.754C62.2315 171.386 62.1001 170.953 62.1001 170.51C62.1027 169.917 62.3396 169.349 62.7591 168.929C63.1786 168.509 63.7468 168.273 64.3401 168.27ZM64.3401 167.27C63.6993 167.27 63.0729 167.46 62.5401 167.816C62.0072 168.172 61.592 168.678 61.3467 169.27C61.1015 169.862 61.0373 170.514 61.1624 171.142C61.2874 171.771 61.596 172.348 62.0491 172.801C62.5022 173.254 63.0795 173.563 63.708 173.688C64.3365 173.813 64.988 173.749 65.58 173.503C66.172 173.258 66.678 172.843 67.0341 172.31C67.3901 171.777 67.5801 171.151 67.5801 170.51C67.5801 169.651 67.2387 168.827 66.6311 168.219C66.0235 167.611 65.1994 167.27 64.3401 167.27Z" fill="black"/>
<path d="M49.94 198.13C47.3487 198.138 44.8132 197.377 42.6543 195.944C40.4954 194.511 38.8101 192.469 37.8116 190.078C36.8131 187.687 36.5462 185.053 37.0447 182.51C37.5433 179.967 38.7848 177.629 40.6122 175.792C42.4397 173.955 44.771 172.701 47.3113 172.189C49.8515 171.676 52.4866 171.929 54.8831 172.915C57.2797 173.901 59.3301 175.575 60.7749 177.726C62.2197 179.877 62.9941 182.409 63 185C63.0027 188.471 61.6298 191.802 59.182 194.263C56.7342 196.724 53.411 198.114 49.94 198.13ZM49.94 175.82C48.1176 175.822 46.3367 176.365 44.8228 177.379C43.3089 178.394 42.1301 179.835 41.4354 181.52C40.7407 183.204 40.5615 185.057 40.9205 186.844C41.2794 188.631 42.1603 190.271 43.4518 191.557C44.7432 192.843 46.3871 193.716 48.1754 194.068C49.9636 194.419 51.8159 194.231 53.4977 193.529C55.1795 192.827 56.6152 191.642 57.6231 190.124C58.6311 188.606 59.166 186.823 59.16 185C59.1494 182.562 58.1734 180.227 56.4454 178.506C54.7175 176.786 52.3784 175.82 49.94 175.82Z" fill="white"/>
<path d="M49.9401 172.43C52.4334 172.43 54.8707 173.17 56.9434 174.555C59.0161 175.941 60.631 177.911 61.5838 180.215C62.5366 182.519 62.7844 185.054 62.2957 187.499C61.8071 189.944 60.6041 192.189 58.839 193.95C57.0738 195.711 54.8259 196.909 52.3798 197.391C49.9337 197.874 47.3993 197.62 45.0975 196.662C42.7956 195.704 40.8299 194.084 39.449 192.008C38.0681 189.932 37.3342 187.493 37.3401 185C37.3427 181.659 38.6711 178.456 41.0335 176.093C43.3959 173.731 46.5992 172.403 49.9401 172.4M49.9401 194.71C51.8606 194.71 53.7379 194.14 55.3347 193.073C56.9315 192.007 58.176 190.49 58.911 188.716C59.6459 186.941 59.8382 184.989 59.4635 183.106C59.0889 181.222 58.1641 179.492 56.8061 178.134C55.4481 176.776 53.718 175.851 51.8344 175.476C49.9509 175.102 47.9985 175.294 46.2242 176.029C44.45 176.764 42.9335 178.009 41.8665 179.605C40.7996 181.202 40.2301 183.079 40.2301 185C40.2354 187.574 41.2601 190.04 43.0799 191.86C44.8998 193.68 47.3665 194.705 49.9401 194.71ZM49.9401 171.4C47.2503 171.4 44.6208 172.198 42.3843 173.692C40.1478 175.186 38.4047 177.31 37.3753 179.795C36.346 182.28 36.0767 185.015 36.6014 187.653C37.1262 190.291 38.4215 192.715 40.3234 194.617C42.2254 196.519 44.6487 197.814 47.2869 198.339C49.925 198.863 52.6595 198.594 55.1446 197.565C57.6297 196.535 59.7537 194.792 61.2481 192.556C62.7425 190.319 63.5401 187.69 63.5401 185C63.5374 181.394 62.1037 177.936 59.5538 175.386C57.0039 172.836 53.5462 171.403 49.9401 171.4ZM49.9401 193.71C48.2178 193.708 46.5348 193.195 45.1038 192.237C43.6728 191.279 42.5579 189.918 41.9002 188.326C41.2425 186.734 41.0715 184.983 41.4087 183.295C41.7459 181.606 42.5762 180.055 43.7947 178.837C45.0132 177.62 46.5652 176.792 48.2545 176.457C49.9438 176.121 51.6946 176.294 53.2856 176.954C54.8765 177.613 56.2363 178.73 57.1929 180.162C58.1495 181.594 58.6601 183.278 58.6601 185C58.6574 187.311 57.7376 189.526 56.1025 191.159C54.4675 192.793 52.251 193.71 49.9401 193.71Z" fill="black"/>
<path d="M38.6901 212.14C34.4236 212.138 30.3326 210.441 27.3157 207.425C24.2988 204.408 22.6027 200.317 22.6001 196.05V174C22.6054 169.734 24.3023 165.645 27.3186 162.629C30.3349 159.612 34.4244 157.915 38.6901 157.91H60.7401C65.0058 157.915 69.0953 159.612 72.1116 162.629C75.1279 165.645 76.8248 169.734 76.8301 174V196.05C76.8275 200.317 75.1314 204.408 72.1145 207.425C69.0976 210.441 65.0066 212.138 60.7401 212.14H38.6901ZM38.6901 162.14C35.5427 162.143 32.5245 163.392 30.2961 165.615C28.0677 167.838 26.8107 170.853 26.8001 174V196.05C26.7948 197.616 27.0984 199.167 27.6933 200.616C28.2882 202.064 29.1629 203.381 30.2672 204.491C31.3716 205.601 32.6839 206.482 34.1292 207.084C35.5745 207.686 37.1244 207.998 38.6901 208H60.7401C63.8946 207.995 66.9183 206.739 69.1488 204.509C71.3794 202.278 72.6348 199.255 72.6401 196.1V174C72.6348 170.847 71.379 167.824 69.1482 165.595C66.9174 163.366 63.8936 162.113 60.7401 162.11L38.6901 162.14Z" fill="white"/>
<path d="M60.7401 158.41C64.8732 158.415 68.8355 160.06 71.758 162.982C74.6806 165.905 76.3248 169.867 76.3301 174V196.05C76.3275 200.184 74.6841 204.148 71.761 207.071C68.8379 209.994 64.874 211.638 60.7401 211.64H38.6901C34.5562 211.638 30.5923 209.994 27.6692 207.071C24.7461 204.148 23.1027 200.184 23.1001 196.05V174C23.1054 169.867 24.7496 165.905 27.6721 162.982C30.5947 160.06 34.557 158.415 38.6901 158.41H60.7401ZM38.6901 208.41H60.7401C64.028 208.408 67.1804 207.1 69.5053 204.775C71.8302 202.45 73.1375 199.298 73.1401 196.01V174C73.1348 170.714 71.8264 167.564 69.5018 165.241C67.1772 162.919 64.0262 161.613 60.7401 161.61H38.6901C35.4057 161.615 32.2573 162.923 29.9349 165.245C27.6125 167.567 26.3054 170.716 26.3001 174V196.05C26.3027 199.336 27.6086 202.487 29.9314 204.812C32.2541 207.136 35.404 208.445 38.6901 208.45M60.7401 157.45H38.6901C34.2987 157.455 30.0881 159.199 26.9791 162.301C23.8702 165.402 22.116 169.609 22.1001 174V196.05C22.1054 200.448 23.855 204.665 26.965 207.775C30.0751 210.885 34.2918 212.635 38.6901 212.64H60.7401C65.1384 212.635 69.3551 210.885 72.4652 207.775C75.5752 204.665 77.3248 200.448 77.3301 196.05V174C77.3248 169.602 75.5752 165.385 72.4652 162.275C69.3551 159.165 65.1384 157.415 60.7401 157.41V157.45ZM38.6901 207.45C35.6692 207.445 32.7736 206.242 30.6385 204.105C28.5033 201.968 27.3027 199.071 27.3001 196.05V174C27.3027 170.98 28.5036 168.085 30.6391 165.949C32.7745 163.814 35.6701 162.613 38.6901 162.61H60.7401C63.761 162.613 66.6576 163.813 68.7947 165.949C70.9317 168.084 72.1348 170.979 72.1401 174V196.05C72.1375 199.073 70.9355 201.971 68.7982 204.108C66.6609 206.246 63.7628 207.448 60.7401 207.45H38.6901Z" fill="black"/>
<path d="M61.6001 173.25C61.0582 173.25 60.5284 173.089 60.0778 172.788C59.6273 172.487 59.2761 172.059 59.0687 171.559C58.8613 171.058 58.807 170.507 58.9128 169.975C59.0185 169.444 59.2794 168.956 59.6626 168.573C60.0458 168.189 60.5341 167.928 61.0656 167.823C61.5971 167.717 62.148 167.771 62.6487 167.979C63.1493 168.186 63.5773 168.537 63.8783 168.988C64.1794 169.438 64.3401 169.968 64.3401 170.51C64.3401 171.237 64.0514 171.934 63.5376 172.447C63.0237 172.961 62.3268 173.25 61.6001 173.25Z" fill="white"/>
<path d="M61.6001 168.27C62.0431 168.27 62.4762 168.401 62.8446 168.648C63.213 168.894 63.5001 169.243 63.6696 169.653C63.8391 170.062 63.8835 170.513 63.7971 170.947C63.7106 171.382 63.4973 171.781 63.184 172.094C62.8708 172.407 62.4716 172.621 62.0371 172.707C61.6026 172.793 61.1522 172.749 60.7429 172.579C60.3336 172.41 59.9838 172.123 59.7376 171.754C59.4915 171.386 59.3601 170.953 59.3601 170.51C59.3627 169.917 59.5996 169.349 60.0191 168.929C60.4386 168.509 61.0068 168.273 61.6001 168.27ZM61.6001 167.27C60.9593 167.27 60.3329 167.46 59.8001 167.816C59.2672 168.172 58.852 168.678 58.6067 169.27C58.3615 169.862 58.2973 170.514 58.4224 171.142C58.5474 171.771 58.856 172.348 59.3091 172.801C59.7622 173.254 60.3395 173.563 60.968 173.688C61.5965 173.813 62.248 173.749 62.84 173.503C63.432 173.258 63.9381 172.843 64.2941 172.31C64.6501 171.777 64.8401 171.151 64.8401 170.51C64.8401 169.651 64.4988 168.827 63.8911 168.219C63.2835 167.611 62.4594 167.27 61.6001 167.27Z" fill="black"/>
<path d="M47.2001 198.13C44.6104 198.13 42.0789 197.363 39.9252 195.924C37.7716 194.486 36.0925 192.442 35.1001 190.05C34.1078 187.658 33.8466 185.026 34.3496 182.486C34.8527 179.945 36.0973 177.611 37.9264 175.778C39.7555 173.944 42.0869 172.694 44.626 172.186C47.1652 171.677 49.7982 171.932 52.1925 172.919C54.5867 173.906 56.6347 175.58 58.0778 177.73C59.5208 179.881 60.2941 182.411 60.3001 185C60.3027 188.478 58.9244 191.815 56.4679 194.277C54.0115 196.739 50.678 198.125 47.2001 198.13ZM47.2001 175.82C45.3772 175.82 43.5954 176.361 42.0802 177.374C40.5649 178.388 39.3845 179.828 38.6883 181.513C37.9921 183.197 37.8115 185.051 38.1693 186.838C38.5271 188.625 39.4073 190.266 40.6983 191.553C41.9893 192.84 43.6332 193.715 45.4217 194.067C47.2103 194.419 49.063 194.232 50.7454 193.53C52.4278 192.829 53.8641 191.644 54.8725 190.125C55.8809 188.607 56.416 186.823 56.4101 185C56.3995 182.564 55.4248 180.23 53.699 178.51C51.9733 176.79 49.6367 175.823 47.2001 175.82Z" fill="white"/>
<path d="M47.2001 172.43C49.6934 172.43 52.1307 173.17 54.2034 174.555C56.2761 175.941 57.8911 177.911 58.8438 180.215C59.7966 182.519 60.0444 185.054 59.5558 187.499C59.0672 189.944 57.8641 192.189 56.099 193.95C54.3338 195.711 52.0859 196.909 49.6398 197.391C47.1937 197.874 44.6593 197.62 42.3575 196.662C40.0556 195.704 38.0899 194.084 36.709 192.008C35.3281 189.932 34.5942 187.493 34.6001 185C34.6028 181.659 35.9311 178.456 38.2935 176.093C40.6559 173.731 43.8592 172.403 47.2001 172.4M47.2001 194.71C49.1206 194.71 50.9979 194.14 52.5947 193.073C54.1915 192.007 55.436 190.49 56.171 188.716C56.9059 186.941 57.0982 184.989 56.7235 183.106C56.3489 181.222 55.4241 179.492 54.0661 178.134C52.7081 176.776 50.978 175.851 49.0944 175.476C47.2109 175.102 45.2585 175.294 43.4842 176.029C41.71 176.764 40.1935 178.009 39.1265 179.605C38.0596 181.202 37.4901 183.079 37.4901 185C37.4954 187.574 38.5201 190.04 40.3399 191.86C42.1598 193.68 44.6265 194.705 47.2001 194.71ZM47.2001 171.4C44.5103 171.4 41.8809 172.198 39.6443 173.692C37.4078 175.186 35.6647 177.31 34.6353 179.795C33.606 182.28 33.3367 185.015 33.8614 187.653C34.3862 190.291 35.6815 192.715 37.5835 194.617C39.4854 196.519 41.9087 197.814 44.5469 198.339C47.185 198.863 49.9195 198.594 52.4046 197.565C54.8897 196.535 57.0137 194.792 58.5081 192.556C60.0025 190.319 60.8001 187.69 60.8001 185C60.7975 181.394 59.3638 177.936 56.8138 175.386C54.2639 172.836 50.8062 171.403 47.2001 171.4ZM47.2001 193.71C45.4779 193.708 43.7949 193.195 42.3638 192.237C40.9328 191.279 39.818 189.918 39.1602 188.326C38.5025 186.734 38.3315 184.983 38.6687 183.295C39.0059 181.606 39.8362 180.055 41.0547 178.837C42.2733 177.62 43.8252 176.792 45.5145 176.457C47.2038 176.121 48.9546 176.294 50.5456 176.954C52.1365 177.613 53.4963 178.73 54.4529 180.162C55.4095 181.594 55.9201 183.278 55.9201 185C55.9175 187.311 54.9976 189.526 53.3625 191.159C51.7275 192.793 49.5111 193.71 47.2001 193.71Z" fill="black"/>
<path d="M35.9999 212.14C31.7334 212.138 27.6424 210.441 24.6255 207.425C21.6086 204.408 19.9126 200.317 19.9099 196.05V174C19.9152 169.734 21.6121 165.645 24.6284 162.629C27.6447 159.612 31.7342 157.915 35.9999 157.91H57.9999C62.2656 157.915 66.3551 159.612 69.3714 162.629C72.3877 165.645 74.0846 169.734 74.0899 174V196.05C74.0873 200.317 72.3912 204.408 69.3743 207.425C66.3574 210.441 62.2664 212.138 57.9999 212.14H35.9999ZM35.9999 162.14C34.4372 162.135 32.8887 162.437 31.4429 163.031C29.9971 163.624 28.6823 164.496 27.5736 165.597C26.4649 166.699 25.5839 168.007 24.981 169.449C24.3782 170.891 24.0652 172.437 24.0599 174V196.05C24.0546 197.62 24.3598 199.176 24.9578 200.627C25.5559 202.079 26.435 203.398 27.5447 204.508C28.6543 205.619 29.9726 206.499 31.4237 207.098C32.8747 207.698 34.43 208.004 35.9999 208H57.9999C61.1544 207.995 64.1781 206.739 66.4086 204.509C68.6392 202.278 69.8946 199.255 69.8999 196.1V174C69.8946 170.847 68.6389 167.824 66.408 165.595C64.1772 163.366 61.1534 162.113 57.9999 162.11L35.9999 162.14Z" fill="white"/>
<path d="M58.0001 158.41C62.1332 158.415 66.0955 160.06 69.0181 162.982C71.9406 165.905 73.5848 169.867 73.5901 174V196.05C73.5875 200.184 71.9441 204.148 69.021 207.071C66.0979 209.994 62.134 211.638 58.0001 211.64H36.0001C31.8662 211.638 27.9024 209.994 24.9792 207.071C22.0561 204.148 20.4128 200.184 20.4101 196.05V174C20.4154 169.867 22.0596 165.905 24.9822 162.982C27.9047 160.06 31.867 158.415 36.0001 158.41H58.0001ZM36.0001 208.41H58.0001C61.288 208.408 64.4404 207.1 66.7653 204.775C69.0902 202.45 70.3975 199.298 70.4001 196.01V174C70.3948 170.714 69.0864 167.564 66.7618 165.241C64.4372 162.919 61.2862 161.613 58.0001 161.61H36.0001C34.3696 161.606 32.7542 161.924 31.2464 162.544C29.7386 163.165 28.3679 164.077 27.2126 165.227C26.0573 166.378 25.1401 167.745 24.5134 169.25C23.8867 170.756 23.5627 172.37 23.5601 174V196.05C23.5614 197.682 23.8844 199.297 24.5105 200.803C25.1366 202.31 26.0536 203.678 27.209 204.829C28.3645 205.981 29.7356 206.894 31.2441 207.515C32.7526 208.136 34.3687 208.454 36.0001 208.45M58.0001 157.45H36.0001C31.6 157.442 27.3766 159.18 24.2568 162.283C21.1371 165.386 19.376 169.6 19.3601 174V196.05C19.3627 198.232 19.7953 200.392 20.6331 202.407C21.4709 204.422 22.6974 206.252 24.2427 207.793C25.788 209.334 27.6218 210.555 29.6391 211.386C31.6565 212.218 33.818 212.644 36.0001 212.64H58.0001C62.3984 212.635 66.6151 210.885 69.7252 207.775C72.8352 204.665 74.5848 200.448 74.5901 196.05V174C74.5848 169.602 72.8352 165.385 69.7252 162.275C66.6151 159.165 62.3984 157.415 58.0001 157.41V157.45ZM36.0001 207.45C32.9792 207.445 30.0837 206.242 27.9485 204.105C25.8133 201.968 24.6128 199.071 24.6101 196.05V174C24.6128 170.98 25.8136 168.085 27.9491 165.949C30.0846 163.814 32.9801 162.613 36.0001 162.61H58.0001C61.021 162.613 63.9176 163.813 66.0547 165.949C68.1917 168.084 69.3948 170.979 69.4001 174V196.05C69.3975 199.073 68.1955 201.971 66.0582 204.108C63.9209 206.246 61.0228 207.448 58.0001 207.45H36.0001Z" fill="black"/>
<path d="M98.6 51.6601H112.6V96.5201H98.6V51.6601ZM105.6 29.3701C107.2 29.3701 108.765 29.8448 110.096 30.7342C111.426 31.6236 112.463 32.8877 113.075 34.3665C113.687 35.8454 113.847 37.4725 113.534 39.0421C113.221 40.6117 112.449 42.0531 111.317 43.1841C110.185 44.3152 108.742 45.0849 107.172 45.3959C105.602 45.7069 103.975 45.5453 102.497 44.9314C101.019 44.3176 99.7563 43.2791 98.8686 41.9474C97.9808 40.6157 97.508 39.0506 97.51 37.4501C97.5127 35.3062 98.3662 33.2511 99.8831 31.7361C101.4 30.2211 103.456 29.3701 105.6 29.3701Z" fill="white" stroke="black" stroke-miterlimit="10"/>
<path d="M151.36 95.9998V74.7098C151.36 69.7698 151.36 62.3198 143.61 62.3198C135.86 62.3198 134.74 68.7398 134.74 74.3198V95.9998H121.81V52.1598H134.18V58.2998H135.18L135.32 58.0298C137.02 54.8098 141.38 51.0298 148.08 51.0298C161.54 51.0298 164.3 59.3698 164.3 71.8998V95.9998H151.36Z" fill="white"/>
<path d="M148.07 51.5498C161.12 51.5498 163.79 59.6898 163.79 71.9198V95.5198H151.86V74.7098C151.86 69.8898 151.86 61.8198 143.61 61.8198C135.36 61.8198 134.25 68.4998 134.25 74.3298V95.5198H122.31V52.6598H133.68V58.7998H135.47L135.75 58.2698C137.39 55.1698 141.6 51.5498 148.07 51.5498ZM148.07 50.5498C141.28 50.5498 136.73 54.2698 134.87 57.7998H134.68V51.6598H121.31V96.5198H135.25V74.3298C135.25 68.4798 136.35 62.8198 143.61 62.8198C150.87 62.8198 150.86 69.5098 150.86 74.7098V96.5198H164.79V71.9198C164.79 59.8398 162.19 50.5498 148.07 50.5498Z" fill="black"/>
<path d="M94.2499 51.6601H108.25V96.5201H94.2499V51.6601ZM101.25 29.3701C102.85 29.3701 104.415 29.8448 105.746 30.7342C107.076 31.6236 108.113 32.8877 108.725 34.3665C109.337 35.8454 109.497 37.4725 109.184 39.0421C108.871 40.6117 108.099 42.0531 106.967 43.1841C105.834 44.3152 104.392 45.0849 102.822 45.3959C101.252 45.7069 99.6251 45.5453 98.1471 44.9314C96.669 44.3176 95.4062 43.2791 94.5185 41.9474C93.6307 40.6157 93.1579 39.0506 93.1599 37.4501C93.1626 35.3062 94.0161 33.2511 95.5329 31.7361C97.0498 30.2211 99.106 29.3701 101.25 29.3701Z" fill="white" stroke="black" stroke-miterlimit="10"/>
<path d="M147 96V74.71C147 69.77 147 62.32 139.25 62.32C131.5 62.32 130.39 68.74 130.39 74.32V96H117.46V52.16H129.84V58.3H130.84L131 58C132.7 54.78 137.06 51 143.76 51C157.22 51 159.98 59.34 159.98 71.87V96H147Z" fill="white"/>
<path d="M143.72 51.5498C156.77 51.5498 159.44 59.6898 159.44 71.9198V95.5198H147.51V74.7098C147.51 69.8898 147.51 61.8198 139.26 61.8198C131.01 61.8198 129.9 68.4998 129.9 74.3298V95.5198H118V52.6598H129.38V58.7998H131.16L131.44 58.2698C133.08 55.1698 137.29 51.5498 143.76 51.5498M143.76 50.5498C136.97 50.5498 132.42 54.2698 130.56 57.7998H130.38V51.6598H117V96.5198H130.9V74.3298C130.9 68.4798 132 62.8198 139.26 62.8198C146.52 62.8198 146.51 69.5098 146.51 74.7098V96.5198H160.44V71.9198C160.44 59.8398 157.84 50.5498 143.72 50.5498H143.76Z" fill="black"/>
</g>
<defs>
<clipPath id="clip0_221_457">
<rect width="287.63" height="306.42" fill="white"/>
</clipPath>
</defs>
</svg>
