<svg width="453" height="222" viewBox="0 0 453 222" fill="none" xmlns="http://www.w3.org/2000/svg">
<g clip-path="url(#clip0_227_29)">
<path d="M213.615 152.387C211.742 148.736 209.029 145.584 205.699 143.19C201.852 140.441 197.63 138.262 193.163 136.718C187.767 134.809 182.251 133.258 176.651 132.074C172.998 131.262 169.983 130.479 167.607 129.726C165.659 129.148 163.77 128.386 161.966 127.449C160.809 126.869 159.818 126.006 159.083 124.939C158.505 123.977 158.213 122.87 158.241 121.748V121.443C158.238 120.47 158.477 119.511 158.937 118.654C159.397 117.796 160.062 117.067 160.874 116.531C163.264 115.051 166.058 114.361 168.861 114.559H169.846C174.575 114.717 179.25 115.606 183.707 117.194C187.662 118.576 191.456 120.379 195.026 122.573C196.243 123.308 197.461 124.115 198.607 124.975L199.36 123.917L206.935 113.161L213.364 104.035C207.589 99.3414 201.011 95.7334 193.951 93.3862C186.056 90.8766 177.806 89.6657 169.524 89.8007C163.696 89.7192 157.893 90.5665 152.331 92.3106C148.968 93.3964 145.759 94.9151 142.786 96.8284C141.573 97.5994 140.413 98.4499 139.312 99.3741C135.801 102.297 132.991 105.973 131.092 110.131C129.184 114.435 128.225 119.101 128.28 123.81V124.115C128.043 128.64 128.993 133.149 131.035 137.193C133.077 141.238 136.14 144.677 139.921 147.17C142.656 149.026 145.587 150.577 148.66 151.795C149.926 152.321 151.251 152.805 152.636 153.247L155.627 154.197C159.638 155.393 163.918 156.522 168.467 157.586C172.12 158.386 175.105 159.169 177.421 159.934C179.324 160.534 181.16 161.327 182.901 162.301L183.475 162.659C184.376 163.194 185.142 163.93 185.713 164.811C186.239 165.706 186.506 166.73 186.483 167.769V168.073C186.501 169.169 186.221 170.249 185.672 171.196C185.123 172.144 184.326 172.924 183.367 173.452C180.565 174.868 177.439 175.518 174.305 175.334C161.648 175.235 149.423 170.714 139.742 162.552L134.065 169.346L123.319 182.236C129.92 188.178 137.658 192.716 146.063 195.575C154.806 198.572 163.99 200.075 173.231 200.021C179.199 200.099 185.148 199.308 190.889 197.672C195.805 196.283 200.408 193.957 204.446 190.824C208.138 187.899 211.125 184.18 213.185 179.942C213.73 178.826 214.203 177.676 214.6 176.5C215.804 172.906 216.409 169.139 216.391 165.348V165.044C216.463 160.666 215.513 156.331 213.615 152.387Z" fill="#1CCA7E" stroke="black" stroke-linecap="round" stroke-linejoin="round"/>
<path d="M259.676 173.237V156.331H310.823V133.024H259.676V116.889H316.142V91.7905H230.646V198.443H316.984V173.344L259.676 173.237Z" fill="#1CCA7E" stroke="black" stroke-linecap="round" stroke-linejoin="round"/>
<path d="M438.96 123.254C436.156 116.703 432.098 110.765 427.015 105.774C421.79 100.704 415.636 96.6921 408.891 93.9597C394.217 88.1755 377.898 88.1755 363.224 93.9597C356.442 96.7028 350.243 100.712 344.957 105.774C341.923 108.712 339.254 112.004 337.006 115.581C331.421 124.378 328.475 134.595 328.517 145.018V145.323C328.464 152.718 329.946 160.044 332.869 166.836C334.934 171.685 337.691 176.208 341.053 180.264C342.231 181.695 343.486 183.059 344.814 184.352C345.62 185.141 346.444 185.894 347.285 186.629C349.191 188.285 351.214 189.801 353.338 191.164C356.373 193.121 359.58 194.795 362.92 196.166C366.847 197.796 370.952 198.958 375.151 199.626C377.75 200.079 380.377 200.348 383.013 200.433C383.389 200.433 383.747 200.433 384.123 200.433C384.5 200.433 385.198 200.433 385.735 200.433C389.39 200.442 393.039 200.136 396.642 199.519C398.745 199.163 400.826 198.685 402.874 198.084C404.81 197.534 406.711 196.87 408.569 196.094L408.927 195.933C413.083 194.216 417.026 192.02 420.675 189.389C422.663 187.958 424.548 186.388 426.316 184.692C426.495 184.549 426.657 184.37 426.836 184.208C429.264 181.863 431.459 179.287 433.39 176.517C435.56 173.412 437.403 170.089 438.888 166.603C441.006 161.662 442.359 156.427 442.9 151.078C443.116 149.077 443.224 147.066 443.222 145.054V144.749C443.29 137.367 441.839 130.05 438.96 123.254ZM358.657 144.767C358.638 141.025 359.287 137.309 360.573 133.795C361.414 131.49 362.559 129.308 363.976 127.305C364.615 126.398 365.315 125.536 366.071 124.724C368.571 122 371.62 119.838 375.015 118.379C378.411 116.92 382.077 116.199 385.771 116.262C389.614 116.213 393.419 117.021 396.91 118.628C400.199 120.144 403.157 122.294 405.614 124.957C408.063 127.614 409.978 130.718 411.255 134.1C412.591 137.602 413.265 141.323 413.243 145.072V145.377C413.243 146.148 413.243 146.918 413.243 147.671C413.052 150.643 412.412 153.569 411.345 156.349C410.082 159.651 408.218 162.691 405.847 165.312C403.463 167.946 400.553 170.047 397.304 171.48C393.754 173.107 389.89 173.933 385.986 173.9C382.143 173.949 378.338 173.14 374.847 171.533C371.578 170.027 368.643 167.881 366.215 165.223C363.814 162.543 361.926 159.443 360.645 156.08C359.314 152.576 358.64 148.856 358.657 145.108V144.767Z" fill="#1CCA7E" stroke="black" stroke-linecap="round" stroke-linejoin="round"/>
<path d="M230.664 91.7007L238.723 81.0874V185.069L230.664 198.371V91.7007Z" fill="#1CCA7E" stroke="black" stroke-linecap="round" stroke-linejoin="round"/>
<path d="M322.858 185.069L316.966 198.371H230.664L238.723 185.069" fill="#1CCA7E"/>
<path d="M322.858 185.069L316.966 198.371H230.664L238.723 185.069" stroke="black" stroke-linecap="round" stroke-linejoin="round"/>
<path d="M322.123 105.595L316.196 116.853H267.054V105.595H322.123Z" fill="#1CCA7E" stroke="black" stroke-linecap="round" stroke-linejoin="round"/>
<path d="M316.93 144.068L310.877 156.313H267.054V144.068H316.93Z" fill="#1CCA7E" stroke="black" stroke-linecap="round" stroke-linejoin="round"/>
<path d="M117.982 91.1631C137.477 91.1631 153.28 75.3428 153.28 55.8274C153.28 36.312 137.477 20.4917 117.982 20.4917C98.4878 20.4917 82.6843 36.312 82.6843 55.8274C82.6843 75.3428 98.4878 91.1631 117.982 91.1631Z" fill="#1CCA7E" stroke="black" stroke-linecap="round" stroke-linejoin="round"/>
<path d="M122.585 87.8286C142.079 87.8286 157.883 72.0083 157.883 52.4929C157.883 32.9776 142.079 17.1572 122.585 17.1572C103.09 17.1572 87.2869 32.9776 87.2869 52.4929C87.2869 72.0083 103.09 87.8286 122.585 87.8286Z" fill="#FEFFFF" stroke="black" stroke-linecap="round" stroke-linejoin="round"/>
<path d="M157.883 52.4929C157.885 47.8519 156.974 43.2559 155.201 38.9678C153.428 34.6796 150.828 30.7833 147.55 27.5016C144.271 24.2199 140.379 21.6172 136.096 19.8422C131.812 18.0673 127.221 17.1549 122.585 17.1572V52.4929H157.883Z" fill="#FFF167" stroke="black" stroke-linecap="round" stroke-linejoin="round"/>
<path d="M222.068 140.231C220.245 136.675 217.606 133.603 214.367 131.267C210.605 128.591 206.48 126.466 202.117 124.957C201.24 124.652 200.326 124.329 199.431 124.042C198.01 123.576 196.542 123.128 195.025 122.698C192.196 121.891 189.187 121.138 186.071 120.457C182.489 119.668 179.546 118.903 177.242 118.162C175.344 117.596 173.503 116.852 171.744 115.939C171.099 115.573 170.498 115.133 169.953 114.63C169.585 114.294 169.266 113.908 169.004 113.483C168.438 112.55 168.152 111.473 168.18 110.381V110.077C168.187 109.134 168.428 108.208 168.881 107.382C169.335 106.555 169.986 105.855 170.777 105.344C173.105 103.892 175.832 103.214 178.567 103.407C183.502 103.454 188.394 104.333 193.038 106.007C198.049 107.779 202.791 110.234 207.132 113.304L207.651 113.662L221.978 93.2424C216.355 88.6628 209.947 85.1455 203.066 82.8622C195.373 80.3838 187.329 79.1728 179.248 79.2767C173.547 79.1995 167.87 80.0347 162.432 81.7507C157.8 83.2104 153.494 85.5543 149.752 88.6529C146.976 90.9654 144.646 93.7663 142.875 96.9176C142.464 97.6527 142.087 98.4056 141.729 99.1765C139.87 103.381 138.936 107.936 138.989 112.533V112.82C138.834 117.483 139.883 122.108 142.034 126.248C144.079 129.835 146.923 132.902 150.343 135.211C154.162 137.785 158.338 139.785 162.736 141.146C167.482 142.687 172.622 144.086 178.173 145.376C181.755 146.165 184.644 146.93 186.841 147.671C188.707 148.246 190.508 149.015 192.214 149.966C193.313 150.549 194.254 151.392 194.954 152.422C195.46 153.298 195.714 154.297 195.688 155.308V155.595C195.715 156.667 195.447 157.726 194.913 158.656C194.379 159.585 193.6 160.35 192.662 160.866C189.93 162.239 186.882 162.858 183.833 162.659H183.528C173.679 162.62 164.052 159.731 155.805 154.34C153.87 153.092 151.999 151.746 150.2 150.307L148.839 151.938L134.19 169.525C140.631 175.307 148.172 179.727 156.361 182.523C164.892 185.44 173.851 186.907 182.865 186.861C188.682 186.927 194.479 186.154 200.076 184.567C204.803 183.188 209.227 180.925 213.113 177.898C213.615 177.503 214.098 177.091 214.564 176.678C217.537 174.041 219.97 170.851 221.727 167.284C223.82 162.836 224.862 157.966 224.772 153.05V152.745C224.881 148.417 223.954 144.127 222.068 140.231Z" fill="#FEFFFF" stroke="black" stroke-linecap="round" stroke-linejoin="round"/>
<path d="M267.054 160.561V144.068H316.984V121.353H267.054V105.595H322.106V81.0874H238.705V185.069H322.876V160.561H267.054Z" fill="#FEFFFF" stroke="black" stroke-linecap="round" stroke-linejoin="round"/>
<path d="M441.789 111.834C439.061 105.432 435.107 99.6275 430.149 94.7485C425.056 89.8117 419.061 85.9038 412.491 83.2388C398.185 77.5968 382.275 77.5968 367.97 83.2388C361.354 85.9297 355.312 89.8605 350.168 94.8202C345.12 99.7194 341.107 105.584 338.367 112.067C337.865 113.232 337.4 114.415 337.006 115.652C335.08 121.271 334.111 127.174 334.14 133.114V133.419C334.086 140.616 335.525 147.747 338.367 154.358C340.776 160.016 344.145 165.214 348.324 169.723C348.861 170.296 349.434 170.888 350.007 171.515C351.082 172.555 352.192 173.559 353.338 174.509C353.822 174.922 354.305 175.298 354.807 175.675C358.572 178.547 362.689 180.927 367.056 182.756C367.253 182.864 367.468 182.935 367.665 183.025C374.731 185.904 382.298 187.348 389.926 187.274C391.931 187.274 393.884 187.184 395.818 187.005H396.641C398.738 186.801 400.819 186.466 402.874 186.001C404.925 185.576 406.947 185.019 408.927 184.334C409.446 184.154 409.966 183.975 410.485 183.76C411.004 183.545 411.613 183.348 412.168 183.115C414.214 182.271 416.211 181.313 418.15 180.246C421.621 178.354 424.876 176.087 427.856 173.487C428.591 172.86 429.289 172.197 429.987 171.533C435.045 166.6 439.058 160.698 441.789 154.179C442.219 153.175 442.613 152.171 442.971 151.149C445.019 145.395 446.055 139.33 446.034 133.222V132.935C446.1 125.682 444.654 118.495 441.789 111.834ZM409.357 152.906C407.021 155.47 404.179 157.521 401.011 158.93C397.596 160.445 393.894 161.204 390.158 161.153C386.41 161.207 382.696 160.423 379.288 158.858C376.103 157.388 373.246 155.291 370.889 152.691C368.55 150.069 366.727 147.027 365.516 143.727C364.212 140.293 363.556 136.645 363.582 132.971V132.684C363.582 130.839 363.738 128.998 364.048 127.18C364.351 125.407 364.818 123.667 365.445 121.981C366.616 118.71 368.432 115.709 370.786 113.156C373.14 110.603 375.982 108.55 379.145 107.119C382.525 105.611 386.19 104.853 389.89 104.896C393.64 104.848 397.354 105.638 400.76 107.208C403.958 108.684 406.836 110.774 409.231 113.358C411.628 115.963 413.501 119.006 414.747 122.321C416.054 125.756 416.71 129.403 416.681 133.078V133.383C416.722 138.39 415.489 143.326 413.1 147.725C412.064 149.596 410.807 151.336 409.357 152.906Z" fill="#FEFFFF" stroke="black" stroke-linecap="round" stroke-linejoin="round"/>
<path d="M107.255 140.411C106.809 132.951 104.685 125.688 101.041 119.166L107.201 115.742C104.099 110.16 100.079 105.142 95.3101 100.898L90.6359 106.186C85.0634 101.213 78.4389 97.5662 71.2587 95.5194L73.1749 88.7606C68.143 87.3211 62.9352 86.591 57.7018 86.5913C56.5915 86.5913 55.4812 86.6272 54.3708 86.6989L54.8006 93.7445C47.3209 94.1658 40.0342 96.2806 33.4893 99.9296L30.0508 93.7624C24.4809 96.8617 19.4737 100.88 15.2404 105.649L20.5055 110.346C15.509 115.911 11.8355 122.537 9.7603 129.726L3.09828 127.789V127.933C1.65664 132.97 0.915406 138.182 0.895508 143.422C0.895508 144.516 0.895508 145.61 0.985051 146.703L8.02316 146.291C8.46534 153.747 10.5769 161.007 14.2017 167.535L8.04107 170.96C11.1394 176.539 15.1463 181.563 19.8966 185.822L24.6066 180.551C30.1597 185.552 36.7722 189.23 43.948 191.308L42.0138 198.066H42.1929C47.2277 199.49 52.4342 200.214 57.666 200.218C58.8122 200.218 59.9583 200.218 61.0866 200.11L60.6568 193.082C68.1083 192.621 75.3609 190.489 81.8786 186.844L85.2991 192.993C90.871 189.882 95.8782 185.851 100.11 181.071L94.9161 176.374C99.8505 170.786 103.462 164.155 105.482 156.976L112.216 158.894C113.659 153.864 114.388 148.656 114.383 143.422C114.383 142.293 114.383 141.164 114.383 140.034L107.255 140.411ZM86.5706 151.58C85.048 156.968 82.0538 161.825 77.9248 165.603C73.7958 169.382 68.6958 171.932 63.1981 172.968C57.7004 174.004 52.0231 173.484 46.8045 171.466C41.586 169.449 37.0331 166.014 33.6579 161.548C30.2827 157.082 28.219 151.761 27.6988 146.186C27.1786 140.61 28.2226 134.999 30.7134 129.985C33.2041 124.97 37.0429 120.751 41.798 117.801C46.5531 114.851 52.036 113.287 57.6302 113.286C60.4044 113.282 63.1655 113.668 65.8324 114.433C69.6336 115.504 73.1864 117.315 76.2872 119.763C79.388 122.211 81.9757 125.247 83.9022 128.698C85.8287 132.149 87.0561 135.946 87.514 139.873C87.9719 143.799 87.6513 147.777 86.5706 151.58Z" fill="#FFF167" stroke="black" stroke-linecap="round" stroke-linejoin="round"/>
<path d="M110.855 135.606C110.409 128.146 108.285 120.884 104.64 114.361L110.801 110.937C107.699 105.355 103.679 100.337 98.9097 96.093L94.2355 101.382C88.663 96.4082 82.0385 92.7615 74.8583 90.7147L76.7745 83.9559C71.7426 82.5165 66.5348 81.7863 61.3014 81.7866C60.1911 81.7866 59.0807 81.8225 57.9704 81.8942L58.4002 88.9398C50.9497 89.38 43.695 91.5006 37.1784 95.1428L33.6683 88.9577C28.0897 92.0519 23.0758 96.071 18.84 100.844L24.1051 105.541C19.1086 111.107 15.4351 117.732 13.3599 124.921L6.69787 122.985V123.128C5.27439 128.168 4.55125 133.38 4.54883 138.618C4.54883 139.711 4.54883 140.805 4.63837 141.899L11.6765 141.486C12.1021 148.938 14.1953 156.198 17.8012 162.731L11.6407 166.155C14.734 171.754 18.7411 176.795 23.4962 181.071L28.2062 175.692C33.7593 180.694 40.3718 184.372 47.5476 186.449L45.6134 193.208H45.7925C50.8273 194.632 56.0338 195.355 61.2656 195.359C62.4118 195.359 63.5579 195.359 64.6862 195.252L64.2564 188.242C71.7079 187.78 78.9605 185.648 85.4781 182.003L88.8987 188.242C94.4692 185.136 99.4763 181.112 103.709 176.338L98.4977 171.569C103.458 165.988 107.094 159.357 109.136 152.171L115.815 154.179C117.254 149.142 117.977 143.928 117.964 138.689C117.964 137.56 117.964 136.431 117.964 135.301L110.855 135.606ZM90.1702 146.775C88.6476 152.164 85.6534 157.02 81.5244 160.799C77.3954 164.577 72.2953 167.128 66.7977 168.163C61.3 169.199 55.6227 168.679 50.4041 166.661C45.1856 164.644 40.6327 161.209 37.2575 156.743C33.8823 152.277 31.8186 146.957 31.2984 141.381C30.7782 135.805 31.8222 130.194 34.3129 125.18C36.8037 120.165 40.6425 115.946 45.3976 112.996C50.1527 110.046 55.6356 108.482 61.2298 108.481C64.004 108.477 66.7651 108.863 69.432 109.629C73.2332 110.699 76.786 112.511 79.8868 114.958C82.9875 117.406 85.5753 120.443 87.5018 123.893C89.4283 127.344 90.6557 131.141 91.1136 135.068C91.5715 138.994 91.2509 142.973 90.1702 146.775Z" fill="#FFF167" stroke="black" stroke-linecap="round" stroke-linejoin="round"/>
<path d="M184.549 6.07764H170.974V69.0759H184.549V6.07764Z" fill="#FFF167" stroke="black" stroke-linecap="round" stroke-linejoin="round"/>
<path d="M191.336 0.896484H177.762V63.8948H191.336V0.896484Z" fill="#10442B" stroke="black" stroke-linecap="round" stroke-linejoin="round"/>
<path d="M212.433 20.4736H198.858V69.0759H212.433V20.4736Z" fill="#FFF167" stroke="black" stroke-linecap="round" stroke-linejoin="round"/>
<path d="M219.22 15.2925H205.646V63.8948H219.22V15.2925Z" fill="#FEFFFF" stroke="black" stroke-linecap="round" stroke-linejoin="round"/>
<path d="M239.188 30.9795H225.614V69.0761H239.188V30.9795Z" fill="#FFF167" stroke="black" stroke-linecap="round" stroke-linejoin="round"/>
<path d="M245.976 25.7983H232.401V63.8949H245.976V25.7983Z" fill="#8E64E9" stroke="black" stroke-linecap="round" stroke-linejoin="round"/>
<path d="M170.974 6.07762L177.744 0.896484V63.8948L170.974 69.0938V6.07762Z" fill="#0B301F" stroke="black" stroke-linecap="round" stroke-linejoin="round"/>
<path d="M191.318 63.895L184.549 69.0941H170.974L177.744 63.895H191.318Z" fill="#0B301F" stroke="black" stroke-linecap="round" stroke-linejoin="round"/>
<path d="M198.858 69.0941L205.645 63.895H219.22L212.433 69.0941H198.858Z" fill="#C9C9C9" stroke="black" stroke-linecap="round" stroke-linejoin="round"/>
<path d="M198.858 20.4736L205.645 15.2925V63.8948L198.858 69.0938V20.4736Z" fill="#C9C9C9" stroke="black" stroke-linecap="round" stroke-linejoin="round"/>
<path d="M225.614 30.9795L232.419 25.7983V63.8949L225.614 69.094V30.9795Z" fill="#6849AB" stroke="black" stroke-linecap="round" stroke-linejoin="round"/>
<path d="M245.976 63.895L239.188 69.0941H225.614L232.419 63.895H245.976Z" fill="#6849AB" stroke="black" stroke-linecap="round" stroke-linejoin="round"/>
<g opacity="0.4">
<path d="M439.175 200.128L434.536 197.457L420.693 189.461L410.503 183.563L408.945 182.666L402.892 179.081V171.21L396.659 178.758V199.59C398.763 199.235 400.844 198.756 402.892 198.156V221.104L439.175 200.128Z" fill="#0D5E3B"/>
<path d="M378.93 197.457L353.338 182.666L347.285 179.081V171.21L341.053 178.005V180.264C342.231 181.694 343.486 183.059 344.814 184.352C345.62 185.14 346.443 185.893 347.285 186.628V221.104L383.103 200.433C383.479 200.433 383.837 200.433 384.213 200.433L383.64 200.092L378.93 197.457Z" fill="#0D5E3B"/>
</g>
<path d="M446.034 196.166L439.175 200.128L402.892 221.104V171.21L408.945 174.706L418.168 180.049L426.334 184.764L441.395 193.477L446.034 196.166Z" fill="#8E64E9" stroke="black" stroke-linecap="round" stroke-linejoin="round"/>
<path d="M390.427 196.166L383.568 200.128L383.031 200.433L347.285 221.104V171.21L353.338 174.706L354.807 175.567L367.056 182.648L385.789 193.477L390.427 196.166Z" fill="#8E64E9" stroke="black" stroke-linecap="round" stroke-linejoin="round"/>
<path d="M452.105 187.292L408.945 162.354V212.23L452.105 187.292Z" fill="white" stroke="black" stroke-linecap="round" stroke-linejoin="round"/>
<path d="M396.498 187.292L353.356 162.354V212.23L396.498 187.292Z" fill="white" stroke="black" stroke-linecap="round" stroke-linejoin="round"/>
<path d="M396.498 187.292L390.427 196.166L383.568 200.128L383.031 200.433L347.285 221.104L353.338 212.247L375.151 199.626L378.93 197.457L385.789 193.477L396.498 187.292Z" fill="#8E64E9" stroke="black" stroke-linecap="round" stroke-linejoin="round"/>
<path d="M353.338 162.354V212.248L347.285 221.104V171.211L348.324 169.687L353.338 162.354Z" fill="#8E64E9" stroke="black" stroke-linecap="round" stroke-linejoin="round"/>
<path d="M408.945 162.354V212.248L402.892 221.104V171.211L408.945 162.354Z" fill="#8E64E9" stroke="black" stroke-linecap="round" stroke-linejoin="round"/>
<path d="M452.105 187.292L446.034 196.166L439.175 200.128L402.892 221.104L408.945 212.247L434.536 197.457L441.395 193.477L452.105 187.292Z" fill="#8E64E9" stroke="black" stroke-linecap="round" stroke-linejoin="round"/>
</g>
<defs>
<clipPath id="clip0_227_29">
<rect width="453" height="222" fill="white"/>
</clipPath>
</defs>
</svg>
