<svg width="318" height="299" viewBox="0 0 318 299" fill="none" xmlns="http://www.w3.org/2000/svg">
<path d="M300.674 54.5312H31.688V248.169H300.674V54.5312Z" fill="#BCFF87"/>
<path d="M300.424 54.7794V247.921H31.937V54.7794H300.424ZM300.923 54.2827H31.4387V248.417H300.923V54.2827Z" fill="black"/>
<path d="M14.9944 28.7037V14.5829C14.9997 10.7785 16.52 7.1318 19.2212 4.44401C21.9225 1.75622 25.5838 0.247216 29.4007 0.248536H286.82C290.633 0.253792 294.288 1.7657 296.984 4.45278C299.68 7.13985 301.197 10.7828 301.202 14.5829V22.8477L291.236 28.7037H14.9944Z" fill="#7CCC3D"/>
<path d="M286.82 0.496707C290.567 0.500651 294.16 1.98598 296.809 4.62676C299.458 7.26755 300.949 10.8481 300.953 14.5827V22.7035L291.181 28.4552H15.2434V14.5827C15.2474 10.8438 16.741 7.25949 19.3959 4.61799C22.0507 1.97649 25.6494 0.494071 29.4006 0.496707H286.82ZM286.82 2.11483e-05H29.4006C27.4772 -0.0032437 25.572 0.37154 23.7941 1.10293C22.0161 1.83431 20.4003 2.90795 19.0391 4.26241C17.6779 5.61686 16.598 7.22555 15.8612 8.99642C15.1244 10.7673 14.7451 12.6656 14.7451 14.5827V28.9518H291.31L301.446 22.9916V14.5827C301.446 10.716 299.905 7.0076 297.162 4.27295C294.42 1.53831 290.7 0.00133815 286.82 2.11483e-05Z" fill="black"/>
<path d="M0.249268 28.7034V15.7498C0.251906 13.2201 1.2613 10.7948 3.05594 9.00599C4.85059 7.21722 7.28389 6.21113 9.82191 6.2085H280.97C283.508 6.21113 285.942 7.21722 287.736 9.00599C289.531 10.7948 290.54 13.2201 290.543 15.7498V28.7034H0.249268Z" fill="#8E64E9"/>
<path d="M280.97 6.45714C283.442 6.45976 285.812 7.43969 287.56 9.18189C289.308 10.9241 290.291 13.2863 290.294 15.7501V28.4554H0.498315V15.7501C0.502269 13.2867 1.48583 10.9253 3.23347 9.18334C4.9811 7.44142 7.35027 6.46108 9.8218 6.45714H280.97ZM280.97 5.96045H9.8218C7.2173 5.96177 4.71985 6.9936 2.8782 8.82923C1.03654 10.6649 0.0013204 13.1541 0 15.7501L0 28.952H290.792V15.7501C290.792 13.1537 289.757 10.6637 287.915 8.82778C286.073 6.99186 283.575 5.96045 280.97 5.96045Z" fill="black"/>
<path d="M32.0217 54.0344L48.6256 36.6504H317.422L300.813 54.0344H32.0217Z" fill="#96F64A"/>
<path d="M316.839 36.899L300.708 53.7864H32.6147L48.7402 36.899H316.834M317.995 36.4023H48.521L31.4387 54.283H300.923L318 36.4023H317.995Z" fill="black"/>
<path d="M301.172 54.3821L317.751 37.0229V230.432L301.172 247.792V54.3821Z" fill="#7CCC3D"/>
<path d="M317.502 37.6441V230.358L301.421 247.196V54.4817L317.502 37.6441ZM318 36.4023L300.923 54.283V248.413L318 230.532V36.4023Z" fill="black"/>
<path d="M14.7452 22.2416C17.3982 22.2416 19.5489 20.0979 19.5489 17.4536C19.5489 14.8092 17.3982 12.6655 14.7452 12.6655C12.0921 12.6655 9.94141 14.8092 9.94141 17.4536C9.94141 20.0979 12.0921 22.2416 14.7452 22.2416Z" fill="white"/>
<path d="M29.271 22.2416C31.9241 22.2416 34.0748 20.0979 34.0748 17.4536C34.0748 14.8092 31.9241 12.6655 29.271 12.6655C26.618 12.6655 24.4673 14.8092 24.4673 17.4536C24.4673 20.0979 26.618 22.2416 29.271 22.2416Z" fill="white"/>
<path d="M43.7122 22.2416C46.3653 22.2416 48.516 20.0979 48.516 17.4536C48.516 14.8092 46.3653 12.6655 43.7122 12.6655C41.0592 12.6655 38.9084 14.8092 38.9084 17.4536C38.9084 20.0979 41.0592 22.2416 43.7122 22.2416Z" fill="white"/>
<path opacity="0.29" d="M290.792 47.5774L300.409 41.6172H44.7437L38.9084 47.5774H290.792Z" fill="#518528"/>
<path d="M67.2727 92.1006C61.0238 92.1006 55.9211 87.4467 55.9011 81.7248C55.9055 80.3355 56.2023 78.9625 56.7722 77.6946C57.3422 76.4267 58.1726 75.292 59.2099 74.3639C61.4097 72.3558 64.2897 71.2505 67.2727 71.2696L192.569 70.8077C195.346 70.7984 198.014 71.885 199.99 73.8301C201.965 75.7751 203.088 78.4206 203.113 81.1884C203.1 83.9507 201.994 86.5961 200.034 88.5494C198.074 90.5026 195.42 91.6058 192.649 91.6188L67.2727 92.1006Z" fill="#7CCC3D"/>
<path d="M192.584 71.0558C195.289 71.0531 197.886 72.117 199.807 74.0152C201.728 75.9134 202.818 78.492 202.839 81.1882C202.845 82.5248 202.583 83.8492 202.07 85.084C201.557 86.3188 200.802 87.4393 199.849 88.3803C198.903 89.3312 197.777 90.0866 196.538 90.6031C195.298 91.1196 193.968 91.3871 192.624 91.3902L67.3223 91.8471H67.2725C61.1581 91.8471 56.17 87.3025 56.1501 81.7147C56.1544 80.3598 56.444 79.0209 57.0003 77.7845C57.5565 76.5482 58.367 75.4421 59.3791 74.5376C61.5344 72.576 64.354 71.499 67.2725 71.5227L192.574 71.0608H192.609M192.609 70.5641H192.569L67.2725 71.026C64.237 71.0178 61.3093 72.1471 59.0702 74.1899C58.009 75.1426 57.1593 76.306 56.5758 77.6053C55.9922 78.9045 55.6877 80.3111 55.6816 81.7346C55.6816 87.5856 60.9289 92.3587 67.3024 92.3587H67.3472L192.624 91.8869C195.472 91.8754 198.199 90.7395 200.208 88.7279C201.204 87.7387 201.993 86.5626 202.53 85.2677C203.067 83.9727 203.342 82.5845 203.337 81.1833C203.313 78.3565 202.169 75.6539 200.155 73.6633C198.141 71.6728 195.42 70.5554 192.584 70.5542L192.609 70.5641Z" fill="black"/>
<path d="M62.9821 94.5692C56.7332 94.5692 51.6354 90.0991 51.6155 84.6355C51.6258 83.2931 51.9263 81.9687 52.4964 80.7525C53.0665 79.5362 53.8929 78.4568 54.9193 77.5875C57.1439 75.6497 60.0028 74.5898 62.9571 74.6074L188.254 74.1455C194.064 74.1455 198.778 78.6157 198.798 84.0792C198.799 85.4009 198.528 86.7087 198.001 87.9218C197.475 89.1349 196.705 90.2275 195.738 91.1322C193.747 93.0425 191.092 94.1105 188.328 94.1123L62.9821 94.5692Z" fill="white"/>
<path d="M188.298 74.4037C193.929 74.4037 198.529 78.7497 198.549 84.0941C198.548 85.3826 198.282 86.6573 197.768 87.8396C197.253 89.0218 196.502 90.0866 195.559 90.9682C193.614 92.8289 191.024 93.8697 188.328 93.8738L63.0319 94.3308H62.9821C56.8727 94.3308 51.8846 89.9848 51.8647 84.6404C51.8763 83.3334 52.1703 82.0442 52.7266 80.8605C53.283 79.6769 54.0886 78.6266 55.0888 77.7812C57.2687 75.8893 60.0668 74.8561 62.9572 74.8756L188.254 74.4137H188.298M188.298 73.917H188.259L62.9622 74.3789C59.9495 74.3615 57.0336 75.4386 54.7599 77.4087C53.7089 78.3034 52.8626 79.4123 52.278 80.6607C51.6935 81.909 51.3843 83.2678 51.3713 84.6454C51.3713 90.253 56.6136 94.8275 62.9871 94.8275H63.0369L188.328 94.3705C191.154 94.368 193.87 93.2813 195.913 91.3358C196.901 90.406 197.689 89.2852 198.227 88.0418C198.766 86.7984 199.045 85.4585 199.047 84.104C199.047 78.4915 194.194 73.917 188.293 73.917H188.298Z" fill="black"/>
<path d="M263.988 130.335C263.989 130.725 263.913 131.111 263.763 131.471C263.614 131.831 263.393 132.157 263.115 132.432C262.556 132.989 261.799 133.304 261.008 133.306L204.623 133.435C203.802 133.47 203 133.18 202.392 132.628C201.785 132.077 201.42 131.308 201.379 130.489C201.382 130.095 201.467 129.705 201.629 129.345C201.791 128.985 202.027 128.663 202.321 128.398C202.945 127.832 203.759 127.519 204.603 127.519L260.988 127.39C261.776 127.387 262.534 127.696 263.096 128.247C263.658 128.799 263.978 129.549 263.988 130.335Z" fill="#7CCC3D"/>
<path d="M263.987 140.646C263.987 141.437 263.672 142.195 263.112 142.754C262.551 143.313 261.791 143.627 260.998 143.627L204.613 143.761C203.792 143.794 202.991 143.504 202.384 142.953C201.776 142.401 201.412 141.633 201.369 140.815C201.371 140.42 201.456 140.029 201.618 139.668C201.78 139.307 202.016 138.984 202.311 138.719C202.933 138.154 203.746 137.842 204.588 137.845L260.973 137.716C261.761 137.709 262.521 138.014 263.085 138.562C263.65 139.111 263.974 139.86 263.987 140.646Z" fill="#7CCC3D"/>
<path d="M263.983 152.105C263.985 152.493 263.909 152.878 263.76 153.237C263.611 153.597 263.392 153.922 263.115 154.196C262.557 154.756 261.799 155.072 261.008 155.075L204.618 155.204C203.798 155.237 202.998 154.946 202.392 154.395C201.786 153.843 201.422 153.076 201.379 152.259C201.379 151.864 201.463 151.473 201.626 151.113C201.788 150.753 202.025 150.431 202.321 150.168C202.943 149.601 203.755 149.287 204.598 149.289L260.983 149.16C261.771 149.157 262.529 149.465 263.091 150.017C263.653 150.568 263.973 151.319 263.983 152.105Z" fill="#7CCC3D"/>
<path d="M278.763 223.102H227.356C226.62 223.102 225.891 222.958 225.211 222.678C224.531 222.398 223.913 221.987 223.393 221.468C222.872 220.95 222.459 220.334 222.177 219.656C221.895 218.979 221.75 218.252 221.75 217.519V181.906C221.75 181.173 221.894 180.446 222.176 179.768C222.457 179.09 222.87 178.474 223.391 177.956C223.912 177.437 224.53 177.026 225.211 176.746C225.891 176.466 226.62 176.322 227.356 176.324H278.763C279.497 176.324 280.225 176.468 280.904 176.748C281.583 177.029 282.2 177.439 282.72 177.957C283.239 178.475 283.651 179.09 283.933 179.767C284.214 180.444 284.359 181.169 284.359 181.902V217.514C284.359 218.247 284.215 218.973 283.934 219.65C283.653 220.327 283.241 220.943 282.721 221.461C282.202 221.98 281.584 222.391 280.905 222.672C280.226 222.952 279.498 223.097 278.763 223.097V223.102Z" stroke="#7CCC3D" stroke-width="2" stroke-miterlimit="10" stroke-dasharray="8.08 8.08"/>
<path d="M242.964 75.6603C242.526 75.6603 242.092 75.5744 241.688 75.4074C241.283 75.2404 240.916 74.9956 240.606 74.6871C240.297 74.3785 240.051 74.0122 239.884 73.6091C239.716 73.2059 239.63 72.7738 239.63 72.3375C239.63 71.9011 239.716 71.469 239.884 71.0659C240.051 70.6627 240.297 70.2964 240.606 69.9879C240.916 69.6793 241.283 69.4346 241.688 69.2676C242.092 69.1006 242.526 69.0146 242.964 69.0146H285.405C286.289 69.0146 287.137 69.3647 287.762 69.9879C288.388 70.611 288.739 71.4562 288.739 72.3375C288.739 73.2187 288.388 74.0639 287.762 74.6871C287.137 75.3102 286.289 75.6603 285.405 75.6603H242.964Z" fill="#7CCC3D"/>
<path d="M285.405 69.2628C286.223 69.2628 287.008 69.5867 287.586 70.1633C288.165 70.7399 288.49 71.5219 288.49 72.3373C288.49 73.1527 288.165 73.9347 287.586 74.5113C287.008 75.0879 286.223 75.4118 285.405 75.4118H242.959C242.141 75.4118 241.356 75.0879 240.778 74.5113C240.199 73.9347 239.874 73.1527 239.874 72.3373C239.874 71.5219 240.199 70.7399 240.778 70.1633C241.356 69.5867 242.141 69.2628 242.959 69.2628H285.405ZM285.405 68.7661H242.959C242.488 68.7661 242.023 68.8585 241.588 69.038C241.154 69.2176 240.759 69.4807 240.427 69.8124C240.095 70.1441 239.831 70.5378 239.652 70.971C239.472 71.4043 239.38 71.8685 239.381 72.3373C239.38 72.806 239.472 73.2703 239.652 73.7035C239.831 74.1368 240.095 74.5305 240.427 74.8622C240.759 75.1939 241.154 75.457 241.588 75.6365C242.023 75.8161 242.488 75.9085 242.959 75.9085H285.405C286.356 75.9085 287.267 75.5322 287.939 74.8625C288.611 74.1928 288.988 73.2844 288.988 72.3373C288.988 71.3902 288.611 70.4818 287.939 69.8121C287.267 69.1424 286.356 68.7661 285.405 68.7661Z" fill="black"/>
<path d="M257.848 87.2477C256.964 87.2477 256.116 86.8976 255.491 86.2745C254.866 85.6513 254.515 84.8062 254.515 83.9249C254.515 83.0436 254.866 82.1984 255.491 81.5753C256.116 80.9521 256.964 80.6021 257.848 80.6021H285.405C286.289 80.6021 287.137 80.9521 287.763 81.5753C288.388 82.1984 288.739 83.0436 288.739 83.9249C288.739 84.8062 288.388 85.6513 287.763 86.2745C287.137 86.8976 286.289 87.2477 285.405 87.2477H257.848Z" fill="#7CCC3D"/>
<path d="M285.405 80.8507C286.223 80.8507 287.008 81.1746 287.586 81.7512C288.165 82.3278 288.49 83.1098 288.49 83.9252C288.49 84.7406 288.165 85.5226 287.586 86.0992C287.008 86.6757 286.223 86.9997 285.405 86.9997H257.848C257.03 86.9997 256.246 86.6757 255.667 86.0992C255.089 85.5226 254.764 84.7406 254.764 83.9252C254.764 83.1098 255.089 82.3278 255.667 81.7512C256.246 81.1746 257.03 80.8507 257.848 80.8507H285.405ZM285.405 80.354H257.848C256.898 80.354 255.987 80.7302 255.315 81.4C254.643 82.0697 254.265 82.978 254.265 83.9252C254.265 84.8723 254.643 85.7806 255.315 86.4504C255.987 87.1201 256.898 87.4964 257.848 87.4964H285.405C286.355 87.4964 287.267 87.1201 287.939 86.4504C288.611 85.7806 288.988 84.8723 288.988 83.9252C288.988 82.978 288.611 82.0697 287.939 81.4C287.267 80.7302 286.355 80.354 285.405 80.354Z" fill="black"/>
<path d="M269.394 99.3024C268.946 99.3196 268.499 99.2466 268.079 99.0875C267.66 98.9284 267.277 98.6866 266.954 98.3766C266.631 98.0666 266.374 97.6947 266.198 97.2832C266.022 96.8718 265.932 96.4292 265.932 95.982C265.932 95.5348 266.022 95.0923 266.198 94.6808C266.374 94.2693 266.631 93.8975 266.954 93.5874C267.277 93.2774 267.66 93.0356 268.079 92.8765C268.499 92.7175 268.946 92.6444 269.394 92.6617H285.405C285.853 92.6444 286.301 92.7175 286.72 92.8765C287.139 93.0356 287.522 93.2774 287.845 93.5874C288.169 93.8975 288.426 94.2693 288.601 94.6808C288.777 95.0923 288.868 95.5348 288.868 95.982C288.868 96.4292 288.777 96.8718 288.601 97.2832C288.426 97.6947 288.169 98.0666 287.845 98.3766C287.522 98.6866 287.139 98.9284 286.72 99.0875C286.301 99.2466 285.853 99.3196 285.405 99.3024H269.394Z" fill="#7CCC3D"/>
<path d="M285.405 92.9103C286.223 92.9103 287.008 93.2342 287.586 93.8108C288.165 94.3873 288.49 95.1693 288.49 95.9847C288.49 96.8002 288.165 97.5822 287.586 98.1587C287.008 98.7353 286.223 99.0592 285.405 99.0592H269.394C268.576 99.0592 267.792 98.7353 267.213 98.1587C266.635 97.5822 266.31 96.8002 266.31 95.9847C266.31 95.1693 266.635 94.3873 267.213 93.8108C267.792 93.2342 268.576 92.9103 269.394 92.9103H285.405ZM285.405 92.4136H269.394C268.444 92.4136 267.533 92.7898 266.861 93.4596C266.189 94.1293 265.812 95.0376 265.812 95.9847C265.812 96.9319 266.189 97.8402 266.861 98.5099C267.533 99.1797 268.444 99.5559 269.394 99.5559H285.405C286.356 99.5559 287.267 99.1797 287.939 98.5099C288.611 97.8402 288.988 96.9319 288.988 95.9847C288.988 95.0376 288.611 94.1293 287.939 93.4596C287.267 92.7898 286.356 92.4136 285.405 92.4136Z" fill="black"/>
<path d="M283.322 71.1006H240.881C238.902 71.1006 237.298 72.6995 237.298 74.6718C237.298 76.6441 238.902 78.2429 240.881 78.2429H283.322C285.301 78.2429 286.905 76.6441 286.905 74.6718C286.905 72.6995 285.301 71.1006 283.322 71.1006Z" fill="#1FE38E" stroke="black" stroke-miterlimit="10"/>
<path d="M283.322 82.6885H255.77C253.792 82.6885 252.188 84.2873 252.188 86.2597C252.188 88.232 253.792 89.8308 255.77 89.8308H283.322C285.301 89.8308 286.905 88.232 286.905 86.2597C286.905 84.2873 285.301 82.6885 283.322 82.6885Z" fill="#1FE38E" stroke="black" stroke-miterlimit="10"/>
<path d="M283.322 94.748H267.311C265.333 94.748 263.729 96.3469 263.729 98.3192C263.729 100.292 265.333 101.89 267.311 101.89H283.322C285.301 101.89 286.905 100.292 286.905 98.3192C286.905 96.3469 285.301 94.748 283.322 94.748Z" fill="#1FE38E" stroke="black" stroke-miterlimit="10"/>
<g opacity="0.41">
<path d="M89.5772 205.002V248.418H31.4387V193.926H34.6529C35.9813 193.926 37.2793 194.322 38.3804 195.063C39.4814 195.804 40.3352 196.856 40.832 198.084L41.7837 200.428C42.3316 201.779 43.2717 202.936 44.4836 203.751C45.6954 204.566 47.1238 205.002 48.5858 205.002H89.5772Z" fill="#518528"/>
</g>
<path d="M11.0327 256.787V198.933H28.2944C29.5739 198.928 30.8254 199.307 31.8863 200.02C32.9473 200.733 33.7688 201.747 34.2442 202.931L35.196 205.275C35.758 206.675 36.7288 207.874 37.9824 208.717C39.2361 209.56 40.7149 210.008 42.2273 210.004H82.9695V256.787H11.0327Z" fill="#8E64E9"/>
<path d="M28.2943 199.171C29.5249 199.168 30.7281 199.533 31.7481 200.219C32.7681 200.906 33.5578 201.881 34.0149 203.02L34.9617 205.365C35.5439 206.809 36.5474 208.047 37.8426 208.917C39.1378 209.788 40.6651 210.251 42.2271 210.247H82.7203V256.538H11.2818V199.171H28.2943ZM28.2943 198.674H10.7834V257.035H83.2186V209.75H42.2271C40.7651 209.75 39.3364 209.315 38.1244 208.5C36.9124 207.685 35.9724 206.527 35.4251 205.176L34.4783 202.832C33.979 201.604 33.1239 200.553 32.0224 199.813C30.9209 199.072 29.6229 198.676 28.2943 198.674Z" fill="black"/>
<path d="M5.646 260.497V202.648H22.9226C24.1993 202.641 25.4487 203.016 26.5093 203.725C27.5699 204.433 28.3931 205.442 28.8725 206.622L29.8243 208.966C30.3871 210.366 31.3588 211.565 32.6133 212.408C33.8678 213.251 35.3475 213.699 36.8605 213.694H77.5978V260.482L5.646 260.497Z" fill="#8E64E9"/>
<path d="M22.9225 202.886C24.1525 202.883 25.3554 203.247 26.3753 203.933C27.3952 204.618 28.1852 205.593 28.6431 206.731L29.5949 209.075C30.1759 210.521 31.1792 211.759 32.4746 212.629C33.7701 213.5 35.298 213.963 36.8604 213.957H77.3485V260.263H5.89504V202.886H22.9225ZM22.9225 202.39H5.39673V260.76H77.8319V213.476H36.8454C35.3825 213.477 33.9527 213.042 32.7397 212.227C31.5267 211.411 30.586 210.253 30.0384 208.901L29.0916 206.562C28.5972 205.333 27.7459 204.279 26.6468 203.536C25.5476 202.793 24.2508 202.393 22.9225 202.39Z" fill="black"/>
<path d="M6.19897 202.141L10.8632 198.928H27.492L22.8278 202.141H6.19897Z" fill="#8E64E9"/>
<path d="M26.6947 199.171L22.7531 201.888H6.97639L10.9629 199.171H26.6947ZM28.2943 198.674H10.7835L5.39673 202.385H22.9225L28.2943 198.674Z" fill="black"/>
<path d="M78.0811 213.595L82.9695 210.228V256.906L78.0811 260.269V213.595Z" fill="#8E64E9"/>
<path d="M82.7203 210.704V256.787L78.3301 259.806V213.724L82.7203 210.704ZM83.2186 209.755L77.8318 213.461V260.76L83.2186 257.04V209.755Z" fill="black"/>
<path d="M16.8481 237.222V233.016L31.6481 226.559V230.855L21.3131 235.092L31.6481 239.328V243.689L16.8481 237.222Z" fill="black"/>
<path d="M47.0311 221.522H50.9778L37.4286 249.749H33.4819L47.0311 221.522Z" fill="black"/>
<path d="M67.4272 233.015V237.222L52.6272 243.679V239.403L62.9623 235.166L52.6272 230.929V226.573L67.4272 233.015Z" fill="black"/>
<path d="M15.5376 237.575V233.696L29.8393 227.447V231.202L19.0956 235.603L29.8393 240.008V243.823L15.5376 237.575Z" fill="white"/>
<path d="M29.59 227.83V231.034L19.5639 235.146L18.4427 235.603L19.5639 236.065L29.59 240.173V243.441L15.7866 237.416V233.855L29.59 227.83ZM30.0883 227.07L15.2883 233.527V237.734L30.0883 244.191V239.83L19.7532 235.593L30.0883 231.356V227.06V227.07Z" fill="black"/>
<path d="M32.3208 250.017L45.6308 222.287H49.0243L35.7143 250.017H32.3208Z" fill="white"/>
<path d="M48.6257 222.515L35.5548 249.768H32.7144L45.7853 222.515H48.6257ZM49.418 222.019H45.4713L31.9221 250.265H35.8787L49.418 222.019Z" fill="black"/>
<path d="M51.3164 240.068L62.0601 235.667L51.3164 231.262V227.447L65.623 233.696V237.575L51.3164 243.823V240.068Z" fill="white"/>
<path d="M51.5657 227.83L65.374 233.855V237.416L51.5657 243.441V240.237L61.5968 236.124L62.718 235.667L61.5968 235.206L51.5657 231.098V227.83ZM51.0674 227.07V231.456L61.4074 235.692L51.0674 239.899V244.196L65.8723 237.739V233.532L51.0674 227.075V227.07Z" fill="black"/>
<path d="M233.102 212.512L243.178 194.418C243.447 193.933 243.834 193.524 244.304 193.228C244.774 192.932 245.311 192.759 245.865 192.724C246.42 192.69 246.974 192.795 247.478 193.03C247.981 193.265 248.416 193.623 248.744 194.07L254.549 201.962C254.84 202.356 255.214 202.68 255.645 202.913C256.076 203.145 256.553 203.279 257.042 203.306C257.532 203.332 258.021 203.251 258.475 203.066C258.928 202.882 259.336 202.6 259.667 202.241C260.009 201.869 260.431 201.58 260.902 201.396C261.373 201.212 261.88 201.139 262.385 201.18C262.889 201.222 263.377 201.378 263.811 201.637C264.245 201.896 264.614 202.25 264.889 202.673L271.153 212.318C271.478 212.816 271.662 213.392 271.686 213.986C271.709 214.579 271.572 215.168 271.287 215.69C271.003 216.212 270.583 216.648 270.071 216.951C269.558 217.255 268.973 217.415 268.378 217.414H235.987C235.412 217.412 234.847 217.26 234.348 216.974C233.85 216.688 233.434 216.277 233.143 215.783C232.852 215.288 232.695 214.726 232.688 214.153C232.681 213.579 232.823 213.014 233.102 212.512Z" fill="#7CCC3D"/>
<path d="M252.975 185.964C252.975 185.183 253.207 184.419 253.643 183.77C254.078 183.121 254.697 182.614 255.422 182.316C256.146 182.017 256.943 181.939 257.711 182.092C258.48 182.245 259.186 182.621 259.74 183.174C260.293 183.727 260.67 184.431 260.823 185.197C260.975 185.963 260.896 186.757 260.595 187.479C260.294 188.2 259.786 188.817 259.134 189.25C258.482 189.683 257.715 189.914 256.931 189.913C256.411 189.913 255.897 189.811 255.416 189.612C254.936 189.414 254.499 189.123 254.132 188.756C253.764 188.389 253.473 187.954 253.275 187.475C253.076 186.996 252.974 186.483 252.975 185.964Z" fill="#7CCC3D"/>
<path d="M164.444 203.462L164.275 203.587C159.168 207.209 152.883 208.786 146.664 208.007C140.445 207.228 134.747 204.148 130.699 199.379C126.651 194.609 124.549 188.498 124.808 182.256C125.068 176.015 127.67 170.098 132.1 165.679C136.53 161.259 142.464 158.66 148.726 158.396C154.988 158.132 161.121 160.223 165.91 164.254C170.698 168.284 173.793 173.961 174.58 180.159C175.367 186.356 173.789 192.623 170.16 197.716L170.04 197.89L195.34 223.091L189.748 228.669L164.444 203.462Z" fill="#7CCC3D"/>
<path d="M149.798 158.642C154.337 158.642 158.789 159.887 162.665 162.241C166.541 164.595 169.692 167.967 171.774 171.987C173.855 176.007 174.786 180.521 174.466 185.034C174.145 189.546 172.585 193.884 169.955 197.572L169.711 197.915L170.01 198.213L194.971 223.092L189.729 228.317L164.768 203.438L164.469 203.14L164.125 203.383C160.953 205.631 157.293 207.101 153.443 207.673C149.594 208.245 145.663 207.904 141.971 206.676C138.278 205.449 134.929 203.37 132.194 200.609C129.46 197.848 127.418 194.483 126.235 190.787C125.051 187.091 124.76 183.169 125.384 179.34C126.008 175.511 127.53 171.882 129.826 168.75C132.122 165.617 135.128 163.069 138.598 161.313C142.069 159.556 145.906 158.641 149.798 158.642ZM149.798 158.145C145.828 158.145 141.914 159.079 138.374 160.871C134.834 162.663 131.768 165.263 129.426 168.458C127.084 171.654 125.532 175.355 124.896 179.261C124.259 183.167 124.557 187.168 125.764 190.938C126.971 194.708 129.054 198.141 131.843 200.957C134.632 203.774 138.048 205.894 141.815 207.147C145.581 208.399 149.59 208.748 153.517 208.165C157.444 207.581 161.178 206.083 164.414 203.79L189.729 229.017L195.673 223.092L170.359 197.86C173.047 194.098 174.643 189.671 174.974 185.065C175.304 180.458 174.355 175.85 172.231 171.745C170.107 167.641 166.89 164.198 162.933 161.796C158.976 159.393 154.432 158.123 149.798 158.125V158.145Z" fill="black"/>
<path d="M160.104 206.06L159.929 206.179C154.825 209.792 148.544 211.362 142.333 210.577C136.121 209.793 130.432 206.711 126.393 201.943C122.354 197.175 120.259 191.069 120.524 184.834C120.789 178.599 123.394 172.69 127.823 168.279C132.252 163.869 138.182 161.277 144.437 161.018C150.693 160.76 156.818 162.853 161.598 166.883C166.378 170.913 169.465 176.586 170.247 182.778C171.029 188.97 169.449 195.228 165.819 200.313L165.695 200.482L190.984 225.684L185.373 231.262L160.104 206.06Z" fill="#BCFF87"/>
<path d="M145.458 161.234C149.996 161.236 154.446 162.483 158.321 164.837C162.196 167.192 165.347 170.563 167.428 174.583C169.509 178.602 170.441 183.115 170.121 187.627C169.801 192.139 168.243 196.476 165.615 200.164L165.371 200.507L165.67 200.8L190.631 225.679L185.373 230.909L160.413 206.03L160.114 205.732L159.77 205.981C156.597 208.227 152.938 209.696 149.089 210.267C145.239 210.838 141.309 210.495 137.618 209.267C133.926 208.04 130.578 205.961 127.844 203.2C125.111 200.439 123.069 197.074 121.886 193.379C120.703 189.684 120.412 185.762 121.035 181.934C121.659 178.105 123.181 174.477 125.476 171.345C127.771 168.213 130.776 165.664 134.246 163.908C137.715 162.151 141.552 161.235 145.443 161.234M145.443 160.738C141.473 160.738 137.559 161.672 134.019 163.464C130.479 165.256 127.413 167.855 125.071 171.051C122.729 174.246 121.177 177.948 120.54 181.854C119.904 185.76 120.201 189.761 121.409 193.531C122.616 197.301 124.698 200.733 127.487 203.55C130.276 206.366 133.693 208.487 137.459 209.739C141.226 210.992 145.235 211.341 149.162 210.757C153.089 210.174 156.823 208.675 160.059 206.383L185.373 231.615L191.353 225.684L166.044 200.458C168.73 196.695 170.325 192.268 170.654 187.662C170.983 183.055 170.034 178.448 167.909 174.343C165.785 170.239 162.569 166.797 158.612 164.395C154.655 161.992 150.111 160.722 145.478 160.723L145.443 160.738Z" fill="black"/>
<path d="M145.458 203.601C141.347 203.6 137.364 202.179 134.186 199.578C131.009 196.978 128.835 193.36 128.034 189.341C127.232 185.322 127.854 181.15 129.793 177.537C131.732 173.923 134.868 171.092 138.666 169.524C142.465 167.957 146.691 167.751 150.625 168.941C154.559 170.132 157.957 172.645 160.24 176.052C162.523 179.46 163.551 183.551 163.147 187.629C162.743 191.707 160.933 195.519 158.026 198.416C156.379 200.065 154.42 201.373 152.263 202.263C150.106 203.153 147.793 203.608 145.458 203.601Z" fill="white"/>
<path d="M145.458 168.422C149.512 168.425 153.44 169.83 156.571 172.396C159.703 174.962 161.846 178.53 162.634 182.494C163.422 186.458 162.807 190.571 160.894 194.134C158.981 197.696 155.888 200.487 152.141 202.032C148.395 203.576 144.228 203.779 140.349 202.604C136.47 201.43 133.119 198.951 130.868 195.591C128.616 192.231 127.603 188.196 128.001 184.175C128.399 180.154 130.184 176.395 133.05 173.537C134.675 171.912 136.607 170.622 138.734 169.744C140.861 168.866 143.141 168.417 145.443 168.422M145.443 167.925C141.273 167.925 137.232 169.366 134.008 172.002C130.785 174.639 128.578 178.308 127.765 182.385C126.951 186.462 127.581 190.693 129.547 194.359C131.513 198.025 134.693 200.897 138.546 202.488C142.398 204.078 146.685 204.288 150.676 203.081C154.666 201.874 158.113 199.326 160.43 195.869C162.746 192.413 163.789 188.263 163.379 184.127C162.97 179.99 161.134 176.123 158.185 173.185C156.514 171.515 154.527 170.19 152.341 169.288C150.154 168.385 147.81 167.922 145.443 167.925Z" fill="black"/>
<path d="M191.488 225.883L194.064 224.343L189.574 228.823L186.993 230.363L191.488 225.883Z" fill="#7CCC3D"/>
<path d="M192.459 225.595L189.42 228.624L188.602 229.121L191.642 226.091L192.459 225.595ZM195.673 223.111L191.353 225.684L185.373 231.614L189.714 229.017L195.659 223.091L195.673 223.111Z" fill="black"/>
<path d="M87.559 114.312L82.6107 135.859H74.1842L71.6926 123.625L69.201 135.859H60.7546L55.8113 114.312H63.1116L65.065 127.882L67.9951 114.312H75.3801L78.3102 127.882L80.2686 114.312H87.559Z" fill="#7CCC3D" stroke="black" stroke-linecap="round" stroke-linejoin="round"/>
<path d="M121.14 114.312L116.192 135.859H107.766L105.274 123.625L102.782 135.859H94.336L89.3877 114.312H96.6731L98.6663 127.882L101.596 114.312H108.981L111.912 127.882L113.865 114.312H121.14Z" fill="#7CCC3D" stroke="black" stroke-linecap="round" stroke-linejoin="round"/>
<path d="M154.717 114.312L149.774 135.859H141.347L138.856 123.625L136.364 135.859H127.918L122.969 114.312H130.265L132.218 127.882L135.148 114.312H142.518L145.448 127.882L147.402 114.312H154.717Z" fill="#7CCC3D" stroke="black" stroke-linecap="round" stroke-linejoin="round"/>
<path d="M83.2187 117.292L78.2754 138.839H69.8339L67.3423 126.605L64.8508 138.839H56.3993L51.4561 117.292H58.7514L60.7048 130.862L63.6349 117.292H71.0249L73.955 130.862L75.9084 117.292H83.2187Z" fill="#FEFFFF" stroke="black" stroke-linecap="round" stroke-linejoin="round"/>
<path d="M116.785 117.292L111.837 138.839H103.41L100.919 126.605L98.4272 138.839H89.9807L85.0325 117.292H92.3328L94.2862 130.862L97.2163 117.292H104.601L107.536 130.862L109.49 117.292H116.785Z" fill="#FEFFFF" stroke="black" stroke-linecap="round" stroke-linejoin="round"/>
<path d="M150.367 117.292L145.418 138.839H136.992L134.5 126.605L132.009 138.839H123.582L118.599 117.292H125.894L127.853 130.862L130.783 117.292H138.183L141.113 130.862L143.066 117.292H150.367Z" fill="#FEFFFF" stroke="black" stroke-linecap="round" stroke-linejoin="round"/>
<path d="M51.4561 117.293L55.8063 114.312H63.1067L58.7514 117.293H51.4561Z" fill="#FEFFFF" stroke="black" stroke-linecap="round" stroke-linejoin="round"/>
<path d="M63.6348 117.293L67.99 114.312H75.3751L71.0248 117.293H63.6348Z" fill="#FEFFFF" stroke="black" stroke-linecap="round" stroke-linejoin="round"/>
<path d="M75.9084 117.293L80.7471 114.312H87.5591L83.2038 117.293H75.9084Z" fill="#FEFFFF" stroke="black" stroke-linecap="round" stroke-linejoin="round"/>
<path d="M85.0376 117.293L89.3879 114.312H96.6882L92.3329 117.293H85.0376Z" fill="#FEFFFF" stroke="black" stroke-linecap="round" stroke-linejoin="round"/>
<path d="M97.2163 117.293L101.572 114.312H108.957L104.601 117.293H97.2163Z" fill="#FEFFFF" stroke="black" stroke-linecap="round" stroke-linejoin="round"/>
<path d="M109.49 117.293L113.84 114.312H121.14L116.785 117.293H109.49Z" fill="#FEFFFF" stroke="black" stroke-linecap="round" stroke-linejoin="round"/>
<path d="M118.614 117.293L122.969 114.312H130.265L125.914 117.293H118.614Z" fill="#FEFFFF" stroke="black" stroke-linecap="round" stroke-linejoin="round"/>
<path d="M130.798 117.293L135.148 114.312H142.538L138.183 117.293H130.798Z" fill="#FEFFFF" stroke="black" stroke-linecap="round" stroke-linejoin="round"/>
<path d="M143.071 117.293L147.422 114.312H154.722L150.367 117.293H143.071Z" fill="#FEFFFF" stroke="black" stroke-linecap="round" stroke-linejoin="round"/>
</svg>
