<svg width="411" height="246" viewBox="0 0 411 246" fill="none" xmlns="http://www.w3.org/2000/svg">
<g clip-path="url(#clip0_231_124)">
<path d="M344.873 17.8242H49.5786V238.897H344.873V17.8242Z" fill="#8E64E9" stroke="black" stroke-linecap="round" stroke-linejoin="round"/>
<path d="M357.132 0.826172H61.8372V221.899H357.132V0.826172Z" fill="#8E64E9" stroke="black" stroke-linecap="round" stroke-linejoin="round"/>
<path d="M284.191 128.583C280.826 140.524 274.279 151.323 265.25 159.821C264.508 160.498 263.749 161.159 262.973 161.787C260.842 164.584 258.468 167.188 255.879 169.567C253.218 171.982 250.378 174.191 247.382 176.175L245.584 176.604C235.816 178.865 225.716 179.313 215.787 177.926C212.924 177.546 210.087 176.995 207.29 176.274C188.886 171.332 173.056 159.55 163.025 143.329C152.995 127.108 149.519 107.669 153.306 88.9711C154.639 82.417 156.86 76.0757 159.906 70.123C168.421 53.2805 182.941 40.2521 200.592 33.6161L202.242 33.0049C210.148 30.288 218.449 28.9036 226.808 28.9082C231.871 29.6462 236.846 30.8971 241.657 32.6415C250.589 35.9653 258.779 41.017 265.762 47.5085C263.419 50.0359 260.911 52.4642 258.469 54.876L256.225 57.1226L256.374 57.2547C254.097 59.716 251.655 62.0452 249.279 64.4404C249.225 64.3698 249.15 64.3178 249.065 64.2918C246.107 62.4282 242.918 60.962 239.578 59.9308C232.785 57.916 225.606 57.5728 218.652 58.9302C211.698 60.2876 205.174 63.3056 199.635 67.7277C198.099 68.9304 196.649 70.2385 195.296 71.6427C190.393 76.6079 186.662 82.6074 184.373 89.2023C181.173 98.6342 181.173 108.86 184.373 118.292C184.604 118.969 184.835 119.63 185.099 120.291C188.402 128.719 194.09 135.999 201.466 141.237C206.442 144.831 212.103 147.361 218.097 148.671H218.229C223.915 149.752 229.749 149.802 235.453 148.819H235.948C241.835 147.84 247.453 145.646 252.447 142.377V142.542C256.313 139.914 259.622 136.547 262.184 132.635C264.747 128.723 266.512 124.343 267.379 119.746H226.627V118.953C226.627 112.246 226.627 105.143 226.627 98.2217V89.2023H286.154C286.616 92.407 286.962 95.017 287.177 97.8748C288.013 108.207 287.002 118.606 284.191 128.583Z" fill="#7854C4"/>
<path d="M274.803 138.33C272.381 146.829 268.366 154.789 262.973 161.787C260.842 164.584 258.468 167.188 255.879 169.567C253.218 171.982 250.378 174.191 247.382 176.175C240.61 180.592 233.107 183.769 225.224 185.557C212.615 188.528 199.473 188.386 186.931 185.144C168.544 180.203 152.727 168.434 142.699 152.231C132.67 136.029 129.183 116.61 132.947 97.9244C134.253 91.3765 136.44 85.036 139.447 79.0763C147.989 62.2445 162.507 49.2175 180.15 42.553C180.711 42.3547 181.272 42.14 181.8 41.9583C183.45 41.4132 185.099 40.9011 186.749 40.4881C201.762 36.4171 217.663 37.0805 232.286 42.3878C241.158 45.7327 249.29 50.7833 256.225 57.2548L256.374 57.387C254.097 59.8483 251.655 62.1775 249.28 64.5727L249.098 64.7544L235.338 78.5312C230.779 74.1367 225.252 70.8773 219.202 69.0163C212.522 67.0137 205.463 66.6238 198.604 67.8785C191.744 69.1333 185.279 71.997 179.737 76.2351C177.979 77.5545 176.324 79.0069 174.788 80.5796C169.909 85.5768 166.21 91.6053 163.965 98.2218C160.772 107.655 160.772 117.878 163.965 127.312C164.196 127.989 164.427 128.65 164.69 129.294C167.986 137.753 173.681 145.063 181.074 150.323C186.073 153.841 191.738 156.298 197.721 157.541C203.626 158.648 209.684 158.648 215.589 157.541C221.48 156.569 227.101 154.369 232.088 151.082V151.264C233.244 150.474 234.346 149.607 235.388 148.671C237.9 146.506 240.089 143.991 241.888 141.204L242.086 140.89C242.301 140.56 242.515 140.229 242.713 139.899C244.765 136.382 246.2 132.537 246.953 128.534H206.234C206.234 118.623 206.234 107.918 206.234 98.0566H276.618C277.162 101.658 277.542 104.466 277.756 107.538C278.621 117.896 277.621 128.326 274.803 138.33Z" fill="white" stroke="black" stroke-linecap="round" stroke-linejoin="round"/>
<path d="M215.787 177.067C209.283 177.068 202.806 176.229 196.516 174.572C181.377 170.49 167.923 161.701 158.093 149.472C148.263 137.242 142.565 122.204 141.82 106.523C141.075 90.843 145.321 75.3307 153.947 62.2221C162.574 49.1135 175.134 39.0855 189.818 33.5832L191.121 33.1041L191.501 32.972C199.307 30.294 207.502 28.9265 215.754 28.9248C219.404 28.922 223.05 29.1925 226.66 29.7343C231.666 30.4635 236.585 31.6977 241.343 33.418C249.922 36.6213 257.804 41.4503 264.557 47.6408C263.155 49.111 261.686 50.5812 260.251 52.0018C259.443 52.7782 258.601 53.5711 257.859 54.3805L244.66 67.5957C240.107 63.4158 234.687 60.2963 228.788 58.4607C227.42 58.0495 226.032 57.7077 224.63 57.4365C217.275 55.9571 209.666 56.3511 202.503 58.5821C195.339 60.8132 188.85 64.81 183.631 70.2056C178.675 75.3007 174.911 81.4336 172.61 88.1617C169.437 97.6717 169.437 107.956 172.61 117.466V117.698V117.929L173.336 119.911C176.699 128.492 182.49 135.904 189.999 141.237C195.072 144.863 200.842 147.394 206.944 148.671C209.979 149.248 213.061 149.541 216.15 149.546C216.859 149.546 217.569 149.546 218.262 149.546C220.559 149.459 222.848 149.205 225.109 148.786C230.665 147.891 235.991 145.909 240.783 142.955V143.087L241.954 142.41L242.399 142.08C243.558 141.28 244.66 140.403 245.699 139.453L245.815 139.337C245.943 139.236 246.065 139.126 246.178 139.007C251.705 133.924 255.502 127.234 257.034 119.878C257.034 119.63 257.149 119.349 257.199 119.069L257.38 118.094H216.48V108.546C216.48 105.061 216.48 101.542 216.48 98.0731V89.2024H285.428C285.923 92.6218 286.253 95.1162 286.451 97.8418C287.282 108.099 286.264 118.422 283.448 128.319C280.106 140.107 273.641 150.769 264.739 159.177C264.013 159.837 263.27 160.498 262.511 161.109C254.372 167.85 244.765 172.581 234.463 174.919C228.353 176.32 222.105 177.029 215.836 177.034L215.787 177.067Z" fill="#BCFF87"/>
<path d="M215.754 29.7344C224.379 29.7452 232.937 31.2543 241.047 34.1945C249.261 37.2571 256.831 41.8286 263.369 47.674C262.148 48.9459 260.878 50.2014 259.641 51.4238L257.265 53.786L255.021 56.0326L247.861 63.2018L244.643 66.5056C240.124 62.4984 234.803 59.5024 229.035 57.7175C227.65 57.3045 226.264 56.9576 224.812 56.6768C216.103 55.0082 207.098 55.8751 198.867 59.1748C190.635 62.4745 183.521 68.0686 178.368 75.2936C175.556 79.1741 173.332 83.4491 171.768 87.9802C168.532 97.6204 168.492 108.049 171.653 117.714V118.078L171.752 118.359C171.884 118.689 171.999 119.003 172.115 119.333C172.23 119.664 172.362 120.01 172.494 120.357C175.911 129.09 181.8 136.634 189.438 142.063C194.626 145.737 200.52 148.291 206.746 149.563C209.844 150.112 212.987 150.366 216.133 150.323C216.843 150.323 217.569 150.323 218.278 150.323C220.603 150.236 222.919 149.983 225.208 149.563C230.353 148.729 235.308 146.983 239.842 144.409V144.756L242.399 143.104L242.68 142.922L242.878 142.773C244.038 141.959 245.141 141.065 246.178 140.097L246.31 139.982C246.438 139.88 246.559 139.769 246.673 139.651C252.322 134.466 256.206 127.637 257.776 120.126C257.853 119.832 257.913 119.534 257.958 119.234L258.337 117.285H217.305V108.546C217.305 105.061 217.305 101.542 217.305 98.0733V89.979H284.62C285.065 93.0515 285.362 95.3972 285.544 97.9411C286.37 108.098 285.364 118.321 282.574 128.121C279.283 139.751 272.915 150.275 264.145 158.582C263.353 159.292 262.643 159.92 261.917 160.498C253.905 167.158 244.437 171.832 234.282 174.143C228.231 175.529 222.044 176.232 215.836 176.241C209.404 176.246 202.998 175.413 196.78 173.763C181.81 169.724 168.507 161.031 158.789 148.936C149.07 136.841 143.438 121.968 142.704 106.463C141.97 90.9567 146.172 75.6179 154.705 62.6567C163.237 49.6956 175.659 39.7815 190.181 34.3432L191.484 33.8807L191.814 33.765C199.518 31.1091 207.607 29.7472 215.754 29.7344ZM215.754 28.0825C207.407 28.0862 199.117 29.4704 191.22 32.1792L189.57 32.7904C176.916 37.538 165.774 45.6126 157.315 56.1647C149.513 65.8737 144.257 77.3801 142.024 89.6392C139.791 101.898 140.652 114.522 144.528 126.363C148.404 138.205 155.173 148.889 164.221 157.447C173.268 166.004 184.307 172.164 196.335 175.365C202.694 177.046 209.243 177.895 215.82 177.893C222.149 177.887 228.458 177.172 234.629 175.762C245.058 173.414 254.783 168.625 263.006 161.787C263.782 161.159 264.541 160.498 265.283 159.821C274.312 151.323 280.859 140.525 284.224 128.584C287.059 118.589 288.087 108.166 287.259 97.809C287.045 94.9512 286.699 92.3412 286.237 89.1365C286.237 88.8722 286.154 88.6079 286.121 88.3271H215.688V98.0733C215.688 101.542 215.688 105.061 215.688 108.546V118.805H256.456C256.456 119.069 256.357 119.333 256.291 119.597C254.777 126.79 251.063 133.331 245.666 138.313L245.204 138.726C244.191 139.652 243.116 140.507 241.987 141.287L241.541 141.601V141.419C236.556 144.705 230.934 146.9 225.043 147.861C222.82 148.273 220.57 148.521 218.311 148.605C217.618 148.605 216.925 148.605 216.232 148.605C213.199 148.6 210.172 148.312 207.191 147.746C201.199 146.505 195.527 144.042 190.527 140.51C183.152 135.273 177.463 127.993 174.161 119.564L173.435 117.582C170.243 108.155 170.243 97.9364 173.435 88.5088C174.926 84.1387 177.056 80.0138 179.754 76.2683C184.666 69.2401 191.517 63.7973 199.469 60.6054C207.422 57.4136 216.131 56.6109 224.531 58.2957C225.906 58.5593 227.267 58.8957 228.606 59.3033C234.651 61.1658 240.177 64.4186 244.742 68.8017L249.032 64.4242L256.192 57.255L258.436 55.0084C260.878 52.5471 263.386 50.1683 265.729 47.6409C258.746 41.1494 250.556 36.0977 241.624 32.7739C236.813 31.0295 231.838 29.7786 226.775 29.0406C223.126 28.4989 219.443 28.2283 215.754 28.2312V28.0825Z" fill="black"/>
<path d="M206.317 98.0733L215.688 88.3271L215.655 118.805L206.267 128.551L206.317 98.0733Z" fill="#BCFF87" stroke="black" stroke-linecap="round" stroke-linejoin="round"/>
<path d="M206.234 128.55L215.622 118.804H256.39C256.39 118.804 255.912 132.019 241.442 141.419C241.442 141.419 245.419 138.313 247.019 128.55H206.234Z" fill="#BCFF87" stroke="black" stroke-linecap="round" stroke-linejoin="round"/>
<path d="M61.8372 0.826172V221.899L53.3733 233.628L50.0901 238.187L49.5786 238.897V17.8242L61.8372 0.826172Z" fill="#8E64E9" stroke="black" stroke-linecap="round" stroke-linejoin="round"/>
<path d="M357.132 221.899L344.873 238.897H49.5786L50.0901 238.187L53.3733 233.627L61.8372 221.899H357.132Z" fill="#8E64E9" stroke="black" stroke-linecap="round" stroke-linejoin="round"/>
<path d="M352.314 81.2899C353.415 79.832 354.721 78.5412 356.191 77.4575V63.1025C354.537 63.7113 352.941 64.4687 351.423 65.3656C350.747 65.7621 350.087 66.1751 349.46 66.6211C345.145 69.5833 341.612 73.549 339.164 78.1782C336.716 82.8074 335.425 87.962 335.403 93.2C335.418 98.8145 336.915 104.325 339.742 109.174L356.241 137.768V107.704C354.248 106.227 352.567 104.37 351.293 102.241C350.019 100.111 349.178 97.7508 348.818 95.295C348.458 92.8392 348.585 90.3363 349.194 87.9301C349.802 85.5239 350.88 83.2617 352.364 81.2734L352.314 81.2899Z" fill="#7854C4"/>
<g style="mix-blend-mode:darken">
<path d="M106.912 213.673C106.913 223.126 103.176 232.195 96.5176 238.897H85.7935C80.5212 241.79 74.6058 243.307 68.5935 243.307C62.5812 243.307 56.6659 241.79 51.3936 238.897H49.5787V237.873C44.3698 234.608 40.0861 230.057 37.1387 224.658C36.0252 221.098 35.4687 217.387 35.4888 213.656C35.4844 205.711 38.1213 197.991 42.9836 191.712C47.846 185.433 54.6573 180.954 62.3435 178.979C70.0298 177.005 78.1539 177.648 85.4348 180.807C92.7158 183.966 98.7395 189.461 102.556 196.427C105.351 201.49 106.864 207.162 106.961 212.946C106.912 213.095 106.912 213.425 106.912 213.673Z" fill="#7854C4"/>
</g>
<path d="M374.191 59.6665C370.363 59.6612 366.564 60.338 362.972 61.6653C362.275 61.9201 361.592 62.2123 360.926 62.5408C355.353 65.1255 350.632 69.2473 347.315 74.4229C343.998 79.5985 342.224 85.6135 342.2 91.7628C342.195 97.3713 343.669 102.882 346.473 107.737L374.191 155.823L377.227 150.57L378.052 149.117L387.159 133.341L401.909 107.737C404.724 102.866 406.207 97.3386 406.209 91.7114C406.212 86.0842 404.734 80.5556 401.924 75.6823C399.114 70.8089 395.071 66.7628 390.202 63.9512C385.334 61.1396 379.812 59.6618 374.191 59.6665ZM374.191 110.016C372.848 110.02 371.508 109.871 370.199 109.57C366.615 108.79 363.338 106.98 360.767 104.362C358.196 101.744 356.444 98.4313 355.726 94.831C355.008 91.2307 355.355 87.4989 356.724 84.093C358.093 80.6871 360.425 77.7552 363.434 75.6569C364.999 74.5598 366.724 73.7127 368.549 73.146C371.139 72.3354 373.873 72.0947 376.565 72.4401C379.257 72.7856 381.842 73.7091 384.144 75.1476C386.447 76.5861 388.411 78.5055 389.904 80.7745C391.397 83.0436 392.383 85.6087 392.794 88.2944C393.205 90.9802 393.031 93.7231 392.286 96.3356C391.54 98.948 390.239 101.368 388.473 103.431C386.706 105.494 384.516 107.15 382.051 108.287C379.586 109.423 376.905 110.013 374.191 110.016Z" fill="#BCFF87" stroke="black" stroke-linecap="round" stroke-linejoin="round"/>
<path d="M378.943 153.626L374.191 155.89L346.473 107.737C343.646 102.888 342.149 97.3775 342.134 91.763C342.158 85.6137 343.933 79.5987 347.249 74.4231C350.566 69.2474 355.287 65.1257 360.86 62.541V62.921L363.368 75.657L363.781 77.5898L369.225 105.061L370.133 109.537L377.986 149.084L378.943 153.626Z" fill="#1CCA7E" stroke="black" stroke-linecap="round" stroke-linejoin="round"/>
<path d="M351.918 105.061C349.156 100.341 347.698 94.9703 347.694 89.5C347.726 84.4051 348.981 79.3924 351.352 74.8846C353.724 70.3768 357.143 66.5059 361.322 63.5983C361.949 63.1523 362.576 62.7559 363.236 62.3759C369.187 58.9053 376.118 57.5025 382.948 58.3861C389.778 59.2697 396.125 62.3901 400.999 67.2611C405.874 72.1322 409.002 78.4806 409.898 85.3175C410.794 92.1543 409.406 99.0958 405.951 105.061L378.943 151.975L351.918 105.061ZM368.417 105.54L368.829 105.804L369.539 106.201C372.411 107.757 375.627 108.569 378.893 108.563C380.89 108.565 382.876 108.264 384.783 107.671C387.739 106.737 390.432 105.118 392.643 102.944C394.854 100.77 396.521 98.1044 397.508 95.1633C398.495 92.2221 398.774 89.0891 398.322 86.0197C397.869 82.9502 396.699 80.0312 394.906 77.5006C393.113 74.9699 390.749 72.8993 388.005 71.4575C385.261 70.0157 382.215 69.2435 379.117 69.2039C376.018 69.1643 372.954 69.8584 370.174 71.2296C367.394 72.6008 364.977 74.6103 363.121 77.0943L362.972 77.309C360.524 80.6647 359.211 84.7165 359.227 88.8723C359.239 92.1995 360.086 95.4702 361.692 98.383C363.298 101.296 365.611 103.757 368.417 105.54Z" fill="#7CCC3D"/>
<path d="M378.943 59.0388C384.274 59.0385 389.511 60.4436 394.127 63.1127C398.743 65.7819 402.576 69.6209 405.24 74.2438C407.904 78.8667 409.305 84.1104 409.302 89.4475C409.3 94.7847 407.894 100.027 405.226 104.648L390.476 130.235L378.927 150.24L378.63 149.744L352.628 104.648C349.933 100.055 348.51 94.8262 348.503 89.4997C348.544 84.5316 349.778 79.6463 352.101 75.2561C354.424 70.866 357.768 67.0997 361.851 64.2753C362.411 63.8788 363.005 63.4989 363.698 63.0859C368.324 60.4023 373.581 59.005 378.927 59.0388M362.197 77.0609C359.749 80.5104 358.439 84.6402 358.452 88.872C358.459 92.2631 359.304 95.5998 360.91 98.5854C362.516 101.571 364.834 104.113 367.658 105.986L368.467 106.465C368.696 106.609 368.933 106.741 369.176 106.861C372.177 108.484 375.533 109.336 378.943 109.339C381.023 109.335 383.092 109.023 385.081 108.414C388.171 107.449 390.988 105.766 393.304 103.502C395.62 101.238 397.367 98.4575 398.404 95.3877C399.44 92.3179 399.736 89.0461 399.268 85.8397C398.799 82.6334 397.58 79.5836 395.708 76.9397C393.837 74.2958 391.367 72.1328 388.501 70.6278C385.635 69.1227 382.453 68.3182 379.217 68.2801C375.981 68.242 372.781 68.9713 369.881 70.4085C366.98 71.8456 364.46 73.9497 362.527 76.5488L362.197 76.9949M378.943 57.3208C373.329 57.3272 367.818 58.8265 362.972 61.6653C362.296 62.0617 361.636 62.4747 361.009 62.9207C356.692 65.881 353.158 69.8462 350.709 74.4759C348.261 79.1055 346.972 84.2611 346.952 89.4997C346.969 95.1139 348.465 100.624 351.291 105.473L377.31 150.57L378.96 153.56L391.928 131.061L406.678 105.473C409.491 100.601 410.973 95.0736 410.975 89.4459C410.977 83.8182 409.499 78.2892 406.69 73.415C403.88 68.5408 399.838 64.4933 394.97 61.6797C390.103 58.866 384.581 57.3855 378.96 57.3869L378.943 57.3208ZM378.943 107.671C375.808 107.677 372.721 106.893 369.968 105.391C369.737 105.275 369.506 105.16 369.291 105.027C367.038 103.675 365.093 101.865 363.58 99.7149C362.067 97.5645 361.021 95.1208 360.508 92.5411C359.995 89.9614 360.027 87.3029 360.602 84.7364C361.177 82.1699 362.283 79.7523 363.847 77.6391C365.769 75.0603 368.318 73.0166 371.251 71.7023C374.185 70.388 377.405 69.8468 380.606 70.1302C383.808 70.4135 386.883 71.512 389.541 73.3212C392.199 75.1304 394.35 77.5901 395.79 80.4665C397.231 83.3429 397.912 86.5404 397.77 89.755C397.628 92.9695 396.668 96.0943 394.979 98.8322C393.291 101.57 390.931 103.83 388.124 105.397C385.318 106.964 382.157 107.787 378.943 107.786V107.671Z" fill="black"/>
<path d="M378.943 107.737C389.349 107.737 397.785 99.2906 397.785 88.8719C397.785 78.4533 389.349 70.0073 378.943 70.0073C368.537 70.0073 360.102 78.4533 360.102 88.8719C360.102 99.2906 368.537 107.737 378.943 107.737Z" fill="white" stroke="black" stroke-linecap="round" stroke-linejoin="round"/>
<path d="M381.896 105.473C392.302 105.473 400.738 97.0274 400.738 86.6088C400.738 76.1901 392.302 67.7441 381.896 67.7441C371.49 67.7441 363.055 76.1901 363.055 86.6088C363.055 97.0274 371.49 105.473 381.896 105.473Z" fill="#EAEBEB" stroke="black" stroke-linecap="round" stroke-linejoin="round"/>
<path d="M104.519 209.576C104.527 214.529 103.505 219.429 101.517 223.964C100.248 226.899 98.5828 229.644 96.567 232.124C93.6523 235.721 90.0728 238.721 86.0244 240.962C80.7521 243.855 74.8367 245.372 68.8244 245.372C62.8121 245.372 56.8968 243.855 51.6245 240.962C51.212 240.731 50.7996 240.5 50.4036 240.252L49.8921 239.938C45.0205 236.891 40.9542 232.713 38.0378 227.759C35.1214 222.804 33.4408 217.219 33.1384 211.476C32.8361 205.732 33.9208 200.001 36.3008 194.767C38.6808 189.533 42.2858 184.95 46.8105 181.407C51.3352 177.864 56.6462 175.466 62.2934 174.415C67.9407 173.364 73.7578 173.691 79.2519 175.369C84.7459 177.047 89.7551 180.026 93.8549 184.054C97.9546 188.082 101.024 193.04 102.804 198.508C103.956 202.084 104.535 205.819 104.519 209.576Z" fill="#BCFF87" stroke="black" stroke-width="0.75" stroke-linecap="round" stroke-linejoin="round"/>
<path d="M72.7265 240.4C92.0075 240.4 107.638 224.751 107.638 205.446C107.638 186.142 92.0075 170.492 72.7265 170.492C53.4455 170.492 37.8152 186.142 37.8152 205.446C37.8152 224.751 53.4455 240.4 72.7265 240.4Z" fill="#BCFF87"/>
<path d="M72.7265 171.318C79.4682 171.318 86.0584 173.319 91.6639 177.07C97.2694 180.82 101.638 186.15 104.218 192.386C106.798 198.622 107.473 205.484 106.158 212.104C104.843 218.724 101.596 224.805 96.8292 229.578C92.0622 234.351 85.9885 237.602 79.3764 238.918C72.7643 240.235 65.9107 239.559 59.6822 236.976C53.4537 234.393 48.1302 230.019 44.3847 224.407C40.6393 218.794 38.6401 212.196 38.6401 205.446C38.6532 196.399 42.2487 187.726 48.6383 181.328C55.0279 174.931 63.6903 171.331 72.7265 171.318ZM72.7265 169.666C65.6585 169.666 58.7493 171.764 52.8725 175.696C46.9957 179.628 42.4153 185.216 39.7105 191.754C37.0057 198.292 36.298 205.486 37.6769 212.426C39.0558 219.367 42.4594 225.742 47.4572 230.746C52.455 235.75 58.8226 239.158 65.7547 240.539C72.6869 241.919 79.8722 241.211 86.4022 238.502C92.9321 235.794 98.5134 231.208 102.44 225.324C106.367 219.44 108.463 212.523 108.463 205.446C108.463 195.957 104.698 186.856 97.9959 180.146C91.294 173.436 82.2044 169.666 72.7265 169.666Z" fill="black"/>
<path d="M81.4378 213.838C81.1601 213.541 80.8218 213.308 80.4458 213.155C80.0699 213.001 79.6653 212.93 79.2596 212.948C78.8539 212.965 78.4567 213.069 78.0952 213.255C77.7336 213.44 77.4162 213.701 77.1646 214.02C76.2077 215.044 75.2508 216.085 74.3104 217.142C74.2228 217.273 74.0881 217.365 73.9343 217.399C73.7806 217.432 73.6198 217.406 73.4854 217.324C72.8255 216.993 72.1325 216.745 71.4891 216.382C68.5619 214.617 65.9425 212.385 63.7347 209.774C62.584 208.523 61.6224 207.109 60.8804 205.579C60.8198 205.454 60.8032 205.313 60.8331 205.178C60.8631 205.043 60.9379 204.922 61.0454 204.835C62.0188 203.828 62.9427 202.787 63.8832 201.746C64.1945 201.465 64.4401 201.118 64.6025 200.731C64.7649 200.344 64.8401 199.926 64.8227 199.506C64.8054 199.087 64.696 198.676 64.5022 198.304C64.3085 197.932 64.0351 197.607 63.7017 197.352L61.2599 195.089L58.7356 192.76C58.4565 192.466 58.1177 192.235 57.742 192.083C57.3664 191.931 56.9626 191.861 56.5577 191.878C56.1529 191.895 55.7564 191.999 55.395 192.183C55.0335 192.366 54.7155 192.625 54.4624 192.942C53.5055 193.982 52.5815 195.039 51.5916 196.064C50.7282 196.951 50.2279 198.129 50.1892 199.367C50.1944 201.433 50.6446 203.472 51.5091 205.347C53.1921 209.228 55.5245 212.792 58.4056 215.886C62.209 220.126 66.8719 223.505 72.083 225.798C74.4013 226.912 76.9218 227.541 79.491 227.648C80.3503 227.711 81.2121 227.566 82.0044 227.227C82.7966 226.888 83.4962 226.364 84.0446 225.699C84.8531 224.708 85.7935 223.782 86.6514 222.824C86.9563 222.544 87.197 222.201 87.357 221.819C87.517 221.436 87.5925 221.024 87.5784 220.61C87.5643 220.195 87.4609 219.789 87.2753 219.419C87.0896 219.048 86.8262 218.722 86.5029 218.463L81.4378 213.838Z" fill="#7CCC3D"/>
<path d="M80.2003 207.94L83.3185 207.412C82.8309 204.473 81.4189 201.766 79.2882 199.686C77.1575 197.607 74.4193 196.262 71.4724 195.849L71.0435 198.987C73.311 199.312 75.4179 200.346 77.0626 201.943C78.7073 203.539 79.8056 205.615 80.2003 207.874V207.94Z" fill="#7CCC3D"/>
<path d="M85.0674 194.379C81.5143 190.781 76.8747 188.459 71.8684 187.771L71.4395 190.91C75.6533 191.504 79.5691 193.425 82.6209 196.395C85.6727 199.364 87.7024 203.228 88.4167 207.429L91.5349 206.883C90.7298 202.143 88.4692 197.772 85.0674 194.379Z" fill="#7CCC3D"/>
<path d="M82.8402 211.79C82.5622 211.492 82.2234 211.257 81.8468 211.102C81.4702 210.947 81.0646 210.875 80.6577 210.89C80.2507 210.906 79.8519 211.009 79.4883 211.193C79.1248 211.377 78.8049 211.636 78.5506 211.955L75.6963 215.077C75.6557 215.145 75.602 215.204 75.5383 215.251C75.4746 215.298 75.4022 215.331 75.3254 215.35C75.2486 215.368 75.1689 215.371 75.0909 215.358C75.0129 215.345 74.9383 215.317 74.8713 215.275C74.2114 214.945 73.5184 214.681 72.875 214.317C69.9434 212.559 67.3231 210.326 65.1206 207.71C63.9736 206.455 63.0123 205.042 62.2663 203.514C62.187 203.39 62.155 203.241 62.1762 203.096C62.1974 202.95 62.2704 202.817 62.3818 202.721C63.3552 201.697 64.2792 200.672 65.2196 199.632C65.5309 199.351 65.7765 199.004 65.9389 198.617C66.1013 198.23 66.1765 197.812 66.1592 197.392C66.1418 196.973 66.0324 196.562 65.8386 196.19C65.6449 195.817 65.3716 195.492 65.0381 195.238L62.5963 192.975C61.7548 192.198 60.9464 191.323 60.0885 190.646C59.8079 190.351 59.4677 190.12 59.0907 189.968C58.7138 189.815 58.3086 189.746 57.9025 189.763C57.4964 189.78 57.0986 189.884 56.7358 190.067C56.373 190.251 56.0535 190.51 55.7988 190.827C54.8419 191.868 53.918 192.925 52.928 193.949C52.0646 194.836 51.5643 196.015 51.5256 197.253C51.5306 199.313 51.9809 201.347 52.8455 203.216C54.5189 207.106 56.8585 210.673 59.7585 213.755C63.5482 218.003 68.2076 221.384 73.4195 223.667C75.7456 224.775 78.2703 225.404 80.8439 225.517C81.7002 225.574 82.5579 225.428 83.3466 225.089C84.1353 224.75 84.8325 224.229 85.381 223.568C86.1895 222.56 87.1299 221.652 87.9878 220.693C88.2956 220.413 88.5387 220.069 88.7004 219.685C88.8622 219.301 88.9386 218.887 88.9245 218.47C88.9104 218.054 88.806 217.646 88.6187 217.274C88.4313 216.902 88.1654 216.575 87.8394 216.316L82.8402 211.79Z" fill="#D9D9D9" stroke="black" stroke-width="0.75" stroke-linecap="round" stroke-linejoin="round"/>
<path d="M81.5862 205.892L84.7045 205.364C84.2233 202.515 82.875 199.884 80.8438 197.831C78.7029 195.667 75.9067 194.273 72.8914 193.867L72.4624 197.005C74.7329 197.323 76.8437 198.355 78.4897 199.952C80.1358 201.55 81.2317 203.63 81.6192 205.892H81.5862Z" fill="#D9D9D9" stroke="black" stroke-width="0.75" stroke-linecap="round" stroke-linejoin="round"/>
<path d="M86.47 192.314C82.9103 188.725 78.2739 186.404 73.271 185.706L72.842 188.845C77.0549 189.442 80.9694 191.364 84.0207 194.333C87.0721 197.302 89.1026 201.164 89.8192 205.364L92.9375 204.835C92.1273 200.092 89.8676 195.717 86.47 192.314Z" fill="#D9D9D9" stroke="black" stroke-width="0.75" stroke-linecap="round" stroke-linejoin="round"/>
<path d="M84.8696 209.625C84.587 209.331 84.2444 209.102 83.8652 208.952C83.4859 208.802 83.0789 208.736 82.6719 208.758C82.2648 208.78 81.8673 208.89 81.5063 209.079C81.1453 209.269 80.8294 209.534 80.5799 209.857C79.623 210.914 78.6661 211.955 77.7421 213.028C77.7015 213.096 77.6478 213.155 77.5841 213.202C77.5205 213.249 77.4481 213.283 77.3713 213.301C77.2944 213.319 77.2147 213.322 77.1368 213.31C77.0588 213.297 76.9841 213.269 76.9172 213.227C76.2573 212.896 75.5478 212.648 74.9044 212.302C71.9449 210.595 69.2815 208.419 67.018 205.859C65.856 204.608 64.8732 203.202 64.0977 201.68C64.0172 201.553 63.9846 201.402 64.0058 201.254C64.0269 201.105 64.1005 200.969 64.2132 200.87C65.1701 199.846 66.094 198.806 67.018 197.748C67.3265 197.464 67.5685 197.114 67.7268 196.725C67.8851 196.336 67.9557 195.917 67.9337 195.497C67.9116 195.077 67.7974 194.668 67.5992 194.297C67.401 193.927 67.1237 193.605 66.787 193.354L64.3452 191.108C63.5037 190.348 62.6953 189.571 61.7879 188.812C61.5039 188.52 61.1609 188.292 60.782 188.144C60.403 187.996 59.9968 187.931 59.5906 187.953C59.1844 187.975 58.7876 188.083 58.4267 188.271C58.0658 188.459 57.7492 188.722 57.4982 189.043C56.5413 190.1 55.6173 191.174 54.6439 192.198C53.7794 193.114 53.2956 194.324 53.291 195.584C53.3071 197.65 53.7804 199.687 54.6769 201.548C56.4117 205.428 58.8066 208.978 61.7549 212.037C65.6301 216.22 70.3484 219.53 75.5973 221.75C77.9508 222.833 80.4986 223.429 83.0877 223.501C83.9497 223.552 84.8114 223.396 85.6007 223.045C86.39 222.695 87.0841 222.16 87.6249 221.486C88.4333 220.478 89.3573 219.553 90.2152 218.579C90.5191 218.294 90.7575 217.946 90.9137 217.559C91.0699 217.173 91.1402 216.757 91.1198 216.34C91.0994 215.924 90.9888 215.517 90.7955 215.147C90.6023 214.778 90.3311 214.455 90.0007 214.201C88.2683 212.665 86.569 211.145 84.8696 209.625Z" fill="white" stroke="black" stroke-width="0.75" stroke-linecap="round" stroke-linejoin="round"/>
<path d="M82.4938 202.985L85.579 202.291C84.9432 199.465 83.4439 196.907 81.2894 194.973C79.0383 192.924 76.1717 191.681 73.139 191.438L72.875 194.593C75.227 194.779 77.4502 195.744 79.194 197.335C80.8534 198.829 82.0068 200.804 82.4938 202.985Z" fill="white" stroke="black" stroke-width="0.75" stroke-linecap="round" stroke-linejoin="round"/>
<path d="M87.0474 189.175C83.3057 185.8 78.5558 183.756 73.535 183.36L73.271 186.515C77.5042 186.886 81.5107 188.592 84.7131 191.388C87.9155 194.185 90.1482 197.927 91.0896 202.076L94.1749 201.366C93.1271 196.658 90.635 192.395 87.0474 189.175Z" fill="white" stroke="black" stroke-width="0.75" stroke-linecap="round" stroke-linejoin="round"/>
<path d="M82.4606 202.985L81.5862 205.892L84.7044 205.364L85.5459 202.291L82.4606 202.985Z" fill="white" stroke="black" stroke-width="0.75" stroke-linecap="round" stroke-linejoin="round"/>
<path d="M91.0895 202.01L89.8191 205.347L92.9374 204.818L94.1748 201.3L91.0895 202.01Z" fill="white" stroke="black" stroke-width="0.75" stroke-linecap="round" stroke-linejoin="round"/>
<path d="M60.9792 103.805L50.2056 111.371V81.4058H60.9792V103.805Z" fill="#7854C4"/>
<path d="M99.1574 36.2261H62.7117V103.805H99.1574V36.2261Z" fill="#7854C4"/>
<path d="M91.0895 28.8916H0.824951V96.4706H91.0895V28.8916Z" fill="#8E64E9" stroke="black" stroke-linecap="round" stroke-linejoin="round"/>
<path d="M94.8346 23.6885H4.57007V91.2674H94.8346V23.6885Z" fill="#FFF167" stroke="black" stroke-linecap="round" stroke-linejoin="round"/>
<path d="M4.57016 23.6885L0.824951 28.8754V96.4709L4.57016 91.2674V23.6885Z" fill="#FFF167" stroke="black" stroke-linecap="round" stroke-linejoin="round"/>
<path d="M94.8347 91.2676L91.0895 96.471H0.824951L4.57016 91.2676H94.8347Z" fill="#FFF167" stroke="black" stroke-linecap="round" stroke-linejoin="round"/>
<path d="M80.7449 38.3408H16.7793V54.9424H80.7449V38.3408Z" fill="#FEFFFF" stroke="black" stroke-linecap="round" stroke-linejoin="round"/>
<path d="M78.4514 40.1743H14.4858V56.7758H78.4514V40.1743Z" fill="#7CCC3D"/>
<path d="M78.4514 64.8042H14.4858V81.4057H78.4514V64.8042Z" fill="#7CCC3D"/>
<path d="M83.6321 34.9214H19.6665V51.5229H83.6321V34.9214Z" fill="#FEFFFF" stroke="black" stroke-linecap="round" stroke-linejoin="round"/>
<path d="M80.7449 60.79H16.7793V77.3916H80.7449V60.79Z" fill="#FEFFFF" stroke="black" stroke-linecap="round" stroke-linejoin="round"/>
<path d="M83.6321 57.3706H19.6665V73.9721H83.6321V57.3706Z" fill="#FEFFFF" stroke="black" stroke-linecap="round" stroke-linejoin="round"/>
<path d="M16.7793 38.3408L19.6666 34.9214V51.5229L16.7793 54.9423V38.3408Z" fill="#FEFFFF" stroke="black" stroke-linecap="round" stroke-linejoin="round"/>
<path d="M83.6322 51.5229L80.7449 54.9424H16.7793L19.6666 51.5229H83.6322Z" fill="#BFBFBF" stroke="black" stroke-linecap="round" stroke-linejoin="round"/>
<path d="M16.7793 60.79L19.6666 57.3706V73.9721L16.7793 77.3916V60.79Z" fill="#FEFFFF" stroke="black" stroke-linecap="round" stroke-linejoin="round"/>
<path d="M83.6322 73.9722L80.7449 77.3916H16.7793L19.6666 73.9722H83.6322Z" fill="#B9BABA" stroke="black" stroke-linecap="round" stroke-linejoin="round"/>
<path d="M339.956 12.4722L316.479 35.9951L303.593 23.0938L293.645 33.0548L316.479 55.917L349.905 22.4331L339.956 12.4722Z" fill="#7854C4"/>
<path d="M334.743 12.4722L311.265 35.9951L298.38 23.0938L288.431 33.0548L311.265 55.917L344.692 22.4331L334.743 12.4722Z" fill="white" stroke="black" stroke-linecap="round" stroke-linejoin="round"/>
<path d="M339.066 8.25977L315.588 31.7662L302.702 18.8814L292.754 28.8258L315.588 51.7046L349.014 18.2207L339.066 8.25977Z" fill="white" stroke="black" stroke-linecap="round" stroke-linejoin="round"/>
</g>
<defs>
<clipPath id="clip0_231_124">
<rect width="411" height="246" fill="white"/>
</clipPath>
</defs>
</svg>
