<svg width="445" height="199" viewBox="0 0 445 199" fill="none" xmlns="http://www.w3.org/2000/svg">
<g clip-path="url(#clip0_217_201)">
<path d="M159.724 11.021H22.0581C10.0811 11.021 0.371826 20.71 0.371826 32.6621V161.158C0.371826 173.11 10.0811 182.799 22.0581 182.799H159.724C171.701 182.799 181.411 173.11 181.411 161.158V32.6621C181.411 20.71 171.701 11.021 159.724 11.021Z" fill="#7CCC3D" stroke="black" stroke-linejoin="round"/>
<path d="M169.333 0.371094H31.6667C19.8951 0.371094 10.3523 9.894 10.3523 21.6411V150.137C10.3523 161.884 19.8951 171.407 31.6667 171.407H169.333C181.105 171.407 190.647 161.884 190.647 150.137V21.6411C190.647 9.894 181.105 0.371094 169.333 0.371094Z" fill="#BCFF87"/>
<path d="M169.333 0.74215C174.885 0.750003 180.207 2.95437 184.133 6.87198C188.059 10.7896 190.268 16.1008 190.276 21.6411V150.137C190.268 155.677 188.059 160.988 184.133 164.906C180.207 168.824 174.885 171.028 169.333 171.036H31.6667C26.1142 171.03 20.7908 168.826 16.8646 164.908C12.9384 160.99 10.7301 155.678 10.7242 150.137V21.6411C10.7301 16.1001 12.9384 10.7878 16.8646 6.86981C20.7908 2.95178 26.1142 0.748043 31.6667 0.74215H169.333ZM169.333 0H31.6667C25.9152 0 20.3992 2.28004 16.3322 6.33853C12.2653 10.397 9.98047 15.9015 9.98047 21.6411V150.137C9.97949 152.979 10.5398 155.794 11.6292 158.42C12.7187 161.046 14.3161 163.432 16.3301 165.442C18.344 167.451 20.7351 169.045 23.3666 170.133C25.9982 171.22 28.8186 171.779 31.6667 171.778H169.333C175.085 171.778 180.601 169.498 184.667 165.439C188.734 161.381 191.019 155.876 191.019 150.137V21.6411C191.017 15.9021 188.732 10.3988 184.665 6.3407C180.599 2.28263 175.084 0.00196708 169.333 0Z" fill="black"/>
<path d="M407.183 0.371094H401.233V1.11324H407.183V0.371094ZM395.284 0.371094H389.334V1.11324H395.284V0.371094ZM383.384 0.371094H377.435V1.11324H383.384V0.371094ZM371.485 0.371094H365.536V1.11324H371.485V0.371094ZM359.586 0.371094H353.636V1.11324H359.586V0.371094ZM347.687 0.371094H341.737V1.11324H347.687V0.371094ZM335.788 0.371094H329.838V1.11324H335.788V0.371094ZM323.889 0.371094H317.939V1.11324H323.889V0.371094ZM311.989 0.371094H306.04V1.11324H311.989V0.371094ZM300.09 0.371094H294.141V1.11324H300.09V0.371094ZM288.191 0.371094H282.241V1.11324H288.191V0.371094ZM276.292 0.371094H270.342V1.11324H276.292V0.371094ZM264.393 0.371094H258.443V1.11324H264.393V0.371094ZM252.493 0.734747C252.211 0.786698 251.936 0.838648 251.66 0.905441H251.593H251.541H251.497H251.452H250.418H250.381H250.337H250.292H250.247H250.18H250.136H249.883H249.838H249.794H249.749H249.704H249.66H249.615H249.571H249.533H249.496H248.247H248.12H248.083H248.046H248.001H247.964H247.92H247.882L247.652 2.22647H247.592H247.548H247.488H247.444H247.384L246.908 2.59754L247.235 3.26548C248.95 2.4274 250.772 1.82809 252.65 1.48432L252.516 0.742169L252.493 0.734747ZM241.977 5.93722C240.5 7.26181 239.211 8.78257 238.147 10.4569L238.772 10.8502C239.808 9.23437 241.059 7.76634 242.491 6.48641L241.977 5.93722ZM235.686 15.8375V15.882V15.9265V15.9859C235.682 16.0254 235.682 16.0652 235.686 16.1047V16.164C235.269 17.8024 235.045 19.4835 235.016 21.1735H235.76C235.791 19.2602 236.084 17.36 236.63 15.5258L235.887 15.3106L235.686 15.8375ZM235.53 27.6302H234.786V33.5674H235.53V27.6302ZM235.53 39.5046H234.786V45.4418H235.53V39.5046ZM235.53 51.379H234.786V57.3162H235.53V51.379ZM235.53 63.2534H234.786V69.1906H235.53V63.2534ZM235.53 75.1278H234.786V81.065H235.53V75.1278ZM235.53 87.0022H234.786V92.9394H235.53V87.0022ZM235.53 98.8766H234.786V104.814H235.53V98.8766ZM235.53 110.751H234.786V116.688H235.53V110.751ZM235.53 122.625H234.786V128.563H235.53V122.625ZM235.53 134.5H234.786V140.437H235.53V134.5ZM235.53 146.374H234.786V152.311H235.53V146.374ZM235.53 158.249H234.786V162.924V162.991C234.786 163.31 234.786 163.622 234.823 163.941L235.567 163.896C235.567 163.488 235.53 163.073 235.53 162.657V158.004V158.249ZM236.675 169.744L235.976 169.989C236.117 170.405 236.273 170.813 236.444 171.221V171.266V171.31V171.348V171.392L236.496 171.496C237.068 172.778 237.766 174.002 238.579 175.147V175.184V175.222L239.189 174.791C238.092 173.22 237.217 171.507 236.586 169.7L236.675 169.744ZM243.19 179.029L242.721 179.6C244.254 180.86 245.953 181.904 247.771 182.702L248.068 182.027C246.315 181.263 244.674 180.264 243.19 179.058V179.029ZM253.601 183.586L253.497 184.328H253.892C254.39 184.387 254.888 184.432 255.379 184.461H259.41V183.719H256.502C255.524 183.72 254.548 183.653 253.579 183.519L253.601 183.586ZM271.331 183.786H265.382V184.528H271.331V183.786ZM283.23 183.786H277.281V184.528H283.23V183.786ZM295.13 183.786H289.18V184.528H295.13V183.786ZM307.029 183.786H301.079V184.528H307.029V183.786ZM318.928 183.786H312.978V184.528H318.928V183.786ZM330.827 183.786H324.878V184.528H330.827V183.786ZM342.726 183.786H336.777V184.528H342.726V183.786ZM354.626 183.786H348.676V184.528H354.626V183.786ZM366.525 183.786H360.575V184.528H366.525V183.786ZM378.424 183.786H372.474V184.528H378.424V183.786ZM390.323 183.786H384.374V184.528H390.323V183.786ZM402.222 183.786H396.273V184.528H402.222V183.786ZM413.779 182.747C411.956 183.344 410.059 183.689 408.142 183.771V184.513L408.752 184.476H410.834H410.901H410.946H411.013H411.132H411.199C412.142 184.291 413.071 184.043 413.98 183.734L413.75 183.029L413.779 182.747ZM423.165 176.424C421.92 177.881 420.481 179.162 418.889 180.231L419.305 180.847C419.744 180.55 420.175 180.238 420.592 179.912H420.629H420.666H420.859H420.904H421.008H421.06H421.12L420.555 179.43L423.165 176.424ZM427.895 166.138C427.601 168.028 427.045 169.869 426.244 171.607L426.921 171.919L427.054 171.622V171.585V171.54V171.481V171.437V171.399V171.355V171.31V171.266C427.054 171.229 427.054 171.192 427.054 171.162C427.498 169.911 427.824 168.621 428.029 167.31L427.285 167.199L427.895 166.138ZM428.869 154.367H428.125V160.304H428.869V154.367ZM428.869 142.493H428.125V148.43H428.869V142.493ZM428.869 130.618H428.125V136.556H428.869V130.618ZM428.869 118.744H428.125V124.681H428.869V118.744ZM428.869 106.87H428.125V112.807H428.869V106.87ZM428.869 94.9952H428.125V100.932H428.869V94.9952ZM428.869 83.1208H428.125V89.058H428.869V83.1208ZM428.869 71.2464H428.125V77.1836H428.869V71.2464ZM428.869 59.372H428.125V65.3092H428.869V59.372ZM428.869 47.4976H428.125V53.4348H428.869V47.4976ZM428.869 35.6232H428.125V41.5604H428.869V35.6232ZM428.869 23.7488H428.125V29.686H428.869V23.7488ZM426.541 12.2381L425.879 12.572C426.749 14.2777 427.374 16.0962 427.739 17.9749L428.482 17.8339V17.7819V17.7374V17.6929V17.6483V17.6038V17.5593V17.5222V17.4851V17.4405V17.396V17.3589V17.3218V17.2773V17.2327V17.1956V17.1511V17.114V17.0695V17.0249V16.9878V16.9507V16.9062C428.356 16.6242 428.222 16.3496 428.081 16.075L426.541 12.2381ZM418.606 3.61429L418.212 4.24511C419.842 5.25537 421.326 6.48394 422.622 7.89649L423.165 7.42151L423.12 7.36956L423.039 7.28793L423.001 7.25082L422.778 7.02075L422.585 6.8278H422.548H422.51H422.369H422.295L422.213 6.75358H422.176C421.487 6.19667 420.765 5.68357 420.012 5.21733L418.606 3.61429ZM407.309 0.371094V1.11324C409.227 1.12695 411.133 1.4016 412.976 1.92961L413.185 1.18746H413.14H413.095H408.291H407.302L407.309 0.371094Z" fill="#BCFF87"/>
<g opacity="0.27">
<path d="M423.314 14.8431H417.364V15.5852H423.314V14.8431ZM411.415 14.8431H405.465V15.5852H411.415V14.8431ZM399.515 14.8431H393.566V15.5852H399.515V14.8431ZM387.616 14.8431H381.667V15.5852H387.616V14.8431ZM375.717 14.8431H369.767V15.5852H375.717V14.8431ZM363.818 14.8431H357.868V15.5852H363.818V14.8431ZM351.919 14.8431H345.969V15.5852H351.919V14.8431ZM340.019 14.8431H334.07V15.5852H340.019V14.8431ZM328.12 14.8431H322.171V15.5852H328.12V14.8431ZM316.221 14.8431H310.271V15.5852H316.221V14.8431ZM304.322 14.8431H298.372V15.5852H304.322V14.8431ZM292.423 14.8431H286.473V15.5852H292.423V14.8431ZM280.523 14.8431H274.574V15.5852H280.523V14.8431ZM268.624 15.1993L267.687 15.3923H267.62H267.568H267.434H267.39H263.604H263.411H263.113H263.076L263.403 16.0602C265.124 15.2125 266.953 14.6057 268.84 14.2568L268.706 13.5146L268.624 15.1993ZM258.086 20.3944C257.59 20.8446 257.107 21.3196 256.636 21.8193L256.561 21.9009V21.938C256.541 21.9687 256.516 21.9962 256.487 22.0197V22.0568L256.413 22.1458L256.375 22.183L256.271 22.3017C256.234 22.3419 256.2 22.384 256.167 22.4279L255.989 22.6357V22.6728L255.952 22.7247V22.7618L255.818 22.9251C255.303 23.5599 254.827 24.224 254.39 24.9141L255.015 25.3148C256.048 23.6952 257.299 22.2244 258.733 20.9436L258.235 20.3944H258.086ZM251.817 30.2947C251.772 30.4357 251.735 30.5841 251.69 30.7325V30.7696V30.8142V30.8587V30.9255C251.336 32.4447 251.145 33.997 251.118 35.5565H251.861C251.892 33.6431 252.185 31.743 252.731 29.9087L251.988 29.7009L251.817 30.2947ZM251.66 42.08H250.917V48.0172H251.66V42.08ZM251.66 53.9544H250.917V59.8916H251.66V53.9544ZM251.66 65.8288H250.917V71.766H251.66V65.8288ZM251.66 77.7032H250.917V83.6404H251.66V77.7032ZM251.66 89.5776H250.917V95.5148H251.66V89.5776ZM251.66 101.452H250.917V107.389H251.66V101.452ZM251.66 113.326H250.917V119.264H251.66V113.326ZM251.66 125.201H250.917V131.138H251.66V125.201ZM251.66 137.075H250.917V143.012H251.66V137.075ZM251.66 148.95H250.917V154.887H251.66V148.95ZM251.66 160.824H250.917V166.761H251.66V160.824ZM251.66 172.698H250.917V177.374C250.917 177.715 250.917 178.064 250.954 178.405L251.698 178.361C251.698 177.953 251.66 177.537 251.66 177.129V172.698ZM252.806 184.202L252.107 184.439C252.58 185.806 253.19 187.121 253.929 188.365L253.988 188.469V188.506V188.551V188.588L254.598 188.165C253.502 186.594 252.626 184.881 251.995 183.074L252.806 184.202ZM259.291 193.493L258.822 194.065C259.321 194.48 259.841 194.866 260.384 195.237H260.421H260.458H260.496H260.741H260.786H260.823H260.86H260.897C261.792 195.799 262.727 196.295 263.693 196.722L263.991 196.039C262.238 195.274 260.596 194.276 259.112 193.07L259.291 193.493ZM269.703 198.05L269.606 198.792H269.874H275.541V198.05H272.633C271.652 198.052 270.673 197.982 269.703 197.842V198.05ZM287.44 198.258H281.49V199H287.44V198.258ZM299.339 198.258H293.389V199H299.339V198.258ZM311.238 198.258H305.289V199H311.238V198.258ZM323.137 198.258H317.188V199H323.137V198.258ZM335.037 198.258H329.087V199H335.037V198.258ZM346.936 198.258H340.986V199H346.936V198.258ZM358.835 198.258H352.885V199H358.835V198.258ZM370.734 198.258H364.785V199H370.734V198.258ZM382.633 198.258H376.684V199H382.633V198.258ZM394.533 198.258H388.583V199H394.533V198.258ZM406.432 198.258H400.482V199H406.432V198.258ZM418.331 198.258H412.381V199H418.331V198.258ZM429.888 197.219C428.064 197.814 426.168 198.156 424.251 198.236V198.978H424.548C425.849 198.904 427.141 198.716 428.408 198.414H428.468H428.512H429.01H429.055C429.39 198.325 429.724 198.221 430.059 198.11L429.829 197.412L429.888 197.219ZM439.303 190.888C438.058 192.348 436.62 193.632 435.027 194.703L435.443 195.319C436.049 194.913 436.633 194.474 437.191 194.005H437.236H437.392L437.437 193.968H437.474C438.086 193.393 438.667 192.786 439.214 192.15L438.649 191.668L439.303 190.888ZM443.989 180.602C443.694 182.493 443.139 184.334 442.338 186.072L443.014 186.384C443.663 184.998 444.161 183.548 444.502 182.057V182.012V181.938V181.871V181.827V181.782V181.738V181.693V181.626V181.589L443.758 181.478L443.989 180.602ZM444.985 168.854H444.241V174.791H444.985V168.854ZM444.985 156.98H444.241V162.917H444.985V156.98ZM444.985 145.105H444.241V151.042H444.985V145.105ZM444.985 133.231H444.241V139.168H444.985V133.231ZM444.985 121.356H444.241V127.294H444.985V121.356ZM444.985 109.482H444.241V115.419H444.985V109.482ZM444.985 97.6076H444.241V103.545H444.985V97.6076ZM444.985 85.7332H444.241V91.6704H444.985V85.7332ZM444.985 73.8588H444.241V79.796H444.985V73.8588ZM444.985 61.9844H444.241V67.9216H444.985V61.9844ZM444.985 50.11H444.241V56.0472H444.985V50.11ZM444.985 38.2357H444.241V44.1728H444.985V38.2357ZM442.672 26.7175L442.01 27.0515C442.878 28.7601 443.504 30.581 443.87 32.4617L444.613 32.3207C444.229 30.3724 443.576 28.4867 442.672 26.7175ZM434.729 18.0789L434.343 18.7097C435.982 19.7201 437.476 20.9485 438.783 22.3611L439.326 21.8564C439.102 21.6115 438.864 21.3666 438.582 21.1143H438.522C437.477 20.1373 436.339 19.2648 435.124 18.5093L434.729 18.0789ZM423.44 14.8431V15.5852C425.36 15.5926 427.27 15.8648 429.115 16.3942L429.323 15.652C428.23 15.3353 427.113 15.1094 425.984 14.9767H425.917H424.831C424.37 14.8431 423.909 14.8431 423.44 14.8431Z" fill="#BCFF87"/>
</g>
<path d="M69.7589 51.8467V97.615C69.7589 101.365 70.582 104.334 72.228 106.521C73.8741 108.708 76.5365 109.796 80.2154 109.786C83.8942 109.786 86.6211 108.698 88.3961 106.521C90.171 104.344 91.0511 101.375 91.0362 97.615V51.8467H116.441V97.615C116.441 105.338 114.832 111.934 111.614 117.401C108.537 122.734 103.932 127.026 98.3914 129.728C92.5527 132.538 86.139 133.953 79.6576 133.862C73.3017 133.984 67.011 132.565 61.3254 129.728C56.0192 126.993 51.6701 122.715 48.8536 117.46C45.8788 112.018 44.3914 105.403 44.3914 97.615V51.8467H69.7589Z" fill="#7CCC3D" stroke="black" stroke-linejoin="round"/>
<path d="M152.971 51.8467V133.06H127.455V51.8467H152.971Z" fill="#7CCC3D" stroke="black" stroke-linejoin="round"/>
<path d="M76.8018 42.4956V88.2565C76.8018 92.0069 77.6248 94.9755 79.2708 97.1623C80.9169 99.3492 83.5793 100.44 87.2582 100.435C90.937 100.435 93.6639 99.3443 95.4389 97.1623C97.2138 94.9804 98.0964 92.0118 98.0864 88.2565V42.4956H123.454V88.2565C123.454 95.9848 121.845 102.58 118.627 108.042C115.555 113.378 110.953 117.674 105.412 120.377C99.5726 123.184 93.1589 124.597 86.6781 124.503C80.3227 124.629 74.0318 123.213 68.3459 120.377C63.0364 117.643 58.6863 113.362 55.8741 108.102C52.8993 102.659 51.4119 96.0442 51.4119 88.2565V42.4956H76.8018Z" fill="white" stroke="black" stroke-linejoin="round"/>
<path d="M160.014 42.4956V123.702H134.498V42.4956H160.014Z" fill="white" stroke="black" stroke-linejoin="round"/>
<path d="M291.21 125.423C285.085 125.538 279.023 124.174 273.54 121.445C268.439 118.817 264.259 114.704 261.552 109.653C258.681 104.458 257.231 98.0083 257.231 90.5126V46.3398H281.215V90.5423C281.215 94.253 282.055 97.2216 283.699 99.4481C285.343 101.675 288.087 102.78 291.776 102.78C295.464 102.78 298.223 101.615 300.008 99.4481C301.793 97.281 302.663 94.253 302.663 90.5423V46.3398H326.648V90.5423C326.648 97.9638 325.086 104.376 321.999 109.616C319.039 114.746 314.615 118.88 309.29 121.49C303.648 124.175 297.46 125.522 291.21 125.423Z" fill="black"/>
<path d="M326.276 46.7109V90.4977C326.276 97.845 324.729 104.198 321.68 109.378C318.754 114.441 314.384 118.521 309.126 121.097C303.539 123.774 297.407 125.123 291.21 125.037C285.143 125.151 279.137 123.802 273.704 121.104C268.672 118.503 264.548 114.44 261.879 109.452C259.038 104.309 257.603 97.9266 257.603 90.4977V46.7109H280.843V90.4977C280.843 94.2901 281.706 97.3552 283.402 99.5965C285.097 101.838 287.96 103.077 291.776 103.077C295.591 103.077 298.469 101.912 300.298 99.6113C302.128 97.3107 303.035 94.2975 303.035 90.4977V46.7109H326.276ZM327.019 45.9688H302.291V90.4977C302.291 94.1392 301.434 97.0237 299.718 99.1512C298.003 101.279 295.355 102.34 291.776 102.335C288.191 102.335 285.598 101.274 283.996 99.1512C282.395 97.0286 281.592 94.159 281.587 90.5423V46.0133H256.859V90.5423C256.859 98.1369 258.314 104.569 261.224 109.838C263.963 114.957 268.196 119.124 273.362 121.787C278.899 124.544 285.023 125.922 291.21 125.802C297.521 125.894 303.767 124.519 309.453 121.787C314.846 119.154 319.327 114.972 322.319 109.779C325.458 104.455 327.024 98.0355 327.019 90.52V45.991V45.9688Z" fill="#BCFF87"/>
<path d="M388.419 124.659L373.657 103.797L361.386 124.659H333.966L359.809 84.2637L332.887 46.3398H361.408L375.613 66.415L387.438 46.3398H414.858L389.46 85.9558L416.94 124.659H388.419Z" fill="black"/>
<path d="M414.174 46.7109L389.282 85.5476L389.014 85.9706L389.304 86.3714L416.219 124.288H388.613L374.289 104.057L373.627 103.114L373.04 104.109L361.141 124.288H334.665L360.01 84.6718L360.278 84.2488L359.951 83.8629L333.594 46.7554H361.215L374.981 66.2072L375.643 67.1497L376.223 66.1552L387.646 46.7554H414.174M415.535 46.0133H387.222L375.568 65.7322L361.587 45.9688H332.166L359.363 84.2711L333.289 125.03H361.602L373.687 104.48L388.211 125.03H417.662L389.907 85.9483L415.535 45.9688V46.0133Z" fill="#BCFF87"/>
<path d="M44.3542 80.4195V51.8467L51.3971 42.4956V72.9386" fill="#7CCC3D"/>
<path d="M44.3542 80.4195V51.8467L51.3971 42.4956V72.9386" stroke="black" stroke-linecap="round" stroke-linejoin="round"/>
<path d="M91.0213 80.7312L90.8875 51.8467L97.9303 42.4956L98.0642 73.6807" fill="#7CCC3D"/>
<path d="M91.0213 80.7312L90.8875 51.8467L97.9303 42.4956L98.0642 73.6807" stroke="black" stroke-linecap="square" stroke-linejoin="round"/>
<path d="M127.455 81.2136V51.8467L134.498 42.4956V74.7717" fill="#7CCC3D"/>
<path d="M127.455 81.2136V51.8467L134.498 42.4956V74.7717" stroke="black" stroke-linecap="square" stroke-linejoin="round"/>
<path d="M127.455 133.053L134.498 123.702H160.014L152.971 133.053H127.455Z" fill="white" stroke="black" stroke-linejoin="round"/>
</g>
<defs>
<clipPath id="clip0_217_201">
<rect width="445" height="199" fill="white"/>
</clipPath>
</defs>
</svg>
