<svg width="420" height="321" viewBox="0 0 420 321" fill="none" xmlns="http://www.w3.org/2000/svg">
<g clip-path="url(#clip0_221_334)">
<path d="M102.323 203.804H92.7288V213.424H102.323V203.804Z" fill="#8E64E9" stroke="black" stroke-width="0.75" stroke-linecap="round" stroke-linejoin="round"/>
<path d="M98.1049 206.739H88.4102V216.359H98.1049V206.739Z" fill="white" stroke="black" stroke-width="0.75" stroke-linecap="round" stroke-linejoin="round"/>
<path d="M98.1047 206.817L102.323 203.905V213.446L98.1047 216.359V206.817Z" fill="white" stroke="black" stroke-width="0.75" stroke-linecap="round" stroke-linejoin="round"/>
<path d="M88.5103 206.739L92.7287 203.804H102.323L98.1048 206.817L88.5103 206.739Z" fill="white" stroke="black" stroke-width="0.75" stroke-linecap="round" stroke-linejoin="round"/>
<path d="M95.4111 79.4102V81.0841" stroke="white" stroke-width="0.75" stroke-linecap="round" stroke-linejoin="round"/>
<path d="M95.4111 84.3984V201.985" stroke="white" stroke-width="0.75" stroke-linecap="round" stroke-linejoin="round" stroke-dasharray="2.97 2.97"/>
<path d="M95.4111 203.637V205.311" stroke="white" stroke-width="0.75" stroke-linecap="round" stroke-linejoin="round"/>
<path d="M134.368 253.106H106.152V281.396H134.368V253.106Z" fill="#8E64E9"/>
<path d="M133.812 253.664V280.826H106.709V253.664H133.812ZM134.925 252.548H105.596V281.942H134.925V252.548Z" fill="black"/>
<path d="M121.479 262.079H92.9624V290.368H121.479V262.079Z" fill="#8E64E9"/>
<path d="M120.922 262.636V289.81H93.4966V262.636H120.9M122.013 261.521H92.3835V290.926H122.013V261.521Z" fill="black"/>
<path d="M122.035 261.744L134.925 252.838V282.02L122.035 290.925V261.744Z" fill="#8E64E9" stroke="black" stroke-linecap="round" stroke-linejoin="round"/>
<path d="M92.7175 261.521L105.596 252.548H134.925L122.035 261.744L92.7175 261.521Z" fill="#8E64E9" stroke="black" stroke-linecap="round" stroke-linejoin="round"/>
<path d="M128.48 271.876H349.388" stroke="white" stroke-linecap="round" stroke-linejoin="round"/>
<path d="M375.211 253.106H346.995V281.396H375.211V253.106Z" fill="#8E64E9"/>
<path d="M374.643 253.664V280.826H347.54V253.664H374.643ZM375.756 252.548H346.427V281.942H375.756V252.548Z" fill="black"/>
<path d="M362.322 262.079H333.805V290.368H362.322V262.079Z" fill="#8E64E9"/>
<path d="M361.743 262.636V289.81H334.362V262.636H361.743ZM362.856 261.521H333.249V290.926H362.856V261.521Z" fill="black"/>
<path d="M362.878 261.744L375.756 252.838V282.02L362.878 290.925V261.744Z" fill="#8E64E9" stroke="black" stroke-linecap="round" stroke-linejoin="round"/>
<path d="M333.549 261.521L346.438 252.548H375.756L362.878 261.744L333.549 261.521Z" fill="#8E64E9" stroke="black" stroke-linecap="round" stroke-linejoin="round"/>
<path d="M113.821 257.146V24.2383" stroke="white" stroke-linecap="round" stroke-linejoin="round"/>
<path d="M134.925 0.558105H105.596V29.9631H134.925V0.558105Z" fill="#8E64E9" stroke="black" stroke-linecap="round" stroke-linejoin="round"/>
<path d="M122.036 9.53027H92.406V38.9353H122.036V9.53027Z" fill="#8E64E9" stroke="black" stroke-linecap="round" stroke-linejoin="round"/>
<path d="M122.035 9.75334L134.925 0.848145V30.03L122.035 38.9352V9.75334Z" fill="#8E64E9" stroke="black" stroke-linecap="round" stroke-linejoin="round"/>
<path d="M92.7175 9.53026L105.596 0.558105H134.925L122.035 9.75345L92.7175 9.53026Z" fill="#8E64E9" stroke="black" stroke-linecap="round" stroke-linejoin="round"/>
<path d="M128.48 19.8975H349.388" stroke="white" stroke-linecap="round" stroke-linejoin="round"/>
<path d="M354.653 257.146V24.2383" stroke="white" stroke-linecap="round" stroke-linejoin="round"/>
<path d="M201.096 57.7056H244.928V177.77H321.517V216.281H201.096V57.7056Z" fill="#7CCC3D" stroke="black" stroke-linecap="round" stroke-linejoin="round"/>
<path d="M176.698 70.5835H220.53V190.636H297.186V229.147H176.698V70.5835Z" fill="#FEFFFF" stroke="black" stroke-linecap="round" stroke-linejoin="round"/>
<path d="M176.698 70.5724L201.096 57.7056H244.928L220.53 70.5724H176.698Z" fill="#7CCC3D" stroke="black" stroke-linecap="round" stroke-linejoin="round"/>
<path d="M297.13 190.636L321.517 177.77V216.281L297.13 229.147V190.636Z" fill="#7CCC3D" stroke="black" stroke-linecap="round" stroke-linejoin="round"/>
<path d="M199.849 286.651H174.037V312.53H199.849V286.651Z" fill="#10442B" stroke="black" stroke-linecap="round" stroke-linejoin="round"/>
<path d="M188.518 294.563H162.439V320.442H188.518V294.563Z" fill="#10442B" stroke="black" stroke-linecap="round" stroke-linejoin="round"/>
<path d="M188.518 294.753L199.849 286.908V312.597L188.518 320.442V294.753Z" fill="#10442B" stroke="black" stroke-linecap="round" stroke-linejoin="round"/>
<path d="M162.707 294.552L174.037 286.663H199.849L188.518 294.753L162.707 294.552Z" fill="#10442B" stroke="black" stroke-linecap="round" stroke-linejoin="round"/>
<path d="M226.162 286.651H200.35V312.53H226.162V286.651Z" fill="#1CCA7E" stroke="black" stroke-linecap="round" stroke-linejoin="round"/>
<path d="M214.82 294.563H188.741V320.442H214.82V294.563Z" fill="#1CCA7E" stroke="black" stroke-linecap="round" stroke-linejoin="round"/>
<path d="M214.831 294.753L226.162 286.908V312.597L214.831 320.442V294.753Z" fill="#1CCA7E" stroke="black" stroke-linecap="round" stroke-linejoin="round"/>
<path d="M189.019 294.552L200.35 286.663H226.162L214.831 294.753L189.019 294.552Z" fill="#1CCA7E" stroke="black" stroke-linecap="round" stroke-linejoin="round"/>
<path d="M252.24 286.651H226.429V312.53H252.24V286.651Z" fill="#FFF167" stroke="black" stroke-linecap="round" stroke-linejoin="round"/>
<path d="M240.91 294.563H214.831V320.442H240.91V294.563Z" fill="#FFF167" stroke="black" stroke-linecap="round" stroke-linejoin="round"/>
<path d="M240.91 294.753L252.252 286.908V312.597L240.91 320.442V294.753Z" fill="#FFF167" stroke="black" stroke-linecap="round" stroke-linejoin="round"/>
<path d="M215.098 294.552L226.429 286.663H252.252L240.91 294.753L215.098 294.552Z" fill="#FFF167" stroke="black" stroke-linecap="round" stroke-linejoin="round"/>
<path d="M278.553 286.651H252.741V312.53H278.553V286.651Z" fill="#FEFFFF" stroke="black" stroke-linecap="round" stroke-linejoin="round"/>
<path d="M267.211 294.563H241.132V320.442H267.211V294.563Z" fill="#FEFFFF" stroke="black" stroke-linecap="round" stroke-linejoin="round"/>
<path d="M267.222 294.753L278.553 286.908V312.597L267.222 320.442V294.753Z" fill="#FEFFFF" stroke="black" stroke-linecap="round" stroke-linejoin="round"/>
<path d="M241.411 294.552L252.742 286.663H278.553L267.222 294.753L241.411 294.552Z" fill="#FEFFFF" stroke="black" stroke-linecap="round" stroke-linejoin="round"/>
<path d="M375.356 1.26123H347.14V29.5503H375.356V1.26123Z" fill="#8E64E9"/>
<path d="M374.799 1.81906V29.0145H347.696V1.81906H374.799ZM375.912 0.703125H346.583V30.1305H375.912V0.703125Z" fill="black"/>
<path d="M362.466 10.2334H333.95V38.5225H362.466V10.2334Z" fill="#8E64E9"/>
<path d="M361.921 10.8025V37.9421H334.506V10.8025H361.921ZM363.034 9.68652H333.393V39.0581H363.034V9.68652Z" fill="black"/>
<path d="M363.034 9.90952L375.912 0.993164V30.175L363.034 39.0802V9.90952Z" fill="#8E64E9" stroke="black" stroke-linecap="round" stroke-linejoin="round"/>
<path d="M333.705 9.68644L346.583 0.703125H375.912L363.034 9.90963L333.705 9.68644Z" fill="#8E64E9" stroke="black" stroke-linecap="round" stroke-linejoin="round"/>
<path d="M311.989 67.6485L315.707 65.5952L315.796 81.9995L312.067 84.0529L311.989 67.6485Z" fill="#1CCA7E" stroke="black" stroke-width="0.5" stroke-linecap="round" stroke-linejoin="round"/>
<path d="M306.034 67.6261L309.763 65.5728L315.707 65.5951L311.989 67.6484L306.034 67.6261Z" fill="#1CCA7E" stroke="black" stroke-width="0.5" stroke-linecap="round" stroke-linejoin="round"/>
<path d="M322.485 84.086L326.203 82.0327L326.236 87.3L322.508 89.3533L322.485 84.086Z" fill="#1CCA7E" stroke="black" stroke-width="0.5" stroke-linecap="round" stroke-linejoin="round"/>
<path d="M312.067 84.0528L315.796 81.9995L326.203 82.033L322.485 84.0863L312.067 84.0528Z" fill="#1CCA7E" stroke="black" stroke-width="0.5" stroke-linecap="round" stroke-linejoin="round"/>
<path d="M311.989 67.6483L312.067 84.0526L322.485 84.0861L322.508 89.3533L306.146 89.2975L306.034 67.626L311.989 67.6483Z" fill="#FFF167" stroke="black" stroke-width="0.5" stroke-linecap="round" stroke-linejoin="round"/>
<path d="M341.864 81.9102C341.523 82.0569 341.169 82.169 340.806 82.245C340.418 82.3186 340.022 82.3523 339.627 82.3455H339.248H338.959H338.636H338.413L338.09 82.2562H337.868C337.701 82.1892 337.534 82.1334 337.378 82.0553C337.077 81.9108 336.791 81.739 336.521 81.542C336.197 81.3152 335.898 81.0532 335.631 80.7608C335.149 80.2129 334.772 79.5813 334.518 78.8972C334.393 78.5675 334.296 78.2278 334.228 77.8817C334.228 77.8147 334.228 77.7478 334.228 77.6808C334.166 77.3459 334.132 77.0061 334.128 76.6653V76.6095C334.131 76.2585 334.157 75.9081 334.206 75.5605V75.382C334.268 75.0416 334.353 74.706 334.462 74.3777C334.577 74.0903 334.711 73.8108 334.863 73.5407C334.863 73.4737 334.941 73.4068 334.974 73.3287C335.152 73.0481 335.353 72.7831 335.575 72.5363C335.958 72.0908 336.413 71.7135 336.922 71.4204L333.204 73.4737C332.69 73.7636 332.231 74.1413 331.846 74.5897C331.647 74.8027 331.468 75.0344 331.312 75.2816L331.256 75.382L331.134 75.594C331.067 75.7168 330.989 75.8395 330.934 75.9623C330.878 76.085 330.8 76.2747 330.744 76.431L330.678 76.5984C330.622 76.7992 330.566 77.0113 330.522 77.2121C330.477 77.413 330.522 77.3572 330.522 77.4242C330.522 77.4911 330.522 77.5469 330.522 77.6027C330.522 77.6585 330.522 77.7701 330.522 77.8482C330.522 77.9263 330.522 78.3058 330.522 78.5513V78.7187C330.522 78.9195 330.522 79.1204 330.522 79.3213C330.522 79.5221 330.522 79.6002 330.589 79.7342V79.9239C330.589 79.9239 330.589 80.002 330.589 80.0466C330.653 80.3303 330.735 80.6098 330.833 80.8836V80.9505C331.08 81.6349 331.458 82.2642 331.946 82.803C332.208 83.1042 332.508 83.3704 332.837 83.5953H332.904C333.127 83.7499 333.361 83.8879 333.605 84.0082H333.683C333.834 84.0845 333.991 84.1516 334.15 84.2091L334.362 84.276L334.64 84.3541H334.863H335.13H335.197H335.475H335.72H335.853C336.027 84.3655 336.202 84.3655 336.376 84.3541C336.597 84.3408 336.817 84.311 337.033 84.2649C337.263 84.2135 337.489 84.1502 337.712 84.0752L338.079 83.9189L338.447 83.7404L342.164 81.6982L341.864 81.9102Z" fill="#1CCA7E" stroke="black" stroke-width="0.5" stroke-linecap="round" stroke-linejoin="round"/>
<path d="M351.158 76.6875V76.4866C351.158 76.1295 351.158 75.7724 351.102 75.3707C351.066 74.9658 351.007 74.5634 350.924 74.1655C350.924 74.1655 350.924 74.065 350.924 74.0204C350.834 73.6422 350.723 73.2696 350.59 72.9045C350.59 72.8375 350.59 72.7706 350.534 72.7148C350.479 72.659 350.39 72.3577 350.323 72.1903C349.749 70.8528 348.921 69.64 347.885 68.6193C347.64 68.3738 347.384 68.1506 347.117 67.9274L346.85 67.7265L346.394 67.3806H346.316C345.905 67.1052 345.477 66.8555 345.036 66.6329L344.925 66.5659L344.223 66.2535C344.024 66.1638 343.819 66.0856 343.611 66.0191L343.389 65.9522L342.765 65.7736L342.442 65.6732H342.231L341.608 65.5616C341.485 65.5616 341.374 65.5616 341.251 65.4946H341.051H340.316H339.938H339.615C339.237 65.4946 338.881 65.4946 338.502 65.4946H338.369C337.931 65.5252 337.496 65.5849 337.066 65.6732H337.011H336.844C336.432 65.7625 336.031 65.874 335.642 65.9968L335.441 66.0526L334.929 66.2535C334.505 66.4236 334.092 66.6211 333.694 66.8449L329.965 68.8871C330.366 68.6751 330.766 68.4853 331.201 68.3068C331.434 68.2064 331.679 68.1282 331.913 68.0501C332.311 67.9164 332.716 67.8047 333.126 67.7154H333.338C333.772 67.6295 334.21 67.5662 334.651 67.5256C335.029 67.5256 335.408 67.5256 335.764 67.5256C336.12 67.5256 336.243 67.5256 336.476 67.5256L337.2 67.5814L337.768 67.6596L338.38 67.7823C338.564 67.8151 338.746 67.8598 338.925 67.9162C339.132 67.9654 339.336 68.025 339.537 68.0948C339.821 68.1785 340.1 68.2791 340.372 68.3961C340.65 68.5077 340.918 68.6416 341.185 68.7755C341.631 68.9963 342.062 69.246 342.476 69.5232L342.999 69.9138L343.277 70.1146C343.544 70.3267 343.8 70.561 344.045 70.7953C345.075 71.8227 345.899 73.0388 346.472 74.3775C346.572 74.6007 346.65 74.8462 346.739 75.0805C346.874 75.464 346.985 75.8553 347.073 76.2523C347.096 76.3101 347.115 76.3699 347.128 76.4308C347.206 76.8326 347.273 77.2343 347.318 77.6361C347.362 78.0378 347.373 78.3726 347.373 78.752C347.373 79.1314 347.373 79.1649 347.373 79.3769C347.373 79.5889 347.373 79.8345 347.373 80.0465C347.373 80.2585 347.318 80.4259 347.295 80.6156C347.273 80.8053 347.24 80.9839 347.206 81.1624C347.173 81.341 347.117 81.5195 347.073 81.6869C347.033 81.8797 346.981 82.0698 346.917 82.256C346.822 82.5742 346.711 82.8871 346.583 83.1934C346.505 83.3831 346.405 83.5728 346.305 83.7626C346.141 84.1067 345.959 84.4419 345.759 84.7669L345.603 85.0236C345.459 85.2356 345.303 85.4365 345.147 85.6373L344.925 85.9386C344.687 86.2308 344.434 86.5102 344.168 86.7756C343.421 87.4158 342.594 87.956 341.708 88.3825L345.437 86.3292C346.331 85.8368 347.155 85.2249 347.885 84.5102C348.156 84.2449 348.412 83.9655 348.653 83.6733L348.876 83.372C349.032 83.1711 349.188 82.9702 349.321 82.7582C349.346 82.7371 349.365 82.7103 349.377 82.6801C349.414 82.623 349.448 82.5634 349.477 82.5015C349.682 82.1819 349.868 81.8503 350.033 81.5084C350.071 81.4475 350.105 81.3841 350.134 81.3187C350.2 81.1847 350.256 81.062 350.312 80.9281C350.367 80.7942 350.523 80.3924 350.612 80.1134V80.0018C350.668 79.8121 350.712 79.6113 350.768 79.4216C350.824 79.2318 350.846 79.1537 350.879 79.0198C350.913 78.8859 350.879 78.9417 350.879 78.9082C350.921 78.7243 350.951 78.5379 350.968 78.3503C350.968 78.2052 350.968 78.0601 351.046 77.9039C351.041 77.8669 351.041 77.8293 351.046 77.7923C351.046 77.5691 351.046 77.3459 351.046 77.1227L351.158 76.6875Z" fill="#1CCA7E" stroke="black" stroke-width="0.5" stroke-linecap="round" stroke-linejoin="round"/>
<path d="M346.528 74.1768C347.425 76.2403 347.678 78.5276 347.255 80.7383C346.832 82.949 345.752 84.9797 344.157 86.5637C343.094 87.5933 341.843 88.4078 340.473 88.963C337.518 90.146 334.222 90.146 331.268 88.963C329.898 88.4078 328.65 87.5889 327.594 86.5526C326.008 84.9658 324.927 82.9432 324.487 80.7404C324.047 78.5376 324.269 76.2534 325.123 74.1768C325.681 72.8326 326.503 71.6145 327.539 70.5946C328.6 69.5627 329.851 68.7478 331.223 68.1954C334.178 67.0124 337.473 67.0124 340.428 68.1954C341.79 68.7369 343.03 69.5446 344.077 70.5715C345.124 71.5984 345.957 72.824 346.528 74.1768ZM341.341 78.6406V78.5736C341.346 77.8102 341.206 77.0527 340.929 76.3417C340.678 75.6592 340.3 75.0306 339.816 74.4893C339.32 73.9441 338.718 73.5072 338.046 73.2059C337.352 72.8714 336.59 72.7033 335.82 72.7149C335.055 72.7025 334.295 72.8547 333.594 73.1613C332.948 73.464 332.366 73.8883 331.88 74.4112C331.391 74.9451 331.013 75.5709 330.767 76.2525C330.508 76.9674 330.384 77.724 330.399 78.4843C330.394 79.2478 330.534 80.0053 330.811 80.7162C331.058 81.4006 331.436 82.0299 331.924 82.5687C332.405 83.1188 332.997 83.56 333.661 83.8632C334.357 84.1899 335.118 84.3576 335.887 84.3542C336.632 84.3692 337.372 84.2247 338.057 83.9303C338.742 83.6358 339.357 83.1983 339.86 82.6468C340.348 82.1162 340.726 81.4942 340.973 80.8166C341.244 80.1043 341.376 79.3468 341.363 78.5848" fill="#FFF167"/>
<path d="M341.341 78.6406V78.5736C341.346 77.8102 341.206 77.0527 340.929 76.3417C340.678 75.6592 340.3 75.0306 339.816 74.4893C339.32 73.9441 338.718 73.5072 338.046 73.2059C337.352 72.8714 336.59 72.7033 335.82 72.7149C335.055 72.7025 334.295 72.8547 333.594 73.1613C332.948 73.464 332.366 73.8883 331.88 74.4112C331.391 74.9451 331.013 75.5709 330.767 76.2525C330.508 76.9674 330.384 77.724 330.399 78.4843C330.394 79.2478 330.534 80.0053 330.811 80.7162C331.058 81.4006 331.436 82.0299 331.924 82.5687C332.405 83.1188 332.997 83.56 333.661 83.8632C334.357 84.1899 335.118 84.3576 335.887 84.3542C336.632 84.3692 337.372 84.2247 338.057 83.9303C338.742 83.6358 339.357 83.1983 339.86 82.6468C340.348 82.1162 340.726 81.4942 340.973 80.8166C341.244 80.1043 341.376 79.3468 341.363 78.5848M346.528 74.1768C347.425 76.2404 347.678 78.5276 347.255 80.7383C346.832 82.949 345.752 84.9797 344.157 86.5637C343.094 87.5933 341.843 88.4078 340.473 88.963C337.518 90.146 334.222 90.146 331.268 88.963C329.898 88.4078 328.65 87.5889 327.594 86.5526C326.008 84.9658 324.927 82.9432 324.487 80.7404C324.047 78.5376 324.269 76.2534 325.123 74.1768C325.681 72.8326 326.503 71.6145 327.539 70.5946C328.6 69.5627 329.851 68.7478 331.223 68.1954C334.178 67.0124 337.473 67.0124 340.428 68.1954C341.79 68.7369 343.03 69.5446 344.077 70.5715C345.124 71.5984 345.957 72.824 346.528 74.1768Z" stroke="black" stroke-width="0.5" stroke-linecap="round" stroke-linejoin="round"/>
<path d="M356.511 82.9034L360.229 80.8501L360.274 87.423L356.545 89.4652L356.511 82.9034Z" fill="#1CCA7E" stroke="black" stroke-width="0.5" stroke-linecap="round" stroke-linejoin="round"/>
<path d="M356.456 72.9938L360.185 70.9404L360.207 76.1407L356.489 78.194L356.456 72.9938Z" fill="#1CCA7E" stroke="black" stroke-width="0.5" stroke-linecap="round" stroke-linejoin="round"/>
<path d="M365.193 81.9435L368.911 79.8901L374.087 87.4674L370.358 89.5207L365.193 81.9435Z" fill="#1CCA7E" stroke="black" stroke-width="0.5" stroke-linecap="round" stroke-linejoin="round"/>
<path d="M365.271 76.0402H365.216C364.849 76.1128 364.476 76.1464 364.102 76.1407H360.173L356.456 78.194H360.908L361.465 78.1159H361.542L361.965 78.0043L362.388 77.8146L366.106 75.7612C365.842 75.8938 365.561 75.9877 365.271 76.0402Z" fill="#1CCA7E" stroke="black" stroke-width="0.5" stroke-linecap="round" stroke-linejoin="round"/>
<path d="M373.263 72.3128C373.263 72.1566 373.263 72.0115 373.196 71.8664C373.129 71.7214 373.196 71.6656 373.196 71.5763V71.3643C373.125 71.0336 373.028 70.709 372.907 70.3934C372.751 70.003 372.558 69.6292 372.328 69.2775C372.091 68.9168 371.815 68.5837 371.504 68.2843C371.237 68.0098 370.942 67.763 370.625 67.5477L370.525 67.4585L370.414 67.3915C370.195 67.2481 369.968 67.1177 369.735 67.0009L369.601 66.9228C369.323 66.7889 369.033 66.6773 368.733 66.5657L368.488 66.4876C368.265 66.4207 368.043 66.3425 367.809 66.2867H367.753H367.475C367.23 66.2867 366.974 66.1863 366.707 66.1528H366.585H366.34C365.995 66.1528 365.639 66.0859 365.227 66.0747H364.982H364.537H354.374L350.646 68.1169H360.819C361.053 68.1169 361.275 68.1169 361.498 68.1169C361.721 68.1169 362.233 68.1169 362.611 68.195H362.978C363.234 68.195 363.49 68.2731 363.735 68.3289L364.069 68.3959L364.737 68.5856C364.837 68.5856 364.949 68.5856 365.049 68.686C365.342 68.7867 365.628 68.906 365.906 69.0431L366.073 69.1324C366.308 69.2505 366.535 69.3847 366.752 69.5341L366.974 69.6792C367.286 69.9012 367.577 70.1515 367.842 70.4269C368.156 70.7233 368.433 71.0568 368.666 71.4201C368.897 71.7709 369.091 72.1449 369.245 72.536C369.393 72.9305 369.505 73.3376 369.579 73.7524C369.584 73.8527 369.584 73.9533 369.579 74.0537C369.65 74.489 369.688 74.9293 369.69 75.3705C369.691 75.7695 369.669 76.1682 369.623 76.5645C369.629 76.6202 369.629 76.6763 369.623 76.7319C369.623 77.0221 369.523 77.3122 369.456 77.5912L369.39 77.8032C369.307 78.1022 369.199 78.3934 369.067 78.6737C369.041 78.7281 369.012 78.7803 368.978 78.8299C368.851 79.0914 368.702 79.3416 368.533 79.5776C368.069 80.2325 367.492 80.7994 366.83 81.2515C366.604 81.4095 366.37 81.5548 366.128 81.6867L369.857 79.6445C370.803 79.1271 371.624 78.407 372.261 77.5354L372.417 77.3011C372.524 77.1324 372.621 76.9573 372.707 76.7766L372.796 76.6315C372.898 76.4216 372.987 76.2054 373.063 75.9842C373.056 75.9249 373.056 75.865 373.063 75.8057C373.067 75.7314 373.067 75.6569 373.063 75.5825C373.094 75.4873 373.12 75.3904 373.141 75.2924C373.141 75.1027 373.207 74.9129 373.241 74.7232C373.235 74.6676 373.235 74.6115 373.241 74.5558C373.236 74.5375 373.236 74.5184 373.241 74.5001C373.241 74.1987 373.241 73.8751 373.296 73.5292V73.373C373.308 72.8931 373.285 72.5918 373.263 72.3128Z" fill="#1CCA7E" stroke="black" stroke-width="0.5" stroke-linecap="round" stroke-linejoin="round"/>
<path d="M365.193 81.9436L370.358 89.5209H363.479L359.116 82.9368H356.511V89.5097H350.545L350.434 67.827H360.607C362.036 67.7995 363.46 68.0185 364.815 68.4743C365.871 68.8235 366.829 69.4203 367.609 70.2151C368.713 71.4691 369.383 73.0474 369.52 74.7146C369.656 76.3819 369.251 78.0486 368.365 79.4663C367.558 80.5714 366.46 81.4292 365.193 81.9436ZM363.59 75.6497V75.5828C363.616 75.2141 363.551 74.8446 363.399 74.5077C363.248 74.1707 363.015 73.8768 362.722 73.6522C362.023 73.1923 361.198 72.9658 360.363 73.005H356.456V78.2052H360.385C361.227 78.2649 362.063 78.0238 362.744 77.5245C363.016 77.2966 363.23 77.0086 363.371 76.6832C363.512 76.3578 363.576 76.004 363.557 75.6497" fill="#FFF167"/>
<path d="M363.59 75.6497V75.5828C363.616 75.2141 363.551 74.8446 363.399 74.5077C363.248 74.1707 363.015 73.8768 362.722 73.6522C362.023 73.1923 361.198 72.9658 360.363 73.005H356.456V78.2052H360.385C361.227 78.2649 362.063 78.0238 362.744 77.5245C363.016 77.2966 363.23 77.0086 363.371 76.6832C363.512 76.3578 363.576 76.004 363.557 75.6497M365.193 81.9436L370.358 89.5209H363.479L359.116 82.9368H356.511V89.5097H350.545L350.434 67.827H360.607C362.036 67.7995 363.46 68.0185 364.815 68.4743C365.871 68.8235 366.829 69.4203 367.609 70.2151C368.713 71.4691 369.383 73.0474 369.52 74.7146C369.656 76.3819 369.251 78.0486 368.365 79.4663C367.558 80.5714 366.46 81.4292 365.193 81.9436Z" stroke="black" stroke-width="0.5" stroke-linecap="round" stroke-linejoin="round"/>
<path d="M378.483 80.9948L382.212 78.9526L382.234 82.3786L378.505 84.4319L378.483 80.9948Z" fill="#1CCA7E" stroke="black" stroke-width="0.5" stroke-linecap="round" stroke-linejoin="round"/>
<path d="M378.45 72.9825L382.167 70.9292L382.19 74.2101L378.461 76.2634L378.45 72.9825Z" fill="#1CCA7E" stroke="black" stroke-width="0.5" stroke-linecap="round" stroke-linejoin="round"/>
<path d="M378.505 84.4322L382.234 82.3789L393.765 82.4235L390.048 84.4657L378.505 84.4322Z" fill="#1CCA7E" stroke="black" stroke-width="0.5" stroke-linecap="round" stroke-linejoin="round"/>
<path d="M390.048 84.4655L393.765 82.4233L393.799 87.5343L390.07 89.5877L390.048 84.4655Z" fill="#1CCA7E" stroke="black" stroke-width="0.5" stroke-linecap="round" stroke-linejoin="round"/>
<path d="M378.461 76.2633L382.19 74.21L392.508 74.2434L388.779 76.2968L378.461 76.2633Z" fill="#1CCA7E" stroke="black" stroke-width="0.5" stroke-linecap="round" stroke-linejoin="round"/>
<path d="M388.779 76.297L392.508 74.2437L392.53 78.9864L388.801 81.0397L388.779 76.297Z" fill="#1CCA7E" stroke="black" stroke-width="0.5" stroke-linecap="round" stroke-linejoin="round"/>
<path d="M389.803 67.905L393.532 65.8628L393.554 70.9738L389.836 73.0271L389.803 67.905Z" fill="#1CCA7E" stroke="black" stroke-width="0.5" stroke-linecap="round" stroke-linejoin="round"/>
<path d="M372.551 67.8492L376.268 65.7959L393.532 65.8629L389.803 67.905L372.551 67.8492Z" fill="#1CCA7E" stroke="black" stroke-width="0.5" stroke-linecap="round" stroke-linejoin="round"/>
<path d="M398.952 77.2232L402.67 75.1699L402.737 87.568L399.019 89.6213L398.952 77.2232Z" fill="#1CCA7E" stroke="black" stroke-width="0.5" stroke-linecap="round" stroke-linejoin="round"/>
<path d="M393.031 67.9162L396.748 65.874L403.059 65.8963L399.331 67.9385L393.031 67.9162Z" fill="#1CCA7E" stroke="black" stroke-width="0.5" stroke-linecap="round" stroke-linejoin="round"/>
<path d="M399.331 67.9387L403.059 65.8965L408.224 74.2995L404.506 76.3528L399.331 67.9387Z" fill="#1CCA7E" stroke="black" stroke-width="0.5" stroke-linecap="round" stroke-linejoin="round"/>
<path d="M410.005 77.2009L413.722 75.1587L408.291 83.6175L404.562 85.6597L410.005 77.2009Z" fill="#1CCA7E" stroke="black" stroke-width="0.5" stroke-linecap="round" stroke-linejoin="round"/>
<path d="M415.882 67.9942L419.611 65.9409L419.722 87.6236L415.993 89.677L415.882 67.9942Z" fill="#1CCA7E" stroke="black" stroke-width="0.5" stroke-linecap="round" stroke-linejoin="round"/>
<path d="M409.582 67.9719L413.311 65.9297L419.611 65.9408L415.882 67.9942L409.582 67.9719Z" fill="#1CCA7E" stroke="black" stroke-width="0.5" stroke-linecap="round" stroke-linejoin="round"/>
<path d="M415.882 67.9941L415.993 89.6768L410.072 89.6545L410.005 77.2006L404.562 85.6595H404.44L398.952 77.2229L399.019 89.621L393.142 89.5987L393.031 67.916L399.331 67.9383L404.506 76.3525L409.582 67.9718L415.882 67.9941Z" fill="#FFF167" stroke="black" stroke-width="0.5" stroke-linecap="round" stroke-linejoin="round"/>
<path d="M312.29 94.5538L316.007 92.5005L316.119 114.172L312.401 116.225L312.29 94.5538Z" fill="#1CCA7E" stroke="black" stroke-width="0.5" stroke-linecap="round" stroke-linejoin="round"/>
<path d="M306.302 94.5314L310.019 92.478L316.007 92.5003L312.29 94.5537L306.302 94.5314Z" fill="#1CCA7E" stroke="black" stroke-width="0.5" stroke-linecap="round" stroke-linejoin="round"/>
<path d="M312.29 94.5536L312.401 116.225L306.413 116.203L306.302 94.5312L312.29 94.5536Z" fill="#FFF167" stroke="black" stroke-width="0.5" stroke-linecap="round" stroke-linejoin="round"/>
<path d="M322.252 110.065L325.98 108.023L326.014 114.205L322.285 116.259L322.252 110.065Z" fill="#1CCA7E" stroke="black" stroke-width="0.5" stroke-linecap="round" stroke-linejoin="round"/>
<path d="M322.207 99.5978L325.925 97.5557L325.958 103.314L322.229 105.356L322.207 99.5978Z" fill="#1CCA7E" stroke="black" stroke-width="0.5" stroke-linecap="round" stroke-linejoin="round"/>
<path d="M333.761 99.0284C334.204 100.089 334.432 101.227 334.432 102.376C334.432 103.526 334.204 104.664 333.761 105.724C333.326 106.677 332.674 107.514 331.857 108.168C330.989 108.848 329.993 109.349 328.93 109.641C327.727 109.977 326.483 110.139 325.235 110.121H322.285V116.314H316.33L316.219 94.6427H325.424C326.671 94.63 327.912 94.803 329.108 95.1561C330.144 95.4661 331.108 95.9781 331.946 96.6626C332.721 97.3043 333.341 98.113 333.761 99.0284ZM328.44 102.544C328.467 102.14 328.398 101.735 328.239 101.363C328.081 100.991 327.837 100.661 327.528 100.401C326.796 99.87 325.903 99.6097 325.001 99.6645H322.196V105.423H325.012C325.905 105.479 326.789 105.214 327.505 104.675C327.803 104.421 328.039 104.102 328.193 103.742C328.347 103.382 328.417 102.991 328.396 102.599" fill="#FFF167"/>
<path d="M328.44 102.544C328.467 102.14 328.398 101.735 328.239 101.363C328.081 100.991 327.837 100.661 327.528 100.401C326.796 99.87 325.903 99.6097 325.001 99.6645H322.196V105.423H325.012C325.905 105.479 326.789 105.214 327.505 104.675C327.803 104.421 328.039 104.102 328.193 103.742C328.347 103.382 328.417 102.991 328.396 102.599M333.761 99.0284C334.204 100.089 334.432 101.227 334.432 102.376C334.432 103.526 334.204 104.664 333.761 105.724C333.326 106.677 332.674 107.514 331.857 108.168C330.989 108.848 329.993 109.349 328.93 109.641C327.727 109.977 326.483 110.139 325.235 110.121H322.285V116.314H316.33L316.219 94.6427H325.424C326.671 94.63 327.912 94.803 329.108 95.1561C330.144 95.4661 331.108 95.9781 331.946 96.6626C332.721 97.3043 333.341 98.113 333.761 99.0284Z" stroke="black" stroke-width="0.5" stroke-linecap="round" stroke-linejoin="round"/>
<path d="M322.24 105.356H325.58C325.771 105.339 325.96 105.309 326.147 105.267H326.236L326.67 105.155C326.75 105.126 326.828 105.093 326.904 105.055C326.972 105.017 327.043 104.983 327.116 104.954C327.422 104.794 327.689 104.57 327.901 104.296C328.112 104.023 328.262 103.707 328.34 103.37H325.947L322.24 105.356Z" fill="#1CCA7E" stroke="black" stroke-width="0.5" stroke-linecap="round" stroke-linejoin="round"/>
<path d="M338.079 99.3185C338.054 99.0184 338.009 98.7202 337.946 98.4258C337.946 98.4258 337.946 98.3253 337.946 98.2696C337.89 98.024 337.823 97.7897 337.745 97.5554C337.745 97.5554 337.745 97.4661 337.745 97.4214C337.699 97.2837 337.643 97.1495 337.578 97.0197C337.168 96.0893 336.551 95.265 335.775 94.6093C335.607 94.463 335.428 94.3288 335.241 94.2075C334.966 94.029 334.677 93.8616 334.373 93.7054H334.295L334.117 93.6272L333.46 93.3483C333.402 93.3328 333.346 93.3103 333.293 93.2813L332.803 93.0693C332.57 92.9912 332.336 92.9354 332.091 92.8796H332.035C331.668 92.7929 331.297 92.7259 330.922 92.6787H330.7C330.355 92.6787 329.998 92.6117 329.587 92.6006H329.397H329.03H319.814L316.096 94.6539H325.301H325.858C326.225 94.6539 326.581 94.6539 326.971 94.7432H327.194C327.568 94.7867 327.939 94.85 328.307 94.9329L329.075 95.1338L329.564 95.3123L330.221 95.5913L330.477 95.7141C330.781 95.8549 331.072 96.023 331.345 96.2162C331.544 96.3449 331.733 96.4866 331.913 96.6403C332.693 97.2948 333.313 98.1192 333.727 99.0507C333.805 99.2181 333.861 99.4078 333.928 99.5864C334.006 99.8172 334.073 100.052 334.128 100.289C334.132 100.36 334.132 100.431 334.128 100.501C334.194 100.8 334.242 101.101 334.273 101.405C334.273 101.684 334.273 101.974 334.273 102.265C334.273 102.555 334.273 102.611 334.273 102.778V103.336C334.273 103.514 334.25 103.682 334.206 103.838C334.206 103.961 334.206 104.072 334.15 104.184C334.095 104.296 334.05 104.586 333.994 104.775L333.939 104.965C333.859 105.217 333.762 105.463 333.649 105.702C333.527 105.974 333.381 106.235 333.215 106.483L333.082 106.684C332.937 106.896 332.781 107.085 332.625 107.275C332.469 107.465 332.503 107.42 332.447 107.487C332.23 107.724 331.996 107.944 331.746 108.146C331.397 108.417 331.025 108.656 330.633 108.86L334.362 106.818C334.751 106.606 335.124 106.364 335.475 106.092C335.721 105.89 335.951 105.67 336.165 105.434L336.354 105.233C336.51 105.043 336.666 104.842 336.799 104.642C336.836 104.6 336.87 104.555 336.899 104.508C336.903 104.482 336.903 104.455 336.899 104.43C337.064 104.181 337.209 103.919 337.334 103.648C337.434 103.414 337.523 103.18 337.612 102.945C337.617 102.886 337.617 102.826 337.612 102.767C337.672 102.595 337.72 102.42 337.757 102.242C337.763 102.217 337.763 102.19 337.757 102.164C337.757 102.064 337.756 101.941 337.812 101.829C337.868 101.718 337.868 101.573 337.879 101.428V101.327C337.89 101.138 337.89 100.948 337.879 100.758C337.885 100.647 337.885 100.535 337.879 100.423V100.256C337.966 99.9482 338.033 99.635 338.079 99.3185Z" fill="#1CCA7E" stroke="black" stroke-width="0.5" stroke-linecap="round" stroke-linejoin="round"/>
<path d="M350.79 109.44C350.678 109.482 350.563 109.515 350.445 109.541H350.379L349.878 109.608H349.354H348.831H348.208H347.807L347.229 109.507L346.839 109.418L346.16 109.139L345.826 109.027C345.47 108.897 345.12 108.748 344.78 108.581C344.555 108.477 344.336 108.361 344.123 108.235L343.978 108.157C343.711 108.001 343.444 107.833 343.177 107.655C342.899 107.454 342.609 107.242 342.331 107.019L338.614 109.072C338.892 109.295 339.17 109.507 339.459 109.697C339.715 109.875 339.971 110.032 340.227 110.188L340.372 110.266L340.984 110.59C341.329 110.757 341.686 110.902 342.042 111.036H342.131L342.365 111.103C342.58 111.178 342.799 111.241 343.021 111.293H343.188H343.4L343.99 111.404C344.064 111.41 344.138 111.41 344.212 111.404H344.379H345.014H345.27H346.049C346.217 111.394 346.385 111.372 346.55 111.337H346.616C346.734 111.312 346.849 111.278 346.961 111.237C347.076 111.197 347.188 111.149 347.295 111.092L351.013 109.038C350.96 109.183 350.884 109.318 350.79 109.44Z" fill="#1CCA7E" stroke="black" stroke-width="0.5" stroke-linecap="round" stroke-linejoin="round"/>
<path d="M357.814 107.722V107.577C357.825 107.35 357.825 107.123 357.814 106.896C357.795 106.663 357.758 106.431 357.703 106.204C357.656 105.973 357.593 105.745 357.513 105.523C357.45 105.358 357.376 105.198 357.291 105.043C356.915 104.298 356.365 103.655 355.688 103.169L355.454 103.001C355.287 102.89 355.087 102.789 354.909 102.689C354.731 102.588 354.597 102.488 354.419 102.399H354.319C353.948 102.22 353.558 102.053 353.15 101.897L352.961 101.83C352.527 101.685 352.082 101.539 351.603 101.406L351.347 101.339C350.98 101.227 350.612 101.127 350.234 101.037L349.844 100.948L349.043 100.758L348.765 100.68C348.509 100.619 348.256 100.544 348.008 100.457L347.362 100.234C347.192 100.175 347.029 100.1 346.873 100.011C346.767 99.9515 346.667 99.8843 346.572 99.8097C346.549 99.781 346.523 99.7548 346.494 99.7316C346.415 99.6622 346.344 99.5835 346.283 99.4973C346.231 99.4096 346.189 99.316 346.16 99.2183C346.149 99.1107 346.149 99.0022 346.16 98.8947V98.8277C346.149 98.7351 346.149 98.6414 346.16 98.5487C346.18 98.4672 346.21 98.3885 346.249 98.3144C346.268 98.2784 346.29 98.2447 346.316 98.214C346.397 98.086 346.503 97.9759 346.628 97.8903L346.806 97.7676L343.077 99.8209L342.899 99.9325C342.784 100.029 342.679 100.137 342.587 100.256C342.583 100.293 342.583 100.331 342.587 100.368C342.587 100.368 342.587 100.368 342.587 100.435C342.587 100.435 342.587 100.513 342.587 100.546V100.881C342.592 100.933 342.592 100.985 342.587 101.037C342.581 101.067 342.581 101.097 342.587 101.127C342.612 101.196 342.642 101.263 342.676 101.327C342.741 101.411 342.811 101.489 342.888 101.562L342.977 101.629C343.009 101.664 343.046 101.695 343.088 101.718L343.266 101.83L343.433 101.919L343.756 102.064L344.146 102.209L344.402 102.298C344.624 102.376 344.88 102.443 345.158 102.521L345.448 102.588L345.893 102.711L346.238 102.789C346.772 102.901 347.273 103.035 347.763 103.169L348.03 103.236C348.564 103.403 349.087 103.559 349.566 103.738C350 103.897 350.424 104.084 350.835 104.296C351.013 104.385 351.169 104.486 351.325 104.575C351.599 104.72 351.863 104.884 352.115 105.066C352.793 105.552 353.343 106.195 353.718 106.941C353.796 107.108 353.874 107.287 353.94 107.465C354.02 107.684 354.087 107.908 354.141 108.135C354.187 108.367 354.22 108.602 354.241 108.838C354.253 109.072 354.253 109.307 354.241 109.541C354.241 109.708 354.241 109.853 354.241 110.009C354.241 110.166 354.241 110.322 354.241 110.467C354.241 110.612 354.241 110.802 354.163 110.958C354.168 111.04 354.168 111.122 354.163 111.203C354.121 111.435 354.061 111.662 353.985 111.884C353.973 111.935 353.954 111.984 353.929 112.029C353.869 112.213 353.794 112.392 353.707 112.565C353.596 112.8 353.469 113.027 353.328 113.246C353.328 113.246 353.261 113.335 353.228 113.391C353.089 113.592 352.941 113.785 352.783 113.971L352.616 114.15C352.414 114.375 352.194 114.584 351.959 114.774C351.643 115.023 351.308 115.247 350.957 115.444L354.675 113.391C355.031 113.196 355.37 112.972 355.688 112.721C355.917 112.528 356.137 112.323 356.345 112.107C356.4 112.047 356.452 111.984 356.5 111.918C356.665 111.734 356.817 111.54 356.957 111.337L357.035 111.237C357.18 111.022 357.307 110.794 357.413 110.556V110.489C357.48 110.344 357.536 110.188 357.591 110.032L357.658 109.876C357.725 109.675 357.78 109.463 357.836 109.239C357.836 109.161 357.836 109.083 357.836 108.994L357.903 108.581V108.503V108.057C357.803 107.945 357.814 107.845 357.814 107.722Z" fill="#1CCA7E" stroke="black" stroke-width="0.5" stroke-linecap="round" stroke-linejoin="round"/>
<path d="M353.45 97.2208L357.168 95.1675L354.218 99.4192L350.49 101.461L353.45 97.2208Z" fill="#1CCA7E" stroke="black" stroke-width="0.5" stroke-linecap="round" stroke-linejoin="round"/>
<path d="M351.191 95.759C351.668 95.9998 352.13 96.2719 352.571 96.5737C352.872 96.7745 353.161 96.9866 353.451 97.2209L357.168 95.1676C356.901 94.9444 356.612 94.7324 356.322 94.5315C355.881 94.2317 355.42 93.9632 354.942 93.728L354.775 93.6276L354.597 93.5495C354.263 93.3932 353.918 93.2482 353.562 93.1142L353.384 93.0473H353.261C352.894 92.9245 352.504 92.8129 352.148 92.7125H351.948C351.592 92.6344 351.213 92.5674 350.835 92.5116H350.69H350.412C350.011 92.5116 349.588 92.4335 349.165 92.4224H348.887H348.408C348.041 92.4224 347.696 92.4224 347.351 92.4224H347.273H347.106C346.796 92.4453 346.488 92.4863 346.182 92.5451H346.004H345.904C345.575 92.6069 345.252 92.6927 344.936 92.8018L344.691 92.8799H344.568C344.188 93.0162 343.816 93.1764 343.455 93.3598L339.727 95.4131C340.082 95.2186 340.454 95.0579 340.84 94.9332L341.196 94.7882C341.507 94.6877 341.83 94.6096 342.164 94.5315H342.442C342.743 94.5315 343.055 94.4311 343.366 94.3976H343.622C343.956 94.3976 344.312 94.3976 344.669 94.3976H345.425C345.859 94.3976 346.271 94.3976 346.683 94.498H347.095C347.485 94.498 347.852 94.6208 348.208 94.6989H348.431C348.808 94.7867 349.18 94.8985 349.544 95.0337L349.844 95.1453C350.2 95.2792 350.545 95.4242 350.89 95.5805L351.191 95.759Z" fill="#1CCA7E" stroke="black" stroke-width="0.5" stroke-linecap="round" stroke-linejoin="round"/>
<path d="M344.591 94.2971C346.261 94.2688 347.924 94.5215 349.51 95.0447C350.949 95.5398 352.285 96.2964 353.451 97.2766L350.49 101.517C349.563 100.841 348.543 100.303 347.462 99.9214C346.5 99.5632 345.484 99.3707 344.457 99.3523C343.89 99.3137 343.326 99.4542 342.843 99.754C342.682 99.8645 342.55 100.013 342.459 100.186C342.368 100.359 342.32 100.551 342.32 100.747V100.814C342.317 101.041 342.375 101.264 342.487 101.461C342.643 101.672 342.844 101.844 343.077 101.964C343.433 102.154 343.805 102.311 344.19 102.432C344.669 102.588 345.303 102.756 346.027 102.923C347.159 103.165 348.275 103.482 349.366 103.872C350.275 104.189 351.133 104.637 351.915 105.2C352.592 105.686 353.142 106.329 353.517 107.075C353.904 107.89 354.098 108.783 354.085 109.686C354.115 110.729 353.902 111.764 353.462 112.71C353.057 113.578 352.459 114.342 351.714 114.942C350.903 115.576 349.977 116.045 348.987 116.326C347.828 116.648 346.628 116.802 345.425 116.783C343.558 116.784 341.703 116.471 339.938 115.857C338.238 115.269 336.671 114.347 335.33 113.145L338.669 109.15C340.62 110.812 343.088 111.74 345.648 111.773C346.28 111.813 346.91 111.682 347.474 111.393C347.672 111.286 347.836 111.124 347.947 110.926C348.057 110.728 348.109 110.503 348.097 110.277C348.111 110.047 348.056 109.818 347.941 109.619C347.798 109.402 347.603 109.226 347.373 109.106C347.02 108.906 346.647 108.746 346.26 108.626C345.804 108.469 345.203 108.313 344.468 108.146C343.355 107.867 342.242 107.566 341.263 107.253C340.35 106.964 339.484 106.543 338.692 106.003C337.977 105.514 337.386 104.864 336.966 104.106C336.517 103.247 336.295 102.286 336.321 101.316C336.305 100.339 336.495 99.3696 336.877 98.4707C337.253 97.6127 337.816 96.85 338.525 96.2388C339.295 95.5961 340.184 95.1108 341.14 94.8104C342.255 94.4541 343.42 94.2807 344.591 94.2971Z" fill="#FFF167" stroke="black" stroke-width="0.5" stroke-linecap="round" stroke-linejoin="round"/>
<path d="M356.623 94.6989L360.352 92.6567L366.44 92.6679L362.711 94.7212L356.623 94.6989Z" fill="#1CCA7E" stroke="black" stroke-width="0.5" stroke-linecap="round" stroke-linejoin="round"/>
<path d="M372.517 108.871C372.36 108.959 372.197 109.033 372.028 109.094H371.849L371.504 109.183H371.237H370.97C370.796 109.195 370.621 109.195 370.447 109.183C370.182 109.184 369.918 109.162 369.657 109.116H369.534C369.311 109.074 369.092 109.014 368.878 108.938H368.777C368.568 108.852 368.367 108.747 368.176 108.625C367.964 108.487 367.769 108.322 367.598 108.134C367.428 107.953 367.282 107.75 367.164 107.532C367.122 107.46 367.085 107.385 367.052 107.309C366.97 107.142 366.9 106.971 366.841 106.795C366.81 106.708 366.784 106.618 366.763 106.528C366.707 106.326 366.662 106.121 366.629 105.914C366.629 105.824 366.629 105.724 366.629 105.624C366.589 105.301 366.567 104.977 366.562 104.653V92.6006L362.834 94.6539L362.901 106.695C362.901 106.985 362.901 107.253 362.901 107.51C362.905 107.565 362.905 107.621 362.901 107.677C362.901 107.777 362.901 107.867 362.901 107.967C362.901 108.068 362.901 108.19 362.956 108.291C363.012 108.391 363.012 108.48 363.034 108.57C363.055 108.664 363.081 108.757 363.112 108.849C363.107 108.897 363.107 108.945 363.112 108.994C363.159 109.117 363.215 109.236 363.279 109.351C363.279 109.429 363.357 109.518 363.39 109.585C363.513 109.801 363.659 110.003 363.824 110.188C364.002 110.369 364.195 110.533 364.403 110.679C364.529 110.77 364.663 110.848 364.804 110.913L364.993 111.002H365.093H365.193L365.583 111.114H365.761H365.872H366.028H366.54H367.186H367.464H367.676H367.731L368.065 111.014H368.232C368.396 110.954 368.556 110.884 368.711 110.802L372.517 108.871Z" fill="#1CCA7E" stroke="black" stroke-width="0.5" stroke-linecap="round" stroke-linejoin="round"/>
<path d="M380.442 105.021V104.731L380.375 92.7236L376.647 94.7658L376.713 106.784C376.713 106.985 376.713 107.164 376.713 107.354C376.713 107.733 376.713 108.09 376.647 108.47C376.647 108.637 376.647 108.804 376.591 108.961C376.535 109.117 376.524 109.418 376.48 109.641C376.435 109.864 376.424 109.987 376.379 110.155L376.246 110.657C376.185 110.892 376.111 111.123 376.023 111.349C375.925 111.618 375.814 111.883 375.689 112.141C375.531 112.472 375.353 112.792 375.155 113.101C375.044 113.268 374.921 113.424 374.799 113.592L374.621 113.826C374.432 114.052 374.232 114.268 374.02 114.473C373.552 114.908 373.032 115.283 372.473 115.589L376.19 113.547C376.753 113.241 377.277 112.866 377.749 112.431C377.963 112.229 378.164 112.013 378.35 111.784L378.528 111.55C378.639 111.393 378.761 111.237 378.873 111.07C379.067 110.761 379.242 110.44 379.396 110.11L379.451 110.021C379.552 109.798 379.652 109.563 379.741 109.329L379.874 108.949C379.906 108.847 379.932 108.742 379.952 108.637C380.008 108.47 380.053 108.302 380.097 108.124C380.142 107.945 380.097 107.99 380.097 107.923C380.097 107.856 380.097 107.711 380.153 107.61C380.208 107.51 380.231 107.164 380.264 106.941V106.695C380.264 106.617 380.264 106.528 380.264 106.439C380.264 106.093 380.264 105.735 380.264 105.323C380.42 105.211 380.442 105.122 380.442 105.021Z" fill="#1CCA7E" stroke="black" stroke-width="0.5" stroke-linecap="round" stroke-linejoin="round"/>
<path d="M370.569 94.7433L374.298 92.7012L380.375 92.7235L376.647 94.7657L370.569 94.7433Z" fill="#1CCA7E" stroke="black" stroke-width="0.5" stroke-linecap="round" stroke-linejoin="round"/>
<path d="M376.658 94.7655L376.713 106.784C376.76 108.325 376.522 109.861 376.012 111.315C375.596 112.498 374.91 113.568 374.009 114.44C373.107 115.274 372.025 115.889 370.848 116.236C368.137 117.032 365.255 117.032 362.544 116.236C361.358 115.889 360.272 115.26 359.379 114.404C358.486 113.547 357.812 112.488 357.413 111.315C356.904 109.883 356.659 108.371 356.69 106.851L356.623 94.6763H362.711L362.778 106.717C362.693 107.981 363.091 109.23 363.891 110.21C364.668 110.931 365.685 111.338 366.744 111.35C367.803 111.362 368.829 110.98 369.623 110.277C370.4 109.344 370.78 108.141 370.681 106.929L370.614 94.7209L376.658 94.7655Z" fill="#FFF167" stroke="black" stroke-width="0.5" stroke-linecap="round" stroke-linejoin="round"/>
<path d="M386.096 104.095L389.814 102.042L389.881 114.428L386.152 116.482L386.096 104.095Z" fill="#1CCA7E" stroke="black" stroke-width="0.5" stroke-linecap="round" stroke-linejoin="round"/>
<path d="M380.175 94.777L383.904 92.7349L390.193 92.7572L386.475 94.7993L380.175 94.777Z" fill="#1CCA7E" stroke="black" stroke-width="0.5" stroke-linecap="round" stroke-linejoin="round"/>
<path d="M386.475 94.799L390.192 92.7568L395.368 101.16L391.651 103.213L386.475 94.799Z" fill="#1CCA7E" stroke="black" stroke-width="0.5" stroke-linecap="round" stroke-linejoin="round"/>
<path d="M397.149 104.062L400.878 102.02L395.435 110.49L391.717 112.532L397.149 104.062Z" fill="#1CCA7E" stroke="black" stroke-width="0.5" stroke-linecap="round" stroke-linejoin="round"/>
<path d="M403.026 94.8552L406.755 92.813L406.866 114.485L403.137 116.538L403.026 94.8552Z" fill="#1CCA7E" stroke="black" stroke-width="0.5" stroke-linecap="round" stroke-linejoin="round"/>
<path d="M396.737 94.8327L400.455 92.7905L406.755 92.8128L403.026 94.855L396.737 94.8327Z" fill="#1CCA7E" stroke="black" stroke-width="0.5" stroke-linecap="round" stroke-linejoin="round"/>
<path d="M403.026 94.855L403.137 116.538L397.216 116.515L397.149 104.061L391.717 112.531H391.595L386.097 104.095L386.152 116.482L380.298 116.46L380.175 94.7769L386.475 94.7992L391.651 103.213L396.737 94.8327L403.026 94.855Z" fill="#FFF167" stroke="black" stroke-width="0.5" stroke-linecap="round" stroke-linejoin="round"/>
<path d="M389.803 67.9049L389.836 73.0271L378.45 72.9824L378.461 76.2633L388.779 76.2968L388.801 81.0395L378.483 80.9949L378.505 84.432L390.048 84.4655L390.07 89.5876L372.662 89.5207L372.551 67.8491L389.803 67.9049Z" fill="#FFF167" stroke="black" stroke-width="0.5" stroke-linecap="round" stroke-linejoin="round"/>
<path d="M78.4705 111.605L88.1763 104.039L88.41 138.488L78.7042 146.054L78.4705 111.605Z" fill="#FFF167" stroke="black" stroke-linecap="round" stroke-linejoin="round"/>
<path d="M34.0039 110.824L43.7097 103.269L88.1763 104.039L78.4704 111.605L34.0039 110.824Z" fill="#FFF167" stroke="black" stroke-linecap="round" stroke-linejoin="round"/>
<path d="M78.4704 111.605L78.7042 146.054L34.2376 145.273L34.0039 110.824L78.4704 111.605Z" fill="#FFF167" stroke="black" stroke-linecap="round" stroke-linejoin="round"/>
<path d="M78.2144 155.238L87.9202 147.672L88.1539 182.121L78.4481 189.676L78.2144 155.238Z" fill="#FFF167" stroke="black" stroke-linecap="round" stroke-linejoin="round"/>
<path d="M0.556641 153.877L10.2625 146.311L87.9203 147.672L78.2144 155.239L0.556641 153.877Z" fill="#FFF167" stroke="black" stroke-linecap="round" stroke-linejoin="round"/>
<path d="M78.2145 155.238L78.4482 189.676L0.790382 188.326L0.556641 153.877L78.2145 155.238Z" fill="#FFF167" stroke="black" stroke-linecap="round" stroke-linejoin="round"/>
<path d="M102.323 70.5273H92.7288V80.1467H102.323V70.5273Z" fill="#8E64E9" stroke="black" stroke-width="0.75" stroke-linecap="round" stroke-linejoin="round"/>
<path d="M98.1049 73.4736H88.4102V83.093H98.1049V73.4736Z" fill="white" stroke="black" stroke-width="0.75" stroke-linecap="round" stroke-linejoin="round"/>
<path d="M98.1047 73.5405L102.323 70.6279V80.1692L98.1047 83.0818V73.5405Z" fill="white" stroke="black" stroke-width="0.75" stroke-linecap="round" stroke-linejoin="round"/>
<path d="M88.5103 73.4734L92.7287 70.5273H102.323L98.1048 73.5404L88.5103 73.4734Z" fill="white" stroke="black" stroke-width="0.75" stroke-linecap="round" stroke-linejoin="round"/>
</g>
<defs>
<clipPath id="clip0_221_334">
<rect width="420" height="321" fill="white"/>
</clipPath>
</defs>
</svg>
