<svg width="1440" height="137" viewBox="0 0 1440 137" fill="none" xmlns="http://www.w3.org/2000/svg">
<g clip-path="url(#clip0_233_12281)">
<path d="M885.789 0H539.097V2.59083H885.789V0Z" fill="#231F20"/>
<path d="M895.11 2.19824H529.776V4.78907H895.11V2.19824Z" fill="#231F20"/>
<path d="M905.454 4.70996H519.432V7.30079H905.454V4.70996Z" fill="#231F20"/>
<path d="M917.162 7.45801H507.837V10.0488H917.162V7.45801Z" fill="#231F20"/>
<path d="M930.234 10.5986H494.766V13.1895H930.234V10.5986Z" fill="#231F20"/>
<path d="M945.125 14.21H479.875V16.8008H945.125V14.21Z" fill="#231F20"/>
<path d="M962.175 18.292H462.824V20.8828H962.175V18.292Z" fill="#231F20"/>
<path d="M981.954 23.0029H443.046V25.5938H981.954V23.0029Z" fill="#231F20"/>
<path d="M1005.03 28.5771H419.857V31.168H1005.03V28.5771Z" fill="#231F20"/>
<path d="M1032.65 35.0938H392.349V37.6846H1032.65V35.0938Z" fill="#231F20"/>
<path d="M1065.96 43.1016H359.157V45.6924H1065.96V43.1016Z" fill="#231F20"/>
<path d="M1106.88 52.915H318.236V55.5059H1106.88V52.915Z" fill="#231F20"/>
<path d="M1158.48 65.2412H266.517V67.832H1158.48V65.2412Z" fill="#231F20"/>
<path d="M1225.66 81.3359H199.224V83.9268H1225.66V81.3359Z" fill="#231F20"/>
<path d="M1316.82 103.162H108.061V105.753H1316.82V103.162Z" fill="#231F20"/>
<path d="M1447.32 134.409H-22.4319V137H1447.32V134.409Z" fill="#231F20"/>
<path d="M886.315 0.0265409L885.087 2.47461L1446.6 136.849L1447.83 134.401L886.315 0.0265409Z" fill="#231F20"/>
<path d="M863.577 0.0309603L862.184 2.43652L1348.83 136.875L1350.23 134.47L863.577 0.0309603Z" fill="#231F20"/>
<path d="M840.36 0.108641L838.758 2.45117L1250.58 136.844L1252.18 134.501L840.36 0.108641Z" fill="#231F20"/>
<path d="M816.913 -2.6368L815.038 -0.382812L1153.55 133.987L1155.42 131.733L816.913 -2.6368Z" fill="#231F20"/>
<path d="M798.355 1.93128L796.104 4.00391L1057.18 139.245L1059.43 137.173L798.355 1.93128Z" fill="#231F20"/>
<path d="M771.614 0.334689L768.911 2.13086L956.072 136.508L958.775 134.712L771.614 0.334689Z" fill="#231F20"/>
<path d="M748.762 0.598524L745.513 1.89355L857.842 136.327L861.091 135.032L748.762 0.598524Z" fill="#231F20"/>
<path d="M726.033 1.01932L722.35 1.50879L759.781 135.887L763.464 135.398L726.033 1.01932Z" fill="#231F20"/>
<path d="M699.118 1.12026L661.585 135.485L665.269 135.976L702.801 1.61106L699.118 1.12026Z" fill="#231F20"/>
<path d="M676.226 0.593314L563.898 135.026L567.147 136.321L679.475 1.88834L676.226 0.593314Z" fill="#231F20"/>
<path d="M653.32 0.438836L466.193 134.839L468.897 136.635L656.023 2.23467L653.32 0.438836Z" fill="#231F20"/>
<path d="M630.335 0.204271L368.441 134.689L370.679 136.769L632.573 2.28343L630.335 0.204271Z" fill="#231F20"/>
<path d="M607.506 0.0756637L270.645 134.567L272.523 136.81L609.384 2.31871L607.506 0.0756637Z" fill="#231F20"/>
<path d="M584.571 0.126965L172.784 134.569L174.387 136.912L586.174 2.46929L584.571 0.126965Z" fill="#231F20"/>
<path d="M561.611 0.0974236L74.929 134.478L76.3214 136.883L563.004 2.50314L561.611 0.0974236Z" fill="#231F20"/>
<path d="M538.539 0.12134L-23.0454 134.36L-21.8186 136.809L539.766 2.56969L538.539 0.12134Z" fill="#231F20"/>
</g>
<defs>
<clipPath id="clip0_233_12281">
<rect width="1471" height="137" fill="white" transform="translate(-23)"/>
</clipPath>
</defs>
</svg>
