<?xml version="1.0" encoding="utf-8"?>
<!-- Generator: Adobe Illustrator 25.4.1, SVG Export Plug-In . SVG Version: 6.00 Build 0)  -->
<svg version="1.1" xmlns="http://www.w3.org/2000/svg" xmlns:xlink="http://www.w3.org/1999/xlink" x="0px" y="0px"
	 viewBox="0 0 2160 2700" style="enable-background:new 0 0 2160 2700;" xml:space="preserve">
<style type="text/css">
	.st0{fill:#7B66AD;stroke:#000000;stroke-width:3;stroke-miterlimit:10;}
	.st1{fill:#FFFFFF;stroke:#000000;stroke-width:3;stroke-miterlimit:10;}
	.st2{fill:#CECAA5;stroke:#000000;stroke-width:3;stroke-miterlimit:10;}
	.st3{fill:#FFFFFF;stroke:#000000;stroke-miterlimit:10;}
	.st4{fill:#7B66AD;stroke:#000000;stroke-miterlimit:10;}
	.st5{fill:#44B97C;stroke:#000000;stroke-width:3;stroke-miterlimit:10;}
	.st6{fill:#FCB136;stroke:#000000;stroke-width:3;stroke-miterlimit:10;}
	.st7{fill:#EEEA59;stroke:#000000;stroke-width:3;stroke-miterlimit:10;}
	.st8{fill:#81C343;stroke:#000000;stroke-width:3;stroke-miterlimit:10;}
	.st9{fill:#FEF168;stroke:#000000;stroke-width:3;stroke-miterlimit:10;}
	.st10{fill:#44B97B;stroke:#000000;stroke-width:3;stroke-miterlimit:10;}
	.st11{stroke:#000000;stroke-width:3;stroke-miterlimit:10;}
	.st12{fill:#FFFFFF;}
	.st13{fill:none;stroke:#000000;stroke-width:3;stroke-miterlimit:10;}
	.st14{fill:#0F442B;stroke:#000000;stroke-width:3;stroke-miterlimit:10;}
	.st15{fill:none;stroke:#FFFFFF;stroke-miterlimit:10;}
	.st16{fill:#FFFFFF;stroke:#FFFFFF;stroke-miterlimit:10;}
</style>
<g id="Apple">
</g>
<g id="Capa_1">
	<polygon class="st0" points="1691.18,1871.48 302.37,1871.48 302.37,811.6 360.32,713.73 1691.18,811.6 1749.88,1773.6 	"/>
	<rect x="361.07" y="713.73" class="st0" width="1388.8" height="1059.88"/>
	<g>
		<polygon class="st1" points="1695.35,920.45 407.49,920.45 407.49,783.41 423.13,755.82 1712.13,768.06 1712.13,908.82 		"/>
		<rect x="424.27" y="755.82" class="st1" width="1287.86" height="151.24"/>
	</g>
	<ellipse class="st2" cx="1881.13" cy="1259.09" rx="73.73" ry="57.67"/>
	<polygon class="st3" points="1689.24,1721.24 407.49,1721.24 407.49,965.92 422.81,945.71 1704.56,965.37 1704.56,1701.95 	"/>
	<rect x="422.89" y="945.71" class="st4" width="1281.75" height="755.31"/>
	<ellipse class="st1" cx="1884.17" cy="1248.76" rx="73.73" ry="57.67"/>
	<ellipse class="st5" cx="1663.31" cy="1279.12" rx="98.29" ry="100"/>
	<path class="st5" d="M1665.81,1204.44l93.69-31.62c6.37-2.15,12.56-5.54,18.46-10.11l119.9-92.9c5.79-3.36,13.19,0.64,13.19,7.13
		v351.15c0,5.64-5.72,9.65-11.33,7.94l-126.49-59.31c-3.2-1.5-6.49-2.41-9.81-2.71l-95.76-8.77c-3.61-1.1-6.06-4.31-6.06-7.94
		v-145.73C1661.62,1208.65,1663.21,1205.95,1665.81,1204.44z"/>
	<path class="st6" d="M1673.47,1576.47L1673.47,1576.47c-27.76,0-50.48-22.71-50.48-50.48v-210.52c0-27.76,22.71-50.48,50.48-50.48
		h0c27.76,0,50.48,22.71,50.48,50.48v210.52C1723.94,1553.76,1701.23,1576.47,1673.47,1576.47z"/>
	<path class="st7" d="M1679.09,1572.41L1679.09,1572.41c-23.96,0-43.56-19.6-43.56-43.56v-224.35c0-23.96,19.6-43.56,43.56-43.56h0
		c23.96,0,43.56,19.6,43.56,43.56v224.35C1722.65,1552.81,1703.05,1572.41,1679.09,1572.41z"/>
	<path class="st8" d="M1671.4,1184.67l93.69-31.62c6.37-2.15,12.56-5.54,18.46-10.11l119.9-92.9c5.79-3.36,13.19,0.64,13.19,7.13
		v351.15c0,5.64-5.72,9.65-11.33,7.94l-126.49-59.31c-3.2-1.5-6.49-2.41-9.81-2.71l-95.76-8.77c-3.61-1.1-6.06-4.31-6.06-7.94
		v-145.73C1667.21,1188.89,1668.8,1186.18,1671.4,1184.67z"/>
	<ellipse class="st1" cx="1669.15" cy="1253.93" rx="98.29" ry="100"/>
	<polygon class="st9" points="1990.2,1114.94 2007.47,1130.13 2008.27,1140.41 1964.8,1209.35 1948.46,1193.02 1946.46,1182.43 	"/>
	<polygon class="st9" points="1989.9,1114.94 2006.79,1128.78 1963.32,1197.73 1946.99,1181.39 	"/>
	<polygon class="st9" points="2037.24,1360.29 2034.1,1369.86 2024.56,1379.57 2019.83,1384.38 1955.06,1334.92 1955.06,1326.8 
		1974.19,1310.98 	"/>
	<polygon class="st9" points="2036.7,1359.53 2021.4,1375.11 1956.63,1325.64 1974.36,1310.83 	"/>
	<polygon class="st9" points="2073.13,1243.05 2072.99,1265.77 2067.04,1271.65 1987.2,1273.5 1988.01,1250.94 1993.18,1244.17 	"/>
	<polygon class="st9" points="2073.33,1243.05 2073.26,1264.73 1993.42,1266.57 1994.24,1244.02 	"/>
	<g>
		<path class="st8" d="M720.85,878.65H541.57c-3.49,0-6.34-2.85-6.34-6.34v-82.56c0-3.49,2.85-6.34,6.34-6.34h179.29
			c3.49,0,6.34,2.85,6.34,6.34v82.56C727.19,875.8,724.34,878.65,720.85,878.65z"/>
		<path class="st8" d="M730.08,870.9H550.79c-3.49,0-6.34-2.85-6.34-6.34v-82.56c0-3.49,2.85-6.34,6.34-6.34h179.29
			c3.49,0,6.34,2.85,6.34,6.34v82.56C736.42,868.05,733.57,870.9,730.08,870.9z"/>
	</g>
	<g>
		<g>
			<path class="st10" d="M1041.66,874.78H862.37c-3.49,0-6.34-2.85-6.34-6.34v-82.56c0-3.49,2.85-6.34,6.34-6.34h179.29
				c3.49,0,6.34,2.85,6.34,6.34v82.56C1048,871.92,1045.14,874.78,1041.66,874.78z"/>
			<path class="st10" d="M1050.89,867.02H871.6c-3.49,0-6.34-2.85-6.34-6.34v-82.56c0-3.49,2.85-6.34,6.34-6.34h179.29
				c3.49,0,6.34,2.85,6.34,6.34v82.56C1057.23,864.17,1054.37,867.02,1050.89,867.02z"/>
		</g>
	</g>
	<path class="st11" d="M353.54,1204.62"/>
	<g>
		<g>
			<path class="st10" d="M581.95,1336.69H187.83c-2.12,0-3.85-1.73-3.85-3.85v-246.73c0-2.12,1.73-3.85,3.85-3.85h394.12
				c2.12,0,3.85,1.73,3.85,3.85v246.73C585.8,1334.96,584.07,1336.69,581.95,1336.69z"/>
			<path class="st10" d="M603.13,1320.58H209.01c-2.12,0-3.85-1.73-3.85-3.85V1070c0-2.12,1.73-3.85,3.85-3.85h394.12
				c2.12,0,3.85,1.73,3.85,3.85v246.73C606.98,1318.85,605.25,1320.58,603.13,1320.58z"/>
		</g>
	</g>
	<g>
		<g>
			<polygon class="st1" points="498.66,1165.86 507.01,1182.2 410.77,1232.32 384.62,1188.74 264.93,1247.21 257.14,1231.96 
				387.16,1170.22 412.95,1211.62 			"/>
		</g>
		<path class="st1" d="M532.85,1152.31l-54.7,3.45c-0.92,0.06-1.26,1.25-0.49,1.78l23.84,16.44c0.19,0.13,0.33,0.33,0.39,0.56
			l7.2,28.17c0.23,0.89,1.44,1,1.83,0.17l22.89-49.18C534.11,1153.03,533.59,1152.27,532.85,1152.31z"/>
		<polygon class="st12" points="492.72,1169.89 495.41,1167.76 506.12,1170.78 508,1178.52 506.49,1182.39 504.1,1183.22 
			499.56,1183.95 491.11,1174.7 		"/>
	</g>
	<g>
		<g>
			<g>
				<path class="st9" d="M585.16,1634.64H191.03c-2.12,0-3.85-1.73-3.85-3.85v-246.73c0-2.12,1.73-3.85,3.85-3.85h394.12
					c2.12,0,3.85,1.73,3.85,3.85v246.73C589.01,1632.9,587.27,1634.64,585.16,1634.64z"/>
				<path class="st9" d="M606.34,1618.52H212.21c-2.12,0-3.85-1.73-3.85-3.85v-246.73c0-2.12,1.73-3.85,3.85-3.85h394.12
					c2.12,0,3.85,1.73,3.85,3.85v246.73C610.19,1616.79,608.45,1618.52,606.34,1618.52z"/>
			</g>
		</g>
		<path class="st1" d="M357.9,1422.39v114.12c0,4.34,4.82,6.94,8.44,4.56l95.47-62.61c3.45-2.26,3.23-7.4-0.4-9.36l-95.47-51.51
			C362.3,1415.63,357.9,1418.26,357.9,1422.39z"/>
		<line class="st13" x1="252.05" y1="1570.96" x2="570.11" y2="1570.96"/>
		<circle class="st1" cx="519.78" cy="1570.96" r="17.64"/>
	</g>
	<path class="st10" d="M1825.22,806.22h-202.68c-3.02,0-5.49-2.47-5.49-5.49V667.6c0-3.02,2.47-5.49,5.49-5.49h202.68
		c3.02,0,5.49,2.47,5.49,5.49v133.13C1830.71,803.75,1828.24,806.22,1825.22,806.22z"/>
	<path class="st14" d="M965.49,1032.56c-10.67,8.71-19.68,19.28-26.59,31.2l-228.03,393.26c-31.68,55.01-12.99,125.28,41.83,157.29
		c55.01,31.68,125.28,12.99,157.29-41.83l196-338C1062.75,1172.4,999.66,1081.85,965.49,1032.56L965.49,1032.56z"/>
	<path class="st9" d="M1336.28,1598.76L1336.28,1598.76c-55.04,32.5-125.43,13.21-157.21-43.08l-227.3-402.6
		c-31.78-56.29-12.92-128.27,42.12-160.77v0c55.04-32.5,125.43-13.21,157.21,43.08l227.3,402.6
		C1410.19,1494.28,1391.33,1566.26,1336.28,1598.76z"/>
	<path class="st14" d="M981.66,1032.56c-10.67,8.71-19.68,19.28-26.59,31.2l-228.03,393.26c-31.68,55.01-12.99,125.28,41.83,157.29
		c55.01,31.68,125.28,12.99,157.29-41.83l196-338C1078.91,1172.4,1015.83,1081.85,981.66,1032.56L981.66,1032.56z"/>
	<circle class="st10" cx="826.6" cy="1514.75" r="115.09"/>
	<path class="st9" d="M1349.13,1592.04L1349.13,1592.04c-55.04,31.78-125.43,12.92-157.21-42.12l-227.3-393.68
		c-31.78-55.04-12.92-125.43,42.12-157.21l0,0c55.04-31.78,125.43-12.92,157.21,42.12l227.3,393.68
		C1423.03,1489.88,1404.17,1560.26,1349.13,1592.04z"/>
	<path class="st10" d="M1834.53,797.24h-202.68c-3.02,0-5.49-2.47-5.49-5.49V658.62c0-3.02,2.47-5.49,5.49-5.49h202.68
		c3.02,0,5.49,2.47,5.49,5.49v133.13C1840.02,794.77,1837.55,797.24,1834.53,797.24z"/>
	<g>
		<rect x="1680.54" y="734.16" class="st12" width="26.61" height="33.76"/>
		<rect x="1718.98" y="682.74" class="st12" width="26.61" height="87.33"/>
		<rect x="1757.16" y="709.55" class="st12" width="26.61" height="59.01"/>
		<rect x="1645.69" y="763.22" class="st12" width="173.18" height="8.85"/>
	</g>
	<path class="st15" d="M1653.68,751.04c0.64-0.08,20.46-20.07,23.09-22.72c0.19-0.19,0.44-0.29,0.71-0.29h19.22
		c0.2,0,0.38-0.13,0.45-0.32l15.04-43.01"/>
</g>
<g id="Layer_1">
	<polygon class="st16" points="1712.52,683.73 1710.3,685.61 1711.95,685.54 1713.29,686.5 	"/>
</g>
</svg>
