<svg width="689" height="185" viewBox="0 0 689 185" fill="none" xmlns="http://www.w3.org/2000/svg">
<path d="M77.7065 96.0449H50.4744V112.865H77.7065V96.0449Z" fill="#5D4199" stroke="black" stroke-linecap="round" stroke-linejoin="round"/>
<path d="M46.7951 88.5648C44.5321 86.7502 41.6356 85.8413 38.1056 85.8379C37.7295 85.8379 37.3586 85.8379 37.0029 85.8732L36.6573 85.9085C36.4185 85.9085 36.1847 85.9488 35.9561 85.979L35.5597 86.0496C35.3564 86.0849 35.1583 86.1151 34.9601 86.1554C34.7619 86.1958 34.6958 86.226 34.5586 86.2613C34.4214 86.2966 34.1978 86.352 34.02 86.4075C33.8421 86.4629 33.7608 86.4982 33.6287 86.5435C33.4966 86.5889 33.2984 86.6595 33.1206 86.725C32.9427 86.7905 32.8716 86.8409 32.7445 86.8964L32.2923 87.1131C32.1652 87.1786 32.0534 87.2492 31.9315 87.3198C31.8095 87.3903 31.6469 87.4811 31.5148 87.5718C31.3827 87.6625 31.2861 87.7331 31.1743 87.8137C31.0625 87.8944 30.9558 87.9649 30.8491 88.0506L30.7322 88.1464C30.4972 88.3387 30.2748 88.5458 30.0665 88.7664C29.9954 88.842 29.9395 88.9226 29.8734 88.9932C29.7413 89.1444 29.6092 89.2956 29.4872 89.4519V89.4771C29.4466 89.5325 29.411 89.593 29.3754 89.6535C29.2433 89.845 29.1112 90.0416 28.9994 90.2432C28.9435 90.3491 28.8978 90.4549 28.8469 90.5608C28.7961 90.6666 28.6691 90.9186 28.5929 91.1102C28.5929 91.1505 28.5573 91.1858 28.537 91.2311C28.5166 91.2765 28.4658 91.4579 28.4303 91.5688C28.3947 91.6797 28.349 91.8057 28.3134 91.9267C28.2778 92.0477 28.227 92.2846 28.1863 92.466C28.1457 92.6475 28.1304 92.7029 28.1101 92.8239C28.0745 93.0306 28.0491 93.2422 28.0288 93.459C28.0288 93.5648 27.9983 93.6656 27.9882 93.7765C27.9882 94.1042 27.9475 94.4368 27.9475 94.7846V111.604C27.9475 111.257 27.9475 110.924 27.9882 110.596C27.9882 110.485 27.9882 110.385 28.0288 110.279C28.0288 110.062 28.0745 109.85 28.1101 109.644C28.1101 109.518 28.1609 109.402 28.1863 109.286C28.2118 109.17 28.2676 108.923 28.3134 108.747C28.3591 108.57 28.3896 108.51 28.4303 108.389C28.4709 108.268 28.5319 108.081 28.5929 107.93C28.6538 107.779 28.7555 107.557 28.8469 107.381C28.9384 107.204 28.9435 107.164 28.9994 107.063C29.1112 106.861 29.2433 106.665 29.3754 106.473C29.4212 106.408 29.4567 106.337 29.5025 106.272C29.6244 106.11 29.7566 105.964 29.8887 105.813C29.9547 105.742 30.0106 105.662 30.0818 105.586C30.2835 105.366 30.4991 105.159 30.7271 104.966C30.8694 104.85 31.0219 104.744 31.1692 104.634C31.3166 104.523 31.3928 104.467 31.5097 104.392C31.6266 104.316 31.7841 104.22 31.9264 104.14C32.0687 104.059 32.1601 103.998 32.2872 103.933C32.4142 103.867 32.587 103.787 32.7394 103.716C32.8919 103.646 32.9884 103.595 33.1155 103.545C33.2425 103.494 33.4407 103.424 33.6236 103.363L34.0149 103.222L34.5536 103.081C34.6908 103.046 34.8178 103.006 34.955 102.975C35.0922 102.945 35.3514 102.905 35.5546 102.869L35.951 102.799C36.1797 102.769 36.4134 102.748 36.6523 102.728L36.9978 102.693C37.3535 102.693 37.7245 102.658 38.1005 102.658C41.6305 102.658 44.527 103.567 46.79 105.385C49.053 107.203 50.2793 109.696 50.4691 112.865V96.0447C50.276 92.8726 49.0513 90.3793 46.7951 88.5648Z" fill="#5D4199" stroke="black" stroke-linecap="round" stroke-linejoin="round"/>
<path d="M52.6798 138.813V155.628C52.7096 154.501 52.495 153.382 52.0505 152.346C51.606 151.309 50.9419 150.379 50.1034 149.619C48.248 147.95 46.105 146.625 43.7768 145.708C40.2842 144.357 36.7222 143.189 33.1055 142.21C27.519 140.654 22.0552 138.693 16.7581 136.343C12.488 134.348 8.7546 131.379 5.86321 127.679C2.81427 123.858 1.28979 118.873 1.28979 112.724V95.9038C1.28979 102.053 2.81427 107.038 5.86321 110.859C8.7546 114.559 12.488 117.528 16.7581 119.523C22.0535 121.873 27.5157 123.834 33.1005 125.39C36.7171 126.369 40.2792 127.537 43.7718 128.888C46.1012 129.805 48.2445 131.132 50.0983 132.805C50.9386 133.563 51.6041 134.493 52.0495 135.53C52.495 136.566 52.71 137.686 52.6798 138.813Z" fill="#8E64E9"/>
<mask id="mask0_243_208" style="mask-type:luminance" maskUnits="userSpaceOnUse" x="1" y="95" width="52" height="61">
<path d="M52.6798 138.813V155.628C52.7096 154.501 52.495 153.382 52.0505 152.346C51.606 151.309 50.9419 150.379 50.1034 149.619C48.248 147.95 46.105 146.625 43.7768 145.708C40.2842 144.357 36.7222 143.189 33.1055 142.21C27.519 140.654 22.0552 138.693 16.7581 136.343C12.488 134.348 8.7546 131.379 5.86321 127.679C2.81427 123.858 1.28979 118.873 1.28979 112.724V95.9038C1.28979 102.053 2.81427 107.038 5.86321 110.859C8.7546 114.559 12.488 117.528 16.7581 119.523C22.0535 121.873 27.5157 123.834 33.1005 125.39C36.7171 126.369 40.2792 127.537 43.7718 128.888C46.1012 129.805 48.2445 131.132 50.0983 132.805C50.9386 133.563 51.6041 134.493 52.0495 135.53C52.495 136.566 52.71 137.686 52.6798 138.813Z" fill="white"/>
</mask>
<g mask="url(#mask0_243_208)">
<path d="M52.6798 138.813V155.628C52.7096 154.501 52.495 153.382 52.0505 152.346C51.606 151.309 50.9419 150.379 50.1034 149.619C48.248 147.95 46.105 146.625 43.7768 145.708C40.2842 144.357 36.7222 143.189 33.1055 142.21C27.519 140.654 22.0552 138.693 16.7581 136.343C12.488 134.348 8.7546 131.379 5.86321 127.679C2.81427 123.858 1.28979 118.873 1.28979 112.724V95.9038C1.28979 102.053 2.81427 107.038 5.86321 110.859C8.7546 114.559 12.488 117.528 16.7581 119.523C22.0535 121.873 27.5157 123.834 33.1005 125.39C36.7171 126.369 40.2792 127.537 43.7718 128.888C46.1012 129.805 48.2445 131.132 50.0983 132.805C50.9376 133.564 51.6022 134.493 52.0468 135.53C52.4914 136.567 52.7055 137.687 52.6747 138.813" fill="#5D4199"/>
</g>
<path d="M52.6798 138.813V155.628C52.7096 154.501 52.495 153.382 52.0505 152.346C51.606 151.309 50.9419 150.379 50.1034 149.619C48.248 147.95 46.105 146.625 43.7768 145.708C40.2842 144.357 36.7222 143.189 33.1055 142.21C27.519 140.654 22.0552 138.693 16.7581 136.343C12.488 134.348 8.7546 131.379 5.86321 127.679C2.81427 123.858 1.28979 118.873 1.28979 112.724V95.9038C1.28979 102.053 2.81427 107.038 5.86321 110.859C8.7546 114.559 12.488 117.528 16.7581 119.523C22.0535 121.873 27.5157 123.834 33.1005 125.39C36.7171 126.369 40.2792 127.537 43.7718 128.888C46.1012 129.805 48.2445 131.132 50.0983 132.805C50.9386 133.563 51.6041 134.493 52.0495 135.53C52.495 136.566 52.71 137.686 52.6798 138.813Z" stroke="black" stroke-linecap="round" stroke-linejoin="round"/>
<path d="M157.807 87.2393H119.67V104.059H157.807V87.2393Z" fill="#5D4199" stroke="black" stroke-linecap="round" stroke-linejoin="round"/>
<path d="M153.392 125.531H119.67V142.351H153.392V125.531Z" fill="#5D4199" stroke="black" stroke-linecap="round" stroke-linejoin="round"/>
<path d="M157.812 166.203H94.4958V183.022H157.812V166.203Z" fill="#8E64E9" stroke="black" stroke-linecap="round" stroke-linejoin="round"/>
<path d="M225.311 91.1508C223.007 89.0103 219.547 87.9384 214.929 87.9351H199.329V104.755H214.929C219.543 104.755 223.004 105.827 225.311 107.971C227.618 110.115 228.773 113.05 228.777 116.776V99.9564C228.777 96.2332 227.621 93.2981 225.311 91.1508Z" fill="#5D4199" stroke="black" stroke-linecap="round" stroke-linejoin="round"/>
<path d="M253.087 124.569C253.168 124.312 253.249 124.065 253.32 123.797L253.442 123.329C253.51 123.087 253.571 122.845 253.625 122.603C253.666 122.437 253.702 122.27 253.737 122.099C253.773 121.927 253.834 121.625 253.879 121.383L253.971 120.879C254.012 120.637 254.047 120.375 254.083 120.148C254.083 119.977 254.133 119.811 254.154 119.644C254.184 119.387 254.21 119.14 254.235 118.873C254.235 118.712 254.271 118.545 254.286 118.369C254.286 118.082 254.322 117.799 254.337 117.512C254.337 117.371 254.337 117.23 254.337 117.094C254.337 116.665 254.362 116.232 254.362 115.798V98.9785C254.362 99.412 254.362 99.8455 254.337 100.274C254.337 100.415 254.337 100.551 254.337 100.692C254.337 100.98 254.306 101.267 254.286 101.549C254.286 101.71 254.255 101.877 254.235 102.053C254.235 102.31 254.184 102.557 254.154 102.824C254.154 102.996 254.108 103.162 254.083 103.328C254.057 103.495 254.012 103.832 253.971 104.059L253.879 104.563C253.834 104.805 253.788 105.067 253.737 105.279C253.686 105.491 253.666 105.617 253.625 105.783C253.585 105.949 253.508 106.287 253.442 106.509L253.32 106.978C253.249 107.235 253.168 107.482 253.087 107.749L252.965 108.152C252.853 108.495 252.731 108.827 252.609 109.16L252.553 109.311C252.542 109.346 252.528 109.379 252.512 109.412C252.401 109.71 252.279 110.007 252.157 110.299C252.111 110.41 252.06 110.516 252.014 110.622C251.918 110.844 251.816 111.06 251.715 111.282C251.659 111.398 251.603 111.519 251.542 111.64C251.44 111.847 251.334 112.053 251.227 112.26C251.166 112.376 251.11 112.492 251.044 112.608C250.927 112.835 250.8 113.056 250.673 113.278C250.622 113.369 250.571 113.46 250.515 113.55C250.332 113.863 250.144 114.17 249.951 114.478L249.86 114.614C249.692 114.871 249.519 115.118 249.352 115.39C249.281 115.491 249.204 115.592 249.133 115.698C248.955 115.95 248.778 116.202 248.589 116.449C248.29 116.842 247.98 117.22 247.66 117.598L247.38 117.915C247.131 118.203 246.872 118.48 246.613 118.752C246.521 118.848 246.435 118.944 246.343 119.034C246.005 119.387 245.649 119.723 245.276 120.042L245.088 120.204C244.778 120.486 244.453 120.758 244.128 121.025L243.767 121.313C243.476 121.541 243.181 121.763 242.883 121.978L242.568 122.21C242.161 122.492 241.75 122.769 241.323 123.036L241.084 123.183C240.733 123.404 240.373 123.616 240.007 123.823L239.58 124.06C239.244 124.241 238.909 124.417 238.564 124.564L238.162 124.765C237.689 124.997 237.212 125.219 236.719 125.436L236.541 125.506C236.104 125.691 235.657 125.872 235.2 126.051L234.717 126.232C234.341 126.373 233.955 126.509 233.563 126.64L233.081 126.802C232.542 126.978 231.993 127.144 231.434 127.306V144.156C231.993 143.994 232.542 143.823 233.081 143.652L233.563 143.49L234.722 143.082L235.2 142.901C235.657 142.723 236.104 142.541 236.541 142.356L236.719 142.286C237.227 142.069 237.689 141.847 238.162 141.615L238.564 141.414C238.909 141.242 239.244 141.066 239.58 140.884L240.007 140.648C240.373 140.441 240.728 140.229 241.084 140.007L241.323 139.861C241.75 139.594 242.161 139.317 242.568 139.035L242.883 138.803C243.181 138.584 243.476 138.363 243.767 138.137L243.965 137.986L244.128 137.85C244.453 137.583 244.773 137.311 245.088 137.029L245.276 136.867C245.642 136.531 245.998 136.195 246.343 135.859C246.435 135.768 246.521 135.673 246.613 135.577C246.877 135.305 247.121 135.028 247.38 134.74L247.66 134.423C247.98 134.045 248.29 133.667 248.589 133.273L248.854 132.916C248.95 132.785 249.042 132.648 249.133 132.517L249.352 132.215C249.53 131.958 249.702 131.711 249.86 131.434L249.951 131.303C250.144 130.995 250.332 130.688 250.515 130.375C250.571 130.284 250.622 130.194 250.673 130.103C250.8 129.881 250.927 129.659 251.044 129.433C251.11 129.317 251.166 129.201 251.227 129.085C251.334 128.878 251.44 128.672 251.542 128.465C251.603 128.344 251.659 128.223 251.715 128.107C251.816 127.885 251.918 127.669 252.014 127.447C252.06 127.341 252.111 127.235 252.157 127.124C252.279 126.832 252.401 126.534 252.512 126.237C252.528 126.204 252.542 126.171 252.553 126.136C252.553 126.091 252.589 126.046 252.604 126C252.726 125.667 252.848 125.33 252.96 124.992L253.087 124.569Z" fill="#5D4199" stroke="black" stroke-linecap="round" stroke-linejoin="round"/>
<path d="M205.361 129.17H199.324V145.99H205.361V129.17Z" fill="#5D4199" stroke="black" stroke-linecap="round" stroke-linejoin="round"/>
<path d="M199.324 166.203H174.15V183.022H199.324V166.203Z" fill="#8E64E9" stroke="black" stroke-linecap="round" stroke-linejoin="round"/>
<path d="M226.856 166.202V183.022L205.366 145.99V129.17L226.856 166.202Z" fill="#5D4199" stroke="black" stroke-linecap="round" stroke-linejoin="round"/>
<path d="M255.277 166.203H226.856V183.022H255.277V166.203Z" fill="#8E64E9" stroke="black" stroke-linecap="round" stroke-linejoin="round"/>
<path d="M367.173 68.0908V84.9107L330.51 183.022V166.202L367.173 68.0908Z" fill="#5D4199" stroke="black" stroke-linecap="round" stroke-linejoin="round"/>
<path d="M330.51 166.203H299.004V183.022H330.51V166.203Z" fill="#8E64E9" stroke="black" stroke-linecap="round" stroke-linejoin="round"/>
<path d="M299.004 166.202V183.022L262.345 84.9107V68.0908L299.004 166.202Z" fill="#5D4199" stroke="black" stroke-linecap="round" stroke-linejoin="round"/>
<path d="M402.8 166.203H377.626V183.022H402.8V166.203Z" fill="#8E64E9" stroke="black" stroke-linecap="round" stroke-linejoin="round"/>
<path d="M517.796 101.353H490.112V118.172H517.796V101.353Z" fill="#5D4199" stroke="black" stroke-linecap="round" stroke-linejoin="round"/>
<path d="M481.356 91.9926C477.424 89.8069 472.977 88.6954 468.47 88.7717C468.022 88.7717 467.58 88.7717 467.143 88.802H466.727C466.427 88.802 466.132 88.8373 465.837 88.8625L465.365 88.9028C465.09 88.9263 464.816 88.9566 464.542 88.9935L464.084 89.054C463.796 89.0943 463.507 89.1397 463.215 89.1901L462.849 89.2506C462.443 89.3262 462.041 89.4119 461.65 89.5026L461.508 89.5379C461.162 89.6236 460.817 89.7093 460.492 89.805L460.11 89.921L459.343 90.1679L458.931 90.3091C458.688 90.3948 458.423 90.4905 458.205 90.5813L457.814 90.7425C457.549 90.8484 457.305 90.9643 457.036 91.0853L456.741 91.2163C456.386 91.3827 456.04 91.5591 455.7 91.7456L455.501 91.8565C455.227 92.0077 454.958 92.1639 454.688 92.3252L454.348 92.542C454.129 92.6781 453.911 92.8192 453.697 92.9654L453.342 93.2123L452.717 93.671L452.391 93.923L452.239 94.0339C452.168 94.0894 452.102 94.1549 452.031 94.2154C451.721 94.4674 451.416 94.7194 451.111 95.0067L450.776 95.3142C450.389 95.6771 450.008 96.0501 449.642 96.4433C449.276 96.8364 449.007 97.1439 448.702 97.5017C448.606 97.6227 448.514 97.7437 448.418 97.8596C448.214 98.1066 448.021 98.3636 447.828 98.6106L447.727 98.7467C447.666 98.8274 447.615 98.9131 447.554 98.9987C447.335 99.3012 447.127 99.6086 446.924 99.9211C446.832 100.057 446.746 100.198 446.659 100.339C446.436 100.692 446.228 101.055 446.024 101.423C445.973 101.509 445.923 101.595 445.877 101.685C445.633 102.139 445.399 102.603 445.181 103.076L445.018 103.454C444.856 103.817 444.703 104.18 444.561 104.548C444.53 104.629 444.495 104.71 444.459 104.79C444.424 104.871 444.393 104.992 444.358 105.088C444.271 105.329 444.185 105.592 444.103 105.813C444.022 106.035 443.966 106.222 443.905 106.428C443.844 106.635 443.753 106.932 443.682 107.179L443.514 107.809C443.448 108.066 443.387 108.313 443.326 108.591C443.265 108.868 443.224 109.019 443.184 109.231C443.143 109.442 443.077 109.775 443.026 110.052C442.975 110.33 442.945 110.481 442.909 110.698C442.874 110.914 442.828 111.272 442.787 111.564C442.757 111.776 442.726 111.988 442.701 112.205C442.665 112.512 442.635 112.83 442.609 113.142C442.609 113.349 442.564 113.55 442.548 113.757C442.548 114.11 442.508 114.468 442.487 114.826L442.457 115.33C442.457 115.869 442.427 116.413 442.427 116.968V133.788C442.427 133.233 442.427 132.689 442.457 132.15L442.487 131.645C442.487 131.288 442.523 130.93 442.548 130.577C442.548 130.37 442.589 130.164 442.609 129.962C442.609 129.649 442.665 129.332 442.701 129.024C442.701 128.808 442.757 128.596 442.787 128.384C442.828 128.092 442.864 127.805 442.909 127.517C442.955 127.23 442.985 127.089 443.026 126.872C443.067 126.655 443.128 126.323 443.184 126.051C443.24 125.778 443.275 125.622 443.326 125.41C443.377 125.199 443.448 124.906 443.514 124.629L443.682 123.999C443.753 123.747 443.829 123.495 443.905 123.248C443.981 123.001 444.037 122.84 444.103 122.633C444.169 122.427 444.271 122.129 444.358 121.907C444.444 121.686 444.49 121.55 444.561 121.368C444.703 121 444.856 120.632 445.018 120.274L445.181 119.896C445.399 119.422 445.633 118.959 445.877 118.5C445.923 118.414 445.973 118.329 446.024 118.243C446.228 117.875 446.436 117.512 446.659 117.159C446.746 117.018 446.832 116.877 446.924 116.741C447.127 116.428 447.335 116.121 447.554 115.819L447.828 115.43C448.021 115.178 448.214 114.926 448.418 114.679C448.514 114.564 448.606 114.438 448.702 114.322C449.007 113.959 449.317 113.606 449.642 113.263C449.968 112.92 450.389 112.497 450.776 112.134L451.111 111.827C451.411 111.554 451.721 111.287 452.031 111.035C452.153 110.934 452.27 110.834 452.391 110.743L452.717 110.491C452.925 110.335 453.133 110.178 453.342 110.032L453.697 109.785C453.911 109.639 454.129 109.498 454.348 109.357L454.688 109.145C454.958 108.984 455.227 108.828 455.501 108.676L455.7 108.565C456.04 108.379 456.386 108.203 456.741 108.036L457.036 107.905C457.29 107.784 457.549 107.668 457.814 107.557L458.205 107.401C458.444 107.31 458.688 107.215 458.931 107.129L459.343 106.983C459.597 106.897 459.851 106.816 460.11 106.741L460.492 106.625C460.832 106.529 461.178 106.438 461.508 106.358L461.645 106.353C462.036 106.257 462.438 106.176 462.844 106.101L463.215 106.04C463.5 105.99 463.789 105.944 464.079 105.904L464.536 105.844C464.811 105.81 465.085 105.78 465.36 105.753L465.832 105.713C466.127 105.713 466.422 105.667 466.722 105.652H467.138C467.575 105.632 468.017 105.622 468.465 105.622C472.972 105.546 477.419 106.657 481.351 108.843C483.698 110.161 485.768 111.913 487.449 114.004C488.489 115.306 489.386 116.713 490.127 118.203V101.353C488.225 97.4247 485.167 94.1611 481.356 91.9926Z" fill="#5D4199" stroke="black" stroke-linecap="round" stroke-linejoin="round"/>
<path d="M596.561 87.2393H558.428V104.059H596.561V87.2393Z" fill="#5D4199" stroke="black" stroke-linecap="round" stroke-linejoin="round"/>
<path d="M592.15 125.531H558.428V142.351H592.15V125.531Z" fill="#5D4199" stroke="black" stroke-linecap="round" stroke-linejoin="round"/>
<path d="M596.566 166.203H533.254V183.022H596.566V166.203Z" fill="#8E64E9" stroke="black" stroke-linecap="round" stroke-linejoin="round"/>
<path d="M686.672 96.0449H659.435V112.865H686.672V96.0449Z" fill="#5D4199" stroke="black" stroke-linecap="round" stroke-linejoin="round"/>
<path d="M655.761 88.5648C653.505 86.7502 650.61 85.8413 647.077 85.8379C646.7 85.8379 646.335 85.8379 645.974 85.8732L645.628 85.9085C645.395 85.9085 645.156 85.9488 644.927 85.979L644.531 86.0496C644.327 86.0849 644.129 86.1151 643.931 86.1554C643.733 86.1958 643.667 86.226 643.53 86.2613C643.392 86.2966 643.169 86.352 642.991 86.4075C642.813 86.4629 642.732 86.4982 642.6 86.5435C642.468 86.5889 642.264 86.6595 642.091 86.725C641.919 86.7905 641.837 86.8409 641.715 86.8964C641.593 86.9518 641.405 87.0375 641.258 87.1131C641.111 87.1887 641.019 87.2492 640.902 87.3198C640.786 87.3903 640.618 87.4811 640.486 87.5718C640.354 87.6625 640.257 87.7331 640.145 87.8137C640.033 87.8944 639.927 87.9649 639.82 88.0506L639.698 88.1464C639.465 88.3413 639.243 88.5482 639.032 88.7664C638.966 88.842 638.91 88.9226 638.844 88.9932C638.712 89.1444 638.575 89.2956 638.458 89.4519V89.4771C638.412 89.5325 638.382 89.593 638.341 89.6535C638.209 89.845 638.082 90.0416 637.97 90.2432C637.914 90.3491 637.864 90.4549 637.813 90.5608C637.762 90.6666 637.64 90.9186 637.564 91.1102C637.564 91.1505 637.523 91.1858 637.508 91.2311C637.493 91.2765 637.437 91.4579 637.401 91.5688C637.366 91.6797 637.32 91.8057 637.284 91.9267C637.249 92.0477 637.198 92.2846 637.157 92.466C637.117 92.6475 637.101 92.6979 637.081 92.8239C637.045 93.0306 637.02 93.2422 636.995 93.459C636.995 93.5648 636.995 93.6656 636.959 93.7765C636.959 94.1042 636.918 94.4368 636.918 94.7846V111.604C636.918 111.257 636.918 110.924 636.959 110.596C636.959 110.485 636.959 110.385 636.995 110.279C636.995 110.062 637.045 109.85 637.081 109.644C637.081 109.518 637.132 109.402 637.157 109.286C637.183 109.17 637.239 108.923 637.284 108.747C637.33 108.57 637.361 108.51 637.401 108.389C637.442 108.268 637.503 108.081 637.564 107.93C637.625 107.779 637.726 107.557 637.813 107.381C637.899 107.204 637.914 107.164 637.97 107.063C638.082 106.861 638.209 106.665 638.341 106.473L638.473 106.272C638.59 106.11 638.727 105.964 638.86 105.813L639.048 105.586C639.258 105.368 639.481 105.161 639.713 104.966C639.856 104.85 640.008 104.744 640.161 104.639C640.313 104.533 640.384 104.467 640.501 104.392C640.618 104.316 640.775 104.225 640.918 104.14C641.06 104.054 641.151 103.998 641.278 103.933C641.405 103.867 641.578 103.787 641.726 103.716C641.873 103.646 641.98 103.595 642.107 103.545C642.234 103.494 642.432 103.424 642.615 103.363L643.006 103.222L643.545 103.081C643.682 103.046 643.809 103.006 643.946 102.975C644.083 102.945 644.343 102.905 644.546 102.869L644.942 102.799C645.171 102.769 645.41 102.748 645.643 102.728L645.989 102.693C646.35 102.693 646.716 102.658 647.092 102.658C650.622 102.658 653.517 103.567 655.776 105.385C658.036 107.203 659.264 109.696 659.46 112.865V96.0447C659.247 92.8726 658.014 90.3793 655.761 88.5648Z" fill="#5D4199" stroke="black" stroke-linecap="round" stroke-linejoin="round"/>
<path d="M661.646 138.813V155.628C661.674 154.501 661.459 153.382 661.014 152.345C660.568 151.308 659.903 150.379 659.064 149.619C657.21 147.949 655.066 146.624 652.738 145.708C649.246 144.355 645.683 143.188 642.066 142.21C636.48 140.653 631.016 138.692 625.719 136.343C621.45 134.346 617.717 131.377 614.824 127.679C611.775 123.858 610.25 118.873 610.25 112.724V95.9038C610.25 102.053 611.775 107.038 614.824 110.859C617.717 114.557 621.45 117.526 625.719 119.523C631.008 121.871 636.463 123.832 642.041 125.39C645.658 126.368 649.22 127.535 652.712 128.888C655.042 129.804 657.186 131.131 659.039 132.805C659.883 133.561 660.553 134.49 661.003 135.526C661.453 136.563 661.672 137.684 661.646 138.813Z" fill="#8E64E9"/>
<mask id="mask1_243_208" style="mask-type:luminance" maskUnits="userSpaceOnUse" x="610" y="95" width="52" height="61">
<path d="M661.646 138.813V155.628C661.674 154.501 661.459 153.382 661.014 152.345C660.568 151.308 659.903 150.379 659.064 149.619C657.21 147.949 655.066 146.624 652.738 145.708C649.246 144.355 645.683 143.188 642.066 142.21C636.48 140.653 631.016 138.692 625.719 136.343C621.45 134.346 617.717 131.377 614.824 127.679C611.775 123.858 610.25 118.873 610.25 112.724V95.9038C610.25 102.053 611.775 107.038 614.824 110.859C617.717 114.557 621.45 117.526 625.719 119.523C631.008 121.871 636.463 123.832 642.041 125.39C645.658 126.368 649.22 127.535 652.712 128.888C655.042 129.804 657.186 131.131 659.039 132.805C659.883 133.561 660.553 134.49 661.003 135.526C661.453 136.563 661.672 137.684 661.646 138.813Z" fill="white"/>
</mask>
<g mask="url(#mask1_243_208)">
<path d="M661.646 138.813V155.628C661.674 154.501 661.459 153.382 661.014 152.345C660.568 151.308 659.903 150.379 659.064 149.619C657.21 147.949 655.066 146.624 652.738 145.708C649.246 144.355 645.683 143.188 642.066 142.21C636.48 140.653 631.016 138.692 625.719 136.343C621.45 134.346 617.717 131.377 614.824 127.679C611.775 123.858 610.25 118.873 610.25 112.724V95.9038C610.25 102.053 611.775 107.038 614.824 110.859C617.717 114.557 621.45 117.526 625.719 119.523C631.008 121.871 636.463 123.832 642.041 125.39C645.658 126.368 649.22 127.535 652.712 128.888C655.042 129.804 657.186 131.131 659.039 132.805C659.879 133.564 660.544 134.493 660.989 135.53C661.435 136.566 661.65 137.686 661.62 138.813" fill="#5D4199"/>
<path d="M661.646 138.813V155.628C661.674 154.501 661.459 153.382 661.014 152.345C660.568 151.308 659.903 150.379 659.064 149.619C657.21 147.949 655.066 146.624 652.738 145.708C649.246 144.355 645.683 143.188 642.066 142.21C636.48 140.653 631.016 138.692 625.719 136.343C621.45 134.346 617.717 131.377 614.824 127.679C611.775 123.858 610.25 118.873 610.25 112.724V95.9038C610.25 102.053 611.775 107.038 614.824 110.859C617.717 114.557 621.45 117.526 625.719 119.523C631.008 121.871 636.463 123.832 642.041 125.39C645.658 126.368 649.22 127.535 652.712 128.888C655.042 129.804 657.186 131.131 659.039 132.805C659.879 133.564 660.544 134.493 660.989 135.53C661.435 136.566 661.65 137.686 661.62 138.813" stroke="black" stroke-linecap="round" stroke-linejoin="round"/>
</g>
<path d="M661.646 138.813V155.628C661.674 154.501 661.459 153.382 661.014 152.345C660.568 151.308 659.903 150.379 659.064 149.619C657.21 147.949 655.066 146.624 652.738 145.708C649.246 144.355 645.683 143.188 642.066 142.21C636.48 140.653 631.016 138.692 625.719 136.343C621.45 134.346 617.717 131.377 614.824 127.679C611.775 123.858 610.25 118.873 610.25 112.724V95.9038C610.25 102.053 611.775 107.038 614.824 110.859C617.717 114.557 621.45 117.526 625.719 119.523C631.008 121.871 636.463 123.832 642.041 125.39C645.658 126.368 649.22 127.535 652.712 128.888C655.042 129.804 657.186 131.131 659.039 132.805C659.883 133.561 660.553 134.49 661.003 135.526C661.453 136.563 661.672 137.684 661.646 138.813Z" stroke="black" stroke-linecap="round" stroke-linejoin="round"/>
<path d="M38.9848 66.9419C50.3709 66.9419 59.5499 69.5276 66.5218 74.6991C73.4938 79.8705 77.2203 87.0682 77.7013 96.2922H50.4742C50.2777 93.1268 49.0514 90.6335 46.7952 88.8122C44.5389 86.991 41.6424 86.0837 38.1057 86.0904C35.0567 86.0904 32.604 86.8599 30.7475 88.3989C28.8911 89.9379 27.9578 92.1507 27.9476 95.0371C27.9476 98.2025 29.5178 100.671 32.6582 102.441C35.7986 104.212 40.7108 106.123 47.3948 108.172C52.9382 109.886 58.369 111.94 63.6558 114.322C67.8694 116.311 71.5709 119.226 74.4796 122.845C77.5285 126.575 79.053 131.373 79.053 137.24C79.107 142.647 77.5438 147.947 74.5609 152.473C71.5628 157.039 67.2197 160.675 61.5317 163.38C55.8438 166.085 49.1208 167.429 41.363 167.412C33.8016 167.412 27.0261 166.248 21.0367 163.919C15.0472 161.591 10.2586 158.148 6.67104 153.592C3.08345 149.028 1.1931 143.531 1 137.099H27.8002C28.1898 140.732 29.5144 143.506 31.774 145.421C34.0336 147.336 36.9793 148.291 40.6109 148.284C44.3374 148.284 47.2813 147.467 49.4427 145.834C51.604 144.201 52.683 141.943 52.6796 139.06C52.7083 137.936 52.493 136.82 52.0485 135.786C51.604 134.752 50.9406 133.824 50.1033 133.067C48.2495 131.394 46.1062 130.067 43.7767 129.151C40.2839 127.801 36.7218 126.635 33.1054 125.658C26.4384 123.692 20.9892 121.729 16.758 119.77C12.4868 117.777 8.75307 114.808 5.86307 111.106C2.81412 107.285 1.28965 102.3 1.28965 96.1511C1.28965 87.0246 4.77392 79.8739 11.7425 74.6991C18.711 69.5243 27.7918 66.9385 38.9848 66.9419Z" fill="#FEFFFF" stroke="black" stroke-linecap="round" stroke-linejoin="round"/>
<path d="M157.807 68.3428V87.4862H119.67V107.335H153.391V125.778H119.67V147.301H157.807V166.454H94.4958V68.3428H157.807Z" fill="#FEFFFF" stroke="black" stroke-linecap="round" stroke-linejoin="round"/>
<path d="M231.45 127.598L255.302 166.454H226.876L205.381 129.417H199.324V166.454H174.15V68.3428H216.403C224.554 68.3428 231.499 69.6869 237.237 72.3751C242.976 75.0633 247.27 78.768 250.119 83.4892C252.978 88.2401 254.455 93.683 254.388 99.2153C254.459 105.516 252.414 111.661 248.574 116.68C244.695 121.818 238.987 125.457 231.45 127.598ZM225.352 109.291C227.659 107.151 228.814 104.126 228.817 100.218C228.817 96.4951 227.662 93.5616 225.352 91.4178C223.041 89.2739 219.567 88.2037 214.929 88.207H199.324V112.502H214.929C219.543 112.502 223.004 111.432 225.311 109.291" fill="#FEFFFF"/>
<path d="M225.352 109.291C227.659 107.151 228.814 104.126 228.817 100.218C228.817 96.4951 227.662 93.5616 225.352 91.4178C223.041 89.2739 219.567 88.2037 214.929 88.207H199.324V112.502H214.929C219.543 112.502 223.004 111.432 225.311 109.291M231.45 127.598L255.302 166.454H226.876L205.381 129.417H199.324V166.454H174.15V68.3428H216.403C224.554 68.3428 231.499 69.6869 237.237 72.3751C242.976 75.0633 247.27 78.768 250.119 83.4892C252.978 88.2401 254.455 93.683 254.388 99.2153C254.459 105.516 252.414 111.661 248.574 116.68C244.695 121.818 238.987 125.457 231.45 127.598Z" stroke="black" stroke-linecap="round" stroke-linejoin="round"/>
<path d="M367.173 68.3428L330.51 166.454H299.004L262.345 68.3428H289.141L314.762 142.417L340.526 68.3428H367.173Z" fill="#FEFFFF" stroke="black" stroke-linecap="round" stroke-linejoin="round"/>
<path d="M402.8 68.3428H377.626V166.454H402.8V68.3428Z" fill="#FEFFFF" stroke="black" stroke-linecap="round" stroke-linejoin="round"/>
<path d="M468.759 67.2188C481.029 67.2188 491.531 70.2951 500.265 76.4477C508.998 82.6004 514.839 90.986 517.786 101.604H490.102C488.206 97.6788 485.157 94.414 481.356 92.2393C477.422 90.0576 472.976 88.9481 468.469 89.0236C460.715 89.0236 454.434 91.5858 449.627 96.7102C444.82 101.835 442.414 108.685 442.411 117.26C442.411 125.829 444.816 132.675 449.627 137.8C454.437 142.924 460.718 145.486 468.469 145.486C472.976 145.564 477.423 144.454 481.356 142.27C485.16 140.099 488.209 136.833 490.102 132.905H517.786C514.839 143.531 508.998 151.894 500.265 157.997C491.531 164.099 481.029 167.15 468.759 167.15C458.748 167.15 449.793 165.03 441.893 160.789C434.178 156.738 427.774 150.609 423.416 143.107C419.012 135.567 416.81 126.951 416.81 117.26C416.81 107.569 419.012 98.9263 423.416 91.3321C427.765 83.8063 434.172 77.6552 441.898 73.5898C449.795 69.3492 458.748 67.2255 468.759 67.2188Z" fill="#FEFFFF" stroke="black" stroke-linecap="round" stroke-linejoin="round"/>
<path d="M596.566 68.3428V87.4862H558.428V107.335H592.15V125.778H558.428V147.301H596.566V166.454H533.254V68.3428H596.566Z" fill="#FEFFFF" stroke="black" stroke-linecap="round" stroke-linejoin="round"/>
<path d="M647.951 66.9419C659.333 66.9419 668.511 69.5276 675.483 74.6991C682.455 79.8705 686.181 87.0682 686.662 96.2922H659.425C659.225 93.1268 657.997 90.6335 655.741 88.8122C653.485 86.991 650.59 86.0837 647.056 86.0904C644.007 86.0904 641.553 86.8599 639.693 88.3989C637.833 89.9379 636.902 92.1507 636.898 95.0371C636.898 98.2025 638.469 100.671 641.609 102.441C644.749 104.212 649.662 106.123 656.345 108.172C661.889 109.886 667.32 111.939 672.607 114.322C676.819 116.31 680.519 119.225 683.425 122.845C686.474 126.575 687.999 131.373 687.999 137.24C688.053 142.645 686.494 147.945 683.517 152.473C680.519 157.039 676.174 160.675 670.482 163.38C664.791 166.085 658.068 167.429 650.314 167.412C642.752 167.412 635.977 166.248 629.987 163.919C623.998 161.591 619.208 158.148 615.617 153.592C612.029 149.028 610.14 143.531 609.951 137.099H636.746C637.132 140.732 638.457 143.506 640.72 145.421C642.981 147.331 645.918 148.284 649.557 148.284C653.283 148.284 656.227 147.467 658.388 145.834C660.543 144.206 661.63 141.948 661.63 139.06C661.66 137.937 661.446 136.821 661.003 135.787C660.561 134.753 659.899 133.826 659.064 133.067C657.211 131.393 655.068 130.066 652.738 129.151C649.245 127.8 645.683 126.634 642.066 125.658C636.48 124.099 631.016 122.136 625.719 119.786C621.449 117.79 617.716 114.821 614.824 111.121C611.775 107.3 610.25 102.315 610.25 96.1662C610.25 87.0397 613.736 79.889 620.708 74.7142C627.68 69.5394 636.761 66.9486 647.951 66.9419Z" fill="#FEFFFF" stroke="black" stroke-linecap="round" stroke-linejoin="round"/>
<path d="M680.295 173.063L679.995 173.365L674.878 160.668C675.183 160.47 675.483 160.268 675.777 160.063L676.026 159.892C676.499 159.554 676.956 159.212 677.403 158.884L677.617 158.713C678.064 158.35 678.496 157.987 678.913 157.609L679.05 157.478C679.477 157.085 679.899 156.681 680.295 156.268C680.696 155.85 681.077 155.421 681.448 154.988L681.586 154.826C681.936 154.408 682.272 153.98 682.602 153.546L682.785 153.299C683.034 152.951 683.293 152.604 683.512 152.251C683.73 151.898 684.02 151.49 684.223 151.102L684.391 150.809C684.609 150.431 684.823 150.048 685.016 149.665V149.635C685.219 149.242 685.407 148.844 685.59 148.445C685.636 148.345 685.676 148.239 685.722 148.138C685.89 147.755 686.052 147.367 686.2 146.974C686.202 146.953 686.202 146.933 686.2 146.913C686.332 146.56 686.459 146.202 686.576 145.844C686.611 145.734 686.647 145.628 686.677 145.517C686.759 145.26 686.84 145.013 686.911 144.746L687.018 144.363C687.084 144.106 687.15 143.859 687.211 143.591C687.211 143.475 687.267 143.36 687.292 143.239C687.368 142.886 687.445 142.533 687.506 142.175V142.115C687.572 141.737 687.628 141.359 687.678 140.975L687.724 140.623C687.755 140.35 687.785 140.078 687.811 139.806C687.811 139.67 687.811 139.534 687.846 139.398C687.846 139.126 687.887 138.853 687.902 138.576V138.208C687.902 137.81 687.902 137.417 687.902 137.014V153.834C687.902 154.237 687.902 154.63 687.902 155.028V155.396C687.902 155.673 687.866 155.945 687.846 156.218C687.846 156.354 687.846 156.49 687.811 156.626C687.785 156.898 687.755 157.17 687.724 157.442L687.678 157.795C687.628 158.178 687.572 158.556 687.506 158.934V158.995C687.445 159.353 687.368 159.706 687.292 160.058C687.292 160.174 687.236 160.295 687.211 160.411C687.15 160.668 687.084 160.915 687.018 161.182L686.911 161.565C686.84 161.823 686.759 162.07 686.677 162.337C686.647 162.448 686.611 162.553 686.576 162.664C686.459 163.022 686.332 163.38 686.2 163.733V163.778C686.052 164.171 685.89 164.56 685.722 164.943C685.676 165.043 685.636 165.144 685.59 165.25C685.407 165.648 685.219 166.046 685.016 166.44V166.47C684.817 166.853 684.609 167.236 684.391 167.614L684.223 167.906C683.994 168.289 683.761 168.672 683.512 169.056C683.263 169.439 683.034 169.756 682.785 170.104L682.698 170.23C682.668 170.27 682.632 170.306 682.602 170.351C682.277 170.784 681.941 171.213 681.586 171.631L681.448 171.792C681.077 172.216 680.696 172.644 680.295 173.063Z" fill="#5D4199"/>
<path d="M674.853 160.688L679.97 173.39C679.665 173.698 679.345 174 679.025 174.297L678.887 174.428C678.471 174.806 678.039 175.169 677.592 175.527L677.47 175.633L677.378 175.704C676.931 176.056 676.474 176.399 675.996 176.712L675.757 176.883C675.274 177.216 674.786 177.538 674.278 177.856L674.04 177.997C673.531 178.32 672.988 178.627 672.439 178.929L672.261 179.02C671.682 179.333 671.087 179.635 670.472 179.927C664.781 182.616 658.058 183.96 650.303 183.96C642.749 183.96 635.973 182.794 629.977 180.462C626.435 179.121 623.135 177.22 620.205 174.832L623.62 160.477C625.633 161.73 627.761 162.79 629.977 163.642C635.963 165.974 642.739 167.14 650.303 167.14C658.058 167.14 664.781 165.796 670.472 163.108C671.087 162.815 671.682 162.513 672.261 162.2L672.439 162.11C672.988 161.807 673.521 161.5 674.04 161.177L674.278 161.036C674.471 160.935 674.665 160.814 674.853 160.688Z" fill="#8E64E9"/>
<path d="M623.63 160.517L620.215 174.872C618.525 173.47 616.992 171.892 615.642 170.164C612.061 165.604 610.173 160.107 609.976 153.672V136.852C610.169 143.28 612.058 148.778 615.642 153.344C617.866 156.176 620.569 158.603 623.63 160.517Z" fill="#5D4199"/>
<path d="M679.97 173.39L680.27 173.088C680.671 172.669 681.052 172.241 681.423 171.807L681.56 171.646C681.911 171.228 682.246 170.799 682.577 170.366C682.607 170.32 682.643 170.285 682.673 170.245L682.76 170.119C683.009 169.771 683.268 169.423 683.486 169.07C683.705 168.718 683.994 168.304 684.198 167.921L684.365 167.629C684.584 167.251 684.792 166.868 684.99 166.485V166.454C685.194 166.061 685.382 165.663 685.565 165.265C685.61 165.159 685.651 165.058 685.697 164.957C685.864 164.574 686.027 164.186 686.174 163.793V163.748C686.306 163.395 686.433 163.037 686.55 162.679C686.586 162.568 686.622 162.462 686.652 162.351C686.733 162.094 686.815 161.847 686.886 161.58L686.992 161.197C687.059 160.94 687.125 160.693 687.186 160.426C687.186 160.31 687.241 160.189 687.267 160.073C687.343 159.72 687.419 159.368 687.48 159.01V158.949C687.546 158.571 687.602 158.193 687.653 157.81L687.699 157.457C687.729 157.185 687.76 156.913 687.785 156.641C687.785 156.505 687.785 156.369 687.821 156.232C687.821 155.96 687.861 155.688 687.877 155.411V155.043C687.877 154.645 687.877 154.252 687.877 153.848V136.988C687.877 137.391 687.877 137.785 687.877 138.183V138.551C687.877 138.828 687.841 139.1 687.821 139.372C687.821 139.508 687.821 139.644 687.785 139.781C687.76 140.053 687.729 140.325 687.699 140.597L687.653 140.95C687.602 141.333 687.546 141.711 687.48 142.089V142.15C687.419 142.507 687.343 142.86 687.267 143.213C687.267 143.334 687.211 143.45 687.186 143.566C687.125 143.823 687.059 144.07 686.992 144.337L686.886 144.72C686.815 144.977 686.733 145.224 686.652 145.491C686.622 145.602 686.586 145.708 686.55 145.819C686.433 146.177 686.306 146.535 686.174 146.888C686.176 146.908 686.176 146.928 686.174 146.948C686.027 147.341 685.864 147.729 685.697 148.112C685.651 148.213 685.61 148.319 685.565 148.42C685.382 148.818 685.194 149.216 684.99 149.609V149.64C684.797 150.023 684.584 150.406 684.365 150.784L684.198 151.076C683.969 151.464 683.735 151.847 683.486 152.225C683.237 152.603 683.009 152.926 682.76 153.274L682.577 153.521C682.251 153.954 681.916 154.383 681.56 154.801L681.423 154.962C681.052 155.396 680.671 155.824 680.27 156.243C679.873 156.656 679.451 157.059 679.025 157.452L678.887 157.583C678.471 157.961 678.039 158.324 677.592 158.687L677.378 158.858C676.931 159.211 676.474 159.554 676.001 159.867L675.752 160.038C675.457 160.243 675.157 160.445 674.853 160.643C674.665 160.769 674.471 160.89 674.278 161.011L674.04 161.152C673.531 161.474 672.988 161.782 672.439 162.084L672.261 162.175C671.682 162.488 671.087 162.79 670.472 163.082C664.781 165.771 658.058 167.115 650.303 167.115C642.749 167.115 635.973 165.949 629.977 163.617C627.761 162.765 625.633 161.705 623.62 160.451C620.559 158.558 617.851 156.154 615.617 153.344C612.036 148.784 610.147 143.287 609.951 136.852V153.672C610.144 160.1 612.032 165.598 615.617 170.164C616.966 171.892 618.5 173.47 620.19 174.872C623.119 177.26 626.419 179.161 629.962 180.502C635.948 182.834 642.723 184 650.288 184C658.043 184 664.766 182.656 670.457 179.968C671.072 179.675 671.666 179.373 672.246 179.06L672.424 178.97C672.972 178.667 673.506 178.36 674.024 178.037L674.263 177.896C674.771 177.579 675.279 177.256 675.742 176.923L675.981 176.752C676.458 176.414 676.916 176.071 677.363 175.744L677.454 175.673L677.576 175.567C678.024 175.21 678.455 174.847 678.872 174.469L679.009 174.338C679.345 173.995 679.645 173.692 679.97 173.39Z" stroke="black" stroke-linecap="round" stroke-linejoin="round"/>
<path d="M623.63 160.517L620.215 174.872" stroke="black" stroke-linecap="round" stroke-linejoin="round"/>
<path d="M679.97 173.385L674.853 160.688" stroke="black" stroke-linecap="round" stroke-linejoin="round"/>
<path d="M517.796 132.659V149.479C517.593 150.194 517.38 150.9 517.156 151.601C517.08 151.827 516.999 152.049 516.922 152.276C516.766 152.743 516.597 153.207 516.414 153.667L516.323 153.929C516.191 154.267 516.053 154.605 515.921 154.937L515.784 155.28C515.554 155.828 515.315 156.372 515.067 156.913C515.007 157.054 514.935 157.19 514.869 157.331C514.681 157.735 514.488 158.128 514.29 158.521C514.199 158.697 514.107 158.869 514.021 159.025C513.823 159.398 513.619 159.771 513.411 160.139L513.162 160.588C512.867 161.092 512.572 161.596 512.262 162.1L512.156 162.261C511.876 162.694 511.592 163.123 511.297 163.546C511.195 163.698 511.089 163.849 510.982 163.995C510.875 164.141 510.733 164.353 510.606 164.499C510.479 164.645 510.362 164.822 510.24 165.003L509.935 165.401C509.59 165.85 509.234 166.288 508.873 166.722C508.502 167.155 508.126 167.584 507.74 168.007C507.623 168.133 507.506 168.254 507.394 168.38C507.1 168.693 506.8 169 506.495 169.307L506.149 169.66C505.738 170.064 505.321 170.462 504.894 170.85L504.782 170.946C504.386 171.303 503.985 171.656 503.573 171.999L503.166 172.332L502.714 172.705C502.531 172.856 502.338 172.997 502.15 173.143L501.972 173.279L496.626 160.023C497.871 159.307 499.086 158.541 500.27 157.715C500.778 157.372 501.246 157.014 501.723 156.656L502.15 156.323C502.496 156.056 502.836 155.789 503.166 155.517L503.573 155.179C503.985 154.831 504.391 154.484 504.787 154.126L504.894 154.03C505.321 153.642 505.738 153.244 506.149 152.84L506.495 152.488C506.8 152.18 507.1 151.873 507.394 151.555C507.511 151.434 507.623 151.313 507.735 151.187C508.126 150.764 508.502 150.335 508.873 149.902C509.234 149.468 509.59 149.03 509.935 148.581L510.235 148.183C510.489 147.85 510.743 147.508 510.982 147.175L511.297 146.721C511.592 146.298 511.876 145.87 512.156 145.436L512.262 145.275C512.572 144.771 512.867 144.267 513.162 143.763L513.411 143.314C513.619 142.946 513.823 142.573 514.021 142.2C514.107 142.024 514.199 141.852 514.29 141.696C514.486 141.303 514.68 140.905 514.869 140.502C514.935 140.36 515.007 140.224 515.067 140.083C515.318 139.546 515.557 139.001 515.784 138.45L515.921 138.112C516.089 137.689 516.251 137.266 516.429 136.837C516.607 136.409 516.76 135.915 516.938 135.446C517.014 135.219 517.095 134.997 517.171 134.771C517.38 134.075 517.593 133.374 517.796 132.659Z" fill="#5D4199"/>
<path d="M501.977 173.309L501.728 173.506C501.251 173.864 500.768 174.222 500.275 174.564C491.535 180.667 481.033 183.718 468.769 183.718C458.759 183.718 449.801 181.599 441.898 177.362C438.941 175.782 436.155 173.906 433.584 171.762L439.647 159.277C440.379 159.72 441.127 160.147 441.893 160.557C449.793 164.798 458.75 166.918 468.764 166.918C479.375 166.918 488.664 164.635 496.632 160.068L501.977 173.309Z" fill="#8E64E9"/>
<path d="M439.647 159.277L433.579 171.777C429.512 168.358 426.074 164.265 423.416 159.68C419.012 152.137 416.81 143.519 416.81 133.828V117.008C416.798 120.512 417.111 124.01 417.745 127.457C418.73 132.879 420.656 138.091 423.437 142.861C427.346 149.61 432.925 155.26 439.647 159.277Z" fill="#5D4199"/>
<path d="M501.977 173.31L502.155 173.174C502.343 173.027 502.536 172.886 502.719 172.735L503.171 172.362L503.578 172.029C503.989 171.687 504.391 171.334 504.787 170.976L504.899 170.88C505.326 170.492 505.743 170.094 506.154 169.691L506.5 169.338C506.805 169.03 507.104 168.723 507.399 168.41C507.511 168.284 507.628 168.163 507.745 168.037C508.131 167.614 508.507 167.186 508.878 166.752C509.239 166.319 509.594 165.88 509.94 165.432L510.245 165.033C510.367 164.867 510.494 164.711 510.611 164.529C510.728 164.348 510.86 164.176 510.987 164.025C511.114 163.874 511.2 163.728 511.302 163.577C511.597 163.153 511.881 162.725 512.161 162.291L512.267 162.13C512.577 161.626 512.872 161.122 513.167 160.618L513.416 160.169C513.624 159.801 513.827 159.428 514.026 159.055C514.112 158.879 514.203 158.708 514.295 158.551C514.493 158.158 514.686 157.765 514.874 157.362C514.94 157.221 515.011 157.085 515.072 156.943C515.323 156.406 515.562 155.861 515.789 155.31L515.926 154.968C516.058 154.635 516.195 154.297 516.328 153.96L516.419 153.697C516.585 153.237 516.754 152.773 516.927 152.306C517.003 152.079 517.085 151.858 517.161 151.631C517.385 150.93 517.598 150.225 517.801 149.509V132.659C517.598 133.375 517.385 134.08 517.161 134.781C517.085 135.008 517.003 135.229 516.927 135.456C516.771 135.923 516.602 136.387 516.419 136.847C516.256 137.276 516.094 137.699 515.911 138.123L515.774 138.46C515.543 139.008 515.304 139.552 515.057 140.093C514.996 140.235 514.925 140.371 514.859 140.512C514.669 140.915 514.476 141.313 514.28 141.706C514.188 141.878 514.097 142.049 514.01 142.21C513.812 142.583 513.609 142.956 513.401 143.324L513.152 143.773C512.857 144.277 512.562 144.781 512.252 145.285L512.145 145.446C511.866 145.88 511.581 146.308 511.287 146.732L510.972 147.185C510.728 147.523 510.463 147.866 510.225 148.193L509.925 148.592C509.579 149.04 509.223 149.479 508.863 149.912C508.492 150.346 508.116 150.774 507.724 151.197C507.613 151.323 507.501 151.444 507.384 151.565C507.089 151.883 506.789 152.19 506.485 152.498L506.139 152.851C505.727 153.254 505.311 153.652 504.884 154.04L504.777 154.136C504.381 154.494 503.974 154.842 503.563 155.189L503.156 155.527C502.826 155.799 502.485 156.066 502.14 156.334L501.713 156.666C501.235 157.024 500.753 157.382 500.26 157.725C499.076 158.551 497.861 159.317 496.616 160.033C488.658 164.613 479.373 166.903 468.759 166.903C458.748 166.903 449.791 164.783 441.888 160.542C441.122 160.132 440.373 159.706 439.641 159.262C432.914 155.252 427.328 149.607 423.411 142.861C420.63 138.091 418.704 132.879 417.72 127.457C417.085 124.01 416.772 120.512 416.785 117.008V133.828C416.785 143.516 418.987 152.133 423.391 159.68C426.048 164.265 429.487 168.358 433.554 171.777C436.124 173.921 438.91 175.798 441.867 177.377C449.788 181.608 458.752 183.721 468.759 183.718C481.026 183.718 491.528 180.667 500.265 174.565C500.773 174.222 501.24 173.864 501.718 173.506L501.977 173.31Z" stroke="black" stroke-linecap="round" stroke-linejoin="round"/>
<path d="M439.647 159.262L433.579 171.762" stroke="black" stroke-linecap="round" stroke-linejoin="round"/>
<path d="M501.977 173.309L496.632 160.053" stroke="black" stroke-linecap="round" stroke-linejoin="round"/>
<path d="M79.0326 136.988V153.808C79.0326 154.211 79.0326 154.605 79.0072 155.003C79.0072 155.124 79.0072 155.245 79.0072 155.371C79.0072 155.643 78.9767 155.92 78.9513 156.192C78.9513 156.328 78.9513 156.464 78.9157 156.595C78.8903 156.873 78.8649 157.145 78.8293 157.417C78.8293 157.533 78.8293 157.649 78.7887 157.765C78.7328 158.148 78.6769 158.531 78.6108 158.909C78.6108 158.909 78.6108 158.939 78.6108 158.954C78.5448 159.312 78.4736 159.675 78.3923 160.028C78.3669 160.149 78.3415 160.265 78.311 160.381C78.25 160.638 78.1891 160.885 78.1179 161.152C78.0823 161.278 78.0519 161.409 78.0163 161.535C77.9401 161.792 77.8638 162.039 77.7825 162.306C77.747 162.412 77.7165 162.523 77.6809 162.634C77.5589 162.992 77.437 163.35 77.2998 163.702V163.738C77.1473 164.138 76.9779 164.531 76.7916 164.917C76.751 165.018 76.7052 165.119 76.6595 165.225C76.4766 165.623 76.2885 166.021 76.0853 166.419C75.8871 166.807 75.6737 167.19 75.4552 167.573L75.2875 167.866C75.0588 168.249 74.825 168.632 74.576 169.015C74.3271 169.398 74.0933 169.721 73.8443 170.063L73.7579 170.189L73.6614 170.31C73.3362 170.749 73.0008 171.177 72.6451 171.596L72.5079 171.752C72.1369 172.19 71.7558 172.619 71.3543 173.032L71.3289 173.062C71.085 173.315 70.8208 173.567 70.5769 173.808L65.4038 160.986C65.8866 160.688 66.3591 160.376 66.8165 160.058L67.0604 159.887C67.533 159.549 67.9903 159.206 68.4375 158.854L68.6509 158.682C69.093 158.319 69.53 157.951 69.9467 157.573L70.0789 157.452C70.5125 157.059 70.9292 156.656 71.3289 156.243L71.3543 156.212C71.7558 155.799 72.1369 155.371 72.5079 154.937L72.6451 154.776C72.9957 154.358 73.3311 153.929 73.6614 153.491L73.8443 153.244C74.0933 152.901 74.3525 152.548 74.576 152.195C74.7996 151.842 75.0842 151.429 75.2875 151.046L75.4552 150.754C75.6737 150.371 75.8871 149.987 76.0853 149.599C76.2885 149.206 76.4766 148.803 76.6595 148.405C76.7052 148.304 76.751 148.203 76.7916 148.097C76.9644 147.708 77.1338 147.314 77.2998 146.918V146.873C77.437 146.52 77.5589 146.162 77.6809 145.804L77.7825 145.476C77.8638 145.219 77.9401 144.972 78.0163 144.705C78.0519 144.579 78.0823 144.448 78.1179 144.322C78.1891 144.065 78.25 143.818 78.311 143.551C78.3415 143.435 78.3669 143.319 78.3923 143.198C78.4736 142.845 78.5448 142.487 78.6108 142.124C78.6108 142.124 78.6108 142.094 78.6108 142.079C78.6769 141.701 78.7328 141.318 78.7887 140.94C78.7887 140.819 78.7887 140.703 78.8293 140.587C78.8649 140.315 78.8903 140.043 78.9157 139.771C78.9157 139.634 78.9157 139.498 78.9513 139.362C78.9513 139.09 78.9919 138.813 79.0072 138.541C79.0072 138.415 79.0072 138.294 79.0072 138.173C79.0021 137.785 79.0326 137.392 79.0326 136.988Z" fill="#5D4199"/>
<path d="M70.5515 173.839L70.0434 174.302L69.9112 174.423C69.4946 174.801 69.0575 175.169 68.6154 175.527L68.4935 175.633L68.402 175.704C67.9548 176.057 67.4975 176.399 67.0249 176.712L66.8064 176.918C66.3287 177.251 65.8358 177.579 65.3327 177.891L65.0939 178.037C64.5857 178.355 64.0369 178.662 63.4881 178.965L63.3154 179.056C62.7361 179.368 62.1415 179.671 61.5266 179.963C55.8353 182.651 49.1123 183.995 41.3579 183.995C33.7999 183.995 27.0244 182.829 21.0316 180.497C17.4162 179.133 14.0553 177.181 11.0869 174.721L14.4967 160.396C16.5589 161.704 18.7482 162.803 21.0316 163.677C27.0177 166.009 33.7931 167.175 41.3579 167.175C49.1123 167.175 55.8353 165.831 61.5266 163.143C62.1415 162.851 62.7361 162.548 63.3154 162.236L63.4881 162.145C64.0369 161.848 64.5705 161.535 65.0939 161.218L65.3327 161.071L65.3937 161.031L70.5515 173.839Z" fill="#8E64E9"/>
<path d="M14.4916 160.401L11.0818 174.726C9.45723 173.36 7.97912 171.831 6.67104 170.164C3.08345 165.594 1.1931 160.097 1 153.672V136.852C1.1931 143.28 3.08345 148.778 6.67104 153.344C8.85238 156.122 11.4975 158.509 14.4916 160.401Z" fill="#5D4199"/>
<path d="M70.5515 173.839C70.8056 173.592 71.0597 173.335 71.3036 173.093L71.329 173.062C71.7304 172.649 72.1116 172.221 72.4825 171.782L72.6197 171.626C72.9704 171.207 73.3057 170.779 73.636 170.341L73.7326 170.22L73.819 170.094C74.068 169.751 74.3271 169.398 74.5507 169.045C74.7743 168.692 75.0589 168.279 75.2621 167.896L75.4298 167.604C75.6483 167.221 75.8618 166.837 76.06 166.449C76.2632 166.051 76.4512 165.653 76.6342 165.255C76.6799 165.149 76.7256 165.048 76.7663 164.947C76.9391 164.557 77.1085 164.164 77.2745 163.768V163.733C77.4117 163.38 77.5336 163.022 77.6556 162.664C77.6911 162.553 77.7216 162.442 77.7572 162.336C77.8385 162.079 77.9147 161.832 77.9909 161.565C78.0265 161.439 78.057 161.308 78.0926 161.182C78.1637 160.925 78.2247 160.678 78.2857 160.411C78.3162 160.295 78.3416 160.179 78.367 160.058C78.4483 159.705 78.5194 159.342 78.5855 158.984C78.5855 158.984 78.5855 158.954 78.5855 158.939C78.6516 158.561 78.7075 158.178 78.7633 157.795C78.7633 157.679 78.7634 157.563 78.804 157.447C78.8396 157.175 78.865 156.903 78.8904 156.626C78.8904 156.495 78.8904 156.358 78.926 156.222C78.926 155.95 78.9666 155.673 78.9819 155.401C78.9819 155.275 78.9819 155.154 78.9819 155.033C78.9819 154.635 79.0073 154.241 79.0073 153.838V136.988C79.0073 137.391 79.0073 137.785 78.9819 138.183C78.9819 138.304 78.9819 138.425 78.9819 138.551C78.9819 138.823 78.9514 139.1 78.926 139.372C78.926 139.508 78.926 139.644 78.8904 139.781C78.865 140.053 78.8396 140.325 78.804 140.597C78.804 140.713 78.804 140.829 78.7633 140.95C78.7075 141.328 78.6516 141.711 78.5855 142.089C78.5855 142.089 78.5855 142.119 78.5855 142.134C78.5194 142.497 78.4483 142.855 78.367 143.208C78.3416 143.329 78.3162 143.445 78.2857 143.561C78.2247 143.818 78.1637 144.065 78.0926 144.332C78.057 144.458 78.0265 144.589 77.9909 144.715C77.9147 144.972 77.8385 145.219 77.7572 145.486L77.6556 145.814C77.5336 146.172 77.4117 146.53 77.2745 146.882V146.928C77.122 147.328 76.9526 147.721 76.7663 148.107C76.7256 148.213 76.6799 148.314 76.6342 148.415C76.4512 148.813 76.2632 149.216 76.06 149.609C75.8618 149.997 75.6483 150.381 75.4298 150.764L75.2621 151.056C75.0335 151.439 74.7997 151.822 74.5507 152.205C74.3017 152.588 74.068 152.911 73.819 153.254L73.636 153.501C73.3108 153.939 72.9754 154.367 72.6197 154.786L72.4825 154.947C72.1116 155.381 71.7304 155.809 71.329 156.222L71.3036 156.253C70.9038 156.666 70.4872 157.069 70.0535 157.462L69.9214 157.583C69.5047 157.961 69.0677 158.329 68.6256 158.692L68.4122 158.864C67.965 159.216 67.5077 159.559 67.0351 159.897L66.7912 160.068C66.3338 160.386 65.8612 160.698 65.3785 160.996L65.3175 161.036L65.0787 161.182C64.5705 161.5 64.0217 161.812 63.4729 162.11L63.3001 162.2C62.7208 162.513 62.1263 162.815 61.5114 163.108C55.82 165.796 49.0971 167.14 41.3426 167.14C33.7846 167.14 27.0092 165.974 21.0163 163.642C18.7329 162.767 16.5437 161.668 14.4814 160.361C11.4873 158.469 8.84221 156.082 6.66088 153.304C3.08006 148.771 1.1931 143.287 1 136.852V153.672C1.1931 160.097 3.08345 165.594 6.67104 170.164C7.97912 171.831 9.45723 173.36 11.0818 174.726C14.0502 177.186 17.4111 179.138 21.0265 180.502C27.0126 182.834 33.788 184 41.3528 184C49.1073 184 55.8302 182.656 61.5216 179.968C62.1364 179.675 62.731 179.373 63.3103 179.06L63.4831 178.97C64.0319 178.667 64.5654 178.36 65.0888 178.042L65.3277 177.896C65.8358 177.584 66.344 177.256 66.8013 176.923L67.0452 176.757C67.5178 176.419 67.9752 176.077 68.4223 175.749L68.5138 175.678L68.6358 175.572C69.0779 175.215 69.5149 174.847 69.9316 174.469L70.0637 174.348L70.5515 173.839Z" stroke="black" stroke-linecap="round" stroke-linejoin="round"/>
<path d="M14.4915 160.401L11.0818 174.726" stroke="black" stroke-linecap="round" stroke-linejoin="round"/>
<path d="M70.5515 173.839L65.3784 161.016" stroke="black" stroke-linecap="round" stroke-linejoin="round"/>
<mask id="mask2_243_208" style="mask-type:alpha" maskUnits="userSpaceOnUse" x="78" y="0" width="532" height="138">
<ellipse cx="344.006" cy="68.5496" rx="265.766" ry="68.5496" fill="#D9D9D9"/>
</mask>
<g mask="url(#mask2_243_208)">
<path d="M41.3478 167.271C33.8474 167.271 27.0431 166.102 21.118 163.793C15.1929 161.485 10.401 158.042 6.86929 153.531C3.38841 149.1 1.49807 143.687 1.25415 137.447H27.5716C27.9985 141.021 29.3553 143.798 31.6369 145.703C33.9185 147.608 36.9573 148.632 40.6364 148.632C44.4069 148.632 47.4254 147.79 49.6206 146.111C51.8158 144.433 52.9592 142.079 52.9592 139.136C52.9879 137.975 52.7656 136.821 52.3071 135.753C51.8487 134.684 51.1648 133.725 50.3015 132.941C48.4229 131.252 46.2544 129.91 43.8987 128.979C40.3959 127.619 36.8238 126.441 33.1969 125.451C27.6253 123.896 22.1752 121.94 16.8902 119.599C12.6625 117.621 8.96204 114.686 6.08673 111.03C3.06827 107.29 1.55396 102.32 1.55396 96.2719C1.55396 87.2395 5.03484 80.0922 11.9255 74.9963C18.8161 69.9005 27.9019 67.2896 38.9849 67.2896C50.271 67.2896 59.4839 69.8854 66.3695 74.9963C73.255 80.1073 76.8985 87.1588 77.4422 96.1358H50.7131C50.6453 94.7061 50.2755 93.3064 49.6278 92.0275C48.98 90.7485 48.0687 89.6187 46.9528 88.7113C44.6559 86.8665 41.6781 85.929 38.1057 85.929C35.0111 85.929 32.4804 86.7254 30.585 88.298C28.6896 89.8706 27.6783 92.174 27.6783 95.1277C27.6783 98.3838 29.3045 100.949 32.516 102.754C35.7276 104.558 40.6465 106.464 47.2932 108.505C52.8352 110.219 58.2658 112.269 63.5543 114.644C67.7286 116.623 71.3976 119.513 74.2866 123.097C77.2745 126.766 78.7939 131.555 78.7939 137.336C78.8402 142.693 77.2917 147.944 74.3425 152.432C71.385 156.938 67.0352 160.577 61.4149 163.244C55.7947 165.91 49.021 167.271 41.3478 167.271Z" fill="#AEEF24"/>
<path d="M38.9848 67.5416C50.2151 67.5416 59.3771 70.1173 66.2169 75.198C72.9043 80.1427 76.5783 87.1135 77.1728 95.8839H50.9468C50.8501 94.461 50.4602 93.0729 49.8011 91.8054C49.1421 90.5379 48.228 89.418 47.1153 88.5148C44.7676 86.6347 41.739 85.6871 38.1057 85.6871C34.95 85.6871 32.3635 86.5037 30.4223 88.1115C28.4812 89.7194 27.4394 92.1086 27.4394 95.1379C27.4394 98.4897 29.1113 101.131 32.4041 102.986C35.5649 104.765 40.5347 106.711 47.2271 108.757C52.7505 110.462 58.1625 112.504 63.4322 114.871C67.5837 116.829 71.2326 119.697 74.1036 123.258C77.0559 126.877 78.555 131.615 78.555 137.336C78.6028 142.643 77.0683 147.846 74.1442 152.291C71.2121 156.762 66.8979 160.356 61.3234 163.017C55.7489 165.678 49.0107 167.019 41.3731 167.019C33.9083 167.019 27.1447 165.855 21.2399 163.561C15.3351 161.268 10.6042 157.851 7.09789 153.38C3.69324 149.05 1.8283 143.778 1.55389 137.699H27.348C27.8104 141.227 29.1875 143.99 31.4437 145.895C33.7812 147.876 36.8658 148.884 40.5906 148.884C44.417 148.884 47.4913 148.022 49.7374 146.333C51.9835 144.645 53.1776 142.195 53.1776 139.156C53.2069 137.96 52.9776 136.772 52.5052 135.671C52.0327 134.57 51.3281 133.583 50.4387 132.775C48.5392 131.057 46.3448 129.692 43.9596 128.742C40.4487 127.381 36.868 126.203 33.2324 125.214C27.6755 123.663 22.2406 121.711 16.9714 119.372C12.7805 117.415 9.11134 114.51 6.25943 110.889C3.28671 107.179 1.80797 102.255 1.80797 96.272C1.80797 87.3454 5.25328 80.2687 12.0575 75.2232C18.8617 70.1778 27.9578 67.5416 38.9848 67.5416ZM38.9848 67.0376C27.8053 67.0376 18.7279 69.6233 11.7526 74.7948C4.7773 79.9662 1.29304 87.1253 1.29981 96.272C1.29981 102.421 2.82429 107.406 5.87323 111.227C8.76462 114.927 12.498 117.896 16.7681 119.891C22.0636 122.241 27.5257 124.202 33.1105 125.758C36.7274 126.737 40.2895 127.904 43.7818 129.256C46.1113 130.173 48.2545 131.5 50.1084 133.173C50.9477 133.932 51.6122 134.862 52.0568 135.898C52.5014 136.935 52.7155 138.055 52.6847 139.181C52.6847 142.064 51.6057 144.322 49.4477 145.955C47.2898 147.588 44.3458 148.405 40.616 148.405C36.9776 148.405 34.0319 147.449 31.7791 145.537C29.5263 143.625 28.2017 140.853 27.8053 137.22H1C1.19988 143.652 3.09022 149.149 6.67104 153.712C10.2519 158.276 15.037 161.723 21.0265 164.055C27.0126 166.384 33.788 167.548 41.3528 167.548C49.1039 167.548 55.8268 166.204 61.5216 163.516C67.2163 160.828 71.5594 157.194 74.5507 152.614C77.5336 148.089 79.0968 142.788 79.0428 137.382C79.0428 131.508 77.5184 126.709 74.4694 122.986C71.5673 119.351 67.8672 116.42 63.6508 114.417C58.3639 112.036 52.9331 109.982 47.3897 108.268C40.7125 106.218 35.8003 104.308 32.6531 102.537C29.5059 100.766 27.9357 98.2965 27.9425 95.1278C27.9425 92.2447 28.8758 90.0319 30.7425 88.4896C32.6091 86.9472 35.0635 86.1811 38.1057 86.1912C41.6357 86.1912 44.5322 87.1001 46.7952 88.918C49.0582 90.7359 50.2845 93.2292 50.4742 96.398H77.7115C77.2169 87.174 73.4904 79.9763 66.532 74.8049C59.5736 69.6334 50.3912 67.0443 38.9848 67.0376Z" fill="black"/>
<path d="M94.75 166.294V68.686H157.553V87.3305H119.416V107.679H153.137V125.622H119.416V147.649H157.553V166.294H94.75Z" fill="#AEEF24"/>
<path d="M157.299 68.9378V87.0833H119.147V107.93H152.868V125.37H119.147V147.901H157.258V166.046H95.004V68.9378H157.299ZM157.807 68.4338H94.4958V166.545H157.807V147.392H119.655V125.869H153.376V107.426H119.655V87.5823H157.767V68.4287L157.807 68.4338Z" fill="black"/>
<path d="M231.45 127.694L255.302 166.545H226.876L205.361 129.538H199.324V166.57H174.15V68.4336H216.403C224.554 68.4336 231.499 69.7777 237.237 72.4659C242.976 75.1541 247.27 78.8504 250.119 83.5548C252.978 88.304 254.455 93.7452 254.388 99.2759C254.46 105.578 252.415 111.725 248.574 116.746C244.695 121.914 238.987 125.563 231.45 127.694ZM225.311 109.377C227.618 107.23 228.773 104.205 228.777 100.304C228.777 96.5809 227.621 93.6457 225.311 91.4985C223.001 89.3513 219.54 88.2794 214.929 88.2827H199.324V112.598H214.929C219.543 112.598 223.004 111.527 225.311 109.387" fill="#AEEF24"/>
<path d="M225.311 109.377C227.618 107.23 228.773 104.205 228.777 100.304C228.777 96.5809 227.621 93.6457 225.311 91.4985C223.001 89.3513 219.54 88.2794 214.929 88.2827H199.324V112.598H214.929C219.543 112.598 223.004 111.527 225.311 109.387M231.45 127.694L255.302 166.545H226.876L205.361 129.538H199.324V166.57H174.15V68.4336H216.403C224.554 68.4336 231.499 69.7777 237.237 72.4659C242.976 75.1541 247.27 78.8504 250.119 83.5548C252.978 88.304 254.455 93.7452 254.388 99.2759C254.46 105.578 252.415 111.725 248.574 116.746C244.695 121.914 238.987 125.563 231.45 127.694Z" stroke="black" stroke-miterlimit="10"/>
<path d="M299.182 166.294L262.706 68.686H288.958L314.757 143.284L340.708 68.686H366.813L330.332 166.294H299.182Z" fill="#AEEF24"/>
<path d="M366.447 68.9376L330.159 166.041H299.36L263.072 68.9376H288.775L314.279 142.674L314.757 144.06L315.24 142.674L340.886 68.9376H366.447ZM367.173 68.4336H340.526L314.757 142.528L289.141 68.4336H262.345L299.004 166.545H330.51L367.173 68.4336Z" fill="black"/>
<path d="M402.546 68.686H377.88V166.294H402.546V68.686Z" fill="#AEEF24"/>
<path d="M402.292 68.9376V166.041H378.134V68.9376H402.292ZM402.8 68.4336H377.626V166.545H402.8V68.4336Z" fill="black"/>
<path d="M468.759 166.994C458.83 166.994 449.83 164.862 442.01 160.663C434.347 156.621 427.981 150.529 423.635 143.077C419.259 135.607 417.029 126.948 417.029 117.371C417.029 107.794 419.249 99.0896 423.635 91.5744C427.968 84.0994 434.336 77.9857 442.01 73.9329C449.845 69.699 458.845 67.5669 468.759 67.5669C480.919 67.5669 491.469 70.6567 500.122 76.7455C508.68 82.794 514.514 91.0754 517.456 101.443H490.269C488.335 97.5335 485.269 94.285 481.463 92.1137C477.489 89.9132 473 88.7917 468.449 88.8626C460.659 88.8626 454.256 91.4786 449.419 96.6349C444.581 101.791 442.137 108.732 442.137 117.351C442.137 125.97 444.586 132.921 449.419 138.067C454.251 143.213 460.654 145.834 468.449 145.834C473 145.905 477.489 144.784 481.463 142.583C485.264 140.412 488.323 137.163 490.249 133.254H517.44C514.498 143.622 508.665 151.903 500.107 157.886C491.474 163.929 480.919 166.994 468.759 166.994Z" fill="#AEEF24"/>
<path d="M468.759 67.819C480.863 67.819 491.367 70.8936 499.975 76.9522C508.395 82.8797 514.163 91.0301 517.12 101.192H490.427C488.473 97.2993 485.404 94.0659 481.605 91.897C477.594 89.6743 473.063 88.5406 468.469 88.6107C460.608 88.6107 454.139 91.2518 449.251 96.4636C444.362 101.675 441.903 108.687 441.903 117.351C441.903 126.016 444.367 133.067 449.251 138.239C454.134 143.41 460.603 146.086 468.469 146.086C473.063 146.158 477.594 145.026 481.605 142.805C485.406 140.636 488.475 137.4 490.427 133.506H517.125C514.168 143.672 508.4 151.797 499.985 157.7C491.347 163.713 480.868 166.772 468.764 166.772C458.88 166.772 449.922 164.65 442.137 160.472C434.509 156.455 428.17 150.395 423.843 142.982C419.493 135.547 417.288 126.938 417.288 117.381C417.288 107.825 419.493 99.1905 423.843 91.7105C428.156 84.2679 434.496 78.1817 442.137 74.1497C449.927 69.9712 458.906 67.8492 468.764 67.8492M468.764 67.3452C458.753 67.3452 449.798 69.4655 441.898 73.7062C434.17 77.7712 427.763 83.9268 423.421 91.4585C419.017 99.0494 416.815 107.69 416.815 117.381C416.815 127.072 419.017 135.69 423.421 143.234C427.779 150.735 434.184 156.864 441.898 160.915C449.795 165.159 458.75 167.28 468.764 167.276C481.034 167.276 491.536 164.224 500.27 158.118C509.003 152.012 514.844 143.65 517.791 133.032H490.102C488.205 136.96 485.152 140.225 481.346 142.397C477.412 144.579 472.966 145.688 468.459 145.613C460.705 145.613 454.424 143.05 449.617 137.926C444.81 132.802 442.404 125.953 442.401 117.381C442.401 108.809 444.806 101.961 449.617 96.8366C454.427 91.7122 460.712 89.1382 468.469 89.1147C472.977 89.0384 477.424 90.1498 481.356 92.3355C485.157 94.5081 488.206 97.7712 490.102 101.696H517.786C514.846 91.0737 509.005 82.6882 500.265 76.5389C491.524 70.3896 481.023 67.3149 468.759 67.3149L468.764 67.3452Z" fill="black"/>
<path d="M533.509 166.294V68.686H596.312V87.3305H558.174V107.679H591.896V125.622H558.174V147.649H596.312V166.294H533.509Z" fill="#AEEF24"/>
<path d="M596.058 68.9378V87.0833H557.946V107.93H591.662V125.37H557.946V147.901H596.058V166.046H533.763V68.9378H596.058ZM596.566 68.4338H533.254V166.545H596.566V147.392H558.454V125.869H592.17V107.426H558.454V87.5823H596.566V68.4287V68.4338Z" fill="black"/>
</g>
</svg>
