<svg width="389" height="395" viewBox="0 0 389 395" fill="none" xmlns="http://www.w3.org/2000/svg">
<path d="M380.067 148.281L368.356 144.581L358.667 152.144C358.23 152.49 357.705 152.706 357.151 152.768C356.597 152.829 356.037 152.734 355.535 152.492C355.033 152.25 354.609 151.872 354.311 151.401C354.013 150.93 353.854 150.384 353.852 149.827L353.746 137.539L343.566 130.66C343.102 130.351 342.734 129.917 342.504 129.409C342.275 128.9 342.193 128.337 342.268 127.785C342.344 127.232 342.573 126.711 342.93 126.283C343.288 125.854 343.758 125.535 344.288 125.361L350.89 123.15L355.932 121.46L359.327 109.653C359.478 109.119 359.776 108.638 360.186 108.264C360.597 107.891 361.103 107.639 361.649 107.539C362.195 107.439 362.758 107.494 363.275 107.697C363.791 107.9 364.24 108.244 364.571 108.69L371.876 118.57L384.156 118.146C384.71 118.127 385.258 118.264 385.738 118.54C386.218 118.817 386.612 119.223 386.874 119.711C387.136 120.2 387.256 120.752 387.221 121.305C387.185 121.858 386.996 122.391 386.674 122.842L379.542 132.847L382.986 142.327L383.737 144.398C383.931 144.919 383.975 145.485 383.864 146.03C383.754 146.575 383.492 147.078 383.11 147.482C382.728 147.886 382.241 148.175 381.703 148.316C381.165 148.458 380.598 148.445 380.067 148.281Z" fill="#FF9E1F"/>
<path d="M367.484 139.836L359.842 145.804C359.685 145.926 359.497 146.002 359.299 146.023C359.101 146.044 358.901 146.009 358.722 145.922C358.543 145.835 358.391 145.701 358.285 145.533C358.178 145.365 358.12 145.17 358.118 144.971L358.031 135.275L349.999 129.851C349.835 129.738 349.705 129.582 349.624 129.4C349.544 129.218 349.515 129.016 349.542 128.819C349.569 128.622 349.65 128.436 349.777 128.282C349.904 128.128 350.071 128.012 350.259 127.948L353.982 126.705L359.452 124.87L362.124 115.559C362.178 115.367 362.285 115.193 362.433 115.059C362.58 114.925 362.763 114.835 362.959 114.799C363.155 114.763 363.358 114.783 363.543 114.857C363.728 114.931 363.889 115.056 364.007 115.217L369.786 123.011L379.475 122.678C379.674 122.67 379.871 122.719 380.045 122.818C380.218 122.917 380.36 123.062 380.454 123.238C380.548 123.414 380.592 123.613 380.578 123.812C380.565 124.011 380.497 124.202 380.38 124.364L374.741 132.259L378.054 141.368C378.123 141.555 378.137 141.758 378.096 141.954C378.056 142.149 377.961 142.329 377.823 142.473C377.685 142.618 377.51 142.721 377.317 142.771C377.124 142.82 376.92 142.815 376.73 142.755L367.484 139.836Z" fill="#FFD31A"/>
<path d="M366.565 134.745L364.263 136.546C364.112 136.663 363.932 136.735 363.742 136.754C363.553 136.774 363.361 136.74 363.19 136.657C363.018 136.574 362.873 136.445 362.771 136.284C362.669 136.123 362.614 135.937 362.611 135.747V132.828L360.203 131.19C360.045 131.084 359.92 130.935 359.842 130.761C359.763 130.587 359.736 130.395 359.761 130.206C359.787 130.017 359.865 129.838 359.986 129.691C360.108 129.544 360.268 129.435 360.449 129.374L363.223 128.449L364.032 125.641C364.083 125.457 364.185 125.291 364.327 125.163C364.468 125.034 364.643 124.948 364.831 124.914C365.019 124.881 365.213 124.901 365.39 124.972C365.567 125.044 365.721 125.163 365.833 125.318L367.571 127.664L370.489 127.563C370.68 127.556 370.868 127.603 371.033 127.698C371.199 127.793 371.334 127.932 371.424 128.1C371.514 128.268 371.556 128.458 371.544 128.648C371.532 128.838 371.467 129.021 371.356 129.177L369.656 131.556L370.653 134.302C370.719 134.481 370.733 134.675 370.694 134.862C370.654 135.049 370.564 135.221 370.432 135.359C370.3 135.496 370.132 135.595 369.948 135.642C369.763 135.689 369.568 135.684 369.387 135.626L366.565 134.745Z" fill="#FFE266"/>
<path d="M356.828 154.523C355.583 154.522 354.388 154.03 353.504 153.153C352.619 152.277 352.116 151.086 352.104 149.841L352.012 138.468L342.593 132.105C341.862 131.613 341.284 130.926 340.924 130.121C340.564 129.317 340.436 128.428 340.556 127.555C340.675 126.682 341.036 125.86 341.599 125.182C342.162 124.504 342.903 123.997 343.739 123.719L354.516 120.111L357.656 109.186C357.9 108.341 358.375 107.581 359.027 106.992C359.68 106.402 360.484 106.007 361.349 105.85C362.214 105.693 363.106 105.781 363.923 106.104C364.741 106.427 365.452 106.973 365.977 107.678L372.719 116.831L384.078 116.44C384.96 116.403 385.835 116.614 386.603 117.049C387.372 117.484 388.002 118.125 388.424 118.901C388.846 119.677 389.042 120.555 388.99 121.437C388.937 122.318 388.639 123.167 388.128 123.887L381.526 133.146L385.408 143.83C385.708 144.658 385.771 145.553 385.589 146.415C385.407 147.277 384.988 148.07 384.379 148.706C383.77 149.342 382.995 149.795 382.142 150.014C381.289 150.232 380.392 150.207 379.552 149.942L368.712 146.527L359.751 153.521C358.917 154.175 357.887 154.528 356.828 154.523ZM362.192 109.244C362.115 109.238 362.038 109.238 361.961 109.244C361.734 109.281 361.523 109.382 361.352 109.536C361.181 109.69 361.058 109.889 360.998 110.111L357.603 121.922C357.526 122.194 357.383 122.443 357.188 122.647C356.992 122.851 356.749 123.004 356.481 123.093L344.832 126.994C344.615 127.066 344.422 127.198 344.276 127.373C344.129 127.549 344.035 127.763 344.004 127.99C343.973 128.217 344.006 128.448 344.1 128.657C344.193 128.865 344.344 129.044 344.534 129.172L354.714 136.05C354.95 136.21 355.144 136.425 355.278 136.677C355.413 136.929 355.483 137.21 355.484 137.495L355.59 149.783C355.592 150.012 355.657 150.236 355.779 150.43C355.901 150.624 356.075 150.779 356.281 150.88C356.486 150.98 356.716 151.02 356.944 150.997C357.172 150.973 357.388 150.887 357.569 150.747L367.253 143.184C367.477 143.01 367.74 142.893 368.019 142.843C368.299 142.792 368.586 142.81 368.857 142.895L380.573 146.59C380.79 146.658 381.023 146.665 381.244 146.608C381.465 146.551 381.666 146.434 381.824 146.269C381.981 146.104 382.09 145.898 382.137 145.675C382.184 145.452 382.168 145.219 382.09 145.005L377.895 133.444C377.798 133.178 377.767 132.893 377.806 132.612C377.844 132.332 377.951 132.065 378.117 131.835L385.273 121.869C385.404 121.683 385.48 121.464 385.493 121.237C385.507 121.01 385.457 120.784 385.349 120.584C385.24 120.384 385.079 120.218 384.882 120.104C384.685 119.991 384.46 119.935 384.233 119.942L371.958 120.361C371.678 120.371 371.399 120.311 371.147 120.187C370.896 120.064 370.678 119.881 370.513 119.653L363.203 109.779C363.095 109.616 362.947 109.484 362.773 109.393C362.6 109.303 362.407 109.259 362.211 109.263L362.192 109.244Z" fill="black"/>
<path d="M69.4775 293.608C69.5025 293.874 69.4479 294.14 69.3208 294.375C69.1938 294.609 68.9999 294.8 68.7638 294.924C68.5278 295.048 68.2602 295.099 67.9953 295.07C67.7303 295.041 67.4798 294.934 67.2758 294.763C67.0717 294.592 66.9232 294.363 66.8492 294.107C66.7752 293.851 66.779 293.579 66.8602 293.325C66.9414 293.071 67.0962 292.847 67.305 292.681C67.5138 292.515 67.7672 292.416 68.0329 292.394C68.3851 292.365 68.7347 292.476 69.0053 292.703C69.276 292.931 69.4457 293.256 69.4775 293.608Z" fill="white"/>
<path d="M212.845 182.621L208.27 194.075L205.93 199.904L165.619 300.487C165.619 300.487 172.63 302.847 182.29 305.255C184.178 305.737 186.167 306.219 188.228 306.662C203.565 310.082 222.692 312.645 232.015 307.173C245.951 298.984 265.541 243.589 263.455 218.444C262.492 206.927 242.566 195.67 228.004 188.94C226.376 188.184 224.816 187.495 223.357 186.855C217.203 184.181 212.845 182.621 212.845 182.621Z" fill="white"/>
<path d="M208.27 194.075L205.93 199.904L173.921 279.769L165.619 300.482L166.048 300.626L166.317 300.713L166.577 300.795L166.784 300.862L166.866 300.891L167.285 301.021C167.318 301.036 167.352 301.047 167.386 301.055L167.772 301.175L168.35 301.358C168.494 301.397 168.643 301.45 168.797 301.498L169.279 301.643L169.929 301.845C170.382 301.975 170.858 302.124 171.374 302.269C171.889 302.413 172.289 302.543 172.78 302.683L174.557 303.194C176.834 303.834 179.449 304.542 182.3 305.251L183.99 305.67L185.204 305.959C186.191 306.195 187.212 306.44 188.237 306.657C203.58 310.082 222.702 312.64 232.02 307.168C243.495 300.424 258.813 261.667 262.69 234.152C256.184 257.091 245.383 280.347 236.729 285.424C232.453 287.934 232.501 271.85 235.189 264.711C242.123 246.291 239.311 220.646 227.065 200.515C226.747 199.986 216.293 197.818 208.27 194.075Z" fill="#D8D8D8"/>
<path d="M216.061 312.563C194.781 312.563 166.461 303.136 164.901 302.611L162.657 301.855L211.578 179.788L213.61 180.515C222.195 183.693 230.56 187.436 238.65 191.72C255.904 200.963 265.001 209.889 265.694 218.256C267.871 244.47 247.8 300.511 233.151 309.109C228.889 311.609 222.832 312.563 216.061 312.563ZM168.59 299.075C178.351 302.124 216.981 313.386 230.878 305.231C236.796 301.758 244.939 287.303 251.633 268.401C258.49 249.027 262.164 229.952 261.225 218.613C260.137 205.496 228.586 190.93 214.125 185.467L168.59 299.075Z" fill="black"/>
<path d="M258.25 266.782C256.001 263.29 236.099 256.859 236.099 256.859C235.002 256.601 233.85 256.715 232.825 257.183C231.799 257.652 230.959 258.448 230.436 259.446C226.487 266.96 218.286 284.769 224.098 293.333C228.914 300.443 238.675 301.17 245.113 298.092C250.136 295.684 253.198 289.147 255.592 282.394C258.197 275.072 260.003 269.504 258.25 266.782Z" fill="white"/>
<path d="M255.606 282.394C254.373 285.877 252.957 289.302 251.19 292.129C249.534 294.793 247.559 296.946 245.127 298.088C238.689 301.171 228.943 300.443 224.117 293.333C219.557 286.59 223.636 274.201 227.488 265.54C228.548 263.165 229.597 261.074 230.445 259.456C230.968 258.457 231.808 257.661 232.834 257.194C233.859 256.726 235.011 256.614 236.108 256.874C236.108 256.874 255.996 263.3 258.259 266.797C260.002 269.504 258.197 275.077 255.606 282.394Z" fill="white"/>
<path d="M251.19 292.129C249.534 294.793 247.559 296.946 245.127 298.088C238.689 301.171 228.943 300.443 224.117 293.333C219.557 286.59 223.636 274.2 227.488 265.54C227.411 265.92 225.398 275.564 228.644 275.809C231.191 276.012 234.129 271.647 234.307 271.392C234.167 272.018 230.055 291.021 240.365 293.242C245.002 294.239 248.546 293.502 251.19 292.129Z" fill="#D8D8D8"/>
<path d="M237.292 302.047C231.601 302.047 225.774 299.764 222.263 294.591C216.003 285.342 223.453 267.948 228.466 258.401C229.221 256.964 230.432 255.819 231.908 255.145C233.385 254.471 235.043 254.306 236.623 254.677L236.801 254.726C243.008 256.734 257.71 261.811 260.132 265.564C262.425 269.123 260.749 274.576 257.725 283.141C255.317 289.933 252.057 297.264 246.105 300.111C243.346 301.4 240.337 302.061 237.292 302.047ZM234.952 258.964C234.433 258.964 233.923 259.105 233.478 259.373C233.033 259.642 232.671 260.027 232.429 260.487C224.811 275 222.393 286.811 225.966 292.076C230.04 298.073 238.414 298.82 244.159 296.069C248.667 293.916 251.517 287.23 253.492 281.643C255.24 276.715 257.628 269.966 256.381 267.996C255.158 266.272 244.641 261.975 235.54 259.022C235.346 258.983 235.149 258.964 234.952 258.964Z" fill="black"/>
<path d="M237.794 301.768C236.769 301.617 235.785 301.258 234.904 300.713C234.094 300.22 233.36 299.609 232.728 298.902C231.545 297.565 230.658 295.992 230.127 294.287C229.068 290.997 229.097 287.649 229.525 284.489C230.005 281.366 230.798 278.3 231.895 275.337C232.42 273.892 232.983 272.413 233.628 271.002C233.956 270.289 234.293 269.557 234.668 268.887C235.044 268.167 235.476 267.478 235.959 266.825C236.005 266.764 236.064 266.712 236.13 266.672C236.197 266.633 236.271 266.608 236.347 266.597C236.424 266.587 236.502 266.592 236.577 266.612C236.651 266.632 236.721 266.667 236.782 266.715C236.9 266.804 236.98 266.934 237.007 267.079C237.033 267.225 237.005 267.375 236.927 267.5L236.893 267.553C236.514 268.17 236.179 268.814 235.892 269.48C235.588 270.164 235.318 270.867 235.058 271.575C234.548 273.02 234.095 274.465 233.715 275.91C232.891 278.798 232.352 281.761 232.107 284.754C231.914 287.683 232.164 290.645 233.2 293.165C233.672 294.378 234.396 295.478 235.323 296.392C236.096 297.185 237.114 297.695 238.213 297.837C238.472 297.847 238.728 297.909 238.964 298.018C239.2 298.127 239.412 298.282 239.589 298.473C239.765 298.664 239.902 298.888 239.992 299.133C240.082 299.377 240.123 299.636 240.112 299.896C240.102 300.156 240.04 300.412 239.931 300.648C239.822 300.884 239.668 301.096 239.476 301.273C239.285 301.449 239.061 301.586 238.817 301.676C238.573 301.766 238.314 301.807 238.054 301.797H237.851L237.794 301.768Z" fill="black"/>
<path d="M233.932 205.202C236.527 205.727 239.075 206.315 241.636 206.936C244.198 207.558 246.736 208.232 249.269 208.979C251.802 209.725 254.335 210.511 256.844 211.44C259.408 212.354 261.903 213.454 264.308 214.73C264.816 215.024 265.188 215.504 265.346 216.069C265.504 216.634 265.435 217.239 265.153 217.753C264.871 218.268 264.399 218.651 263.838 218.822C263.276 218.992 262.671 218.936 262.15 218.666L262.02 218.584C259.893 217.263 257.674 216.098 255.38 215.096C253.054 214.046 250.651 213.112 248.229 212.206C245.807 211.301 243.351 210.477 240.88 209.687C238.41 208.897 235.916 208.141 233.426 207.462C233.278 207.426 233.139 207.363 233.016 207.274C232.893 207.185 232.789 207.072 232.709 206.943C232.63 206.814 232.576 206.67 232.552 206.52C232.528 206.37 232.534 206.217 232.569 206.069C232.604 205.922 232.668 205.782 232.757 205.659C232.846 205.536 232.958 205.432 233.087 205.352C233.216 205.273 233.36 205.219 233.51 205.195C233.66 205.171 233.813 205.177 233.961 205.212L233.932 205.202Z" fill="black"/>
<path d="M173.771 166.459C146.444 166.459 119.564 184.041 86.2933 177.649C76.3879 175.722 65.0137 173.497 53.6154 176.729C42.0582 180.01 26.013 193.589 36.4241 211.325C41.543 220.048 55.3634 216.705 60.3378 215.544C78.6367 225.067 113.043 234.658 144.094 210.93" fill="white"/>
<path d="M173.767 166.459L152.579 198.251L144.103 210.944C113.053 234.672 78.6607 225.082 60.3474 215.559C55.373 216.72 41.567 220.058 36.4337 211.344C34.8179 208.69 33.7396 205.744 33.2603 202.673C31.3341 189.277 44.0181 179.456 53.6298 176.734C65.0233 173.507 76.3926 175.718 86.3077 177.659C119.564 184.041 146.444 166.459 173.767 166.459Z" fill="white"/>
<path d="M173.767 166.459L161.275 185.183C157.209 180.42 153.682 175.221 150.758 169.682C158.492 167.837 166.134 166.459 173.767 166.459Z" fill="white"/>
<path d="M173.767 166.459L161.275 185.183C157.209 180.42 153.682 175.221 150.758 169.682C158.492 167.837 166.134 166.459 173.767 166.459Z" fill="#E8E8E8"/>
<path d="M281.951 195.034C266.724 207.984 247.436 215.177 227.45 215.357L228.735 180.366C228.735 180.366 249.172 193.406 281.951 195.034Z" fill="#D8D8D8"/>
<path d="M244.66 213.439C227.692 217.093 210.015 215.514 193.963 208.911C177.91 202.308 164.236 190.991 154.746 176.455C169.741 169.051 212.869 149.205 230.984 156.166C264.799 169.157 251.547 200.91 244.66 213.439Z" fill="#D8D8D8"/>
<path d="M152.569 198.237L144.094 210.929C113.044 234.658 78.6514 225.067 60.3381 215.544C55.3637 216.705 41.5577 220.043 36.4244 211.329C34.8085 208.675 33.7303 205.729 33.251 202.659C35.2205 205.968 38.7503 209.663 44.8563 210.236C57.5499 211.416 59.5387 200.12 59.5387 194.961C60.5018 205.689 72.8584 213.685 87.0544 214.191C119.318 215.332 138.45 184.629 147.701 184.629C150.662 184.634 152.054 190.4 152.569 198.237Z" fill="#E8E8E8"/>
<path d="M100.706 228.015C99.5922 228.015 98.4686 227.991 97.3353 227.943C80.8712 227.25 67.1615 221.532 60.0345 217.914C54.0682 219.297 40.1658 222.148 34.4787 212.462C30.4771 205.641 29.7403 198.594 32.3503 192.086C36.0004 182.996 45.3521 176.739 52.9991 174.571C64.9512 171.199 77.0188 173.55 86.7075 175.453C105.888 179.138 122.963 174.624 139.476 170.255C151.216 167.153 162.306 164.22 173.752 164.22C174.346 164.22 174.916 164.456 175.336 164.876C175.756 165.296 175.992 165.866 175.992 166.46C175.992 167.054 175.756 167.623 175.336 168.043C174.916 168.463 174.346 168.699 173.752 168.699C162.889 168.699 152.083 171.561 140.622 174.591C123.623 179.085 106.042 183.743 85.8552 179.851C76.1375 177.948 65.1486 175.79 54.2078 178.887C47.8273 180.694 39.5687 186.113 36.5013 193.762C34.3921 199.008 35.0133 204.538 38.336 210.198C42.564 217.423 54.9735 214.499 59.6493 213.406L59.8082 213.367C60.3284 213.246 60.8747 213.315 61.3492 213.56C71.9047 219.046 108.96 234.947 142.731 209.157C142.964 208.969 143.232 208.829 143.52 208.746C143.807 208.663 144.109 208.639 144.406 208.675C144.703 208.711 144.99 208.805 145.25 208.954C145.51 209.103 145.737 209.302 145.919 209.54C146.101 209.778 146.233 210.05 146.307 210.34C146.382 210.63 146.398 210.932 146.354 211.228C146.31 211.524 146.207 211.809 146.051 212.064C145.895 212.32 145.69 212.542 145.447 212.717C132.151 222.876 117.113 228.015 100.706 228.015Z" fill="black"/>
<path d="M112.649 235.911C112.649 235.911 72.6463 254.311 65.3509 282.105C59.2833 305.227 82.8696 332.919 82.8696 332.919C82.8696 332.919 74.0091 337.414 71.4376 344.186C68.9047 350.862 70.3493 358.42 79.2435 360.203C94.9276 363.338 126.435 349.827 128.559 338.353C129.975 330.747 118.774 311.378 120.161 308.401C121.446 305.636 144.094 294.962 144.094 294.962" fill="white"/>
<path d="M128.573 338.353C126.44 349.827 94.9419 363.338 79.2578 360.198C73.2433 358.998 70.6381 355.145 70.3636 350.718C70.2661 348.489 70.6369 346.263 71.4519 344.186C74.0234 337.442 82.8839 332.919 82.8839 332.919C82.8839 332.919 59.288 305.241 65.3652 282.105C72.6558 254.311 112.663 235.911 112.663 235.911L117.632 245.236L144.118 294.962C144.118 294.962 121.485 305.641 120.185 308.401C118.774 311.368 129.97 330.747 128.573 338.353Z" fill="white"/>
<path d="M128.573 338.353C126.44 349.827 94.942 363.338 79.258 360.198C73.2434 358.998 70.6383 355.145 70.3638 350.718C73.6287 353.242 80.7893 356.185 95.2021 352.558C116.944 347.086 124.162 338.555 121.259 326.291C118.355 314.027 91.5808 275.034 100.552 248.256C102.926 241.18 109.933 241.807 117.623 245.227L144.108 294.952C144.108 294.952 121.475 305.631 120.175 308.391C118.774 311.368 129.97 330.747 128.573 338.353Z" fill="#E8E8E8"/>
<path d="M84.3578 362.9C82.4958 362.92 80.6362 362.759 78.8055 362.418C73.4411 361.344 70.8504 358.468 69.6176 356.247C67.6914 352.741 67.5806 348.059 69.3431 343.41C71.3319 338.174 76.4508 334.258 79.4942 332.331C74.0623 325.289 57.7859 302.061 63.1841 281.536C70.6626 253.044 110.039 234.643 111.715 233.849C112.252 233.614 112.86 233.6 113.408 233.809C113.955 234.019 114.399 234.434 114.644 234.967C114.889 235.5 114.914 236.108 114.716 236.66C114.518 237.212 114.111 237.664 113.583 237.919C113.193 238.102 74.4572 256.223 67.518 282.649C61.8213 304.369 84.3482 331.17 84.5745 331.44C84.7947 331.698 84.9535 332.002 85.0388 332.33C85.1241 332.658 85.1337 333.001 85.0669 333.333C85.0001 333.666 84.8586 333.978 84.6531 334.248C84.4477 334.517 84.1837 334.737 83.8811 334.889C83.804 334.932 75.7573 339.094 73.5326 344.956C72.2372 348.372 72.2372 351.7 73.5326 354.032C74.6498 356.06 76.7204 357.403 79.6771 357.981C89.1107 359.87 106.644 354.981 117.994 347.307C122.867 344.007 125.834 340.674 126.349 337.919C127.033 334.234 123.71 325.982 121.283 319.952C118.394 312.77 117.151 309.504 118.119 307.428C118.543 306.527 119.246 305.019 131.569 298.632C137.347 295.631 143.073 292.938 143.126 292.909C143.392 292.783 143.681 292.71 143.975 292.695C144.27 292.68 144.564 292.723 144.842 292.822C145.119 292.921 145.375 293.073 145.594 293.271C145.812 293.469 145.99 293.707 146.116 293.974C146.243 294.24 146.316 294.529 146.331 294.823C146.346 295.118 146.302 295.412 146.204 295.69C146.105 295.968 145.952 296.223 145.755 296.442C145.557 296.661 145.318 296.839 145.052 296.965C135.421 301.507 124.293 307.355 122.289 309.282C122.424 310.761 124.163 315.062 125.453 318.28C128.376 325.539 131.689 333.771 130.75 338.738C129.787 343.796 124.659 348.208 120.503 351.021C111.272 357.297 96.0161 362.9 84.3578 362.9Z" fill="black"/>
<path d="M153.758 299.899C153.758 299.899 159.686 339.441 200.324 365.727C200.324 365.727 199.038 392.591 216.167 392.76C232.963 392.924 247.843 383.03 238.766 348.314C236.565 339.894 215.652 306.228 220.376 274.133" fill="white"/>
<path d="M216.162 392.756C206.83 392.669 202.963 384.663 201.379 377.385C203.594 381.204 208.958 387.582 219.61 386.431C231.736 385.116 240.172 375.877 240.485 356.195C245.431 384.552 231.625 392.914 216.162 392.756Z" fill="#E8E8E8"/>
<path d="M220 290.997C207.6 314.272 175.399 318.381 159.07 317.008C154.813 306.922 153.773 299.899 153.773 299.899L220.381 274.128C219.588 279.716 219.46 285.379 220 290.997Z" fill="#E8E8E8"/>
<path d="M216.567 394.991H216.138C214.063 395.017 212.006 394.609 210.098 393.792C208.19 392.975 206.475 391.767 205.063 390.246C198.562 383.362 198.037 370.978 198.051 366.917C181.751 356.2 168.557 341.38 159.797 323.945C153.157 310.612 151.611 300.641 151.543 300.222C151.5 299.931 151.514 299.634 151.585 299.349C151.656 299.063 151.782 298.794 151.957 298.558C152.132 298.321 152.352 298.121 152.604 297.97C152.856 297.818 153.135 297.717 153.426 297.674C153.717 297.63 154.014 297.644 154.299 297.715C154.585 297.786 154.853 297.913 155.09 298.088C155.326 298.263 155.526 298.482 155.678 298.734C155.829 298.987 155.93 299.266 155.974 299.557C156.051 300.063 162.354 338.488 201.528 363.839C201.858 364.052 202.125 364.348 202.304 364.698C202.484 365.047 202.568 365.437 202.549 365.829C202.549 365.968 201.952 380.434 208.328 387.178C209.327 388.256 210.544 389.111 211.898 389.685C213.251 390.26 214.711 390.541 216.182 390.511C221.96 390.564 229.896 389.335 234.716 383.155C240.1 376.248 240.731 364.711 236.59 348.868C236.142 347.163 234.712 344.013 232.896 340.029C226.424 325.805 214.376 299.326 218.151 273.796C218.194 273.505 218.293 273.224 218.444 272.971C218.595 272.718 218.794 272.498 219.03 272.322C219.267 272.146 219.535 272.018 219.821 271.947C220.106 271.875 220.403 271.86 220.694 271.903C220.986 271.946 221.266 272.046 221.518 272.198C221.771 272.349 221.991 272.549 222.166 272.786C222.342 273.022 222.468 273.291 222.54 273.577C222.611 273.863 222.625 274.16 222.581 274.451C219.004 298.676 230.691 324.369 236.975 338.17C238.949 342.505 240.379 345.655 240.924 347.736C245.436 365 244.535 377.842 238.251 385.911C233.614 391.864 226.121 394.991 216.567 394.991Z" fill="black"/>
<path d="M149.497 179.114C130.755 195.636 89.1925 230.901 102.666 272.023C109.191 291.941 125.809 303.979 143.034 308.974C165.624 315.52 191.95 309.518 207.914 297.134C228.172 281.416 229.063 244.937 241.511 218.618C241.511 218.618 273.563 172.51 230.985 156.142C208.877 147.669 149.497 179.114 149.497 179.114Z" fill="white"/>
<path d="M149.497 179.114C130.755 195.636 89.1925 230.901 102.666 272.023C109.191 291.941 125.809 303.979 143.034 308.974C165.624 315.52 191.95 309.518 207.914 297.134C228.172 281.416 229.063 244.937 241.511 218.618C241.511 218.618 273.563 172.51 230.985 156.142C208.877 147.669 149.497 179.114 149.497 179.114Z" fill="white"/>
<path d="M244.66 213.439C227.692 217.093 210.015 215.514 193.963 208.911C177.91 202.308 164.236 190.991 154.746 176.455C169.741 169.051 212.869 149.205 230.984 156.166C264.799 169.157 251.547 200.91 244.66 213.439Z" fill="#E8E8E8"/>
<path d="M241.511 218.642C229.063 244.937 228.172 281.416 207.914 297.129C191.95 309.514 165.619 315.511 143.02 308.969C125.795 303.979 109.177 291.941 102.652 272.023C100.023 264.08 99.343 255.622 100.668 247.36C101.117 250.117 101.78 252.834 102.652 255.487C109.177 275.405 125.795 287.442 143.02 292.437C165.605 298.988 191.936 292.977 207.899 280.597C228.158 264.88 229.049 228.401 241.497 202.105C241.497 202.105 249.389 190.756 252.139 177.327C256.974 196.397 241.511 218.642 241.511 218.642Z" fill="#E8E8E8"/>
<path d="M105.136 246.224L105.396 249.191C105.525 250.718 106.056 252.183 106.935 253.438C107.813 254.693 109.009 255.692 110.4 256.335L160.996 279.832C163.153 280.835 165.586 281.078 167.899 280.522C170.211 279.966 172.268 278.642 173.733 276.768L181.231 267.177C181.231 267.177 196.64 277.067 217.992 277.808L222.1 270.048L129.45 235.622" fill="#E8E8E8"/>
<path d="M214.183 289.109C217.277 283.724 219.832 278.046 221.811 272.158C223.872 266.282 225.702 260.265 227.474 254.191C229.246 248.117 230.845 241.941 232.709 235.814C234.529 229.613 236.793 223.55 239.484 217.674C239.61 217.408 239.788 217.169 240.007 216.972C240.225 216.774 240.481 216.622 240.758 216.524C241.035 216.425 241.33 216.382 241.624 216.397C241.918 216.412 242.206 216.485 242.472 216.611C242.738 216.738 242.976 216.916 243.173 217.134C243.371 217.353 243.523 217.608 243.622 217.886C243.72 218.164 243.763 218.458 243.748 218.752C243.733 219.046 243.66 219.334 243.534 219.6C240.936 225.28 238.75 231.14 236.994 237.134C235.155 243.155 233.527 249.278 231.856 255.439C230.185 261.599 228.456 267.784 225.991 273.782C224.764 276.795 223.335 279.722 221.715 282.544C221.321 283.261 220.891 283.957 220.424 284.629L219.061 286.667C218.834 287.001 218.588 287.323 218.325 287.63L217.545 288.594C217.029 289.229 216.5 289.856 215.97 290.472C215.787 290.686 215.531 290.823 215.252 290.856C214.973 290.89 214.691 290.817 214.463 290.653C214.235 290.489 214.077 290.245 214.02 289.97C213.962 289.695 214.011 289.408 214.154 289.167L214.183 289.109Z" fill="black"/>
<path d="M108.863 282.755C110.482 284.945 112.23 287.036 114.098 289.017C115.971 290.963 117.963 292.789 120.064 294.484C122.163 296.166 124.361 297.718 126.647 299.133C128.947 300.525 131.319 301.792 133.755 302.929C138.636 305.206 143.736 306.981 148.976 308.227C154.303 309.428 159.72 310.185 165.171 310.491C165.448 310.512 165.707 310.635 165.899 310.836C166.091 311.037 166.202 311.301 166.211 311.579C166.22 311.856 166.126 312.128 165.948 312.34C165.769 312.553 165.518 312.692 165.243 312.731C159.561 313.457 153.804 313.352 148.153 312.418C146.737 312.177 145.317 311.936 143.915 311.57C142.514 311.204 141.132 310.819 139.745 310.419C134.238 308.684 129.014 306.152 124.239 302.904C121.851 301.279 119.583 299.482 117.454 297.529C115.342 295.567 113.389 293.441 111.613 291.17L110.332 289.441C109.899 288.868 109.538 288.242 109.143 287.644C108.334 286.459 107.669 285.188 106.976 283.94C106.844 283.692 106.81 283.403 106.88 283.131C106.951 282.859 107.121 282.623 107.357 282.47C107.593 282.318 107.878 282.259 108.155 282.307C108.433 282.354 108.682 282.504 108.854 282.726L108.863 282.755Z" fill="black"/>
<path d="M150.243 179.957C147.782 182.625 145.23 185.169 142.688 187.703L138.883 191.503C137.607 192.76 136.346 194.022 135.098 195.304C132.578 197.837 130.134 200.429 127.764 203.078C125.39 205.723 123.079 208.42 120.893 211.204C118.707 213.989 116.559 216.811 114.633 219.74C112.651 222.656 110.837 225.683 109.201 228.806L108.58 229.966L108.002 231.147C107.612 231.932 107.231 232.722 106.885 233.526C106.128 235.111 105.488 236.739 104.838 238.367C103.576 241.658 102.513 245.021 101.655 248.44C101.584 248.706 101.417 248.937 101.187 249.089C100.957 249.241 100.679 249.303 100.406 249.264C100.133 249.225 99.8842 249.087 99.706 248.877C99.5279 248.666 99.4332 248.397 99.4398 248.122C99.6068 244.412 100.21 240.736 101.236 237.168C101.453 236.262 101.766 235.39 102.05 234.504C102.334 233.618 102.661 232.756 102.984 231.884C103.307 231.012 103.668 230.159 104.039 229.311L104.592 228.035L105.189 226.782C106.808 223.459 108.615 220.231 110.602 217.115C112.596 214.013 114.758 211.031 117.026 208.146C119.294 205.26 121.731 202.519 124.249 199.846C126.768 197.173 129.339 194.61 131.954 192.1C133.278 190.853 134.627 189.629 135.985 188.42C137.342 187.211 138.725 186.041 140.135 184.894C142.935 182.592 145.808 180.389 148.755 178.285C148.982 178.124 149.261 178.052 149.538 178.084C149.814 178.115 150.07 178.249 150.254 178.458C150.438 178.666 150.539 178.936 150.536 179.215C150.533 179.494 150.427 179.761 150.238 179.966L150.243 179.957Z" fill="black"/>
<path d="M228.735 180.366C228.735 180.366 270.63 207.1 330.655 188.786C343.411 184.894 369.983 212.283 352.999 226.965C302.716 270.443 226.54 239.995 226.54 239.995" fill="white"/>
<path d="M228.735 180.366C228.735 180.366 270.63 207.1 330.655 188.786C343.411 184.894 369.983 212.283 352.999 226.965C302.716 270.443 226.54 239.995 226.54 239.995L228.735 180.366Z" fill="white"/>
<path d="M353.004 226.965C305.707 267.857 235.506 243.343 227.32 240.294L226.53 239.99L228.736 180.366C228.736 180.366 270.63 207.1 330.66 188.786C336.766 186.927 346.07 192.235 352.195 199.894C358.87 208.223 361.85 219.321 353.004 226.965Z" fill="white"/>
<path d="M353.004 226.965C305.706 267.856 235.506 243.343 227.32 240.294C229.968 235.877 235.607 231.484 247.545 231.32C271.752 231.002 330.227 247.452 323.755 207.413L352.166 199.894C358.869 208.223 361.85 219.321 353.004 226.965Z" fill="#E8E8E8"/>
<path d="M281.951 195.034C266.724 207.984 247.436 215.177 227.45 215.357L228.735 180.366C228.735 180.366 249.172 193.406 281.951 195.034Z" fill="#E8E8E8"/>
<path d="M229.94 178.478C230.484 178.82 231.168 179.201 231.798 179.552C232.429 179.904 233.103 180.251 233.768 180.588C235.097 181.258 236.445 181.908 237.813 182.515C240.548 183.735 243.335 184.843 246.173 185.838C249.004 186.84 251.884 187.707 254.783 188.507C256.227 188.878 257.672 189.278 259.16 189.596C259.892 189.764 260.605 189.942 261.361 190.077L263.571 190.521C275.408 192.821 287.505 193.49 299.523 192.51C305.532 192.031 311.502 191.153 317.394 189.88C318.877 189.6 320.336 189.23 321.8 188.868C323.264 188.507 324.737 188.17 326.182 187.732L328.354 187.11L329.442 186.802L329.986 186.648L330.694 186.484C332.503 186.093 334.375 186.093 336.184 186.484C339.471 187.227 342.58 188.61 345.333 190.554C348.027 192.377 350.479 194.534 352.629 196.975C354.817 199.405 356.665 202.121 358.123 205.048C358.465 205.8 358.836 206.537 359.115 207.327C359.26 207.722 359.418 208.102 359.553 208.502L359.91 209.711L360.088 210.318L360.218 210.944L360.478 212.192L360.627 213.473L360.695 214.114V214.764V216.07L360.574 217.38C360.55 217.597 360.536 217.818 360.507 218.035L360.377 218.685C360.285 219.114 360.199 219.548 360.093 219.976L359.669 221.238C359.597 221.45 359.534 221.662 359.447 221.864L359.163 222.467L358.581 223.656L357.873 224.769C357.393 225.498 356.861 226.19 356.279 226.84C355.706 227.491 355.056 228.049 354.444 228.656L350.784 231.614C349.59 232.635 348.275 233.493 346.995 234.403C345.714 235.313 344.447 236.233 343.084 237.014C341.722 237.794 340.407 238.656 339.049 239.422L334.879 241.6C329.247 244.343 323.38 246.577 317.35 248.276C311.327 249.935 305.183 251.117 298.974 251.811C286.597 253.193 274.092 252.927 261.784 251.021C255.656 250.103 249.589 248.816 243.616 247.168C237.627 245.566 231.767 243.515 226.087 241.031C225.832 240.911 225.631 240.7 225.524 240.438C225.417 240.177 225.413 239.885 225.512 239.621C225.611 239.356 225.806 239.139 226.058 239.012C226.31 238.885 226.601 238.858 226.872 238.936H226.916C229.776 239.822 232.723 240.66 235.66 241.388C238.598 242.115 241.55 242.833 244.516 243.464C250.444 244.735 256.41 245.771 262.406 246.532C274.387 248.049 286.512 248.536 298.474 247.25C304.446 246.643 310.358 245.538 316.147 243.945C321.906 242.321 327.509 240.187 332.89 237.568L336.863 235.492C338.158 234.75 339.42 233.955 340.715 233.189C342.011 232.423 343.214 231.551 344.438 230.704C345.661 229.856 346.908 229.022 348.044 228.049L351.526 225.236C352.007 224.755 352.518 224.321 352.971 223.82C353.409 223.331 353.809 222.809 354.17 222.259L354.704 221.441L355.123 220.564L355.335 220.13C355.398 219.981 355.436 219.827 355.489 219.673L355.802 218.758C355.879 218.444 355.937 218.127 356.004 217.794L356.105 217.312L356.154 216.831L356.245 215.867V214.875V214.393L356.187 213.912L356.057 212.91L355.85 211.913L355.749 211.431L355.6 210.949L355.306 209.957C355.195 209.629 355.061 209.307 354.94 208.994C354.719 208.334 354.391 207.707 354.102 207.067C352.824 204.504 351.204 202.127 349.287 200C347.384 197.841 345.216 195.931 342.834 194.316C340.574 192.718 338.027 191.573 335.331 190.944C334.141 190.679 332.908 190.671 331.715 190.92L331.301 191.007L330.737 191.166L329.62 191.484L327.381 192.125C325.893 192.573 324.381 192.929 322.869 193.295C321.357 193.661 319.854 194.047 318.328 194.336C312.247 195.648 306.086 196.554 299.885 197.048C287.459 198.069 274.953 197.384 262.714 195.01L260.427 194.552C259.661 194.393 258.905 194.206 258.149 194.037C256.627 193.705 255.125 193.29 253.613 192.905C250.613 192.076 247.627 191.176 244.685 190.135C241.742 189.095 238.848 187.862 235.983 186.604C234.538 185.969 233.142 185.289 231.736 184.581C231.036 184.225 230.338 183.857 229.641 183.478C228.938 183.088 228.283 182.727 227.527 182.255C227.023 181.939 226.665 181.436 226.532 180.857C226.399 180.277 226.501 179.669 226.817 179.165C227.132 178.661 227.635 178.303 228.214 178.169C228.794 178.036 229.402 178.139 229.906 178.454L229.94 178.478Z" fill="black"/>
<path d="M315.939 151.522C309.032 165.724 298.565 177.893 285.558 186.845C282.815 188.738 279.973 190.484 277.044 192.076C275.6 192.861 274.126 193.613 272.624 194.335C268.153 196.465 263.52 198.237 258.77 199.634C254.769 200.826 250.692 201.744 246.567 202.385C241.669 203.152 236.717 203.529 231.759 203.512C229.962 203.512 228.17 203.454 226.385 203.338C193.736 201.354 163.028 182.51 147.671 151.387C125.039 105.544 144.301 50.4481 190.683 28.3142C199.394 24.1543 208.692 21.3599 218.252 20.0291C219.34 19.8701 220.443 19.74 221.541 19.6341C224.482 19.3129 227.419 19.1524 230.353 19.1524C243.827 19.0461 257.17 21.7976 269.503 27.2256C271.429 28.083 273.356 28.9982 275.253 29.9905C292.742 39.1447 306.885 53.6023 315.655 71.2911C321.839 83.7504 325.08 97.4635 325.129 111.374C325.179 125.284 322.034 139.02 315.939 151.522Z" fill="white"/>
<path d="M232.048 203.757H231.774C229.992 203.757 228.182 203.685 226.395 203.584C192.557 201.527 162.349 181.57 147.488 151.508C142.087 140.672 138.909 128.865 138.142 116.781C137.374 104.698 139.033 92.5832 143.02 81.1511C151.129 57.7359 168.027 38.9064 190.602 28.1309C199.332 23.9586 208.654 21.1575 218.238 19.8264C219.278 19.6723 220.356 19.5422 221.536 19.4266C224.469 19.1232 227.44 18.9449 230.363 18.9449C243.87 18.837 257.246 21.5951 269.609 27.0374C271.579 27.9045 273.519 28.839 275.388 29.8072C278.225 31.2908 280.984 32.9178 283.656 34.6819C297.433 43.7726 308.547 56.3639 315.857 71.1656C322.077 83.6519 325.338 97.4035 325.387 111.354C325.436 125.304 322.273 139.079 316.141 151.609C309.211 165.837 298.726 178.035 285.703 187.023C282.952 188.919 280.104 190.668 277.17 192.264C275.836 192.996 274.386 193.738 272.744 194.533C268.26 196.669 263.615 198.451 258.851 199.86C250.152 202.448 241.124 203.761 232.048 203.757ZM231.22 19.3737H230.373C227.483 19.3977 224.503 19.5663 221.584 19.8554C220.414 19.971 219.34 20.101 218.305 20.2552C208.766 21.5769 199.488 24.3634 190.799 28.5162C168.335 39.2388 151.519 57.9767 143.448 81.2812C139.483 92.6563 137.833 104.71 138.596 116.733C139.36 128.756 142.521 140.504 147.893 151.286C162.657 181.209 192.744 201.064 226.419 203.112C228.201 203.218 230.002 203.275 231.779 203.285C236.725 203.301 241.664 202.933 246.553 202.182C250.667 201.541 254.735 200.623 258.726 199.436C263.469 198.032 268.093 196.256 272.556 194.123C274.194 193.333 275.633 192.596 276.963 191.869C279.884 190.281 282.719 188.54 285.457 186.652C298.415 177.707 308.846 165.569 315.742 151.411C321.845 138.942 324.995 125.234 324.947 111.35C324.898 97.4659 321.653 83.7798 315.462 71.3534C308.184 56.6254 297.124 44.0962 283.415 35.048C280.753 33.2867 278.003 31.6613 275.176 30.1781C273.332 29.2147 271.401 28.285 269.441 27.4228C257.398 22.1218 244.387 19.3778 231.23 19.364L231.22 19.3737Z" fill="black"/>
<path d="M147.696 151.402C163.048 182.529 193.756 201.373 226.41 203.353C228.192 203.464 229.983 203.521 231.774 203.531C245.915 203.569 259.884 200.428 272.648 194.34C274.146 193.608 275.624 192.862 277.064 192.081C279.985 190.486 282.821 188.739 285.558 186.845C295.537 179.967 304.051 171.174 310.605 160.978C317.158 150.781 321.622 139.384 323.736 127.447C316.843 140.846 306.748 152.332 294.347 160.887C291.604 162.783 288.762 164.531 285.833 166.123C284.388 166.908 282.92 167.654 281.417 168.382C268.657 174.477 254.688 177.62 240.548 177.577C238.754 177.577 236.964 177.518 235.179 177.399C202.525 175.4 171.821 156.551 156.46 125.429C147.826 108.045 144.992 88.3488 148.375 69.2344C141.815 81.9136 138.335 95.9609 138.217 110.237C138.099 124.513 141.346 138.616 147.696 151.402Z" fill="#E8E8E8"/>
<path d="M232.049 205.27H231.769C229.959 205.27 228.119 205.198 226.304 205.092C191.926 203.001 161.208 182.727 146.136 152.173C140.644 141.16 137.411 129.159 136.627 116.878C135.844 104.596 137.527 92.2815 141.575 80.6602C149.839 56.8403 167.016 37.717 189.957 26.7681C198.827 22.5271 208.298 19.6805 218.036 18.3288C219.085 18.1746 220.188 18.0398 221.407 17.9242C224.378 17.6159 227.397 17.4425 230.368 17.4136C244.09 17.3073 257.679 20.1096 270.24 25.6361C272.239 26.5176 274.208 27.4665 276.091 28.454C293.897 37.7706 308.297 52.4882 317.225 70.4964C323.551 83.1908 326.867 97.1724 326.917 111.356C326.967 125.54 323.75 139.545 317.514 152.284C310.467 166.743 299.81 179.14 286.575 188.276C283.781 190.204 280.888 191.982 277.907 193.603C276.553 194.34 275.08 195.097 273.414 195.901C260.502 202.073 246.373 205.275 232.063 205.27H232.049ZM231.22 20.8866H230.387C227.522 20.9155 224.609 21.0793 221.72 21.3683C220.564 21.4839 219.519 21.6091 218.508 21.7584C209.117 23.0624 199.984 25.8066 191.43 29.8943C169.356 40.4627 152.815 58.8779 144.879 81.797C140.977 92.9823 139.353 104.836 140.104 116.659C140.855 128.482 143.965 140.035 149.251 150.636C163.775 180.073 193.38 199.61 226.511 201.624C228.264 201.725 230.036 201.783 231.808 201.797C236.672 201.796 241.529 201.426 246.336 200.689C255.201 199.301 263.818 196.634 271.916 192.77C273.525 191.994 274.945 191.267 276.25 190.554C279.12 188.99 281.905 187.276 284.595 185.419C297.336 176.624 307.593 164.69 314.374 150.771C320.378 138.509 323.476 125.028 323.428 111.374C323.38 97.7205 320.186 84.2617 314.095 72.0427C306.941 57.5507 296.064 45.2221 282.578 36.3201C279.956 34.5784 277.248 32.9707 274.464 31.5032C272.653 30.5398 270.756 29.639 268.825 28.7912C256.973 23.5744 244.169 20.8746 231.22 20.8625V20.8866Z" fill="black"/>
<path d="M232.049 205.771H231.769C229.944 205.771 228.1 205.703 226.275 205.593C191.714 203.492 160.837 183.112 145.683 152.399C140.164 141.324 136.917 129.256 136.133 116.907C135.349 104.557 137.044 92.1755 141.118 80.4914C149.41 56.5608 166.674 37.3218 189.754 26.3103C198.665 22.0479 208.18 19.1851 217.963 17.8228C219.023 17.6638 220.135 17.529 221.334 17.4134C224.315 17.1003 227.354 16.9317 230.339 16.9028C244.133 16.7885 257.794 19.6043 270.419 25.1638C272.427 26.0502 274.406 27.0039 276.303 27.9962C294.196 37.3741 308.668 52.168 317.654 70.265C324.013 83.0274 327.348 97.084 327.398 111.344C327.448 125.604 324.212 139.684 317.943 152.49C310.86 167.03 300.147 179.495 286.839 188.68C284.029 190.617 281.12 192.405 278.123 194.037C276.761 194.778 275.282 195.535 273.611 196.344C260.631 202.55 246.426 205.767 232.039 205.761L232.049 205.771ZM231.22 21.3873H230.392C227.541 21.4114 224.652 21.58 221.792 21.869C220.641 21.9846 219.601 22.1099 218.599 22.2592C209.256 23.5534 200.168 26.2814 191.656 30.3469C169.683 40.8334 153.238 59.1619 145.341 81.9509C141.461 93.0731 139.845 104.86 140.589 116.616C141.334 128.373 144.423 139.861 149.675 150.405C164.146 179.672 193.583 199.119 226.545 201.122C228.283 201.224 230.05 201.281 231.789 201.291C236.625 201.301 241.456 200.934 246.235 200.193C250.262 199.561 254.242 198.66 258.149 197.495C262.788 196.124 267.313 194.389 271.68 192.307C273.279 191.532 274.69 190.809 276.014 190.101C278.874 188.544 281.649 186.838 284.331 184.99C297 176.244 307.201 164.377 313.946 150.535C319.909 138.34 322.984 124.935 322.932 111.36C322.881 97.7843 319.703 84.4032 313.647 72.2544C306.529 57.8448 295.71 45.5864 282.298 36.7342C279.692 35.0113 277 33.4213 274.232 31.9702C272.427 31.0068 270.539 30.1157 268.622 29.2727C256.835 24.0827 244.099 21.3976 231.22 21.3873Z" fill="black"/>
<path d="M302.918 171.291C250.165 211.465 174.422 187.982 167.184 123.102C162.282 78.9598 202.25 40.3037 245.527 38.5359C277.016 37.2449 308.384 49.5715 323.976 97.2401C323.976 97.2401 327.583 119.398 322.224 134.47C316.864 149.543 309.063 163.338 309.063 163.338L302.918 171.291Z" fill="black"/>
<path d="M167.189 123.102C174.422 187.982 250.164 211.465 302.918 171.296L304.165 169.678C244.545 183.011 182.786 150.203 174.239 84.7354C168.426 96.3828 165.653 109.48 167.189 123.102Z" fill="black"/>
<path d="M245.59 202.76C224.045 202.76 203.324 195.969 187.236 183.363C168.966 169.051 157.861 148.652 155.165 124.374C152.68 102.076 160.019 79.6487 175.833 61.219C193.395 40.7469 219.389 27.8905 245.354 26.8259C259.8 26.2286 272.898 28.2373 284.359 32.7893L284.571 32.876L284.764 33.0013C298.839 42.2896 310.193 55.1533 317.663 70.2749C324.023 83.0373 327.357 97.0939 327.407 111.354C327.457 125.614 324.222 139.693 317.952 152.5C310.87 167.039 300.157 179.505 286.849 188.69C284.039 190.627 281.13 192.414 278.133 194.047C276.77 194.788 275.292 195.545 273.621 196.354C269.039 198.54 264.293 200.362 259.425 201.802L259.083 201.874C254.609 202.464 250.102 202.76 245.59 202.76ZM250.261 31.2045C248.71 31.2045 247.145 31.2383 245.556 31.3009C220.809 32.3172 196.019 44.5908 179.252 64.1381C164.256 81.614 157.288 102.828 159.638 123.868C162.21 146.922 172.717 166.258 190.019 179.827C208.453 194.278 233.358 200.689 258.322 197.447C262.901 196.083 267.367 194.364 271.68 192.308C273.279 191.532 274.69 190.81 276.014 190.101C278.873 188.544 281.649 186.838 284.33 184.991C297 176.244 307.201 164.377 313.946 150.535C319.909 138.34 322.984 124.935 322.932 111.36C322.881 97.7845 319.703 84.4035 313.647 72.2546C306.564 57.9154 295.815 45.7057 282.491 36.8645C272.937 33.1072 262.117 31.2045 250.261 31.2045Z" fill="black"/>
<path d="M245.498 193.343C233.722 193.38 222.061 191.023 211.222 186.416C185.04 175.207 168.176 152.216 164.959 123.367C162.739 103.459 169.293 83.4344 183.403 67.0086C199.077 48.7427 222.264 37.2736 245.436 36.3246C285.351 34.6435 312.496 54.9132 326.11 96.5317L326.192 96.8689C326.341 97.7938 329.822 119.754 324.333 135.207C318.968 150.313 311.331 163.863 311.013 164.432L310.835 164.696L304.512 172.885L304.276 173.064C286.762 186.416 265.974 193.343 245.498 193.343ZM249.775 40.6791C248.407 40.6791 247.022 40.708 245.619 40.7659C223.665 41.6666 201.682 52.5578 186.802 69.8892C173.507 85.3853 167.333 104.196 169.414 122.876C172.447 150.087 188.329 171.749 212.984 182.307C241.246 194.412 275.07 189.581 301.329 169.711L307.19 162.11C308.003 160.665 315.159 147.659 320.11 133.733C324.973 120.038 322.098 99.8121 321.795 97.7745C309.342 59.8651 285.125 40.6791 249.775 40.6791Z" fill="black"/>
<path d="M126.816 99.5569C124.817 117.625 133.952 134.008 147.224 136.166C160.495 138.324 172.876 125.39 174.874 107.322C174.874 107.206 174.898 107.086 174.908 106.97C176.757 89.0415 167.642 72.8517 154.462 70.7274C144.209 69.0704 134.492 76.4018 129.676 88.1504C128.199 91.8017 127.237 95.6406 126.816 99.5569Z" fill="white"/>
<path d="M126.816 99.5569C124.817 117.625 133.952 134.008 147.224 136.166C160.495 138.324 172.876 125.39 174.874 107.322C174.874 107.206 174.898 107.086 174.908 106.97C173.247 108.594 170.772 110.053 167.762 108.94C162.494 107.014 154.105 93.8103 154.105 93.8103C154.105 93.8103 143.511 91.2862 129.676 88.1504C128.199 91.8017 127.237 95.6406 126.816 99.5569Z" fill="#E8E8E8"/>
<path d="M150.142 138.622C149.045 138.622 147.95 138.535 146.867 138.362C132.46 136.036 122.463 118.516 124.586 99.3063C125.809 88.2273 130.745 78.6367 138.123 73.0201C143.237 69.128 149.01 67.5625 154.818 68.497C169.231 70.8236 179.228 88.3381 177.104 107.548C175.876 118.627 170.94 128.222 163.568 133.834C159.393 136.999 154.828 138.622 150.142 138.622ZM129.055 99.8024C127.191 116.662 135.513 131.984 147.604 133.935C152.165 134.672 156.754 133.405 160.871 130.27C167.184 125.453 171.59 116.782 172.669 107.057C174.532 90.1974 166.216 74.8698 154.124 72.9238C149.559 72.1868 144.975 73.4537 140.853 76.5895C134.545 81.4065 130.134 90.077 129.055 99.8024Z" fill="black"/>
<path d="M161.031 105.543C161.81 90.716 154.252 78.2657 144.149 77.7343C134.047 77.2029 125.225 88.7917 124.445 103.618C123.666 118.445 131.224 130.896 141.327 131.427C151.43 131.958 160.252 120.37 161.031 105.543Z" fill="white"/>
<path d="M139.899 131.272C129.883 129.576 123.045 116.257 124.615 101.513C124.778 99.9504 125.037 98.3996 125.39 96.8691C126.96 107.317 132.854 115.53 140.641 116.84C149.434 118.319 157.755 110.496 160.803 98.7237C161.164 101.687 161.185 104.682 160.866 107.649C159.296 122.389 149.906 132.948 139.899 131.272Z" fill="#E8E8E8"/>
<path d="M142.023 133.69C141.184 133.691 140.346 133.62 139.519 133.478C128.381 131.595 120.695 117.149 122.385 101.277C123.387 91.8644 127.543 83.5503 133.5 79.032C137.352 76.1129 141.657 74.9568 145.957 75.6842C157.095 77.5532 164.781 92.0041 163.091 107.9C162.089 117.312 157.933 125.631 151.977 130.145C149.141 132.393 145.641 133.639 142.023 133.69ZM126.84 101.754C125.395 115.313 131.419 127.563 140.27 129.061C143.318 129.576 146.429 128.714 149.27 126.561C154.264 122.775 157.765 115.617 158.636 107.413C160.081 93.8538 154.057 81.6042 145.206 80.1014C142.158 79.5859 139.042 80.453 136.206 82.6062C131.212 86.3875 127.711 93.5455 126.84 101.754Z" fill="black"/>
<g opacity="0.5">
<path d="M223.92 56.0166C223.92 56.0166 266.075 53.7574 290.297 76.6813L290.374 76.7536C295.468 81.5705 299.152 90.8576 301.083 97.5532C303.082 104.389 304.148 111.463 304.252 118.584C304.762 135.925 301.709 144.152 301.709 144.152C311.446 134.735 316.782 124.186 316.503 109.726C316.469 108.281 316.382 106.835 316.247 105.328C316.218 104.981 316.18 104.634 316.137 104.292C315.508 100.45 314.647 96.6484 313.56 92.9097C309.708 79.6582 300.886 63.7237 283.704 56.0696C251.542 41.7391 222.418 54.2391 223.92 56.0166Z" fill="white"/>
</g>
<g opacity="0.5">
<path d="M205.93 102.469C207.847 94.7769 203.975 87.1876 197.281 85.5181C190.587 83.8487 183.607 88.7311 181.689 96.4234C179.772 104.116 183.644 111.705 190.338 113.374C197.032 115.044 204.013 110.161 205.93 102.469Z" fill="white"/>
</g>
<g opacity="0.5">
<path d="M192.581 126.508C193.665 123.418 192.365 120.148 189.677 119.205C186.989 118.262 183.932 120.002 182.848 123.093C181.764 126.183 183.065 129.453 185.752 130.396C188.44 131.339 191.498 129.598 192.581 126.508Z" fill="white"/>
</g>
<path d="M335.923 231.214C329.432 230.665 323.649 228.126 317.812 219.403C311.518 209.995 311.201 202.962 305.003 194.759C299.971 188.097 303.843 182.235 310.815 183.198C316.681 184.013 324.376 192.89 324.376 192.89C324.376 192.89 328.228 186.286 331.642 181.329C332.466 180.125 349.898 178.271 359.312 184.22C371.038 191.604 369.844 203.487 369.458 206.301C368.491 213.425 354.901 232.837 335.923 231.214Z" fill="white"/>
<path d="M367.065 212.428C362.25 220.934 350.736 232.466 335.928 231.214C329.432 230.665 323.649 228.131 317.812 219.407C315.828 216.406 314.129 213.226 312.737 209.908C315.145 212.192 318.453 214.186 322.483 214.051C330.289 213.786 336.203 207.404 334.041 199.884C336.443 200.448 342.02 233.073 367.065 212.428Z" fill="#E8E8E8"/>
<path d="M320.008 224.157C315.419 220.395 312.434 215.082 310.175 209.836L308.509 205.983C307.965 204.716 307.425 203.464 306.824 202.269C306.539 201.662 306.207 201.089 305.899 200.496C305.591 199.904 305.244 199.345 304.893 198.781C304.541 198.218 304.199 197.659 303.804 197.124L303.236 196.31L302.567 195.323C301.597 193.9 300.929 192.293 300.602 190.602C300.224 188.68 300.536 186.686 301.483 184.971C302.502 183.284 304.099 182.025 305.976 181.426C307.658 180.899 309.438 180.76 311.182 181.021C312.841 181.32 314.433 181.915 315.881 182.78C317.206 183.535 318.467 184.397 319.652 185.357C320.822 186.281 321.93 187.254 322.989 188.247C324.049 189.239 325.05 190.28 326.071 191.431L322.445 191.763C323.601 189.75 324.752 187.775 325.96 185.805L327.8 182.866L328.763 181.421L329.244 180.694L329.485 180.328L329.61 180.145L329.668 180.053L329.716 179.986C329.785 179.896 329.859 179.811 329.938 179.73C330.092 179.567 330.262 179.419 330.444 179.287L330.689 179.143C330.831 179.059 330.979 178.987 331.132 178.926C331.363 178.834 331.614 178.748 331.763 178.7C332.148 178.579 332.466 178.507 332.793 178.43C333.444 178.285 334.05 178.194 334.667 178.102C335.88 177.934 337.074 177.828 338.273 177.76C340.659 177.626 343.052 177.654 345.434 177.842C347.843 178.017 350.234 178.383 352.585 178.936C355.027 179.497 357.386 180.375 359.601 181.546C360.694 182.189 361.751 182.888 362.77 183.642C363.251 184.027 363.733 184.456 364.215 184.865C364.451 185.072 364.696 185.27 364.927 185.491L365.587 186.18C367.389 188.01 368.856 190.143 369.921 192.481C370.97 194.799 371.654 197.265 371.948 199.793C372.084 201.042 372.139 202.299 372.112 203.555C372.112 204.181 372.059 204.807 372.001 205.434C371.949 206.096 371.856 206.754 371.722 207.404C371.424 208.688 370.988 209.937 370.422 211.127C369.901 212.243 369.317 213.329 368.674 214.379C367.41 216.439 365.975 218.389 364.383 220.207C361.253 223.895 357.46 226.965 353.201 229.258C348.916 231.498 344.014 232.789 339.213 232.438C338.935 232.42 338.674 232.299 338.479 232.1C338.285 231.901 338.171 231.637 338.16 231.359C338.148 231.081 338.24 230.808 338.418 230.594C338.595 230.379 338.846 230.238 339.121 230.198C347.823 228.839 355.272 223.806 360.897 217.226C362.286 215.573 363.534 213.807 364.629 211.946C365.16 211.038 365.643 210.103 366.073 209.143C366.477 208.263 366.787 207.342 366.998 206.397C367.083 205.927 367.143 205.453 367.176 204.976C367.219 204.461 367.253 203.945 367.253 203.43C367.265 202.402 367.212 201.373 367.094 200.352C366.842 198.336 366.28 196.372 365.428 194.528C364.573 192.705 363.415 191.041 362.004 189.605L361.484 189.051C361.306 188.873 361.099 188.719 360.911 188.57C360.516 188.242 360.145 187.895 359.746 187.577C358.893 187.009 358.06 186.344 357.208 185.886C355.383 184.924 353.44 184.202 351.429 183.738C349.333 183.248 347.201 182.925 345.054 182.775C342.88 182.609 340.698 182.569 338.519 182.654C337.436 182.702 336.352 182.78 335.307 182.905C334.787 182.977 334.262 183.044 333.8 183.146C333.574 183.194 333.318 183.242 333.169 183.295C333.02 183.348 333.029 183.338 332.991 183.348C332.952 183.358 332.991 183.348 333.054 183.314C333.074 183.304 333.092 183.289 333.106 183.271C333.238 183.191 333.356 183.092 333.458 182.977L331.758 185.453L329.914 188.295C328.7 190.222 327.477 192.124 326.312 194.046C326.158 194.3 325.956 194.52 325.717 194.695C325.478 194.87 325.207 194.995 324.92 195.065C324.632 195.135 324.333 195.147 324.041 195.102C323.748 195.056 323.468 194.952 323.215 194.798C323.02 194.681 322.845 194.535 322.695 194.364C320.906 192.373 318.954 190.534 316.859 188.868C315.859 188.052 314.792 187.321 313.671 186.681C312.702 186.09 311.636 185.674 310.522 185.453C309.474 185.292 308.403 185.366 307.387 185.67C306.554 185.92 305.841 186.466 305.384 187.206C304.982 187.999 304.871 188.908 305.071 189.774C305.302 190.851 305.759 191.867 306.409 192.755L306.934 193.507L307.599 194.408C308.051 195 308.446 195.636 308.86 196.257C309.275 196.879 309.636 197.529 310.016 198.184C310.397 198.839 310.734 199.485 311.052 200.15C311.716 201.469 312.299 202.799 312.872 204.119L314.461 208.035C315.477 210.617 316.585 213.073 317.798 215.491C318.4 216.705 319.036 217.9 319.671 219.114C320.307 220.328 320.991 221.498 321.679 222.702V222.731C321.818 222.962 321.871 223.234 321.827 223.499C321.784 223.765 321.647 224.006 321.442 224.18C321.237 224.354 320.977 224.449 320.708 224.449C320.439 224.448 320.179 224.351 319.975 224.176L320.008 224.157Z" fill="black"/>
<path d="M327.67 187.491C331.272 182.115 338.914 164.514 346.417 162.505C351.579 161.123 355.292 164.514 353.972 170.323C352.913 174.981 346.874 183.762 346.874 183.762" fill="white"/>
<path d="M327.67 189.73C327.263 189.732 326.864 189.622 326.515 189.414C326.167 189.205 325.881 188.905 325.69 188.547C325.499 188.188 325.409 187.784 325.43 187.378C325.452 186.972 325.583 186.579 325.811 186.243C326.625 185.029 327.708 183.059 328.96 180.776C333.294 172.9 339.222 162.115 345.815 160.342C349.055 159.47 352.075 160.096 354.102 162.047C356.129 163.998 356.943 167.269 356.134 170.819C355.012 175.751 349.344 184.094 348.704 185.029C348.367 185.519 347.85 185.855 347.266 185.963C346.681 186.072 346.078 185.944 345.588 185.607C345.098 185.27 344.762 184.753 344.654 184.168C344.546 183.584 344.674 182.98 345.01 182.49C346.624 180.144 350.977 173.295 351.752 169.822C352.205 167.842 351.921 166.185 350.982 165.275C350.11 164.441 348.646 164.22 346.961 164.668C342.193 165.949 336.367 176.58 332.851 182.938C331.546 185.308 330.444 187.36 329.48 188.719C329.283 189.021 329.015 189.272 328.7 189.448C328.384 189.624 328.031 189.721 327.67 189.73Z" fill="black"/>
<path d="M343.633 187.317C347.178 180.708 353.799 168.906 360.199 167.336C364.831 166.204 369.261 168.858 367.797 175.087C366.704 179.74 359.736 191.753 359.736 191.753" fill="white"/>
<path d="M343.142 187.052C343.884 184.675 344.795 182.354 345.868 180.106C346.944 177.83 348.193 175.64 349.604 173.555C351.067 171.359 352.814 169.367 354.8 167.63L355.19 167.293L355.629 166.975L356.505 166.354C356.823 166.161 357.16 165.983 357.468 165.8L357.95 165.535C358.133 165.453 358.325 165.385 358.513 165.313C358.893 165.178 359.279 165.034 359.659 164.923C360.04 164.812 360.415 164.75 360.8 164.697C361.598 164.588 362.406 164.567 363.208 164.634C364.959 164.763 366.626 165.437 367.975 166.561C369.333 167.78 370.221 169.437 370.484 171.243C370.697 172.801 370.599 174.386 370.195 175.906C369.833 177.215 369.365 178.493 368.794 179.726C367.754 182.067 366.617 184.273 365.423 186.445C364.229 188.618 362.977 190.737 361.643 192.842C361.338 193.334 360.854 193.688 360.293 193.83C359.733 193.973 359.138 193.893 358.635 193.607C358.132 193.321 357.759 192.852 357.595 192.297C357.43 191.742 357.487 191.145 357.752 190.631V190.597C359.943 186.325 362.221 181.98 364.08 177.693C364.516 176.698 364.889 175.676 365.197 174.634C365.432 173.792 365.504 172.912 365.409 172.042C365.329 171.408 365.045 170.816 364.6 170.357C364.066 169.905 363.404 169.63 362.707 169.571C362.288 169.526 361.865 169.526 361.446 169.571C361.229 169.571 361.007 169.648 360.786 169.677C360.564 169.706 360.396 169.803 360.194 169.856C360.093 169.889 359.996 169.909 359.895 169.947L359.582 170.101C359.375 170.207 359.163 170.294 358.951 170.41L358.32 170.819L357.998 171.021L357.69 171.272C355.944 172.704 354.357 174.319 352.956 176.089C349.951 179.701 347.201 183.695 344.086 187.553C343.99 187.67 343.851 187.745 343.701 187.76C343.55 187.775 343.399 187.73 343.282 187.635C343.194 187.564 343.129 187.468 343.097 187.36C343.064 187.251 343.065 187.136 343.099 187.028L343.142 187.052Z" fill="black"/>
<path d="M367.759 195.395C372.001 185.703 364.927 180.53 359.881 181.281C352.215 182.423 347.587 192.163 351.073 195.891C354.95 200.034 360.704 194.986 360.704 194.986L367.759 195.395Z" fill="white"/>
<path d="M354.704 199.764C353.71 199.77 352.726 199.565 351.818 199.161C350.91 198.757 350.098 198.165 349.436 197.423C347.51 195.381 347.124 192.23 348.328 188.752C349.773 184.528 353.842 179.889 359.553 179.041C363.03 178.526 366.873 180.149 369.117 183.083C370.653 185.092 372.786 189.475 369.81 196.267L369.184 197.712L361.441 197.259C359.775 198.507 357.271 199.764 354.704 199.764ZM360.877 183.449C360.653 183.448 360.43 183.464 360.208 183.497C356.356 184.066 353.553 187.399 352.556 190.241C351.94 192.013 351.998 193.613 352.71 194.35C355.046 196.85 359.067 193.43 359.24 193.285L359.924 192.688L360.839 192.736L366.252 193.049C367.181 190.159 366.95 187.635 365.558 185.824C365.002 185.106 364.294 184.521 363.484 184.11C362.675 183.7 361.785 183.474 360.877 183.449Z" fill="black"/>
<path d="M360.02 221.493C360.02 221.493 372.271 208.81 371.741 201.093C371.38 195.795 368.659 192.707 363.608 193.439C355.503 194.605 351.049 202.389 354.805 206.267C358.075 209.639 364.436 205.356 364.436 205.356" fill="white"/>
<path d="M358.412 219.937C360.238 217.996 361.96 215.959 363.569 213.834C365.17 211.758 366.588 209.547 367.807 207.225C368.372 206.133 368.833 204.989 369.184 203.81C369.276 203.526 369.314 203.251 369.386 202.977C369.459 202.702 369.488 202.433 369.497 202.177L369.531 201.792C369.531 201.667 369.531 201.551 369.531 201.431V201.248L369.507 201.031L369.459 200.592C369.357 199.521 369.037 198.482 368.52 197.538C368.401 197.343 368.271 197.155 368.13 196.975C367.992 196.821 367.844 196.676 367.687 196.541C367.382 196.279 367.028 196.079 366.646 195.954C366.224 195.81 365.783 195.728 365.337 195.708C365.086 195.708 364.855 195.708 364.581 195.708C364.306 195.708 364.065 195.742 363.772 195.795C362.638 195.964 361.533 196.288 360.487 196.758C358.4 197.628 356.693 199.215 355.672 201.233C355.237 202.113 355.11 203.114 355.311 204.075C355.428 204.526 355.649 204.943 355.956 205.294C356.125 205.433 356.245 205.65 356.438 205.751L356.717 205.959L357.049 206.098L357.218 206.18L357.405 206.223L357.786 206.32C358.065 206.358 358.347 206.38 358.629 206.387C359.241 206.39 359.851 206.326 360.449 206.195C361.73 205.911 362.972 205.477 364.152 204.904H364.186C364.252 204.872 364.324 204.853 364.398 204.849C364.471 204.846 364.545 204.856 364.614 204.881C364.683 204.906 364.747 204.944 364.802 204.993C364.856 205.042 364.901 205.102 364.932 205.169C364.987 205.283 365.001 205.413 364.973 205.537C364.945 205.661 364.876 205.772 364.778 205.853C363.641 206.77 362.38 207.521 361.032 208.083C360.32 208.374 359.579 208.586 358.821 208.714C358.418 208.777 358.011 208.811 357.603 208.815L356.962 208.762L356.64 208.733L356.317 208.656L355.662 208.483C355.45 208.396 355.243 208.295 355.036 208.194C354.62 207.987 354.233 207.726 353.885 207.418C353.19 206.816 352.641 206.063 352.282 205.217C351.616 203.54 351.577 201.679 352.171 199.976C352.682 198.396 353.534 196.947 354.665 195.732C355.758 194.536 357.042 193.529 358.465 192.755C359.178 192.381 359.916 192.059 360.675 191.792C361.437 191.534 362.218 191.334 363.011 191.195C363.852 191.051 364.705 190.991 365.558 191.016C366.489 191.061 367.407 191.251 368.279 191.58C370.086 192.274 371.582 193.596 372.492 195.303C373.292 196.796 373.783 198.434 373.937 200.12L373.99 200.708L374.019 201.002V201.339C374.019 201.561 374.019 201.787 374.019 202.009L373.976 202.654C373.942 203.088 373.86 203.483 373.797 203.897C373.735 204.311 373.629 204.696 373.513 205.067C373.085 206.531 372.517 207.951 371.818 209.306C370.479 211.864 368.921 214.301 367.162 216.59C365.441 218.841 363.599 220.998 361.643 223.049C361.236 223.482 360.673 223.734 360.079 223.752C359.486 223.77 358.909 223.551 358.477 223.143C358.045 222.735 357.792 222.173 357.774 221.579C357.757 220.985 357.976 220.408 358.383 219.976L358.412 219.937Z" fill="black"/>
<path d="M61.802 181.031C58.9807 181.769 56.2497 182.818 53.659 184.157C52.453 184.795 51.3223 185.565 50.2882 186.455C49.4015 187.156 48.7169 188.081 48.3042 189.133C48.1862 189.493 48.1549 189.876 48.2127 190.251C48.2693 190.646 48.407 191.024 48.6172 191.363C48.8251 191.658 49.1076 191.893 49.4358 192.043C49.9078 192.264 50.4144 192.403 50.9334 192.452C52.2438 192.575 53.5648 192.513 54.8581 192.269C56.2655 192.029 57.6579 191.707 59.0283 191.306C59.3097 191.223 59.6046 191.197 59.8962 191.228C60.1878 191.26 60.4703 191.349 60.7275 191.49C60.9847 191.631 61.2116 191.821 61.3951 192.05C61.5787 192.278 61.7153 192.541 61.7972 192.823C61.8543 193.024 61.8834 193.231 61.8839 193.44V193.719C61.7972 194.08 61.7201 194.567 61.6575 195.005C61.5949 195.443 61.542 195.911 61.5034 196.363C61.4202 197.266 61.3993 198.174 61.4408 199.08C61.5275 200.848 61.8935 202.621 62.8855 203.791L62.9336 203.849C63.1102 204.062 63.202 204.332 63.1916 204.608C63.1811 204.885 63.0691 205.147 62.877 205.346C62.6848 205.545 62.4261 205.666 62.1505 205.685C61.8748 205.705 61.6015 205.622 61.3831 205.453C60.4695 204.708 59.734 203.768 59.2305 202.703C58.7453 201.71 58.3738 200.666 58.123 199.591C57.8744 198.551 57.6958 197.495 57.5884 196.431C57.5307 195.906 57.4921 195.376 57.4632 194.841C57.4344 194.307 57.4199 193.806 57.4392 193.189L60.2948 195.598C58.7503 196.06 57.1791 196.428 55.59 196.701C53.8875 197.008 52.1519 197.091 50.4278 196.946C49.432 196.854 48.457 196.605 47.5385 196.209C46.4618 195.75 45.5322 195.004 44.8515 194.051C44.2031 193.127 43.7898 192.059 43.6476 190.94C43.4953 189.797 43.643 188.635 44.0762 187.568C44.8484 185.804 46.0934 184.289 47.6734 183.189C49.0495 182.222 50.539 181.428 52.1084 180.824C55.0913 179.681 58.2327 179.005 61.4216 178.82C61.7029 178.794 61.9836 178.876 62.2075 179.048C62.4315 179.22 62.5822 179.471 62.6296 179.749C62.6771 180.028 62.6177 180.314 62.4634 180.551C62.3091 180.788 62.0712 180.957 61.7972 181.026L61.802 181.031Z" fill="black"/>
<path d="M104.221 227.36C103.971 227.361 103.724 227.306 103.498 227.198C103.272 227.091 103.074 226.934 102.916 226.739C102.652 226.411 96.3914 218.459 98.3561 201.691C100.249 185.578 112.803 177.052 113.342 176.696C113.713 176.448 114.167 176.359 114.604 176.446C115.041 176.534 115.425 176.792 115.673 177.163C115.92 177.534 116.009 177.988 115.922 178.425C115.834 178.863 115.577 179.247 115.206 179.494C115.09 179.576 103.398 187.553 101.693 202.081C99.9067 217.312 105.478 224.552 105.546 224.624C105.742 224.872 105.865 225.17 105.9 225.484C105.935 225.798 105.88 226.115 105.743 226.4C105.606 226.685 105.391 226.925 105.124 227.093C104.856 227.261 104.547 227.35 104.231 227.351L104.221 227.36Z" fill="black"/>
<path d="M299.836 251.122C299.653 251.122 299.471 251.092 299.297 251.036C298.656 250.819 283.589 245.53 280.704 226.951C277.415 205.804 293.619 194.157 294.308 193.67C294.488 193.531 294.694 193.429 294.914 193.372C295.135 193.314 295.364 193.302 295.589 193.336C295.814 193.37 296.03 193.45 296.224 193.57C296.417 193.689 296.584 193.847 296.715 194.034C296.845 194.22 296.937 194.432 296.983 194.654C297.03 194.877 297.031 195.107 296.986 195.33C296.941 195.554 296.851 195.765 296.722 195.953C296.593 196.14 296.427 196.299 296.234 196.421C295.618 196.859 281.061 207.394 284.017 226.435C286.594 243.03 300.231 247.813 300.39 247.861C300.765 247.99 301.082 248.248 301.286 248.588C301.489 248.929 301.566 249.33 301.502 249.722C301.438 250.114 301.237 250.47 300.936 250.728C300.635 250.986 300.252 251.129 299.855 251.132L299.836 251.122Z" fill="black"/>
<path d="M191.81 348.001C183.142 348.001 175.799 345.631 173.03 343.449C172.692 343.169 172.477 342.768 172.43 342.331C172.384 341.895 172.51 341.458 172.782 341.113C173.053 340.768 173.449 340.544 173.884 340.487C174.319 340.43 174.759 340.546 175.11 340.809C178.52 343.497 191.757 346.652 203.878 342.861C214.597 339.489 221.864 331.782 225.48 319.971C225.623 319.562 225.917 319.224 226.303 319.028C226.688 318.831 227.135 318.79 227.549 318.914C227.964 319.039 228.314 319.318 228.528 319.694C228.742 320.07 228.802 320.515 228.697 320.934C223.761 337.071 213.023 343.497 204.88 346.05C200.646 347.356 196.24 348.014 191.81 348.001Z" fill="black"/>
<path d="M120.161 310.082H120.036C85.422 307.5 65.5677 285.858 66.29 274.918C66.3234 274.475 66.5293 274.063 66.8634 273.77C67.1975 273.477 67.6331 273.328 68.0766 273.353C68.2968 273.367 68.5121 273.424 68.7101 273.522C68.9081 273.619 69.0848 273.755 69.2303 273.921C69.3757 274.087 69.4869 274.28 69.5575 274.49C69.6281 274.699 69.6567 274.92 69.6416 275.14C69.372 279.196 73.2147 286.378 82.4027 293.276C92.5152 300.877 105.974 305.646 120.286 306.715C120.733 306.732 121.155 306.925 121.46 307.253C121.764 307.581 121.926 308.016 121.909 308.464C121.892 308.911 121.699 309.333 121.371 309.637C121.043 309.942 120.608 310.104 120.161 310.087V310.082Z" fill="black"/>
<path d="M225.365 360.308C223.516 362.539 220.983 363.728 218.474 364.711C215.925 365.664 213.273 366.311 210.572 366.638C207.834 366.981 205.062 366.968 202.328 366.599C199.515 366.233 196.773 365.445 194.194 364.263C193.654 364.013 193.235 363.558 193.03 362.999C192.825 362.44 192.851 361.822 193.101 361.281C193.351 360.741 193.806 360.322 194.365 360.117C194.924 359.912 195.542 359.938 196.082 360.188C196.153 360.221 196.222 360.258 196.289 360.299H196.318C200.372 362.731 205.361 363.911 210.384 363.83C212.911 363.807 215.426 363.483 217.877 362.866C219.099 362.554 220.294 362.143 221.45 361.638C222.574 361.146 223.605 360.465 224.498 359.624L224.532 359.591C224.634 359.508 224.761 359.464 224.892 359.466C225.023 359.468 225.149 359.516 225.248 359.601C225.347 359.687 225.413 359.804 225.435 359.934C225.456 360.063 225.431 360.195 225.365 360.308Z" fill="black"/>
<path d="M96.7911 335.318C95.3088 335.599 93.8063 335.76 92.2982 335.8C90.766 335.853 89.2321 335.773 87.7139 335.559C86.1272 335.319 84.5751 334.888 83.091 334.277C81.5185 333.57 80.0826 332.592 78.8486 331.387C78.637 331.181 78.4683 330.935 78.3518 330.663C78.2354 330.391 78.1737 330.099 78.1701 329.803C78.1665 329.508 78.2212 329.214 78.331 328.94C78.4408 328.665 78.6036 328.415 78.8101 328.203C79.0165 327.992 79.2626 327.823 79.5343 327.706C79.806 327.59 80.098 327.528 80.3936 327.525C80.6892 327.521 80.9826 327.576 81.257 327.686C81.5314 327.795 81.7816 327.958 81.9931 328.165C82.0919 328.261 82.1821 328.366 82.2628 328.478V328.512C82.9605 329.5 83.8201 330.363 84.8053 331.065C85.9126 331.791 87.1024 332.383 88.3495 332.828C89.6681 333.279 91.0231 333.616 92.3994 333.834C93.8002 334.066 95.2172 334.185 96.637 334.191H96.6659C96.8026 334.195 96.933 334.25 97.0327 334.344C97.1323 334.437 97.1944 334.564 97.2074 334.701C97.2204 334.837 97.1833 334.973 97.1032 335.084C97.023 335.195 96.9052 335.273 96.7718 335.303L96.7911 335.318Z" fill="black"/>
<path d="M103.909 231.854C103.909 231.854 105.522 246.878 107.458 248.184C111.743 251.074 152.829 269.706 160.428 272.616C172.062 277.066 177.981 264.33 182.936 254.918C188.189 244.937 193.713 235.905 192.446 232.702C190.963 228.94 181.433 218.921 181.433 218.921" fill="white"/>
<path d="M186.644 248.016C185.454 250.217 184.193 252.539 182.936 254.918C177.981 264.331 172.067 277.076 160.428 272.611C152.829 269.721 111.743 251.074 107.458 248.189C105.532 246.884 103.909 231.855 103.909 231.855L137.617 226.229C150.556 232.568 177.619 242.361 183.706 244.692C184.544 245.015 185.878 247.861 186.644 248.016Z" fill="#E8E8E8"/>
<path d="M165.128 275.8C163.243 275.777 161.379 275.406 159.629 274.706C152.531 271.989 110.992 253.271 106.206 250.043C105.44 249.528 103.403 248.155 101.684 232.09C101.62 231.5 101.793 230.908 102.166 230.445C102.538 229.982 103.08 229.686 103.67 229.622C104.261 229.558 104.853 229.731 105.316 230.104C105.778 230.477 106.074 231.018 106.138 231.609C106.788 237.659 108.036 244.913 108.907 246.45C113.973 249.61 154.043 267.765 161.227 270.535C169.765 273.805 174.475 266.296 180.2 255.327L180.952 253.882C181.886 252.11 182.83 250.366 183.74 248.68C186.788 243.03 190.963 235.294 190.361 233.526C189.398 231.089 183.379 224.22 179.81 220.467C179.608 220.254 179.449 220.003 179.343 219.728C179.238 219.454 179.187 219.161 179.194 218.867C179.202 218.573 179.267 218.283 179.386 218.014C179.506 217.745 179.677 217.503 179.89 217.3C180.103 217.097 180.354 216.938 180.628 216.833C180.903 216.727 181.195 216.676 181.489 216.684C181.783 216.691 182.073 216.756 182.342 216.876C182.611 216.995 182.853 217.166 183.056 217.379C184.062 218.439 192.933 227.837 194.531 231.883C195.889 235.332 193.116 240.742 187.679 250.809C186.778 252.481 185.844 254.21 184.915 255.968L184.168 257.413C180.013 265.347 174.557 275.8 165.128 275.8Z" fill="black"/>
<path d="M105.695 226.363L121.104 203.242C122.452 201.218 124.449 199.713 126.767 198.978C129.084 198.242 131.583 198.319 133.851 199.196L177.268 216.012C178.716 216.571 180.025 217.44 181.103 218.557C182.181 219.674 183.003 221.013 183.512 222.48C184.02 223.947 184.203 225.508 184.046 227.053C183.89 228.598 183.399 230.09 182.608 231.426L167.097 257.707C165.752 259.987 163.61 261.687 161.084 262.477C158.559 263.267 155.83 263.092 153.426 261.985L110.12 242.014C108.715 241.369 107.467 240.427 106.461 239.252C105.455 238.078 104.717 236.699 104.296 235.21C103.875 233.722 103.782 232.161 104.024 230.633C104.265 229.106 104.835 227.649 105.695 226.363Z" fill="white"/>
<path d="M157.909 265.193C156.035 265.19 154.183 264.781 152.482 263.993L109.177 244.022C107.481 243.242 105.975 242.103 104.762 240.684C103.549 239.265 102.658 237.6 102.15 235.803C101.642 234.007 101.529 232.122 101.819 230.278C102.11 228.433 102.796 226.674 103.831 225.121L119.241 201.999C120.86 199.541 123.274 197.714 126.08 196.824C128.885 195.934 131.911 196.035 134.65 197.11L178.067 213.926C179.815 214.602 181.396 215.652 182.698 217.001C184 218.35 184.994 219.966 185.609 221.738C186.224 223.509 186.446 225.393 186.259 227.259C186.073 229.126 185.482 230.929 184.529 232.543L169.023 258.825C167.887 260.764 166.263 262.371 164.314 263.489C162.364 264.606 160.156 265.193 157.909 265.193ZM129.955 200.694C128.568 200.695 127.203 201.04 125.982 201.699C124.761 202.357 123.722 203.307 122.958 204.465L107.549 227.587C106.874 228.602 106.428 229.751 106.239 230.955C106.05 232.159 106.124 233.39 106.456 234.563C106.788 235.736 107.369 236.823 108.16 237.75C108.952 238.677 109.934 239.421 111.04 239.933L154.346 259.904C156.244 260.786 158.402 260.93 160.4 260.306C162.398 259.683 164.092 258.337 165.152 256.532L180.667 230.251C181.29 229.195 181.676 228.017 181.798 226.798C181.92 225.579 181.776 224.348 181.374 223.19C180.973 222.032 180.324 220.976 179.474 220.094C178.623 219.212 177.591 218.526 176.449 218.083L133.032 201.267C132.051 200.887 131.008 200.693 129.955 200.694Z" fill="black"/>
<path d="M180.196 260.116C180.196 260.116 177.499 255.443 179.122 250.289C181.761 241.922 188.546 244.822 188.546 244.822C188.546 244.822 207.644 255.092 229.261 257.062C229.261 257.062 237.23 270.125 223.482 274.148C195.99 273.3 180.196 260.116 180.196 260.116Z" fill="white"/>
<path d="M223.468 274.133C195.99 273.3 180.191 260.116 180.191 260.116C180.191 260.116 177.841 256.041 178.857 251.301C179.11 252.63 179.559 253.914 180.191 255.111C180.191 255.111 195.027 267.481 220.906 269.022C223.306 269.186 225.694 268.555 227.7 267.226C229.467 266.092 230.741 264.334 231.269 262.303C232.107 266.378 231.476 271.792 223.468 274.133Z" fill="#E8E8E8"/>
<path d="M223.472 276.373H223.4C195.47 275.525 179.43 262.404 178.761 261.826C178.558 261.656 178.387 261.453 178.255 261.224C178.125 260.997 175.091 255.626 176.989 249.6C178.043 246.253 179.83 243.979 182.286 242.857C184.554 241.88 187.118 241.846 189.413 242.76C189.474 242.785 189.533 242.814 189.591 242.847C189.779 242.948 208.569 252.929 229.449 254.832C229.797 254.862 230.133 254.975 230.43 255.16C230.727 255.345 230.977 255.597 231.158 255.896C231.331 256.18 235.405 262.967 233.046 269.066C231.707 272.519 228.712 274.952 224.084 276.291C223.885 276.348 223.679 276.376 223.472 276.373ZM181.968 258.671C184.376 260.496 199.246 271.074 223.174 271.903C226.179 270.964 228.095 269.494 228.875 267.471C230.041 264.485 228.649 260.867 227.845 259.181C207.211 257.014 189.417 247.828 187.612 246.869C186.481 246.472 185.244 246.503 184.135 246.956C182.883 247.548 181.915 248.883 181.245 250.973C180.191 254.335 181.477 257.601 181.968 258.671Z" fill="black"/>
<path d="M168.137 236.614C166.943 240.92 162.503 244.408 158.217 244.408C156.688 244.455 155.197 243.916 154.052 242.9L153.744 242.596L153.71 242.558L150.479 239.331L150.725 238.03L152.728 236.252C153.359 234.443 154.443 232.824 155.876 231.551C157.308 230.278 159.043 229.393 160.914 228.979C161.442 228.874 161.979 228.82 162.518 228.82C163.946 228.778 165.344 229.244 166.462 230.135C168.176 231.527 168.889 233.911 168.137 236.614Z" fill="#1C7AEA"/>
<path d="M158.218 246.089C156.266 246.139 154.37 245.437 152.921 244.128L152.579 243.796L152.487 243.699L149.28 240.515C149.084 240.324 148.938 240.087 148.854 239.826C148.77 239.565 148.751 239.287 148.799 239.017L149.044 237.717C149.107 237.344 149.296 237.004 149.579 236.753L151.254 235.265C152.007 233.35 153.202 231.64 154.741 230.275C156.28 228.91 158.12 227.927 160.11 227.408L162.128 225.617C162.449 225.33 162.868 225.178 163.298 225.192C163.728 225.205 164.136 225.383 164.439 225.689L167.646 228.926C169.833 230.814 170.608 233.825 169.717 237.028C168.349 242.124 163.284 246.089 158.218 246.089ZM154.972 241.445L155.232 241.7C156.063 242.406 157.129 242.772 158.218 242.726C161.728 242.726 165.532 239.721 166.52 236.166C167.059 234.239 166.645 232.447 165.412 231.435C165.325 231.363 165.244 231.282 165.171 231.195L163.202 229.205L162.041 230.25C161.804 230.465 161.51 230.606 161.194 230.655C159.627 231.02 158.177 231.772 156.977 232.844C155.777 233.915 154.866 235.271 154.327 236.787C154.236 237.073 154.07 237.329 153.845 237.529L152.362 238.849L154.905 241.387L154.972 241.445Z" fill="black"/>
<path d="M161.369 238.181C165.064 234.915 166.052 229.995 163.577 227.192C161.101 224.389 156.098 224.764 152.403 228.029C148.708 231.295 147.719 236.215 150.195 239.018C152.671 241.821 157.674 241.446 161.369 238.181Z" fill="#22A7F0"/>
<g opacity="0.7">
<path d="M164.641 233.141C164.451 233.809 164.19 234.455 163.861 235.068C164.535 231.156 162.079 228.102 158.083 228.102C154.466 228.102 150.744 230.583 148.933 233.94C148.975 233.664 149.034 233.39 149.111 233.121C150.306 228.82 154.745 225.328 159.031 225.328C163.317 225.328 165.835 228.805 164.641 233.141Z" fill="white"/>
</g>
<path d="M164.935 230.862C164.95 231.624 164.851 232.384 164.642 233.117C163.447 237.423 159.012 240.915 154.727 240.915C150.441 240.915 147.927 237.418 149.121 233.117C149.321 232.407 149.602 231.724 149.959 231.079C150.036 234.282 152.367 236.614 155.853 236.614C159.436 236.614 163.13 234.181 164.935 230.862Z" fill="#1C7AEA"/>
<path d="M154.721 242.592C153.553 242.633 152.391 242.398 151.33 241.906C150.269 241.414 149.339 240.678 148.615 239.759C147.171 237.876 146.776 235.289 147.503 232.669C148.904 227.606 153.97 223.642 159.06 223.642C160.229 223.601 161.392 223.836 162.454 224.328C163.515 224.82 164.446 225.555 165.171 226.474C166.616 228.358 167.006 230.944 166.278 233.565C164.858 238.627 159.792 242.592 154.721 242.592ZM159.055 227.004C155.54 227.004 151.741 230.005 150.753 233.565C150.306 235.188 150.498 236.667 151.302 237.722C151.717 238.224 152.244 238.622 152.84 238.884C153.436 239.146 154.085 239.264 154.736 239.229C158.251 239.229 162.05 236.224 163.038 232.669C163.486 231.045 163.293 229.567 162.489 228.512C162.073 228.007 161.544 227.608 160.945 227.346C160.346 227.084 159.694 226.967 159.041 227.004H159.055Z" fill="black"/>
<path d="M123.724 249.947C123.421 249.947 123.124 249.864 122.863 249.709C122.603 249.553 122.39 249.33 122.246 249.062C122.103 248.795 122.034 248.494 122.048 248.191C122.061 247.888 122.156 247.595 122.323 247.341L131.882 232.861C132.605 231.762 133.058 230.506 133.203 229.197C133.348 227.888 133.181 226.564 132.715 225.333C132.067 223.617 131.832 221.774 132.027 219.951C132.221 218.128 132.841 216.376 133.837 214.836L142.153 202.047C142.27 201.854 142.424 201.686 142.606 201.554C142.789 201.421 142.996 201.327 143.216 201.276C143.436 201.225 143.663 201.219 143.886 201.259C144.108 201.298 144.32 201.381 144.509 201.504C144.698 201.627 144.861 201.787 144.987 201.974C145.113 202.161 145.2 202.372 145.243 202.593C145.286 202.815 145.284 203.042 145.237 203.263C145.19 203.484 145.1 203.693 144.97 203.878L136.654 216.672C135.944 217.769 135.501 219.017 135.362 220.317C135.223 221.616 135.392 222.93 135.855 224.152C136.509 225.882 136.744 227.742 136.541 229.58C136.337 231.418 135.701 233.181 134.684 234.726L125.131 249.205C124.976 249.436 124.766 249.624 124.521 249.753C124.275 249.883 124.002 249.949 123.724 249.947Z" fill="black"/>
<path d="M326.008 191.359C326.008 191.359 326.008 191.359 325.984 191.359L326.061 191.421C326.177 191.508 326.254 191.585 326.394 191.681L327.26 192.284C327.862 192.693 328.498 193.122 329.119 193.57C330.392 194.464 331.591 195.458 332.707 196.542C333.866 197.637 334.842 198.913 335.596 200.318C336.346 201.725 336.763 203.286 336.814 204.88C336.824 205.023 336.779 205.164 336.688 205.275C336.597 205.385 336.467 205.456 336.325 205.474C336.183 205.491 336.039 205.453 335.924 205.368C335.809 205.282 335.731 205.156 335.707 205.015V204.991C335.404 203.669 334.805 202.434 333.954 201.378C333.099 200.33 332.081 199.425 330.94 198.7C329.779 197.944 328.562 197.279 327.299 196.71C326.659 196.416 326.008 196.137 325.329 195.848L324.28 195.366C324.102 195.289 323.875 195.164 323.673 195.058L323.519 194.976L323.288 194.812C323.129 194.702 322.98 194.586 322.806 194.461C322.599 194.25 322.435 194 322.324 193.726C322.214 193.452 322.158 193.158 322.162 192.862C322.165 192.567 322.227 192.274 322.344 192.003C322.461 191.731 322.631 191.485 322.843 191.279C323.055 191.074 323.306 190.912 323.582 190.804C323.857 190.695 324.151 190.643 324.446 190.649C324.742 190.655 325.034 190.719 325.304 190.839C325.575 190.958 325.819 191.13 326.023 191.344L326.008 191.359Z" fill="black"/>
</svg>
