<svg width="420" height="387" viewBox="0 0 420 387" fill="none" xmlns="http://www.w3.org/2000/svg">
<path d="M270.921 288.909C270.921 288.909 276.896 285.539 284.545 280.423C286.033 279.413 287.595 278.34 289.188 277.211C289.442 277.042 289.694 276.858 289.946 276.674C290.698 276.135 291.469 275.576 292.237 275.009C303.285 266.855 314.848 256.42 316.72 247.46C319.754 232.811 293.876 184.978 275.35 170.814C270.466 167.08 261.758 167.732 252.637 170.028L252.455 170.075C245.847 171.853 239.38 174.117 233.106 176.85L231.603 177.497C230.615 177.926 229.682 178.347 228.79 178.748C228.096 179.067 227.434 179.37 226.8 179.668C222.27 181.775 219.375 183.337 219.375 183.337L224.381 193.587L226.93 198.813L231.658 208.508L233.088 211.44L270.921 288.909Z" fill="white"/>
<g opacity="0.35">
<path d="M224.356 193.581L226.906 198.807L261.834 270.345L270.92 288.911L271.28 288.703L271.514 288.573L271.729 288.444C271.786 288.408 271.845 288.376 271.906 288.348L271.973 288.304L272.325 288.099L272.406 288.053L272.734 287.861L273.21 287.577C273.333 287.504 273.463 287.433 273.588 287.355L273.991 287.114C274.163 287.011 274.338 286.901 274.525 286.796C274.898 286.565 275.299 286.331 275.714 286.074C276.129 285.817 276.467 285.615 276.868 285.36C277.269 285.105 277.821 284.773 278.321 284.458C280.177 283.295 282.283 281.935 284.538 280.423L285.87 279.528L286.824 278.876C287.594 278.342 288.39 277.791 289.183 277.226C301.057 268.816 314.678 257.27 316.737 247.488C319.243 235.428 302.15 200.855 285.677 181.12C297.393 199.796 306.636 221.665 304.731 230.747C303.797 235.242 300.078 240.266 295.163 245.214C294.685 245.694 294.086 246.038 293.43 246.208C292.774 246.378 292.084 246.369 291.433 246.182C290.781 245.994 290.192 245.635 289.727 245.142C289.262 244.648 288.937 244.039 288.788 243.378L288.77 243.312C287.252 237.315 284.909 231.558 281.81 226.205C274.311 213.03 261.683 195.159 238.695 188.001C238.155 187.826 231.908 190.398 224.356 193.581Z" fill="black"/>
</g>
<path d="M269.963 291.863L216.531 182.415L218.342 181.45C225.847 177.522 233.605 174.098 241.565 171.201C258.643 165.089 270.433 164.382 276.617 169.115C295.971 183.899 321.974 232.49 318.78 247.896C314.93 266.453 273.689 289.781 271.938 290.765L269.963 291.863ZM222.17 184.251L271.809 285.906C280.02 281.039 311.591 261.574 314.608 247.02C315.901 240.804 311.031 226.273 302.228 209.961C293.194 193.236 282.39 178.883 274.035 172.497C264.393 165.15 234.917 177.71 222.17 184.251Z" fill="black"/>
<path d="M296.177 212.79L279.636 223.522C278.919 223.987 278.377 224.678 278.096 225.485C277.815 226.293 277.811 227.171 278.083 227.981C280.117 234.101 285.527 247.972 293.307 249.301C299.742 250.4 306.802 245.995 309.099 240.039C311.672 233.376 305.184 220.396 301.662 214.138C301.404 213.676 301.053 213.271 300.632 212.95C300.21 212.628 299.727 212.397 299.213 212.271C298.698 212.144 298.163 212.125 297.641 212.215C297.118 212.304 296.62 212.5 296.177 212.79Z" fill="white"/>
<g opacity="0.35">
<path d="M278.083 227.982C280.117 234.102 285.527 247.973 293.307 249.302C299.742 250.401 306.802 245.996 309.101 240.034C310.68 235.941 308.833 229.45 306.356 223.611C307.092 226.802 307.101 229.718 306.393 232.023C302.316 245.225 290.382 238.812 290.382 238.812C290.382 238.812 290.578 241.848 289.757 242.478C286.318 245.104 280.67 232.928 277.894 226.56C277.866 227.042 277.93 227.524 278.083 227.982Z" fill="black"/>
</g>
<path d="M291.587 251.065C283.744 248.521 278.533 236.102 276.048 228.654C275.63 227.394 275.642 226.031 276.082 224.778C276.522 223.525 277.365 222.454 278.479 221.732L295.019 211.001C295.706 210.555 296.478 210.254 297.285 210.117C298.093 209.981 298.921 210.012 299.716 210.207C300.511 210.403 301.258 210.76 301.91 211.256C302.562 211.752 303.106 212.376 303.507 213.091C308.445 221.872 313.772 233.811 311.098 240.806C308.365 247.882 300.221 252.645 292.949 251.407C292.487 251.325 292.032 251.211 291.587 251.065ZM297.334 214.578L280.796 225.304C280.474 225.513 280.23 225.823 280.103 226.185C279.976 226.547 279.973 226.941 280.093 227.305C283.975 238.975 289.04 246.404 293.651 247.196C298.936 248.101 305.096 244.466 307.1 239.27C308.691 235.142 305.96 226.141 299.791 215.183C299.678 214.973 299.523 214.79 299.334 214.646C299.146 214.501 298.928 214.398 298.697 214.344C298.467 214.287 298.228 214.277 297.995 214.315C297.761 214.354 297.538 214.439 297.338 214.566L297.334 214.578Z" fill="black"/>
<path d="M303.231 248.745C302.893 248.74 302.557 248.711 302.224 248.657C301.929 248.608 301.635 248.552 301.359 248.483C300.802 248.342 300.255 248.164 299.721 247.951C298.674 247.551 297.676 247.036 296.744 246.415C294.939 245.21 293.354 243.704 292.059 241.963C291.43 241.115 290.851 240.231 290.324 239.316C289.769 238.413 289.334 237.502 288.872 236.576C288.41 235.65 287.999 234.707 287.63 233.738C287.228 232.753 286.929 231.729 286.738 230.682C286.718 230.55 286.751 230.416 286.829 230.309C286.908 230.201 287.025 230.129 287.157 230.108C287.276 230.091 287.396 230.118 287.497 230.184C287.598 230.249 287.671 230.349 287.704 230.464L287.723 230.53C287.998 231.455 288.363 232.351 288.811 233.206C289.255 234.086 289.743 234.954 290.265 235.8C290.786 236.646 291.316 237.508 291.902 238.276C292.463 239.068 293.072 239.824 293.728 240.54C294.991 241.944 296.489 243.117 298.155 244.006C298.953 244.438 299.798 244.776 300.673 245.015C301.096 245.132 301.526 245.221 301.96 245.28C302.173 245.313 302.388 245.334 302.603 245.343C302.772 245.355 302.942 245.357 303.112 245.349C303.332 245.31 303.558 245.316 303.777 245.365C303.995 245.414 304.202 245.506 304.385 245.635C304.568 245.764 304.723 245.928 304.843 246.117C304.963 246.306 305.044 246.517 305.082 246.738C305.12 246.958 305.115 247.184 305.065 247.403C305.016 247.621 304.925 247.828 304.796 248.011C304.667 248.194 304.503 248.35 304.314 248.47C304.125 248.589 303.914 248.671 303.693 248.709C303.59 248.727 303.485 248.735 303.38 248.733L303.231 248.745Z" fill="black"/>
<path d="M247.898 182.837C249.869 181.38 251.851 179.993 253.863 178.615C255.876 177.238 257.918 175.91 260.003 174.635C262.088 173.361 264.195 172.1 266.39 170.954C268.61 169.764 270.914 168.737 273.283 167.882C273.817 167.697 274.403 167.731 274.912 167.977C275.421 168.224 275.811 168.663 275.997 169.197C276.182 169.732 276.148 170.318 275.901 170.827C275.655 171.336 275.216 171.727 274.682 171.912L274.541 171.959C272.317 172.6 270.142 173.4 268.033 174.354C265.866 175.29 263.736 176.357 261.614 177.46C259.492 178.563 257.4 179.736 255.319 180.938C253.237 182.141 251.176 183.383 249.161 184.667C248.921 184.832 248.625 184.895 248.339 184.842C248.053 184.789 247.799 184.624 247.635 184.384C247.47 184.144 247.407 183.849 247.46 183.562C247.513 183.276 247.678 183.022 247.918 182.857L247.898 182.837Z" fill="black"/>
<path d="M214.882 184.655L198.218 197.483L170.327 218.957L168.77 220.157C164.266 219.744 159.899 219.133 155.669 218.323C119.242 211.376 92.3618 189.964 71.5373 156.038C61.4379 149.551 54.3054 143.322 51.9463 136.466C49.7486 130.073 51.7244 123.124 59.3626 114.932C69.81 103.724 82.8603 110.213 91.2017 115.924C95.6935 119.007 106.205 126.371 111.894 132.224C114.499 134.89 117.259 137.399 120.162 139.737C142.853 158.238 177.242 171.98 197.757 179.133C208.089 182.716 214.882 184.655 214.882 184.655Z" fill="white"/>
<g opacity="0.25">
<path d="M93.0164 133.292C93.0048 133.61 92.9412 133.923 92.8282 134.22C92.9159 133.459 93.005 133.123 93.0164 133.292Z" fill="black"/>
</g>
<g opacity="0.25">
<path d="M198.219 197.481L170.327 218.955L168.771 220.156C164.266 219.743 159.899 219.131 155.67 218.321C119.242 211.375 92.3621 189.963 71.5376 156.037C61.4382 149.549 54.3057 143.321 51.9467 136.465C57.5816 141.789 65.422 147.225 73.5618 146.648C82.7166 146.008 88.6438 134.912 89.7465 131.329C89.0568 137.422 88.72 170.05 129.284 190.56C154 203.063 186.913 199.294 198.219 197.481Z" fill="black"/>
</g>
<path d="M140.391 216.597C111.868 207.345 88.6659 187.842 69.9994 157.569C56.35 148.756 50.0958 141.578 49.1026 133.619C48.3034 127.209 51.144 120.619 57.8049 113.477C66.4936 104.154 78.1314 104.385 92.401 114.17C99.1095 118.761 108.196 125.365 113.423 130.742C143.941 162.12 214.726 182.394 215.454 182.604C215.733 182.671 215.996 182.794 216.226 182.965C216.456 183.136 216.65 183.352 216.795 183.6C216.94 183.848 217.033 184.122 217.069 184.407C217.106 184.691 217.084 184.981 217.006 185.257C216.928 185.533 216.795 185.791 216.615 186.014C216.435 186.238 216.212 186.423 215.959 186.558C215.706 186.694 215.428 186.777 215.143 186.802C214.857 186.828 214.569 186.795 214.296 186.707C211.35 185.871 141.689 165.915 110.37 133.713C106.479 129.718 99.2452 124.027 89.9948 117.682C77.5491 109.186 68.0386 108.755 60.9167 116.398C55.1717 122.556 52.6893 128.021 53.3303 133.099C54.1527 139.663 60.1223 146.184 72.6864 154.254L73.0935 154.512L73.3483 154.933C97.134 193.674 128.409 214.316 168.949 218.032C169.236 218.046 169.518 218.119 169.776 218.245C170.034 218.371 170.264 218.548 170.452 218.766C170.641 218.983 170.783 219.236 170.871 219.51C170.958 219.784 170.99 220.073 170.963 220.359C170.937 220.646 170.852 220.924 170.715 221.177C170.579 221.43 170.392 221.652 170.167 221.831C169.942 222.01 169.683 222.142 169.406 222.218C169.129 222.295 168.839 222.314 168.554 222.276C158.984 221.435 149.538 219.531 140.391 216.597Z" fill="black"/>
<path d="M105.752 198.288C105.28 198.134 104.876 197.82 104.61 197.399C104.345 196.979 104.235 196.479 104.299 195.986C104.363 195.493 104.597 195.038 104.961 194.699C105.325 194.36 105.795 194.159 106.292 194.13C106.391 194.13 113.421 193.663 121.122 188.61C131.469 181.821 138.097 170.383 140.819 154.612C140.865 154.335 140.965 154.071 141.113 153.834C141.261 153.596 141.455 153.39 141.682 153.227C141.91 153.065 142.168 152.948 142.44 152.885C142.713 152.822 142.995 152.813 143.271 152.859C143.829 152.952 144.326 153.262 144.655 153.722C144.983 154.182 145.115 154.754 145.022 155.312C141.351 176.607 131.158 187.175 123.258 192.289C114.604 197.888 106.854 198.347 106.523 198.366C106.263 198.388 106.002 198.361 105.752 198.288Z" fill="black"/>
<path d="M117.637 137.624C115.59 136.33 113.585 132.839 113.203 131.581C112.417 128.997 111.178 125.782 109.847 121.687C107.56 114.669 100.221 104.333 94.6156 106.442C85.624 109.789 95.1108 121.273 94.6708 123.141C94.2307 125.009 87.5648 132.779 90.1635 143.17L117.637 137.624Z" fill="white"/>
<path d="M116.503 139.424C115.611 138.823 114.813 138.092 114.135 137.256C113.527 136.517 112.974 135.734 112.48 134.915C112.234 134.509 112.003 134.096 111.78 133.659C111.529 133.168 111.32 132.656 111.155 132.129C110.916 131.355 110.654 130.567 110.38 129.775L108.706 124.958L107.888 122.51C107.627 121.762 107.378 121.018 107.053 120.302C105.791 117.385 104.109 114.669 102.061 112.24C101.103 111.089 99.988 110.08 98.7486 109.241C97.5773 108.476 96.4055 108.143 95.6053 108.381C95.3427 108.467 95.0868 108.573 94.8397 108.696C94.5804 108.829 94.3315 108.981 94.0951 109.152C93.705 109.434 93.3963 109.815 93.2001 110.255C92.8215 111.074 92.886 112.409 93.3021 113.804C93.7709 115.294 94.372 116.74 95.0983 118.123C95.4556 118.902 95.8563 119.609 96.2424 120.484C96.4841 120.974 96.685 121.483 96.843 122.006C96.9039 122.237 96.9451 122.472 96.9664 122.71C96.9859 122.903 96.9848 123.099 96.963 123.292C96.928 123.4 96.9409 123.524 96.9198 123.63C96.9059 123.692 96.8863 123.752 96.8614 123.81C96.7971 124.008 96.7329 124.206 96.6667 124.411C96.6004 124.615 96.6141 124.573 96.5927 124.639L96.5323 124.825C96.065 125.775 95.6333 126.431 95.2301 127.163C94.8269 127.894 94.4513 128.582 94.0898 129.287C93.3909 130.69 92.8053 132.147 92.3388 133.643C91.4254 136.661 91.0745 139.822 91.3037 142.968L91.2803 143.04C91.291 143.293 91.2118 143.541 91.0569 143.742C90.9019 143.942 90.6812 144.081 90.4336 144.134C90.1861 144.187 89.9278 144.151 89.7044 144.032C89.4809 143.913 89.3068 143.719 89.2128 143.484C89.0518 143.06 88.8848 142.634 88.7398 142.202L88.5191 141.554C88.4595 141.329 88.4118 141.107 88.3642 140.886C88.2588 140.434 88.1654 139.986 88.082 139.527C87.9985 139.069 87.9749 138.61 87.9374 138.153C87.7686 136.284 87.8726 134.4 88.246 132.561C88.6595 130.77 89.2539 129.027 90.0202 127.357C90.3867 126.534 90.8013 125.726 91.2162 124.958C91.631 124.19 92.0816 123.394 92.3683 122.817L92.4053 122.703C92.417 122.667 92.4326 122.619 92.4287 122.631C92.4287 122.631 92.4287 122.631 92.4189 122.661C92.3949 122.715 92.3766 122.771 92.3644 122.829C92.3558 122.919 92.3551 123.01 92.3626 123.101C92.349 123.143 92.3895 123.222 92.3451 123.155C92.2546 122.871 92.1423 122.595 92.0093 122.329C91.6965 121.637 91.3053 120.86 90.9279 120.081C90.1082 118.433 89.4426 116.714 88.9398 114.944C88.67 113.954 88.5172 112.936 88.4846 111.91C88.4393 110.738 88.6592 109.571 89.1278 108.496C89.6321 107.378 90.4212 106.412 91.416 105.695C91.8692 105.366 92.351 105.078 92.8556 104.835C93.368 104.596 93.898 104.398 94.4411 104.241C95.6302 103.945 96.8764 103.969 98.0529 104.311C99.076 104.606 100.049 105.054 100.939 105.639C102.525 106.699 103.952 107.979 105.177 109.442C107.52 112.208 109.44 115.307 110.876 118.636C111.232 119.461 111.566 120.353 111.842 121.199L112.64 123.587L114.396 128.436C114.674 129.256 114.956 130.084 115.212 130.931C115.319 131.223 115.449 131.507 115.6 131.78C115.762 132.098 115.948 132.423 116.142 132.745C116.524 133.383 116.951 133.992 117.422 134.567C117.816 135.056 118.276 135.489 118.789 135.853L118.855 135.874C119.099 136.022 119.312 136.218 119.479 136.451C119.647 136.683 119.766 136.946 119.83 137.225C119.893 137.505 119.9 137.794 119.849 138.076C119.799 138.357 119.692 138.626 119.535 138.866C119.379 139.106 119.175 139.311 118.938 139.471C118.7 139.63 118.433 139.74 118.151 139.794C117.87 139.848 117.581 139.845 117.301 139.785C117.022 139.725 116.757 139.609 116.523 139.444L116.503 139.424Z" fill="black"/>
<path d="M277.829 359.275C269.918 363.668 258.225 363.259 250.102 357.241C238.469 348.61 239.58 326.743 239.58 326.743C195.52 311.389 191.868 286.988 191.868 286.988L212.217 271.693L234.256 255.135C238.164 265.353 244.422 273.03 251.228 279.325C263.446 290.587 277.501 297.269 283.118 305.739C286.833 311.317 288.606 318.222 288.93 325.646C289.269 333.333 288.054 341.578 285.826 349.527C284.644 353.848 281.687 357.116 277.829 359.275Z" fill="white"/>
<g opacity="0.25">
<path d="M288.945 325.642C285.164 320.693 278.875 318.162 270.516 316.021C252.669 311.46 244.311 298.663 244.311 298.663L251.248 279.323C263.466 290.585 277.522 297.267 283.138 305.737C286.865 311.319 288.608 318.214 288.945 325.642Z" fill="black"/>
</g>
<g opacity="0.25">
<path d="M277.83 359.275C269.918 363.668 258.225 363.259 250.102 357.241C238.469 348.61 239.58 326.743 239.58 326.743C195.52 311.389 191.868 286.988 191.868 286.988L212.217 271.693C217.257 280.693 229.368 302.138 229.368 302.138C229.368 302.138 226.335 309.322 232.702 315.906C241.109 324.605 263.622 324.476 264.121 324.472C263.488 324.665 239.815 331.928 252.089 348.437C259.958 358.998 273.87 359.377 277.83 359.275Z" fill="black"/>
</g>
<path d="M256.594 362.889C253.822 362 251.213 360.667 248.867 358.943C238.228 351.053 237.431 333.636 237.447 328.227C194.057 312.606 189.942 288.327 189.786 287.294C189.772 286.774 189.949 286.267 190.283 285.868C190.617 285.47 191.085 285.207 191.599 285.129C192.113 285.051 192.638 285.164 193.075 285.446C193.511 285.728 193.83 286.16 193.971 286.661C194.023 286.99 198.275 310.093 240.287 324.729C240.72 324.883 241.092 325.172 241.348 325.553C241.604 325.935 241.73 326.39 241.708 326.849C241.7 327.058 240.799 347.687 251.374 355.529C257.485 360.06 266.21 361.357 273.604 358.826C278.903 357.008 282.524 353.512 283.789 348.979C288.591 331.805 287.698 316.481 281.358 306.933C278.357 302.423 272.6 298.313 265.934 293.55C254.131 285.076 239.417 274.597 232.261 255.907C232.161 255.646 232.113 255.367 232.121 255.088C232.128 254.808 232.191 254.533 232.305 254.278C232.419 254.022 232.582 253.792 232.785 253.599C232.988 253.407 233.227 253.257 233.488 253.157C233.749 253.057 234.027 253.009 234.307 253.016C234.586 253.024 234.861 253.086 235.117 253.2C235.372 253.314 235.602 253.477 235.794 253.68C235.987 253.883 236.137 254.122 236.237 254.383C242.94 271.872 257.063 281.967 268.43 290.086C275.429 295.09 281.493 299.419 284.92 304.578C294.549 319.061 290.931 339.332 287.912 350.131C286.256 356.056 281.673 360.574 275.001 362.862C269.025 364.838 262.574 364.848 256.594 362.889Z" fill="black"/>
<path d="M216.928 318.651C216.39 318.476 215.944 318.095 215.687 317.591C215.43 317.087 215.384 316.502 215.558 315.964C215.733 315.426 216.114 314.979 216.618 314.722C217.122 314.465 217.707 314.418 218.245 314.593C227.15 317.481 241.525 318.641 252.718 312.392C260.012 308.309 264.855 301.679 267.068 292.689C267.135 292.418 267.254 292.162 267.419 291.936C267.584 291.71 267.792 291.52 268.031 291.374C268.27 291.229 268.535 291.132 268.812 291.09C269.088 291.047 269.37 291.059 269.642 291.126C269.913 291.192 270.169 291.311 270.395 291.476C270.62 291.641 270.811 291.85 270.956 292.089C271.101 292.328 271.198 292.593 271.24 292.869C271.283 293.146 271.271 293.428 271.204 293.699C268.712 303.898 263.183 311.434 254.799 316.119C242.402 323.032 226.65 321.804 216.928 318.651Z" fill="black"/>
<path d="M264.758 325.328C264.507 325.51 264.247 325.678 263.978 325.831C263.732 325.977 263.484 326.109 263.231 326.253C262.726 326.5 262.22 326.734 261.684 326.932C261.149 327.13 260.652 327.314 260.133 327.503C259.613 327.693 259.092 327.829 258.562 327.969C256.458 328.52 254.31 328.888 252.143 329.072C249.99 329.27 247.827 329.342 245.666 329.287L242.44 329.129L239.222 328.828C238.679 328.749 238.187 328.464 237.848 328.033C237.51 327.601 237.35 327.055 237.402 326.509C237.454 325.963 237.714 325.457 238.128 325.097C238.542 324.737 239.079 324.55 239.627 324.574L239.799 324.597L239.883 324.624L242.884 325.166L245.902 325.574C247.914 325.795 249.937 325.9 251.962 325.888C253.973 325.894 255.981 325.724 257.963 325.38C258.455 325.294 258.937 325.178 259.433 325.08C259.929 324.982 260.393 324.841 260.886 324.689C261.38 324.537 261.816 324.38 262.271 324.203C262.488 324.107 262.717 324.016 262.927 323.918L263.496 323.618L263.585 323.567C263.821 323.413 264.108 323.359 264.383 323.417C264.659 323.474 264.9 323.639 265.054 323.875C265.208 324.11 265.262 324.397 265.204 324.673C265.147 324.949 264.982 325.19 264.746 325.344L264.758 325.328Z" fill="black"/>
<path d="M253.488 298.549C198.975 315.767 163.733 267.809 156.894 218.74C156.589 216.551 156.33 214.343 156.151 212.155C155.365 203.514 155.55 194.812 156.701 186.211L197.792 180.663L226.832 176.747L236.329 175.462C239.94 183.526 244.305 191.231 249.365 198.474C256.304 208.468 263.337 216.151 269.229 224.199C275.322 232.526 280.193 241.271 282.517 253.305C286.656 274.938 274.317 291.976 253.488 298.549Z" fill="white"/>
<g opacity="0.25">
<path d="M253.488 298.548C217.738 309.836 190.259 293.093 173.71 266.413C190.576 288.538 216.061 301.124 248.278 290.953C269.109 284.374 281.447 267.336 277.309 245.703C275.788 237.66 272.766 229.976 268.4 223.054C268.692 223.441 268.98 223.819 269.259 224.208C275.322 232.525 280.192 241.271 282.517 253.305C286.656 274.937 274.317 291.975 253.488 298.548Z" fill="black"/>
</g>
<path d="M252.83 300.577C252.397 300.442 252.018 300.172 251.749 299.806C251.481 299.441 251.335 298.999 251.334 298.545C251.334 298.092 251.478 297.649 251.745 297.283C252.013 296.917 252.391 296.645 252.823 296.508C273.631 289.941 284.206 273.512 280.399 253.699C277.261 237.221 269.098 227.056 259.555 215.335C251.431 205.274 242.218 193.866 234.389 176.371C234.198 175.863 234.207 175.301 234.416 174.8C234.624 174.299 235.016 173.896 235.511 173.673C236.006 173.451 236.567 173.425 237.08 173.602C237.593 173.779 238.019 174.144 238.272 174.625C245.891 191.62 254.918 202.803 262.882 212.665C272.734 224.864 281.247 235.402 284.607 252.934C288.807 274.746 276.823 293.451 254.131 300.615C253.704 300.74 253.249 300.727 252.83 300.577Z" fill="black"/>
<path d="M157.297 213.038C158.839 221.246 160.795 229.37 163.158 237.379C164.387 241.348 165.814 245.252 167.435 249.078C169.029 252.9 170.835 256.632 172.843 260.254C174.835 263.872 177.035 267.373 179.431 270.738C181.837 274.076 184.457 277.256 187.274 280.256C188.706 281.729 190.158 283.182 191.701 284.538C192.453 285.227 193.254 285.885 194.047 286.547C194.841 287.209 195.63 287.803 196.448 288.407C198.108 289.609 199.78 290.815 201.483 291.984C203.186 293.154 204.874 294.351 206.57 295.625C206.773 295.775 206.916 295.992 206.976 296.237C207.036 296.483 207.007 296.741 206.896 296.968C206.784 297.195 206.597 297.375 206.366 297.478C206.135 297.581 205.876 297.599 205.633 297.531C197.167 295.209 190.154 289.451 183.997 283.406C180.945 280.318 178.134 277.002 175.588 273.486C173.048 270 170.751 266.344 168.711 262.543C164.613 254.952 161.365 246.931 159.025 238.627C156.563 230.39 155.277 221.846 155.206 213.249C155.198 212.979 155.293 212.716 155.472 212.513C155.65 212.31 155.899 212.183 156.168 212.156C156.436 212.13 156.705 212.206 156.92 212.37C157.134 212.534 157.279 212.774 157.323 213.04L157.297 213.038Z" fill="black"/>
<path d="M337.226 343.973C329.69 351.156 316.97 351.887 307.015 345.997C294.167 338.372 292.988 315.835 292.988 315.835C265.679 313.373 251.917 299.036 251.917 299.036C251.917 299.036 243.792 303.353 228.271 302.048L235.42 293.87L279.913 242.973C291.984 268.121 322.088 271.172 334.838 285.068C341.21 292.005 346.707 320.043 342.803 334.449C341.866 338.081 339.935 341.379 337.226 343.973Z" fill="white"/>
<g opacity="0.25">
<path d="M337.226 343.972C329.69 351.155 316.97 351.886 307.015 345.996C294.167 338.372 292.988 315.835 292.988 315.835C265.679 313.372 251.917 299.035 251.917 299.035C251.917 299.035 243.791 303.353 228.27 302.047L235.42 293.869C251.937 291.265 260.171 281.933 261.353 282.317C262.535 282.7 262.243 292.067 274.17 300.056C303.518 319.728 321.257 302.213 323.316 303.166C325.375 304.119 295.894 320.679 305.36 334.558C311.65 343.791 326.616 345.56 337.226 343.972Z" fill="black"/>
</g>
<path d="M281.83 242.048C283.572 245.611 285.783 248.923 288.405 251.898C291.089 254.867 294.098 257.525 297.375 259.823C303.94 264.528 311.404 268.017 318.86 271.796C320.721 272.745 322.595 273.717 324.445 274.762C326.294 275.806 328.131 276.893 329.92 278.124C331.734 279.357 333.448 280.73 335.049 282.229L336.225 283.427C336.418 283.609 336.624 283.875 336.827 284.106C337.026 284.337 337.211 284.578 337.382 284.83C338.051 285.77 338.646 286.762 339.159 287.796C341.009 291.705 342.43 295.804 343.398 300.019C344.4 304.149 345.143 308.337 345.625 312.559C346.123 316.801 346.309 321.075 346.18 325.345C346.105 327.515 345.893 329.678 345.545 331.821C345.45 332.361 345.34 332.902 345.237 333.446L344.841 335.076C344.665 335.616 344.52 336.166 344.315 336.697C344.11 337.227 343.926 337.772 343.691 338.293C342.774 340.408 341.536 342.37 340.02 344.109C338.499 345.84 336.716 347.321 334.736 348.499C330.804 350.797 326.339 352.027 321.786 352.068C317.291 352.121 312.84 351.18 308.751 349.313C308.245 349.075 307.744 348.82 307.247 348.573C306.75 348.325 306.267 348.036 305.778 347.744C304.792 347.141 303.855 346.46 302.976 345.708C301.262 344.217 299.752 342.507 298.485 340.621C296.107 336.944 294.313 332.919 293.168 328.692C292.573 326.623 292.084 324.524 291.706 322.405C291.511 321.355 291.344 320.295 291.206 319.224C291.065 318.143 290.949 317.11 290.878 315.959L292.82 317.969L289.946 317.627L288.51 317.454C288.03 317.408 287.552 317.337 287.08 317.242L284.226 316.734C283.753 316.64 283.271 316.57 282.802 316.465L281.392 316.127L278.574 315.451L275.798 314.624L274.406 314.212L273.039 313.722C272.127 313.387 271.211 313.083 270.312 312.725C266.703 311.297 263.214 309.583 259.876 307.601L258.627 306.851L257.408 306.051C256.584 305.525 255.779 304.939 254.998 304.38C254.218 303.822 253.435 303.21 252.682 302.567C252.3 302.251 251.916 301.941 251.543 301.6C251.169 301.26 250.821 300.942 250.401 300.52L252.924 300.921C252.578 301.087 252.351 301.173 252.069 301.307C251.787 301.441 251.55 301.497 251.311 301.598C250.798 301.77 250.282 301.928 249.771 302.074C248.73 302.4 247.71 302.6 246.682 302.804C244.637 303.196 242.569 303.458 240.491 303.589C238.433 303.704 236.371 303.715 234.312 303.622C233.286 303.594 232.27 303.497 231.248 303.437L228.203 303.113C227.938 303.076 227.696 302.94 227.526 302.733C227.357 302.526 227.271 302.262 227.287 301.994C227.302 301.727 227.418 301.475 227.611 301.289C227.804 301.103 228.06 300.996 228.328 300.99L228.382 301.008L231.343 301.059C232.328 301.027 233.338 301.043 234.295 300.975C236.258 300.876 238.209 300.686 240.134 300.395C242.048 300.097 243.942 299.686 245.807 299.163C246.725 298.89 247.634 298.601 248.513 298.262C248.957 298.101 249.392 297.884 249.806 297.733C250.009 297.639 250.223 297.55 250.416 297.446C250.609 297.343 250.835 297.237 250.935 297.177C251.304 296.944 251.741 296.843 252.175 296.89C252.609 296.937 253.014 297.128 253.325 297.435L253.47 297.581C253.715 297.826 254.061 298.151 254.386 298.436C254.712 298.72 255.053 299.017 255.393 299.3C256.076 299.873 256.8 300.42 257.509 300.955C258.218 301.49 258.976 302.015 259.746 302.503L260.883 303.25L262.05 303.947C265.186 305.814 268.468 307.424 271.863 308.763C272.707 309.103 273.576 309.391 274.436 309.703L275.725 310.168L277.037 310.56L279.666 311.347L282.339 311.982L283.674 312.302C284.12 312.4 284.576 312.468 285.025 312.554L287.727 313.039C288.174 313.131 288.632 313.193 289.087 313.242L290.453 313.406L293.185 313.735L293.227 313.749C293.726 313.81 294.189 314.044 294.534 314.411C294.879 314.777 295.085 315.252 295.116 315.755C295.178 316.67 295.292 317.709 295.417 318.692C295.543 319.675 295.7 320.682 295.884 321.67C296.237 323.645 296.692 325.599 297.247 327.527C298.283 331.332 299.903 334.953 302.049 338.261C303.101 339.832 304.356 341.256 305.782 342.497C306.481 343.098 307.227 343.642 308.014 344.124C308.419 344.368 308.849 344.594 309.264 344.828L310.556 345.466C314.062 347.063 317.876 347.87 321.728 347.829C325.534 347.8 329.267 346.779 332.558 344.866C335.787 342.948 338.322 340.052 339.797 336.598C340.536 334.846 341.055 333.008 341.34 331.127C341.665 329.165 341.865 327.184 341.937 325.196C342.062 321.15 341.884 317.1 341.403 313.08C340.948 309.028 340.239 305.008 339.278 301.045C338.385 297.146 337.078 293.355 335.38 289.735C334.968 288.904 334.493 288.106 333.958 287.349C333.84 287.171 333.708 287.002 333.565 286.844C333.424 286.685 333.321 286.532 333.134 286.352L332.14 285.326C330.704 283.987 329.166 282.76 327.54 281.658C325.917 280.528 324.165 279.488 322.391 278.495C320.618 277.501 318.804 276.548 316.957 275.617C309.6 271.904 301.917 268.31 294.93 263.31C291.395 260.825 288.149 257.951 285.253 254.744C282.352 251.469 279.912 247.814 278 243.878C277.781 243.373 277.765 242.803 277.956 242.287C278.147 241.77 278.53 241.348 279.025 241.108C279.52 240.867 280.089 240.828 280.612 240.997C281.136 241.166 281.574 241.532 281.834 242.016L281.83 242.048Z" fill="black"/>
<path d="M324.173 303.776C323.361 305.051 322.447 306.26 321.442 307.389C320.452 308.518 319.387 309.581 318.255 310.568C315.981 312.592 313.44 314.295 310.704 315.63C309.311 316.294 307.874 316.859 306.402 317.32C304.916 317.773 303.396 318.103 301.857 318.307C298.776 318.706 295.651 318.578 292.614 317.93C292.088 317.805 291.629 317.485 291.329 317.035C291.03 316.585 290.913 316.037 291.002 315.504C291.091 314.971 291.379 314.491 291.808 314.161C292.237 313.832 292.775 313.678 293.313 313.731L293.355 313.744C295.996 314.099 298.67 314.144 301.322 313.881C302.643 313.732 303.953 313.503 305.246 313.196C306.548 312.869 307.828 312.459 309.079 311.971C311.611 310.95 314.015 309.634 316.24 308.05C317.367 307.245 318.452 306.384 319.492 305.469C320.527 304.562 321.506 303.592 322.423 302.565L322.443 302.505C322.622 302.312 322.867 302.192 323.129 302.168C323.392 302.145 323.654 302.219 323.864 302.377C324.075 302.536 324.22 302.766 324.27 303.025C324.321 303.284 324.274 303.552 324.139 303.778L324.173 303.776Z" fill="black"/>
<path d="M385.874 196.741C382.025 204.722 371.606 207.725 356.967 208.915C324.63 227.899 292.8 228.84 270.207 223.9C268.043 223.437 265.958 222.913 263.974 222.343C262.874 222.032 261.812 221.708 260.774 221.371L245.639 200.922L226.124 174.554L221.324 168.067C236.037 171.058 250.913 173.188 265.875 174.443C287.885 176.275 313.817 176.379 333.298 170.138C340.839 167.727 353.181 166.217 358.432 165.631C368.171 164.538 382.297 164.933 386.126 179.259C388.117 186.839 387.927 192.497 385.874 196.741Z" fill="white"/>
<g opacity="0.25">
<path d="M385.874 196.741C382.025 204.722 371.606 207.726 356.966 208.915C321.534 229.715 286.717 228.865 263.966 222.367C278.721 222.476 314.111 221.296 330.08 208.256C343.465 197.337 347.954 191.103 352.136 174.06C353.524 168.412 348.625 199.993 369.12 199.767C376.528 199.688 381.955 198.927 385.874 196.741Z" fill="black"/>
</g>
<path d="M221.771 166.015C226.243 166.948 230.827 167.765 235.384 168.52C239.941 169.275 244.527 169.94 249.117 170.533C258.294 171.705 267.509 172.597 276.736 173.063C281.345 173.31 285.971 173.404 290.55 173.416C295.129 173.429 299.769 173.275 304.355 172.978C308.942 172.681 313.511 172.192 318.026 171.481C320.29 171.147 322.525 170.677 324.758 170.234L328.072 169.425C329.183 169.168 330.261 168.808 331.35 168.498L333.006 168.013C333.588 167.837 334.171 167.654 334.75 167.504C335.915 167.185 337.066 166.928 338.239 166.645C340.555 166.129 342.878 165.695 345.199 165.306C349.856 164.528 354.47 163.921 359.169 163.422C363.867 162.922 368.899 162.929 373.8 164.26C376.303 164.917 378.666 166.025 380.771 167.53C382.902 169.081 384.677 171.07 385.975 173.365C386.611 174.488 387.143 175.667 387.566 176.886C387.796 177.485 387.942 178.097 388.135 178.71L388.572 180.47C389.143 182.868 389.486 185.314 389.598 187.777C389.737 190.351 389.419 192.931 388.659 195.394C388.263 196.664 387.714 197.881 387.026 199.018C386.346 200.153 385.539 201.207 384.62 202.159C382.77 203.96 380.621 205.425 378.268 206.489C376.026 207.498 373.696 208.297 371.306 208.875C366.661 209.964 361.935 210.679 357.175 211.012L358.077 210.728L352.559 213.854L351.175 214.626C350.704 214.871 350.227 215.095 349.748 215.324L346.89 216.713L344.033 218.096L341.098 219.313C339.131 220.102 337.193 220.966 335.169 221.603C327.183 224.493 318.908 226.509 310.488 227.617C302.069 228.737 293.554 228.936 285.092 228.211L281.939 227.851C280.887 227.722 279.83 227.625 278.761 227.424C276.673 227.052 274.582 226.732 272.521 226.216L269.446 225.471L266.426 224.558L264.896 224.061C264.392 223.898 263.899 223.698 263.403 223.511C262.417 223.137 261.428 222.75 260.463 222.351C260.22 222.25 260.022 222.063 259.909 221.826C259.795 221.588 259.774 221.317 259.848 221.064C259.923 220.811 260.088 220.595 260.313 220.457C260.537 220.319 260.804 220.269 261.063 220.316L261.117 220.334C262.136 220.525 263.144 220.733 264.147 220.952L265.652 221.281L267.17 221.548L270.196 222.118L273.23 222.578C277.271 223.225 281.343 223.597 285.397 223.917C293.553 224.46 301.743 224.16 309.837 223.02L315.875 222.013L321.86 220.716C323.835 220.209 325.796 219.644 327.767 219.109C328.756 218.859 329.713 218.506 330.686 218.185L333.586 217.201C335.544 216.602 337.365 215.773 339.308 215.017L342.16 213.892L344.945 212.606L347.726 211.311C348.188 211.096 348.659 210.891 349.118 210.661L350.469 209.932L355.901 207.049L356.376 206.792L356.804 206.758C361.324 206.458 365.814 205.8 370.23 204.79C372.36 204.272 374.437 203.558 376.434 202.656C378.325 201.8 380.053 200.623 381.542 199.177C384.411 196.345 385.549 192.243 385.337 187.947C385.233 185.758 384.924 183.582 384.414 181.451L384.01 179.833C383.848 179.33 383.732 178.808 383.539 178.32C383.199 177.342 382.773 176.396 382.267 175.493C381.268 173.722 379.899 172.188 378.255 170.993C376.563 169.793 374.668 168.908 372.662 168.382C368.555 167.263 364.042 167.252 359.578 167.681C355.114 168.111 350.422 168.772 345.893 169.526C343.634 169.908 341.375 170.329 339.158 170.825C338.051 171.069 336.949 171.336 335.87 171.636C335.321 171.776 334.794 171.95 334.266 172.104L332.574 172.597C331.437 172.892 330.295 173.304 329.134 173.571L325.663 174.436C323.343 174.904 321.016 175.39 318.677 175.733C314.016 176.468 309.33 176.983 304.619 177.277C299.925 177.579 295.229 177.741 290.546 177.721C285.863 177.702 281.166 177.605 276.485 177.354C267.132 176.888 257.815 175.982 248.536 174.797C243.908 174.18 239.282 173.502 234.658 172.763C230.037 172 225.459 171.186 220.833 170.216C220.554 170.163 220.288 170.056 220.051 169.899C219.814 169.743 219.611 169.541 219.453 169.305C219.295 169.069 219.186 168.803 219.133 168.525C219.079 168.246 219.081 167.959 219.139 167.681C219.198 167.403 219.311 167.14 219.472 166.906C219.634 166.673 219.84 166.474 220.08 166.321C220.319 166.168 220.586 166.065 220.866 166.017C221.146 165.969 221.433 165.977 221.709 166.041L221.771 166.015Z" fill="black"/>
<g opacity="0.25">
<path d="M265.055 176.646C261.258 184.077 256.442 190.941 250.746 197.039C250.281 197.552 249.826 198.014 249.361 198.487C248.13 199.747 246.873 200.956 245.591 202.115C225.265 220.569 198.865 226.835 175.442 220.65C174.05 220.278 172.672 219.864 171.304 219.421L171.142 219.368C167.42 218.113 163.815 216.533 160.37 214.646C158.949 213.876 157.548 213.048 156.169 212.162C155.383 203.521 155.567 194.818 156.718 186.218L197.809 180.67L226.85 176.754L222.241 170.514C236.38 173.39 250.676 175.438 265.055 176.646Z" fill="black"/>
</g>
<path d="M103.014 132.343C104.598 146.837 109.905 160.674 118.42 172.506C120.221 174.999 122.151 177.397 124.201 179.69C125.208 180.819 126.26 181.93 127.342 183.031C130.557 186.278 134.024 189.264 137.711 191.961C140.817 194.266 144.076 196.356 147.467 198.218C151.489 200.412 155.68 202.281 159.999 203.809C161.558 204.361 163.138 204.867 164.716 205.339C193.729 213.775 226.3 206.95 249.341 184.665C283.295 151.841 283.7 97.9226 250.272 64.2078C243.996 57.8754 236.783 52.5478 228.885 48.4125C227.985 47.9349 227.066 47.4774 226.147 47.0399C223.683 45.8626 221.187 44.7674 218.642 43.8622C206.956 39.5777 194.496 37.8175 182.08 38.6973C180.118 38.8305 178.164 39.0348 176.218 39.3102C173.291 39.7184 170.387 40.2758 167.518 40.9802C152.735 44.5731 139.179 52.0474 128.247 62.6315C118.987 71.5443 111.896 82.4649 107.521 94.5514C103.146 106.638 101.604 119.567 103.014 132.343Z" fill="white"/>
<path d="M162.091 204.721C161.371 204.487 160.645 204.251 159.925 204.018C147.587 199.637 136.391 192.538 127.166 183.246C125.979 182.039 124.949 180.941 124.015 179.895C121.961 177.591 120.028 175.182 118.225 172.676C109.695 160.802 104.373 146.927 102.773 132.391C101.343 119.581 102.884 106.613 107.275 94.494C111.667 82.3746 118.791 71.43 128.094 62.5095C141.262 49.8292 158.097 41.6332 176.196 39.0914C178.105 38.8282 180.082 38.6204 182.072 38.4764C194.516 37.5935 207.005 39.3583 218.715 43.6545C221.251 44.5897 223.781 45.6627 226.237 46.8441C227.226 47.311 228.121 47.7607 228.987 48.2206C236.906 52.3606 244.139 57.6991 250.43 64.0473C258.432 72.029 264.756 81.5328 269.028 91.9986C273.301 102.464 275.435 113.68 275.306 124.985C275.213 136.17 272.882 147.223 268.451 157.494C264.02 167.764 257.579 177.044 249.507 184.786C227.265 206.328 194.733 214.26 164.667 205.51C163.811 205.265 162.949 204.999 162.091 204.721ZM103.233 132.322C104.824 146.778 110.116 160.579 118.596 172.392C120.387 174.886 122.311 177.282 124.36 179.569C125.286 180.619 126.318 181.711 127.489 182.906C136.662 192.158 147.803 199.222 160.083 203.571C161.63 204.12 163.216 204.628 164.788 205.098C194.703 213.8 227.052 205.9 249.204 184.475C257.232 176.773 263.638 167.542 268.045 157.325C272.451 147.108 274.769 136.113 274.861 124.987C274.989 113.737 272.863 102.576 268.609 92.1629C264.355 81.7493 258.058 72.2942 250.091 64.3555C243.832 58.0396 236.635 52.7285 228.755 48.6097C227.895 48.1517 227.006 47.704 226.022 47.239C223.577 46.0675 221.068 44.9685 218.535 44.0671C206.887 39.7989 194.467 38.0472 182.092 38.9273C180.116 39.0692 178.146 39.273 176.243 39.538C173.321 39.9424 170.421 40.4944 167.555 41.192C152.823 44.7948 139.311 52.2478 128.402 62.7884C119.15 71.6675 112.067 82.5588 107.703 94.6174C103.338 106.676 101.809 119.578 103.233 132.322Z" fill="black"/>
<g opacity="0.25">
<path d="M249.354 184.624C226.312 206.915 193.739 213.746 164.729 205.298C163.141 204.836 161.569 204.326 160.012 203.768C152.051 200.946 144.544 196.978 137.728 191.988C134.031 189.29 130.553 186.305 127.326 183.06C126.25 181.961 125.198 180.85 124.191 179.721C122.139 177.43 120.209 175.032 118.41 172.537C111.875 163.448 107.21 153.15 104.686 142.242C102.161 131.334 101.828 120.032 103.704 108.993C105.988 125.889 113.282 141.711 124.646 154.416C125.653 155.545 126.705 156.656 127.787 157.757C136.978 167.036 148.146 174.118 160.458 178.473C162.045 179.033 163.619 179.543 165.18 180.005C194.19 188.453 226.763 181.622 249.811 159.333C262.734 146.905 271.331 130.658 274.338 112.981C276.093 126.045 274.746 139.34 270.405 151.788C266.065 164.235 258.853 175.485 249.354 184.624Z" fill="black"/>
</g>
<path d="M161.634 206.131C160.902 205.894 160.163 205.654 159.431 205.417C146.884 200.962 135.498 193.743 126.117 184.292C124.91 183.065 123.866 181.95 122.912 180.884C120.824 178.543 118.86 176.094 117.027 173.548C108.353 161.466 102.942 147.349 101.318 132.562C99.856 119.529 101.416 106.334 105.877 94.0001C110.338 81.6664 117.58 70.5261 127.04 61.444C140.441 48.5307 157.583 40.1903 176.01 37.6176C177.955 37.3462 179.961 37.1342 181.983 36.9939C194.63 36.0993 207.323 37.8986 219.223 42.2729C221.801 43.2217 224.379 44.3103 226.881 45.5132C227.876 45.982 228.799 46.4475 229.681 46.9192C237.732 51.1262 245.084 56.5527 251.477 63.0065C259.617 71.1269 266.049 80.7954 270.395 91.4421C274.741 102.089 276.912 113.499 276.781 124.999C276.688 136.383 274.317 147.634 269.809 158.087C265.3 168.541 258.745 177.987 250.53 185.867C227.887 207.763 194.823 215.842 164.238 206.976C163.374 206.696 162.504 206.413 161.634 206.131ZM104.707 132.175C106.26 146.386 111.454 159.955 119.785 171.569C121.549 174.021 123.441 176.378 125.453 178.63C126.371 179.664 127.378 180.734 128.54 181.914C134.367 187.782 141.013 192.776 148.271 196.74C152.215 198.887 156.322 200.721 160.553 202.224C162.078 202.758 163.64 203.259 165.18 203.725C194.591 212.283 226.381 204.515 248.154 183.458C256.057 175.886 262.363 166.806 266.698 156.756C271.034 146.705 273.311 135.888 273.396 124.943C273.523 113.892 271.437 102.927 267.261 92.6962C263.084 82.4653 256.901 73.175 249.078 65.3733C242.922 59.1707 235.846 53.9568 228.099 49.916C227.251 49.4619 226.396 49.0318 225.423 48.5768C223.007 47.415 220.529 46.3656 218.051 45.4558C206.596 41.2463 194.376 39.5192 182.201 40.389C180.253 40.5267 178.324 40.7301 176.454 40.9929C173.584 41.3894 170.737 41.9363 167.924 42.6315C153.44 46.1676 140.155 53.4909 129.43 63.8514C120.344 72.5708 113.387 83.2662 109.1 95.1081C104.812 106.95 103.309 119.62 104.706 132.136L104.707 132.175Z" fill="black"/>
<path d="M161.486 206.587C160.747 206.348 160.009 206.109 159.271 205.869C146.654 201.388 135.205 194.128 125.77 184.625C124.554 183.387 123.503 182.27 122.551 181.198C120.45 178.846 118.475 176.384 116.632 173.824C107.905 161.673 102.459 147.474 100.822 132.601C99.3471 119.493 100.913 106.221 105.397 93.8148C109.882 81.409 117.164 70.2033 126.678 61.0679C137.907 50.2164 151.82 42.5485 166.988 38.8513C169.928 38.1296 172.903 37.5576 175.901 37.1377C177.86 36.8642 179.885 36.652 181.915 36.5076C194.643 35.6043 207.416 37.4118 219.393 41.8106C221.988 42.7653 224.577 43.8637 227.09 45.0706C228.098 45.5433 229.021 46.0087 229.909 46.4825C238.012 50.7153 245.414 56.1735 251.853 62.6643C260.034 70.8322 266.498 80.556 270.863 91.2626C275.228 101.969 277.406 113.442 277.269 125.005C277.176 136.451 274.793 147.763 270.26 158.274C265.728 168.785 259.137 178.282 250.877 186.206C228.114 208.229 194.865 216.347 164.12 207.402C163.242 207.144 162.362 206.872 161.486 206.587ZM105.193 132.088C106.748 146.209 111.917 159.689 120.201 171.227C121.952 173.661 123.83 176.002 125.825 178.24C126.739 179.266 127.739 180.334 128.898 181.506C132.039 184.668 135.424 187.579 139.021 190.21C142.051 192.434 145.228 194.451 148.53 196.247C152.451 198.384 156.534 200.208 160.742 201.702C162.255 202.232 163.821 202.7 165.345 203.195C194.581 211.703 226.195 203.983 247.836 183.049C255.678 175.529 261.936 166.514 266.24 156.536C270.544 146.558 272.807 135.819 272.895 124.953C273.023 113.968 270.95 103.069 266.8 92.8986C262.649 82.7284 256.504 73.4932 248.727 65.7376C242.603 59.5619 235.563 54.3687 227.855 50.3412C227.007 49.8872 226.15 49.4631 225.196 49.0079C222.791 47.856 220.331 46.8124 217.865 45.9066C206.482 41.7329 194.342 40.0203 182.247 40.8817C180.313 41.0173 178.389 41.2227 176.534 41.4834C158.94 43.9285 142.57 51.8836 129.772 64.208C120.74 72.8758 113.824 83.5079 109.562 95.2796C105.299 107.051 103.804 119.646 105.193 132.088Z" fill="black"/>
<path d="M108.17 153.621C141.536 204.992 214.716 208.148 241.21 153.974C259.244 117.087 236.497 71.0119 199.431 55.9959C172.465 45.0723 141.33 46.02 112.928 82.6227C112.928 82.6227 102.903 100.749 102.859 115.545C102.937 125.328 103.761 135.091 105.324 144.749L108.17 153.621Z" fill="black"/>
<path d="M241.213 153.942C214.733 208.094 141.547 204.956 108.17 153.622L107.591 151.828C155.294 181.959 219.212 172.656 247.032 118.381C248.581 130.547 246.56 142.903 241.213 153.942Z" fill="black"/>
<path d="M150.875 199.835C146.008 198.248 141.278 196.27 136.73 193.919L136.444 193.74C132.654 190.973 129.091 187.908 125.786 184.577C124.569 183.339 123.519 182.222 122.567 181.15C120.466 178.798 118.49 176.336 116.648 173.777C107.92 161.625 102.474 147.427 100.837 132.553C99.3628 119.445 100.929 106.173 105.413 93.7669C109.897 81.3611 117.179 70.1554 126.694 61.02C137.924 50.1883 151.83 42.5375 166.988 38.8514L167.203 38.8018L167.426 38.788C178.828 38.3991 190.857 40.7354 203.236 45.7592C225.512 54.7833 244.137 74.0819 253.047 97.3819C261.078 118.366 260.471 140.191 251.35 158.843C241.446 179.152 225.401 193.448 205.026 200.215C187.962 205.893 168.861 205.669 150.875 199.835ZM138.877 190.124C159.561 200.702 183.16 202.869 203.662 196.057C222.893 189.688 238.036 176.128 247.434 156.909C256.017 139.364 256.566 118.78 248.992 98.946C240.503 76.7582 222.797 58.3881 201.616 49.812C189.892 45.0603 178.526 42.8263 167.832 43.1595C153.513 46.6958 140.382 53.9575 129.772 64.2081C120.74 72.8759 113.824 83.508 109.562 95.2797C105.299 107.051 103.804 119.646 105.193 132.088C106.748 146.209 111.917 159.689 120.201 171.227C121.952 173.661 123.83 176.002 125.826 178.24C126.739 179.266 127.74 180.334 128.898 181.506C131.997 184.632 135.333 187.513 138.877 190.124Z" fill="black"/>
<path d="M153.593 191.581C134.798 185.484 117.954 172.635 106.339 154.788L106.186 154.546L103.158 145.13C101.568 135.348 100.736 125.457 100.67 115.546C100.713 100.366 110.589 82.3305 111.026 81.5765L111.217 81.2935C136.044 49.2906 166 40.0977 200.264 53.9792C220.149 62.035 236.768 79.2564 244.721 100.05C251.907 118.789 251.346 138.267 243.198 154.919C231.391 179.05 209.542 193.818 183.236 195.417C173.201 196.008 163.146 194.707 153.593 191.581ZM110.179 152.643C126.796 178.051 154.662 192.763 182.96 191.034C207.648 189.535 228.16 175.659 239.241 153.012C246.85 137.466 247.331 119.216 240.605 101.634C233.066 81.9372 217.374 65.6602 198.597 58.0564C166.42 45.018 138.206 53.7275 114.751 83.8531C113.837 85.5471 105.077 102.206 105.042 115.584C105.125 125.18 105.928 134.756 107.442 144.231L110.179 152.643Z" fill="black"/>
<path d="M278.063 165.007C272.575 180.883 258.467 190.944 246.54 187.473C234.613 184.002 229.397 168.33 234.885 152.454C234.916 152.358 234.951 152.25 234.984 152.148C240.539 136.453 254.565 126.544 266.395 129.984C275.607 132.667 280.819 142.625 280.177 154.36C279.969 157.99 279.257 161.573 278.063 165.007Z" fill="white"/>
<g opacity="0.25">
<path d="M278.063 165.005C272.575 180.881 258.467 190.942 246.54 187.471C234.613 184 229.397 168.328 234.885 152.452C234.916 152.356 234.951 152.248 234.984 152.146C235.733 154.154 237.221 156.355 240.168 156.614C245.325 157.073 257.552 149.394 257.552 149.394C257.552 149.394 267.377 151.473 280.177 154.338C279.971 157.975 279.259 161.565 278.063 165.005Z" fill="black"/>
</g>
<path d="M245.358 189.399C240.377 187.784 236.359 184.244 233.714 179.127C229.769 171.497 229.44 161.511 232.816 151.737C238.667 134.805 254.008 124.109 267.015 127.89C272.257 129.418 276.485 133.026 279.227 138.334C283.178 145.966 283.507 155.952 280.131 165.725C274.281 182.658 258.939 193.354 245.932 189.572L245.358 189.399ZM266.226 132.226L265.793 132.085C254.992 128.947 242.051 138.397 236.949 153.164C234.008 161.679 234.253 170.636 237.605 177.111C239.785 181.328 243.086 184.197 247.158 185.365C257.959 188.504 270.894 179.051 275.994 164.29C278.937 155.77 278.698 146.815 275.346 140.34C273.241 136.28 270.096 133.481 266.226 132.226Z" fill="black"/>
<path d="M279.103 171.068C284.652 158.926 281.713 145.683 272.539 141.49C263.365 137.296 251.429 143.74 245.88 155.883C240.332 168.025 243.271 181.268 252.445 185.461C261.619 189.654 273.554 183.211 279.103 171.068Z" fill="white"/>
<path d="M253.809 186.267C251.554 185.526 249.521 184.232 247.893 182.503C240.636 174.921 241.254 160.219 249.241 149.725C253.705 143.874 259.683 140.333 265.658 140.008C267.765 139.856 269.88 140.176 271.849 140.944C273.817 141.712 275.59 142.91 277.038 144.45C284.289 152.03 283.671 166.732 275.66 177.218C271.196 183.069 265.218 186.61 259.243 186.935C257.406 187.049 255.564 186.822 253.809 186.267ZM270.974 141.122C269.265 140.577 267.471 140.355 265.681 140.467C259.866 140.79 254.008 144.271 249.626 150.009C241.749 160.326 241.118 174.765 248.222 182.185C249.623 183.677 251.34 184.838 253.246 185.582C255.152 186.327 257.201 186.637 259.242 186.49C265.059 186.161 270.915 182.686 275.299 176.942C283.176 166.625 283.805 152.192 276.703 144.766C275.135 143.091 273.174 141.835 270.997 141.11L270.974 141.122Z" fill="black"/>
<g opacity="0.25">
<path d="M242.804 167.564C243.24 162.959 244.791 158.529 247.322 154.658C247.346 165.135 254.678 171.913 264.438 170.023C270.743 168.804 276.612 164.245 280.467 158.25C280.47 158.914 280.444 159.569 280.384 160.286C279.411 171.914 270.213 182.95 259.838 184.959C249.463 186.968 241.837 179.173 242.804 167.564Z" fill="black"/>
</g>
<path d="M253.478 188.25C249.805 187.059 246.835 184.436 244.856 180.623C241.652 174.468 241.478 165.845 244.377 157.563C249.262 143.588 261.452 134.571 271.566 137.394C275.478 138.503 278.633 141.186 280.708 145.176C283.906 151.329 284.086 159.954 281.187 168.236C276.296 182.209 264.102 191.258 253.998 188.405L253.478 188.25ZM270.723 141.712L270.375 141.599C262.476 139.368 252.648 147.175 248.506 159.002C246.001 166.152 246.092 173.479 248.742 178.599C250.24 181.487 252.48 183.434 255.193 184.188C263.092 186.419 272.918 178.618 277.062 166.785C279.56 159.634 279.476 152.308 276.826 147.188C276.221 145.917 275.37 144.779 274.322 143.839C273.275 142.899 272.051 142.176 270.723 141.712Z" fill="black"/>
<g opacity="0.5">
<path d="M212.792 77.5765C212.792 77.5765 175.591 65.1641 147.195 77.6433L147.11 77.6819C141.149 80.3037 135.998 84.4721 132.19 89.7552C128.293 95.1126 125.141 100.973 122.818 107.178C116.932 122.215 117.027 130.367 117.027 130.367C111.456 119.058 110.092 108.152 114.868 95.5753C115.343 94.336 115.884 93.0782 116.47 91.802C116.606 91.5075 116.743 91.227 116.892 90.9304C118.646 87.7626 120.591 84.7041 122.715 81.7717C130.246 71.3756 142.81 58.8766 160.261 57.5639C192.893 55.0911 214.645 76.4856 212.792 77.5765Z" fill="white"/>
</g>
<g opacity="0.5">
<path d="M224.12 138.273C230.461 138.906 236.192 133.512 236.92 126.225C237.648 118.938 233.098 112.517 226.757 111.885C220.415 111.252 214.684 116.647 213.956 123.934C213.228 131.221 217.778 137.641 224.12 138.273Z" fill="white"/>
</g>
<g opacity="0.5">
<path d="M222.798 154.512C225.429 154.528 227.578 152.09 227.598 149.064C227.618 146.039 225.501 143.573 222.871 143.556C220.24 143.539 218.091 145.978 218.071 149.003C218.051 152.029 220.168 154.495 222.798 154.512Z" fill="white"/>
</g>
<path d="M325.922 172.164C328.266 171.995 331.567 169.914 332.468 169.019C334.322 167.166 336.843 164.977 339.85 162.085C345.002 157.121 355.966 151.62 359.831 155.959C365.996 162.922 352.648 168.412 352.176 170.216C351.703 172.021 353.875 181.722 346.925 189.407L325.922 172.164Z" fill="white"/>
<path d="M325.77 170.039C326.367 169.961 326.951 169.799 327.504 169.56C328.165 169.285 328.806 168.963 329.421 168.596C329.733 168.412 330.043 168.214 330.318 168.018C330.562 167.855 330.792 167.672 331.006 167.471C331.616 166.86 332.228 166.282 332.838 165.71L336.466 162.355L338.239 160.674C338.864 160.074 339.56 159.464 340.242 158.915C341.612 157.822 343.06 156.831 344.574 155.948C346.088 155.048 347.671 154.27 349.308 153.622C351.027 152.918 352.838 152.465 354.686 152.275C355.727 152.176 356.777 152.232 357.802 152.443C358.985 152.684 360.084 153.235 360.985 154.039C361.391 154.424 361.763 154.842 362.098 155.29C362.43 155.734 362.721 156.208 362.965 156.705C363.504 157.805 363.743 159.027 363.66 160.248C363.568 161.404 363.216 162.523 362.631 163.524C362.127 164.393 361.52 165.199 360.824 165.924C359.572 167.206 358.203 168.368 356.734 169.394L354.772 170.801C354.537 170.966 354.315 171.146 354.106 171.342C354.058 171.386 354.106 171.342 354.125 171.282C354.177 171.205 354.221 171.124 354.257 171.039C354.278 170.984 354.296 170.928 354.311 170.871C354.331 170.811 354.311 170.871 354.321 170.841C354.321 170.841 354.311 170.871 354.3 170.907L354.267 171.009C354.234 171.662 354.267 172.522 354.265 173.364C354.264 174.206 354.243 175.089 354.182 175.991C354.086 177.771 353.799 179.535 353.325 181.253C352.382 184.738 350.398 187.851 347.637 190.177C347.443 190.334 347.2 190.418 346.95 190.416C346.7 190.413 346.459 190.324 346.267 190.163C346.076 190.002 345.946 189.78 345.9 189.534C345.855 189.288 345.896 189.034 346.017 188.815L346.04 188.743C346.848 187.43 347.546 186.052 348.126 184.623C348.274 184.276 348.404 183.922 348.517 183.562C348.65 183.212 348.766 182.855 348.863 182.493L349.24 181.395L349.458 180.291C349.729 178.797 349.889 177.286 349.937 175.769C349.961 175 349.959 174.23 349.932 173.431C349.906 172.633 349.842 171.87 349.864 170.841L349.868 170.644C349.888 170.584 349.873 170.526 349.884 170.41C349.895 170.294 349.943 170.005 349.983 169.779C349.997 169.721 350.015 169.665 350.038 169.611C350.066 169.503 350.1 169.396 350.141 169.292C350.213 169.111 350.304 168.938 350.414 168.777C350.541 168.592 350.68 168.415 350.831 168.249C351.206 167.862 351.613 167.505 352.045 167.183C352.767 166.634 353.426 166.158 354.077 165.686C355.321 164.831 356.481 163.862 357.543 162.789C358.39 162.022 358.968 161.001 359.19 159.88C359.222 159.44 359.136 159 358.94 158.605C358.817 158.355 358.672 158.118 358.508 157.894C358.352 157.678 358.181 157.474 357.996 157.283C357.473 156.748 356.355 156.472 355.018 156.589C353.584 156.736 352.179 157.084 350.842 157.623C347.972 158.747 345.288 160.3 342.882 162.227C342.285 162.697 341.736 163.182 341.172 163.736L339.354 165.455L335.74 168.828C335.15 169.379 334.565 169.933 334.007 170.488C333.627 170.86 333.213 171.197 332.772 171.495C332.383 171.773 331.992 172.018 331.597 172.255C330.797 172.734 329.963 173.153 329.101 173.508C328.137 173.919 327.117 174.183 326.075 174.292C325.791 174.328 325.502 174.306 325.226 174.229C324.951 174.151 324.694 174.018 324.47 173.839C324.247 173.66 324.062 173.437 323.927 173.185C323.791 172.932 323.708 172.655 323.682 172.37C323.656 172.084 323.688 171.797 323.775 171.524C323.863 171.251 324.004 170.999 324.192 170.782C324.379 170.565 324.608 170.388 324.865 170.261C325.122 170.135 325.402 170.062 325.688 170.046L325.77 170.039Z" fill="black"/>
<path d="M149.774 241.344L175.897 281.448L204.804 286.386L220.1 288.999C220.1 288.999 232.297 285.298 235.255 284.36C239.261 283.092 238.021 278.264 236.399 275.515C233.823 271.119 231.615 266.517 229.799 261.756C227.057 254.629 225.395 248.059 223.812 242.675C223.185 240.522 221.859 238.639 220.044 237.323C218.228 236.008 216.027 235.334 213.786 235.409C186.28 236.373 159.432 234.306 159.432 234.306L149.774 241.344Z" fill="white"/>
<path d="M175.298 283.231C174.89 283.098 174.54 282.829 174.305 282.471L148.184 242.361C147.925 241.957 147.829 241.47 147.916 240.998C148.002 240.526 148.265 240.105 148.65 239.819L158.315 232.782C158.676 232.522 159.118 232.397 159.563 232.431C159.828 232.45 186.632 234.47 213.713 233.527C216.373 233.438 218.987 234.236 221.143 235.797C223.3 237.358 224.875 239.592 225.621 242.148C225.968 243.328 226.321 244.571 226.69 245.865C228.998 254.005 231.873 264.134 238.028 274.564C239.367 276.836 240.439 280.216 239.417 282.897C239.113 283.682 238.629 284.385 238.006 284.951C237.383 285.517 236.636 285.93 235.826 286.158C232.904 287.088 221.139 290.683 220.649 290.803C220.37 290.885 220.077 290.903 219.79 290.855L175.562 283.297C175.473 283.281 175.385 283.259 175.298 283.231ZM152.321 241.812L177.004 279.73L219.987 287.078C222.191 286.419 232.097 283.402 234.716 282.566C234.987 282.508 235.24 282.385 235.452 282.206C235.664 282.027 235.828 281.798 235.931 281.54C236.415 280.271 235.745 278.023 234.819 276.462C228.39 265.612 225.47 255.229 223.097 246.882C222.736 245.604 222.387 244.369 222.03 243.219C221.523 241.465 220.445 239.931 218.968 238.86C217.491 237.788 215.699 237.24 213.875 237.302C189.02 238.171 164.376 236.546 160.004 236.243L152.321 241.812Z" fill="black"/>
<g opacity="0.3">
<path d="M204.81 286.387L220.106 289C220.106 289 232.297 285.297 235.255 284.359C238.212 283.421 238.315 280.342 237.397 277.755C237.132 276.981 236.789 276.237 236.374 275.532C233.797 271.136 231.589 266.534 229.774 261.773C229.009 263.682 225.248 264.95 220.83 262.926C218.824 261.997 214.475 252.339 211.182 250.939C201.605 246.85 203.119 275.202 204.81 286.387Z" fill="black"/>
</g>
<path d="M281.43 232.384C283.33 235.136 283.702 238.813 282.381 241.557C265.658 276.122 228.161 280.241 222.668 270.982C217.631 262.487 223.948 257.284 223.948 257.284C223.948 257.284 251.572 258.594 270.491 230.448C272.942 226.797 277.882 227.212 280.702 231.298L281.43 232.384Z" fill="white"/>
<g opacity="0.3">
<path d="M222.67 270.957C228.168 280.218 265.665 276.099 282.383 241.532C283.71 238.791 283.337 235.113 281.432 232.359L280.707 231.301C279.82 229.951 278.534 228.912 277.029 228.329C277.545 230.296 277.368 232.38 276.527 234.231C262.202 263.855 232.619 271.119 220.986 266.761C221.315 268.242 221.883 269.66 222.67 270.957Z" fill="black"/>
</g>
<path d="M226.785 276.305C224.03 275.412 221.984 273.972 220.869 272.051C216.153 264.098 219.954 257.82 222.624 255.621L223.258 255.097L224.08 255.138C224.342 255.15 250.759 256.009 268.746 229.265C269.419 228.223 270.339 227.364 271.425 226.764C272.511 226.165 273.728 225.843 274.968 225.829C276.466 225.877 277.93 226.288 279.235 227.025C280.541 227.763 281.647 228.806 282.462 230.065L283.198 231.126C285.513 234.478 285.945 239.017 284.312 242.436C273.121 265.565 251.915 276.614 235.861 277.299C232.8 277.504 229.728 277.167 226.785 276.305ZM224.781 259.399C223.608 260.704 221.191 264.332 224.491 269.862C225.775 272.037 230.163 273.294 235.651 273.057C250.447 272.429 270.026 262.146 280.45 240.599C281.438 238.557 281.115 235.666 279.666 233.57L278.93 232.509C277.874 230.979 276.402 230.077 274.956 230.078C274.409 230.085 273.873 230.231 273.398 230.501C272.922 230.772 272.524 231.159 272.239 231.625C254.636 257.837 230.006 259.382 224.781 259.399Z" fill="black"/>
<path d="M172.162 275.234C173.603 278.846 174.989 283.449 174.989 283.449C174.989 283.449 182.573 281.231 183.167 280.993C185.126 280.209 185.04 275.383 182.976 270.215C180.912 265.047 177.647 261.493 175.688 262.278C174.256 262.848 168.141 264.567 168.141 264.567C168.141 264.567 171.614 273.835 172.162 275.234Z" fill="white"/>
<path d="M175.413 283.312C178.024 282.268 178.467 277.231 176.402 272.063C174.337 266.894 170.547 263.551 167.935 264.595C165.324 265.64 164.881 270.676 166.946 275.845C169.011 281.013 172.802 284.357 175.413 283.312Z" fill="white"/>
<path d="M150.355 243.476C152.154 247.338 155.002 253.483 158.177 259.828C162.728 268.902 167.953 278.373 171.76 282.076C178.379 288.516 203.797 290 220.142 289.012C224.432 288.751 227.195 284.465 225.072 280.725C221.598 274.608 218.663 268.567 216.316 263.287C214.09 258.292 212.389 253.985 211.246 250.927C210.733 249.555 209.786 248.39 208.548 247.607C207.311 246.825 205.852 246.469 204.394 246.594C178.53 248.628 160.474 243.667 152.661 240.867C152.309 240.75 151.93 240.74 151.572 240.836C151.214 240.933 150.893 241.133 150.647 241.411C150.401 241.688 150.243 242.032 150.191 242.4C150.139 242.767 150.196 243.141 150.355 243.476Z" fill="white"/>
<g opacity="0.3">
<path d="M165.669 271.8C167.46 275.079 169.516 278.206 171.814 281.152C172.216 281.643 172.644 282.112 173.096 282.556C179.505 288.789 204.121 290.231 219.945 289.273C224.099 289.022 226.783 284.857 224.724 281.249C221.34 275.321 218.515 269.475 216.269 264.374C215.145 268.76 210.902 278.099 194.934 280.298C190.772 280.859 186.578 280.029 182.472 278.312C183.215 276.45 183.1 273.002 182.027 269.297C180.531 264.114 177.722 260.383 175.76 260.954C174.559 261.301 170.14 262.103 168.716 262.365C168.494 262.37 168.274 262.403 168.06 262.464C166.671 262.862 165.769 264.415 165.449 266.547C165.213 268.297 165.288 270.075 165.669 271.8Z" fill="black"/>
</g>
<g opacity="0.3">
<path d="M170.327 278.971C169.754 277.237 169.487 275.417 169.537 273.592C167.329 271.894 165.242 270.149 163.355 268.462C165.627 272.052 168.012 275.699 170.327 278.971Z" fill="black"/>
</g>
<path d="M178.033 287.436C174.75 286.372 172.102 285.048 170.419 283.407C163.92 277.086 153.881 255.55 149.054 245.199L148.615 244.26C148.304 243.584 148.198 242.832 148.312 242.096C148.426 241.36 148.754 240.674 149.255 240.124C149.756 239.573 150.408 239.183 151.13 239.001C151.852 238.82 152.611 238.855 153.313 239.103C161.529 242.053 179.059 246.691 204.263 244.728C206.118 244.588 207.968 245.052 209.538 246.05C211.107 247.049 212.312 248.528 212.972 250.267C216.784 260.443 221.365 270.313 226.675 279.793C227.299 280.853 227.637 282.058 227.655 283.289C227.673 284.52 227.371 285.734 226.778 286.813C226.125 287.995 225.179 288.989 224.032 289.7C222.885 290.412 221.575 290.818 220.227 290.879C207.886 291.626 189.297 291.09 178.033 287.436ZM152.046 242.64L152.461 243.61C156.815 252.985 167.031 274.877 173.043 280.715C178.591 286.105 201.724 288.234 219.997 287.128C220.709 287.103 221.402 286.895 222.01 286.526C222.619 286.156 223.123 285.637 223.474 285.018C223.761 284.5 223.907 283.915 223.895 283.323C223.883 282.731 223.715 282.152 223.407 281.646C218.001 271.995 213.337 261.946 209.453 251.587C209.083 250.609 208.406 249.778 207.523 249.218C206.641 248.657 205.6 248.399 204.558 248.48C178.655 250.495 160.538 245.68 152.046 242.64Z" fill="black"/>
<path d="M172.162 275.234C173.603 278.846 174.989 283.449 174.989 283.449C174.989 283.449 182.573 281.231 183.167 280.993C185.126 280.209 185.04 275.383 182.976 270.215C180.912 265.047 177.647 261.493 175.688 262.278C174.256 262.848 168.141 264.567 168.141 264.567C168.141 264.567 171.614 273.835 172.162 275.234Z" fill="#22A7F0"/>
<g opacity="0.8">
<path d="M168.148 264.564C168.148 264.564 171.614 273.836 172.164 275.229C173.609 278.829 174.991 283.444 174.991 283.444C174.991 283.444 175.14 283.393 175.395 283.323C174.89 281.833 174.267 280.012 173.624 278.416C173.068 277.022 169.596 267.748 169.596 267.748C169.596 267.748 175.712 266.029 177.15 265.46C178.737 264.821 181.193 267.044 183.171 270.678L182.986 270.206C180.915 265.036 177.657 261.484 175.692 262.267C174.252 262.842 168.148 264.564 168.148 264.564Z" fill="white"/>
</g>
<g opacity="0.3">
<path d="M172.818 276.954C174.002 280.151 174.988 283.45 174.988 283.45C174.988 283.45 182.574 281.227 183.169 280.988C185.128 280.204 185.042 275.379 182.983 270.212C182.349 268.604 181.541 267.069 180.575 265.636C182.033 270.136 181.91 274.031 180.166 274.746C179.689 274.929 174.834 276.38 172.818 276.954Z" fill="black"/>
</g>
<path d="M174.508 284.932C174.272 284.852 174.059 284.717 173.886 284.537C173.713 284.358 173.586 284.139 173.516 283.9C173.528 283.864 172.133 279.311 170.74 275.814C170.182 274.425 166.843 265.499 166.703 265.115C166.626 264.913 166.593 264.698 166.605 264.482C166.616 264.267 166.673 264.056 166.77 263.863C166.869 263.669 167.007 263.498 167.175 263.359C167.343 263.221 167.538 263.119 167.748 263.059C169.426 262.588 174.018 261.271 175.112 260.803C178.549 259.43 182.353 264.406 184.438 269.614C185.447 272.025 186.028 274.594 186.154 277.204C186.217 280.894 184.686 282.036 183.75 282.429C183.139 282.676 177.231 284.409 175.436 284.934C175.133 285.026 174.81 285.026 174.508 284.932ZM170.2 265.62C171.217 268.332 173.211 273.656 173.606 274.687C174.567 277.082 175.485 279.874 176.021 281.554C179.146 280.631 182.208 279.719 182.586 279.577C183.139 279.179 183.467 275.715 181.514 270.836C179.562 265.956 176.978 263.638 176.282 263.738C175.23 264.139 172.159 265.041 170.206 265.602L170.2 265.62Z" fill="black"/>
<path d="M175.413 283.312C178.024 282.268 178.467 277.231 176.402 272.063C174.337 266.894 170.547 263.551 167.935 264.595C165.324 265.64 164.881 270.676 166.946 275.845C169.011 281.013 172.802 284.357 175.413 283.312Z" fill="#22A7F0"/>
<g opacity="0.8">
<path d="M166.948 275.851C167.084 276.187 167.222 276.517 167.373 276.831C166.372 272.698 167.052 269.11 169.21 268.244C171.648 267.27 175.124 270.13 177.252 274.735C177.03 273.829 176.745 272.94 176.397 272.075C174.333 266.907 170.543 263.541 167.93 264.604C165.316 265.668 164.878 270.681 166.948 275.851Z" fill="white"/>
</g>
<g opacity="0.3">
<path d="M167.131 276.289C169.223 281.207 172.873 284.329 175.409 283.32C177.945 282.312 178.461 277.244 176.403 272.078C175.512 269.685 174.06 267.542 172.169 265.827L172.348 266.257C174.404 271.429 173.965 276.462 171.352 277.506C170.109 278.005 168.595 277.5 167.131 276.289Z" fill="black"/>
</g>
<path d="M172.801 284.816C170.058 283.926 167.246 280.838 165.492 276.434C163.028 270.267 163.825 264.56 167.347 263.148C170.869 261.736 175.389 265.325 177.852 271.492C180.316 277.659 179.513 283.364 175.991 284.776C174.966 285.169 173.835 285.184 172.801 284.816ZM169.551 266.086C169.217 265.955 168.849 265.943 168.507 266.052C167.173 266.588 166.459 270.444 168.389 275.27C170.319 280.096 173.486 282.397 174.82 281.862C176.155 281.326 176.866 277.476 174.937 272.65C173.416 268.832 171.117 266.594 169.551 266.086Z" fill="black"/>
<path d="M200.716 290.381C200.535 290.322 200.369 290.228 200.226 290.103C200.083 289.978 199.966 289.825 199.884 289.654L192.936 275.231C192.323 273.935 192.171 272.468 192.502 271.073C192.834 269.678 193.631 268.438 194.762 267.556C195.336 267.114 195.756 266.503 195.963 265.808C196.169 265.114 196.151 264.372 195.91 263.689L190.273 247.535C190.212 247.36 190.186 247.175 190.197 246.991C190.207 246.806 190.254 246.626 190.334 246.459C190.414 246.293 190.526 246.144 190.664 246.02C190.802 245.897 190.962 245.802 191.137 245.741C191.311 245.68 191.496 245.654 191.68 245.665C191.865 245.675 192.045 245.722 192.212 245.802C192.378 245.882 192.527 245.994 192.651 246.132C192.774 246.27 192.868 246.43 192.929 246.605L198.561 262.757C198.996 263.999 199.029 265.346 198.654 266.608C198.279 267.869 197.516 268.98 196.474 269.783C195.85 270.268 195.411 270.952 195.229 271.721C195.048 272.49 195.134 273.298 195.474 274.011L202.422 288.433C202.545 288.682 202.591 288.961 202.555 289.236C202.519 289.511 202.403 289.769 202.22 289.978C202.037 290.186 201.797 290.336 201.529 290.408C201.261 290.48 200.978 290.47 200.716 290.381Z" fill="black"/>
<path d="M270.719 312.883C270.208 312.711 269.781 312.352 269.524 311.878C269.268 311.403 269.2 310.85 269.335 310.328C269.47 309.806 269.797 309.354 270.252 309.064C270.706 308.773 271.253 308.666 271.783 308.763C275.21 309.423 283.237 308.212 290.252 302.147C296.21 296.987 303.113 286.665 302.183 266.777C302.182 266.227 302.393 265.699 302.772 265.301C303.15 264.903 303.668 264.667 304.216 264.642C304.765 264.616 305.302 264.803 305.716 265.164C306.13 265.525 306.389 266.031 306.439 266.578C307.453 288.173 299.709 299.594 293.043 305.361C284.859 312.453 275.367 313.767 270.984 312.922C270.895 312.916 270.806 312.902 270.719 312.883Z" fill="black"/>
<path d="M304.009 228.004C303.752 227.919 303.514 227.788 303.306 227.616C293.378 219.373 289.006 207.518 290.686 193.34C291.482 186.79 293.344 180.414 296.199 174.466C296.457 173.964 296.905 173.585 297.443 173.413C297.98 173.241 298.564 173.289 299.066 173.548C299.568 173.807 299.947 174.254 300.119 174.792C300.29 175.33 300.242 175.915 299.983 176.417C297.366 181.958 295.65 187.881 294.901 193.964C293.407 206.749 297.159 216.977 306.029 224.333C306.41 224.649 306.669 225.089 306.762 225.576C306.854 226.064 306.774 226.568 306.535 227.002C306.296 227.437 305.913 227.775 305.452 227.957C304.991 228.14 304.481 228.156 304.009 228.004Z" fill="black"/>
<path d="M214.577 240.802C214.406 240.368 209.35 244.195 205.76 245.061C203.892 245.503 209.885 250.745 209.977 248.419C210.062 245.581 214.754 241.237 214.577 240.802Z" fill="black"/>
</svg>
