<svg width="132" height="83" viewBox="0 0 132 83" fill="none" xmlns="http://www.w3.org/2000/svg">
<circle cx="63.8302" cy="41.1319" r="40.2081" fill="#D9D9D9"/>
<path d="M125.33 35.1201C125.853 37.6955 124.999 40.6062 122.625 43.7598C120.253 46.9115 116.465 50.1547 111.473 53.2766C101.5 59.5142 87.003 65.093 70.35 68.4712C53.697 71.8494 38.172 72.3607 26.5565 70.5025C20.7428 69.5725 15.9906 68.0617 12.5774 66.0837C9.16217 64.1045 7.2422 61.7564 6.71977 59.181C6.19734 56.6056 7.05051 53.6949 9.42454 50.5413C11.7972 47.3896 15.585 44.1464 20.5766 41.0245C30.5499 34.7869 45.0469 29.208 61.7 25.8299C78.353 22.4517 93.878 21.9404 105.494 23.7986C111.307 24.7286 116.059 26.2394 119.473 28.2174C122.888 30.1966 124.808 32.5447 125.33 35.1201Z" stroke="#D9D9D9" stroke-width="3"/>
</svg>
