<svg width="645" height="645" viewBox="0 0 645 645" fill="none" xmlns="http://www.w3.org/2000/svg">
<path d="M125.593 447.594C194.589 556.442 338.76 588.748 447.607 519.753C556.455 450.757 588.762 306.586 519.766 197.738C450.77 88.8908 306.599 56.5845 197.752 125.58C88.9041 194.576 56.5977 338.747 125.593 447.594Z" fill="#988F2C"/>
<path d="M178.272 414.203C228.826 493.957 334.462 517.628 414.216 467.074C493.971 416.52 517.642 310.884 467.088 231.13C416.534 151.375 310.898 127.704 231.143 178.258C151.389 228.812 127.718 334.448 178.272 414.203Z" stroke="white" stroke-width="3.35" stroke-miterlimit="10"/>
<path d="M138.699 397.362C139.037 398.205 139.032 399.049 138.684 399.895C138.319 400.749 137.706 401.348 136.846 401.692C135.968 402.044 135.111 402.034 134.276 401.661C133.422 401.296 132.827 400.692 132.489 399.85C132.138 398.972 132.148 398.115 132.52 397.279C132.868 396.433 133.48 395.834 134.359 395.482C135.219 395.138 136.076 395.148 136.929 395.513C137.758 395.868 138.348 396.484 138.699 397.362Z" fill="white"/>
<path d="M130.527 387.364C128.609 387.888 126.781 387.938 125.043 387.513C123.287 387.092 121.791 386.271 120.556 385.047C119.302 383.829 118.43 382.326 117.941 380.538C117.345 378.36 117.357 376.355 117.977 374.524C118.574 372.679 119.715 371.146 121.403 369.924L122.029 372.214C120.86 373.135 120.061 374.274 119.632 375.632C119.198 376.972 119.202 378.452 119.645 380.072C120.038 381.506 120.727 382.709 121.713 383.68C122.694 384.633 123.907 385.261 125.352 385.567C126.778 385.877 128.319 385.806 129.977 385.352C131.634 384.899 132.998 384.176 134.067 383.183C135.136 382.19 135.851 381.033 136.211 379.714C136.565 378.376 136.546 376.99 136.154 375.556C135.711 373.936 134.971 372.657 133.934 371.72C132.873 370.769 131.614 370.193 130.158 369.991L129.531 367.7C131.587 367.898 133.341 368.639 134.793 369.924C136.245 371.208 137.267 372.93 137.858 375.09C138.347 376.878 138.371 378.612 137.931 380.294C137.471 381.981 136.602 383.45 135.323 384.701C134.044 385.951 132.445 386.839 130.527 387.364Z" fill="white"/>
<path d="M131.33 353.857L130.306 346.675L131.937 346.442L133.247 355.628L113.244 358.48L112.959 356.477L131.33 353.857Z" fill="white"/>
<path d="M110.71 338.224L130.896 336.707L131.048 338.728L110.862 340.246L110.71 338.224Z" fill="white"/>
<path d="M119.943 329.033C117.953 328.976 116.188 328.491 114.647 327.576C113.088 326.662 111.895 325.438 111.068 323.906C110.223 322.373 109.826 320.68 109.879 318.825C109.944 316.564 110.54 314.647 111.668 313.074C112.777 311.481 114.318 310.346 116.291 309.667L116.223 312.044C114.834 312.585 113.737 313.443 112.929 314.619C112.123 315.775 111.695 317.194 111.647 318.875C111.605 320.363 111.914 321.716 112.576 322.934C113.237 324.132 114.216 325.089 115.51 325.803C116.786 326.516 118.283 326.897 120.003 326.946C121.723 326.995 123.239 326.7 124.553 326.061C125.867 325.422 126.889 324.523 127.618 323.364C128.348 322.186 128.735 320.853 128.777 319.365C128.825 317.684 128.489 316.243 127.769 315.043C127.031 313.823 125.993 312.904 124.657 312.285L124.725 309.909C126.637 310.698 128.1 311.92 129.117 313.573C130.133 315.227 130.609 317.174 130.545 319.416C130.492 321.271 130.009 322.939 129.097 324.422C128.165 325.903 126.904 327.057 125.314 327.881C123.724 328.706 121.933 329.09 119.943 329.033Z" fill="white"/>
<path d="M133.357 288.873L122.759 296.074L131.989 297.532L131.673 299.533L111.697 296.377L112.013 294.376L121.358 295.853L113.381 285.717L113.783 283.174L122.28 294.095L133.773 286.244L133.357 288.873Z" fill="white"/>
<path d="M123.492 248.49L125.08 249.038L123.247 254.349L140.795 260.405L140.134 262.321L122.586 256.265L120.744 261.603L119.156 261.055L123.492 248.49Z" fill="white"/>
<path d="M149.759 239.093C148.925 240.77 147.78 242.098 146.324 243.077C144.85 244.048 143.215 244.583 141.419 244.683C139.615 244.756 137.822 244.351 136.041 243.466C134.26 242.581 132.863 241.402 131.849 239.928C130.826 238.428 130.265 236.802 130.166 235.05C130.049 233.288 130.408 231.569 131.241 229.892C132.083 228.198 133.241 226.865 134.715 225.894C136.171 224.915 137.802 224.389 139.606 224.315C141.393 224.233 143.177 224.634 144.958 225.519C146.739 226.404 148.145 227.587 149.176 229.07C150.19 230.544 150.756 232.161 150.872 233.922C150.972 235.675 150.6 237.398 149.759 239.093ZM148.177 238.307C148.847 236.958 149.137 235.593 149.047 234.212C148.957 232.831 148.488 231.541 147.638 230.343C146.772 229.136 145.569 228.151 144.03 227.386C142.492 226.622 140.988 226.263 139.521 226.31C138.053 226.357 136.742 226.761 135.587 227.524C134.431 228.287 133.519 229.342 132.849 230.691C132.179 232.04 131.889 233.405 131.978 234.786C132.068 236.167 132.538 237.457 133.387 238.655C134.236 239.853 135.43 240.834 136.969 241.599C138.508 242.363 140.02 242.726 141.505 242.688C142.972 242.641 144.284 242.236 145.439 241.474C146.594 240.711 147.506 239.655 148.177 238.307Z" fill="white"/>
<path d="M172.569 202.457L159.803 203.691L167.209 209.404L165.971 211.009L149.944 198.644L151.182 197.039L158.68 202.824L156.542 190.092L158.116 188.051L160.334 201.723L174.197 200.347L172.569 202.457Z" fill="white"/>
<path d="M190.351 182.863L188.912 184.303L168.857 180.177L180.955 192.266L179.516 193.706L165.134 179.335L166.573 177.894L186.608 182L174.53 169.932L175.969 168.491L190.351 182.863Z" fill="white"/>
<path d="M205.562 170.234C204.06 171.363 202.436 172.039 200.689 172.262C198.931 172.47 197.224 172.215 195.569 171.496C193.918 170.751 192.493 169.581 191.294 167.986C190.095 166.392 189.372 164.706 189.126 162.928C188.884 161.123 189.112 159.413 189.811 157.797C190.498 156.165 191.593 154.784 193.094 153.655C194.611 152.514 196.249 151.84 198.007 151.633C199.754 151.41 201.453 151.671 203.104 152.416C204.744 153.146 206.163 154.309 207.362 155.903C208.561 157.497 209.29 159.191 209.547 160.984C209.794 162.762 209.573 164.467 208.886 166.099C208.187 167.715 207.079 169.093 205.562 170.234ZM204.497 168.818C205.704 167.91 206.578 166.816 207.119 165.537C207.659 164.258 207.818 162.891 207.596 161.434C207.361 159.963 206.726 158.538 205.69 157.16C204.654 155.783 203.468 154.785 202.13 154.167C200.793 153.549 199.435 153.322 198.056 153.486C196.677 153.651 195.384 154.187 194.177 155.095C192.97 156.003 192.095 157.096 191.555 158.375C191.014 159.654 190.855 161.022 191.078 162.478C191.3 163.934 191.93 165.351 192.966 166.729C194.002 168.107 195.194 169.112 196.543 169.746C197.88 170.364 199.238 170.591 200.617 170.426C201.996 170.262 203.289 169.726 204.497 168.818Z" fill="white"/>
<path d="M234.54 128.789L238.72 149.496L236.703 150.534L224.224 137.465L227.499 155.27L225.547 156.307L211.219 140.789L213.158 139.791L225.45 153.512L221.923 135.281L223.94 134.243L236.593 147.778L232.601 129.787L234.54 128.789Z" fill="white"/>
<path d="M284.264 113.081L283.303 134.219L281.092 134.738L272.134 119.011L270.998 137.108L268.85 137.642L258.689 119.086L260.815 118.587L269.433 134.903L270.427 116.33L272.639 115.811L281.653 132.033L282.137 113.581L284.264 113.081Z" fill="white"/>
<path d="M312.867 110.28L314.335 130.47L312.313 130.617L311.626 121.172L300.679 121.968L301.366 131.413L299.344 131.56L297.876 111.37L299.898 111.223L300.557 120.293L311.504 119.497L310.845 110.427L312.867 110.28Z" fill="white"/>
<path d="M337.082 126.08L327.889 125.529L325.838 130.222L323.699 130.094L332.266 110.589L334.55 110.726L340.697 131.113L338.558 130.985L337.082 126.08ZM336.575 124.367L333.241 113.201L328.597 123.889L336.575 124.367Z" fill="white"/>
<path d="M365.25 114.136L364.951 115.797L359.394 114.796L356.087 133.157L354.082 132.796L357.389 114.435L351.803 113.429L352.103 111.768L365.25 114.136Z" fill="white"/>
<path d="M423.79 135.45L409.825 151.234L407.785 150.254L410.678 132.46L398.479 145.777L396.479 144.848L400.209 124.109L402.17 125.052L398.645 143.089L411.032 129.314L413.071 130.295L409.913 148.508L421.829 134.507L423.79 135.45Z" fill="white"/>
<path d="M436.133 144.874L431.942 151.165L438.329 155.42L437.398 156.818L431.011 152.563L426.756 158.95L433.866 163.686L432.935 165.084L424.138 159.224L435.377 142.353L444.174 148.213L443.243 149.611L436.133 144.874Z" fill="white"/>
<path d="M468.127 167.643C469.733 169.204 470.827 170.834 471.411 172.533C471.994 174.231 472.059 175.924 471.604 177.609C471.15 179.295 470.189 180.892 468.722 182.401C467.269 183.896 465.706 184.894 464.033 185.395C462.374 185.882 460.688 185.858 458.974 185.322C457.273 184.772 455.62 183.717 454.014 182.155L449.717 177.976L463.83 163.464L468.127 167.643ZM455.185 180.951C457.206 182.916 459.254 183.885 461.329 183.856C463.431 183.826 465.404 182.863 467.248 180.967C469.106 179.057 470.02 177.051 469.99 174.949C469.988 172.846 468.977 170.812 466.956 168.847L464.112 166.081L452.341 178.185L455.185 180.951Z" fill="white"/>
<path d="M474.053 204.127C472.908 202.635 472.215 201.017 471.975 199.271C471.75 197.513 471.988 195.802 472.691 194.139C473.42 192.479 474.577 191.041 476.161 189.826C477.745 188.61 479.425 187.87 481.202 187.606C483.005 187.345 484.72 187.556 486.344 188.24C487.984 188.912 489.376 189.993 490.521 191.485C491.678 192.992 492.369 194.624 492.594 196.382C492.835 198.128 492.59 199.831 491.861 201.49C491.146 203.138 489.997 204.57 488.413 205.786C486.83 207.002 485.142 207.748 483.35 208.024C481.573 208.288 479.865 208.084 478.225 207.413C476.601 206.729 475.21 205.634 474.053 204.127ZM475.46 203.047C476.381 204.246 477.484 205.11 478.769 205.638C480.055 206.167 481.425 206.312 482.88 206.075C484.351 205.826 485.77 205.176 487.139 204.126C488.507 203.075 489.494 201.878 490.099 200.533C490.705 199.189 490.918 197.827 490.74 196.449C490.561 195.071 490.012 193.782 489.091 192.583C488.171 191.383 487.067 190.519 485.782 189.991C484.497 189.463 483.126 189.317 481.671 189.554C480.216 189.792 478.804 190.436 477.436 191.486C476.067 192.537 475.073 193.74 474.452 195.096C473.847 196.441 473.633 197.802 473.812 199.18C473.99 200.559 474.539 201.847 475.46 203.047Z" fill="white"/>
<path d="M505.477 235.053C505.785 236.17 505.688 237.291 505.184 238.417C504.681 239.543 503.865 240.381 502.737 240.931C501.817 241.38 500.87 241.552 499.895 241.447C498.947 241.351 498.039 240.966 497.174 240.293C496.326 239.611 495.602 238.654 495.001 237.421L491.93 231.122L510.126 222.251L513.108 228.368C514.005 230.208 514.261 231.812 513.876 233.181C513.499 234.568 512.634 235.591 511.281 236.251C510.152 236.801 509.085 236.945 508.077 236.685C507.087 236.416 506.22 235.872 505.477 235.053ZM502.971 227.995L505.039 232.238C505.64 233.47 506.387 234.276 507.281 234.656C508.201 235.046 509.173 234.991 510.197 234.491C511.204 234.001 511.828 233.277 512.071 232.321C512.322 231.383 512.135 230.271 511.509 228.987L509.478 224.822L502.971 227.995ZM496.473 236.542C497.116 237.861 497.928 238.733 498.908 239.157C499.897 239.599 500.938 239.553 502.031 239.02C503.124 238.487 503.802 237.674 504.063 236.58C504.35 235.495 504.177 234.301 503.542 233L501.461 228.731L494.354 232.195L496.473 236.542Z" fill="white"/>
<path d="M521.455 247.208L509.401 251.34C507.502 251.991 506.249 252.92 505.643 254.128C505.042 255.355 505.011 256.753 505.55 258.324C506.088 259.894 506.955 260.965 508.15 261.535C509.37 262.116 510.939 262.079 512.857 261.421L524.911 257.29L525.568 259.208L513.542 263.33C511.112 264.162 509.064 264.14 507.396 263.263C505.734 262.404 504.549 260.942 503.842 258.878C503.135 256.815 503.17 254.925 503.95 253.209C504.735 251.511 506.342 250.245 508.771 249.413L520.798 245.291L521.455 247.208Z" fill="white"/>
<path d="M531.594 283.259L529.952 283.612L528.772 278.119L510.623 282.02L510.197 280.038L528.346 276.137L527.159 270.616L528.801 270.263L531.594 283.259Z" fill="white"/>
<path d="M535.072 313.168C535.138 315.407 534.79 317.338 534.027 318.964C533.264 320.59 532.133 321.85 530.634 322.744C529.135 323.638 527.334 324.116 525.231 324.179C523.147 324.241 521.33 323.87 519.781 323.066C518.251 322.262 517.056 321.071 516.198 319.493C515.36 317.915 514.907 316.007 514.841 313.769L514.663 307.778L534.894 307.177L535.072 313.168ZM516.519 313.719C516.603 316.536 517.4 318.656 518.91 320.079C520.44 321.521 522.526 322.202 525.17 322.124C527.833 322.045 529.885 321.24 531.326 319.711C532.788 318.199 533.477 316.035 533.393 313.218L533.275 309.253L516.402 309.754L516.519 313.719Z" fill="white"/>
<path d="M513.479 343.403C513.703 341.554 514.336 339.928 515.377 338.525C516.437 337.126 517.792 336.081 519.443 335.391C521.111 334.723 522.927 334.508 524.891 334.746C526.855 334.985 528.557 335.626 529.997 336.672C531.454 337.739 532.521 339.078 533.196 340.688C533.89 342.301 534.125 344.032 533.901 345.882C533.674 347.75 533.03 349.385 531.97 350.785C530.93 352.187 529.575 353.222 527.908 353.89C526.259 354.561 524.453 354.777 522.489 354.539C520.525 354.3 518.813 353.657 517.353 352.609C515.913 351.564 514.846 350.235 514.151 348.622C513.476 347.011 513.252 345.272 513.479 343.403ZM515.223 343.615C515.043 345.102 515.224 346.479 515.767 347.744C516.31 349.01 517.179 350.063 518.373 350.905C519.586 351.749 521.041 352.273 522.738 352.479C524.436 352.685 525.964 352.523 527.325 351.991C528.686 351.46 529.782 350.645 530.612 349.546C531.441 348.447 531.947 347.154 532.127 345.666C532.308 344.179 532.126 342.803 531.584 341.537C531.041 340.272 530.172 339.218 528.978 338.377C527.783 337.535 526.338 337.011 524.641 336.805C522.944 336.6 521.405 336.761 520.025 337.29C518.664 337.822 517.569 338.637 516.739 339.736C515.909 340.835 515.404 342.128 515.223 343.615Z" fill="white"/>
<path d="M522.813 394.327L513.077 384.317L505.59 381.868L506.22 379.942L513.707 382.39L527.495 380.013L526.783 382.188L515.153 383.93L523.516 392.18L522.813 394.327Z" fill="white"/>
<path d="M496.667 404.14C497.48 402.45 498.61 401.105 500.057 400.105C501.52 399.114 503.151 398.557 504.948 398.434C506.755 398.337 508.555 398.72 510.351 399.584C512.146 400.447 513.56 401.61 514.595 403.074C515.639 404.563 516.221 406.184 516.343 407.938C516.483 409.701 516.146 411.427 515.333 413.118C514.512 414.826 513.369 416.175 511.905 417.167C510.458 418.166 508.832 418.714 507.026 418.811C505.237 418.917 503.445 418.538 501.65 417.674C499.855 416.811 498.431 415.643 497.379 414.172C496.345 412.709 495.758 411.096 495.618 409.333C495.496 407.579 495.846 405.848 496.667 404.14ZM498.262 404.907C497.608 406.267 497.335 407.637 497.443 409.02C497.55 410.402 498.037 411.688 498.903 412.877C499.787 414.074 501.004 415.046 502.555 415.792C504.106 416.538 505.616 416.878 507.086 416.812C508.555 416.747 509.864 416.324 511.011 415.545C512.158 414.767 513.058 413.698 513.712 412.338C514.366 410.979 514.639 409.608 514.531 408.226C514.424 406.843 513.937 405.557 513.071 404.368C512.205 403.179 510.996 402.212 509.445 401.466C507.894 400.72 506.375 400.375 504.888 400.433C503.419 400.499 502.11 400.921 500.963 401.7C499.816 402.479 498.916 403.548 498.262 404.907Z" fill="white"/>
<path d="M503.111 435.163L492.525 428.071C490.857 426.953 489.358 426.518 488.03 426.767C486.691 427.032 485.559 427.854 484.635 429.233C483.711 430.613 483.384 431.951 483.654 433.247C483.929 434.57 484.909 435.796 486.593 436.924L497.179 444.017L496.051 445.701L485.489 438.625C483.356 437.196 482.133 435.552 481.821 433.693C481.499 431.85 481.945 430.022 483.159 428.21C484.373 426.397 485.899 425.282 487.737 424.863C489.564 424.46 491.544 424.973 493.677 426.402L504.239 433.479L503.111 435.163Z" fill="white"/>
<path d="M457.542 459.692L470.325 459.942L463.65 453.431L465.062 451.984L479.507 466.076L478.095 467.523L471.338 460.93L471.987 473.784L470.193 475.623L469.573 461.83L455.687 461.594L457.542 459.692Z" fill="white"/>
<path d="M437.566 476.98L439.157 475.723L458.51 482.127L447.947 468.77L449.537 467.513L462.094 483.39L460.504 484.648L441.169 478.267L451.714 491.6L450.124 492.858L437.566 476.98Z" fill="white"/>
<path d="M420.934 487.718C422.555 486.78 424.243 486.306 425.999 486.294C427.764 486.299 429.422 486.757 430.974 487.666C432.518 488.601 433.788 489.93 434.784 491.651C435.779 493.373 436.292 495.128 436.323 496.917C436.347 498.732 435.916 500.397 435.03 501.913C434.155 503.445 432.906 504.68 431.285 505.618C429.647 506.565 427.946 507.036 426.181 507.03C424.425 507.042 422.775 506.58 421.231 505.644C419.696 504.725 418.431 503.405 417.435 501.684C416.44 499.962 415.922 498.199 415.881 496.393C415.851 494.605 416.273 492.944 417.149 491.412C418.034 489.896 419.296 488.665 420.934 487.718ZM421.818 489.247C420.515 490.001 419.519 490.978 418.83 492.179C418.142 493.38 417.821 494.714 417.867 496.182C417.922 497.666 418.38 499.152 419.24 500.64C420.1 502.127 421.155 503.257 422.404 504.029C423.654 504.801 424.97 505.188 426.354 505.19C427.739 505.193 429.083 504.817 430.386 504.063C431.69 503.309 432.686 502.332 433.374 501.131C434.062 499.93 434.384 498.596 434.338 497.128C434.292 495.66 433.839 494.183 432.979 492.695C432.118 491.208 431.059 490.07 429.8 489.281C428.551 488.509 427.234 488.122 425.85 488.12C424.466 488.117 423.122 488.493 421.818 489.247Z" fill="white"/>
<path d="M387.183 525.418L385.544 504.395L387.667 503.611L398.454 518.068L397.36 500.03L399.419 499.238L411.742 516.346L409.7 517.1L399.178 502.02L400.47 520.51L398.346 521.294L387.443 506.355L389.225 524.664L387.183 525.418Z" fill="white"/>
<path d="M336.228 535.039L339.648 514.28L341.893 514.026L348.899 530.603L352.137 512.866L354.321 512.589L362.184 532.101L360.026 532.345L353.424 515.226L350.271 533.449L348.026 533.704L341.022 516.631L338.386 534.795L336.228 535.039Z" fill="white"/>
<path d="M307.333 534.714L308.273 514.493L310.298 514.587L309.858 524.047L320.822 524.556L321.262 515.097L323.287 515.191L322.347 535.412L320.322 535.318L320.744 526.234L309.78 525.725L309.358 534.808L307.333 534.714Z" fill="white"/>
<path d="M285.176 516.162L294.24 517.795L296.831 513.377L298.94 513.757L288.13 532.113L285.878 531.708L282.181 510.738L284.29 511.118L285.176 516.162ZM285.477 517.923L287.47 529.405L293.343 519.34L285.477 517.923Z" fill="white"/>
<path d="M255.966 524.486L256.455 522.879L261.83 524.514L267.232 506.754L269.172 507.344L263.769 525.104L269.172 526.748L268.683 528.355L255.966 524.486Z" fill="white"/>
<path d="M211.213 503.888L226.083 488.933L228.063 490.031L224.138 507.639L237.1 495.044L239.043 496.089L234.11 516.591L232.206 515.535L236.777 497.72L223.601 510.761L221.621 509.662L225.837 491.651L213.117 504.944L211.213 503.888Z" fill="white"/>
<path d="M199.487 493.865L204.022 487.818L197.882 483.213L198.89 481.87L205.03 486.474L209.634 480.335L202.8 475.209L203.808 473.865L212.264 480.207L200.1 496.425L191.644 490.083L192.652 488.739L199.487 493.865Z" fill="white"/>
<path d="M168.782 469.316C167.267 467.667 166.266 465.978 165.779 464.249C165.292 462.52 165.323 460.827 165.872 459.17C166.42 457.513 167.47 455.972 169.019 454.548C170.555 453.138 172.172 452.23 173.87 451.823C175.553 451.43 177.236 451.549 178.917 452.181C180.584 452.826 182.175 453.973 183.69 455.622L187.745 460.037L172.837 473.731L168.782 469.316ZM182.453 456.758C180.546 454.682 178.556 453.6 176.483 453.512C174.382 453.423 172.358 454.273 170.41 456.063C168.448 457.865 167.422 459.817 167.333 461.917C167.217 464.016 168.112 466.104 170.019 468.18L172.703 471.102L185.137 459.68L182.453 456.758Z" fill="white"/>
<path d="M165.078 432.488C166.13 434.038 166.724 435.688 166.861 437.437C166.982 439.198 166.645 440.885 165.85 442.498C165.027 444.106 163.793 445.468 162.147 446.584C160.502 447.7 158.788 448.338 157.006 448.497C155.197 448.65 153.505 448.34 151.93 447.566C150.339 446.802 149.018 445.645 147.966 444.095C146.904 442.529 146.313 440.866 146.191 439.105C146.054 437.355 146.397 435.677 147.219 434.069C148.026 432.472 149.252 431.115 150.898 429.999C152.543 428.883 154.265 428.24 156.063 428.07C157.845 427.911 159.531 428.214 161.123 428.977C162.698 429.752 164.016 430.922 165.078 432.488ZM163.617 433.479C162.771 432.233 161.725 431.31 160.478 430.709C159.231 430.109 157.877 429.884 156.416 430.035C154.939 430.197 153.49 430.76 152.068 431.725C150.646 432.689 149.595 433.822 148.914 435.124C148.234 436.425 147.942 437.766 148.039 439.147C148.136 440.527 148.607 441.841 149.452 443.087C150.298 444.334 151.344 445.257 152.591 445.857C153.838 446.458 155.192 446.683 156.653 446.532C158.113 446.381 159.555 445.823 160.977 444.858C162.399 443.894 163.458 442.755 164.154 441.443C164.835 440.142 165.126 438.801 165.03 437.42C164.933 436.039 164.462 434.726 163.617 433.479Z" fill="white"/>
</svg>
