<svg width="221" height="220" viewBox="0 0 221 220" fill="none" xmlns="http://www.w3.org/2000/svg">
<path style="mix-blend-mode:screen" opacity="0.3" fill-rule="evenodd" clip-rule="evenodd" d="M84.5739 163.783C65.803 148.012 66.3344 150.88 57.3644 135.948C48.3943 121.015 35.6987 117.059 35.6987 100.395C35.6987 80.9838 70.5798 68.0491 79.6464 59.1033C88.7131 50.1576 113.169 27.2034 133.521 31.4887C153.872 35.7739 160.187 65.6573 167.397 75.669C174.607 85.6808 185.134 85.2344 190.404 100.299C195.673 115.364 173.524 129.126 165.841 142.958C158.158 156.789 113.223 187.852 84.5739 163.783Z" fill="url(#paint0_radial_423_27977)"/>
<path style="mix-blend-mode:screen" d="M165.596 164.624C195.9 134.448 195.9 85.5242 165.596 55.3486C135.293 25.173 86.1624 25.173 55.8593 55.3486C25.5562 85.5242 25.5562 134.448 55.8593 164.624C86.1624 194.8 135.293 194.8 165.596 164.624Z" fill="url(#paint1_radial_423_27977)"/>
<path style="mix-blend-mode:screen" opacity="0.3" fill-rule="evenodd" clip-rule="evenodd" d="M64.2456 153.006C40.8466 135.428 63.8688 120.204 54.7596 89.9585C39.0457 37.8118 83.2407 48.7529 108.559 49.5342C133.876 50.3154 164.073 50.556 174.421 71.5012C184.769 92.4465 184.11 132.195 168.875 148.684C153.641 165.173 110.037 187.403 64.2456 153.006Z" fill="url(#paint2_radial_423_27977)"/>
<path style="mix-blend-mode:screen" opacity="0.3" fill-rule="evenodd" clip-rule="evenodd" d="M45.4419 105.367C43.813 76.2243 70.352 83.902 87.6602 57.4534C117.519 11.8337 137.65 52.5024 153.397 72.2546C169.144 92.0069 188.454 115.134 179.072 136.524C169.691 157.914 138.775 183.079 116.302 182.14C93.8283 181.201 48.6207 162.395 45.4419 105.367Z" fill="url(#paint3_radial_423_27977)"/>
<path style="mix-blend-mode:screen" d="M162.106 163.029C190.482 134.773 190.482 88.9599 162.106 60.7035C133.731 32.4472 87.7246 32.4471 59.3488 60.7035C30.9731 88.9599 30.9731 134.773 59.3488 163.029C87.7246 191.285 133.731 191.285 162.106 163.029Z" fill="url(#paint4_radial_423_27977)"/>
<path fill-rule="evenodd" clip-rule="evenodd" d="M176.649 112.05C176.66 128.26 170.644 143.899 159.761 155.954C148.879 168.008 133.899 175.624 117.712 177.332L117.699 177.345C116.251 177.497 114.8 177.595 113.329 177.649C112.466 177.692 111.59 177.705 110.713 177.705C97.9015 177.706 85.369 173.978 74.6571 166.979C73.8842 166.495 73.1267 165.983 72.375 165.429C71.0127 164.466 69.6697 163.447 68.3963 162.365C61.5358 156.659 55.9154 149.62 51.8785 141.678C49.2858 136.612 47.3812 131.225 46.2147 125.659C46.2012 125.645 46.2012 125.632 46.2012 125.603C45.5933 122.715 45.1839 119.789 44.9761 116.846C44.8505 115.266 44.7944 113.659 44.7944 112.05C44.8006 94.6407 51.7482 77.9457 64.1104 65.6349C76.4725 53.324 93.2376 46.4046 110.721 46.3975C112.168 46.3975 113.586 46.4513 115.007 46.536C120.596 46.8948 126.116 47.9657 131.432 49.7225C131.459 49.7225 131.472 49.7225 131.486 49.736C133.101 50.2498 134.659 50.8444 136.218 51.5101C137.378 51.9816 138.5 52.4934 139.627 53.0495C149.473 57.8408 157.967 64.9969 164.343 73.8727C170.718 82.7485 174.776 93.0648 176.149 103.892V103.905C176.485 106.607 176.652 109.328 176.649 112.05Z" fill="url(#paint5_radial_423_27977)"/>
<path fill-rule="evenodd" clip-rule="evenodd" d="M139.637 53.0419C139.418 53.0614 139.2 53.0922 138.984 53.1343C138.297 53.2593 137.59 53.2124 136.926 52.9977C136.4 52.8495 136.023 52.6321 135.463 52.5416C134.661 52.4165 133.917 52.074 133.119 51.9644C132.273 51.8508 131.54 51.5199 130.74 51.2351C130.11 51.008 129.774 51.0869 129.173 51.2351C128.572 51.3832 128.143 51.1446 127.606 50.9176C127.001 50.6539 126.394 50.6097 125.753 50.4846C124.083 50.1421 122.425 49.6072 120.767 49.1858C119.739 48.9241 118.789 48.9241 117.737 48.9125C116.914 48.901 116.17 49.1396 115.347 49.1396C114.821 49.1221 114.297 49.0655 113.78 48.9702C113.219 48.8663 112.649 48.9702 112.089 48.901C111.254 48.7759 110.808 48.6508 109.963 48.9125C109.333 49.1165 108.843 49.1049 108.213 49.128C107.479 49.1944 106.752 49.3231 106.041 49.5129C104.781 49.8288 103.487 49.9929 102.188 50.0016C101.415 50.0016 100.267 49.7861 99.5229 50.0478C99.0417 50.2191 98.8021 50.7309 98.4697 51.0715C97.8301 51.7334 97.0417 52.3242 96.5045 53.065C95.9673 53.8058 95.3606 54.5678 95.405 55.503C95.4514 56.3112 95.8282 57.256 96.178 57.9949C96.5432 58.7819 96.6688 59.4996 95.8572 60.023C94.8242 60.7267 93.6907 61.2716 92.4949 61.6394C91.7219 61.8684 91.0205 62.005 90.3693 61.447C90.1277 61.2411 89.9828 60.8428 89.6814 60.6773C89.3799 60.5118 89.0533 60.6773 88.7152 60.7793C87.91 61.0458 87.0891 61.263 86.2572 61.4296C85.7432 61.5085 85.291 61.7818 84.7944 61.8741C84.1877 61.9877 83.7529 61.5432 83.1249 61.6817C82.2437 61.8857 81.3625 62.259 80.4485 62.2956C79.7954 62.3302 78.9722 62.0454 78.4234 61.7183C78.1046 61.5355 78.0234 61.3527 77.6505 61.4547C77.2927 61.5865 76.9793 61.8159 76.7461 62.1166C76.5297 62.4245 76.4486 62.8228 76.2321 63.1403C76.0041 63.4944 75.7858 63.8349 75.5809 64.2121C75.2073 64.9373 74.777 65.6322 74.294 66.2903C73.9519 66.7444 73.7143 67.3601 73.3278 67.7815C73.1346 68.0086 72.7094 68.1664 72.4582 68.3396C71.7722 68.8168 71.0515 69.2497 70.3887 69.7635C69.1075 70.7641 67.8959 71.8686 66.5916 72.8423C65.5983 73.5812 64.2032 74.0141 63.0708 74.4817C62.3616 74.7665 61.6293 74.9705 60.9201 75.2668C60.6921 75.3572 60.2689 75.4592 60.0737 75.6305C59.8225 75.8479 59.6873 76.2462 59.4573 76.5426C58.8389 77.293 58.1877 78.0454 57.7182 78.9113C57.4527 79.408 57.2384 79.9302 57.0786 80.4699C56.8254 81.2108 56.4254 81.8939 56.1742 82.6347C55.6602 84.1837 55.5578 85.8 54.9858 87.3375C54.6535 88.2361 54.1742 89.0578 53.7626 89.8775C53.0535 91.2668 52.9491 92.9178 52.7443 94.4552C52.6369 95.3918 52.6675 96.3388 52.8351 97.2666C53.0071 98.2133 52.9607 99.1908 52.9491 100.153C52.9375 101.179 52.2863 102.181 51.6351 102.955C51.0399 103.672 50.1375 103.946 49.4728 104.582C48.9124 105.131 48.238 105.756 47.9984 106.53C47.896 106.872 47.9868 107.259 47.9288 107.625C47.782 108.433 47.5752 109.195 47.4612 110.015C47.3487 111.009 47.299 112.01 47.3124 113.011C47.3124 113.522 47.2776 114.046 47.3008 114.55C47.324 115.054 47.5056 115.495 47.5404 115.984C47.5636 116.326 47.496 116.667 47.5404 117.009C47.61 117.394 47.7588 117.794 47.8496 118.164C48.0776 119.076 48.2496 119.963 48.4293 120.875C48.5897 121.718 48.9201 122.549 49.1829 123.376C49.5331 124.5 49.8087 125.644 50.0081 126.804C50.1781 127.669 50.1665 128.568 50.294 129.445C50.3965 130.152 50.5568 130.869 50.5897 131.576C50.6245 132.645 50.3617 133.715 50.3501 134.797C50.3385 136.619 51.0709 138.441 51.494 140.196C51.6196 140.685 51.7452 141.185 51.8805 141.676C46.8023 131.666 44.3834 120.527 44.8543 109.322C45.3252 98.1171 48.6702 87.2189 54.5705 77.6662C60.4708 68.1136 68.7297 60.225 78.56 54.7523C88.3904 49.2796 99.4644 46.4053 110.727 46.4033C112.168 46.4033 113.587 46.4495 115.005 46.5399C123.565 47.0762 131.934 49.2856 139.637 53.0419Z" fill="url(#paint6_linear_423_27977)"/>
<path style="mix-blend-mode:screen" fill-rule="evenodd" clip-rule="evenodd" d="M71.6331 163.325C64.7765 157.611 59.1535 150.572 55.1037 142.634C52.5206 137.563 50.6171 132.176 49.4419 126.611C49.4313 126.595 49.4272 126.575 49.4303 126.555C48.497 122.098 48.0262 117.556 48.0254 113.003C48.0257 104.382 49.7312 95.8448 53.0447 87.8798C56.3582 79.9149 61.2147 72.6779 67.3369 66.5819C73.4591 60.486 80.7271 55.6506 88.726 52.3518C96.7249 49.0529 105.298 47.3553 113.956 47.3558C115.397 47.3558 116.814 47.402 118.232 47.4924C122.625 47.7732 126.979 48.4939 131.227 49.6437C125.97 47.9306 120.516 46.8877 114.995 46.5399C113.577 46.4495 112.159 46.4033 110.717 46.4033C102.059 46.4005 93.4857 48.0968 85.4866 51.3951C77.4874 54.6934 70.2194 59.5292 64.0979 65.626C57.9765 71.7228 53.1216 78.961 49.8107 86.9271C46.4998 94.8932 44.7979 103.431 44.8023 112.052C44.8047 116.605 45.2781 121.146 46.2148 125.603C46.2148 125.626 46.2148 125.649 46.2264 125.659C47.4001 131.223 49.303 136.611 51.8863 141.682C56.0715 149.89 61.9378 157.134 69.1069 162.947C76.276 168.76 84.5888 173.012 93.5094 175.429C85.5066 172.826 78.0802 168.717 71.6331 163.325Z" fill="url(#paint7_radial_423_27977)"/>
<path style="mix-blend-mode:screen" d="M101.098 100.837C118.981 90.234 127.944 72.3836 121.118 60.9668C114.291 49.5501 94.2604 48.8903 76.3775 59.4932C58.4945 70.0961 49.5314 87.9465 56.3578 99.3633C63.1842 110.78 83.215 111.44 101.098 100.837Z" fill="url(#paint8_radial_423_27977)"/>
<g opacity="0.5">
<g style="mix-blend-mode:multiply" opacity="0.4">
<path fill-rule="evenodd" clip-rule="evenodd" d="M103.123 130.316C103.108 130.267 103.099 130.216 103.096 130.164C103.482 130.593 103.888 131.022 103.971 131.494C103.606 131.494 103.206 130.676 103.123 130.316Z" fill="url(#paint9_linear_423_27977)"/>
<path fill-rule="evenodd" clip-rule="evenodd" d="M176.151 103.904V103.891C175.886 103.382 175.575 102.899 175.219 102.449C174.467 101.535 173.577 101.091 172.493 100.731C171.698 100.467 170.781 100.094 170.098 100.718C169.416 101.341 168.873 102.338 168.429 103.115C168.137 103.654 167.691 104.764 166.968 104.887C166.245 105.011 165.382 104 164.922 103.558C164.226 102.865 163.878 101.701 163.084 101.147C162.453 100.737 161.782 100.393 161.08 100.121C159.801 99.5938 158.437 99.4418 157.088 99.3514C156.085 99.2821 155.418 98.7837 154.576 98.3681C153.733 97.9524 152.655 97.8678 151.737 97.6888C150.902 97.5079 150.11 97.3425 149.289 97.1616C148.468 96.9807 147.689 96.8152 147.103 96.1783C146.33 95.347 145.795 94.2926 144.978 93.5306C143.476 92.1586 141.722 93.0457 139.87 93.0457C138.34 93.0457 137.117 92.0835 135.544 91.7295C133.735 91.3273 132.205 91.0637 131.049 89.4858C130.033 88.085 130.325 86.4224 129.741 84.885C128.599 81.8639 124.452 80.9345 121.586 80.769C119.291 80.644 117.188 81.4483 114.935 81.5041C112.959 81.5445 111.275 81.0461 110.008 82.7914C108.661 84.6291 107.277 86.5687 106.118 88.4948C105.227 89.9784 103.934 91.5852 103.391 93.29C103.1 94.204 103.154 95.2431 102.904 96.1764C102.525 97.4487 101.932 98.6478 101.15 99.7227C100.377 100.685 99.0358 101.316 97.9634 101.87C96.9624 102.384 96.3228 103.173 95.5151 103.95C94.5327 104.903 93.6382 105.942 92.8426 107.054C92.4948 107.566 92.2455 108.12 91.7586 108.522C91.2716 108.924 90.7421 109.1 90.2958 109.484C89.9344 109.804 89.6562 110.233 89.2813 110.552C88.6552 111.064 87.7083 111.578 86.8736 111.618C85.4533 111.674 84.1315 110.566 82.9354 111.978C82.2108 112.838 81.3625 114.32 81.5306 115.457C81.6697 116.454 82.518 117.272 83.1306 118.049C84.1451 119.336 86.1779 121.443 85.718 123.314C85.5383 124.049 84.9451 124.451 85.1055 125.238C85.2902 125.958 85.3888 126.698 85.3992 127.441C85.3837 127.94 85.175 128.994 85.4397 129.45C85.8011 130.06 87.1383 130.505 87.7586 130.766C89.1905 131.363 90.3595 132.236 91.7373 132.943C92.6706 133.428 93.2542 134.12 94.2494 134.44C95.1808 134.744 96.031 134.592 96.9759 134.773C97.5557 134.882 98.2436 134.952 98.8271 135.104C99.2581 135.229 99.6484 135.575 100.079 135.681C101.722 136.066 103.751 135.737 105.438 135.737C106.495 135.737 107.691 135.944 108.582 135.39C109.708 134.682 109.973 133.907 109.987 132.591C110.002 131.469 109.36 130.526 109.02 129.431C108.812 128.808 108.686 128.115 108.325 127.588C108.017 127.172 107.627 127.172 107.252 126.908C106.709 126.535 106.57 126.05 105.762 125.912C105.163 125.836 104.557 126.001 104.079 126.37C103.37 126.881 102.089 128.072 102.313 129.002C102.41 129.404 102.744 129.772 103.086 130.156C103.03 129.67 103.295 129.296 103.364 128.769C104.742 129.102 106.8 129.477 107.83 130.572C107.608 131.569 106.329 132.206 105.438 132.235C103.739 132.304 102.166 132.483 100.831 131.272C99.745 130.289 99.6484 128.944 99.0088 127.684C98.661 127.018 98.3962 126.45 97.8958 125.923C97.5191 125.518 97.1832 125.077 96.8929 124.607C96.3634 123.789 95.7933 122.459 96.5721 121.655C97.3508 120.851 98.9933 120.214 99.9537 119.673C101.527 118.773 103.169 117.984 104.742 117.083C106.955 115.836 108.734 114.197 111.393 114.004C113.424 113.866 116.054 114.337 117.697 115.627C118.837 116.527 119.074 117.705 119.644 118.952C120.172 120.014 120.945 120.938 121.9 121.646C123.082 122.519 124.334 123.35 125.546 124.209C127.146 125.346 128.342 125.679 129.428 127.411C131.138 130.168 131.863 133.299 132.837 136.349C133.337 137.888 133.644 139.427 133.979 141.017C134.228 142.223 134.883 143.276 135.314 144.426C135.675 145.424 136.142 146.38 136.705 147.28C136.997 147.738 137.318 148.14 137.428 148.694C137.832 150.661 135.911 152.075 134.916 153.517C133.816 155.123 132.597 156.607 132.017 158.504C131.559 159.988 132.116 160.736 132.404 162.079C132.891 164.437 131.805 165.878 130.278 167.498C129.471 168.358 128.609 169.078 127.552 169.536C124.628 170.81 122.041 173.069 119.822 175.299C119.488 176.047 118.263 176.908 117.697 177.323C123.323 176.745 128.85 175.439 134.137 173.438C147.943 168.2 159.586 158.503 167.203 145.896C174.82 133.29 177.97 118.504 176.151 103.904ZM102.609 104.735C102.274 105.58 100.228 106.038 99.4494 106.275C99.1576 106.359 98.7112 106.498 98.4465 106.29C97.7238 105.713 100.172 103.864 100.159 103.893L99.4494 103.546C100.075 103.546 100.257 102.776 100.868 102.798C101.007 102.798 101.579 103.144 101.689 103.227C102.162 103.544 102.872 104.043 102.609 104.735ZM124.748 89.4935C124.205 92.4722 120.906 94.5793 118.249 95.5202C116.951 95.9942 115.574 96.2201 114.191 96.186C112.953 96.1725 111.534 96.4208 110.336 96.1302C108.137 95.5895 107.527 94.052 108.249 93.0399C107.832 91.9739 107.233 91.004 107.735 89.9092C108.14 89.0994 108.605 88.3211 109.127 87.5808C110.045 86.1954 111.492 86.1665 112.966 85.697C116.099 84.6849 119.326 83.6034 122.402 85.3122C123.884 86.1531 125.082 87.7463 124.748 89.4935ZM154.332 151.069C153.107 154.825 149.824 156.543 146.41 157.817C144.574 158.51 142.904 159.453 141.123 160.228C139.94 160.756 139.09 161.088 137.894 160.613C136.294 159.99 135.876 158.496 136.684 157.024C137.602 155.362 139.494 153.961 139.105 151.856C138.832 150.576 138.762 149.262 138.897 147.961C139.107 145.876 139.2 143.78 139.175 141.684C137.822 144.346 137.671 142.114 137.741 140.632C137.797 139.425 138.214 138.775 139.215 138.082C142.64 135.741 147.356 138.013 150.46 139.91C152.408 141.103 153.812 143.182 154.607 145.273C155.333 147.236 154.958 149.147 154.332 151.073V151.069ZM153.246 111.978C152.23 112.047 150.755 110.774 150.073 110.206C149.364 109.609 148.85 108.847 148.222 108.168C147.666 107.572 146.97 106.964 146.539 106.256C146.066 105.453 145.816 104.399 145.496 103.527C145.033 102.196 144.446 100.911 143.743 99.6881C143.465 100.546 143.395 99.7016 144.075 99.3821C144.578 99.1474 145.44 99.3283 145.955 99.411C147.43 99.6881 148.361 100.312 149.364 101.42C150.435 102.598 151.683 103.65 152.732 104.843C153.581 105.826 155.349 107.697 155.389 109.055C155.418 110.029 154.319 111.895 153.246 111.982V111.978Z" fill="url(#paint10_linear_423_27977)"/>
<path fill-rule="evenodd" clip-rule="evenodd" d="M163.795 73.114C163.216 73.6548 162.443 74.0011 161.67 74.486C161.1 74.8458 160.51 75.5944 159.931 75.833C159.136 76.1659 158.01 75.8465 157.287 75.5559C155.478 74.8228 154.336 74.1435 152.429 74.8362C151.832 75.0575 151.345 75.0287 150.746 75.1691C150.259 75.2788 150.134 75.5424 149.536 75.5424C148.408 75.5424 147.364 74.4745 146.638 73.6855C145.761 72.7581 145.37 72.7427 144.091 72.7427C142.895 72.7292 141.502 73.0756 141.239 74.4899C140.918 76.1928 143.005 77.4955 144.105 78.3557C145.705 79.616 143.923 79.9489 143.27 81.1265C142.617 82.3042 143.882 82.9276 142.949 83.9398C141.14 85.8929 136.883 87.3341 134.489 85.9621C132.82 85 132.025 83.1912 130.717 81.8327C129.981 81.063 129.077 80.4473 128.338 79.6718C127.239 78.5173 126.418 76.9779 125.805 75.5424C126.385 77.0818 125.403 74.9055 125.082 73.089C124.943 72.2712 125.318 71.7324 125.469 70.9839C125.622 70.1931 125.175 69.8756 124.827 69.2521C124.188 68.0456 123.144 67.0489 124.118 65.7596C124.724 64.9671 125.399 64.2298 126.136 63.5564C126.874 62.8502 127.639 61.9073 128.586 61.4397C128.709 60.8721 126.914 59.1537 126.526 58.6554C125.608 57.5008 124.731 56.175 123.604 55.2052C123.158 54.8204 122.296 54.4144 122.018 53.9025C121.405 52.7383 123.227 51.2836 124.022 50.7295C125.399 49.7673 126.651 49.6211 128.273 49.6211C129.289 49.6346 130.36 49.648 131.432 49.7173C131.459 49.7173 131.473 49.7173 131.486 49.7308C133.102 50.2445 134.659 50.8391 136.219 51.5049C137.378 51.9764 138.501 52.4882 139.627 53.0443C149.181 57.7024 157.467 64.5855 163.782 73.1102L163.795 73.114Z" fill="url(#paint11_linear_423_27977)"/>
<path fill-rule="evenodd" clip-rule="evenodd" d="M144.8 87.0859C146.168 87.4195 147.516 87.8159 148.843 88.2751C148.638 88.558 148.79 88.8986 148.966 89.0987C148.449 89.6278 147.8 90.0114 147.086 90.2109C146.205 90.4129 145.84 90.184 145.171 89.7991C144.503 89.4143 143.695 89.3912 143.722 88.4964C143.753 87.5343 144.7 87.2033 145.503 87.0859H144.8Z" fill="url(#paint12_linear_423_27977)"/>
<path fill-rule="evenodd" clip-rule="evenodd" d="M69.8651 165.041C70.325 165.305 70.7965 165.555 71.27 165.811C70.3601 166.051 69.4275 166.195 68.4874 166.242C68.2787 165.355 67.8342 164.385 64.9937 162.707C66.6641 163.385 68.291 164.164 69.8651 165.041Z" fill="url(#paint13_linear_423_27977)"/>
<path fill-rule="evenodd" clip-rule="evenodd" d="M129.326 155.202C128.827 156.104 128.587 157.125 128.63 158.154C128.63 159.137 128.657 160.136 128.63 161.119C128.603 162.478 127.683 163.365 126.877 164.377C125.911 165.581 124.719 166.413 123.565 167.411C122.986 167.923 122.661 168.629 122.132 169.184C121.602 169.738 120.972 170.182 120.532 170.75C120.016 171.429 119.863 171.789 119.154 172.316C118.346 172.894 117.749 173.59 117.028 174.269C115.846 175.378 114.649 176.578 113.341 177.65C112.478 177.693 111.602 177.706 110.725 177.706C97.9133 177.707 85.3808 173.979 74.6689 166.98C75.4419 167.173 76.1994 167.383 76.9665 167.521C77.8554 167.689 78.5936 168.006 79.4284 168.229C80.9047 168.645 82.8795 168.312 84.41 168.299C86.7906 168.299 89.0476 168.714 91.3819 169.032C93.0515 169.268 94.3191 169.517 95.9752 169.005C97.3435 168.605 98.6601 168.047 99.8979 167.342C102.487 165.832 105.562 165.887 108.261 164.456C109.421 163.846 110.335 162.863 111.463 162.17C112.043 161.823 112.895 161.208 113.521 161.015C114.064 160.834 114.551 160.823 115.107 160.613C116.46 160.099 117.877 159.822 119.214 159.297C120.373 158.852 122.192 158.064 123.109 157.203C124.306 156.095 126.008 154.267 126.518 152.741C126.881 151.689 126.881 150.732 126.881 149.61C126.881 149.139 126.866 148.648 126.881 148.183C126.881 147.573 126.742 147.351 126.603 146.88C126.269 145.702 126.895 145.26 127.183 144.29C127.461 143.403 127.782 142.627 128.004 141.698C128.309 140.464 128.24 139.801 127.838 138.552C127.699 138.08 127.391 137.486 127.308 137.07C127.196 136.599 127.239 136.127 127.21 135.629C127.225 136.225 127.892 137.526 128.087 138.026C128.505 139.037 129.283 139.897 129.339 141.005C129.395 142.058 129.048 142.987 128.812 143.984C128.534 145.108 129.005 145.827 128.978 146.949C128.935 147.418 128.963 147.89 129.061 148.35C129.2 148.904 129.243 149.389 129.353 149.93C129.562 150.83 130.19 151.689 130.398 152.535C130.659 153.582 129.786 154.4 129.326 155.202Z" fill="url(#paint14_linear_423_27977)"/>
</g>
<path style="mix-blend-mode:multiply" opacity="0.4" fill-rule="evenodd" clip-rule="evenodd" d="M78.5335 156.256C78.7267 159.637 76.6687 162.504 74.0678 164.486C73.5545 164.879 72.987 165.197 72.3828 165.429C71.0204 164.467 69.6775 163.447 68.404 162.365C61.5435 156.659 55.9232 149.62 51.8862 141.678C49.2908 136.612 47.3836 131.225 46.2147 125.659C46.2012 125.645 46.2012 125.632 46.2012 125.603C45.5933 122.715 45.1839 119.789 44.9761 116.846C45.1983 116.625 45.4205 116.403 45.6582 116.14C45.6292 118.287 46.4311 120.061 47.0495 122.153C47.5094 123.706 48.0505 125.216 48.4408 126.781C48.7616 128.056 49.0398 129.178 49.8611 130.244C50.3886 130.937 50.862 131.206 51.6408 131.547C52.2398 131.811 52.6997 132.317 53.2968 132.53C54.6825 133.04 56.1481 133.301 57.6253 133.3C58.3635 133.286 58.7519 133.3 59.378 133.646C59.8108 133.896 60.1857 134.243 60.6031 134.52C61.5647 135.169 62.4473 135.927 63.233 136.779C64.4292 138.126 64.3924 139.992 65.349 141.476C66.1412 142.723 67.3238 143.112 68.7847 143.112C71.6832 143.125 74.2127 146.506 75.7161 148.709C77.1151 150.764 78.3943 153.776 78.5335 156.256Z" fill="url(#paint15_linear_423_27977)"/>
</g>
<path style="mix-blend-mode:screen" opacity="0.5" fill-rule="evenodd" clip-rule="evenodd" d="M25.8418 80.7494C25.8418 80.7494 18.2148 112.332 25.409 120.342C35.7684 131.888 78.4407 94.4095 124.804 78.4961C171.167 62.5827 191.776 86.5779 195.563 85.0251C199.35 83.4722 181.146 37.179 117.867 32.7167C54.5876 28.2544 35.8206 56.2443 25.8418 80.7494Z" fill="url(#paint16_linear_423_27977)"/>
<path style="mix-blend-mode:screen" opacity="0.5" fill-rule="evenodd" clip-rule="evenodd" d="M201.984 105.03C201.984 159.303 150.991 207.704 99.376 202.868C45.1192 197.782 19.4709 160.302 19.4709 106.027C19.4709 51.7523 49.5945 29.0752 104.099 29.0752C158.603 29.0752 201.984 50.7555 201.984 105.03Z" fill="url(#paint17_radial_423_27977)"/>
<g style="mix-blend-mode:screen" opacity="0.5">
<path d="M106.475 203.89C104.081 203.89 101.697 203.779 99.3256 203.557C47.3741 198.691 18.7751 164.053 18.7751 106.028C18.7751 53.7827 46.6842 28.3828 104.099 28.3828C166.748 28.3828 202.68 56.3188 202.68 105.031C202.68 132.024 190.251 158.773 168.58 178.417C150.477 194.829 128.199 203.89 106.475 203.89ZM104.099 29.7683C47.6214 29.7683 20.1664 54.7121 20.1664 106.028C20.1664 163.239 48.3229 197.386 99.4493 202.178C122.98 204.381 147.834 195.348 167.642 177.393C189.026 158.011 201.289 131.635 201.289 105.031C201.289 57.2001 165.865 29.7683 104.099 29.7683Z" fill="url(#paint18_radial_423_27977)"/>
</g>
<path style="mix-blend-mode:screen" opacity="0.5" fill-rule="evenodd" clip-rule="evenodd" d="M24.6399 89.9592C24.6399 89.9592 41.9307 117.476 76.1045 134.33L106.949 112.425C106.949 112.425 86.2726 61.4324 83.8165 33.5176C83.8165 33.5176 27.5578 39.5116 24.6399 89.9592Z" fill="url(#paint19_linear_423_27977)"/>
<path fill-rule="evenodd" clip-rule="evenodd" d="M25.8379 94.0645C29.2234 98.8751 39.6563 87.2816 48.4214 75.1589C57.1866 63.0363 62.0407 55.9513 60.8117 49.0356C59.5828 42.1199 40.0041 54.585 33.0089 64.1196C26.0138 73.6542 22.6747 89.5734 25.8379 94.0645Z" fill="white"/>
<path fill-rule="evenodd" clip-rule="evenodd" d="M26.3269 95.9619C26.3269 95.9619 21.7684 100.763 24.3791 104.592C26.9897 108.421 30.3694 105.812 29.8476 103.064C29.3259 100.316 28.3249 96.4391 26.3269 95.9619Z" fill="white"/>
<path fill-rule="evenodd" clip-rule="evenodd" d="M154.512 180.618C154.512 180.618 149.016 181.326 144.92 186.023C140.823 190.72 146.819 189.953 150.185 187.178C153.552 184.403 154.535 181.936 154.512 180.618Z" fill="#BFFFFF"/>
<path style="mix-blend-mode:screen" fill-rule="evenodd" clip-rule="evenodd" d="M151.161 186.633C151.161 186.633 110.995 204.234 74.4272 187.818C74.4272 187.818 100.53 216.278 151.161 186.633Z" fill="url(#paint20_radial_423_27977)"/>
<path style="mix-blend-mode:screen" fill-rule="evenodd" clip-rule="evenodd" d="M35.6987 60.503C35.6987 60.503 46.6687 39.6982 92.2184 32.7171C137.768 25.736 170.137 46.916 181.892 57.9245C181.892 57.9245 151.009 33.2501 100.489 37.6335C49.9692 42.0169 35.6987 60.503 35.6987 60.503Z" fill="url(#paint21_radial_423_27977)"/>
<path style="mix-blend-mode:screen" opacity="0.5" fill-rule="evenodd" clip-rule="evenodd" d="M181.899 95.1729C183.304 85.5844 198.931 81.9265 198.931 81.9265C197.791 77.4218 194.603 70.7852 194.603 70.7852C194.603 70.7852 188.926 71.6857 169.986 83.2927C151.047 94.8996 101.809 138.584 63.4128 142.74C25.0168 146.896 22.3115 135.969 22.3115 135.969L23.5676 140.566C23.5676 140.566 65.7935 152.779 59.8051 161.674C52.551 172.45 31.1096 160.477 31.1096 160.477L32.3018 162.694C32.3018 162.694 63.152 176.441 112.12 172.575C161.088 168.709 190.999 148.397 190.999 148.397C199.654 134.597 201.938 107.159 201.938 107.159C201.938 107.159 180.479 104.763 181.899 95.1729ZM92.2186 156.664C77.2563 160.628 60.6902 153.635 59.9945 150.075C59.0766 145.293 100.901 132.74 105.448 133.099C109.994 133.459 113.461 151.039 92.2186 156.664ZM176.709 100.091C181.72 100.438 188.566 108.943 186.284 112.106C184.002 115.27 175.555 119.69 172.493 116.513C169.43 113.336 171.157 99.7218 176.709 100.095V100.091ZM181.892 151.035C172.931 159.086 141.919 166.021 136.288 162.694C129.26 158.551 180.674 113.049 191.21 114.369C201.745 115.689 190.868 143.002 181.892 151.039V151.035Z" fill="url(#paint22_linear_423_27977)"/>
<path style="mix-blend-mode:screen" opacity="0.5" fill-rule="evenodd" clip-rule="evenodd" d="M47.7605 182.166C47.7605 182.166 62.4658 192.308 112.796 187.228C163.126 182.148 183.387 160.747 183.387 160.747L177.82 167.878C177.82 167.878 165.7 176.318 148.966 182.681C132.232 189.045 99.1381 188.672 92.2183 201.981C92.2183 201.981 64.8001 197.867 47.7605 182.166Z" fill="url(#paint23_linear_423_27977)"/>
<defs>
<radialGradient id="paint0_radial_423_27977" cx="0" cy="0" r="1" gradientUnits="userSpaceOnUse" gradientTransform="translate(114.052 126.834) scale(114.564 114.082)">
<stop stop-color="#31D1F9"/>
<stop offset="1"/>
</radialGradient>
<radialGradient id="paint1_radial_423_27977" cx="0" cy="0" r="1" gradientUnits="userSpaceOnUse" gradientTransform="translate(110.727 109.986) scale(77.5959 77.2695)">
<stop stop-color="#31D1F9"/>
<stop offset="1"/>
</radialGradient>
<radialGradient id="paint2_radial_423_27977" cx="0" cy="0" r="1" gradientUnits="userSpaceOnUse" gradientTransform="translate(116.926 131.324) scale(96.7224 96.3155)">
<stop stop-color="#31D1F9"/>
<stop offset="1"/>
</radialGradient>
<radialGradient id="paint3_radial_423_27977" cx="0" cy="0" r="1" gradientUnits="userSpaceOnUse" gradientTransform="translate(90.3943 152.269) rotate(49.6709) scale(96.4834 96.5503)">
<stop stop-color="#31D1F9"/>
<stop offset="1"/>
</radialGradient>
<radialGradient id="paint4_radial_423_27977" cx="0" cy="0" r="1" gradientUnits="userSpaceOnUse" gradientTransform="translate(110.727 111.866) scale(72.6606 72.355)">
<stop stop-color="#FFFFF9"/>
<stop offset="0.09" stop-color="#F9F9F3"/>
<stop offset="0.22" stop-color="#E8E8E3"/>
<stop offset="0.36" stop-color="#CCCCC7"/>
<stop offset="0.52" stop-color="#A5A5A1"/>
<stop offset="0.68" stop-color="#737370"/>
<stop offset="0.86" stop-color="#373736"/>
<stop offset="1"/>
</radialGradient>
<radialGradient id="paint5_radial_423_27977" cx="0" cy="0" r="1" gradientUnits="userSpaceOnUse" gradientTransform="translate(78.6146 71.7608) scale(110.518 110.053)">
<stop offset="0.01" stop-color="#B1FFFF"/>
<stop offset="0.29" stop-color="#B1FDFF"/>
<stop offset="0.44" stop-color="#AFF5FF"/>
<stop offset="0.55" stop-color="#ACE8FF"/>
<stop offset="0.62" stop-color="#A9DBFF"/>
<stop offset="0.65" stop-color="#A2D7FE"/>
<stop offset="0.7" stop-color="#8FCAFC"/>
<stop offset="0.76" stop-color="#6FB5F9"/>
<stop offset="0.82" stop-color="#4399F4"/>
<stop offset="0.89" stop-color="#0C75EE"/>
<stop offset="0.91" stop-color="#006DED"/>
</radialGradient>
<linearGradient id="paint6_linear_423_27977" x1="44.8023" y1="94.0435" x2="139.637" y2="94.0435" gradientUnits="userSpaceOnUse">
<stop offset="0.01" stop-color="#B0E1FF"/>
<stop offset="0.29" stop-color="#ADDEFF"/>
<stop offset="0.5" stop-color="#A5D5FF"/>
<stop offset="0.68" stop-color="#98C5FF"/>
<stop offset="0.85" stop-color="#85AEFF"/>
<stop offset="1" stop-color="#6D93FF"/>
</linearGradient>
<radialGradient id="paint7_radial_423_27977" cx="0" cy="0" r="1" gradientUnits="userSpaceOnUse" gradientTransform="translate(62.551 67.3678) scale(86.7727 86.4076)">
<stop stop-color="#FFFFD9"/>
<stop offset="1"/>
</radialGradient>
<radialGradient id="paint8_radial_423_27977" cx="0" cy="0" r="1" gradientUnits="userSpaceOnUse" gradientTransform="translate(88.4196 80.2289) rotate(-30.6639) scale(37.7117 24.1139)">
<stop stop-color="white"/>
<stop offset="0.17" stop-color="#C5C5C5"/>
<stop offset="0.4" stop-color="#808080"/>
<stop offset="0.6" stop-color="#494949"/>
<stop offset="0.78" stop-color="#212121"/>
<stop offset="0.92" stop-color="#090909"/>
<stop offset="1"/>
</radialGradient>
<linearGradient id="paint9_linear_423_27977" x1="103.096" y1="130.828" x2="103.971" y2="130.828" gradientUnits="userSpaceOnUse">
<stop stop-color="#E8DDFF"/>
<stop offset="1" stop-color="#AA8AD8"/>
</linearGradient>
<linearGradient id="paint10_linear_423_27977" x1="81.5055" y1="129.04" x2="176.653" y2="129.04" gradientUnits="userSpaceOnUse">
<stop stop-color="#E8DDFF"/>
<stop offset="1" stop-color="#AA8AD8"/>
</linearGradient>
<linearGradient id="paint11_linear_423_27977" x1="121.911" y1="68.0629" x2="163.795" y2="68.0629" gradientUnits="userSpaceOnUse">
<stop stop-color="#E8DDFF"/>
<stop offset="1" stop-color="#AA8AD8"/>
</linearGradient>
<linearGradient id="paint12_linear_423_27977" x1="143.722" y1="88.685" x2="148.966" y2="88.685" gradientUnits="userSpaceOnUse">
<stop stop-color="#E8DDFF"/>
<stop offset="1" stop-color="#AA8AD8"/>
</linearGradient>
<linearGradient id="paint13_linear_423_27977" x1="64.9937" y1="164.466" x2="71.27" y2="164.466" gradientUnits="userSpaceOnUse">
<stop stop-color="#E8DDFF"/>
<stop offset="1" stop-color="#AA8AD8"/>
</linearGradient>
<linearGradient id="paint14_linear_423_27977" x1="74.6651" y1="156.665" x2="130.447" y2="156.665" gradientUnits="userSpaceOnUse">
<stop stop-color="#E8DDFF"/>
<stop offset="1" stop-color="#AA8AD8"/>
</linearGradient>
<linearGradient id="paint15_linear_423_27977" x1="44.9838" y1="140.783" x2="78.547" y2="140.783" gradientUnits="userSpaceOnUse">
<stop stop-color="#E8DDFF"/>
<stop offset="1" stop-color="#AA8AD8"/>
</linearGradient>
<linearGradient id="paint16_linear_423_27977" x1="22.3191" y1="77.3782" x2="196.038" y2="77.3782" gradientUnits="userSpaceOnUse">
<stop stop-color="#A4FFE8"/>
<stop offset="0.2" stop-color="#78BBAA"/>
<stop offset="0.42" stop-color="#4E796E"/>
<stop offset="0.61" stop-color="#2C453F"/>
<stop offset="0.78" stop-color="#141F1D"/>
<stop offset="0.91" stop-color="#050808"/>
<stop offset="1"/>
</linearGradient>
<radialGradient id="paint17_radial_423_27977" cx="0" cy="0" r="1" gradientUnits="userSpaceOnUse" gradientTransform="translate(110.729 116.139) scale(89.364 88.988)">
<stop offset="0.89"/>
<stop offset="0.9" stop-color="#000506"/>
<stop offset="0.92" stop-color="#001217"/>
<stop offset="0.94" stop-color="#002932"/>
<stop offset="0.96" stop-color="#004858"/>
<stop offset="0.99" stop-color="#006F89"/>
<stop offset="1" stop-color="#008BAB"/>
</radialGradient>
<radialGradient id="paint18_radial_423_27977" cx="0" cy="0" r="1" gradientUnits="userSpaceOnUse" gradientTransform="translate(110.728 116.137) scale(90.0596 89.6808)">
<stop offset="0.89"/>
<stop offset="0.9" stop-color="#000506"/>
<stop offset="0.92" stop-color="#001217"/>
<stop offset="0.94" stop-color="#002932"/>
<stop offset="0.96" stop-color="#004858"/>
<stop offset="0.99" stop-color="#006F89"/>
<stop offset="1" stop-color="#008BAB"/>
</radialGradient>
<linearGradient id="paint19_linear_423_27977" x1="38.0756" y1="55.6212" x2="110.889" y2="106.821" gradientUnits="userSpaceOnUse">
<stop stop-color="#BDFFE8"/>
<stop offset="0.2" stop-color="#8BBBAA"/>
<stop offset="0.42" stop-color="#5A796E"/>
<stop offset="0.61" stop-color="#33453F"/>
<stop offset="0.78" stop-color="#171F1D"/>
<stop offset="0.91" stop-color="#060808"/>
<stop offset="1"/>
</linearGradient>
<radialGradient id="paint20_radial_423_27977" cx="0" cy="0" r="1" gradientUnits="userSpaceOnUse" gradientTransform="translate(112.522 190.066) rotate(-12.0454) scale(27.6355 27.5294)">
<stop stop-color="#2C63D9"/>
<stop offset="1"/>
</radialGradient>
<radialGradient id="paint21_radial_423_27977" cx="0" cy="0" r="1" gradientUnits="userSpaceOnUse" gradientTransform="translate(108.796 45.9193) scale(52.7148 52.4931)">
<stop stop-color="#2C63D9"/>
<stop offset="1"/>
</radialGradient>
<linearGradient id="paint22_linear_423_27977" x1="112.126" y1="173.264" x2="112.126" y2="70.7852" gradientUnits="userSpaceOnUse">
<stop stop-color="#BDFFE8"/>
<stop offset="0.2" stop-color="#8BBBAA"/>
<stop offset="0.42" stop-color="#5A796E"/>
<stop offset="0.61" stop-color="#33453F"/>
<stop offset="0.78" stop-color="#171F1D"/>
<stop offset="0.91" stop-color="#060808"/>
<stop offset="1"/>
</linearGradient>
<linearGradient id="paint23_linear_423_27977" x1="47.7605" y1="181.365" x2="183.387" y2="181.365" gradientUnits="userSpaceOnUse">
<stop stop-color="#BDFFE8"/>
<stop offset="0.2" stop-color="#8BBBAA"/>
<stop offset="0.42" stop-color="#5A796E"/>
<stop offset="0.61" stop-color="#33453F"/>
<stop offset="0.78" stop-color="#171F1D"/>
<stop offset="0.91" stop-color="#060808"/>
<stop offset="1"/>
</linearGradient>
</defs>
</svg>
